<?xml version="1.0" encoding="utf-8"?>
<svg xmlns="http://www.w3.org/2000/svg" xmlns:xlink="http://www.w3.org/1999/xlink" width="600" height="400" viewBox="0 0 2400 1600">
<defs>
  <clipPath id="clip300">
    <rect x="0" y="0" width="2400" height="1600"/>
  </clipPath>
</defs>
<path clip-path="url(#clip300)" d="M0 1600 L2400 1600 L2400 0 L0 0  Z" fill="#ffffff" fill-rule="evenodd" fill-opacity="1"/>
<defs>
  <clipPath id="clip301">
    <rect x="112" y="47" width="2242" height="1377"/>
  </clipPath>
</defs>
<path clip-path="url(#clip300)" d="M112.177 1423.18 L2352.76 1423.18 L2352.76 47.2441 L112.177 47.2441  Z" fill="#ffffff" fill-rule="evenodd" fill-opacity="1"/>
<polyline clip-path="url(#clip301)" style="stroke:#000000; stroke-linecap:round; stroke-linejoin:round; stroke-width:2; stroke-opacity:0.1; fill:none" points="112.177,1423.18 112.177,47.2441 "/>
<polyline clip-path="url(#clip301)" style="stroke:#000000; stroke-linecap:round; stroke-linejoin:round; stroke-width:2; stroke-opacity:0.1; fill:none" points="610.084,1423.18 610.084,47.2441 "/>
<polyline clip-path="url(#clip301)" style="stroke:#000000; stroke-linecap:round; stroke-linejoin:round; stroke-width:2; stroke-opacity:0.1; fill:none" points="1107.99,1423.18 1107.99,47.2441 "/>
<polyline clip-path="url(#clip301)" style="stroke:#000000; stroke-linecap:round; stroke-linejoin:round; stroke-width:2; stroke-opacity:0.1; fill:none" points="1605.9,1423.18 1605.9,47.2441 "/>
<polyline clip-path="url(#clip301)" style="stroke:#000000; stroke-linecap:round; stroke-linejoin:round; stroke-width:2; stroke-opacity:0.1; fill:none" points="2103.8,1423.18 2103.8,47.2441 "/>
<polyline clip-path="url(#clip301)" style="stroke:#000000; stroke-linecap:round; stroke-linejoin:round; stroke-width:2; stroke-opacity:0.1; fill:none" points="112.177,1410.83 2352.76,1410.83 "/>
<polyline clip-path="url(#clip301)" style="stroke:#000000; stroke-linecap:round; stroke-linejoin:round; stroke-width:2; stroke-opacity:0.1; fill:none" points="112.177,1113.61 2352.76,1113.61 "/>
<polyline clip-path="url(#clip301)" style="stroke:#000000; stroke-linecap:round; stroke-linejoin:round; stroke-width:2; stroke-opacity:0.1; fill:none" points="112.177,816.382 2352.76,816.382 "/>
<polyline clip-path="url(#clip301)" style="stroke:#000000; stroke-linecap:round; stroke-linejoin:round; stroke-width:2; stroke-opacity:0.1; fill:none" points="112.177,519.158 2352.76,519.158 "/>
<polyline clip-path="url(#clip301)" style="stroke:#000000; stroke-linecap:round; stroke-linejoin:round; stroke-width:2; stroke-opacity:0.1; fill:none" points="112.177,221.933 2352.76,221.933 "/>
<polyline clip-path="url(#clip300)" style="stroke:#000000; stroke-linecap:round; stroke-linejoin:round; stroke-width:4; stroke-opacity:1; fill:none" points="112.177,1423.18 2352.76,1423.18 "/>
<polyline clip-path="url(#clip300)" style="stroke:#000000; stroke-linecap:round; stroke-linejoin:round; stroke-width:4; stroke-opacity:1; fill:none" points="112.177,1423.18 112.177,1404.28 "/>
<polyline clip-path="url(#clip300)" style="stroke:#000000; stroke-linecap:round; stroke-linejoin:round; stroke-width:4; stroke-opacity:1; fill:none" points="610.084,1423.18 610.084,1404.28 "/>
<polyline clip-path="url(#clip300)" style="stroke:#000000; stroke-linecap:round; stroke-linejoin:round; stroke-width:4; stroke-opacity:1; fill:none" points="1107.99,1423.18 1107.99,1404.28 "/>
<polyline clip-path="url(#clip300)" style="stroke:#000000; stroke-linecap:round; stroke-linejoin:round; stroke-width:4; stroke-opacity:1; fill:none" points="1605.9,1423.18 1605.9,1404.28 "/>
<polyline clip-path="url(#clip300)" style="stroke:#000000; stroke-linecap:round; stroke-linejoin:round; stroke-width:4; stroke-opacity:1; fill:none" points="2103.8,1423.18 2103.8,1404.28 "/>
<path clip-path="url(#clip300)" d="M112.177 1454.1 Q108.566 1454.1 106.737 1457.66 Q104.932 1461.2 104.932 1468.33 Q104.932 1475.44 106.737 1479.01 Q108.566 1482.55 112.177 1482.55 Q115.811 1482.55 117.617 1479.01 Q119.446 1475.44 119.446 1468.33 Q119.446 1461.2 117.617 1457.66 Q115.811 1454.1 112.177 1454.1 M112.177 1450.39 Q117.987 1450.39 121.043 1455 Q124.122 1459.58 124.122 1468.33 Q124.122 1477.06 121.043 1481.67 Q117.987 1486.25 112.177 1486.25 Q106.367 1486.25 103.288 1481.67 Q100.233 1477.06 100.233 1468.33 Q100.233 1459.58 103.288 1455 Q106.367 1450.39 112.177 1450.39 Z" fill="#000000" fill-rule="nonzero" fill-opacity="1" /><path clip-path="url(#clip300)" d="M584.771 1481.64 L592.41 1481.64 L592.41 1455.28 L584.1 1456.95 L584.1 1452.69 L592.364 1451.02 L597.04 1451.02 L597.04 1481.64 L604.678 1481.64 L604.678 1485.58 L584.771 1485.58 L584.771 1481.64 Z" fill="#000000" fill-rule="nonzero" fill-opacity="1" /><path clip-path="url(#clip300)" d="M624.123 1454.1 Q620.512 1454.1 618.683 1457.66 Q616.878 1461.2 616.878 1468.33 Q616.878 1475.44 618.683 1479.01 Q620.512 1482.55 624.123 1482.55 Q627.757 1482.55 629.563 1479.01 Q631.391 1475.44 631.391 1468.33 Q631.391 1461.2 629.563 1457.66 Q627.757 1454.1 624.123 1454.1 M624.123 1450.39 Q629.933 1450.39 632.989 1455 Q636.067 1459.58 636.067 1468.33 Q636.067 1477.06 632.989 1481.67 Q629.933 1486.25 624.123 1486.25 Q618.313 1486.25 615.234 1481.67 Q612.178 1477.06 612.178 1468.33 Q612.178 1459.58 615.234 1455 Q618.313 1450.39 624.123 1450.39 Z" fill="#000000" fill-rule="nonzero" fill-opacity="1" /><path clip-path="url(#clip300)" d="M1086.76 1481.64 L1103.08 1481.64 L1103.08 1485.58 L1081.14 1485.58 L1081.14 1481.64 Q1083.8 1478.89 1088.38 1474.26 Q1092.99 1469.61 1094.17 1468.27 Q1096.42 1465.74 1097.3 1464.01 Q1098.2 1462.25 1098.2 1460.56 Q1098.2 1457.8 1096.25 1456.07 Q1094.33 1454.33 1091.23 1454.33 Q1089.03 1454.33 1086.58 1455.09 Q1084.15 1455.86 1081.37 1457.41 L1081.37 1452.69 Q1084.19 1451.55 1086.65 1450.97 Q1089.1 1450.39 1091.14 1450.39 Q1096.51 1450.39 1099.7 1453.08 Q1102.9 1455.77 1102.9 1460.26 Q1102.9 1462.39 1102.09 1464.31 Q1101.3 1466.2 1099.19 1468.8 Q1098.61 1469.47 1095.51 1472.69 Q1092.41 1475.88 1086.76 1481.64 Z" fill="#000000" fill-rule="nonzero" fill-opacity="1" /><path clip-path="url(#clip300)" d="M1122.9 1454.1 Q1119.29 1454.1 1117.46 1457.66 Q1115.65 1461.2 1115.65 1468.33 Q1115.65 1475.44 1117.46 1479.01 Q1119.29 1482.55 1122.9 1482.55 Q1126.53 1482.55 1128.34 1479.01 Q1130.17 1475.44 1130.17 1468.33 Q1130.17 1461.2 1128.34 1457.66 Q1126.53 1454.1 1122.9 1454.1 M1122.9 1450.39 Q1128.71 1450.39 1131.76 1455 Q1134.84 1459.58 1134.84 1468.33 Q1134.84 1477.06 1131.76 1481.67 Q1128.71 1486.25 1122.9 1486.25 Q1117.09 1486.25 1114.01 1481.67 Q1110.95 1477.06 1110.95 1468.33 Q1110.95 1459.58 1114.01 1455 Q1117.09 1450.39 1122.9 1450.39 Z" fill="#000000" fill-rule="nonzero" fill-opacity="1" /><path clip-path="url(#clip300)" d="M1594.74 1466.95 Q1598.1 1467.66 1599.97 1469.93 Q1601.87 1472.2 1601.87 1475.53 Q1601.87 1480.65 1598.35 1483.45 Q1594.83 1486.25 1588.35 1486.25 Q1586.17 1486.25 1583.86 1485.81 Q1581.57 1485.39 1579.11 1484.54 L1579.11 1480.02 Q1581.06 1481.16 1583.37 1481.74 Q1585.69 1482.32 1588.21 1482.32 Q1592.61 1482.32 1594.9 1480.58 Q1597.22 1478.84 1597.22 1475.53 Q1597.22 1472.48 1595.06 1470.77 Q1592.93 1469.03 1589.11 1469.03 L1585.09 1469.03 L1585.09 1465.19 L1589.3 1465.19 Q1592.75 1465.19 1594.58 1463.82 Q1596.41 1462.43 1596.41 1459.84 Q1596.41 1457.18 1594.51 1455.77 Q1592.63 1454.33 1589.11 1454.33 Q1587.19 1454.33 1584.99 1454.75 Q1582.79 1455.16 1580.16 1456.04 L1580.16 1451.88 Q1582.82 1451.14 1585.13 1450.77 Q1587.47 1450.39 1589.53 1450.39 Q1594.85 1450.39 1597.96 1452.83 Q1601.06 1455.23 1601.06 1459.35 Q1601.06 1462.22 1599.41 1464.21 Q1597.77 1466.18 1594.74 1466.95 Z" fill="#000000" fill-rule="nonzero" fill-opacity="1" /><path clip-path="url(#clip300)" d="M1620.73 1454.1 Q1617.12 1454.1 1615.29 1457.66 Q1613.49 1461.2 1613.49 1468.33 Q1613.49 1475.44 1615.29 1479.01 Q1617.12 1482.55 1620.73 1482.55 Q1624.37 1482.55 1626.17 1479.01 Q1628 1475.44 1628 1468.33 Q1628 1461.2 1626.17 1457.66 Q1624.37 1454.1 1620.73 1454.1 M1620.73 1450.39 Q1626.54 1450.39 1629.6 1455 Q1632.68 1459.58 1632.68 1468.33 Q1632.68 1477.06 1629.6 1481.67 Q1626.54 1486.25 1620.73 1486.25 Q1614.92 1486.25 1611.85 1481.67 Q1608.79 1477.06 1608.79 1468.33 Q1608.79 1459.58 1611.85 1455 Q1614.92 1450.39 1620.73 1450.39 Z" fill="#000000" fill-rule="nonzero" fill-opacity="1" /><path clip-path="url(#clip300)" d="M2091.97 1455.09 L2080.17 1473.54 L2091.97 1473.54 L2091.97 1455.09 M2090.75 1451.02 L2096.63 1451.02 L2096.63 1473.54 L2101.56 1473.54 L2101.56 1477.43 L2096.63 1477.43 L2096.63 1485.58 L2091.97 1485.58 L2091.97 1477.43 L2076.37 1477.43 L2076.37 1472.92 L2090.75 1451.02 Z" fill="#000000" fill-rule="nonzero" fill-opacity="1" /><path clip-path="url(#clip300)" d="M2119.29 1454.1 Q2115.68 1454.1 2113.85 1457.66 Q2112.04 1461.2 2112.04 1468.33 Q2112.04 1475.44 2113.85 1479.01 Q2115.68 1482.55 2119.29 1482.55 Q2122.92 1482.55 2124.73 1479.01 Q2126.56 1475.44 2126.56 1468.33 Q2126.56 1461.2 2124.73 1457.66 Q2122.92 1454.1 2119.29 1454.1 M2119.29 1450.39 Q2125.1 1450.39 2128.15 1455 Q2131.23 1459.58 2131.23 1468.33 Q2131.23 1477.06 2128.15 1481.67 Q2125.1 1486.25 2119.29 1486.25 Q2113.48 1486.25 2110.4 1481.67 Q2107.34 1477.06 2107.34 1468.33 Q2107.34 1459.58 2110.4 1455 Q2113.48 1450.39 2119.29 1450.39 Z" fill="#000000" fill-rule="nonzero" fill-opacity="1" /><path clip-path="url(#clip300)" d="M1231.53 1522.27 L1231.53 1532.4 L1243.59 1532.4 L1243.59 1536.95 L1231.53 1536.95 L1231.53 1556.3 Q1231.53 1560.66 1232.71 1561.9 Q1233.91 1563.14 1237.58 1563.14 L1243.59 1563.14 L1243.59 1568.04 L1237.58 1568.04 Q1230.8 1568.04 1228.22 1565.53 Q1225.64 1562.98 1225.64 1556.3 L1225.64 1536.95 L1221.34 1536.95 L1221.34 1532.4 L1225.64 1532.4 L1225.64 1522.27 L1231.53 1522.27 Z" fill="#000000" fill-rule="nonzero" fill-opacity="1" /><polyline clip-path="url(#clip300)" style="stroke:#000000; stroke-linecap:round; stroke-linejoin:round; stroke-width:4; stroke-opacity:1; fill:none" points="112.177,1423.18 112.177,47.2441 "/>
<polyline clip-path="url(#clip300)" style="stroke:#000000; stroke-linecap:round; stroke-linejoin:round; stroke-width:4; stroke-opacity:1; fill:none" points="112.177,1410.83 131.075,1410.83 "/>
<polyline clip-path="url(#clip300)" style="stroke:#000000; stroke-linecap:round; stroke-linejoin:round; stroke-width:4; stroke-opacity:1; fill:none" points="112.177,1113.61 131.075,1113.61 "/>
<polyline clip-path="url(#clip300)" style="stroke:#000000; stroke-linecap:round; stroke-linejoin:round; stroke-width:4; stroke-opacity:1; fill:none" points="112.177,816.382 131.075,816.382 "/>
<polyline clip-path="url(#clip300)" style="stroke:#000000; stroke-linecap:round; stroke-linejoin:round; stroke-width:4; stroke-opacity:1; fill:none" points="112.177,519.158 131.075,519.158 "/>
<polyline clip-path="url(#clip300)" style="stroke:#000000; stroke-linecap:round; stroke-linejoin:round; stroke-width:4; stroke-opacity:1; fill:none" points="112.177,221.933 131.075,221.933 "/>
<path clip-path="url(#clip300)" d="M64.2328 1396.63 Q60.6217 1396.63 58.793 1400.2 Q56.9875 1403.74 56.9875 1410.87 Q56.9875 1417.97 58.793 1421.54 Q60.6217 1425.08 64.2328 1425.08 Q67.867 1425.08 69.6726 1421.54 Q71.5013 1417.97 71.5013 1410.87 Q71.5013 1403.74 69.6726 1400.2 Q67.867 1396.63 64.2328 1396.63 M64.2328 1392.93 Q70.0429 1392.93 73.0985 1397.53 Q76.1772 1402.12 76.1772 1410.87 Q76.1772 1419.59 73.0985 1424.2 Q70.0429 1428.78 64.2328 1428.78 Q58.4226 1428.78 55.344 1424.2 Q52.2884 1419.59 52.2884 1410.87 Q52.2884 1402.12 55.344 1397.53 Q58.4226 1392.93 64.2328 1392.93 Z" fill="#000000" fill-rule="nonzero" fill-opacity="1" /><path clip-path="url(#clip300)" d="M56.2699 1126.95 L63.9087 1126.95 L63.9087 1100.59 L55.5986 1102.25 L55.5986 1097.99 L63.8624 1096.33 L68.5383 1096.33 L68.5383 1126.95 L76.1772 1126.95 L76.1772 1130.89 L56.2699 1130.89 L56.2699 1126.95 Z" fill="#000000" fill-rule="nonzero" fill-opacity="1" /><path clip-path="url(#clip300)" d="M59.8578 829.727 L76.1772 829.727 L76.1772 833.662 L54.2328 833.662 L54.2328 829.727 Q56.8949 826.973 61.4782 822.343 Q66.0846 817.69 67.2652 816.348 Q69.5105 813.825 70.3902 812.089 Q71.2929 810.329 71.2929 808.639 Q71.2929 805.885 69.3485 804.149 Q67.4272 802.413 64.3254 802.413 Q62.1263 802.413 59.6726 803.177 Q57.2421 803.94 54.4643 805.491 L54.4643 800.769 Q57.2884 799.635 59.7421 799.056 Q62.1958 798.477 64.2328 798.477 Q69.6031 798.477 72.7976 801.163 Q75.992 803.848 75.992 808.339 Q75.992 810.468 75.1818 812.389 Q74.3948 814.288 72.2883 816.88 Q71.7096 817.551 68.6078 820.769 Q65.5059 823.963 59.8578 829.727 Z" fill="#000000" fill-rule="nonzero" fill-opacity="1" /><path clip-path="url(#clip300)" d="M69.0476 517.803 Q72.404 518.521 74.279 520.79 Q76.1772 523.058 76.1772 526.391 Q76.1772 531.507 72.6587 534.308 Q69.1402 537.109 62.6587 537.109 Q60.4828 537.109 58.168 536.669 Q55.8764 536.252 53.4227 535.396 L53.4227 530.882 Q55.3671 532.016 57.6819 532.595 Q59.9967 533.174 62.5198 533.174 Q66.918 533.174 69.2096 531.438 Q71.5244 529.702 71.5244 526.391 Q71.5244 523.336 69.3717 521.623 Q67.242 519.887 63.4226 519.887 L59.3949 519.887 L59.3949 516.044 L63.6078 516.044 Q67.0569 516.044 68.8855 514.678 Q70.7142 513.29 70.7142 510.697 Q70.7142 508.035 68.8161 506.623 Q66.9411 505.188 63.4226 505.188 Q61.5013 505.188 59.3023 505.604 Q57.1032 506.021 54.4643 506.901 L54.4643 502.734 Q57.1264 501.993 59.4412 501.623 Q61.7791 501.253 63.8393 501.253 Q69.1633 501.253 72.2652 503.683 Q75.367 506.091 75.367 510.211 Q75.367 513.081 73.7235 515.072 Q72.08 517.04 69.0476 517.803 Z" fill="#000000" fill-rule="nonzero" fill-opacity="1" /><path clip-path="url(#clip300)" d="M66.5939 208.727 L54.7884 227.176 L66.5939 227.176 L66.5939 208.727 M65.367 204.653 L71.2466 204.653 L71.2466 227.176 L76.1772 227.176 L76.1772 231.065 L71.2466 231.065 L71.2466 239.213 L66.5939 239.213 L66.5939 231.065 L50.9921 231.065 L50.9921 226.551 L65.367 204.653 Z" fill="#000000" fill-rule="nonzero" fill-opacity="1" /><polyline clip-path="url(#clip301)" style="stroke:#009af9; stroke-linecap:round; stroke-linejoin:round; stroke-width:24; stroke-opacity:1; fill:none" points="112.177,816.382 114.42,829.615 116.663,842.538 118.906,855.14 121.148,867.413 123.391,879.343 125.634,890.918 127.877,902.128 130.12,912.961 132.363,923.41 134.605,933.471 136.848,943.14 139.091,952.417 141.334,961.304 143.577,969.806 145.819,977.928 148.062,985.677 150.305,993.063 152.548,1000.1 154.791,1006.79 157.034,1013.15 159.276,1019.19 161.519,1024.92 163.762,1030.36 166.005,1035.52 168.248,1040.41 170.491,1045.04 172.733,1049.43 174.976,1053.58 177.219,1057.51 179.462,1061.23 181.705,1064.75 183.947,1068.07 186.19,1071.22 188.433,1074.19 190.676,1076.99 192.919,1079.64 195.162,1082.14 197.404,1084.5 199.647,1086.73 201.89,1088.84 204.133,1090.82 206.376,1092.69 208.619,1094.45 210.861,1096.11 213.104,1097.67 215.347,1099.14 217.59,1100.52 219.833,1101.82 222.075,1103.04 224.318,1104.19 226.561,1105.27 228.804,1106.28 231.047,1107.22 233.29,1108.11 235.532,1108.94 237.775,1109.72 240.018,1110.44 242.261,1111.11 244.504,1111.74 246.746,1112.32 248.989,1112.86 251.232,1113.36 253.475,1113.83 255.718,1114.25 257.961,1114.65 260.203,1115.01 262.446,1115.34 264.689,1115.64 266.932,1115.91 269.175,1116.16 271.418,1116.38 273.66,1116.58 275.903,1116.75 278.146,1116.9 280.389,1117.03 282.632,1117.15 284.874,1117.24 287.117,1117.31 289.36,1117.37 291.603,1117.41 293.846,1117.43 296.089,1117.44 298.331,1117.44 300.574,1117.42 302.817,1117.39 305.06,1117.35 307.303,1117.3 309.545,1117.23 311.788,1117.15 314.031,1117.07 316.274,1116.97 318.517,1116.86 320.76,1116.75 323.002,1116.62 325.245,1116.49 327.488,1116.34 329.731,1116.19 331.974,1116.04 334.217,1115.87 336.459,1115.7 338.702,1115.52 340.945,1115.34 343.188,1115.15 345.431,1114.95 347.673,1114.75 349.916,1114.54 352.159,1114.33 354.402,1114.11 356.645,1113.89 358.888,1113.66 361.13,1113.43 363.373,1113.19 365.616,1112.94 367.859,1112.7 370.102,1112.45 372.344,1112.19 374.587,1111.93 376.83,1111.66 379.073,1111.4 381.316,1111.12 383.559,1110.85 385.801,1110.57 388.044,1110.29 390.287,1110 392.53,1109.71 394.773,1109.42 397.016,1109.12 399.258,1108.82 401.501,1108.52 403.744,1108.21 405.987,1107.9 408.23,1107.59 410.472,1107.28 412.715,1106.96 414.958,1106.64 417.201,1106.31 419.444,1105.99 421.687,1105.66 423.929,1105.32 426.172,1104.99 428.415,1104.65 430.658,1104.31 432.901,1103.96 435.143,1103.61 437.386,1103.26 439.629,1102.91 441.872,1102.55 444.115,1102.2 446.358,1101.84 448.6,1101.47 450.843,1101.11 453.086,1100.74 455.329,1100.36 457.572,1099.99 459.815,1099.61 462.057,1099.23 464.3,1098.85 466.543,1098.47 468.786,1098.08 471.029,1097.69 473.271,1097.3 475.514,1096.9 477.757,1096.51 480,1096.11 482.243,1095.7 484.486,1095.3 486.728,1094.89 488.971,1094.48 491.214,1094.07 493.457,1093.65 495.7,1093.23 497.942,1092.81 500.185,1092.39 502.428,1091.96 504.671,1091.53 506.914,1091.1 509.157,1090.67 511.399,1090.23 513.642,1089.79 515.885,1089.35 518.128,1088.9 520.371,1088.46 522.614,1088.01 524.856,1087.55 527.099,1087.1 529.342,1086.64 531.585,1086.18 533.828,1085.72 536.07,1085.25 538.313,1084.78 540.556,1084.31 542.799,1083.84 545.042,1083.36 547.285,1082.89 549.527,1082.4 551.77,1081.92 554.013,1081.43 556.256,1080.95 558.499,1080.45 560.741,1079.96 562.984,1079.46 565.227,1078.96 567.47,1078.46 569.713,1077.96 571.956,1077.45 574.198,1076.94 576.441,1076.43 578.684,1075.91 580.927,1075.39 583.17,1074.87 585.413,1074.35 587.655,1073.82 589.898,1073.3 592.141,1072.76 594.384,1072.23 596.627,1071.7 598.869,1071.16 601.112,1070.62 603.355,1070.07 605.598,1069.53 607.841,1068.98 610.084,1068.42 612.326,1067.87 614.569,1067.31 616.812,1066.75 619.055,1066.19 621.298,1065.63 623.54,1065.06 625.783,1064.49 628.026,1063.92 630.269,1063.35 632.512,1062.77 634.755,1062.19 636.997,1061.61 639.24,1061.02 641.483,1060.44 643.726,1059.85 645.969,1059.25 648.212,1058.66 650.454,1058.06 652.697,1057.46 654.94,1056.86 657.183,1056.25 659.426,1055.64 661.668,1055.03 663.911,1054.42 666.154,1053.81 668.397,1053.19 670.64,1052.57 672.883,1051.95 675.125,1051.32 677.368,1050.69 679.611,1050.06 681.854,1049.43 684.097,1048.8 686.339,1048.16 688.582,1047.53 690.825,1046.89 693.068,1046.24 695.311,1045.6 697.554,1044.95 699.796,1044.31 702.039,1043.66 704.282,1043 706.525,1042.35 708.768,1041.7 711.011,1041.04 713.253,1040.38 715.496,1039.72 717.739,1039.05 719.982,1038.39 722.225,1037.72 724.467,1037.05 726.71,1036.38 728.953,1035.71 731.196,1035.04 733.439,1034.36 735.682,1033.68 737.924,1033 740.167,1032.32 742.41,1031.64 744.653,1030.96 746.896,1030.27 749.138,1029.58 751.381,1028.89 753.624,1028.2 755.867,1027.51 758.11,1026.81 760.353,1026.12 762.595,1025.42 764.838,1024.72 767.081,1024.02 769.324,1023.31 771.567,1022.61 773.81,1021.9 776.052,1021.19 778.295,1020.48 780.538,1019.77 782.781,1019.06 785.024,1018.34 787.266,1017.63 789.509,1016.91 791.752,1016.19 793.995,1015.47 796.238,1014.75 798.481,1014.03 800.723,1013.3 802.966,1012.58 805.209,1011.86 807.452,1011.13 809.695,1010.4 811.938,1009.67 814.18,1008.95 816.423,1008.22 818.666,1007.49 820.909,1006.76 823.152,1006.03 825.394,1005.29 827.637,1004.56 829.88,1003.83 832.123,1003.1 834.366,1002.36 836.609,1001.63 838.851,1000.89 841.094,1000.16 843.337,999.426 845.58,998.691 847.823,997.956 850.065,997.221 852.308,996.486 854.551,995.75 856.794,995.015 859.037,994.279 861.28,993.543 863.522,992.808 865.765,992.072 868.008,991.336 870.251,990.601 872.494,989.865 874.737,989.129 876.979,988.394 879.222,987.658 881.465,986.923 883.708,986.187 885.951,985.452 888.193,984.717 890.436,983.982 892.679,983.247 894.922,982.512 897.165,981.777 899.408,981.042 901.65,980.308 903.893,979.573 906.136,978.839 908.379,978.105 910.622,977.371 912.864,976.638 915.107,975.905 917.35,975.173 919.593,974.441 921.836,973.711 924.079,972.981 926.321,972.251 928.564,971.523 930.807,970.796 933.05,970.07 935.293,969.344 937.536,968.62 939.778,967.898 942.021,967.176 944.264,966.456 946.507,965.737 948.75,965.02 950.992,964.304 953.235,963.589 955.478,962.877 957.721,962.165 959.964,961.455 962.207,960.747 964.449,960.041 966.692,959.336 968.935,958.633 971.178,957.932 973.421,957.233 975.663,956.535 977.906,955.839 980.149,955.145 982.392,954.453 984.635,953.762 986.878,953.074 989.12,952.387 991.363,951.703 993.606,951.02 995.849,950.339 998.092,949.659 1000.33,948.982 1002.58,948.307 1004.82,947.633 1007.06,946.961 1009.31,946.292 1011.55,945.623 1013.79,944.957 1016.03,944.293 1018.28,943.63 1020.52,942.969 1022.76,942.31 1025.01,941.652 1027.25,940.996 1029.49,940.342 1031.73,939.689 1033.98,939.038 1036.22,938.388 1038.46,937.74 1040.71,937.094 1042.95,936.45 1045.19,935.808 1047.43,935.167 1049.68,934.529 1051.92,933.894 1054.16,933.26 1056.41,932.629 1058.65,932 1060.89,931.373 1063.13,930.749 1065.38,930.127 1067.62,929.508 1069.86,928.891 1072.1,928.277 1074.35,927.665 1076.59,927.056 1078.83,926.45 1081.08,925.847 1083.32,925.246 1085.56,924.648 1087.8,924.052 1090.05,923.46 1092.29,922.87 1094.53,922.283 1096.78,921.699 1099.02,921.118 1101.26,920.54 1103.5,919.964 1105.75,919.391 1107.99,918.822 1110.23,918.255 1112.48,917.691 1114.72,917.13 1116.96,916.572 1119.2,916.016 1121.45,915.464 1123.69,914.914 1125.93,914.367 1128.18,913.823 1130.42,913.282 1132.66,912.743 1134.9,912.207 1137.15,911.674 1139.39,911.144 1141.63,910.616 1143.88,910.091 1146.12,909.569 1148.36,909.049 1150.6,908.532 1152.85,908.017 1155.09,907.505 1157.33,906.995 1159.57,906.488 1161.82,905.983 1164.06,905.48 1166.3,904.979 1168.55,904.481 1170.79,903.984 1173.03,903.49 1175.27,902.998 1177.52,902.509 1179.76,902.022 1182,901.538 1184.25,901.056 1186.49,900.577 1188.73,900.1 1190.97,899.626 1193.22,899.154 1195.46,898.686 1197.7,898.22 1199.95,897.756 1202.19,897.296 1204.43,896.838 1206.67,896.383 1208.92,895.93 1211.16,895.481 1213.4,895.034 1215.65,894.59 1217.89,894.149 1220.13,893.711 1222.37,893.276 1224.62,892.843 1226.86,892.414 1229.1,891.987 1231.35,891.563 1233.59,891.142 1235.83,890.724 1238.07,890.309 1240.32,889.897 1242.56,889.487 1244.8,889.08 1247.04,888.676 1249.29,888.275 1251.53,887.877 1253.77,887.482 1256.02,887.089 1258.26,886.699 1260.5,886.312 1262.74,885.927 1264.99,885.545 1267.23,885.166 1269.47,884.79 1271.72,884.416 1273.96,884.044 1276.2,883.675 1278.44,883.309 1280.69,882.945 1282.93,882.584 1285.17,882.225 1287.42,881.868 1289.66,881.514 1291.9,881.162 1294.14,880.812 1296.39,880.465 1298.63,880.119 1300.87,879.776 1303.12,879.435 1305.36,879.095 1307.6,878.758 1309.84,878.423 1312.09,878.089 1314.33,877.757 1316.57,877.427 1318.82,877.099 1321.06,876.773 1323.3,876.449 1325.54,876.127 1327.79,875.808 1330.03,875.49 1332.27,875.175 1334.51,874.861 1336.76,874.55 1339,874.241 1341.24,873.934 1343.49,873.63 1345.73,873.327 1347.97,873.027 1350.21,872.729 1352.46,872.433 1354.7,872.14 1356.94,871.849 1359.19,871.559 1361.43,871.273 1363.67,870.988 1365.91,870.705 1368.16,870.425 1370.4,870.147 1372.64,869.871 1374.89,869.598 1377.13,869.326 1379.37,869.057 1381.61,868.79 1383.86,868.525 1386.1,868.262 1388.34,868.001 1390.59,867.743 1392.83,867.486 1395.07,867.232 1397.31,866.98 1399.56,866.73 1401.8,866.482 1404.04,866.236 1406.29,865.992 1408.53,865.75 1410.77,865.51 1413.01,865.272 1415.26,865.036 1417.5,864.802 1419.74,864.57 1421.98,864.339 1424.23,864.111 1426.47,863.884 1428.71,863.659 1430.96,863.436 1433.2,863.214 1435.44,862.995 1437.68,862.777 1439.93,862.56 1442.17,862.345 1444.41,862.132 1446.66,861.921 1448.9,861.71 1451.14,861.502 1453.38,861.294 1455.63,861.088 1457.87,860.884 1460.11,860.681 1462.36,860.479 1464.6,860.278 1466.84,860.078 1469.08,859.88 1471.33,859.683 1473.57,859.487 1475.81,859.293 1478.06,859.1 1480.3,858.908 1482.54,858.718 1484.78,858.53 1487.03,858.342 1489.27,858.157 1491.51,857.972 1493.76,857.789 1496,857.608 1498.24,857.428 1500.48,857.249 1502.73,857.072 1504.97,856.896 1507.21,856.722 1509.46,856.549 1511.7,856.378 1513.94,856.208 1516.18,856.039 1518.43,855.872 1520.67,855.707 1522.91,855.543 1525.15,855.38 1527.4,855.218 1529.64,855.059 1531.88,854.9 1534.13,854.743 1536.37,854.587 1538.61,854.433 1540.85,854.28 1543.1,854.128 1545.34,853.978 1547.58,853.829 1549.83,853.682 1552.07,853.536 1554.31,853.391 1556.55,853.248 1558.8,853.105 1561.04,852.965 1563.28,852.825 1565.53,852.687 1567.77,852.55 1570.01,852.414 1572.25,852.279 1574.5,852.146 1576.74,852.014 1578.98,851.883 1581.23,851.753 1583.47,851.624 1585.71,851.496 1587.95,851.37 1590.2,851.244 1592.44,851.12 1594.68,850.997 1596.93,850.875 1599.17,850.753 1601.41,850.633 1603.65,850.514 1605.9,850.395 1608.14,850.278 1610.38,850.162 1612.62,850.046 1614.87,849.931 1617.11,849.817 1619.35,849.704 1621.6,849.591 1623.84,849.48 1626.08,849.369 1628.32,849.259 1630.57,849.149 1632.81,849.04 1635.05,848.932 1637.3,848.824 1639.54,848.717 1641.78,848.611 1644.02,848.506 1646.27,848.401 1648.51,848.297 1650.75,848.194 1653,848.092 1655.24,847.991 1657.48,847.89 1659.72,847.791 1661.97,847.692 1664.21,847.594 1666.45,847.496 1668.7,847.4 1670.94,847.304 1673.18,847.21 1675.42,847.116 1677.67,847.022 1679.91,846.93 1682.15,846.839 1684.4,846.748 1686.64,846.658 1688.88,846.569 1691.12,846.481 1693.37,846.393 1695.61,846.307 1697.85,846.221 1700.09,846.136 1702.34,846.052 1704.58,845.968 1706.82,845.886 1709.07,845.804 1711.31,845.723 1713.55,845.643 1715.79,845.563 1718.04,845.484 1720.28,845.407 1722.52,845.329 1724.77,845.253 1727.01,845.177 1729.25,845.102 1731.49,845.028 1733.74,844.955 1735.98,844.882 1738.22,844.81 1740.47,844.739 1742.71,844.668 1744.95,844.598 1747.19,844.529 1749.44,844.461 1751.68,844.393 1753.92,844.325 1756.17,844.259 1758.41,844.193 1760.65,844.128 1762.89,844.063 1765.14,843.999 1767.38,843.935 1769.62,843.872 1771.87,843.81 1774.11,843.748 1776.35,843.687 1778.59,843.626 1780.84,843.565 1783.08,843.506 1785.32,843.446 1787.56,843.388 1789.81,843.329 1792.05,843.271 1794.29,843.214 1796.54,843.157 1798.78,843.1 1801.02,843.044 1803.26,842.988 1805.51,842.932 1807.75,842.877 1809.99,842.822 1812.24,842.767 1814.48,842.713 1816.72,842.659 1818.96,842.605 1821.21,842.551 1823.45,842.498 1825.69,842.445 1827.94,842.392 1830.18,842.34 1832.42,842.288 1834.66,842.237 1836.91,842.186 1839.15,842.135 1841.39,842.085 1843.64,842.035 1845.88,841.986 1848.12,841.937 1850.36,841.888 1852.61,841.84 1854.85,841.792 1857.09,841.745 1859.34,841.698 1861.58,841.651 1863.82,841.605 1866.06,841.559 1868.31,841.514 1870.55,841.469 1872.79,841.424 1875.03,841.38 1877.28,841.337 1879.52,841.293 1881.76,841.251 1884.01,841.208 1886.25,841.166 1888.49,841.125 1890.73,841.084 1892.98,841.043 1895.22,841.003 1897.46,840.963 1899.71,840.924 1901.95,840.885 1904.19,840.846 1906.43,840.808 1908.68,840.77 1910.92,840.733 1913.16,840.696 1915.41,840.66 1917.65,840.623 1919.89,840.588 1922.13,840.552 1924.38,840.518 1926.62,840.483 1928.86,840.449 1931.11,840.415 1933.35,840.382 1935.59,840.349 1937.83,840.316 1940.08,840.284 1942.32,840.252 1944.56,840.22 1946.81,840.189 1949.05,840.158 1951.29,840.127 1953.53,840.097 1955.78,840.067 1958.02,840.038 1960.26,840.008 1962.5,839.979 1964.75,839.95 1966.99,839.922 1969.23,839.894 1971.48,839.866 1973.72,839.838 1975.96,839.811 1978.2,839.784 1980.45,839.757 1982.69,839.73 1984.93,839.704 1987.18,839.677 1989.42,839.651 1991.66,839.625 1993.9,839.599 1996.15,839.574 1998.39,839.549 2000.63,839.523 2002.88,839.498 2005.12,839.473 2007.36,839.448 2009.6,839.423 2011.85,839.399 2014.09,839.374 2016.33,839.349 2018.58,839.325 2020.82,839.301 2023.06,839.276 2025.3,839.252 2027.55,839.227 2029.79,839.203 2032.03,839.179 2034.28,839.154 2036.52,839.13 2038.76,839.106 2041,839.083 2043.25,839.059 2045.49,839.035 2047.73,839.012 2049.97,838.989 2052.22,838.966 2054.46,838.943 2056.7,838.92 2058.95,838.897 2061.19,838.875 2063.43,838.852 2065.67,838.83 2067.92,838.808 2070.16,838.787 2072.4,838.765 2074.65,838.744 2076.89,838.723 2079.13,838.702 2081.37,838.681 2083.62,838.661 2085.86,838.64 2088.1,838.62 2090.35,838.601 2092.59,838.581 2094.83,838.562 2097.07,838.543 2099.32,838.524 2101.56,838.505 2103.8,838.487 2106.05,838.469 2108.29,838.451 2110.53,838.433 2112.77,838.416 2115.02,838.398 2117.26,838.381 2119.5,838.365 2121.75,838.348 2123.99,838.332 2126.23,838.316 2128.47,838.3 2130.72,838.285 2132.96,838.27 2135.2,838.255 2137.45,838.24 2139.69,838.225 2141.93,838.211 2144.17,838.197 2146.42,838.183 2148.66,838.169 2150.9,838.156 2153.14,838.143 2155.39,838.13 2157.63,838.117 2159.87,838.104 2162.12,838.092 2164.36,838.079 2166.6,838.067 2168.84,838.055 2171.09,838.044 2173.33,838.032 2175.57,838.021 2177.82,838.01 2180.06,837.999 2182.3,837.988 2184.54,837.977 2186.79,837.966 2189.03,837.956 2191.27,837.946 2193.52,837.935 2195.76,837.925 2198,837.915 2200.24,837.905 2202.49,837.895 2204.73,837.886 2206.97,837.876 2209.22,837.866 2211.46,837.857 2213.7,837.847 2215.94,837.837 2218.19,837.828 2220.43,837.818 2222.67,837.809 2224.92,837.799 2227.16,837.79 2229.4,837.78 2231.64,837.77 2233.89,837.761 2236.13,837.751 2238.37,837.741 2240.61,837.731 2242.86,837.721 2245.1,837.711 2247.34,837.701 2249.59,837.69 2251.83,837.68 2254.07,837.669 2256.31,837.658 2258.56,837.648 2260.8,837.637 2263.04,837.627 2265.29,837.617 2267.53,837.606 2269.77,837.596 2272.01,837.587 2274.26,837.577 2276.5,837.567 2278.74,837.558 2280.99,837.548 2283.23,837.539 2285.47,837.529 2287.71,837.52 2289.96,837.511 2292.2,837.502 2294.44,837.493 2296.69,837.485 2298.93,837.476 2301.17,837.467 2303.41,837.459 2305.66,837.451 2307.9,837.442 2310.14,837.434 2312.39,837.426 2314.63,837.418 2316.87,837.41 2319.11,837.402 2321.36,837.394 2323.6,837.387 2325.84,837.379 2328.08,837.372 2330.33,837.364 2332.57,837.357 2334.81,837.349 2337.06,837.342 2339.3,837.335 2341.54,837.328 2343.78,837.321 2346.03,837.314 2348.27,837.307 2350.51,837.3 2352.76,837.293 "/>
<polyline clip-path="url(#clip301)" style="stroke:#e26f46; stroke-linecap:round; stroke-linejoin:round; stroke-width:24; stroke-opacity:1; fill:none" points="112.177,1381.11 114.42,1355.59 116.663,1331.22 118.906,1307.97 121.148,1285.78 123.391,1264.63 125.634,1244.47 127.877,1225.27 130.12,1206.99 132.363,1189.59 134.605,1173.03 136.848,1157.28 139.091,1142.31 141.334,1128.07 143.577,1114.53 145.819,1101.67 148.062,1089.45 150.305,1077.84 152.548,1066.8 154.791,1056.32 157.034,1046.36 159.276,1036.9 161.519,1027.91 163.762,1019.37 166.005,1011.26 168.248,1003.55 170.491,996.231 172.733,989.271 174.976,982.656 177.219,976.367 179.462,970.389 181.705,964.705 183.947,959.3 186.19,954.16 188.433,949.271 190.676,944.619 192.919,940.193 195.162,935.979 197.404,931.968 199.647,928.147 201.89,924.508 204.133,921.04 206.376,917.736 208.619,914.586 210.861,911.583 213.104,908.719 215.347,905.986 217.59,903.378 219.833,900.888 222.075,898.509 224.318,896.236 226.561,894.063 228.804,891.983 231.047,889.994 233.29,888.089 235.532,886.265 237.775,884.518 240.018,882.843 242.261,881.237 244.504,879.696 246.746,878.217 248.989,876.796 251.232,875.429 253.475,874.115 255.718,872.849 257.961,871.629 260.203,870.453 262.446,869.318 264.689,868.222 266.932,867.163 269.175,866.14 271.418,865.15 273.66,864.191 275.903,863.263 278.146,862.362 280.389,861.489 282.632,860.64 284.874,859.815 287.117,859.012 289.36,858.23 291.603,857.467 293.846,856.722 296.089,855.995 298.331,855.283 300.574,854.587 302.817,853.904 305.06,853.235 307.303,852.579 309.545,851.935 311.788,851.302 314.031,850.68 316.274,850.068 318.517,849.465 320.76,848.871 323.002,848.285 325.245,847.706 327.488,847.134 329.731,846.569 331.974,846.009 334.217,845.455 336.459,844.905 338.702,844.36 340.945,843.818 343.188,843.28 345.431,842.744 347.673,842.212 349.916,841.682 352.159,841.155 354.402,840.63 356.645,840.106 358.888,839.585 361.13,839.065 363.373,838.546 365.616,838.028 367.859,837.511 370.102,836.994 372.344,836.478 374.587,835.962 376.83,835.446 379.073,834.929 381.316,834.413 383.559,833.895 385.801,833.377 388.044,832.857 390.287,832.336 392.53,831.814 394.773,831.29 397.016,830.765 399.258,830.238 401.501,829.709 403.744,829.178 405.987,828.645 408.23,828.111 410.472,827.574 412.715,827.035 414.958,826.494 417.201,825.951 419.444,825.405 421.687,824.857 423.929,824.306 426.172,823.753 428.415,823.198 430.658,822.639 432.901,822.078 435.143,821.514 437.386,820.948 439.629,820.378 441.872,819.805 444.115,819.229 446.358,818.65 448.6,818.068 450.843,817.482 453.086,816.893 455.329,816.3 457.572,815.704 459.815,815.104 462.057,814.501 464.3,813.894 466.543,813.283 468.786,812.669 471.029,812.051 473.271,811.429 475.514,810.804 477.757,810.175 480,809.543 482.243,808.906 484.486,808.266 486.728,807.622 488.971,806.974 491.214,806.322 493.457,805.666 495.7,805.007 497.942,804.343 500.185,803.675 502.428,803.004 504.671,802.328 506.914,801.648 509.157,800.964 511.399,800.276 513.642,799.584 515.885,798.888 518.128,798.188 520.371,797.483 522.614,796.774 524.856,796.06 527.099,795.343 529.342,794.62 531.585,793.894 533.828,793.163 536.07,792.428 538.313,791.688 540.556,790.943 542.799,790.195 545.042,789.441 547.285,788.684 549.527,787.922 551.77,787.155 554.013,786.384 556.256,785.608 558.499,784.828 560.741,784.044 562.984,783.254 565.227,782.46 567.47,781.662 569.713,780.858 571.956,780.05 574.198,779.238 576.441,778.421 578.684,777.599 580.927,776.772 583.17,775.94 585.413,775.104 587.655,774.263 589.898,773.417 592.141,772.567 594.384,771.712 596.627,770.851 598.869,769.987 601.112,769.117 603.355,768.242 605.598,767.363 607.841,766.479 610.084,765.59 612.326,764.696 614.569,763.797 616.812,762.893 619.055,761.985 621.298,761.071 623.54,760.153 625.783,759.23 628.026,758.302 630.269,757.37 632.512,756.432 634.755,755.49 636.997,754.542 639.24,753.59 641.483,752.633 643.726,751.672 645.969,750.705 648.212,749.735 650.454,748.76 652.697,747.78 654.94,746.796 657.183,745.807 659.426,744.813 661.668,743.815 663.911,742.812 666.154,741.804 668.397,740.791 670.64,739.773 672.883,738.751 675.125,737.723 677.368,736.691 679.611,735.653 681.854,734.611 684.097,733.563 686.339,732.51 688.582,731.453 690.825,730.39 693.068,729.322 695.311,728.249 697.554,727.171 699.796,726.088 702.039,725 704.282,723.907 706.525,722.809 708.768,721.706 711.011,720.597 713.253,719.484 715.496,718.366 717.739,717.242 719.982,716.114 722.225,714.981 724.467,713.843 726.71,712.7 728.953,711.552 731.196,710.4 733.439,709.243 735.682,708.081 737.924,706.914 740.167,705.743 742.41,704.567 744.653,703.387 746.896,702.203 749.138,701.014 751.381,699.82 753.624,698.623 755.867,697.421 758.11,696.216 760.353,695.006 762.595,693.792 764.838,692.575 767.081,691.353 769.324,690.128 771.567,688.9 773.81,687.667 776.052,686.432 778.295,685.193 780.538,683.951 782.781,682.705 785.024,681.456 787.266,680.203 789.509,678.947 791.752,677.687 793.995,676.423 796.238,675.155 798.481,673.884 800.723,672.609 802.966,671.331 805.209,670.049 807.452,668.763 809.695,667.473 811.938,666.18 814.18,664.883 816.423,663.582 818.666,662.278 820.909,660.97 823.152,659.658 825.394,658.343 827.637,657.024 829.88,655.702 832.123,654.376 834.366,653.047 836.609,651.715 838.851,650.379 841.094,649.039 843.337,647.697 845.58,646.351 847.823,645.002 850.065,643.651 852.308,642.296 854.551,640.938 856.794,639.577 859.037,638.214 861.28,636.847 863.522,635.478 865.765,634.107 868.008,632.733 870.251,631.357 872.494,629.978 874.737,628.598 876.979,627.215 879.222,625.83 881.465,624.443 883.708,623.055 885.951,621.665 888.193,620.273 890.436,618.881 892.679,617.486 894.922,616.091 897.165,614.694 899.408,613.297 901.65,611.899 903.893,610.501 906.136,609.101 908.379,607.702 910.622,606.301 912.864,604.9 915.107,603.498 917.35,602.095 919.593,600.691 921.836,599.287 924.079,597.882 926.321,596.475 928.564,595.068 930.807,593.66 933.05,592.251 935.293,590.841 937.536,589.43 939.778,588.018 942.021,586.605 944.264,585.192 946.507,583.777 948.75,582.362 950.992,580.945 953.235,579.528 955.478,578.111 957.721,576.692 959.964,575.273 962.207,573.853 964.449,572.433 966.692,571.012 968.935,569.591 971.178,568.17 973.421,566.748 975.663,565.326 977.906,563.904 980.149,562.482 982.392,561.059 984.635,559.637 986.878,558.216 989.12,556.794 991.363,555.373 993.606,553.953 995.849,552.533 998.092,551.114 1000.33,549.697 1002.58,548.28 1004.82,546.864 1007.06,545.45 1009.31,544.037 1011.55,542.625 1013.79,541.216 1016.03,539.808 1018.28,538.403 1020.52,537 1022.76,535.599 1025.01,534.201 1027.25,532.805 1029.49,531.413 1031.73,530.023 1033.98,528.637 1036.22,527.255 1038.46,525.875 1040.71,524.499 1042.95,523.126 1045.19,521.755 1047.43,520.387 1049.68,519.022 1051.92,517.66 1054.16,516.3 1056.41,514.943 1058.65,513.588 1060.89,512.236 1063.13,510.887 1065.38,509.54 1067.62,508.195 1069.86,506.853 1072.1,505.514 1074.35,504.176 1076.59,502.841 1078.83,501.509 1081.08,500.179 1083.32,498.852 1085.56,497.526 1087.8,496.204 1090.05,494.884 1092.29,493.566 1094.53,492.251 1096.78,490.938 1099.02,489.629 1101.26,488.321 1103.5,487.017 1105.75,485.715 1107.99,484.416 1110.23,483.12 1112.48,481.827 1114.72,480.536 1116.96,479.249 1119.2,477.965 1121.45,476.684 1123.69,475.406 1125.93,474.132 1128.18,472.861 1130.42,471.594 1132.66,470.33 1134.9,469.071 1137.15,467.814 1139.39,466.562 1141.63,465.314 1143.88,464.07 1146.12,462.831 1148.36,461.596 1150.6,460.365 1152.85,459.139 1155.09,457.918 1157.33,456.702 1159.57,455.491 1161.82,454.285 1164.06,453.084 1166.3,451.889 1168.55,450.7 1170.79,449.517 1173.03,448.34 1175.27,447.168 1177.52,446.001 1179.76,444.839 1182,443.683 1184.25,442.532 1186.49,441.385 1188.73,440.244 1190.97,439.107 1193.22,437.975 1195.46,436.848 1197.7,435.726 1199.95,434.608 1202.19,433.494 1204.43,432.385 1206.67,431.28 1208.92,430.18 1211.16,429.084 1213.4,427.993 1215.65,426.905 1217.89,425.822 1220.13,424.743 1222.37,423.668 1224.62,422.598 1226.86,421.532 1229.1,420.469 1231.35,419.411 1233.59,418.357 1235.83,417.308 1238.07,416.262 1240.32,415.22 1242.56,414.183 1244.8,413.15 1247.04,412.121 1249.29,411.096 1251.53,410.076 1253.77,409.059 1256.02,408.047 1258.26,407.04 1260.5,406.037 1262.74,405.038 1264.99,404.043 1267.23,403.054 1269.47,402.068 1271.72,401.088 1273.96,400.112 1276.2,399.141 1278.44,398.174 1280.69,397.213 1282.93,396.256 1285.17,395.305 1287.42,394.358 1289.66,393.417 1291.9,392.481 1294.14,391.551 1296.39,390.626 1298.63,389.706 1300.87,388.792 1303.12,387.885 1305.36,386.983 1307.6,386.087 1309.84,385.197 1312.09,384.313 1314.33,383.436 1316.57,382.565 1318.82,381.7 1321.06,380.841 1323.3,379.987 1325.54,379.138 1327.79,378.295 1330.03,377.456 1332.27,376.623 1334.51,375.795 1336.76,374.972 1339,374.154 1341.24,373.341 1343.49,372.532 1345.73,371.729 1347.97,370.929 1350.21,370.135 1352.46,369.345 1354.7,368.559 1356.94,367.778 1359.19,367.001 1361.43,366.229 1363.67,365.46 1365.91,364.696 1368.16,363.937 1370.4,363.181 1372.64,362.429 1374.89,361.682 1377.13,360.939 1379.37,360.2 1381.61,359.464 1383.86,358.733 1386.1,358.006 1388.34,357.283 1390.59,356.564 1392.83,355.849 1395.07,355.137 1397.31,354.43 1399.56,353.727 1401.8,353.027 1404.04,352.332 1406.29,351.641 1408.53,350.953 1410.77,350.27 1413.01,349.59 1415.26,348.915 1417.5,348.243 1419.74,347.576 1421.98,346.913 1424.23,346.254 1426.47,345.599 1428.71,344.948 1430.96,344.301 1433.2,343.659 1435.44,343.021 1437.68,342.387 1439.93,341.758 1442.17,341.133 1444.41,340.513 1446.66,339.897 1448.9,339.286 1451.14,338.679 1453.38,338.077 1455.63,337.48 1457.87,336.888 1460.11,336.301 1462.36,335.719 1464.6,335.141 1466.84,334.569 1469.08,334.002 1471.33,333.44 1473.57,332.882 1475.81,332.329 1478.06,331.779 1480.3,331.234 1482.54,330.693 1484.78,330.156 1487.03,329.623 1489.27,329.094 1491.51,328.569 1493.76,328.048 1496,327.53 1498.24,327.016 1500.48,326.506 1502.73,325.999 1504.97,325.495 1507.21,324.996 1509.46,324.499 1511.7,324.006 1513.94,323.517 1516.18,323.03 1518.43,322.547 1520.67,322.067 1522.91,321.591 1525.15,321.117 1527.4,320.646 1529.64,320.179 1531.88,319.715 1534.13,319.253 1536.37,318.795 1538.61,318.34 1540.85,317.887 1543.1,317.438 1545.34,316.991 1547.58,316.547 1549.83,316.106 1552.07,315.668 1554.31,315.233 1556.55,314.8 1558.8,314.371 1561.04,313.944 1563.28,313.52 1565.53,313.099 1567.77,312.68 1570.01,312.265 1572.25,311.852 1574.5,311.442 1576.74,311.034 1578.98,310.63 1581.23,310.228 1583.47,309.829 1585.71,309.434 1587.95,309.04 1590.2,308.65 1592.44,308.263 1594.68,307.878 1596.93,307.497 1599.17,307.118 1601.41,306.742 1603.65,306.369 1605.9,306 1608.14,305.633 1610.38,305.27 1612.62,304.909 1614.87,304.552 1617.11,304.198 1619.35,303.847 1621.6,303.499 1623.84,303.154 1626.08,302.813 1628.32,302.476 1630.57,302.141 1632.81,301.811 1635.05,301.483 1637.3,301.159 1639.54,300.838 1641.78,300.52 1644.02,300.204 1646.27,299.892 1648.51,299.582 1650.75,299.274 1653,298.969 1655.24,298.667 1657.48,298.367 1659.72,298.07 1661.97,297.775 1664.21,297.483 1666.45,297.193 1668.7,296.905 1670.94,296.619 1673.18,296.336 1675.42,296.055 1677.67,295.776 1679.91,295.499 1682.15,295.224 1684.4,294.951 1686.64,294.68 1688.88,294.411 1691.12,294.144 1693.37,293.88 1695.61,293.617 1697.85,293.355 1700.09,293.096 1702.34,292.839 1704.58,292.583 1706.82,292.329 1709.07,292.077 1711.31,291.827 1713.55,291.578 1715.79,291.331 1718.04,291.086 1720.28,290.842 1722.52,290.6 1724.77,290.36 1727.01,290.122 1729.25,289.885 1731.49,289.649 1733.74,289.415 1735.98,289.183 1738.22,288.953 1740.47,288.724 1742.71,288.497 1744.95,288.271 1747.19,288.047 1749.44,287.824 1751.68,287.603 1753.92,287.384 1756.17,287.166 1758.41,286.95 1760.65,286.735 1762.89,286.522 1765.14,286.311 1767.38,286.101 1769.62,285.893 1771.87,285.687 1774.11,285.482 1776.35,285.279 1778.59,285.077 1780.84,284.877 1783.08,284.679 1785.32,284.483 1787.56,284.288 1789.81,284.096 1792.05,283.905 1794.29,283.715 1796.54,283.528 1798.78,283.343 1801.02,283.159 1803.26,282.977 1805.51,282.797 1807.75,282.62 1809.99,282.444 1812.24,282.27 1814.48,282.098 1816.72,281.928 1818.96,281.761 1821.21,281.595 1823.45,281.431 1825.69,281.269 1827.94,281.109 1830.18,280.95 1832.42,280.793 1834.66,280.637 1836.91,280.482 1839.15,280.329 1841.39,280.178 1843.64,280.028 1845.88,279.879 1848.12,279.732 1850.36,279.586 1852.61,279.441 1854.85,279.297 1857.09,279.155 1859.34,279.014 1861.58,278.874 1863.82,278.735 1866.06,278.597 1868.31,278.46 1870.55,278.325 1872.79,278.19 1875.03,278.056 1877.28,277.924 1879.52,277.792 1881.76,277.662 1884.01,277.532 1886.25,277.403 1888.49,277.275 1890.73,277.148 1892.98,277.022 1895.22,276.896 1897.46,276.772 1899.71,276.648 1901.95,276.525 1904.19,276.403 1906.43,276.282 1908.68,276.162 1910.92,276.042 1913.16,275.923 1915.41,275.805 1917.65,275.687 1919.89,275.571 1922.13,275.455 1924.38,275.339 1926.62,275.225 1928.86,275.111 1931.11,274.998 1933.35,274.885 1935.59,274.774 1937.83,274.663 1940.08,274.552 1942.32,274.443 1944.56,274.334 1946.81,274.226 1949.05,274.119 1951.29,274.012 1953.53,273.906 1955.78,273.801 1958.02,273.696 1960.26,273.593 1962.5,273.49 1964.75,273.388 1966.99,273.286 1969.23,273.186 1971.48,273.086 1973.72,272.987 1975.96,272.889 1978.2,272.791 1980.45,272.695 1982.69,272.599 1984.93,272.505 1987.18,272.411 1989.42,272.318 1991.66,272.226 1993.9,272.135 1996.15,272.045 1998.39,271.956 2000.63,271.868 2002.88,271.781 2005.12,271.695 2007.36,271.61 2009.6,271.526 2011.85,271.444 2014.09,271.362 2016.33,271.282 2018.58,271.203 2020.82,271.125 2023.06,271.048 2025.3,270.973 2027.55,270.899 2029.79,270.826 2032.03,270.754 2034.28,270.683 2036.52,270.613 2038.76,270.544 2041,270.476 2043.25,270.409 2045.49,270.342 2047.73,270.277 2049.97,270.212 2052.22,270.148 2054.46,270.084 2056.7,270.021 2058.95,269.959 2061.19,269.898 2063.43,269.837 2065.67,269.776 2067.92,269.716 2070.16,269.657 2072.4,269.598 2074.65,269.54 2076.89,269.482 2079.13,269.424 2081.37,269.367 2083.62,269.31 2085.86,269.254 2088.1,269.198 2090.35,269.142 2092.59,269.086 2094.83,269.031 2097.07,268.976 2099.32,268.922 2101.56,268.867 2103.8,268.813 2106.05,268.759 2108.29,268.705 2110.53,268.652 2112.77,268.599 2115.02,268.545 2117.26,268.493 2119.5,268.44 2121.75,268.387 2123.99,268.335 2126.23,268.282 2128.47,268.23 2130.72,268.178 2132.96,268.126 2135.2,268.074 2137.45,268.023 2139.69,267.971 2141.93,267.92 2144.17,267.868 2146.42,267.817 2148.66,267.766 2150.9,267.715 2153.14,267.665 2155.39,267.614 2157.63,267.564 2159.87,267.513 2162.12,267.463 2164.36,267.413 2166.6,267.363 2168.84,267.314 2171.09,267.264 2173.33,267.215 2175.57,267.166 2177.82,267.118 2180.06,267.069 2182.3,267.021 2184.54,266.973 2186.79,266.925 2189.03,266.878 2191.27,266.831 2193.52,266.784 2195.76,266.738 2198,266.692 2200.24,266.647 2202.49,266.601 2204.73,266.557 2206.97,266.513 2209.22,266.469 2211.46,266.426 2213.7,266.383 2215.94,266.341 2218.19,266.299 2220.43,266.258 2222.67,266.218 2224.92,266.178 2227.16,266.139 2229.4,266.101 2231.64,266.064 2233.89,266.027 2236.13,265.991 2238.37,265.956 2240.61,265.922 2242.86,265.889 2245.1,265.856 2247.34,265.825 2249.59,265.795 2251.83,265.766 2254.07,265.737 2256.31,265.71 2258.56,265.682 2260.8,265.655 2263.04,265.628 2265.29,265.601 2267.53,265.574 2269.77,265.547 2272.01,265.521 2274.26,265.494 2276.5,265.468 2278.74,265.442 2280.99,265.416 2283.23,265.39 2285.47,265.365 2287.71,265.339 2289.96,265.314 2292.2,265.289 2294.44,265.264 2296.69,265.239 2298.93,265.214 2301.17,265.189 2303.41,265.165 2305.66,265.141 2307.9,265.117 2310.14,265.093 2312.39,265.069 2314.63,265.046 2316.87,265.022 2319.11,264.999 2321.36,264.976 2323.6,264.953 2325.84,264.93 2328.08,264.907 2330.33,264.885 2332.57,264.863 2334.81,264.84 2337.06,264.819 2339.3,264.797 2341.54,264.775 2343.78,264.754 2346.03,264.733 2348.27,264.711 2350.51,264.691 2352.76,264.67 "/>
<circle clip-path="url(#clip301)" cx="112.177" cy="795.864" r="21.6" fill="#009af9" fill-rule="evenodd" fill-opacity="0.7" stroke="#000000" stroke-opacity="0.7" stroke-width="3.2"/>
<circle clip-path="url(#clip301)" cx="230.102" cy="1146.53" r="21.6" fill="#009af9" fill-rule="evenodd" fill-opacity="0.7" stroke="#000000" stroke-opacity="0.7" stroke-width="3.2"/>
<circle clip-path="url(#clip301)" cx="348.028" cy="1089.56" r="21.6" fill="#009af9" fill-rule="evenodd" fill-opacity="0.7" stroke="#000000" stroke-opacity="0.7" stroke-width="3.2"/>
<circle clip-path="url(#clip301)" cx="465.953" cy="1105.83" r="21.6" fill="#009af9" fill-rule="evenodd" fill-opacity="0.7" stroke="#000000" stroke-opacity="0.7" stroke-width="3.2"/>
<circle clip-path="url(#clip301)" cx="583.878" cy="1008.15" r="21.6" fill="#009af9" fill-rule="evenodd" fill-opacity="0.7" stroke="#000000" stroke-opacity="0.7" stroke-width="3.2"/>
<circle clip-path="url(#clip301)" cx="701.803" cy="975.754" r="21.6" fill="#009af9" fill-rule="evenodd" fill-opacity="0.7" stroke="#000000" stroke-opacity="0.7" stroke-width="3.2"/>
<circle clip-path="url(#clip301)" cx="819.728" cy="1064.53" r="21.6" fill="#009af9" fill-rule="evenodd" fill-opacity="0.7" stroke="#000000" stroke-opacity="0.7" stroke-width="3.2"/>
<circle clip-path="url(#clip301)" cx="937.654" cy="1000.64" r="21.6" fill="#009af9" fill-rule="evenodd" fill-opacity="0.7" stroke="#000000" stroke-opacity="0.7" stroke-width="3.2"/>
<circle clip-path="url(#clip301)" cx="1055.58" cy="1022.88" r="21.6" fill="#009af9" fill-rule="evenodd" fill-opacity="0.7" stroke="#000000" stroke-opacity="0.7" stroke-width="3.2"/>
<circle clip-path="url(#clip301)" cx="1173.5" cy="867.547" r="21.6" fill="#009af9" fill-rule="evenodd" fill-opacity="0.7" stroke="#000000" stroke-opacity="0.7" stroke-width="3.2"/>
<circle clip-path="url(#clip301)" cx="1291.43" cy="933.945" r="21.6" fill="#009af9" fill-rule="evenodd" fill-opacity="0.7" stroke="#000000" stroke-opacity="0.7" stroke-width="3.2"/>
<circle clip-path="url(#clip301)" cx="1409.35" cy="835.091" r="21.6" fill="#009af9" fill-rule="evenodd" fill-opacity="0.7" stroke="#000000" stroke-opacity="0.7" stroke-width="3.2"/>
<circle clip-path="url(#clip301)" cx="1527.28" cy="753.772" r="21.6" fill="#009af9" fill-rule="evenodd" fill-opacity="0.7" stroke="#000000" stroke-opacity="0.7" stroke-width="3.2"/>
<circle clip-path="url(#clip301)" cx="1645.2" cy="942.224" r="21.6" fill="#009af9" fill-rule="evenodd" fill-opacity="0.7" stroke="#000000" stroke-opacity="0.7" stroke-width="3.2"/>
<circle clip-path="url(#clip301)" cx="1763.13" cy="733.333" r="21.6" fill="#009af9" fill-rule="evenodd" fill-opacity="0.7" stroke="#000000" stroke-opacity="0.7" stroke-width="3.2"/>
<circle clip-path="url(#clip301)" cx="1881.06" cy="761.611" r="21.6" fill="#009af9" fill-rule="evenodd" fill-opacity="0.7" stroke="#000000" stroke-opacity="0.7" stroke-width="3.2"/>
<circle clip-path="url(#clip301)" cx="1998.98" cy="827.764" r="21.6" fill="#009af9" fill-rule="evenodd" fill-opacity="0.7" stroke="#000000" stroke-opacity="0.7" stroke-width="3.2"/>
<circle clip-path="url(#clip301)" cx="2116.91" cy="807.503" r="21.6" fill="#009af9" fill-rule="evenodd" fill-opacity="0.7" stroke="#000000" stroke-opacity="0.7" stroke-width="3.2"/>
<circle clip-path="url(#clip301)" cx="2234.83" cy="843.611" r="21.6" fill="#009af9" fill-rule="evenodd" fill-opacity="0.7" stroke="#000000" stroke-opacity="0.7" stroke-width="3.2"/>
<circle clip-path="url(#clip301)" cx="2352.76" cy="841.714" r="21.6" fill="#009af9" fill-rule="evenodd" fill-opacity="0.7" stroke="#000000" stroke-opacity="0.7" stroke-width="3.2"/>
<circle clip-path="url(#clip301)" cx="112.177" cy="1384.24" r="21.6" fill="#e26f46" fill-rule="evenodd" fill-opacity="0.7" stroke="#000000" stroke-opacity="0.7" stroke-width="3.2"/>
<circle clip-path="url(#clip301)" cx="230.102" cy="891.46" r="21.6" fill="#e26f46" fill-rule="evenodd" fill-opacity="0.7" stroke="#000000" stroke-opacity="0.7" stroke-width="3.2"/>
<circle clip-path="url(#clip301)" cx="348.028" cy="771.273" r="21.6" fill="#e26f46" fill-rule="evenodd" fill-opacity="0.7" stroke="#000000" stroke-opacity="0.7" stroke-width="3.2"/>
<circle clip-path="url(#clip301)" cx="465.953" cy="927.142" r="21.6" fill="#e26f46" fill-rule="evenodd" fill-opacity="0.7" stroke="#000000" stroke-opacity="0.7" stroke-width="3.2"/>
<circle clip-path="url(#clip301)" cx="583.878" cy="683.371" r="21.6" fill="#e26f46" fill-rule="evenodd" fill-opacity="0.7" stroke="#000000" stroke-opacity="0.7" stroke-width="3.2"/>
<circle clip-path="url(#clip301)" cx="701.803" cy="789.353" r="21.6" fill="#e26f46" fill-rule="evenodd" fill-opacity="0.7" stroke="#000000" stroke-opacity="0.7" stroke-width="3.2"/>
<circle clip-path="url(#clip301)" cx="819.728" cy="605.717" r="21.6" fill="#e26f46" fill-rule="evenodd" fill-opacity="0.7" stroke="#000000" stroke-opacity="0.7" stroke-width="3.2"/>
<circle clip-path="url(#clip301)" cx="937.654" cy="441.727" r="21.6" fill="#e26f46" fill-rule="evenodd" fill-opacity="0.7" stroke="#000000" stroke-opacity="0.7" stroke-width="3.2"/>
<circle clip-path="url(#clip301)" cx="1055.58" cy="358.972" r="21.6" fill="#e26f46" fill-rule="evenodd" fill-opacity="0.7" stroke="#000000" stroke-opacity="0.7" stroke-width="3.2"/>
<circle clip-path="url(#clip301)" cx="1173.5" cy="553.332" r="21.6" fill="#e26f46" fill-rule="evenodd" fill-opacity="0.7" stroke="#000000" stroke-opacity="0.7" stroke-width="3.2"/>
<circle clip-path="url(#clip301)" cx="1291.43" cy="512.054" r="21.6" fill="#e26f46" fill-rule="evenodd" fill-opacity="0.7" stroke="#000000" stroke-opacity="0.7" stroke-width="3.2"/>
<circle clip-path="url(#clip301)" cx="1409.35" cy="483.863" r="21.6" fill="#e26f46" fill-rule="evenodd" fill-opacity="0.7" stroke="#000000" stroke-opacity="0.7" stroke-width="3.2"/>
<circle clip-path="url(#clip301)" cx="1527.28" cy="193.224" r="21.6" fill="#e26f46" fill-rule="evenodd" fill-opacity="0.7" stroke="#000000" stroke-opacity="0.7" stroke-width="3.2"/>
<circle clip-path="url(#clip301)" cx="1645.2" cy="425.307" r="21.6" fill="#e26f46" fill-rule="evenodd" fill-opacity="0.7" stroke="#000000" stroke-opacity="0.7" stroke-width="3.2"/>
<circle clip-path="url(#clip301)" cx="1763.13" cy="155.463" r="21.6" fill="#e26f46" fill-rule="evenodd" fill-opacity="0.7" stroke="#000000" stroke-opacity="0.7" stroke-width="3.2"/>
<circle clip-path="url(#clip301)" cx="1881.06" cy="319.047" r="21.6" fill="#e26f46" fill-rule="evenodd" fill-opacity="0.7" stroke="#000000" stroke-opacity="0.7" stroke-width="3.2"/>
<circle clip-path="url(#clip301)" cx="1998.98" cy="343.867" r="21.6" fill="#e26f46" fill-rule="evenodd" fill-opacity="0.7" stroke="#000000" stroke-opacity="0.7" stroke-width="3.2"/>
<circle clip-path="url(#clip301)" cx="2116.91" cy="86.1857" r="21.6" fill="#e26f46" fill-rule="evenodd" fill-opacity="0.7" stroke="#000000" stroke-opacity="0.7" stroke-width="3.2"/>
<circle clip-path="url(#clip301)" cx="2234.83" cy="199.499" r="21.6" fill="#e26f46" fill-rule="evenodd" fill-opacity="0.7" stroke="#000000" stroke-opacity="0.7" stroke-width="3.2"/>
<circle clip-path="url(#clip301)" cx="2352.76" cy="465.989" r="21.6" fill="#e26f46" fill-rule="evenodd" fill-opacity="0.7" stroke="#000000" stroke-opacity="0.7" stroke-width="3.2"/>
<path clip-path="url(#clip300)" d="M186.863 352.309 L596.753 352.309 L596.753 93.1086 L186.863 93.1086  Z" fill="#ffffff" fill-rule="evenodd" fill-opacity="1"/>
<polyline clip-path="url(#clip300)" style="stroke:#000000; stroke-linecap:round; stroke-linejoin:round; stroke-width:4; stroke-opacity:1; fill:none" points="186.863,352.309 596.753,352.309 596.753,93.1086 186.863,93.1086 186.863,352.309 "/>
<polyline clip-path="url(#clip300)" style="stroke:#009af9; stroke-linecap:round; stroke-linejoin:round; stroke-width:20; stroke-opacity:1; fill:none" points="211.758,144.949 361.13,144.949 "/>
<path clip-path="url(#clip300)" d="M387.6 127.669 L392.623 127.669 L401.211 140.516 L409.845 127.669 L414.868 127.669 L403.757 144.266 L415.609 162.229 L410.586 162.229 L400.864 147.53 L391.072 162.229 L386.026 162.229 L398.364 143.78 L387.6 127.669 Z" fill="#000000" fill-rule="nonzero" fill-opacity="1" /><polyline clip-path="url(#clip300)" style="stroke:#e26f46; stroke-linecap:round; stroke-linejoin:round; stroke-width:20; stroke-opacity:1; fill:none" points="211.758,196.789 361.13,196.789 "/>
<path clip-path="url(#clip300)" d="M386.026 179.509 L391.049 179.509 L400.632 193.722 L410.146 179.509 L415.169 179.509 L402.947 197.61 L402.947 214.069 L398.248 214.069 L398.248 197.61 L386.026 179.509 Z" fill="#000000" fill-rule="nonzero" fill-opacity="1" /><circle clip-path="url(#clip300)" cx="286.444" cy="248.629" r="21.2677" fill="#009af9" fill-rule="evenodd" fill-opacity="0.7" stroke="#000000" stroke-opacity="0.7" stroke-width="3.15077"/>
<path clip-path="url(#clip300)" d="M387.6 231.349 L392.623 231.349 L401.211 244.196 L409.845 231.349 L414.868 231.349 L403.757 247.946 L415.609 265.909 L410.586 265.909 L400.864 251.21 L391.072 265.909 L386.026 265.909 L398.364 247.46 L387.6 231.349 Z" fill="#000000" fill-rule="nonzero" fill-opacity="1" /><path clip-path="url(#clip300)" d="M446.859 229.937 Q443.757 235.261 442.252 240.469 Q440.748 245.677 440.748 251.024 Q440.748 256.372 442.252 261.626 Q443.78 266.858 446.859 272.159 L443.155 272.159 Q439.683 266.719 437.947 261.464 Q436.234 256.21 436.234 251.024 Q436.234 245.862 437.947 240.631 Q439.66 235.4 443.155 229.937 L446.859 229.937 Z" fill="#000000" fill-rule="nonzero" fill-opacity="1" /><path clip-path="url(#clip300)" d="M472.183 243.918 L472.183 229.89 L476.442 229.89 L476.442 265.909 L472.183 265.909 L472.183 262.02 Q470.84 264.335 468.78 265.469 Q466.743 266.58 463.872 266.58 Q459.173 266.58 456.21 262.83 Q453.271 259.08 453.271 252.969 Q453.271 246.858 456.21 243.108 Q459.173 239.358 463.872 239.358 Q466.743 239.358 468.78 240.492 Q470.84 241.603 472.183 243.918 M457.669 252.969 Q457.669 257.668 459.59 260.353 Q461.535 263.015 464.914 263.015 Q468.294 263.015 470.238 260.353 Q472.183 257.668 472.183 252.969 Q472.183 248.27 470.238 245.608 Q468.294 242.923 464.914 242.923 Q461.535 242.923 459.59 245.608 Q457.669 248.27 457.669 252.969 Z" fill="#000000" fill-rule="nonzero" fill-opacity="1" /><path clip-path="url(#clip300)" d="M496.997 252.876 Q491.835 252.876 489.845 254.057 Q487.854 255.237 487.854 258.085 Q487.854 260.353 489.335 261.696 Q490.84 263.015 493.409 263.015 Q496.951 263.015 499.081 260.515 Q501.233 257.992 501.233 253.825 L501.233 252.876 L496.997 252.876 M505.493 251.117 L505.493 265.909 L501.233 265.909 L501.233 261.973 Q499.775 264.335 497.599 265.469 Q495.423 266.58 492.275 266.58 Q488.294 266.58 485.933 264.358 Q483.595 262.112 483.595 258.362 Q483.595 253.987 486.511 251.765 Q489.451 249.543 495.261 249.543 L501.233 249.543 L501.233 249.126 Q501.233 246.187 499.289 244.589 Q497.368 242.969 493.872 242.969 Q491.65 242.969 489.544 243.501 Q487.437 244.034 485.493 245.099 L485.493 241.163 Q487.831 240.261 490.03 239.821 Q492.229 239.358 494.312 239.358 Q499.937 239.358 502.715 242.274 Q505.493 245.191 505.493 251.117 Z" fill="#000000" fill-rule="nonzero" fill-opacity="1" /><path clip-path="url(#clip300)" d="M518.479 232.622 L518.479 239.983 L527.252 239.983 L527.252 243.293 L518.479 243.293 L518.479 257.367 Q518.479 260.538 519.335 261.441 Q520.215 262.344 522.877 262.344 L527.252 262.344 L527.252 265.909 L522.877 265.909 Q517.946 265.909 516.071 264.08 Q514.196 262.228 514.196 257.367 L514.196 243.293 L511.071 243.293 L511.071 239.983 L514.196 239.983 L514.196 232.622 L518.479 232.622 Z" fill="#000000" fill-rule="nonzero" fill-opacity="1" /><path clip-path="url(#clip300)" d="M544.636 252.876 Q539.474 252.876 537.483 254.057 Q535.492 255.237 535.492 258.085 Q535.492 260.353 536.974 261.696 Q538.479 263.015 541.048 263.015 Q544.59 263.015 546.719 260.515 Q548.872 257.992 548.872 253.825 L548.872 252.876 L544.636 252.876 M553.131 251.117 L553.131 265.909 L548.872 265.909 L548.872 261.973 Q547.414 264.335 545.238 265.469 Q543.062 266.58 539.914 266.58 Q535.932 266.58 533.571 264.358 Q531.233 262.112 531.233 258.362 Q531.233 253.987 534.15 251.765 Q537.09 249.543 542.9 249.543 L548.872 249.543 L548.872 249.126 Q548.872 246.187 546.928 244.589 Q545.006 242.969 541.511 242.969 Q539.289 242.969 537.182 243.501 Q535.076 244.034 533.131 245.099 L533.131 241.163 Q535.469 240.261 537.668 239.821 Q539.867 239.358 541.951 239.358 Q547.576 239.358 550.354 242.274 Q553.131 245.191 553.131 251.117 Z" fill="#000000" fill-rule="nonzero" fill-opacity="1" /><path clip-path="url(#clip300)" d="M561.233 229.937 L564.937 229.937 Q568.409 235.4 570.122 240.631 Q571.858 245.862 571.858 251.024 Q571.858 256.21 570.122 261.464 Q568.409 266.719 564.937 272.159 L561.233 272.159 Q564.312 266.858 565.816 261.626 Q567.344 256.372 567.344 251.024 Q567.344 245.677 565.816 240.469 Q564.312 235.261 561.233 229.937 Z" fill="#000000" fill-rule="nonzero" fill-opacity="1" /><circle clip-path="url(#clip300)" cx="286.444" cy="300.469" r="21.2677" fill="#e26f46" fill-rule="evenodd" fill-opacity="0.7" stroke="#000000" stroke-opacity="0.7" stroke-width="3.15077"/>
<path clip-path="url(#clip300)" d="M386.026 283.189 L391.049 283.189 L400.632 297.402 L410.146 283.189 L415.169 283.189 L402.947 301.29 L402.947 317.749 L398.248 317.749 L398.248 301.29 L386.026 283.189 Z" fill="#000000" fill-rule="nonzero" fill-opacity="1" /><path clip-path="url(#clip300)" d="M444.845 281.777 Q441.743 287.101 440.238 292.309 Q438.734 297.517 438.734 302.864 Q438.734 308.212 440.238 313.466 Q441.766 318.698 444.845 323.999 L441.141 323.999 Q437.669 318.559 435.933 313.304 Q434.22 308.05 434.22 302.864 Q434.22 297.702 435.933 292.471 Q437.646 287.24 441.141 281.777 L444.845 281.777 Z" fill="#000000" fill-rule="nonzero" fill-opacity="1" /><path clip-path="url(#clip300)" d="M470.169 295.758 L470.169 281.73 L474.428 281.73 L474.428 317.749 L470.169 317.749 L470.169 313.86 Q468.826 316.175 466.766 317.309 Q464.729 318.42 461.859 318.42 Q457.16 318.42 454.197 314.67 Q451.257 310.92 451.257 304.809 Q451.257 298.698 454.197 294.948 Q457.16 291.198 461.859 291.198 Q464.729 291.198 466.766 292.332 Q468.826 293.443 470.169 295.758 M455.655 304.809 Q455.655 309.508 457.576 312.193 Q459.521 314.855 462.9 314.855 Q466.28 314.855 468.224 312.193 Q470.169 309.508 470.169 304.809 Q470.169 300.11 468.224 297.448 Q466.28 294.763 462.9 294.763 Q459.521 294.763 457.576 297.448 Q455.655 300.11 455.655 304.809 Z" fill="#000000" fill-rule="nonzero" fill-opacity="1" /><path clip-path="url(#clip300)" d="M494.983 304.716 Q489.821 304.716 487.831 305.897 Q485.84 307.077 485.84 309.925 Q485.84 312.193 487.321 313.536 Q488.826 314.855 491.395 314.855 Q494.937 314.855 497.067 312.355 Q499.22 309.832 499.22 305.665 L499.22 304.716 L494.983 304.716 M503.479 302.957 L503.479 317.749 L499.22 317.749 L499.22 313.813 Q497.761 316.175 495.585 317.309 Q493.409 318.42 490.261 318.42 Q486.28 318.42 483.919 316.198 Q481.581 313.952 481.581 310.202 Q481.581 305.827 484.497 303.605 Q487.437 301.383 493.247 301.383 L499.22 301.383 L499.22 300.966 Q499.22 298.027 497.275 296.429 Q495.354 294.809 491.858 294.809 Q489.636 294.809 487.53 295.341 Q485.423 295.874 483.479 296.939 L483.479 293.003 Q485.817 292.101 488.016 291.661 Q490.215 291.198 492.298 291.198 Q497.923 291.198 500.701 294.114 Q503.479 297.031 503.479 302.957 Z" fill="#000000" fill-rule="nonzero" fill-opacity="1" /><path clip-path="url(#clip300)" d="M516.465 284.462 L516.465 291.823 L525.238 291.823 L525.238 295.133 L516.465 295.133 L516.465 309.207 Q516.465 312.378 517.321 313.281 Q518.201 314.184 520.863 314.184 L525.238 314.184 L525.238 317.749 L520.863 317.749 Q515.932 317.749 514.057 315.92 Q512.182 314.068 512.182 309.207 L512.182 295.133 L509.057 295.133 L509.057 291.823 L512.182 291.823 L512.182 284.462 L516.465 284.462 Z" fill="#000000" fill-rule="nonzero" fill-opacity="1" /><path clip-path="url(#clip300)" d="M542.622 304.716 Q537.46 304.716 535.469 305.897 Q533.479 307.077 533.479 309.925 Q533.479 312.193 534.96 313.536 Q536.465 314.855 539.034 314.855 Q542.576 314.855 544.705 312.355 Q546.858 309.832 546.858 305.665 L546.858 304.716 L542.622 304.716 M551.117 302.957 L551.117 317.749 L546.858 317.749 L546.858 313.813 Q545.4 316.175 543.224 317.309 Q541.048 318.42 537.9 318.42 Q533.918 318.42 531.557 316.198 Q529.219 313.952 529.219 310.202 Q529.219 305.827 532.136 303.605 Q535.076 301.383 540.886 301.383 L546.858 301.383 L546.858 300.966 Q546.858 298.027 544.914 296.429 Q542.992 294.809 539.497 294.809 Q537.275 294.809 535.168 295.341 Q533.062 295.874 531.118 296.939 L531.118 293.003 Q533.455 292.101 535.655 291.661 Q537.854 291.198 539.937 291.198 Q545.562 291.198 548.34 294.114 Q551.117 297.031 551.117 302.957 Z" fill="#000000" fill-rule="nonzero" fill-opacity="1" /><path clip-path="url(#clip300)" d="M559.219 281.777 L562.923 281.777 Q566.395 287.24 568.108 292.471 Q569.844 297.702 569.844 302.864 Q569.844 308.05 568.108 313.304 Q566.395 318.559 562.923 323.999 L559.219 323.999 Q562.298 318.698 563.803 313.466 Q565.33 308.212 565.33 302.864 Q565.33 297.517 563.803 292.309 Q562.298 287.101 559.219 281.777 Z" fill="#000000" fill-rule="nonzero" fill-opacity="1" /></svg>
