<?xml version="1.0" encoding="utf-8"?>
<svg xmlns="http://www.w3.org/2000/svg" xmlns:xlink="http://www.w3.org/1999/xlink" width="600" height="400" viewBox="0 0 2400 1600">
<defs>
  <clipPath id="clip910">
    <rect x="0" y="0" width="2400" height="1600"/>
  </clipPath>
</defs>
<path clip-path="url(#clip910)" d="M0 1600 L2400 1600 L2400 0 L0 0  Z" fill="#ffffff" fill-rule="evenodd" fill-opacity="1"/>
<defs>
  <clipPath id="clip911">
    <rect x="112" y="47" width="2242" height="1377"/>
  </clipPath>
</defs>
<path clip-path="url(#clip910)" d="M112.177 1423.18 L2352.76 1423.18 L2352.76 47.2441 L112.177 47.2441  Z" fill="#ffffff" fill-rule="evenodd" fill-opacity="1"/>
<polyline clip-path="url(#clip911)" style="stroke:#000000; stroke-linecap:round; stroke-linejoin:round; stroke-width:2; stroke-opacity:0.1; fill:none" points="112.177,1423.18 112.177,47.2441 "/>
<polyline clip-path="url(#clip911)" style="stroke:#000000; stroke-linecap:round; stroke-linejoin:round; stroke-width:2; stroke-opacity:0.1; fill:none" points="610.084,1423.18 610.084,47.2441 "/>
<polyline clip-path="url(#clip911)" style="stroke:#000000; stroke-linecap:round; stroke-linejoin:round; stroke-width:2; stroke-opacity:0.1; fill:none" points="1107.99,1423.18 1107.99,47.2441 "/>
<polyline clip-path="url(#clip911)" style="stroke:#000000; stroke-linecap:round; stroke-linejoin:round; stroke-width:2; stroke-opacity:0.1; fill:none" points="1605.9,1423.18 1605.9,47.2441 "/>
<polyline clip-path="url(#clip911)" style="stroke:#000000; stroke-linecap:round; stroke-linejoin:round; stroke-width:2; stroke-opacity:0.1; fill:none" points="2103.8,1423.18 2103.8,47.2441 "/>
<polyline clip-path="url(#clip911)" style="stroke:#000000; stroke-linecap:round; stroke-linejoin:round; stroke-width:2; stroke-opacity:0.1; fill:none" points="112.177,1413.23 2352.76,1413.23 "/>
<polyline clip-path="url(#clip911)" style="stroke:#000000; stroke-linecap:round; stroke-linejoin:round; stroke-width:2; stroke-opacity:0.1; fill:none" points="112.177,1123.32 2352.76,1123.32 "/>
<polyline clip-path="url(#clip911)" style="stroke:#000000; stroke-linecap:round; stroke-linejoin:round; stroke-width:2; stroke-opacity:0.1; fill:none" points="112.177,833.413 2352.76,833.413 "/>
<polyline clip-path="url(#clip911)" style="stroke:#000000; stroke-linecap:round; stroke-linejoin:round; stroke-width:2; stroke-opacity:0.1; fill:none" points="112.177,543.505 2352.76,543.505 "/>
<polyline clip-path="url(#clip911)" style="stroke:#000000; stroke-linecap:round; stroke-linejoin:round; stroke-width:2; stroke-opacity:0.1; fill:none" points="112.177,253.597 2352.76,253.597 "/>
<polyline clip-path="url(#clip910)" style="stroke:#000000; stroke-linecap:round; stroke-linejoin:round; stroke-width:4; stroke-opacity:1; fill:none" points="112.177,1423.18 2352.76,1423.18 "/>
<polyline clip-path="url(#clip910)" style="stroke:#000000; stroke-linecap:round; stroke-linejoin:round; stroke-width:4; stroke-opacity:1; fill:none" points="112.177,1423.18 112.177,1404.28 "/>
<polyline clip-path="url(#clip910)" style="stroke:#000000; stroke-linecap:round; stroke-linejoin:round; stroke-width:4; stroke-opacity:1; fill:none" points="610.084,1423.18 610.084,1404.28 "/>
<polyline clip-path="url(#clip910)" style="stroke:#000000; stroke-linecap:round; stroke-linejoin:round; stroke-width:4; stroke-opacity:1; fill:none" points="1107.99,1423.18 1107.99,1404.28 "/>
<polyline clip-path="url(#clip910)" style="stroke:#000000; stroke-linecap:round; stroke-linejoin:round; stroke-width:4; stroke-opacity:1; fill:none" points="1605.9,1423.18 1605.9,1404.28 "/>
<polyline clip-path="url(#clip910)" style="stroke:#000000; stroke-linecap:round; stroke-linejoin:round; stroke-width:4; stroke-opacity:1; fill:none" points="2103.8,1423.18 2103.8,1404.28 "/>
<path clip-path="url(#clip910)" d="M112.177 1454.1 Q108.566 1454.1 106.737 1457.66 Q104.932 1461.2 104.932 1468.33 Q104.932 1475.44 106.737 1479.01 Q108.566 1482.55 112.177 1482.55 Q115.811 1482.55 117.617 1479.01 Q119.446 1475.44 119.446 1468.33 Q119.446 1461.2 117.617 1457.66 Q115.811 1454.1 112.177 1454.1 M112.177 1450.39 Q117.987 1450.39 121.043 1455 Q124.122 1459.58 124.122 1468.33 Q124.122 1477.06 121.043 1481.67 Q117.987 1486.25 112.177 1486.25 Q106.367 1486.25 103.288 1481.67 Q100.233 1477.06 100.233 1468.33 Q100.233 1459.58 103.288 1455 Q106.367 1450.39 112.177 1450.39 Z" fill="#000000" fill-rule="nonzero" fill-opacity="1" /><path clip-path="url(#clip910)" d="M584.771 1481.64 L592.41 1481.64 L592.41 1455.28 L584.1 1456.95 L584.1 1452.69 L592.364 1451.02 L597.04 1451.02 L597.04 1481.64 L604.678 1481.64 L604.678 1485.58 L584.771 1485.58 L584.771 1481.64 Z" fill="#000000" fill-rule="nonzero" fill-opacity="1" /><path clip-path="url(#clip910)" d="M624.123 1454.1 Q620.512 1454.1 618.683 1457.66 Q616.878 1461.2 616.878 1468.33 Q616.878 1475.44 618.683 1479.01 Q620.512 1482.55 624.123 1482.55 Q627.757 1482.55 629.563 1479.01 Q631.391 1475.44 631.391 1468.33 Q631.391 1461.2 629.563 1457.66 Q627.757 1454.1 624.123 1454.1 M624.123 1450.39 Q629.933 1450.39 632.989 1455 Q636.067 1459.58 636.067 1468.33 Q636.067 1477.06 632.989 1481.67 Q629.933 1486.25 624.123 1486.25 Q618.313 1486.25 615.234 1481.67 Q612.178 1477.06 612.178 1468.33 Q612.178 1459.58 615.234 1455 Q618.313 1450.39 624.123 1450.39 Z" fill="#000000" fill-rule="nonzero" fill-opacity="1" /><path clip-path="url(#clip910)" d="M1086.76 1481.64 L1103.08 1481.64 L1103.08 1485.58 L1081.14 1485.58 L1081.14 1481.64 Q1083.8 1478.89 1088.38 1474.26 Q1092.99 1469.61 1094.17 1468.27 Q1096.42 1465.74 1097.3 1464.01 Q1098.2 1462.25 1098.2 1460.56 Q1098.2 1457.8 1096.25 1456.07 Q1094.33 1454.33 1091.23 1454.33 Q1089.03 1454.33 1086.58 1455.09 Q1084.15 1455.86 1081.37 1457.41 L1081.37 1452.69 Q1084.19 1451.55 1086.65 1450.97 Q1089.1 1450.39 1091.14 1450.39 Q1096.51 1450.39 1099.7 1453.08 Q1102.9 1455.77 1102.9 1460.26 Q1102.9 1462.39 1102.09 1464.31 Q1101.3 1466.2 1099.19 1468.8 Q1098.61 1469.47 1095.51 1472.69 Q1092.41 1475.88 1086.76 1481.64 Z" fill="#000000" fill-rule="nonzero" fill-opacity="1" /><path clip-path="url(#clip910)" d="M1122.9 1454.1 Q1119.29 1454.1 1117.46 1457.66 Q1115.65 1461.2 1115.65 1468.33 Q1115.65 1475.44 1117.46 1479.01 Q1119.29 1482.55 1122.9 1482.55 Q1126.53 1482.55 1128.34 1479.01 Q1130.17 1475.44 1130.17 1468.33 Q1130.17 1461.2 1128.34 1457.66 Q1126.53 1454.1 1122.9 1454.1 M1122.9 1450.39 Q1128.71 1450.39 1131.76 1455 Q1134.84 1459.58 1134.84 1468.33 Q1134.84 1477.06 1131.76 1481.67 Q1128.71 1486.25 1122.9 1486.25 Q1117.09 1486.25 1114.01 1481.67 Q1110.95 1477.06 1110.95 1468.33 Q1110.95 1459.58 1114.01 1455 Q1117.09 1450.39 1122.9 1450.39 Z" fill="#000000" fill-rule="nonzero" fill-opacity="1" /><path clip-path="url(#clip910)" d="M1594.74 1466.95 Q1598.1 1467.66 1599.97 1469.93 Q1601.87 1472.2 1601.87 1475.53 Q1601.87 1480.65 1598.35 1483.45 Q1594.83 1486.25 1588.35 1486.25 Q1586.17 1486.25 1583.86 1485.81 Q1581.57 1485.39 1579.11 1484.54 L1579.11 1480.02 Q1581.06 1481.16 1583.37 1481.74 Q1585.69 1482.32 1588.21 1482.32 Q1592.61 1482.32 1594.9 1480.58 Q1597.22 1478.84 1597.22 1475.53 Q1597.22 1472.48 1595.06 1470.77 Q1592.93 1469.03 1589.11 1469.03 L1585.09 1469.03 L1585.09 1465.19 L1589.3 1465.19 Q1592.75 1465.19 1594.58 1463.82 Q1596.41 1462.43 1596.41 1459.84 Q1596.41 1457.18 1594.51 1455.77 Q1592.63 1454.33 1589.11 1454.33 Q1587.19 1454.33 1584.99 1454.75 Q1582.79 1455.16 1580.16 1456.04 L1580.16 1451.88 Q1582.82 1451.14 1585.13 1450.77 Q1587.47 1450.39 1589.53 1450.39 Q1594.85 1450.39 1597.96 1452.83 Q1601.06 1455.23 1601.06 1459.35 Q1601.06 1462.22 1599.41 1464.21 Q1597.77 1466.18 1594.74 1466.95 Z" fill="#000000" fill-rule="nonzero" fill-opacity="1" /><path clip-path="url(#clip910)" d="M1620.73 1454.1 Q1617.12 1454.1 1615.29 1457.66 Q1613.49 1461.2 1613.49 1468.33 Q1613.49 1475.44 1615.29 1479.01 Q1617.12 1482.55 1620.73 1482.55 Q1624.37 1482.55 1626.17 1479.01 Q1628 1475.44 1628 1468.33 Q1628 1461.2 1626.17 1457.66 Q1624.37 1454.1 1620.73 1454.1 M1620.73 1450.39 Q1626.54 1450.39 1629.6 1455 Q1632.68 1459.58 1632.68 1468.33 Q1632.68 1477.06 1629.6 1481.67 Q1626.54 1486.25 1620.73 1486.25 Q1614.92 1486.25 1611.85 1481.67 Q1608.79 1477.06 1608.79 1468.33 Q1608.79 1459.58 1611.85 1455 Q1614.92 1450.39 1620.73 1450.39 Z" fill="#000000" fill-rule="nonzero" fill-opacity="1" /><path clip-path="url(#clip910)" d="M2091.97 1455.09 L2080.17 1473.54 L2091.97 1473.54 L2091.97 1455.09 M2090.75 1451.02 L2096.63 1451.02 L2096.63 1473.54 L2101.56 1473.54 L2101.56 1477.43 L2096.63 1477.43 L2096.63 1485.58 L2091.97 1485.58 L2091.97 1477.43 L2076.37 1477.43 L2076.37 1472.92 L2090.75 1451.02 Z" fill="#000000" fill-rule="nonzero" fill-opacity="1" /><path clip-path="url(#clip910)" d="M2119.29 1454.1 Q2115.68 1454.1 2113.85 1457.66 Q2112.04 1461.2 2112.04 1468.33 Q2112.04 1475.44 2113.85 1479.01 Q2115.68 1482.55 2119.29 1482.55 Q2122.92 1482.55 2124.73 1479.01 Q2126.56 1475.44 2126.56 1468.33 Q2126.56 1461.2 2124.73 1457.66 Q2122.92 1454.1 2119.29 1454.1 M2119.29 1450.39 Q2125.1 1450.39 2128.15 1455 Q2131.23 1459.58 2131.23 1468.33 Q2131.23 1477.06 2128.15 1481.67 Q2125.1 1486.25 2119.29 1486.25 Q2113.48 1486.25 2110.4 1481.67 Q2107.34 1477.06 2107.34 1468.33 Q2107.34 1459.58 2110.4 1455 Q2113.48 1450.39 2119.29 1450.39 Z" fill="#000000" fill-rule="nonzero" fill-opacity="1" /><path clip-path="url(#clip910)" d="M1231.53 1522.27 L1231.53 1532.4 L1243.59 1532.4 L1243.59 1536.95 L1231.53 1536.95 L1231.53 1556.3 Q1231.53 1560.66 1232.71 1561.9 Q1233.91 1563.14 1237.58 1563.14 L1243.59 1563.14 L1243.59 1568.04 L1237.58 1568.04 Q1230.8 1568.04 1228.22 1565.53 Q1225.64 1562.98 1225.64 1556.3 L1225.64 1536.95 L1221.34 1536.95 L1221.34 1532.4 L1225.64 1532.4 L1225.64 1522.27 L1231.53 1522.27 Z" fill="#000000" fill-rule="nonzero" fill-opacity="1" /><polyline clip-path="url(#clip910)" style="stroke:#000000; stroke-linecap:round; stroke-linejoin:round; stroke-width:4; stroke-opacity:1; fill:none" points="112.177,1423.18 112.177,47.2441 "/>
<polyline clip-path="url(#clip910)" style="stroke:#000000; stroke-linecap:round; stroke-linejoin:round; stroke-width:4; stroke-opacity:1; fill:none" points="112.177,1413.23 131.075,1413.23 "/>
<polyline clip-path="url(#clip910)" style="stroke:#000000; stroke-linecap:round; stroke-linejoin:round; stroke-width:4; stroke-opacity:1; fill:none" points="112.177,1123.32 131.075,1123.32 "/>
<polyline clip-path="url(#clip910)" style="stroke:#000000; stroke-linecap:round; stroke-linejoin:round; stroke-width:4; stroke-opacity:1; fill:none" points="112.177,833.413 131.075,833.413 "/>
<polyline clip-path="url(#clip910)" style="stroke:#000000; stroke-linecap:round; stroke-linejoin:round; stroke-width:4; stroke-opacity:1; fill:none" points="112.177,543.505 131.075,543.505 "/>
<polyline clip-path="url(#clip910)" style="stroke:#000000; stroke-linecap:round; stroke-linejoin:round; stroke-width:4; stroke-opacity:1; fill:none" points="112.177,253.597 131.075,253.597 "/>
<path clip-path="url(#clip910)" d="M64.2328 1399.03 Q60.6217 1399.03 58.793 1402.59 Q56.9875 1406.13 56.9875 1413.26 Q56.9875 1420.37 58.793 1423.94 Q60.6217 1427.48 64.2328 1427.48 Q67.867 1427.48 69.6726 1423.94 Q71.5013 1420.37 71.5013 1413.26 Q71.5013 1406.13 69.6726 1402.59 Q67.867 1399.03 64.2328 1399.03 M64.2328 1395.32 Q70.0429 1395.32 73.0985 1399.93 Q76.1772 1404.51 76.1772 1413.26 Q76.1772 1421.99 73.0985 1426.6 Q70.0429 1431.18 64.2328 1431.18 Q58.4226 1431.18 55.344 1426.6 Q52.2884 1421.99 52.2884 1413.26 Q52.2884 1404.51 55.344 1399.93 Q58.4226 1395.32 64.2328 1395.32 Z" fill="#000000" fill-rule="nonzero" fill-opacity="1" /><path clip-path="url(#clip910)" d="M56.2699 1136.67 L63.9087 1136.67 L63.9087 1110.3 L55.5986 1111.97 L55.5986 1107.71 L63.8624 1106.04 L68.5383 1106.04 L68.5383 1136.67 L76.1772 1136.67 L76.1772 1140.6 L56.2699 1140.6 L56.2699 1136.67 Z" fill="#000000" fill-rule="nonzero" fill-opacity="1" /><path clip-path="url(#clip910)" d="M59.8578 846.758 L76.1772 846.758 L76.1772 850.693 L54.2328 850.693 L54.2328 846.758 Q56.8949 844.003 61.4782 839.374 Q66.0846 834.721 67.2652 833.378 Q69.5105 830.855 70.3902 829.119 Q71.2929 827.36 71.2929 825.67 Q71.2929 822.915 69.3485 821.179 Q67.4272 819.443 64.3254 819.443 Q62.1263 819.443 59.6726 820.207 Q57.2421 820.971 54.4643 822.522 L54.4643 817.8 Q57.2884 816.665 59.7421 816.087 Q62.1958 815.508 64.2328 815.508 Q69.6031 815.508 72.7976 818.193 Q75.992 820.878 75.992 825.369 Q75.992 827.499 75.1818 829.42 Q74.3948 831.318 72.2883 833.911 Q71.7096 834.582 68.6078 837.8 Q65.5059 840.994 59.8578 846.758 Z" fill="#000000" fill-rule="nonzero" fill-opacity="1" /><path clip-path="url(#clip910)" d="M69.0476 542.151 Q72.404 542.868 74.279 545.137 Q76.1772 547.405 76.1772 550.739 Q76.1772 555.854 72.6587 558.655 Q69.1402 561.456 62.6587 561.456 Q60.4828 561.456 58.168 561.017 Q55.8764 560.6 53.4227 559.743 L53.4227 555.229 Q55.3671 556.364 57.6819 556.942 Q59.9967 557.521 62.5198 557.521 Q66.918 557.521 69.2096 555.785 Q71.5244 554.049 71.5244 550.739 Q71.5244 547.683 69.3717 545.97 Q67.242 544.234 63.4226 544.234 L59.3949 544.234 L59.3949 540.392 L63.6078 540.392 Q67.0569 540.392 68.8855 539.026 Q70.7142 537.637 70.7142 535.044 Q70.7142 532.382 68.8161 530.97 Q66.9411 529.535 63.4226 529.535 Q61.5013 529.535 59.3023 529.952 Q57.1032 530.369 54.4643 531.248 L54.4643 527.081 Q57.1264 526.341 59.4412 525.97 Q61.7791 525.6 63.8393 525.6 Q69.1633 525.6 72.2652 528.031 Q75.367 530.438 75.367 534.558 Q75.367 537.429 73.7235 539.419 Q72.08 541.387 69.0476 542.151 Z" fill="#000000" fill-rule="nonzero" fill-opacity="1" /><path clip-path="url(#clip910)" d="M66.5939 240.391 L54.7884 258.84 L66.5939 258.84 L66.5939 240.391 M65.367 236.317 L71.2466 236.317 L71.2466 258.84 L76.1772 258.84 L76.1772 262.729 L71.2466 262.729 L71.2466 270.877 L66.5939 270.877 L66.5939 262.729 L50.9921 262.729 L50.9921 258.215 L65.367 236.317 Z" fill="#000000" fill-rule="nonzero" fill-opacity="1" /><polyline clip-path="url(#clip911)" style="stroke:#009af9; stroke-linecap:round; stroke-linejoin:round; stroke-width:24; stroke-opacity:1; fill:none" points="112.177,833.413 114.42,846.32 116.663,858.924 118.906,871.217 121.148,883.187 123.391,894.824 125.634,906.114 127.877,917.047 130.12,927.614 132.363,937.806 134.605,947.619 136.848,957.05 139.091,966.099 141.334,974.767 143.577,983.059 145.819,990.981 148.062,998.54 150.305,1005.74 152.548,1012.6 154.791,1019.13 157.034,1025.33 159.276,1031.22 161.519,1036.82 163.762,1042.12 166.005,1047.16 168.248,1051.93 170.491,1056.44 172.733,1060.72 174.976,1064.77 177.219,1068.61 179.462,1072.23 181.705,1075.66 183.947,1078.91 186.19,1081.97 188.433,1084.87 190.676,1087.61 192.919,1090.19 195.162,1092.63 197.404,1094.93 199.647,1097.11 201.89,1099.16 204.133,1101.09 206.376,1102.92 208.619,1104.63 210.861,1106.25 213.104,1107.78 215.347,1109.21 217.59,1110.56 219.833,1111.83 222.075,1113.02 224.318,1114.14 226.561,1115.19 228.804,1116.17 231.047,1117.1 233.29,1117.96 235.532,1118.77 237.775,1119.53 240.018,1120.23 242.261,1120.89 244.504,1121.5 246.746,1122.07 248.989,1122.59 251.232,1123.08 253.475,1123.54 255.718,1123.95 257.961,1124.34 260.203,1124.69 262.446,1125.01 264.689,1125.3 266.932,1125.57 269.175,1125.81 271.418,1126.03 273.66,1126.22 275.903,1126.39 278.146,1126.54 280.389,1126.66 282.632,1126.77 284.874,1126.86 287.117,1126.93 289.36,1126.99 291.603,1127.03 293.846,1127.05 296.089,1127.06 298.331,1127.06 300.574,1127.04 302.817,1127.01 305.06,1126.97 307.303,1126.92 309.545,1126.85 311.788,1126.78 314.031,1126.69 316.274,1126.6 318.517,1126.5 320.76,1126.38 323.002,1126.26 325.245,1126.13 327.488,1125.99 329.731,1125.84 331.974,1125.69 334.217,1125.53 336.459,1125.36 338.702,1125.19 340.945,1125.01 343.188,1124.82 345.431,1124.63 347.673,1124.44 349.916,1124.23 352.159,1124.02 354.402,1123.81 356.645,1123.59 358.888,1123.37 361.13,1123.14 363.373,1122.91 365.616,1122.67 367.859,1122.43 370.102,1122.19 372.344,1121.94 374.587,1121.68 376.83,1121.43 379.073,1121.16 381.316,1120.9 383.559,1120.63 385.801,1120.36 388.044,1120.08 390.287,1119.8 392.53,1119.52 394.773,1119.23 397.016,1118.94 399.258,1118.65 401.501,1118.36 403.744,1118.06 405.987,1117.76 408.23,1117.45 410.472,1117.15 412.715,1116.84 414.958,1116.52 417.201,1116.21 419.444,1115.89 421.687,1115.57 423.929,1115.24 426.172,1114.91 428.415,1114.58 430.658,1114.25 432.901,1113.91 435.143,1113.57 437.386,1113.23 439.629,1112.89 441.872,1112.54 444.115,1112.19 446.358,1111.84 448.6,1111.48 450.843,1111.13 453.086,1110.77 455.329,1110.4 457.572,1110.04 459.815,1109.67 462.057,1109.3 464.3,1108.93 466.543,1108.55 468.786,1108.18 471.029,1107.8 473.271,1107.41 475.514,1107.03 477.757,1106.64 480,1106.25 482.243,1105.86 484.486,1105.46 486.728,1105.07 488.971,1104.66 491.214,1104.26 493.457,1103.86 495.7,1103.45 497.942,1103.04 500.185,1102.62 502.428,1102.21 504.671,1101.79 506.914,1101.37 509.157,1100.94 511.399,1100.52 513.642,1100.09 515.885,1099.66 518.128,1099.23 520.371,1098.79 522.614,1098.35 524.856,1097.91 527.099,1097.46 529.342,1097.02 531.585,1096.57 533.828,1096.12 536.07,1095.66 538.313,1095.21 540.556,1094.75 542.799,1094.29 545.042,1093.82 547.285,1093.36 549.527,1092.89 551.77,1092.41 554.013,1091.94 556.256,1091.46 558.499,1090.98 560.741,1090.5 562.984,1090.02 565.227,1089.53 567.47,1089.04 569.713,1088.55 571.956,1088.05 574.198,1087.55 576.441,1087.05 578.684,1086.55 580.927,1086.05 583.17,1085.54 585.413,1085.03 587.655,1084.52 589.898,1084 592.141,1083.48 594.384,1082.96 596.627,1082.44 598.869,1081.92 601.112,1081.39 603.355,1080.86 605.598,1080.32 607.841,1079.79 610.084,1079.25 612.326,1078.71 614.569,1078.17 616.812,1077.62 619.055,1077.07 621.298,1076.52 623.54,1075.97 625.783,1075.42 628.026,1074.86 630.269,1074.3 632.512,1073.73 634.755,1073.17 636.997,1072.6 639.24,1072.03 641.483,1071.46 643.726,1070.88 645.969,1070.31 648.212,1069.73 650.454,1069.14 652.697,1068.56 654.94,1067.97 657.183,1067.38 659.426,1066.78 661.668,1066.19 663.911,1065.59 666.154,1064.99 668.397,1064.39 670.64,1063.78 672.883,1063.18 675.125,1062.57 677.368,1061.96 679.611,1061.34 681.854,1060.73 684.097,1060.11 686.339,1059.49 688.582,1058.87 690.825,1058.24 693.068,1057.62 695.311,1056.99 697.554,1056.36 699.796,1055.73 702.039,1055.09 704.282,1054.46 706.525,1053.82 708.768,1053.18 711.011,1052.54 713.253,1051.89 715.496,1051.25 717.739,1050.6 719.982,1049.95 722.225,1049.3 724.467,1048.65 726.71,1048 728.953,1047.34 731.196,1046.68 733.439,1046.03 735.682,1045.36 737.924,1044.7 740.167,1044.04 742.41,1043.37 744.653,1042.7 746.896,1042.04 749.138,1041.36 751.381,1040.69 753.624,1040.02 755.867,1039.34 758.11,1038.66 760.353,1037.98 762.595,1037.3 764.838,1036.62 767.081,1035.94 769.324,1035.25 771.567,1034.56 773.81,1033.87 776.052,1033.18 778.295,1032.49 780.538,1031.8 782.781,1031.1 785.024,1030.4 787.266,1029.7 789.509,1029 791.752,1028.3 793.995,1027.6 796.238,1026.9 798.481,1026.19 800.723,1025.49 802.966,1024.78 805.209,1024.07 807.452,1023.37 809.695,1022.66 811.938,1021.95 814.18,1021.24 816.423,1020.52 818.666,1019.81 820.909,1019.1 823.152,1018.39 825.394,1017.67 827.637,1016.96 829.88,1016.25 832.123,1015.53 834.366,1014.81 836.609,1014.1 838.851,1013.38 841.094,1012.67 843.337,1011.95 845.58,1011.23 847.823,1010.52 850.065,1009.8 852.308,1009.08 854.551,1008.37 856.794,1007.65 859.037,1006.93 861.28,1006.21 863.522,1005.5 865.765,1004.78 868.008,1004.06 870.251,1003.34 872.494,1002.62 874.737,1001.91 876.979,1001.19 879.222,1000.47 881.465,999.755 883.708,999.038 885.951,998.321 888.193,997.603 890.436,996.886 892.679,996.17 894.922,995.453 897.165,994.736 899.408,994.019 901.65,993.303 903.893,992.587 906.136,991.87 908.379,991.154 910.622,990.439 912.864,989.723 915.107,989.009 917.35,988.295 919.593,987.581 921.836,986.868 924.079,986.156 926.321,985.445 928.564,984.735 930.807,984.025 933.05,983.317 935.293,982.609 937.536,981.903 939.778,981.198 942.021,980.495 944.264,979.792 946.507,979.091 948.75,978.391 950.992,977.693 953.235,976.996 955.478,976.301 957.721,975.607 959.964,974.915 962.207,974.224 964.449,973.535 966.692,972.848 968.935,972.162 971.178,971.478 973.421,970.796 975.663,970.115 977.906,969.437 980.149,968.76 982.392,968.084 984.635,967.411 986.878,966.74 989.12,966.07 991.363,965.402 993.606,964.736 995.849,964.072 998.092,963.409 1000.33,962.748 1002.58,962.09 1004.82,961.433 1007.06,960.778 1009.31,960.124 1011.55,959.472 1013.79,958.823 1016.03,958.174 1018.28,957.528 1020.52,956.883 1022.76,956.24 1025.01,955.599 1027.25,954.959 1029.49,954.321 1031.73,953.684 1033.98,953.049 1036.22,952.415 1038.46,951.783 1040.71,951.153 1042.95,950.525 1045.19,949.898 1047.43,949.274 1049.68,948.652 1051.92,948.031 1054.16,947.413 1056.41,946.798 1058.65,946.184 1060.89,945.573 1063.13,944.964 1065.38,944.357 1067.62,943.753 1069.86,943.152 1072.1,942.553 1074.35,941.956 1076.59,941.362 1078.83,940.771 1081.08,940.182 1083.32,939.596 1085.56,939.013 1087.8,938.432 1090.05,937.854 1092.29,937.279 1094.53,936.707 1096.78,936.137 1099.02,935.57 1101.26,935.006 1103.5,934.445 1105.75,933.886 1107.99,933.331 1110.23,932.778 1112.48,932.228 1114.72,931.68 1116.96,931.136 1119.2,930.594 1121.45,930.055 1123.69,929.519 1125.93,928.985 1128.18,928.455 1130.42,927.927 1132.66,927.402 1134.9,926.879 1137.15,926.359 1139.39,925.842 1141.63,925.327 1143.88,924.815 1146.12,924.306 1148.36,923.799 1150.6,923.294 1152.85,922.792 1155.09,922.292 1157.33,921.795 1159.57,921.3 1161.82,920.807 1164.06,920.317 1166.3,919.829 1168.55,919.343 1170.79,918.858 1173.03,918.376 1175.27,917.897 1177.52,917.419 1179.76,916.945 1182,916.472 1184.25,916.002 1186.49,915.535 1188.73,915.07 1190.97,914.607 1193.22,914.147 1195.46,913.69 1197.7,913.236 1199.95,912.784 1202.19,912.334 1204.43,911.888 1206.67,911.444 1208.92,911.003 1211.16,910.564 1213.4,910.129 1215.65,909.696 1217.89,909.265 1220.13,908.838 1222.37,908.414 1224.62,907.992 1226.86,907.573 1229.1,907.157 1231.35,906.743 1233.59,906.333 1235.83,905.925 1238.07,905.52 1240.32,905.117 1242.56,904.718 1244.8,904.321 1247.04,903.927 1249.29,903.536 1251.53,903.148 1253.77,902.762 1256.02,902.379 1258.26,901.999 1260.5,901.621 1262.74,901.246 1264.99,900.873 1267.23,900.503 1269.47,900.136 1271.72,899.771 1273.96,899.409 1276.2,899.049 1278.44,898.692 1280.69,898.337 1282.93,897.985 1285.17,897.635 1287.42,897.287 1289.66,896.941 1291.9,896.598 1294.14,896.257 1296.39,895.918 1298.63,895.581 1300.87,895.246 1303.12,894.913 1305.36,894.582 1307.6,894.253 1309.84,893.926 1312.09,893.601 1314.33,893.277 1316.57,892.955 1318.82,892.635 1321.06,892.317 1323.3,892.001 1325.54,891.687 1327.79,891.375 1330.03,891.065 1332.27,890.758 1334.51,890.452 1336.76,890.149 1339,889.847 1341.24,889.548 1343.49,889.251 1345.73,888.956 1347.97,888.663 1350.21,888.373 1352.46,888.084 1354.7,887.798 1356.94,887.514 1359.19,887.232 1361.43,886.952 1363.67,886.674 1365.91,886.399 1368.16,886.125 1370.4,885.854 1372.64,885.585 1374.89,885.318 1377.13,885.053 1379.37,884.791 1381.61,884.53 1383.86,884.272 1386.1,884.015 1388.34,883.761 1390.59,883.509 1392.83,883.259 1395.07,883.011 1397.31,882.765 1399.56,882.521 1401.8,882.279 1404.04,882.039 1406.29,881.801 1408.53,881.565 1410.77,881.331 1413.01,881.099 1415.26,880.869 1417.5,880.64 1419.74,880.414 1421.98,880.189 1424.23,879.966 1426.47,879.745 1428.71,879.526 1430.96,879.308 1433.2,879.092 1435.44,878.878 1437.68,878.665 1439.93,878.454 1442.17,878.245 1444.41,878.037 1446.66,877.83 1448.9,877.625 1451.14,877.421 1453.38,877.219 1455.63,877.018 1457.87,876.819 1460.11,876.621 1462.36,876.424 1464.6,876.228 1466.84,876.033 1469.08,875.84 1471.33,875.647 1473.57,875.457 1475.81,875.267 1478.06,875.079 1480.3,874.892 1482.54,874.707 1484.78,874.523 1487.03,874.34 1489.27,874.159 1491.51,873.979 1493.76,873.801 1496,873.624 1498.24,873.448 1500.48,873.274 1502.73,873.101 1504.97,872.93 1507.21,872.76 1509.46,872.591 1511.7,872.424 1513.94,872.258 1516.18,872.094 1518.43,871.931 1520.67,871.769 1522.91,871.609 1525.15,871.45 1527.4,871.293 1529.64,871.137 1531.88,870.982 1534.13,870.829 1536.37,870.677 1538.61,870.527 1540.85,870.378 1543.1,870.23 1545.34,870.083 1547.58,869.938 1549.83,869.794 1552.07,869.652 1554.31,869.511 1556.55,869.371 1558.8,869.232 1561.04,869.095 1563.28,868.958 1565.53,868.824 1567.77,868.69 1570.01,868.557 1572.25,868.426 1574.5,868.296 1576.74,868.167 1578.98,868.039 1581.23,867.912 1583.47,867.787 1585.71,867.662 1587.95,867.539 1590.2,867.417 1592.44,867.296 1594.68,867.175 1596.93,867.056 1599.17,866.938 1601.41,866.821 1603.65,866.704 1605.9,866.589 1608.14,866.474 1610.38,866.361 1612.62,866.248 1614.87,866.136 1617.11,866.025 1619.35,865.914 1621.6,865.804 1623.84,865.696 1626.08,865.587 1628.32,865.48 1630.57,865.373 1632.81,865.267 1635.05,865.161 1637.3,865.056 1639.54,864.952 1641.78,864.848 1644.02,864.745 1646.27,864.643 1648.51,864.542 1650.75,864.442 1653,864.342 1655.24,864.243 1657.48,864.145 1659.72,864.048 1661.97,863.952 1664.21,863.856 1666.45,863.761 1668.7,863.667 1670.94,863.574 1673.18,863.481 1675.42,863.39 1677.67,863.299 1679.91,863.209 1682.15,863.119 1684.4,863.031 1686.64,862.943 1688.88,862.856 1691.12,862.77 1693.37,862.685 1695.61,862.601 1697.85,862.517 1700.09,862.434 1702.34,862.352 1704.58,862.271 1706.82,862.19 1709.07,862.11 1711.31,862.031 1713.55,861.953 1715.79,861.875 1718.04,861.799 1720.28,861.723 1722.52,861.647 1724.77,861.573 1727.01,861.499 1729.25,861.426 1731.49,861.354 1733.74,861.282 1735.98,861.211 1738.22,861.141 1740.47,861.071 1742.71,861.002 1744.95,860.934 1747.19,860.867 1749.44,860.8 1751.68,860.734 1753.92,860.668 1756.17,860.603 1758.41,860.539 1760.65,860.475 1762.89,860.412 1765.14,860.349 1767.38,860.287 1769.62,860.226 1771.87,860.165 1774.11,860.105 1776.35,860.045 1778.59,859.986 1780.84,859.927 1783.08,859.869 1785.32,859.811 1787.56,859.753 1789.81,859.696 1792.05,859.64 1794.29,859.584 1796.54,859.528 1798.78,859.473 1801.02,859.418 1803.26,859.363 1805.51,859.309 1807.75,859.255 1809.99,859.202 1812.24,859.148 1814.48,859.095 1816.72,859.042 1818.96,858.99 1821.21,858.938 1823.45,858.886 1825.69,858.834 1827.94,858.783 1830.18,858.732 1832.42,858.681 1834.66,858.631 1836.91,858.581 1839.15,858.532 1841.39,858.483 1843.64,858.434 1845.88,858.386 1848.12,858.338 1850.36,858.291 1852.61,858.244 1854.85,858.197 1857.09,858.151 1859.34,858.105 1861.58,858.06 1863.82,858.014 1866.06,857.97 1868.31,857.926 1870.55,857.882 1872.79,857.838 1875.03,857.795 1877.28,857.753 1879.52,857.711 1881.76,857.669 1884.01,857.628 1886.25,857.587 1888.49,857.546 1890.73,857.506 1892.98,857.467 1895.22,857.427 1897.46,857.389 1899.71,857.35 1901.95,857.312 1904.19,857.274 1906.43,857.237 1908.68,857.2 1910.92,857.164 1913.16,857.128 1915.41,857.092 1917.65,857.057 1919.89,857.022 1922.13,856.988 1924.38,856.954 1926.62,856.92 1928.86,856.887 1931.11,856.854 1933.35,856.821 1935.59,856.789 1937.83,856.757 1940.08,856.726 1942.32,856.695 1944.56,856.664 1946.81,856.633 1949.05,856.603 1951.29,856.573 1953.53,856.544 1955.78,856.515 1958.02,856.486 1960.26,856.457 1962.5,856.429 1964.75,856.401 1966.99,856.373 1969.23,856.346 1971.48,856.318 1973.72,856.291 1975.96,856.265 1978.2,856.238 1980.45,856.212 1982.69,856.186 1984.93,856.16 1987.18,856.134 1989.42,856.109 1991.66,856.084 1993.9,856.058 1996.15,856.034 1998.39,856.009 2000.63,855.984 2002.88,855.96 2005.12,855.935 2007.36,855.911 2009.6,855.887 2011.85,855.863 2014.09,855.839 2016.33,855.815 2018.58,855.791 2020.82,855.767 2023.06,855.743 2025.3,855.719 2027.55,855.695 2029.79,855.672 2032.03,855.648 2034.28,855.624 2036.52,855.601 2038.76,855.578 2041,855.554 2043.25,855.531 2045.49,855.508 2047.73,855.485 2049.97,855.463 2052.22,855.44 2054.46,855.418 2056.7,855.395 2058.95,855.373 2061.19,855.351 2063.43,855.33 2065.67,855.308 2067.92,855.287 2070.16,855.266 2072.4,855.245 2074.65,855.224 2076.89,855.203 2079.13,855.183 2081.37,855.163 2083.62,855.143 2085.86,855.123 2088.1,855.104 2090.35,855.084 2092.59,855.065 2094.83,855.046 2097.07,855.028 2099.32,855.009 2101.56,854.991 2103.8,854.973 2106.05,854.955 2108.29,854.938 2110.53,854.921 2112.77,854.904 2115.02,854.887 2117.26,854.87 2119.5,854.854 2121.75,854.838 2123.99,854.822 2126.23,854.807 2128.47,854.791 2130.72,854.776 2132.96,854.761 2135.2,854.747 2137.45,854.732 2139.69,854.718 2141.93,854.704 2144.17,854.69 2146.42,854.677 2148.66,854.663 2150.9,854.65 2153.14,854.637 2155.39,854.625 2157.63,854.612 2159.87,854.6 2162.12,854.588 2164.36,854.576 2166.6,854.564 2168.84,854.553 2171.09,854.541 2173.33,854.53 2175.57,854.519 2177.82,854.508 2180.06,854.497 2182.3,854.487 2184.54,854.476 2186.79,854.466 2189.03,854.455 2191.27,854.445 2193.52,854.435 2195.76,854.425 2198,854.416 2200.24,854.406 2202.49,854.396 2204.73,854.387 2206.97,854.377 2209.22,854.368 2211.46,854.359 2213.7,854.349 2215.94,854.34 2218.19,854.331 2220.43,854.321 2222.67,854.312 2224.92,854.303 2227.16,854.293 2229.4,854.284 2231.64,854.275 2233.89,854.265 2236.13,854.256 2238.37,854.246 2240.61,854.236 2242.86,854.226 2245.1,854.217 2247.34,854.206 2249.59,854.196 2251.83,854.186 2254.07,854.176 2256.31,854.165 2258.56,854.155 2260.8,854.145 2263.04,854.134 2265.29,854.124 2267.53,854.115 2269.77,854.105 2272.01,854.095 2274.26,854.086 2276.5,854.076 2278.74,854.067 2280.99,854.058 2283.23,854.048 2285.47,854.039 2287.71,854.03 2289.96,854.022 2292.2,854.013 2294.44,854.004 2296.69,853.996 2298.93,853.987 2301.17,853.979 2303.41,853.971 2305.66,853.963 2307.9,853.954 2310.14,853.946 2312.39,853.939 2314.63,853.931 2316.87,853.923 2319.11,853.915 2321.36,853.908 2323.6,853.9 2325.84,853.893 2328.08,853.885 2330.33,853.878 2332.57,853.871 2334.81,853.864 2337.06,853.857 2339.3,853.85 2341.54,853.843 2343.78,853.836 2346.03,853.829 2348.27,853.823 2350.51,853.816 2352.76,853.809 "/>
<polyline clip-path="url(#clip911)" style="stroke:#e26f46; stroke-linecap:round; stroke-linejoin:round; stroke-width:24; stroke-opacity:1; fill:none" points="112.177,1384.24 114.42,1359.35 116.663,1335.58 118.906,1312.9 121.148,1291.26 123.391,1270.63 125.634,1250.96 127.877,1232.24 130.12,1214.4 132.363,1197.43 134.605,1181.28 136.848,1165.92 139.091,1151.31 141.334,1137.43 143.577,1124.22 145.819,1111.68 148.062,1099.76 150.305,1088.43 152.548,1077.67 154.791,1067.44 157.034,1057.73 159.276,1048.5 161.519,1039.74 163.762,1031.41 166.005,1023.5 168.248,1015.98 170.491,1008.83 172.733,1002.05 174.976,995.593 177.219,989.459 179.462,983.628 181.705,978.084 183.947,972.812 186.19,967.799 188.433,963.03 190.676,958.493 192.919,954.175 195.162,950.066 197.404,946.153 199.647,942.426 201.89,938.877 204.133,935.494 206.376,932.271 208.619,929.199 210.861,926.27 213.104,923.476 215.347,920.811 217.59,918.267 219.833,915.838 222.075,913.518 224.318,911.301 226.561,909.181 228.804,907.153 231.047,905.212 233.29,903.354 235.532,901.575 237.775,899.871 240.018,898.238 242.261,896.671 244.504,895.168 246.746,893.725 248.989,892.339 251.232,891.006 253.475,889.724 255.718,888.489 257.961,887.3 260.203,886.153 262.446,885.046 264.689,883.977 266.932,882.944 269.175,881.946 271.418,880.98 273.66,880.045 275.903,879.139 278.146,878.261 280.389,877.409 282.632,876.581 284.874,875.776 287.117,874.993 289.36,874.23 291.603,873.486 293.846,872.76 296.089,872.05 298.331,871.356 300.574,870.677 302.817,870.011 305.06,869.359 307.303,868.719 309.545,868.09 311.788,867.473 314.031,866.866 316.274,866.269 318.517,865.681 320.76,865.102 323.002,864.53 325.245,863.966 327.488,863.408 329.731,862.856 331.974,862.311 334.217,861.77 336.459,861.234 338.702,860.701 340.945,860.173 343.188,859.648 345.431,859.126 347.673,858.607 349.916,858.09 352.159,857.576 354.402,857.063 356.645,856.553 358.888,856.044 361.13,855.537 363.373,855.031 365.616,854.526 367.859,854.021 370.102,853.517 372.344,853.014 374.587,852.511 376.83,852.007 379.073,851.503 381.316,850.999 383.559,850.494 385.801,849.989 388.044,849.482 390.287,848.974 392.53,848.465 394.773,847.954 397.016,847.441 399.258,846.927 401.501,846.411 403.744,845.893 405.987,845.374 408.23,844.852 410.472,844.329 412.715,843.803 414.958,843.276 417.201,842.746 419.444,842.213 421.687,841.679 423.929,841.142 426.172,840.602 428.415,840.061 430.658,839.516 432.901,838.969 435.143,838.419 437.386,837.866 439.629,837.31 441.872,836.751 444.115,836.19 446.358,835.625 448.6,835.057 450.843,834.485 453.086,833.911 455.329,833.333 457.572,832.751 459.815,832.166 462.057,831.577 464.3,830.985 466.543,830.39 468.786,829.791 471.029,829.188 473.271,828.582 475.514,827.972 477.757,827.359 480,826.742 482.243,826.121 484.486,825.496 486.728,824.868 488.971,824.236 491.214,823.6 493.457,822.961 495.7,822.317 497.942,821.67 500.185,821.019 502.428,820.364 504.671,819.705 506.914,819.042 509.157,818.375 511.399,817.704 513.642,817.028 515.885,816.349 518.128,815.666 520.371,814.979 522.614,814.287 524.856,813.591 527.099,812.891 529.342,812.187 531.585,811.478 533.828,810.765 536.07,810.048 538.313,809.326 540.556,808.6 542.799,807.87 545.042,807.135 547.285,806.396 549.527,805.653 551.77,804.905 554.013,804.153 556.256,803.397 558.499,802.636 560.741,801.87 562.984,801.1 565.227,800.326 567.47,799.547 569.713,798.763 571.956,797.975 574.198,797.183 576.441,796.386 578.684,795.584 580.927,794.777 583.17,793.966 585.413,793.151 587.655,792.331 589.898,791.506 592.141,790.676 594.384,789.842 596.627,789.003 598.869,788.159 601.112,787.311 603.355,786.458 605.598,785.6 607.841,784.738 610.084,783.87 612.326,782.999 614.569,782.122 616.812,781.241 619.055,780.354 621.298,779.464 623.54,778.568 625.783,777.668 628.026,776.763 630.269,775.853 632.512,774.938 634.755,774.019 636.997,773.095 639.24,772.167 641.483,771.233 643.726,770.295 645.969,769.353 648.212,768.406 650.454,767.455 652.697,766.499 654.94,765.539 657.183,764.575 659.426,763.606 661.668,762.632 663.911,761.653 666.154,760.67 668.397,759.682 670.64,758.69 672.883,757.692 675.125,756.69 677.368,755.683 679.611,754.671 681.854,753.654 684.097,752.632 686.339,751.606 688.582,750.574 690.825,749.538 693.068,748.496 695.311,747.45 697.554,746.398 699.796,745.342 702.039,744.28 704.282,743.214 706.525,742.143 708.768,741.067 711.011,739.986 713.253,738.9 715.496,737.809 717.739,736.713 719.982,735.613 722.225,734.508 724.467,733.398 726.71,732.283 728.953,731.163 731.196,730.039 733.439,728.911 735.682,727.777 737.924,726.64 740.167,725.497 742.41,724.351 744.653,723.199 746.896,722.044 749.138,720.884 751.381,719.72 753.624,718.552 755.867,717.38 758.11,716.204 760.353,715.024 762.595,713.841 764.838,712.653 767.081,711.462 769.324,710.267 771.567,709.068 773.81,707.867 776.052,706.661 778.295,705.453 780.538,704.241 782.781,703.026 785.024,701.808 787.266,700.586 789.509,699.36 791.752,698.131 793.995,696.899 796.238,695.663 798.481,694.423 800.723,693.179 802.966,691.932 805.209,690.682 807.452,689.427 809.695,688.169 811.938,686.908 814.18,685.643 816.423,684.374 818.666,683.102 820.909,681.826 823.152,680.547 825.394,679.264 827.637,677.978 829.88,676.688 832.123,675.395 834.366,674.099 836.609,672.799 838.851,671.496 841.094,670.19 843.337,668.88 845.58,667.568 847.823,666.252 850.065,664.933 852.308,663.612 854.551,662.287 856.794,660.96 859.037,659.63 861.28,658.298 863.522,656.962 865.765,655.625 868.008,654.285 870.251,652.942 872.494,651.598 874.737,650.251 876.979,648.902 879.222,647.552 881.465,646.199 883.708,644.845 885.951,643.489 888.193,642.132 890.436,640.773 892.679,639.413 894.922,638.052 897.165,636.69 899.408,635.327 901.65,633.963 903.893,632.599 906.136,631.235 908.379,629.869 910.622,628.503 912.864,627.137 915.107,625.769 917.35,624.401 919.593,623.032 921.836,621.662 924.079,620.291 926.321,618.919 928.564,617.547 930.807,616.173 933.05,614.799 935.293,613.424 937.536,612.047 939.778,610.67 942.021,609.292 944.264,607.913 946.507,606.534 948.75,605.153 950.992,603.772 953.235,602.39 955.478,601.007 957.721,599.623 959.964,598.239 962.207,596.854 964.449,595.469 966.692,594.083 968.935,592.697 971.178,591.311 973.421,589.924 975.663,588.537 977.906,587.15 980.149,585.762 982.392,584.375 984.635,582.988 986.878,581.602 989.12,580.215 991.363,578.829 993.606,577.444 995.849,576.059 998.092,574.675 1000.33,573.292 1002.58,571.91 1004.82,570.529 1007.06,569.15 1009.31,567.772 1011.55,566.395 1013.79,565.02 1016.03,563.647 1018.28,562.276 1020.52,560.908 1022.76,559.541 1025.01,558.178 1027.25,556.817 1029.49,555.458 1031.73,554.103 1033.98,552.751 1036.22,551.403 1038.46,550.057 1040.71,548.715 1042.95,547.375 1045.19,546.039 1047.43,544.704 1049.68,543.373 1051.92,542.044 1054.16,540.718 1056.41,539.394 1058.65,538.073 1060.89,536.754 1063.13,535.438 1065.38,534.124 1067.62,532.813 1069.86,531.504 1072.1,530.197 1074.35,528.892 1076.59,527.59 1078.83,526.291 1081.08,524.994 1083.32,523.699 1085.56,522.406 1087.8,521.116 1090.05,519.829 1092.29,518.543 1094.53,517.261 1096.78,515.981 1099.02,514.703 1101.26,513.428 1103.5,512.155 1105.75,510.886 1107.99,509.619 1110.23,508.354 1112.48,507.093 1114.72,505.835 1116.96,504.579 1119.2,503.326 1121.45,502.077 1123.69,500.831 1125.93,499.588 1128.18,498.348 1130.42,497.112 1132.66,495.88 1134.9,494.651 1137.15,493.426 1139.39,492.204 1141.63,490.987 1143.88,489.774 1146.12,488.565 1148.36,487.36 1150.6,486.16 1152.85,484.964 1155.09,483.773 1157.33,482.587 1159.57,481.405 1161.82,480.229 1164.06,479.058 1166.3,477.893 1168.55,476.733 1170.79,475.579 1173.03,474.43 1175.27,473.287 1177.52,472.149 1179.76,471.016 1182,469.888 1184.25,468.766 1186.49,467.647 1188.73,466.534 1190.97,465.425 1193.22,464.321 1195.46,463.222 1197.7,462.127 1199.95,461.036 1202.19,459.95 1204.43,458.868 1206.67,457.791 1208.92,456.718 1211.16,455.649 1213.4,454.584 1215.65,453.524 1217.89,452.467 1220.13,451.415 1222.37,450.367 1224.62,449.322 1226.86,448.282 1229.1,447.246 1231.35,446.214 1233.59,445.186 1235.83,444.162 1238.07,443.142 1240.32,442.126 1242.56,441.115 1244.8,440.107 1247.04,439.103 1249.29,438.104 1251.53,437.108 1253.77,436.117 1256.02,435.13 1258.26,434.147 1260.5,433.169 1262.74,432.195 1264.99,431.225 1267.23,430.259 1269.47,429.298 1271.72,428.342 1273.96,427.39 1276.2,426.442 1278.44,425.5 1280.69,424.562 1282.93,423.629 1285.17,422.701 1287.42,421.778 1289.66,420.86 1291.9,419.947 1294.14,419.039 1296.39,418.137 1298.63,417.24 1300.87,416.349 1303.12,415.464 1305.36,414.584 1307.6,413.71 1309.84,412.842 1312.09,411.98 1314.33,411.124 1316.57,410.275 1318.82,409.431 1321.06,408.593 1323.3,407.76 1325.54,406.932 1327.79,406.11 1330.03,405.292 1332.27,404.48 1334.51,403.672 1336.76,402.869 1339,402.071 1341.24,401.278 1343.49,400.489 1345.73,399.705 1347.97,398.926 1350.21,398.151 1352.46,397.38 1354.7,396.614 1356.94,395.852 1359.19,395.094 1361.43,394.341 1363.67,393.591 1365.91,392.846 1368.16,392.105 1370.4,391.368 1372.64,390.635 1374.89,389.906 1377.13,389.181 1379.37,388.46 1381.61,387.743 1383.86,387.03 1386.1,386.321 1388.34,385.615 1390.59,384.914 1392.83,384.216 1395.07,383.523 1397.31,382.833 1399.56,382.147 1401.8,381.464 1404.04,380.786 1406.29,380.112 1408.53,379.441 1410.77,378.775 1413.01,378.112 1415.26,377.453 1417.5,376.798 1419.74,376.147 1421.98,375.5 1424.23,374.857 1426.47,374.219 1428.71,373.584 1430.96,372.953 1433.2,372.327 1435.44,371.704 1437.68,371.086 1439.93,370.473 1442.17,369.863 1444.41,369.258 1446.66,368.657 1448.9,368.061 1451.14,367.47 1453.38,366.883 1455.63,366.3 1457.87,365.723 1460.11,365.15 1462.36,364.582 1464.6,364.019 1466.84,363.461 1469.08,362.908 1471.33,362.359 1473.57,361.815 1475.81,361.275 1478.06,360.739 1480.3,360.208 1482.54,359.68 1484.78,359.156 1487.03,358.636 1489.27,358.12 1491.51,357.608 1493.76,357.1 1496,356.595 1498.24,356.093 1500.48,355.596 1502.73,355.101 1504.97,354.61 1507.21,354.123 1509.46,353.639 1511.7,353.158 1513.94,352.68 1516.18,352.206 1518.43,351.735 1520.67,351.267 1522.91,350.802 1525.15,350.34 1527.4,349.881 1529.64,349.425 1531.88,348.972 1534.13,348.522 1536.37,348.075 1538.61,347.631 1540.85,347.189 1543.1,346.751 1545.34,346.315 1547.58,345.882 1549.83,345.452 1552.07,345.025 1554.31,344.6 1556.55,344.178 1558.8,343.759 1561.04,343.343 1563.28,342.93 1565.53,342.519 1567.77,342.111 1570.01,341.705 1572.25,341.302 1574.5,340.903 1576.74,340.505 1578.98,340.111 1581.23,339.719 1583.47,339.33 1585.71,338.944 1587.95,338.56 1590.2,338.18 1592.44,337.802 1594.68,337.427 1596.93,337.054 1599.17,336.685 1601.41,336.319 1603.65,335.955 1605.9,335.595 1608.14,335.237 1610.38,334.882 1612.62,334.531 1614.87,334.182 1617.11,333.837 1619.35,333.494 1621.6,333.155 1623.84,332.819 1626.08,332.487 1628.32,332.157 1630.57,331.831 1632.81,331.509 1635.05,331.189 1637.3,330.873 1639.54,330.56 1641.78,330.25 1644.02,329.942 1646.27,329.637 1648.51,329.334 1650.75,329.035 1653,328.737 1655.24,328.442 1657.48,328.15 1659.72,327.86 1661.97,327.572 1664.21,327.287 1666.45,327.004 1668.7,326.723 1670.94,326.445 1673.18,326.168 1675.42,325.894 1677.67,325.622 1679.91,325.352 1682.15,325.084 1684.4,324.818 1686.64,324.554 1688.88,324.291 1691.12,324.031 1693.37,323.773 1695.61,323.516 1697.85,323.261 1700.09,323.009 1702.34,322.757 1704.58,322.508 1706.82,322.26 1709.07,322.014 1711.31,321.77 1713.55,321.528 1715.79,321.287 1718.04,321.048 1720.28,320.81 1722.52,320.574 1724.77,320.34 1727.01,320.107 1729.25,319.876 1731.49,319.647 1733.74,319.419 1735.98,319.192 1738.22,318.967 1740.47,318.744 1742.71,318.522 1744.95,318.302 1747.19,318.083 1749.44,317.866 1751.68,317.651 1753.92,317.437 1756.17,317.224 1758.41,317.014 1760.65,316.804 1762.89,316.597 1765.14,316.39 1767.38,316.186 1769.62,315.983 1771.87,315.781 1774.11,315.582 1776.35,315.384 1778.59,315.187 1780.84,314.992 1783.08,314.799 1785.32,314.608 1787.56,314.418 1789.81,314.23 1792.05,314.043 1794.29,313.859 1796.54,313.676 1798.78,313.495 1801.02,313.316 1803.26,313.139 1805.51,312.963 1807.75,312.79 1809.99,312.618 1812.24,312.449 1814.48,312.281 1816.72,312.116 1818.96,311.952 1821.21,311.791 1823.45,311.631 1825.69,311.473 1827.94,311.316 1830.18,311.161 1832.42,311.008 1834.66,310.856 1836.91,310.705 1839.15,310.556 1841.39,310.408 1843.64,310.262 1845.88,310.117 1848.12,309.973 1850.36,309.831 1852.61,309.69 1854.85,309.549 1857.09,309.411 1859.34,309.273 1861.58,309.136 1863.82,309.001 1866.06,308.866 1868.31,308.733 1870.55,308.601 1872.79,308.469 1875.03,308.339 1877.28,308.21 1879.52,308.081 1881.76,307.954 1884.01,307.827 1886.25,307.702 1888.49,307.577 1890.73,307.453 1892.98,307.33 1895.22,307.208 1897.46,307.086 1899.71,306.966 1901.95,306.846 1904.19,306.727 1906.43,306.608 1908.68,306.491 1910.92,306.374 1913.16,306.258 1915.41,306.143 1917.65,306.028 1919.89,305.914 1922.13,305.801 1924.38,305.689 1926.62,305.577 1928.86,305.466 1931.11,305.356 1933.35,305.246 1935.59,305.137 1937.83,305.029 1940.08,304.921 1942.32,304.815 1944.56,304.708 1946.81,304.603 1949.05,304.498 1951.29,304.394 1953.53,304.291 1955.78,304.188 1958.02,304.086 1960.26,303.985 1962.5,303.885 1964.75,303.785 1966.99,303.686 1969.23,303.588 1971.48,303.491 1973.72,303.394 1975.96,303.299 1978.2,303.204 1980.45,303.11 1982.69,303.016 1984.93,302.924 1987.18,302.832 1989.42,302.742 1991.66,302.652 1993.9,302.563 1996.15,302.476 1998.39,302.389 2000.63,302.303 2002.88,302.218 2005.12,302.134 2007.36,302.051 2009.6,301.97 2011.85,301.889 2014.09,301.81 2016.33,301.731 2018.58,301.654 2020.82,301.578 2023.06,301.504 2025.3,301.43 2027.55,301.358 2029.79,301.287 2032.03,301.217 2034.28,301.148 2036.52,301.079 2038.76,301.012 2041,300.945 2043.25,300.88 2045.49,300.815 2047.73,300.751 2049.97,300.688 2052.22,300.625 2054.46,300.563 2056.7,300.502 2058.95,300.441 2061.19,300.381 2063.43,300.322 2065.67,300.263 2067.92,300.204 2070.16,300.146 2072.4,300.089 2074.65,300.032 2076.89,299.975 2079.13,299.919 2081.37,299.863 2083.62,299.808 2085.86,299.753 2088.1,299.698 2090.35,299.644 2092.59,299.59 2094.83,299.536 2097.07,299.482 2099.32,299.429 2101.56,299.376 2103.8,299.323 2106.05,299.271 2108.29,299.218 2110.53,299.166 2112.77,299.114 2115.02,299.062 2117.26,299.011 2119.5,298.959 2121.75,298.908 2123.99,298.857 2126.23,298.805 2128.47,298.755 2130.72,298.704 2132.96,298.653 2135.2,298.603 2137.45,298.552 2139.69,298.502 2141.93,298.452 2144.17,298.402 2146.42,298.352 2148.66,298.302 2150.9,298.252 2153.14,298.203 2155.39,298.154 2157.63,298.104 2159.87,298.055 2162.12,298.007 2164.36,297.958 2166.6,297.909 2168.84,297.861 2171.09,297.813 2173.33,297.765 2175.57,297.717 2177.82,297.67 2180.06,297.622 2182.3,297.575 2184.54,297.529 2186.79,297.482 2189.03,297.436 2191.27,297.39 2193.52,297.345 2195.76,297.299 2198,297.255 2200.24,297.21 2202.49,297.166 2204.73,297.123 2206.97,297.079 2209.22,297.037 2211.46,296.995 2213.7,296.953 2215.94,296.912 2218.19,296.871 2220.43,296.831 2222.67,296.792 2224.92,296.753 2227.16,296.715 2229.4,296.678 2231.64,296.641 2233.89,296.606 2236.13,296.571 2238.37,296.536 2240.61,296.503 2242.86,296.471 2245.1,296.439 2247.34,296.409 2249.59,296.379 2251.83,296.351 2254.07,296.323 2256.31,296.296 2258.56,296.27 2260.8,296.243 2263.04,296.216 2265.29,296.19 2267.53,296.164 2269.77,296.138 2272.01,296.112 2274.26,296.086 2276.5,296.06 2278.74,296.035 2280.99,296.01 2283.23,295.985 2285.47,295.96 2287.71,295.935 2289.96,295.91 2292.2,295.886 2294.44,295.861 2296.69,295.837 2298.93,295.813 2301.17,295.789 2303.41,295.765 2305.66,295.741 2307.9,295.718 2310.14,295.695 2312.39,295.671 2314.63,295.648 2316.87,295.626 2319.11,295.603 2321.36,295.58 2323.6,295.558 2325.84,295.536 2328.08,295.514 2330.33,295.492 2332.57,295.47 2334.81,295.449 2337.06,295.427 2339.3,295.406 2341.54,295.385 2343.78,295.364 2346.03,295.343 2348.27,295.323 2350.51,295.302 2352.76,295.282 "/>
<circle clip-path="url(#clip911)" cx="112.177" cy="812.569" r="21.6" fill="#009af9" fill-rule="evenodd" fill-opacity="0.7" stroke="#000000" stroke-opacity="0.7" stroke-width="3.2"/>
<circle clip-path="url(#clip911)" cx="230.102" cy="1144.19" r="21.6" fill="#009af9" fill-rule="evenodd" fill-opacity="0.7" stroke="#000000" stroke-opacity="0.7" stroke-width="3.2"/>
<circle clip-path="url(#clip911)" cx="348.028" cy="1134.07" r="21.6" fill="#009af9" fill-rule="evenodd" fill-opacity="0.7" stroke="#000000" stroke-opacity="0.7" stroke-width="3.2"/>
<circle clip-path="url(#clip911)" cx="465.953" cy="1127.97" r="21.6" fill="#009af9" fill-rule="evenodd" fill-opacity="0.7" stroke="#000000" stroke-opacity="0.7" stroke-width="3.2"/>
<circle clip-path="url(#clip911)" cx="583.878" cy="1123.5" r="21.6" fill="#009af9" fill-rule="evenodd" fill-opacity="0.7" stroke="#000000" stroke-opacity="0.7" stroke-width="3.2"/>
<circle clip-path="url(#clip911)" cx="701.803" cy="1024.01" r="21.6" fill="#009af9" fill-rule="evenodd" fill-opacity="0.7" stroke="#000000" stroke-opacity="0.7" stroke-width="3.2"/>
<circle clip-path="url(#clip911)" cx="819.728" cy="985.294" r="21.6" fill="#009af9" fill-rule="evenodd" fill-opacity="0.7" stroke="#000000" stroke-opacity="0.7" stroke-width="3.2"/>
<circle clip-path="url(#clip911)" cx="937.654" cy="952.582" r="21.6" fill="#009af9" fill-rule="evenodd" fill-opacity="0.7" stroke="#000000" stroke-opacity="0.7" stroke-width="3.2"/>
<circle clip-path="url(#clip911)" cx="1055.58" cy="955.667" r="21.6" fill="#009af9" fill-rule="evenodd" fill-opacity="0.7" stroke="#000000" stroke-opacity="0.7" stroke-width="3.2"/>
<circle clip-path="url(#clip911)" cx="1173.5" cy="952.887" r="21.6" fill="#009af9" fill-rule="evenodd" fill-opacity="0.7" stroke="#000000" stroke-opacity="0.7" stroke-width="3.2"/>
<circle clip-path="url(#clip911)" cx="1291.43" cy="938.318" r="21.6" fill="#009af9" fill-rule="evenodd" fill-opacity="0.7" stroke="#000000" stroke-opacity="0.7" stroke-width="3.2"/>
<circle clip-path="url(#clip911)" cx="1409.35" cy="872.746" r="21.6" fill="#009af9" fill-rule="evenodd" fill-opacity="0.7" stroke="#000000" stroke-opacity="0.7" stroke-width="3.2"/>
<circle clip-path="url(#clip911)" cx="1527.28" cy="766.368" r="21.6" fill="#009af9" fill-rule="evenodd" fill-opacity="0.7" stroke="#000000" stroke-opacity="0.7" stroke-width="3.2"/>
<circle clip-path="url(#clip911)" cx="1645.2" cy="945.111" r="21.6" fill="#009af9" fill-rule="evenodd" fill-opacity="0.7" stroke="#000000" stroke-opacity="0.7" stroke-width="3.2"/>
<circle clip-path="url(#clip911)" cx="1763.13" cy="898.165" r="21.6" fill="#009af9" fill-rule="evenodd" fill-opacity="0.7" stroke="#000000" stroke-opacity="0.7" stroke-width="3.2"/>
<circle clip-path="url(#clip911)" cx="1881.06" cy="862.359" r="21.6" fill="#009af9" fill-rule="evenodd" fill-opacity="0.7" stroke="#000000" stroke-opacity="0.7" stroke-width="3.2"/>
<circle clip-path="url(#clip911)" cx="1998.98" cy="890.566" r="21.6" fill="#009af9" fill-rule="evenodd" fill-opacity="0.7" stroke="#000000" stroke-opacity="0.7" stroke-width="3.2"/>
<circle clip-path="url(#clip911)" cx="2116.91" cy="904.631" r="21.6" fill="#009af9" fill-rule="evenodd" fill-opacity="0.7" stroke="#000000" stroke-opacity="0.7" stroke-width="3.2"/>
<circle clip-path="url(#clip911)" cx="2234.83" cy="844.69" r="21.6" fill="#009af9" fill-rule="evenodd" fill-opacity="0.7" stroke="#000000" stroke-opacity="0.7" stroke-width="3.2"/>
<circle clip-path="url(#clip911)" cx="2352.76" cy="785.091" r="21.6" fill="#009af9" fill-rule="evenodd" fill-opacity="0.7" stroke="#000000" stroke-opacity="0.7" stroke-width="3.2"/>
<circle clip-path="url(#clip911)" cx="112.177" cy="1382.42" r="21.6" fill="#e26f46" fill-rule="evenodd" fill-opacity="0.7" stroke="#000000" stroke-opacity="0.7" stroke-width="3.2"/>
<circle clip-path="url(#clip911)" cx="230.102" cy="813.82" r="21.6" fill="#e26f46" fill-rule="evenodd" fill-opacity="0.7" stroke="#000000" stroke-opacity="0.7" stroke-width="3.2"/>
<circle clip-path="url(#clip911)" cx="348.028" cy="899.379" r="21.6" fill="#e26f46" fill-rule="evenodd" fill-opacity="0.7" stroke="#000000" stroke-opacity="0.7" stroke-width="3.2"/>
<circle clip-path="url(#clip911)" cx="465.953" cy="884.779" r="21.6" fill="#e26f46" fill-rule="evenodd" fill-opacity="0.7" stroke="#000000" stroke-opacity="0.7" stroke-width="3.2"/>
<circle clip-path="url(#clip911)" cx="583.878" cy="776.51" r="21.6" fill="#e26f46" fill-rule="evenodd" fill-opacity="0.7" stroke="#000000" stroke-opacity="0.7" stroke-width="3.2"/>
<circle clip-path="url(#clip911)" cx="701.803" cy="710.791" r="21.6" fill="#e26f46" fill-rule="evenodd" fill-opacity="0.7" stroke="#000000" stroke-opacity="0.7" stroke-width="3.2"/>
<circle clip-path="url(#clip911)" cx="819.728" cy="709.173" r="21.6" fill="#e26f46" fill-rule="evenodd" fill-opacity="0.7" stroke="#000000" stroke-opacity="0.7" stroke-width="3.2"/>
<circle clip-path="url(#clip911)" cx="937.654" cy="706.036" r="21.6" fill="#e26f46" fill-rule="evenodd" fill-opacity="0.7" stroke="#000000" stroke-opacity="0.7" stroke-width="3.2"/>
<circle clip-path="url(#clip911)" cx="1055.58" cy="702.126" r="21.6" fill="#e26f46" fill-rule="evenodd" fill-opacity="0.7" stroke="#000000" stroke-opacity="0.7" stroke-width="3.2"/>
<circle clip-path="url(#clip911)" cx="1173.5" cy="306.559" r="21.6" fill="#e26f46" fill-rule="evenodd" fill-opacity="0.7" stroke="#000000" stroke-opacity="0.7" stroke-width="3.2"/>
<circle clip-path="url(#clip911)" cx="1291.43" cy="564.246" r="21.6" fill="#e26f46" fill-rule="evenodd" fill-opacity="0.7" stroke="#000000" stroke-opacity="0.7" stroke-width="3.2"/>
<circle clip-path="url(#clip911)" cx="1409.35" cy="461.243" r="21.6" fill="#e26f46" fill-rule="evenodd" fill-opacity="0.7" stroke="#000000" stroke-opacity="0.7" stroke-width="3.2"/>
<circle clip-path="url(#clip911)" cx="1527.28" cy="322.083" r="21.6" fill="#e26f46" fill-rule="evenodd" fill-opacity="0.7" stroke="#000000" stroke-opacity="0.7" stroke-width="3.2"/>
<circle clip-path="url(#clip911)" cx="1645.2" cy="229.051" r="21.6" fill="#e26f46" fill-rule="evenodd" fill-opacity="0.7" stroke="#000000" stroke-opacity="0.7" stroke-width="3.2"/>
<circle clip-path="url(#clip911)" cx="1763.13" cy="180.291" r="21.6" fill="#e26f46" fill-rule="evenodd" fill-opacity="0.7" stroke="#000000" stroke-opacity="0.7" stroke-width="3.2"/>
<circle clip-path="url(#clip911)" cx="1881.06" cy="492.286" r="21.6" fill="#e26f46" fill-rule="evenodd" fill-opacity="0.7" stroke="#000000" stroke-opacity="0.7" stroke-width="3.2"/>
<circle clip-path="url(#clip911)" cx="1998.98" cy="138.741" r="21.6" fill="#e26f46" fill-rule="evenodd" fill-opacity="0.7" stroke="#000000" stroke-opacity="0.7" stroke-width="3.2"/>
<circle clip-path="url(#clip911)" cx="2116.91" cy="86.1857" r="21.6" fill="#e26f46" fill-rule="evenodd" fill-opacity="0.7" stroke="#000000" stroke-opacity="0.7" stroke-width="3.2"/>
<circle clip-path="url(#clip911)" cx="2234.83" cy="371.236" r="21.6" fill="#e26f46" fill-rule="evenodd" fill-opacity="0.7" stroke="#000000" stroke-opacity="0.7" stroke-width="3.2"/>
<circle clip-path="url(#clip911)" cx="2352.76" cy="362.261" r="21.6" fill="#e26f46" fill-rule="evenodd" fill-opacity="0.7" stroke="#000000" stroke-opacity="0.7" stroke-width="3.2"/>
<path clip-path="url(#clip910)" d="M186.863 352.309 L596.753 352.309 L596.753 93.1086 L186.863 93.1086  Z" fill="#ffffff" fill-rule="evenodd" fill-opacity="1"/>
<polyline clip-path="url(#clip910)" style="stroke:#000000; stroke-linecap:round; stroke-linejoin:round; stroke-width:4; stroke-opacity:1; fill:none" points="186.863,352.309 596.753,352.309 596.753,93.1086 186.863,93.1086 186.863,352.309 "/>
<polyline clip-path="url(#clip910)" style="stroke:#009af9; stroke-linecap:round; stroke-linejoin:round; stroke-width:20; stroke-opacity:1; fill:none" points="211.758,144.949 361.13,144.949 "/>
<path clip-path="url(#clip910)" d="M387.6 127.669 L392.623 127.669 L401.211 140.516 L409.845 127.669 L414.868 127.669 L403.757 144.266 L415.609 162.229 L410.586 162.229 L400.864 147.53 L391.072 162.229 L386.026 162.229 L398.364 143.78 L387.6 127.669 Z" fill="#000000" fill-rule="nonzero" fill-opacity="1" /><polyline clip-path="url(#clip910)" style="stroke:#e26f46; stroke-linecap:round; stroke-linejoin:round; stroke-width:20; stroke-opacity:1; fill:none" points="211.758,196.789 361.13,196.789 "/>
<path clip-path="url(#clip910)" d="M386.026 179.509 L391.049 179.509 L400.632 193.722 L410.146 179.509 L415.169 179.509 L402.947 197.61 L402.947 214.069 L398.248 214.069 L398.248 197.61 L386.026 179.509 Z" fill="#000000" fill-rule="nonzero" fill-opacity="1" /><circle clip-path="url(#clip910)" cx="286.444" cy="248.629" r="21.2677" fill="#009af9" fill-rule="evenodd" fill-opacity="0.7" stroke="#000000" stroke-opacity="0.7" stroke-width="3.15077"/>
<path clip-path="url(#clip910)" d="M387.6 231.349 L392.623 231.349 L401.211 244.196 L409.845 231.349 L414.868 231.349 L403.757 247.946 L415.609 265.909 L410.586 265.909 L400.864 251.21 L391.072 265.909 L386.026 265.909 L398.364 247.46 L387.6 231.349 Z" fill="#000000" fill-rule="nonzero" fill-opacity="1" /><path clip-path="url(#clip910)" d="M446.859 229.937 Q443.757 235.261 442.252 240.469 Q440.748 245.677 440.748 251.024 Q440.748 256.372 442.252 261.626 Q443.78 266.858 446.859 272.159 L443.155 272.159 Q439.683 266.719 437.947 261.464 Q436.234 256.21 436.234 251.024 Q436.234 245.862 437.947 240.631 Q439.66 235.4 443.155 229.937 L446.859 229.937 Z" fill="#000000" fill-rule="nonzero" fill-opacity="1" /><path clip-path="url(#clip910)" d="M472.183 243.918 L472.183 229.89 L476.442 229.89 L476.442 265.909 L472.183 265.909 L472.183 262.02 Q470.84 264.335 468.78 265.469 Q466.743 266.58 463.872 266.58 Q459.173 266.58 456.21 262.83 Q453.271 259.08 453.271 252.969 Q453.271 246.858 456.21 243.108 Q459.173 239.358 463.872 239.358 Q466.743 239.358 468.78 240.492 Q470.84 241.603 472.183 243.918 M457.669 252.969 Q457.669 257.668 459.59 260.353 Q461.535 263.015 464.914 263.015 Q468.294 263.015 470.238 260.353 Q472.183 257.668 472.183 252.969 Q472.183 248.27 470.238 245.608 Q468.294 242.923 464.914 242.923 Q461.535 242.923 459.59 245.608 Q457.669 248.27 457.669 252.969 Z" fill="#000000" fill-rule="nonzero" fill-opacity="1" /><path clip-path="url(#clip910)" d="M496.997 252.876 Q491.835 252.876 489.845 254.057 Q487.854 255.237 487.854 258.085 Q487.854 260.353 489.335 261.696 Q490.84 263.015 493.409 263.015 Q496.951 263.015 499.081 260.515 Q501.233 257.992 501.233 253.825 L501.233 252.876 L496.997 252.876 M505.493 251.117 L505.493 265.909 L501.233 265.909 L501.233 261.973 Q499.775 264.335 497.599 265.469 Q495.423 266.58 492.275 266.58 Q488.294 266.58 485.933 264.358 Q483.595 262.112 483.595 258.362 Q483.595 253.987 486.511 251.765 Q489.451 249.543 495.261 249.543 L501.233 249.543 L501.233 249.126 Q501.233 246.187 499.289 244.589 Q497.368 242.969 493.872 242.969 Q491.65 242.969 489.544 243.501 Q487.437 244.034 485.493 245.099 L485.493 241.163 Q487.831 240.261 490.03 239.821 Q492.229 239.358 494.312 239.358 Q499.937 239.358 502.715 242.274 Q505.493 245.191 505.493 251.117 Z" fill="#000000" fill-rule="nonzero" fill-opacity="1" /><path clip-path="url(#clip910)" d="M518.479 232.622 L518.479 239.983 L527.252 239.983 L527.252 243.293 L518.479 243.293 L518.479 257.367 Q518.479 260.538 519.335 261.441 Q520.215 262.344 522.877 262.344 L527.252 262.344 L527.252 265.909 L522.877 265.909 Q517.946 265.909 516.071 264.08 Q514.196 262.228 514.196 257.367 L514.196 243.293 L511.071 243.293 L511.071 239.983 L514.196 239.983 L514.196 232.622 L518.479 232.622 Z" fill="#000000" fill-rule="nonzero" fill-opacity="1" /><path clip-path="url(#clip910)" d="M544.636 252.876 Q539.474 252.876 537.483 254.057 Q535.492 255.237 535.492 258.085 Q535.492 260.353 536.974 261.696 Q538.479 263.015 541.048 263.015 Q544.59 263.015 546.719 260.515 Q548.872 257.992 548.872 253.825 L548.872 252.876 L544.636 252.876 M553.131 251.117 L553.131 265.909 L548.872 265.909 L548.872 261.973 Q547.414 264.335 545.238 265.469 Q543.062 266.58 539.914 266.58 Q535.932 266.58 533.571 264.358 Q531.233 262.112 531.233 258.362 Q531.233 253.987 534.15 251.765 Q537.09 249.543 542.9 249.543 L548.872 249.543 L548.872 249.126 Q548.872 246.187 546.928 244.589 Q545.006 242.969 541.511 242.969 Q539.289 242.969 537.182 243.501 Q535.076 244.034 533.131 245.099 L533.131 241.163 Q535.469 240.261 537.668 239.821 Q539.867 239.358 541.951 239.358 Q547.576 239.358 550.354 242.274 Q553.131 245.191 553.131 251.117 Z" fill="#000000" fill-rule="nonzero" fill-opacity="1" /><path clip-path="url(#clip910)" d="M561.233 229.937 L564.937 229.937 Q568.409 235.4 570.122 240.631 Q571.858 245.862 571.858 251.024 Q571.858 256.21 570.122 261.464 Q568.409 266.719 564.937 272.159 L561.233 272.159 Q564.312 266.858 565.816 261.626 Q567.344 256.372 567.344 251.024 Q567.344 245.677 565.816 240.469 Q564.312 235.261 561.233 229.937 Z" fill="#000000" fill-rule="nonzero" fill-opacity="1" /><circle clip-path="url(#clip910)" cx="286.444" cy="300.469" r="21.2677" fill="#e26f46" fill-rule="evenodd" fill-opacity="0.7" stroke="#000000" stroke-opacity="0.7" stroke-width="3.15077"/>
<path clip-path="url(#clip910)" d="M386.026 283.189 L391.049 283.189 L400.632 297.402 L410.146 283.189 L415.169 283.189 L402.947 301.29 L402.947 317.749 L398.248 317.749 L398.248 301.29 L386.026 283.189 Z" fill="#000000" fill-rule="nonzero" fill-opacity="1" /><path clip-path="url(#clip910)" d="M444.845 281.777 Q441.743 287.101 440.238 292.309 Q438.734 297.517 438.734 302.864 Q438.734 308.212 440.238 313.466 Q441.766 318.698 444.845 323.999 L441.141 323.999 Q437.669 318.559 435.933 313.304 Q434.22 308.05 434.22 302.864 Q434.22 297.702 435.933 292.471 Q437.646 287.24 441.141 281.777 L444.845 281.777 Z" fill="#000000" fill-rule="nonzero" fill-opacity="1" /><path clip-path="url(#clip910)" d="M470.169 295.758 L470.169 281.73 L474.428 281.73 L474.428 317.749 L470.169 317.749 L470.169 313.86 Q468.826 316.175 466.766 317.309 Q464.729 318.42 461.859 318.42 Q457.16 318.42 454.197 314.67 Q451.257 310.92 451.257 304.809 Q451.257 298.698 454.197 294.948 Q457.16 291.198 461.859 291.198 Q464.729 291.198 466.766 292.332 Q468.826 293.443 470.169 295.758 M455.655 304.809 Q455.655 309.508 457.576 312.193 Q459.521 314.855 462.9 314.855 Q466.28 314.855 468.224 312.193 Q470.169 309.508 470.169 304.809 Q470.169 300.11 468.224 297.448 Q466.28 294.763 462.9 294.763 Q459.521 294.763 457.576 297.448 Q455.655 300.11 455.655 304.809 Z" fill="#000000" fill-rule="nonzero" fill-opacity="1" /><path clip-path="url(#clip910)" d="M494.983 304.716 Q489.821 304.716 487.831 305.897 Q485.84 307.077 485.84 309.925 Q485.84 312.193 487.321 313.536 Q488.826 314.855 491.395 314.855 Q494.937 314.855 497.067 312.355 Q499.22 309.832 499.22 305.665 L499.22 304.716 L494.983 304.716 M503.479 302.957 L503.479 317.749 L499.22 317.749 L499.22 313.813 Q497.761 316.175 495.585 317.309 Q493.409 318.42 490.261 318.42 Q486.28 318.42 483.919 316.198 Q481.581 313.952 481.581 310.202 Q481.581 305.827 484.497 303.605 Q487.437 301.383 493.247 301.383 L499.22 301.383 L499.22 300.966 Q499.22 298.027 497.275 296.429 Q495.354 294.809 491.858 294.809 Q489.636 294.809 487.53 295.341 Q485.423 295.874 483.479 296.939 L483.479 293.003 Q485.817 292.101 488.016 291.661 Q490.215 291.198 492.298 291.198 Q497.923 291.198 500.701 294.114 Q503.479 297.031 503.479 302.957 Z" fill="#000000" fill-rule="nonzero" fill-opacity="1" /><path clip-path="url(#clip910)" d="M516.465 284.462 L516.465 291.823 L525.238 291.823 L525.238 295.133 L516.465 295.133 L516.465 309.207 Q516.465 312.378 517.321 313.281 Q518.201 314.184 520.863 314.184 L525.238 314.184 L525.238 317.749 L520.863 317.749 Q515.932 317.749 514.057 315.92 Q512.182 314.068 512.182 309.207 L512.182 295.133 L509.057 295.133 L509.057 291.823 L512.182 291.823 L512.182 284.462 L516.465 284.462 Z" fill="#000000" fill-rule="nonzero" fill-opacity="1" /><path clip-path="url(#clip910)" d="M542.622 304.716 Q537.46 304.716 535.469 305.897 Q533.479 307.077 533.479 309.925 Q533.479 312.193 534.96 313.536 Q536.465 314.855 539.034 314.855 Q542.576 314.855 544.705 312.355 Q546.858 309.832 546.858 305.665 L546.858 304.716 L542.622 304.716 M551.117 302.957 L551.117 317.749 L546.858 317.749 L546.858 313.813 Q545.4 316.175 543.224 317.309 Q541.048 318.42 537.9 318.42 Q533.918 318.42 531.557 316.198 Q529.219 313.952 529.219 310.202 Q529.219 305.827 532.136 303.605 Q535.076 301.383 540.886 301.383 L546.858 301.383 L546.858 300.966 Q546.858 298.027 544.914 296.429 Q542.992 294.809 539.497 294.809 Q537.275 294.809 535.168 295.341 Q533.062 295.874 531.118 296.939 L531.118 293.003 Q533.455 292.101 535.655 291.661 Q537.854 291.198 539.937 291.198 Q545.562 291.198 548.34 294.114 Q551.117 297.031 551.117 302.957 Z" fill="#000000" fill-rule="nonzero" fill-opacity="1" /><path clip-path="url(#clip910)" d="M559.219 281.777 L562.923 281.777 Q566.395 287.24 568.108 292.471 Q569.844 297.702 569.844 302.864 Q569.844 308.05 568.108 313.304 Q566.395 318.559 562.923 323.999 L559.219 323.999 Q562.298 318.698 563.803 313.466 Q565.33 308.212 565.33 302.864 Q565.33 297.517 563.803 292.309 Q562.298 287.101 559.219 281.777 Z" fill="#000000" fill-rule="nonzero" fill-opacity="1" /></svg>
