<?xml version="1.0" encoding="utf-8"?>
<svg xmlns="http://www.w3.org/2000/svg" xmlns:xlink="http://www.w3.org/1999/xlink" width="600" height="400" viewBox="0 0 2400 1600">
<defs>
  <clipPath id="clip970">
    <rect x="0" y="0" width="2400" height="1600"/>
  </clipPath>
</defs>
<path clip-path="url(#clip970)" d="M0 1600 L2400 1600 L2400 0 L0 0  Z" fill="#ffffff" fill-rule="evenodd" fill-opacity="1"/>
<defs>
  <clipPath id="clip971">
    <rect x="186" y="47" width="2167" height="1440"/>
  </clipPath>
</defs>
<path clip-path="url(#clip970)" d="M186.274 1486.45 L2352.76 1486.45 L2352.76 47.2441 L186.274 47.2441  Z" fill="#ffffff" fill-rule="evenodd" fill-opacity="1"/>
<polyline clip-path="url(#clip971)" style="stroke:#000000; stroke-linecap:round; stroke-linejoin:round; stroke-width:2; stroke-opacity:0.1; fill:none" points="247.59,1486.45 247.59,47.2441 "/>
<polyline clip-path="url(#clip971)" style="stroke:#000000; stroke-linecap:round; stroke-linejoin:round; stroke-width:2; stroke-opacity:0.1; fill:none" points="656.36,1486.45 656.36,47.2441 "/>
<polyline clip-path="url(#clip971)" style="stroke:#000000; stroke-linecap:round; stroke-linejoin:round; stroke-width:2; stroke-opacity:0.1; fill:none" points="1065.13,1486.45 1065.13,47.2441 "/>
<polyline clip-path="url(#clip971)" style="stroke:#000000; stroke-linecap:round; stroke-linejoin:round; stroke-width:2; stroke-opacity:0.1; fill:none" points="1473.9,1486.45 1473.9,47.2441 "/>
<polyline clip-path="url(#clip971)" style="stroke:#000000; stroke-linecap:round; stroke-linejoin:round; stroke-width:2; stroke-opacity:0.1; fill:none" points="1882.67,1486.45 1882.67,47.2441 "/>
<polyline clip-path="url(#clip971)" style="stroke:#000000; stroke-linecap:round; stroke-linejoin:round; stroke-width:2; stroke-opacity:0.1; fill:none" points="2291.44,1486.45 2291.44,47.2441 "/>
<polyline clip-path="url(#clip971)" style="stroke:#000000; stroke-linecap:round; stroke-linejoin:round; stroke-width:2; stroke-opacity:0.1; fill:none" points="186.274,1445.72 2352.76,1445.72 "/>
<polyline clip-path="url(#clip971)" style="stroke:#000000; stroke-linecap:round; stroke-linejoin:round; stroke-width:2; stroke-opacity:0.1; fill:none" points="186.274,1121.19 2352.76,1121.19 "/>
<polyline clip-path="url(#clip971)" style="stroke:#000000; stroke-linecap:round; stroke-linejoin:round; stroke-width:2; stroke-opacity:0.1; fill:none" points="186.274,796.667 2352.76,796.667 "/>
<polyline clip-path="url(#clip971)" style="stroke:#000000; stroke-linecap:round; stroke-linejoin:round; stroke-width:2; stroke-opacity:0.1; fill:none" points="186.274,472.143 2352.76,472.143 "/>
<polyline clip-path="url(#clip971)" style="stroke:#000000; stroke-linecap:round; stroke-linejoin:round; stroke-width:2; stroke-opacity:0.1; fill:none" points="186.274,147.618 2352.76,147.618 "/>
<polyline clip-path="url(#clip970)" style="stroke:#000000; stroke-linecap:round; stroke-linejoin:round; stroke-width:4; stroke-opacity:1; fill:none" points="186.274,1486.45 2352.76,1486.45 "/>
<polyline clip-path="url(#clip970)" style="stroke:#000000; stroke-linecap:round; stroke-linejoin:round; stroke-width:4; stroke-opacity:1; fill:none" points="247.59,1486.45 247.59,1467.55 "/>
<polyline clip-path="url(#clip970)" style="stroke:#000000; stroke-linecap:round; stroke-linejoin:round; stroke-width:4; stroke-opacity:1; fill:none" points="656.36,1486.45 656.36,1467.55 "/>
<polyline clip-path="url(#clip970)" style="stroke:#000000; stroke-linecap:round; stroke-linejoin:round; stroke-width:4; stroke-opacity:1; fill:none" points="1065.13,1486.45 1065.13,1467.55 "/>
<polyline clip-path="url(#clip970)" style="stroke:#000000; stroke-linecap:round; stroke-linejoin:round; stroke-width:4; stroke-opacity:1; fill:none" points="1473.9,1486.45 1473.9,1467.55 "/>
<polyline clip-path="url(#clip970)" style="stroke:#000000; stroke-linecap:round; stroke-linejoin:round; stroke-width:4; stroke-opacity:1; fill:none" points="1882.67,1486.45 1882.67,1467.55 "/>
<polyline clip-path="url(#clip970)" style="stroke:#000000; stroke-linecap:round; stroke-linejoin:round; stroke-width:4; stroke-opacity:1; fill:none" points="2291.44,1486.45 2291.44,1467.55 "/>
<path clip-path="url(#clip970)" d="M247.59 1517.37 Q243.978 1517.37 242.15 1520.93 Q240.344 1524.47 240.344 1531.6 Q240.344 1538.71 242.15 1542.27 Q243.978 1545.82 247.59 1545.82 Q251.224 1545.82 253.029 1542.27 Q254.858 1538.71 254.858 1531.6 Q254.858 1524.47 253.029 1520.93 Q251.224 1517.37 247.59 1517.37 M247.59 1513.66 Q253.4 1513.66 256.455 1518.27 Q259.534 1522.85 259.534 1531.6 Q259.534 1540.33 256.455 1544.94 Q253.4 1549.52 247.59 1549.52 Q241.779 1549.52 238.701 1544.94 Q235.645 1540.33 235.645 1531.6 Q235.645 1522.85 238.701 1518.27 Q241.779 1513.66 247.59 1513.66 Z" fill="#000000" fill-rule="nonzero" fill-opacity="1" /><path clip-path="url(#clip970)" d="M646.742 1544.91 L654.381 1544.91 L654.381 1518.55 L646.07 1520.21 L646.07 1515.95 L654.334 1514.29 L659.01 1514.29 L659.01 1544.91 L666.649 1544.91 L666.649 1548.85 L646.742 1548.85 L646.742 1544.91 Z" fill="#000000" fill-rule="nonzero" fill-opacity="1" /><path clip-path="url(#clip970)" d="M1059.78 1544.91 L1076.1 1544.91 L1076.1 1548.85 L1054.16 1548.85 L1054.16 1544.91 Q1056.82 1542.16 1061.4 1537.53 Q1066.01 1532.88 1067.19 1531.53 Q1069.44 1529.01 1070.32 1527.27 Q1071.22 1525.51 1071.22 1523.82 Q1071.22 1521.07 1069.27 1519.33 Q1067.35 1517.6 1064.25 1517.6 Q1062.05 1517.6 1059.6 1518.36 Q1057.17 1519.13 1054.39 1520.68 L1054.39 1515.95 Q1057.21 1514.82 1059.67 1514.24 Q1062.12 1513.66 1064.16 1513.66 Q1069.53 1513.66 1072.72 1516.35 Q1075.92 1519.03 1075.92 1523.52 Q1075.92 1525.65 1075.11 1527.57 Q1074.32 1529.47 1072.21 1532.07 Q1071.63 1532.74 1068.53 1535.95 Q1065.43 1539.15 1059.78 1544.91 Z" fill="#000000" fill-rule="nonzero" fill-opacity="1" /><path clip-path="url(#clip970)" d="M1478.15 1530.21 Q1481.5 1530.93 1483.38 1533.2 Q1485.28 1535.47 1485.28 1538.8 Q1485.28 1543.92 1481.76 1546.72 Q1478.24 1549.52 1471.76 1549.52 Q1469.58 1549.52 1467.27 1549.08 Q1464.98 1548.66 1462.52 1547.81 L1462.52 1543.29 Q1464.47 1544.43 1466.78 1545.01 Q1469.1 1545.58 1471.62 1545.58 Q1476.02 1545.58 1478.31 1543.85 Q1480.62 1542.11 1480.62 1538.8 Q1480.62 1535.75 1478.47 1534.03 Q1476.34 1532.3 1472.52 1532.3 L1468.49 1532.3 L1468.49 1528.45 L1472.71 1528.45 Q1476.16 1528.45 1477.99 1527.09 Q1479.81 1525.7 1479.81 1523.11 Q1479.81 1520.45 1477.92 1519.03 Q1476.04 1517.6 1472.52 1517.6 Q1470.6 1517.6 1468.4 1518.01 Q1466.2 1518.43 1463.56 1519.31 L1463.56 1515.14 Q1466.23 1514.4 1468.54 1514.03 Q1470.88 1513.66 1472.94 1513.66 Q1478.26 1513.66 1481.37 1516.09 Q1484.47 1518.5 1484.47 1522.62 Q1484.47 1525.49 1482.82 1527.48 Q1481.18 1529.45 1478.15 1530.21 Z" fill="#000000" fill-rule="nonzero" fill-opacity="1" /><path clip-path="url(#clip970)" d="M1885.68 1518.36 L1873.87 1536.81 L1885.68 1536.81 L1885.68 1518.36 M1884.45 1514.29 L1890.33 1514.29 L1890.33 1536.81 L1895.26 1536.81 L1895.26 1540.7 L1890.33 1540.7 L1890.33 1548.85 L1885.68 1548.85 L1885.68 1540.7 L1870.08 1540.7 L1870.08 1536.19 L1884.45 1514.29 Z" fill="#000000" fill-rule="nonzero" fill-opacity="1" /><path clip-path="url(#clip970)" d="M2281.72 1514.29 L2300.07 1514.29 L2300.07 1518.22 L2286 1518.22 L2286 1526.7 Q2287.02 1526.35 2288.04 1526.19 Q2289.06 1526 2290.07 1526 Q2295.86 1526 2299.24 1529.17 Q2302.62 1532.34 2302.62 1537.76 Q2302.62 1543.34 2299.15 1546.44 Q2295.68 1549.52 2289.36 1549.52 Q2287.18 1549.52 2284.91 1549.15 Q2282.67 1548.78 2280.26 1548.04 L2280.26 1543.34 Q2282.34 1544.47 2284.57 1545.03 Q2286.79 1545.58 2289.26 1545.58 Q2293.27 1545.58 2295.61 1543.48 Q2297.94 1541.37 2297.94 1537.76 Q2297.94 1534.15 2295.61 1532.04 Q2293.27 1529.94 2289.26 1529.94 Q2287.39 1529.94 2285.51 1530.35 Q2283.66 1530.77 2281.72 1531.65 L2281.72 1514.29 Z" fill="#000000" fill-rule="nonzero" fill-opacity="1" /><polyline clip-path="url(#clip970)" style="stroke:#000000; stroke-linecap:round; stroke-linejoin:round; stroke-width:4; stroke-opacity:1; fill:none" points="186.274,1486.45 186.274,47.2441 "/>
<polyline clip-path="url(#clip970)" style="stroke:#000000; stroke-linecap:round; stroke-linejoin:round; stroke-width:4; stroke-opacity:1; fill:none" points="186.274,1445.72 205.172,1445.72 "/>
<polyline clip-path="url(#clip970)" style="stroke:#000000; stroke-linecap:round; stroke-linejoin:round; stroke-width:4; stroke-opacity:1; fill:none" points="186.274,1121.19 205.172,1121.19 "/>
<polyline clip-path="url(#clip970)" style="stroke:#000000; stroke-linecap:round; stroke-linejoin:round; stroke-width:4; stroke-opacity:1; fill:none" points="186.274,796.667 205.172,796.667 "/>
<polyline clip-path="url(#clip970)" style="stroke:#000000; stroke-linecap:round; stroke-linejoin:round; stroke-width:4; stroke-opacity:1; fill:none" points="186.274,472.143 205.172,472.143 "/>
<polyline clip-path="url(#clip970)" style="stroke:#000000; stroke-linecap:round; stroke-linejoin:round; stroke-width:4; stroke-opacity:1; fill:none" points="186.274,147.618 205.172,147.618 "/>
<path clip-path="url(#clip970)" d="M62.9365 1431.51 Q59.3254 1431.51 57.4967 1435.08 Q55.6912 1438.62 55.6912 1445.75 Q55.6912 1452.86 57.4967 1456.42 Q59.3254 1459.96 62.9365 1459.96 Q66.5707 1459.96 68.3763 1456.42 Q70.205 1452.86 70.205 1445.75 Q70.205 1438.62 68.3763 1435.08 Q66.5707 1431.51 62.9365 1431.51 M62.9365 1427.81 Q68.7467 1427.81 71.8022 1432.42 Q74.8809 1437 74.8809 1445.75 Q74.8809 1454.48 71.8022 1459.08 Q68.7467 1463.67 62.9365 1463.67 Q57.1264 1463.67 54.0477 1459.08 Q50.9921 1454.48 50.9921 1445.75 Q50.9921 1437 54.0477 1432.42 Q57.1264 1427.81 62.9365 1427.81 Z" fill="#000000" fill-rule="nonzero" fill-opacity="1" /><path clip-path="url(#clip970)" d="M83.0984 1457.12 L87.9827 1457.12 L87.9827 1463 L83.0984 1463 L83.0984 1457.12 Z" fill="#000000" fill-rule="nonzero" fill-opacity="1" /><path clip-path="url(#clip970)" d="M108.168 1431.51 Q104.557 1431.51 102.728 1435.08 Q100.922 1438.62 100.922 1445.75 Q100.922 1452.86 102.728 1456.42 Q104.557 1459.96 108.168 1459.96 Q111.802 1459.96 113.608 1456.42 Q115.436 1452.86 115.436 1445.75 Q115.436 1438.62 113.608 1435.08 Q111.802 1431.51 108.168 1431.51 M108.168 1427.81 Q113.978 1427.81 117.033 1432.42 Q120.112 1437 120.112 1445.75 Q120.112 1454.48 117.033 1459.08 Q113.978 1463.67 108.168 1463.67 Q102.358 1463.67 99.2789 1459.08 Q96.2234 1454.48 96.2234 1445.75 Q96.2234 1437 99.2789 1432.42 Q102.358 1427.81 108.168 1427.81 Z" fill="#000000" fill-rule="nonzero" fill-opacity="1" /><path clip-path="url(#clip970)" d="M138.33 1431.51 Q134.719 1431.51 132.89 1435.08 Q131.084 1438.62 131.084 1445.75 Q131.084 1452.86 132.89 1456.42 Q134.719 1459.96 138.33 1459.96 Q141.964 1459.96 143.769 1456.42 Q145.598 1452.86 145.598 1445.75 Q145.598 1438.62 143.769 1435.08 Q141.964 1431.51 138.33 1431.51 M138.33 1427.81 Q144.14 1427.81 147.195 1432.42 Q150.274 1437 150.274 1445.75 Q150.274 1454.48 147.195 1459.08 Q144.14 1463.67 138.33 1463.67 Q132.519 1463.67 129.441 1459.08 Q126.385 1454.48 126.385 1445.75 Q126.385 1437 129.441 1432.42 Q132.519 1427.81 138.33 1427.81 Z" fill="#000000" fill-rule="nonzero" fill-opacity="1" /><path clip-path="url(#clip970)" d="M63.9319 1106.99 Q60.3208 1106.99 58.4921 1110.55 Q56.6865 1114.1 56.6865 1121.23 Q56.6865 1128.33 58.4921 1131.9 Q60.3208 1135.44 63.9319 1135.44 Q67.5661 1135.44 69.3717 1131.9 Q71.2004 1128.33 71.2004 1121.23 Q71.2004 1114.1 69.3717 1110.55 Q67.5661 1106.99 63.9319 1106.99 M63.9319 1103.29 Q69.742 1103.29 72.7976 1107.89 Q75.8763 1112.48 75.8763 1121.23 Q75.8763 1129.95 72.7976 1134.56 Q69.742 1139.14 63.9319 1139.14 Q58.1217 1139.14 55.043 1134.56 Q51.9875 1129.95 51.9875 1121.23 Q51.9875 1112.48 55.043 1107.89 Q58.1217 1103.29 63.9319 1103.29 Z" fill="#000000" fill-rule="nonzero" fill-opacity="1" /><path clip-path="url(#clip970)" d="M84.0938 1132.59 L88.978 1132.59 L88.978 1138.47 L84.0938 1138.47 L84.0938 1132.59 Z" fill="#000000" fill-rule="nonzero" fill-opacity="1" /><path clip-path="url(#clip970)" d="M103.191 1134.54 L119.51 1134.54 L119.51 1138.47 L97.566 1138.47 L97.566 1134.54 Q100.228 1131.78 104.811 1127.15 Q109.418 1122.5 110.598 1121.16 Q112.844 1118.63 113.723 1116.9 Q114.626 1115.14 114.626 1113.45 Q114.626 1110.69 112.682 1108.96 Q110.76 1107.22 107.658 1107.22 Q105.459 1107.22 103.006 1107.99 Q100.575 1108.75 97.7974 1110.3 L97.7974 1105.58 Q100.621 1104.44 103.075 1103.87 Q105.529 1103.29 107.566 1103.29 Q112.936 1103.29 116.131 1105.97 Q119.325 1108.66 119.325 1113.15 Q119.325 1115.28 118.515 1117.2 Q117.728 1119.1 115.621 1121.69 Q115.043 1122.36 111.941 1125.58 Q108.839 1128.77 103.191 1134.54 Z" fill="#000000" fill-rule="nonzero" fill-opacity="1" /><path clip-path="url(#clip970)" d="M129.371 1103.91 L147.728 1103.91 L147.728 1107.85 L133.654 1107.85 L133.654 1116.32 Q134.672 1115.97 135.691 1115.81 Q136.709 1115.62 137.728 1115.62 Q143.515 1115.62 146.894 1118.8 Q150.274 1121.97 150.274 1127.38 Q150.274 1132.96 146.802 1136.06 Q143.33 1139.14 137.01 1139.14 Q134.834 1139.14 132.566 1138.77 Q130.32 1138.4 127.913 1137.66 L127.913 1132.96 Q129.996 1134.1 132.219 1134.65 Q134.441 1135.21 136.918 1135.21 Q140.922 1135.21 143.26 1133.1 Q145.598 1130.99 145.598 1127.38 Q145.598 1123.77 143.26 1121.67 Q140.922 1119.56 136.918 1119.56 Q135.043 1119.56 133.168 1119.98 Q131.316 1120.39 129.371 1121.27 L129.371 1103.91 Z" fill="#000000" fill-rule="nonzero" fill-opacity="1" /><path clip-path="url(#clip970)" d="M62.9365 782.466 Q59.3254 782.466 57.4967 786.03 Q55.6912 789.572 55.6912 796.702 Q55.6912 803.808 57.4967 807.373 Q59.3254 810.915 62.9365 810.915 Q66.5707 810.915 68.3763 807.373 Q70.205 803.808 70.205 796.702 Q70.205 789.572 68.3763 786.03 Q66.5707 782.466 62.9365 782.466 M62.9365 778.762 Q68.7467 778.762 71.8022 783.368 Q74.8809 787.952 74.8809 796.702 Q74.8809 805.429 71.8022 810.035 Q68.7467 814.618 62.9365 814.618 Q57.1264 814.618 54.0477 810.035 Q50.9921 805.429 50.9921 796.702 Q50.9921 787.952 54.0477 783.368 Q57.1264 778.762 62.9365 778.762 Z" fill="#000000" fill-rule="nonzero" fill-opacity="1" /><path clip-path="url(#clip970)" d="M83.0984 808.067 L87.9827 808.067 L87.9827 813.947 L83.0984 813.947 L83.0984 808.067 Z" fill="#000000" fill-rule="nonzero" fill-opacity="1" /><path clip-path="url(#clip970)" d="M98.2141 779.387 L116.57 779.387 L116.57 783.322 L102.496 783.322 L102.496 791.794 Q103.515 791.447 104.534 791.285 Q105.552 791.1 106.571 791.1 Q112.358 791.1 115.737 794.271 Q119.117 797.442 119.117 802.859 Q119.117 808.438 115.645 811.54 Q112.172 814.618 105.853 814.618 Q103.677 814.618 101.409 814.248 Q99.1632 813.878 96.7558 813.137 L96.7558 808.438 Q98.8391 809.572 101.061 810.128 Q103.284 810.683 105.76 810.683 Q109.765 810.683 112.103 808.577 Q114.441 806.47 114.441 802.859 Q114.441 799.248 112.103 797.142 Q109.765 795.035 105.76 795.035 Q103.885 795.035 102.01 795.452 Q100.159 795.868 98.2141 796.748 L98.2141 779.387 Z" fill="#000000" fill-rule="nonzero" fill-opacity="1" /><path clip-path="url(#clip970)" d="M138.33 782.466 Q134.719 782.466 132.89 786.03 Q131.084 789.572 131.084 796.702 Q131.084 803.808 132.89 807.373 Q134.719 810.915 138.33 810.915 Q141.964 810.915 143.769 807.373 Q145.598 803.808 145.598 796.702 Q145.598 789.572 143.769 786.03 Q141.964 782.466 138.33 782.466 M138.33 778.762 Q144.14 778.762 147.195 783.368 Q150.274 787.952 150.274 796.702 Q150.274 805.429 147.195 810.035 Q144.14 814.618 138.33 814.618 Q132.519 814.618 129.441 810.035 Q126.385 805.429 126.385 796.702 Q126.385 787.952 129.441 783.368 Q132.519 778.762 138.33 778.762 Z" fill="#000000" fill-rule="nonzero" fill-opacity="1" /><path clip-path="url(#clip970)" d="M63.9319 457.941 Q60.3208 457.941 58.4921 461.506 Q56.6865 465.048 56.6865 472.177 Q56.6865 479.284 58.4921 482.849 Q60.3208 486.39 63.9319 486.39 Q67.5661 486.39 69.3717 482.849 Q71.2004 479.284 71.2004 472.177 Q71.2004 465.048 69.3717 461.506 Q67.5661 457.941 63.9319 457.941 M63.9319 454.238 Q69.742 454.238 72.7976 458.844 Q75.8763 463.427 75.8763 472.177 Q75.8763 480.904 72.7976 485.511 Q69.742 490.094 63.9319 490.094 Q58.1217 490.094 55.043 485.511 Q51.9875 480.904 51.9875 472.177 Q51.9875 463.427 55.043 458.844 Q58.1217 454.238 63.9319 454.238 Z" fill="#000000" fill-rule="nonzero" fill-opacity="1" /><path clip-path="url(#clip970)" d="M84.0938 483.543 L88.978 483.543 L88.978 489.423 L84.0938 489.423 L84.0938 483.543 Z" fill="#000000" fill-rule="nonzero" fill-opacity="1" /><path clip-path="url(#clip970)" d="M97.9826 454.863 L120.205 454.863 L120.205 456.853 L107.658 489.423 L102.774 489.423 L114.58 458.798 L97.9826 458.798 L97.9826 454.863 Z" fill="#000000" fill-rule="nonzero" fill-opacity="1" /><path clip-path="url(#clip970)" d="M129.371 454.863 L147.728 454.863 L147.728 458.798 L133.654 458.798 L133.654 467.27 Q134.672 466.923 135.691 466.761 Q136.709 466.576 137.728 466.576 Q143.515 466.576 146.894 469.747 Q150.274 472.918 150.274 478.335 Q150.274 483.913 146.802 487.015 Q143.33 490.094 137.01 490.094 Q134.834 490.094 132.566 489.724 Q130.32 489.353 127.913 488.612 L127.913 483.913 Q129.996 485.048 132.219 485.603 Q134.441 486.159 136.918 486.159 Q140.922 486.159 143.26 484.052 Q145.598 481.946 145.598 478.335 Q145.598 474.724 143.26 472.617 Q140.922 470.511 136.918 470.511 Q135.043 470.511 133.168 470.927 Q131.316 471.344 129.371 472.224 L129.371 454.863 Z" fill="#000000" fill-rule="nonzero" fill-opacity="1" /><path clip-path="url(#clip970)" d="M53.7467 160.963 L61.3856 160.963 L61.3856 134.598 L53.0754 136.264 L53.0754 132.005 L61.3393 130.338 L66.0152 130.338 L66.0152 160.963 L73.654 160.963 L73.654 164.898 L53.7467 164.898 L53.7467 160.963 Z" fill="#000000" fill-rule="nonzero" fill-opacity="1" /><path clip-path="url(#clip970)" d="M83.0984 159.019 L87.9827 159.019 L87.9827 164.898 L83.0984 164.898 L83.0984 159.019 Z" fill="#000000" fill-rule="nonzero" fill-opacity="1" /><path clip-path="url(#clip970)" d="M108.168 133.417 Q104.557 133.417 102.728 136.982 Q100.922 140.523 100.922 147.653 Q100.922 154.759 102.728 158.324 Q104.557 161.866 108.168 161.866 Q111.802 161.866 113.608 158.324 Q115.436 154.759 115.436 147.653 Q115.436 140.523 113.608 136.982 Q111.802 133.417 108.168 133.417 M108.168 129.713 Q113.978 129.713 117.033 134.32 Q120.112 138.903 120.112 147.653 Q120.112 156.38 117.033 160.986 Q113.978 165.57 108.168 165.57 Q102.358 165.57 99.2789 160.986 Q96.2234 156.38 96.2234 147.653 Q96.2234 138.903 99.2789 134.32 Q102.358 129.713 108.168 129.713 Z" fill="#000000" fill-rule="nonzero" fill-opacity="1" /><path clip-path="url(#clip970)" d="M138.33 133.417 Q134.719 133.417 132.89 136.982 Q131.084 140.523 131.084 147.653 Q131.084 154.759 132.89 158.324 Q134.719 161.866 138.33 161.866 Q141.964 161.866 143.769 158.324 Q145.598 154.759 145.598 147.653 Q145.598 140.523 143.769 136.982 Q141.964 133.417 138.33 133.417 M138.33 129.713 Q144.14 129.713 147.195 134.32 Q150.274 138.903 150.274 147.653 Q150.274 156.38 147.195 160.986 Q144.14 165.57 138.33 165.57 Q132.519 165.57 129.441 160.986 Q126.385 156.38 126.385 147.653 Q126.385 138.903 129.441 134.32 Q132.519 129.713 138.33 129.713 Z" fill="#000000" fill-rule="nonzero" fill-opacity="1" /><polyline clip-path="url(#clip971)" style="stroke:#add8e6; stroke-linecap:round; stroke-linejoin:round; stroke-width:32; stroke-opacity:1; fill:none" points="247.59,1445.72 252.865,1445.72 258.14,1445.71 263.415,1445.71 268.69,1445.69 299.585,1445.35 330.48,1444.23 361.376,1441.88 392.271,1437.85 421.016,1432.21 449.761,1424.44 469.026,1417.89 488.29,1410.18 507.555,1401.23 526.819,1391 542.738,1381.55 558.656,1371.17 574.575,1359.85 590.493,1347.59 605.296,1335.35 620.098,1322.31 634.901,1308.48 649.703,1293.87 668.286,1274.48 686.868,1253.95 705.45,1232.37 724.033,1209.79 757.37,1167.08 790.706,1121.98 867.024,1012.89 924.071,929.306 960.553,876.315 997.035,824.373 1030.33,778.278 1063.63,733.729 1101.53,685.182 1139.42,639.139 1169.46,604.508 1199.51,571.564 1236.83,532.993 1274.15,497 1302.73,471.134 1331.32,446.695 1371.62,414.563 1411.91,385.008 1442.03,364.504 1472.14,345.273 1506.39,324.859 1540.63,305.895 1574.55,288.446 1608.47,272.228 1645.78,255.702 1683.09,240.447 1711.59,229.586 1740.09,219.364 1812.03,196.136 1878.56,177.534 1947.17,160.82 2016.72,146.064 2089.34,132.656 2146.54,123.33 2276.82,105.452 2291.44,103.698 "/>
<polyline clip-path="url(#clip971)" style="stroke:#0000ff; stroke-linecap:round; stroke-linejoin:round; stroke-width:24; stroke-opacity:0.7; fill:none" stroke-dasharray="96, 60" points="247.59,1440.15 258.14,1439.55 268.69,1438.89 330.48,1433.51 392.271,1424.59 421.016,1418.74 449.761,1411.55 488.29,1399.37 526.819,1383.77 558.656,1367.89 590.493,1348.99 620.098,1328.49 649.703,1305.04 668.286,1288.78 686.868,1271.33 705.45,1252.71 724.033,1232.94 740.701,1214.28 757.37,1194.78 774.038,1174.49 790.706,1153.46 828.865,1102.95 867.024,1049.85 895.547,1009.04 924.071,967.747 997.035,862.531 1063.63,770.612 1101.53,721.247 1139.42,674.443 1169.46,639.285 1199.51,605.897 1236.83,566.885 1274.15,530.559 1302.73,504.496 1331.32,479.891 1371.62,447.548 1411.91,417.764 1442.03,397.052 1472.14,377.561 1506.39,356.772 1540.63,337.328 1574.55,319.286 1608.47,302.344 1683.09,268.469 1740.09,245.295 1812.03,218.797 1878.56,196.549 1947.17,175.461 2016.72,155.664 2089.34,136.368 2146.54,121.979 2276.82,91.276 2291.44,87.9763 "/>
<path clip-path="url(#clip970)" d="M258.49 250.738 L808.609 250.738 L808.609 95.2176 L258.49 95.2176  Z" fill="#ffffff" fill-rule="evenodd" fill-opacity="1"/>
<polyline clip-path="url(#clip970)" style="stroke:#000000; stroke-linecap:round; stroke-linejoin:round; stroke-width:4; stroke-opacity:1; fill:none" points="258.49,250.738 808.609,250.738 808.609,95.2176 258.49,95.2176 258.49,250.738 "/>
<polyline clip-path="url(#clip970)" style="stroke:#add8e6; stroke-linecap:round; stroke-linejoin:round; stroke-width:20; stroke-opacity:1; fill:none" points="282.562,147.058 426.994,147.058 "/>
<path clip-path="url(#clip970)" d="M451.066 129.778 L480.302 129.778 L480.302 133.713 L468.034 133.713 L468.034 164.338 L463.335 164.338 L463.335 133.713 L451.066 133.713 L451.066 129.778 Z" fill="#000000" fill-rule="nonzero" fill-opacity="1" /><path clip-path="url(#clip970)" d="M492.686 142.393 Q491.969 141.977 491.112 141.791 Q490.279 141.583 489.26 141.583 Q485.649 141.583 483.705 143.944 Q481.784 146.282 481.784 150.68 L481.784 164.338 L477.501 164.338 L477.501 138.412 L481.784 138.412 L481.784 142.44 Q483.126 140.078 485.279 138.944 Q487.432 137.787 490.51 137.787 Q490.95 137.787 491.483 137.856 Q492.015 137.903 492.663 138.018 L492.686 142.393 Z" fill="#000000" fill-rule="nonzero" fill-opacity="1" /><path clip-path="url(#clip970)" d="M496.714 154.106 L496.714 138.412 L500.973 138.412 L500.973 153.944 Q500.973 157.625 502.409 159.476 Q503.844 161.305 506.714 161.305 Q510.163 161.305 512.154 159.106 Q514.168 156.907 514.168 153.111 L514.168 138.412 L518.427 138.412 L518.427 164.338 L514.168 164.338 L514.168 160.356 Q512.617 162.717 510.557 163.875 Q508.52 165.009 505.811 165.009 Q501.344 165.009 499.029 162.231 Q496.714 159.453 496.714 154.106 M507.432 137.787 L507.432 137.787 Z" fill="#000000" fill-rule="nonzero" fill-opacity="1" /><path clip-path="url(#clip970)" d="M549.376 150.31 L549.376 152.393 L529.793 152.393 Q530.07 156.791 532.432 159.106 Q534.816 161.398 539.052 161.398 Q541.506 161.398 543.797 160.796 Q546.112 160.194 548.381 158.99 L548.381 163.018 Q546.089 163.99 543.681 164.5 Q541.274 165.009 538.797 165.009 Q532.594 165.009 528.959 161.398 Q525.348 157.787 525.348 151.629 Q525.348 145.264 528.774 141.537 Q532.223 137.787 538.057 137.787 Q543.288 137.787 546.32 141.166 Q549.376 144.523 549.376 150.31 M545.117 149.06 Q545.07 145.565 543.149 143.481 Q541.251 141.398 538.103 141.398 Q534.538 141.398 532.385 143.412 Q530.256 145.426 529.932 149.083 L545.117 149.06 Z" fill="#000000" fill-rule="nonzero" fill-opacity="1" /><path clip-path="url(#clip970)" d="M584.561 128.319 L584.561 131.861 L580.487 131.861 Q578.195 131.861 577.292 132.787 Q576.413 133.713 576.413 136.12 L576.413 138.412 L583.427 138.412 L583.427 141.722 L576.413 141.722 L576.413 164.338 L572.13 164.338 L572.13 141.722 L568.056 141.722 L568.056 138.412 L572.13 138.412 L572.13 136.606 Q572.13 132.278 574.144 130.31 Q576.158 128.319 580.533 128.319 L584.561 128.319 Z" fill="#000000" fill-rule="nonzero" fill-opacity="1" /><path clip-path="url(#clip970)" d="M587.686 154.106 L587.686 138.412 L591.945 138.412 L591.945 153.944 Q591.945 157.625 593.38 159.476 Q594.815 161.305 597.686 161.305 Q601.135 161.305 603.126 159.106 Q605.139 156.907 605.139 153.111 L605.139 138.412 L609.399 138.412 L609.399 164.338 L605.139 164.338 L605.139 160.356 Q603.589 162.717 601.528 163.875 Q599.491 165.009 596.783 165.009 Q592.315 165.009 590.001 162.231 Q587.686 159.453 587.686 154.106 M598.403 137.787 L598.403 137.787 Z" fill="#000000" fill-rule="nonzero" fill-opacity="1" /><path clip-path="url(#clip970)" d="M639.723 148.689 L639.723 164.338 L635.463 164.338 L635.463 148.828 Q635.463 145.148 634.028 143.319 Q632.593 141.49 629.723 141.49 Q626.274 141.49 624.283 143.69 Q622.292 145.889 622.292 149.685 L622.292 164.338 L618.01 164.338 L618.01 138.412 L622.292 138.412 L622.292 142.44 Q623.82 140.102 625.88 138.944 Q627.963 137.787 630.672 137.787 Q635.139 137.787 637.431 140.565 Q639.723 143.319 639.723 148.689 Z" fill="#000000" fill-rule="nonzero" fill-opacity="1" /><path clip-path="url(#clip970)" d="M666.875 139.407 L666.875 143.389 Q665.07 142.393 663.241 141.907 Q661.435 141.398 659.584 141.398 Q655.44 141.398 653.148 144.037 Q650.857 146.652 650.857 151.398 Q650.857 156.143 653.148 158.782 Q655.44 161.398 659.584 161.398 Q661.435 161.398 663.241 160.912 Q665.07 160.402 666.875 159.407 L666.875 163.342 Q665.093 164.176 663.172 164.592 Q661.273 165.009 659.121 165.009 Q653.264 165.009 649.815 161.328 Q646.366 157.648 646.366 151.398 Q646.366 145.055 649.838 141.421 Q653.334 137.787 659.398 137.787 Q661.366 137.787 663.241 138.203 Q665.116 138.597 666.875 139.407 Z" fill="#000000" fill-rule="nonzero" fill-opacity="1" /><path clip-path="url(#clip970)" d="M678.496 131.051 L678.496 138.412 L687.269 138.412 L687.269 141.722 L678.496 141.722 L678.496 155.796 Q678.496 158.967 679.352 159.87 Q680.232 160.773 682.894 160.773 L687.269 160.773 L687.269 164.338 L682.894 164.338 Q677.963 164.338 676.088 162.509 Q674.213 160.657 674.213 155.796 L674.213 141.722 L671.088 141.722 L671.088 138.412 L674.213 138.412 L674.213 131.051 L678.496 131.051 Z" fill="#000000" fill-rule="nonzero" fill-opacity="1" /><path clip-path="url(#clip970)" d="M692.87 138.412 L697.13 138.412 L697.13 164.338 L692.87 164.338 L692.87 138.412 M692.87 128.319 L697.13 128.319 L697.13 133.713 L692.87 133.713 L692.87 128.319 Z" fill="#000000" fill-rule="nonzero" fill-opacity="1" /><path clip-path="url(#clip970)" d="M716.088 141.398 Q712.662 141.398 710.671 144.083 Q708.681 146.745 708.681 151.398 Q708.681 156.051 710.648 158.736 Q712.639 161.398 716.088 161.398 Q719.491 161.398 721.481 158.713 Q723.472 156.027 723.472 151.398 Q723.472 146.791 721.481 144.106 Q719.491 141.398 716.088 141.398 M716.088 137.787 Q721.643 137.787 724.815 141.398 Q727.986 145.009 727.986 151.398 Q727.986 157.764 724.815 161.398 Q721.643 165.009 716.088 165.009 Q710.509 165.009 707.338 161.398 Q704.19 157.764 704.19 151.398 Q704.19 145.009 707.338 141.398 Q710.509 137.787 716.088 137.787 Z" fill="#000000" fill-rule="nonzero" fill-opacity="1" /><path clip-path="url(#clip970)" d="M756.597 148.689 L756.597 164.338 L752.338 164.338 L752.338 148.828 Q752.338 145.148 750.903 143.319 Q749.467 141.49 746.597 141.49 Q743.148 141.49 741.157 143.69 Q739.167 145.889 739.167 149.685 L739.167 164.338 L734.884 164.338 L734.884 138.412 L739.167 138.412 L739.167 142.44 Q740.694 140.102 742.754 138.944 Q744.838 137.787 747.546 137.787 Q752.014 137.787 754.305 140.565 Q756.597 143.319 756.597 148.689 Z" fill="#000000" fill-rule="nonzero" fill-opacity="1" /><polyline clip-path="url(#clip970)" style="stroke:#0000ff; stroke-linecap:round; stroke-linejoin:round; stroke-width:20; stroke-opacity:0.7; fill:none" stroke-dasharray="80, 50" points="282.562,198.898 426.994,198.898 "/>
<path clip-path="url(#clip970)" d="M451.066 181.618 L470.927 181.618 L470.927 185.553 L455.742 185.553 L455.742 195.738 L469.446 195.738 L469.446 199.673 L455.742 199.673 L455.742 216.178 L451.066 216.178 L451.066 181.618 Z" fill="#000000" fill-rule="nonzero" fill-opacity="1" /><path clip-path="url(#clip970)" d="M474.7 190.252 L478.96 190.252 L478.96 216.178 L474.7 216.178 L474.7 190.252 M474.7 180.159 L478.96 180.159 L478.96 185.553 L474.7 185.553 L474.7 180.159 Z" fill="#000000" fill-rule="nonzero" fill-opacity="1" /><path clip-path="url(#clip970)" d="M492.085 182.891 L492.085 190.252 L500.858 190.252 L500.858 193.562 L492.085 193.562 L492.085 207.636 Q492.085 210.807 492.941 211.71 Q493.821 212.613 496.483 212.613 L500.858 212.613 L500.858 216.178 L496.483 216.178 Q491.552 216.178 489.677 214.349 Q487.802 212.497 487.802 207.636 L487.802 193.562 L484.677 193.562 L484.677 190.252 L487.802 190.252 L487.802 182.891 L492.085 182.891 Z" fill="#000000" fill-rule="nonzero" fill-opacity="1" /><path clip-path="url(#clip970)" d="M510.672 182.891 L510.672 190.252 L519.445 190.252 L519.445 193.562 L510.672 193.562 L510.672 207.636 Q510.672 210.807 511.529 211.71 Q512.408 212.613 515.071 212.613 L519.445 212.613 L519.445 216.178 L515.071 216.178 Q510.14 216.178 508.265 214.349 Q506.39 212.497 506.39 207.636 L506.39 193.562 L503.265 193.562 L503.265 190.252 L506.39 190.252 L506.39 182.891 L510.672 182.891 Z" fill="#000000" fill-rule="nonzero" fill-opacity="1" /><path clip-path="url(#clip970)" d="M547.223 202.15 L547.223 204.233 L527.64 204.233 Q527.918 208.631 530.279 210.946 Q532.663 213.238 536.899 213.238 Q539.353 213.238 541.644 212.636 Q543.959 212.034 546.228 210.83 L546.228 214.858 Q543.936 215.83 541.529 216.34 Q539.121 216.849 536.644 216.849 Q530.441 216.849 526.807 213.238 Q523.195 209.627 523.195 203.469 Q523.195 197.104 526.621 193.377 Q530.07 189.627 535.904 189.627 Q541.135 189.627 544.168 193.006 Q547.223 196.363 547.223 202.15 M542.964 200.9 Q542.918 197.405 540.996 195.321 Q539.098 193.238 535.95 193.238 Q532.385 193.238 530.232 195.252 Q528.103 197.266 527.779 200.923 L542.964 200.9 Z" fill="#000000" fill-rule="nonzero" fill-opacity="1" /><path clip-path="url(#clip970)" d="M571.274 194.187 L571.274 180.159 L575.533 180.159 L575.533 216.178 L571.274 216.178 L571.274 212.289 Q569.931 214.603 567.871 215.738 Q565.834 216.849 562.964 216.849 Q558.265 216.849 555.302 213.099 Q552.362 209.349 552.362 203.238 Q552.362 197.127 555.302 193.377 Q558.265 189.627 562.964 189.627 Q565.834 189.627 567.871 190.761 Q569.931 191.872 571.274 194.187 M556.76 203.238 Q556.76 207.937 558.681 210.622 Q560.626 213.284 564.005 213.284 Q567.385 213.284 569.329 210.622 Q571.274 207.937 571.274 203.238 Q571.274 198.539 569.329 195.877 Q567.385 193.192 564.005 193.192 Q560.626 193.192 558.681 195.877 Q556.76 198.539 556.76 203.238 Z" fill="#000000" fill-rule="nonzero" fill-opacity="1" /><path clip-path="url(#clip970)" d="M612.501 180.159 L612.501 183.701 L608.427 183.701 Q606.135 183.701 605.232 184.627 Q604.352 185.553 604.352 187.96 L604.352 190.252 L611.366 190.252 L611.366 193.562 L604.352 193.562 L604.352 216.178 L600.07 216.178 L600.07 193.562 L595.996 193.562 L595.996 190.252 L600.07 190.252 L600.07 188.446 Q600.07 184.118 602.084 182.15 Q604.098 180.159 608.473 180.159 L612.501 180.159 Z" fill="#000000" fill-rule="nonzero" fill-opacity="1" /><path clip-path="url(#clip970)" d="M615.626 205.946 L615.626 190.252 L619.885 190.252 L619.885 205.784 Q619.885 209.465 621.32 211.316 Q622.755 213.145 625.625 213.145 Q629.075 213.145 631.065 210.946 Q633.079 208.747 633.079 204.951 L633.079 190.252 L637.338 190.252 L637.338 216.178 L633.079 216.178 L633.079 212.196 Q631.528 214.557 629.468 215.715 Q627.431 216.849 624.723 216.849 Q620.255 216.849 617.94 214.071 Q615.626 211.293 615.626 205.946 M626.343 189.627 L626.343 189.627 Z" fill="#000000" fill-rule="nonzero" fill-opacity="1" /><path clip-path="url(#clip970)" d="M667.662 200.529 L667.662 216.178 L663.403 216.178 L663.403 200.668 Q663.403 196.988 661.968 195.159 Q660.533 193.33 657.662 193.33 Q654.213 193.33 652.223 195.53 Q650.232 197.729 650.232 201.525 L650.232 216.178 L645.949 216.178 L645.949 190.252 L650.232 190.252 L650.232 194.28 Q651.76 191.942 653.82 190.784 Q655.903 189.627 658.611 189.627 Q663.079 189.627 665.371 192.405 Q667.662 195.159 667.662 200.529 Z" fill="#000000" fill-rule="nonzero" fill-opacity="1" /><path clip-path="url(#clip970)" d="M694.815 191.247 L694.815 195.229 Q693.009 194.233 691.181 193.747 Q689.375 193.238 687.523 193.238 Q683.38 193.238 681.088 195.877 Q678.796 198.492 678.796 203.238 Q678.796 207.983 681.088 210.622 Q683.38 213.238 687.523 213.238 Q689.375 213.238 691.181 212.752 Q693.009 212.242 694.815 211.247 L694.815 215.182 Q693.033 216.016 691.111 216.432 Q689.213 216.849 687.06 216.849 Q681.204 216.849 677.755 213.168 Q674.306 209.488 674.306 203.238 Q674.306 196.895 677.778 193.261 Q681.273 189.627 687.338 189.627 Q689.306 189.627 691.181 190.043 Q693.056 190.437 694.815 191.247 Z" fill="#000000" fill-rule="nonzero" fill-opacity="1" /><path clip-path="url(#clip970)" d="M706.435 182.891 L706.435 190.252 L715.208 190.252 L715.208 193.562 L706.435 193.562 L706.435 207.636 Q706.435 210.807 707.292 211.71 Q708.171 212.613 710.833 212.613 L715.208 212.613 L715.208 216.178 L710.833 216.178 Q705.903 216.178 704.028 214.349 Q702.153 212.497 702.153 207.636 L702.153 193.562 L699.028 193.562 L699.028 190.252 L702.153 190.252 L702.153 182.891 L706.435 182.891 Z" fill="#000000" fill-rule="nonzero" fill-opacity="1" /><path clip-path="url(#clip970)" d="M720.81 190.252 L725.069 190.252 L725.069 216.178 L720.81 216.178 L720.81 190.252 M720.81 180.159 L725.069 180.159 L725.069 185.553 L720.81 185.553 L720.81 180.159 Z" fill="#000000" fill-rule="nonzero" fill-opacity="1" /><path clip-path="url(#clip970)" d="M744.028 193.238 Q740.602 193.238 738.611 195.923 Q736.62 198.585 736.62 203.238 Q736.62 207.891 738.588 210.576 Q740.579 213.238 744.028 213.238 Q747.43 213.238 749.421 210.553 Q751.412 207.867 751.412 203.238 Q751.412 198.631 749.421 195.946 Q747.43 193.238 744.028 193.238 M744.028 189.627 Q749.583 189.627 752.754 193.238 Q755.926 196.849 755.926 203.238 Q755.926 209.604 752.754 213.238 Q749.583 216.849 744.028 216.849 Q738.449 216.849 735.278 213.238 Q732.13 209.604 732.13 203.238 Q732.13 196.849 735.278 193.238 Q738.449 189.627 744.028 189.627 Z" fill="#000000" fill-rule="nonzero" fill-opacity="1" /><path clip-path="url(#clip970)" d="M784.537 200.529 L784.537 216.178 L780.277 216.178 L780.277 200.668 Q780.277 196.988 778.842 195.159 Q777.407 193.33 774.537 193.33 Q771.088 193.33 769.097 195.53 Q767.106 197.729 767.106 201.525 L767.106 216.178 L762.824 216.178 L762.824 190.252 L767.106 190.252 L767.106 194.28 Q768.634 191.942 770.694 190.784 Q772.777 189.627 775.486 189.627 Q779.953 189.627 782.245 192.405 Q784.537 195.159 784.537 200.529 Z" fill="#000000" fill-rule="nonzero" fill-opacity="1" /></svg>
