<?xml version="1.0" encoding="utf-8"?>
<svg xmlns="http://www.w3.org/2000/svg" xmlns:xlink="http://www.w3.org/1999/xlink" width="600" height="400" viewBox="0 0 2400 1600">
<defs>
  <clipPath id="clip320">
    <rect x="0" y="0" width="2400" height="1600"/>
  </clipPath>
</defs>
<path clip-path="url(#clip320)" d="M0 1600 L2400 1600 L2400 0 L0 0  Z" fill="#ffffff" fill-rule="evenodd" fill-opacity="1"/>
<defs>
  <clipPath id="clip321">
    <rect x="112" y="47" width="2242" height="1377"/>
  </clipPath>
</defs>
<path clip-path="url(#clip320)" d="M112.177 1423.18 L2352.76 1423.18 L2352.76 47.2441 L112.177 47.2441  Z" fill="#ffffff" fill-rule="evenodd" fill-opacity="1"/>
<polyline clip-path="url(#clip321)" style="stroke:#000000; stroke-linecap:round; stroke-linejoin:round; stroke-width:2; stroke-opacity:0.1; fill:none" points="112.177,1423.18 112.177,47.2441 "/>
<polyline clip-path="url(#clip321)" style="stroke:#000000; stroke-linecap:round; stroke-linejoin:round; stroke-width:2; stroke-opacity:0.1; fill:none" points="610.084,1423.18 610.084,47.2441 "/>
<polyline clip-path="url(#clip321)" style="stroke:#000000; stroke-linecap:round; stroke-linejoin:round; stroke-width:2; stroke-opacity:0.1; fill:none" points="1107.99,1423.18 1107.99,47.2441 "/>
<polyline clip-path="url(#clip321)" style="stroke:#000000; stroke-linecap:round; stroke-linejoin:round; stroke-width:2; stroke-opacity:0.1; fill:none" points="1605.9,1423.18 1605.9,47.2441 "/>
<polyline clip-path="url(#clip321)" style="stroke:#000000; stroke-linecap:round; stroke-linejoin:round; stroke-width:2; stroke-opacity:0.1; fill:none" points="2103.8,1423.18 2103.8,47.2441 "/>
<polyline clip-path="url(#clip321)" style="stroke:#000000; stroke-linecap:round; stroke-linejoin:round; stroke-width:2; stroke-opacity:0.1; fill:none" points="112.177,1416.36 2352.76,1416.36 "/>
<polyline clip-path="url(#clip321)" style="stroke:#000000; stroke-linecap:round; stroke-linejoin:round; stroke-width:2; stroke-opacity:0.1; fill:none" points="112.177,1095.16 2352.76,1095.16 "/>
<polyline clip-path="url(#clip321)" style="stroke:#000000; stroke-linecap:round; stroke-linejoin:round; stroke-width:2; stroke-opacity:0.1; fill:none" points="112.177,773.962 2352.76,773.962 "/>
<polyline clip-path="url(#clip321)" style="stroke:#000000; stroke-linecap:round; stroke-linejoin:round; stroke-width:2; stroke-opacity:0.1; fill:none" points="112.177,452.763 2352.76,452.763 "/>
<polyline clip-path="url(#clip321)" style="stroke:#000000; stroke-linecap:round; stroke-linejoin:round; stroke-width:2; stroke-opacity:0.1; fill:none" points="112.177,131.565 2352.76,131.565 "/>
<polyline clip-path="url(#clip320)" style="stroke:#000000; stroke-linecap:round; stroke-linejoin:round; stroke-width:4; stroke-opacity:1; fill:none" points="112.177,1423.18 2352.76,1423.18 "/>
<polyline clip-path="url(#clip320)" style="stroke:#000000; stroke-linecap:round; stroke-linejoin:round; stroke-width:4; stroke-opacity:1; fill:none" points="112.177,1423.18 112.177,1404.28 "/>
<polyline clip-path="url(#clip320)" style="stroke:#000000; stroke-linecap:round; stroke-linejoin:round; stroke-width:4; stroke-opacity:1; fill:none" points="610.084,1423.18 610.084,1404.28 "/>
<polyline clip-path="url(#clip320)" style="stroke:#000000; stroke-linecap:round; stroke-linejoin:round; stroke-width:4; stroke-opacity:1; fill:none" points="1107.99,1423.18 1107.99,1404.28 "/>
<polyline clip-path="url(#clip320)" style="stroke:#000000; stroke-linecap:round; stroke-linejoin:round; stroke-width:4; stroke-opacity:1; fill:none" points="1605.9,1423.18 1605.9,1404.28 "/>
<polyline clip-path="url(#clip320)" style="stroke:#000000; stroke-linecap:round; stroke-linejoin:round; stroke-width:4; stroke-opacity:1; fill:none" points="2103.8,1423.18 2103.8,1404.28 "/>
<path clip-path="url(#clip320)" d="M112.177 1454.1 Q108.566 1454.1 106.737 1457.66 Q104.932 1461.2 104.932 1468.33 Q104.932 1475.44 106.737 1479.01 Q108.566 1482.55 112.177 1482.55 Q115.811 1482.55 117.617 1479.01 Q119.446 1475.44 119.446 1468.33 Q119.446 1461.2 117.617 1457.66 Q115.811 1454.1 112.177 1454.1 M112.177 1450.39 Q117.987 1450.39 121.043 1455 Q124.122 1459.58 124.122 1468.33 Q124.122 1477.06 121.043 1481.67 Q117.987 1486.25 112.177 1486.25 Q106.367 1486.25 103.288 1481.67 Q100.233 1477.06 100.233 1468.33 Q100.233 1459.58 103.288 1455 Q106.367 1450.39 112.177 1450.39 Z" fill="#000000" fill-rule="nonzero" fill-opacity="1" /><path clip-path="url(#clip320)" d="M584.771 1481.64 L592.41 1481.64 L592.41 1455.28 L584.1 1456.95 L584.1 1452.69 L592.364 1451.02 L597.04 1451.02 L597.04 1481.64 L604.678 1481.64 L604.678 1485.58 L584.771 1485.58 L584.771 1481.64 Z" fill="#000000" fill-rule="nonzero" fill-opacity="1" /><path clip-path="url(#clip320)" d="M624.123 1454.1 Q620.512 1454.1 618.683 1457.66 Q616.878 1461.2 616.878 1468.33 Q616.878 1475.44 618.683 1479.01 Q620.512 1482.55 624.123 1482.55 Q627.757 1482.55 629.563 1479.01 Q631.391 1475.44 631.391 1468.33 Q631.391 1461.2 629.563 1457.66 Q627.757 1454.1 624.123 1454.1 M624.123 1450.39 Q629.933 1450.39 632.989 1455 Q636.067 1459.58 636.067 1468.33 Q636.067 1477.06 632.989 1481.67 Q629.933 1486.25 624.123 1486.25 Q618.313 1486.25 615.234 1481.67 Q612.178 1477.06 612.178 1468.33 Q612.178 1459.58 615.234 1455 Q618.313 1450.39 624.123 1450.39 Z" fill="#000000" fill-rule="nonzero" fill-opacity="1" /><path clip-path="url(#clip320)" d="M1086.76 1481.64 L1103.08 1481.64 L1103.08 1485.58 L1081.14 1485.58 L1081.14 1481.64 Q1083.8 1478.89 1088.38 1474.26 Q1092.99 1469.61 1094.17 1468.27 Q1096.42 1465.74 1097.3 1464.01 Q1098.2 1462.25 1098.2 1460.56 Q1098.2 1457.8 1096.25 1456.07 Q1094.33 1454.33 1091.23 1454.33 Q1089.03 1454.33 1086.58 1455.09 Q1084.15 1455.86 1081.37 1457.41 L1081.37 1452.69 Q1084.19 1451.55 1086.65 1450.97 Q1089.1 1450.39 1091.14 1450.39 Q1096.51 1450.39 1099.7 1453.08 Q1102.9 1455.77 1102.9 1460.26 Q1102.9 1462.39 1102.09 1464.31 Q1101.3 1466.2 1099.19 1468.8 Q1098.61 1469.47 1095.51 1472.69 Q1092.41 1475.88 1086.76 1481.64 Z" fill="#000000" fill-rule="nonzero" fill-opacity="1" /><path clip-path="url(#clip320)" d="M1122.9 1454.1 Q1119.29 1454.1 1117.46 1457.66 Q1115.65 1461.2 1115.65 1468.33 Q1115.65 1475.44 1117.46 1479.01 Q1119.29 1482.55 1122.9 1482.55 Q1126.53 1482.55 1128.34 1479.01 Q1130.17 1475.44 1130.17 1468.33 Q1130.17 1461.2 1128.34 1457.66 Q1126.53 1454.1 1122.9 1454.1 M1122.9 1450.39 Q1128.71 1450.39 1131.76 1455 Q1134.84 1459.58 1134.84 1468.33 Q1134.84 1477.06 1131.76 1481.67 Q1128.71 1486.25 1122.9 1486.25 Q1117.09 1486.25 1114.01 1481.67 Q1110.95 1477.06 1110.95 1468.33 Q1110.95 1459.58 1114.01 1455 Q1117.09 1450.39 1122.9 1450.39 Z" fill="#000000" fill-rule="nonzero" fill-opacity="1" /><path clip-path="url(#clip320)" d="M1594.74 1466.95 Q1598.1 1467.66 1599.97 1469.93 Q1601.87 1472.2 1601.87 1475.53 Q1601.87 1480.65 1598.35 1483.45 Q1594.83 1486.25 1588.35 1486.25 Q1586.17 1486.25 1583.86 1485.81 Q1581.57 1485.39 1579.11 1484.54 L1579.11 1480.02 Q1581.06 1481.16 1583.37 1481.74 Q1585.69 1482.32 1588.21 1482.32 Q1592.61 1482.32 1594.9 1480.58 Q1597.22 1478.84 1597.22 1475.53 Q1597.22 1472.48 1595.06 1470.77 Q1592.93 1469.03 1589.11 1469.03 L1585.09 1469.03 L1585.09 1465.19 L1589.3 1465.19 Q1592.75 1465.19 1594.58 1463.82 Q1596.41 1462.43 1596.41 1459.84 Q1596.41 1457.18 1594.51 1455.77 Q1592.63 1454.33 1589.11 1454.33 Q1587.19 1454.33 1584.99 1454.75 Q1582.79 1455.16 1580.16 1456.04 L1580.16 1451.88 Q1582.82 1451.14 1585.13 1450.77 Q1587.47 1450.39 1589.53 1450.39 Q1594.85 1450.39 1597.96 1452.83 Q1601.06 1455.23 1601.06 1459.35 Q1601.06 1462.22 1599.41 1464.21 Q1597.77 1466.18 1594.74 1466.95 Z" fill="#000000" fill-rule="nonzero" fill-opacity="1" /><path clip-path="url(#clip320)" d="M1620.73 1454.1 Q1617.12 1454.1 1615.29 1457.66 Q1613.49 1461.2 1613.49 1468.33 Q1613.49 1475.44 1615.29 1479.01 Q1617.12 1482.55 1620.73 1482.55 Q1624.37 1482.55 1626.17 1479.01 Q1628 1475.44 1628 1468.33 Q1628 1461.2 1626.17 1457.66 Q1624.37 1454.1 1620.73 1454.1 M1620.73 1450.39 Q1626.54 1450.39 1629.6 1455 Q1632.68 1459.58 1632.68 1468.33 Q1632.68 1477.06 1629.6 1481.67 Q1626.54 1486.25 1620.73 1486.25 Q1614.92 1486.25 1611.85 1481.67 Q1608.79 1477.06 1608.79 1468.33 Q1608.79 1459.58 1611.85 1455 Q1614.92 1450.39 1620.73 1450.39 Z" fill="#000000" fill-rule="nonzero" fill-opacity="1" /><path clip-path="url(#clip320)" d="M2091.97 1455.09 L2080.17 1473.54 L2091.97 1473.54 L2091.97 1455.09 M2090.75 1451.02 L2096.63 1451.02 L2096.63 1473.54 L2101.56 1473.54 L2101.56 1477.43 L2096.63 1477.43 L2096.63 1485.58 L2091.97 1485.58 L2091.97 1477.43 L2076.37 1477.43 L2076.37 1472.92 L2090.75 1451.02 Z" fill="#000000" fill-rule="nonzero" fill-opacity="1" /><path clip-path="url(#clip320)" d="M2119.29 1454.1 Q2115.68 1454.1 2113.85 1457.66 Q2112.04 1461.2 2112.04 1468.33 Q2112.04 1475.44 2113.85 1479.01 Q2115.68 1482.55 2119.29 1482.55 Q2122.92 1482.55 2124.73 1479.01 Q2126.56 1475.44 2126.56 1468.33 Q2126.56 1461.2 2124.73 1457.66 Q2122.92 1454.1 2119.29 1454.1 M2119.29 1450.39 Q2125.1 1450.39 2128.15 1455 Q2131.23 1459.58 2131.23 1468.33 Q2131.23 1477.06 2128.15 1481.67 Q2125.1 1486.25 2119.29 1486.25 Q2113.48 1486.25 2110.4 1481.67 Q2107.34 1477.06 2107.34 1468.33 Q2107.34 1459.58 2110.4 1455 Q2113.48 1450.39 2119.29 1450.39 Z" fill="#000000" fill-rule="nonzero" fill-opacity="1" /><path clip-path="url(#clip320)" d="M1231.53 1522.27 L1231.53 1532.4 L1243.59 1532.4 L1243.59 1536.95 L1231.53 1536.95 L1231.53 1556.3 Q1231.53 1560.66 1232.71 1561.9 Q1233.91 1563.14 1237.58 1563.14 L1243.59 1563.14 L1243.59 1568.04 L1237.58 1568.04 Q1230.8 1568.04 1228.22 1565.53 Q1225.64 1562.98 1225.64 1556.3 L1225.64 1536.95 L1221.34 1536.95 L1221.34 1532.4 L1225.64 1532.4 L1225.64 1522.27 L1231.53 1522.27 Z" fill="#000000" fill-rule="nonzero" fill-opacity="1" /><polyline clip-path="url(#clip320)" style="stroke:#000000; stroke-linecap:round; stroke-linejoin:round; stroke-width:4; stroke-opacity:1; fill:none" points="112.177,1423.18 112.177,47.2441 "/>
<polyline clip-path="url(#clip320)" style="stroke:#000000; stroke-linecap:round; stroke-linejoin:round; stroke-width:4; stroke-opacity:1; fill:none" points="112.177,1416.36 131.075,1416.36 "/>
<polyline clip-path="url(#clip320)" style="stroke:#000000; stroke-linecap:round; stroke-linejoin:round; stroke-width:4; stroke-opacity:1; fill:none" points="112.177,1095.16 131.075,1095.16 "/>
<polyline clip-path="url(#clip320)" style="stroke:#000000; stroke-linecap:round; stroke-linejoin:round; stroke-width:4; stroke-opacity:1; fill:none" points="112.177,773.962 131.075,773.962 "/>
<polyline clip-path="url(#clip320)" style="stroke:#000000; stroke-linecap:round; stroke-linejoin:round; stroke-width:4; stroke-opacity:1; fill:none" points="112.177,452.763 131.075,452.763 "/>
<polyline clip-path="url(#clip320)" style="stroke:#000000; stroke-linecap:round; stroke-linejoin:round; stroke-width:4; stroke-opacity:1; fill:none" points="112.177,131.565 131.075,131.565 "/>
<path clip-path="url(#clip320)" d="M64.2328 1402.16 Q60.6217 1402.16 58.793 1405.72 Q56.9875 1409.26 56.9875 1416.39 Q56.9875 1423.5 58.793 1427.06 Q60.6217 1430.61 64.2328 1430.61 Q67.867 1430.61 69.6726 1427.06 Q71.5013 1423.5 71.5013 1416.39 Q71.5013 1409.26 69.6726 1405.72 Q67.867 1402.16 64.2328 1402.16 M64.2328 1398.45 Q70.0429 1398.45 73.0985 1403.06 Q76.1772 1407.64 76.1772 1416.39 Q76.1772 1425.12 73.0985 1429.73 Q70.0429 1434.31 64.2328 1434.31 Q58.4226 1434.31 55.344 1429.73 Q52.2884 1425.12 52.2884 1416.39 Q52.2884 1407.64 55.344 1403.06 Q58.4226 1398.45 64.2328 1398.45 Z" fill="#000000" fill-rule="nonzero" fill-opacity="1" /><path clip-path="url(#clip320)" d="M56.2699 1108.5 L63.9087 1108.5 L63.9087 1082.14 L55.5986 1083.81 L55.5986 1079.55 L63.8624 1077.88 L68.5383 1077.88 L68.5383 1108.5 L76.1772 1108.5 L76.1772 1112.44 L56.2699 1112.44 L56.2699 1108.5 Z" fill="#000000" fill-rule="nonzero" fill-opacity="1" /><path clip-path="url(#clip320)" d="M59.8578 787.306 L76.1772 787.306 L76.1772 791.242 L54.2328 791.242 L54.2328 787.306 Q56.8949 784.552 61.4782 779.922 Q66.0846 775.269 67.2652 773.927 Q69.5105 771.404 70.3902 769.668 Q71.2929 767.908 71.2929 766.219 Q71.2929 763.464 69.3485 761.728 Q67.4272 759.992 64.3254 759.992 Q62.1263 759.992 59.6726 760.756 Q57.2421 761.52 54.4643 763.07 L54.4643 758.348 Q57.2884 757.214 59.7421 756.635 Q62.1958 756.057 64.2328 756.057 Q69.6031 756.057 72.7976 758.742 Q75.992 761.427 75.992 765.918 Q75.992 768.047 75.1818 769.969 Q74.3948 771.867 72.2883 774.459 Q71.7096 775.131 68.6078 778.348 Q65.5059 781.543 59.8578 787.306 Z" fill="#000000" fill-rule="nonzero" fill-opacity="1" /><path clip-path="url(#clip320)" d="M69.0476 451.409 Q72.404 452.127 74.279 454.395 Q76.1772 456.664 76.1772 459.997 Q76.1772 465.113 72.6587 467.914 Q69.1402 470.715 62.6587 470.715 Q60.4828 470.715 58.168 470.275 Q55.8764 469.858 53.4227 469.002 L53.4227 464.488 Q55.3671 465.622 57.6819 466.201 Q59.9967 466.779 62.5198 466.779 Q66.918 466.779 69.2096 465.043 Q71.5244 463.307 71.5244 459.997 Q71.5244 456.942 69.3717 455.229 Q67.242 453.492 63.4226 453.492 L59.3949 453.492 L59.3949 449.65 L63.6078 449.65 Q67.0569 449.65 68.8855 448.284 Q70.7142 446.895 70.7142 444.303 Q70.7142 441.641 68.8161 440.229 Q66.9411 438.793 63.4226 438.793 Q61.5013 438.793 59.3023 439.21 Q57.1032 439.627 54.4643 440.506 L54.4643 436.34 Q57.1264 435.599 59.4412 435.229 Q61.7791 434.858 63.8393 434.858 Q69.1633 434.858 72.2652 437.289 Q75.367 439.696 75.367 443.817 Q75.367 446.687 73.7235 448.678 Q72.08 450.645 69.0476 451.409 Z" fill="#000000" fill-rule="nonzero" fill-opacity="1" /><path clip-path="url(#clip320)" d="M66.5939 118.359 L54.7884 136.808 L66.5939 136.808 L66.5939 118.359 M65.367 114.285 L71.2466 114.285 L71.2466 136.808 L76.1772 136.808 L76.1772 140.697 L71.2466 140.697 L71.2466 148.845 L66.5939 148.845 L66.5939 140.697 L50.9921 140.697 L50.9921 136.183 L65.367 114.285 Z" fill="#000000" fill-rule="nonzero" fill-opacity="1" /><polyline clip-path="url(#clip321)" style="stroke:#009af9; stroke-linecap:round; stroke-linejoin:round; stroke-width:24; stroke-opacity:1; fill:none" points="112.177,773.962 114.42,788.262 116.663,802.226 118.906,815.846 121.148,829.108 123.391,842 125.634,854.509 127.877,866.623 130.12,878.329 132.363,889.622 134.605,900.494 136.848,910.943 139.091,920.969 141.334,930.572 143.577,939.76 145.819,948.536 148.062,956.911 150.305,964.893 152.548,972.492 154.791,979.722 157.034,986.595 159.276,993.123 161.519,999.32 163.762,1005.2 166.005,1010.78 168.248,1016.06 170.491,1021.07 172.733,1025.81 174.976,1030.29 177.219,1034.54 179.462,1038.56 181.705,1042.36 183.947,1045.95 186.19,1049.35 188.433,1052.56 190.676,1055.59 192.919,1058.45 195.162,1061.16 197.404,1063.71 199.647,1066.12 201.89,1068.39 204.133,1070.53 206.376,1072.55 208.619,1074.46 210.861,1076.25 213.104,1077.94 215.347,1079.53 217.59,1081.02 219.833,1082.42 222.075,1083.74 224.318,1084.98 226.561,1086.15 228.804,1087.24 231.047,1088.26 233.29,1089.22 235.532,1090.12 237.775,1090.95 240.018,1091.74 242.261,1092.46 244.504,1093.14 246.746,1093.77 248.989,1094.36 251.232,1094.9 253.475,1095.4 255.718,1095.86 257.961,1096.28 260.203,1096.67 262.446,1097.03 264.689,1097.36 266.932,1097.65 269.175,1097.92 271.418,1098.16 273.66,1098.37 275.903,1098.56 278.146,1098.72 280.389,1098.86 282.632,1098.98 284.874,1099.08 287.117,1099.16 289.36,1099.22 291.603,1099.27 293.846,1099.29 296.089,1099.31 298.331,1099.3 300.574,1099.28 302.817,1099.25 305.06,1099.2 307.303,1099.15 309.545,1099.08 311.788,1098.99 314.031,1098.9 316.274,1098.79 318.517,1098.68 320.76,1098.55 323.002,1098.42 325.245,1098.27 327.488,1098.12 329.731,1097.95 331.974,1097.78 334.217,1097.61 336.459,1097.42 338.702,1097.23 340.945,1097.03 343.188,1096.82 345.431,1096.61 347.673,1096.39 349.916,1096.17 352.159,1095.94 354.402,1095.7 356.645,1095.46 358.888,1095.22 361.13,1094.96 363.373,1094.71 365.616,1094.44 367.859,1094.18 370.102,1093.9 372.344,1093.63 374.587,1093.35 376.83,1093.06 379.073,1092.77 381.316,1092.48 383.559,1092.18 385.801,1091.88 388.044,1091.57 390.287,1091.26 392.53,1090.95 394.773,1090.63 397.016,1090.31 399.258,1089.99 401.501,1089.66 403.744,1089.33 405.987,1089 408.23,1088.66 410.472,1088.32 412.715,1087.97 414.958,1087.63 417.201,1087.28 419.444,1086.92 421.687,1086.57 423.929,1086.21 426.172,1085.84 428.415,1085.48 430.658,1085.11 432.901,1084.74 435.143,1084.36 437.386,1083.98 439.629,1083.6 441.872,1083.22 444.115,1082.83 446.358,1082.44 448.6,1082.05 450.843,1081.65 453.086,1081.25 455.329,1080.85 457.572,1080.44 459.815,1080.04 462.057,1079.63 464.3,1079.22 466.543,1078.8 468.786,1078.38 471.029,1077.96 473.271,1077.54 475.514,1077.11 477.757,1076.68 480,1076.25 482.243,1075.81 484.486,1075.37 486.728,1074.93 488.971,1074.49 491.214,1074.04 493.457,1073.59 495.7,1073.14 497.942,1072.69 500.185,1072.23 502.428,1071.77 504.671,1071.3 506.914,1070.84 509.157,1070.37 511.399,1069.9 513.642,1069.42 515.885,1068.94 518.128,1068.46 520.371,1067.98 522.614,1067.49 524.856,1067 527.099,1066.51 529.342,1066.02 531.585,1065.52 533.828,1065.02 536.07,1064.52 538.313,1064.01 540.556,1063.5 542.799,1062.99 545.042,1062.48 547.285,1061.96 549.527,1061.44 551.77,1060.92 554.013,1060.39 556.256,1059.86 558.499,1059.33 560.741,1058.8 562.984,1058.26 565.227,1057.72 567.47,1057.18 569.713,1056.63 571.956,1056.08 574.198,1055.53 576.441,1054.98 578.684,1054.42 580.927,1053.86 583.17,1053.3 585.413,1052.74 587.655,1052.17 589.898,1051.6 592.141,1051.02 594.384,1050.45 596.627,1049.87 598.869,1049.28 601.112,1048.7 603.355,1048.11 605.598,1047.52 607.841,1046.93 610.084,1046.33 612.326,1045.73 614.569,1045.13 616.812,1044.53 619.055,1043.92 621.298,1043.31 623.54,1042.7 625.783,1042.08 628.026,1041.47 630.269,1040.84 632.512,1040.22 634.755,1039.6 636.997,1038.97 639.24,1038.33 641.483,1037.7 643.726,1037.06 645.969,1036.42 648.212,1035.78 650.454,1035.13 652.697,1034.48 654.94,1033.83 657.183,1033.18 659.426,1032.52 661.668,1031.86 663.911,1031.2 666.154,1030.53 668.397,1029.87 670.64,1029.2 672.883,1028.52 675.125,1027.85 677.368,1027.17 679.611,1026.49 681.854,1025.81 684.097,1025.12 686.339,1024.44 688.582,1023.75 690.825,1023.06 693.068,1022.36 695.311,1021.67 697.554,1020.97 699.796,1020.27 702.039,1019.57 704.282,1018.86 706.525,1018.16 708.768,1017.45 711.011,1016.74 713.253,1016.02 715.496,1015.31 717.739,1014.59 719.982,1013.87 722.225,1013.15 724.467,1012.43 726.71,1011.71 728.953,1010.98 731.196,1010.25 733.439,1009.52 735.682,1008.79 737.924,1008.06 740.167,1007.32 742.41,1006.58 744.653,1005.84 746.896,1005.1 749.138,1004.36 751.381,1003.61 753.624,1002.87 755.867,1002.12 758.11,1001.37 760.353,1000.61 762.595,999.859 764.838,999.102 767.081,998.344 769.324,997.584 771.567,996.822 773.81,996.059 776.052,995.293 778.295,994.526 780.538,993.757 782.781,992.986 785.024,992.213 787.266,991.439 789.509,990.664 791.752,989.887 793.995,989.109 796.238,988.329 798.481,987.549 800.723,986.767 802.966,985.984 805.209,985.201 807.452,984.416 809.695,983.63 811.938,982.844 814.18,982.057 816.423,981.269 818.666,980.48 820.909,979.69 823.152,978.9 825.394,978.11 827.637,977.319 829.88,976.527 832.123,975.735 834.366,974.942 836.609,974.149 838.851,973.356 841.094,972.563 843.337,971.769 845.58,970.975 847.823,970.18 850.065,969.386 852.308,968.591 854.551,967.797 856.794,967.002 859.037,966.207 861.28,965.412 863.522,964.617 865.765,963.822 868.008,963.027 870.251,962.232 872.494,961.437 874.737,960.642 876.979,959.847 879.222,959.052 881.465,958.257 883.708,957.462 885.951,956.668 888.193,955.873 890.436,955.079 892.679,954.285 894.922,953.49 897.165,952.696 899.408,951.903 901.65,951.109 903.893,950.315 906.136,949.521 908.379,948.728 910.622,947.935 912.864,947.143 915.107,946.351 917.35,945.56 919.593,944.769 921.836,943.979 924.079,943.19 926.321,942.402 928.564,941.615 930.807,940.829 933.05,940.045 935.293,939.261 937.536,938.479 939.778,937.698 942.021,936.918 944.264,936.14 946.507,935.363 948.75,934.588 950.992,933.814 953.235,933.042 955.478,932.271 957.721,931.503 959.964,930.736 962.207,929.971 964.449,929.207 966.692,928.446 968.935,927.686 971.178,926.928 973.421,926.172 975.663,925.418 977.906,924.666 980.149,923.916 982.392,923.168 984.635,922.422 986.878,921.678 989.12,920.936 991.363,920.196 993.606,919.458 995.849,918.722 998.092,917.988 1000.33,917.256 1002.58,916.527 1004.82,915.799 1007.06,915.073 1009.31,914.349 1011.55,913.627 1013.79,912.907 1016.03,912.189 1018.28,911.473 1020.52,910.758 1022.76,910.046 1025.01,909.335 1027.25,908.626 1029.49,907.919 1031.73,907.214 1033.98,906.51 1036.22,905.808 1038.46,905.108 1040.71,904.409 1042.95,903.713 1045.19,903.019 1047.43,902.327 1049.68,901.638 1051.92,900.951 1054.16,900.266 1056.41,899.584 1058.65,898.904 1060.89,898.227 1063.13,897.552 1065.38,896.88 1067.62,896.211 1069.86,895.545 1072.1,894.881 1074.35,894.22 1076.59,893.562 1078.83,892.907 1081.08,892.255 1083.32,891.605 1085.56,890.959 1087.8,890.316 1090.05,889.675 1092.29,889.038 1094.53,888.404 1096.78,887.773 1099.02,887.145 1101.26,886.52 1103.5,885.898 1105.75,885.279 1107.99,884.663 1110.23,884.051 1112.48,883.441 1114.72,882.835 1116.96,882.232 1119.2,881.631 1121.45,881.034 1123.69,880.44 1125.93,879.849 1128.18,879.261 1130.42,878.676 1132.66,878.094 1134.9,877.516 1137.15,876.94 1139.39,876.366 1141.63,875.796 1143.88,875.229 1146.12,874.664 1148.36,874.103 1150.6,873.544 1152.85,872.987 1155.09,872.434 1157.33,871.883 1159.57,871.334 1161.82,870.789 1164.06,870.245 1166.3,869.704 1168.55,869.166 1170.79,868.629 1173.03,868.095 1175.27,867.564 1177.52,867.035 1179.76,866.509 1182,865.985 1184.25,865.465 1186.49,864.947 1188.73,864.431 1190.97,863.919 1193.22,863.41 1195.46,862.903 1197.7,862.399 1199.95,861.899 1202.19,861.401 1204.43,860.906 1206.67,860.414 1208.92,859.926 1211.16,859.44 1213.4,858.957 1215.65,858.477 1217.89,858.001 1220.13,857.527 1222.37,857.057 1224.62,856.59 1226.86,856.125 1229.1,855.664 1231.35,855.206 1233.59,854.751 1235.83,854.3 1238.07,853.851 1240.32,853.405 1242.56,852.963 1244.8,852.523 1247.04,852.087 1249.29,851.653 1251.53,851.223 1253.77,850.795 1256.02,850.371 1258.26,849.95 1260.5,849.531 1262.74,849.116 1264.99,848.703 1267.23,848.293 1269.47,847.886 1271.72,847.482 1273.96,847.081 1276.2,846.682 1278.44,846.286 1280.69,845.893 1282.93,845.503 1285.17,845.115 1287.42,844.729 1289.66,844.346 1291.9,843.966 1294.14,843.588 1296.39,843.212 1298.63,842.839 1300.87,842.468 1303.12,842.099 1305.36,841.733 1307.6,841.368 1309.84,841.006 1312.09,840.645 1314.33,840.287 1316.57,839.93 1318.82,839.575 1321.06,839.223 1323.3,838.873 1325.54,838.525 1327.79,838.18 1330.03,837.837 1332.27,837.496 1334.51,837.157 1336.76,836.821 1339,836.487 1341.24,836.155 1343.49,835.826 1345.73,835.5 1347.97,835.175 1350.21,834.853 1352.46,834.533 1354.7,834.216 1356.94,833.901 1359.19,833.589 1361.43,833.279 1363.67,832.971 1365.91,832.666 1368.16,832.363 1370.4,832.063 1372.64,831.765 1374.89,831.469 1377.13,831.175 1379.37,830.884 1381.61,830.596 1383.86,830.309 1386.1,830.026 1388.34,829.744 1390.59,829.465 1392.83,829.187 1395.07,828.913 1397.31,828.64 1399.56,828.37 1401.8,828.102 1404.04,827.836 1406.29,827.572 1408.53,827.311 1410.77,827.052 1413.01,826.794 1415.26,826.539 1417.5,826.286 1419.74,826.035 1421.98,825.786 1424.23,825.539 1426.47,825.294 1428.71,825.051 1430.96,824.81 1433.2,824.571 1435.44,824.333 1437.68,824.098 1439.93,823.864 1442.17,823.632 1444.41,823.401 1446.66,823.173 1448.9,822.945 1451.14,822.72 1453.38,822.496 1455.63,822.273 1457.87,822.052 1460.11,821.833 1462.36,821.614 1464.6,821.397 1466.84,821.182 1469.08,820.967 1471.33,820.754 1473.57,820.543 1475.81,820.333 1478.06,820.124 1480.3,819.917 1482.54,819.712 1484.78,819.508 1487.03,819.306 1489.27,819.105 1491.51,818.906 1493.76,818.708 1496,818.512 1498.24,818.317 1500.48,818.124 1502.73,817.933 1504.97,817.743 1507.21,817.555 1509.46,817.368 1511.7,817.183 1513.94,816.999 1516.18,816.817 1518.43,816.637 1520.67,816.458 1522.91,816.28 1525.15,816.104 1527.4,815.93 1529.64,815.757 1531.88,815.586 1534.13,815.416 1536.37,815.248 1538.61,815.081 1540.85,814.916 1543.1,814.752 1545.34,814.59 1547.58,814.429 1549.83,814.27 1552.07,814.112 1554.31,813.955 1556.55,813.8 1558.8,813.647 1561.04,813.494 1563.28,813.343 1565.53,813.194 1567.77,813.046 1570.01,812.899 1572.25,812.754 1574.5,812.609 1576.74,812.467 1578.98,812.325 1581.23,812.185 1583.47,812.046 1585.71,811.908 1587.95,811.771 1590.2,811.635 1592.44,811.501 1594.68,811.368 1596.93,811.236 1599.17,811.105 1601.41,810.975 1603.65,810.846 1605.9,810.718 1608.14,810.591 1610.38,810.465 1612.62,810.34 1614.87,810.216 1617.11,810.093 1619.35,809.971 1621.6,809.849 1623.84,809.728 1626.08,809.608 1628.32,809.489 1630.57,809.371 1632.81,809.253 1635.05,809.136 1637.3,809.02 1639.54,808.904 1641.78,808.789 1644.02,808.676 1646.27,808.563 1648.51,808.45 1650.75,808.339 1653,808.229 1655.24,808.119 1657.48,808.011 1659.72,807.903 1661.97,807.796 1664.21,807.69 1666.45,807.585 1668.7,807.481 1670.94,807.377 1673.18,807.275 1675.42,807.173 1677.67,807.073 1679.91,806.973 1682.15,806.874 1684.4,806.776 1686.64,806.679 1688.88,806.583 1691.12,806.487 1693.37,806.393 1695.61,806.299 1697.85,806.207 1700.09,806.115 1702.34,806.024 1704.58,805.934 1706.82,805.844 1709.07,805.756 1711.31,805.668 1713.55,805.582 1715.79,805.496 1718.04,805.411 1720.28,805.327 1722.52,805.243 1724.77,805.161 1727.01,805.079 1729.25,804.998 1731.49,804.918 1733.74,804.839 1735.98,804.76 1738.22,804.682 1740.47,804.605 1742.71,804.529 1744.95,804.453 1747.19,804.378 1749.44,804.304 1751.68,804.231 1753.92,804.158 1756.17,804.086 1758.41,804.015 1760.65,803.944 1762.89,803.874 1765.14,803.805 1767.38,803.737 1769.62,803.668 1771.87,803.601 1774.11,803.534 1776.35,803.468 1778.59,803.402 1780.84,803.337 1783.08,803.272 1785.32,803.208 1787.56,803.145 1789.81,803.082 1792.05,803.019 1794.29,802.957 1796.54,802.895 1798.78,802.834 1801.02,802.773 1803.26,802.713 1805.51,802.653 1807.75,802.593 1809.99,802.533 1812.24,802.474 1814.48,802.416 1816.72,802.357 1818.96,802.299 1821.21,802.241 1823.45,802.183 1825.69,802.126 1827.94,802.069 1830.18,802.013 1832.42,801.957 1834.66,801.902 1836.91,801.846 1839.15,801.792 1841.39,801.737 1843.64,801.683 1845.88,801.63 1848.12,801.577 1850.36,801.524 1852.61,801.472 1854.85,801.421 1857.09,801.369 1859.34,801.319 1861.58,801.268 1863.82,801.218 1866.06,801.169 1868.31,801.12 1870.55,801.071 1872.79,801.023 1875.03,800.976 1877.28,800.928 1879.52,800.882 1881.76,800.836 1884.01,800.79 1886.25,800.744 1888.49,800.7 1890.73,800.655 1892.98,800.611 1895.22,800.568 1897.46,800.525 1899.71,800.482 1901.95,800.44 1904.19,800.398 1906.43,800.357 1908.68,800.316 1910.92,800.276 1913.16,800.236 1915.41,800.197 1917.65,800.158 1919.89,800.119 1922.13,800.081 1924.38,800.043 1926.62,800.006 1928.86,799.969 1931.11,799.933 1933.35,799.896 1935.59,799.861 1937.83,799.825 1940.08,799.791 1942.32,799.756 1944.56,799.722 1946.81,799.688 1949.05,799.655 1951.29,799.622 1953.53,799.589 1955.78,799.557 1958.02,799.525 1960.26,799.493 1962.5,799.462 1964.75,799.43 1966.99,799.4 1969.23,799.369 1971.48,799.339 1973.72,799.309 1975.96,799.28 1978.2,799.25 1980.45,799.221 1982.69,799.192 1984.93,799.164 1987.18,799.135 1989.42,799.107 1991.66,799.079 1993.9,799.051 1996.15,799.024 1998.39,798.996 2000.63,798.969 2002.88,798.942 2005.12,798.915 2007.36,798.888 2009.6,798.861 2011.85,798.834 2014.09,798.808 2016.33,798.781 2018.58,798.755 2020.82,798.728 2023.06,798.702 2025.3,798.675 2027.55,798.649 2029.79,798.623 2032.03,798.596 2034.28,798.57 2036.52,798.544 2038.76,798.518 2041,798.493 2043.25,798.467 2045.49,798.442 2047.73,798.416 2049.97,798.391 2052.22,798.366 2054.46,798.341 2056.7,798.317 2058.95,798.292 2061.19,798.268 2063.43,798.244 2065.67,798.22 2067.92,798.196 2070.16,798.173 2072.4,798.15 2074.65,798.126 2076.89,798.104 2079.13,798.081 2081.37,798.059 2083.62,798.037 2085.86,798.015 2088.1,797.993 2090.35,797.972 2092.59,797.951 2094.83,797.93 2097.07,797.909 2099.32,797.889 2101.56,797.869 2103.8,797.849 2106.05,797.829 2108.29,797.81 2110.53,797.791 2112.77,797.772 2115.02,797.753 2117.26,797.735 2119.5,797.717 2121.75,797.699 2123.99,797.682 2126.23,797.664 2128.47,797.647 2130.72,797.631 2132.96,797.614 2135.2,797.598 2137.45,797.582 2139.69,797.566 2141.93,797.551 2144.17,797.535 2146.42,797.52 2148.66,797.506 2150.9,797.491 2153.14,797.477 2155.39,797.463 2157.63,797.449 2159.87,797.435 2162.12,797.422 2164.36,797.409 2166.6,797.395 2168.84,797.383 2171.09,797.37 2173.33,797.358 2175.57,797.345 2177.82,797.333 2180.06,797.321 2182.3,797.31 2184.54,797.298 2186.79,797.286 2189.03,797.275 2191.27,797.264 2193.52,797.253 2195.76,797.242 2198,797.231 2200.24,797.22 2202.49,797.21 2204.73,797.199 2206.97,797.189 2209.22,797.178 2211.46,797.168 2213.7,797.157 2215.94,797.147 2218.19,797.137 2220.43,797.126 2222.67,797.116 2224.92,797.106 2227.16,797.095 2229.4,797.085 2231.64,797.075 2233.89,797.064 2236.13,797.054 2238.37,797.043 2240.61,797.032 2242.86,797.021 2245.1,797.01 2247.34,796.999 2249.59,796.988 2251.83,796.977 2254.07,796.965 2256.31,796.953 2258.56,796.942 2260.8,796.931 2263.04,796.919 2265.29,796.908 2267.53,796.897 2269.77,796.887 2272.01,796.876 2274.26,796.865 2276.5,796.855 2278.74,796.845 2280.99,796.834 2283.23,796.824 2285.47,796.814 2287.71,796.804 2289.96,796.794 2292.2,796.785 2294.44,796.775 2296.69,796.766 2298.93,796.756 2301.17,796.747 2303.41,796.738 2305.66,796.729 2307.9,796.72 2310.14,796.711 2312.39,796.702 2314.63,796.694 2316.87,796.685 2319.11,796.677 2321.36,796.668 2323.6,796.66 2325.84,796.652 2328.08,796.644 2330.33,796.636 2332.57,796.628 2334.81,796.62 2337.06,796.612 2339.3,796.604 2341.54,796.596 2343.78,796.589 2346.03,796.581 2348.27,796.574 2350.51,796.567 2352.76,796.559 "/>
<polyline clip-path="url(#clip321)" style="stroke:#e26f46; stroke-linecap:round; stroke-linejoin:round; stroke-width:24; stroke-opacity:1; fill:none" points="112.177,1384.24 114.42,1356.66 116.663,1330.33 118.906,1305.2 121.148,1281.22 123.391,1258.36 125.634,1236.58 127.877,1215.83 130.12,1196.07 132.363,1177.27 134.605,1159.38 136.848,1142.36 139.091,1126.17 141.334,1110.79 143.577,1096.16 145.819,1082.26 148.062,1069.05 150.305,1056.5 152.548,1044.58 154.791,1033.25 157.034,1022.49 159.276,1012.27 161.519,1002.55 163.762,993.326 166.005,984.56 168.248,976.231 170.491,968.316 172.733,960.795 174.976,953.646 177.219,946.85 179.462,940.39 181.705,934.247 183.947,928.406 186.19,922.852 188.433,917.568 190.676,912.541 192.919,907.758 195.162,903.205 197.404,898.87 199.647,894.741 201.89,890.808 204.133,887.061 206.376,883.49 208.619,880.086 210.861,876.841 213.104,873.745 215.347,870.792 217.59,867.974 219.833,865.283 222.075,862.713 224.318,860.256 226.561,857.907 228.804,855.66 231.047,853.51 233.29,851.452 235.532,849.481 237.775,847.592 240.018,845.783 242.261,844.047 244.504,842.382 246.746,840.783 248.989,839.247 251.232,837.771 253.475,836.35 255.718,834.982 257.961,833.664 260.203,832.393 262.446,831.167 264.689,829.983 266.932,828.838 269.175,827.732 271.418,826.662 273.66,825.627 275.903,824.623 278.146,823.65 280.389,822.706 282.632,821.789 284.874,820.897 287.117,820.029 289.36,819.184 291.603,818.36 293.846,817.555 296.089,816.769 298.331,816 300.574,815.247 302.817,814.51 305.06,813.787 307.303,813.078 309.545,812.382 311.788,811.698 314.031,811.026 316.274,810.364 318.517,809.713 320.76,809.071 323.002,808.437 325.245,807.812 327.488,807.194 329.731,806.583 331.974,805.978 334.217,805.379 336.459,804.785 338.702,804.195 340.945,803.61 343.188,803.028 345.431,802.45 347.673,801.874 349.916,801.302 352.159,800.732 354.402,800.165 356.645,799.599 358.888,799.035 361.13,798.473 363.373,797.913 365.616,797.353 367.859,796.794 370.102,796.236 372.344,795.678 374.587,795.12 376.83,794.563 379.073,794.005 381.316,793.446 383.559,792.887 385.801,792.326 388.044,791.765 390.287,791.202 392.53,790.638 394.773,790.072 397.016,789.504 399.258,788.934 401.501,788.363 403.744,787.789 405.987,787.213 408.23,786.636 410.472,786.056 412.715,785.473 414.958,784.889 417.201,784.301 419.444,783.712 421.687,783.12 423.929,782.525 426.172,781.927 428.415,781.327 430.658,780.723 432.901,780.117 435.143,779.507 437.386,778.895 439.629,778.279 441.872,777.66 444.115,777.038 446.358,776.412 448.6,775.783 450.843,775.15 453.086,774.513 455.329,773.872 457.572,773.228 459.815,772.58 462.057,771.928 464.3,771.272 466.543,770.612 468.786,769.948 471.029,769.281 473.271,768.609 475.514,767.933 477.757,767.254 480,766.57 482.243,765.882 484.486,765.19 486.728,764.494 488.971,763.794 491.214,763.09 493.457,762.381 495.7,761.668 497.942,760.951 500.185,760.229 502.428,759.504 504.671,758.774 506.914,758.039 509.157,757.3 511.399,756.557 513.642,755.809 515.885,755.056 518.128,754.299 520.371,753.537 522.614,752.771 524.856,752 527.099,751.225 529.342,750.444 531.585,749.659 533.828,748.869 536.07,748.075 538.313,747.275 540.556,746.471 542.799,745.661 545.042,744.848 547.285,744.029 549.527,743.205 551.77,742.377 554.013,741.544 556.256,740.705 558.499,739.862 560.741,739.014 562.984,738.161 565.227,737.303 567.47,736.44 569.713,735.572 571.956,734.699 574.198,733.821 576.441,732.938 578.684,732.049 580.927,731.156 583.17,730.257 585.413,729.354 587.655,728.445 589.898,727.531 592.141,726.612 594.384,725.688 596.627,724.758 598.869,723.823 601.112,722.884 603.355,721.938 605.598,720.988 607.841,720.033 610.084,719.072 612.326,718.106 614.569,717.135 616.812,716.158 619.055,715.176 621.298,714.189 623.54,713.197 625.783,712.2 628.026,711.197 630.269,710.189 632.512,709.176 634.755,708.157 636.997,707.134 639.24,706.105 641.483,705.071 643.726,704.031 645.969,702.987 648.212,701.938 650.454,700.884 652.697,699.826 654.94,698.762 657.183,697.693 659.426,696.62 661.668,695.541 663.911,694.457 666.154,693.368 668.397,692.273 670.64,691.173 672.883,690.068 675.125,688.958 677.368,687.842 679.611,686.721 681.854,685.594 684.097,684.462 686.339,683.325 688.582,682.182 690.825,681.033 693.068,679.879 695.311,678.72 697.554,677.555 699.796,676.385 702.039,675.209 704.282,674.027 706.525,672.841 708.768,671.648 711.011,670.451 713.253,669.247 715.496,668.039 717.739,666.825 719.982,665.606 722.225,664.381 724.467,663.151 726.71,661.916 728.953,660.676 731.196,659.431 733.439,658.18 735.682,656.924 737.924,655.664 740.167,654.398 742.41,653.128 744.653,651.852 746.896,650.572 749.138,649.287 751.381,647.998 753.624,646.704 755.867,645.405 758.11,644.102 760.353,642.795 762.595,641.483 764.838,640.168 767.081,638.848 769.324,637.524 771.567,636.196 773.81,634.865 776.052,633.529 778.295,632.191 780.538,630.848 782.781,629.502 785.024,628.152 787.266,626.798 789.509,625.441 791.752,624.079 793.995,622.713 796.238,621.343 798.481,619.97 800.723,618.592 802.966,617.211 805.209,615.825 807.452,614.435 809.695,613.042 811.938,611.644 814.18,610.242 816.423,608.837 818.666,607.427 820.909,606.014 823.152,604.596 825.394,603.175 827.637,601.75 829.88,600.321 832.123,598.888 834.366,597.452 836.609,596.012 838.851,594.568 841.094,593.121 843.337,591.67 845.58,590.216 847.823,588.758 850.065,587.298 852.308,585.833 854.551,584.366 856.794,582.896 859.037,581.422 861.28,579.946 863.522,578.466 865.765,576.984 868.008,575.5 870.251,574.012 872.494,572.523 874.737,571.03 876.979,569.536 879.222,568.04 881.465,566.541 883.708,565.041 885.951,563.539 888.193,562.035 890.436,560.53 892.679,559.023 894.922,557.515 897.165,556.006 899.408,554.496 901.65,552.985 903.893,551.474 906.136,549.962 908.379,548.449 910.622,546.936 912.864,545.421 915.107,543.906 917.35,542.39 919.593,540.873 921.836,539.356 924.079,537.837 926.321,536.317 928.564,534.797 930.807,533.275 933.05,531.752 935.293,530.228 937.536,528.704 939.778,527.178 942.021,525.651 944.264,524.123 946.507,522.595 948.75,521.065 950.992,519.535 953.235,518.004 955.478,516.471 957.721,514.939 959.964,513.405 962.207,511.871 964.449,510.336 966.692,508.801 968.935,507.265 971.178,505.729 973.421,504.192 975.663,502.655 977.906,501.119 980.149,499.582 982.392,498.045 984.635,496.508 986.878,494.972 989.12,493.436 991.363,491.9 993.606,490.365 995.849,488.831 998.092,487.298 1000.33,485.765 1002.58,484.234 1004.82,482.704 1007.06,481.176 1009.31,479.649 1011.55,478.124 1013.79,476.601 1016.03,475.08 1018.28,473.561 1020.52,472.044 1022.76,470.531 1025.01,469.02 1027.25,467.512 1029.49,466.007 1031.73,464.505 1033.98,463.007 1036.22,461.513 1038.46,460.023 1040.71,458.536 1042.95,457.051 1045.19,455.57 1047.43,454.092 1049.68,452.617 1051.92,451.145 1054.16,449.675 1056.41,448.209 1058.65,446.745 1060.89,445.284 1063.13,443.826 1065.38,442.37 1067.62,440.917 1069.86,439.466 1072.1,438.019 1074.35,436.574 1076.59,435.131 1078.83,433.691 1081.08,432.254 1083.32,430.819 1085.56,429.387 1087.8,427.958 1090.05,426.532 1092.29,425.108 1094.53,423.686 1096.78,422.268 1099.02,420.853 1101.26,419.44 1103.5,418.03 1105.75,416.623 1107.99,415.22 1110.23,413.819 1112.48,412.421 1114.72,411.027 1116.96,409.636 1119.2,408.248 1121.45,406.864 1123.69,405.483 1125.93,404.106 1128.18,402.733 1130.42,401.363 1132.66,399.998 1134.9,398.636 1137.15,397.279 1139.39,395.926 1141.63,394.577 1143.88,393.233 1146.12,391.893 1148.36,390.558 1150.6,389.229 1152.85,387.904 1155.09,386.584 1157.33,385.27 1159.57,383.961 1161.82,382.658 1164.06,381.361 1166.3,380.069 1168.55,378.784 1170.79,377.506 1173.03,376.233 1175.27,374.967 1177.52,373.706 1179.76,372.451 1182,371.201 1184.25,369.957 1186.49,368.718 1188.73,367.485 1190.97,366.256 1193.22,365.033 1195.46,363.815 1197.7,362.602 1199.95,361.394 1202.19,360.19 1204.43,358.992 1206.67,357.798 1208.92,356.609 1211.16,355.425 1213.4,354.245 1215.65,353.07 1217.89,351.9 1220.13,350.734 1222.37,349.572 1224.62,348.415 1226.86,347.263 1229.1,346.115 1231.35,344.972 1233.59,343.833 1235.83,342.698 1238.07,341.568 1240.32,340.443 1242.56,339.322 1244.8,338.205 1247.04,337.093 1249.29,335.986 1251.53,334.883 1253.77,333.785 1256.02,332.691 1258.26,331.602 1260.5,330.518 1262.74,329.439 1264.99,328.364 1267.23,327.295 1269.47,326.23 1271.72,325.17 1273.96,324.116 1276.2,323.066 1278.44,322.022 1280.69,320.983 1282.93,319.949 1285.17,318.921 1287.42,317.898 1289.66,316.881 1291.9,315.869 1294.14,314.864 1296.39,313.864 1298.63,312.871 1300.87,311.883 1303.12,310.902 1305.36,309.927 1307.6,308.959 1309.84,307.997 1312.09,307.042 1314.33,306.094 1316.57,305.153 1318.82,304.219 1321.06,303.29 1323.3,302.367 1325.54,301.45 1327.79,300.539 1330.03,299.633 1332.27,298.733 1334.51,297.838 1336.76,296.949 1339,296.064 1341.24,295.186 1343.49,294.312 1345.73,293.443 1347.97,292.579 1350.21,291.721 1352.46,290.867 1354.7,290.018 1356.94,289.174 1359.19,288.334 1361.43,287.499 1363.67,286.669 1365.91,285.844 1368.16,285.023 1370.4,284.206 1372.64,283.394 1374.89,282.586 1377.13,281.783 1379.37,280.984 1381.61,280.19 1383.86,279.4 1386.1,278.614 1388.34,277.832 1390.59,277.055 1392.83,276.282 1395.07,275.514 1397.31,274.749 1399.56,273.989 1401.8,273.233 1404.04,272.482 1406.29,271.735 1408.53,270.992 1410.77,270.253 1413.01,269.519 1415.26,268.789 1417.5,268.064 1419.74,267.342 1421.98,266.626 1424.23,265.913 1426.47,265.206 1428.71,264.502 1430.96,263.804 1433.2,263.109 1435.44,262.42 1437.68,261.735 1439.93,261.055 1442.17,260.38 1444.41,259.71 1446.66,259.044 1448.9,258.384 1451.14,257.728 1453.38,257.078 1455.63,256.433 1457.87,255.793 1460.11,255.158 1462.36,254.529 1464.6,253.905 1466.84,253.287 1469.08,252.674 1471.33,252.066 1473.57,251.463 1475.81,250.865 1478.06,250.272 1480.3,249.682 1482.54,249.098 1484.78,248.518 1487.03,247.942 1489.27,247.37 1491.51,246.802 1493.76,246.239 1496,245.679 1498.24,245.124 1500.48,244.572 1502.73,244.025 1504.97,243.481 1507.21,242.941 1509.46,242.404 1511.7,241.872 1513.94,241.342 1516.18,240.817 1518.43,240.295 1520.67,239.776 1522.91,239.261 1525.15,238.749 1527.4,238.241 1529.64,237.736 1531.88,237.234 1534.13,236.735 1536.37,236.24 1538.61,235.748 1540.85,235.259 1543.1,234.773 1545.34,234.29 1547.58,233.811 1549.83,233.334 1552.07,232.861 1554.31,232.39 1556.55,231.923 1558.8,231.459 1561.04,230.998 1563.28,230.539 1565.53,230.084 1567.77,229.632 1570.01,229.183 1572.25,228.737 1574.5,228.294 1576.74,227.853 1578.98,227.416 1581.23,226.982 1583.47,226.551 1585.71,226.123 1587.95,225.699 1590.2,225.277 1592.44,224.858 1594.68,224.443 1596.93,224.03 1599.17,223.621 1601.41,223.215 1603.65,222.812 1605.9,222.413 1608.14,222.016 1610.38,221.624 1612.62,221.234 1614.87,220.848 1617.11,220.465 1619.35,220.086 1621.6,219.71 1623.84,219.338 1626.08,218.969 1628.32,218.604 1630.57,218.243 1632.81,217.886 1635.05,217.532 1637.3,217.182 1639.54,216.835 1641.78,216.491 1644.02,216.15 1646.27,215.812 1648.51,215.477 1650.75,215.145 1653,214.815 1655.24,214.489 1657.48,214.165 1659.72,213.843 1661.97,213.525 1664.21,213.209 1666.45,212.895 1668.7,212.584 1670.94,212.275 1673.18,211.969 1675.42,211.665 1677.67,211.364 1679.91,211.065 1682.15,210.768 1684.4,210.473 1686.64,210.18 1688.88,209.89 1691.12,209.601 1693.37,209.315 1695.61,209.031 1697.85,208.748 1700.09,208.468 1702.34,208.19 1704.58,207.914 1706.82,207.639 1709.07,207.367 1711.31,207.096 1713.55,206.828 1715.79,206.561 1718.04,206.296 1720.28,206.033 1722.52,205.771 1724.77,205.512 1727.01,205.254 1729.25,204.998 1731.49,204.743 1733.74,204.491 1735.98,204.24 1738.22,203.991 1740.47,203.743 1742.71,203.498 1744.95,203.254 1747.19,203.012 1749.44,202.771 1751.68,202.532 1753.92,202.295 1756.17,202.06 1758.41,201.826 1760.65,201.594 1762.89,201.364 1765.14,201.136 1767.38,200.909 1769.62,200.684 1771.87,200.461 1774.11,200.24 1776.35,200.02 1778.59,199.803 1780.84,199.587 1783.08,199.373 1785.32,199.161 1787.56,198.95 1789.81,198.742 1792.05,198.535 1794.29,198.331 1796.54,198.129 1798.78,197.928 1801.02,197.73 1803.26,197.533 1805.51,197.339 1807.75,197.147 1809.99,196.957 1812.24,196.769 1814.48,196.583 1816.72,196.4 1818.96,196.219 1821.21,196.04 1823.45,195.863 1825.69,195.688 1827.94,195.514 1830.18,195.342 1832.42,195.172 1834.66,195.004 1836.91,194.837 1839.15,194.672 1841.39,194.508 1843.64,194.346 1845.88,194.185 1848.12,194.026 1850.36,193.868 1852.61,193.712 1854.85,193.557 1857.09,193.403 1859.34,193.25 1861.58,193.099 1863.82,192.949 1866.06,192.8 1868.31,192.652 1870.55,192.505 1872.79,192.36 1875.03,192.216 1877.28,192.072 1879.52,191.93 1881.76,191.789 1884.01,191.649 1886.25,191.509 1888.49,191.371 1890.73,191.234 1892.98,191.097 1895.22,190.962 1897.46,190.828 1899.71,190.694 1901.95,190.561 1904.19,190.429 1906.43,190.298 1908.68,190.168 1910.92,190.039 1913.16,189.91 1915.41,189.782 1917.65,189.655 1919.89,189.529 1922.13,189.404 1924.38,189.279 1926.62,189.155 1928.86,189.032 1931.11,188.91 1933.35,188.789 1935.59,188.668 1937.83,188.548 1940.08,188.429 1942.32,188.311 1944.56,188.193 1946.81,188.076 1949.05,187.96 1951.29,187.845 1953.53,187.73 1955.78,187.617 1958.02,187.504 1960.26,187.392 1962.5,187.281 1964.75,187.17 1966.99,187.061 1969.23,186.952 1971.48,186.844 1973.72,186.737 1975.96,186.631 1978.2,186.526 1980.45,186.422 1982.69,186.318 1984.93,186.216 1987.18,186.115 1989.42,186.014 1991.66,185.915 1993.9,185.816 1996.15,185.719 1998.39,185.623 2000.63,185.528 2002.88,185.434 2005.12,185.341 2007.36,185.249 2009.6,185.159 2011.85,185.069 2014.09,184.981 2016.33,184.895 2018.58,184.809 2020.82,184.725 2023.06,184.642 2025.3,184.561 2027.55,184.481 2029.79,184.402 2032.03,184.324 2034.28,184.248 2036.52,184.172 2038.76,184.098 2041,184.024 2043.25,183.951 2045.49,183.879 2047.73,183.808 2049.97,183.738 2052.22,183.669 2054.46,183.6 2056.7,183.532 2058.95,183.465 2061.19,183.399 2063.43,183.333 2065.67,183.267 2067.92,183.203 2070.16,183.139 2072.4,183.075 2074.65,183.012 2076.89,182.949 2079.13,182.887 2081.37,182.825 2083.62,182.764 2085.86,182.703 2088.1,182.642 2090.35,182.582 2092.59,182.522 2094.83,182.462 2097.07,182.403 2099.32,182.344 2101.56,182.285 2103.8,182.227 2106.05,182.168 2108.29,182.11 2110.53,182.053 2112.77,181.995 2115.02,181.937 2117.26,181.88 2119.5,181.823 2121.75,181.766 2123.99,181.71 2126.23,181.653 2128.47,181.597 2130.72,181.54 2132.96,181.484 2135.2,181.428 2137.45,181.372 2139.69,181.317 2141.93,181.261 2144.17,181.206 2146.42,181.15 2148.66,181.095 2150.9,181.04 2153.14,180.985 2155.39,180.931 2157.63,180.876 2159.87,180.822 2162.12,180.768 2164.36,180.714 2166.6,180.66 2168.84,180.606 2171.09,180.553 2173.33,180.5 2175.57,180.447 2177.82,180.394 2180.06,180.342 2182.3,180.29 2184.54,180.238 2186.79,180.187 2189.03,180.136 2191.27,180.085 2193.52,180.034 2195.76,179.984 2198,179.935 2200.24,179.885 2202.49,179.837 2204.73,179.788 2206.97,179.741 2209.22,179.693 2211.46,179.647 2213.7,179.6 2215.94,179.555 2218.19,179.51 2220.43,179.466 2222.67,179.422 2224.92,179.379 2227.16,179.337 2229.4,179.296 2231.64,179.255 2233.89,179.216 2236.13,179.177 2238.37,179.139 2240.61,179.102 2242.86,179.066 2245.1,179.031 2247.34,178.998 2249.59,178.965 2251.83,178.933 2254.07,178.903 2256.31,178.873 2258.56,178.843 2260.8,178.814 2263.04,178.784 2265.29,178.755 2267.53,178.726 2269.77,178.697 2272.01,178.669 2274.26,178.64 2276.5,178.612 2278.74,178.584 2280.99,178.555 2283.23,178.528 2285.47,178.5 2287.71,178.472 2289.96,178.445 2292.2,178.418 2294.44,178.391 2296.69,178.364 2298.93,178.337 2301.17,178.311 2303.41,178.284 2305.66,178.258 2307.9,178.232 2310.14,178.206 2312.39,178.181 2314.63,178.155 2316.87,178.13 2319.11,178.105 2321.36,178.08 2323.6,178.055 2325.84,178.03 2328.08,178.006 2330.33,177.982 2332.57,177.958 2334.81,177.934 2337.06,177.91 2339.3,177.886 2341.54,177.863 2343.78,177.84 2346.03,177.817 2348.27,177.794 2350.51,177.772 2352.76,177.749 "/>
<circle clip-path="url(#clip321)" cx="112.177" cy="814.334" r="21.6" fill="#009af9" fill-rule="evenodd" fill-opacity="0.7" stroke="#000000" stroke-opacity="0.7" stroke-width="3.2"/>
<circle clip-path="url(#clip321)" cx="230.102" cy="1056.08" r="21.6" fill="#009af9" fill-rule="evenodd" fill-opacity="0.7" stroke="#000000" stroke-opacity="0.7" stroke-width="3.2"/>
<circle clip-path="url(#clip321)" cx="348.028" cy="1040.89" r="21.6" fill="#009af9" fill-rule="evenodd" fill-opacity="0.7" stroke="#000000" stroke-opacity="0.7" stroke-width="3.2"/>
<circle clip-path="url(#clip321)" cx="465.953" cy="1119.72" r="21.6" fill="#009af9" fill-rule="evenodd" fill-opacity="0.7" stroke="#000000" stroke-opacity="0.7" stroke-width="3.2"/>
<circle clip-path="url(#clip321)" cx="583.878" cy="1124.97" r="21.6" fill="#009af9" fill-rule="evenodd" fill-opacity="0.7" stroke="#000000" stroke-opacity="0.7" stroke-width="3.2"/>
<circle clip-path="url(#clip321)" cx="701.803" cy="951.888" r="21.6" fill="#009af9" fill-rule="evenodd" fill-opacity="0.7" stroke="#000000" stroke-opacity="0.7" stroke-width="3.2"/>
<circle clip-path="url(#clip321)" cx="819.728" cy="1035.74" r="21.6" fill="#009af9" fill-rule="evenodd" fill-opacity="0.7" stroke="#000000" stroke-opacity="0.7" stroke-width="3.2"/>
<circle clip-path="url(#clip321)" cx="937.654" cy="975.076" r="21.6" fill="#009af9" fill-rule="evenodd" fill-opacity="0.7" stroke="#000000" stroke-opacity="0.7" stroke-width="3.2"/>
<circle clip-path="url(#clip321)" cx="1055.58" cy="929.869" r="21.6" fill="#009af9" fill-rule="evenodd" fill-opacity="0.7" stroke="#000000" stroke-opacity="0.7" stroke-width="3.2"/>
<circle clip-path="url(#clip321)" cx="1173.5" cy="937.257" r="21.6" fill="#009af9" fill-rule="evenodd" fill-opacity="0.7" stroke="#000000" stroke-opacity="0.7" stroke-width="3.2"/>
<circle clip-path="url(#clip321)" cx="1291.43" cy="865.54" r="21.6" fill="#009af9" fill-rule="evenodd" fill-opacity="0.7" stroke="#000000" stroke-opacity="0.7" stroke-width="3.2"/>
<circle clip-path="url(#clip321)" cx="1409.35" cy="902.074" r="21.6" fill="#009af9" fill-rule="evenodd" fill-opacity="0.7" stroke="#000000" stroke-opacity="0.7" stroke-width="3.2"/>
<circle clip-path="url(#clip321)" cx="1527.28" cy="717.779" r="21.6" fill="#009af9" fill-rule="evenodd" fill-opacity="0.7" stroke="#000000" stroke-opacity="0.7" stroke-width="3.2"/>
<circle clip-path="url(#clip321)" cx="1645.2" cy="806.274" r="21.6" fill="#009af9" fill-rule="evenodd" fill-opacity="0.7" stroke="#000000" stroke-opacity="0.7" stroke-width="3.2"/>
<circle clip-path="url(#clip321)" cx="1763.13" cy="862.233" r="21.6" fill="#009af9" fill-rule="evenodd" fill-opacity="0.7" stroke="#000000" stroke-opacity="0.7" stroke-width="3.2"/>
<circle clip-path="url(#clip321)" cx="1881.06" cy="770.049" r="21.6" fill="#009af9" fill-rule="evenodd" fill-opacity="0.7" stroke="#000000" stroke-opacity="0.7" stroke-width="3.2"/>
<circle clip-path="url(#clip321)" cx="1998.98" cy="907.691" r="21.6" fill="#009af9" fill-rule="evenodd" fill-opacity="0.7" stroke="#000000" stroke-opacity="0.7" stroke-width="3.2"/>
<circle clip-path="url(#clip321)" cx="2116.91" cy="842.953" r="21.6" fill="#009af9" fill-rule="evenodd" fill-opacity="0.7" stroke="#000000" stroke-opacity="0.7" stroke-width="3.2"/>
<circle clip-path="url(#clip321)" cx="2234.83" cy="786.872" r="21.6" fill="#009af9" fill-rule="evenodd" fill-opacity="0.7" stroke="#000000" stroke-opacity="0.7" stroke-width="3.2"/>
<circle clip-path="url(#clip321)" cx="2352.76" cy="789.945" r="21.6" fill="#009af9" fill-rule="evenodd" fill-opacity="0.7" stroke="#000000" stroke-opacity="0.7" stroke-width="3.2"/>
<circle clip-path="url(#clip321)" cx="112.177" cy="1383.91" r="21.6" fill="#e26f46" fill-rule="evenodd" fill-opacity="0.7" stroke="#000000" stroke-opacity="0.7" stroke-width="3.2"/>
<circle clip-path="url(#clip321)" cx="230.102" cy="877.058" r="21.6" fill="#e26f46" fill-rule="evenodd" fill-opacity="0.7" stroke="#000000" stroke-opacity="0.7" stroke-width="3.2"/>
<circle clip-path="url(#clip321)" cx="348.028" cy="824.088" r="21.6" fill="#e26f46" fill-rule="evenodd" fill-opacity="0.7" stroke="#000000" stroke-opacity="0.7" stroke-width="3.2"/>
<circle clip-path="url(#clip321)" cx="465.953" cy="699.653" r="21.6" fill="#e26f46" fill-rule="evenodd" fill-opacity="0.7" stroke="#000000" stroke-opacity="0.7" stroke-width="3.2"/>
<circle clip-path="url(#clip321)" cx="583.878" cy="853.129" r="21.6" fill="#e26f46" fill-rule="evenodd" fill-opacity="0.7" stroke="#000000" stroke-opacity="0.7" stroke-width="3.2"/>
<circle clip-path="url(#clip321)" cx="701.803" cy="701.469" r="21.6" fill="#e26f46" fill-rule="evenodd" fill-opacity="0.7" stroke="#000000" stroke-opacity="0.7" stroke-width="3.2"/>
<circle clip-path="url(#clip321)" cx="819.728" cy="649.678" r="21.6" fill="#e26f46" fill-rule="evenodd" fill-opacity="0.7" stroke="#000000" stroke-opacity="0.7" stroke-width="3.2"/>
<circle clip-path="url(#clip321)" cx="937.654" cy="449.363" r="21.6" fill="#e26f46" fill-rule="evenodd" fill-opacity="0.7" stroke="#000000" stroke-opacity="0.7" stroke-width="3.2"/>
<circle clip-path="url(#clip321)" cx="1055.58" cy="461.418" r="21.6" fill="#e26f46" fill-rule="evenodd" fill-opacity="0.7" stroke="#000000" stroke-opacity="0.7" stroke-width="3.2"/>
<circle clip-path="url(#clip321)" cx="1173.5" cy="190.822" r="21.6" fill="#e26f46" fill-rule="evenodd" fill-opacity="0.7" stroke="#000000" stroke-opacity="0.7" stroke-width="3.2"/>
<circle clip-path="url(#clip321)" cx="1291.43" cy="412.62" r="21.6" fill="#e26f46" fill-rule="evenodd" fill-opacity="0.7" stroke="#000000" stroke-opacity="0.7" stroke-width="3.2"/>
<circle clip-path="url(#clip321)" cx="1409.35" cy="292.046" r="21.6" fill="#e26f46" fill-rule="evenodd" fill-opacity="0.7" stroke="#000000" stroke-opacity="0.7" stroke-width="3.2"/>
<circle clip-path="url(#clip321)" cx="1527.28" cy="427.39" r="21.6" fill="#e26f46" fill-rule="evenodd" fill-opacity="0.7" stroke="#000000" stroke-opacity="0.7" stroke-width="3.2"/>
<circle clip-path="url(#clip321)" cx="1645.2" cy="325.795" r="21.6" fill="#e26f46" fill-rule="evenodd" fill-opacity="0.7" stroke="#000000" stroke-opacity="0.7" stroke-width="3.2"/>
<circle clip-path="url(#clip321)" cx="1763.13" cy="169.392" r="21.6" fill="#e26f46" fill-rule="evenodd" fill-opacity="0.7" stroke="#000000" stroke-opacity="0.7" stroke-width="3.2"/>
<circle clip-path="url(#clip321)" cx="1881.06" cy="423.136" r="21.6" fill="#e26f46" fill-rule="evenodd" fill-opacity="0.7" stroke="#000000" stroke-opacity="0.7" stroke-width="3.2"/>
<circle clip-path="url(#clip321)" cx="1998.98" cy="86.1857" r="21.6" fill="#e26f46" fill-rule="evenodd" fill-opacity="0.7" stroke="#000000" stroke-opacity="0.7" stroke-width="3.2"/>
<circle clip-path="url(#clip321)" cx="2116.91" cy="134.58" r="21.6" fill="#e26f46" fill-rule="evenodd" fill-opacity="0.7" stroke="#000000" stroke-opacity="0.7" stroke-width="3.2"/>
<circle clip-path="url(#clip321)" cx="2234.83" cy="226.678" r="21.6" fill="#e26f46" fill-rule="evenodd" fill-opacity="0.7" stroke="#000000" stroke-opacity="0.7" stroke-width="3.2"/>
<circle clip-path="url(#clip321)" cx="2352.76" cy="181.025" r="21.6" fill="#e26f46" fill-rule="evenodd" fill-opacity="0.7" stroke="#000000" stroke-opacity="0.7" stroke-width="3.2"/>
<path clip-path="url(#clip320)" d="M186.863 352.309 L596.753 352.309 L596.753 93.1086 L186.863 93.1086  Z" fill="#ffffff" fill-rule="evenodd" fill-opacity="1"/>
<polyline clip-path="url(#clip320)" style="stroke:#000000; stroke-linecap:round; stroke-linejoin:round; stroke-width:4; stroke-opacity:1; fill:none" points="186.863,352.309 596.753,352.309 596.753,93.1086 186.863,93.1086 186.863,352.309 "/>
<polyline clip-path="url(#clip320)" style="stroke:#009af9; stroke-linecap:round; stroke-linejoin:round; stroke-width:20; stroke-opacity:1; fill:none" points="211.758,144.949 361.13,144.949 "/>
<path clip-path="url(#clip320)" d="M387.6 127.669 L392.623 127.669 L401.211 140.516 L409.845 127.669 L414.868 127.669 L403.757 144.266 L415.609 162.229 L410.586 162.229 L400.864 147.53 L391.072 162.229 L386.026 162.229 L398.364 143.78 L387.6 127.669 Z" fill="#000000" fill-rule="nonzero" fill-opacity="1" /><polyline clip-path="url(#clip320)" style="stroke:#e26f46; stroke-linecap:round; stroke-linejoin:round; stroke-width:20; stroke-opacity:1; fill:none" points="211.758,196.789 361.13,196.789 "/>
<path clip-path="url(#clip320)" d="M386.026 179.509 L391.049 179.509 L400.632 193.722 L410.146 179.509 L415.169 179.509 L402.947 197.61 L402.947 214.069 L398.248 214.069 L398.248 197.61 L386.026 179.509 Z" fill="#000000" fill-rule="nonzero" fill-opacity="1" /><circle clip-path="url(#clip320)" cx="286.444" cy="248.629" r="21.2677" fill="#009af9" fill-rule="evenodd" fill-opacity="0.7" stroke="#000000" stroke-opacity="0.7" stroke-width="3.15077"/>
<path clip-path="url(#clip320)" d="M387.6 231.349 L392.623 231.349 L401.211 244.196 L409.845 231.349 L414.868 231.349 L403.757 247.946 L415.609 265.909 L410.586 265.909 L400.864 251.21 L391.072 265.909 L386.026 265.909 L398.364 247.46 L387.6 231.349 Z" fill="#000000" fill-rule="nonzero" fill-opacity="1" /><path clip-path="url(#clip320)" d="M446.859 229.937 Q443.757 235.261 442.252 240.469 Q440.748 245.677 440.748 251.024 Q440.748 256.372 442.252 261.626 Q443.78 266.858 446.859 272.159 L443.155 272.159 Q439.683 266.719 437.947 261.464 Q436.234 256.21 436.234 251.024 Q436.234 245.862 437.947 240.631 Q439.66 235.4 443.155 229.937 L446.859 229.937 Z" fill="#000000" fill-rule="nonzero" fill-opacity="1" /><path clip-path="url(#clip320)" d="M472.183 243.918 L472.183 229.89 L476.442 229.89 L476.442 265.909 L472.183 265.909 L472.183 262.02 Q470.84 264.335 468.78 265.469 Q466.743 266.58 463.872 266.58 Q459.173 266.58 456.21 262.83 Q453.271 259.08 453.271 252.969 Q453.271 246.858 456.21 243.108 Q459.173 239.358 463.872 239.358 Q466.743 239.358 468.78 240.492 Q470.84 241.603 472.183 243.918 M457.669 252.969 Q457.669 257.668 459.59 260.353 Q461.535 263.015 464.914 263.015 Q468.294 263.015 470.238 260.353 Q472.183 257.668 472.183 252.969 Q472.183 248.27 470.238 245.608 Q468.294 242.923 464.914 242.923 Q461.535 242.923 459.59 245.608 Q457.669 248.27 457.669 252.969 Z" fill="#000000" fill-rule="nonzero" fill-opacity="1" /><path clip-path="url(#clip320)" d="M496.997 252.876 Q491.835 252.876 489.845 254.057 Q487.854 255.237 487.854 258.085 Q487.854 260.353 489.335 261.696 Q490.84 263.015 493.409 263.015 Q496.951 263.015 499.081 260.515 Q501.233 257.992 501.233 253.825 L501.233 252.876 L496.997 252.876 M505.493 251.117 L505.493 265.909 L501.233 265.909 L501.233 261.973 Q499.775 264.335 497.599 265.469 Q495.423 266.58 492.275 266.58 Q488.294 266.58 485.933 264.358 Q483.595 262.112 483.595 258.362 Q483.595 253.987 486.511 251.765 Q489.451 249.543 495.261 249.543 L501.233 249.543 L501.233 249.126 Q501.233 246.187 499.289 244.589 Q497.368 242.969 493.872 242.969 Q491.65 242.969 489.544 243.501 Q487.437 244.034 485.493 245.099 L485.493 241.163 Q487.831 240.261 490.03 239.821 Q492.229 239.358 494.312 239.358 Q499.937 239.358 502.715 242.274 Q505.493 245.191 505.493 251.117 Z" fill="#000000" fill-rule="nonzero" fill-opacity="1" /><path clip-path="url(#clip320)" d="M518.479 232.622 L518.479 239.983 L527.252 239.983 L527.252 243.293 L518.479 243.293 L518.479 257.367 Q518.479 260.538 519.335 261.441 Q520.215 262.344 522.877 262.344 L527.252 262.344 L527.252 265.909 L522.877 265.909 Q517.946 265.909 516.071 264.08 Q514.196 262.228 514.196 257.367 L514.196 243.293 L511.071 243.293 L511.071 239.983 L514.196 239.983 L514.196 232.622 L518.479 232.622 Z" fill="#000000" fill-rule="nonzero" fill-opacity="1" /><path clip-path="url(#clip320)" d="M544.636 252.876 Q539.474 252.876 537.483 254.057 Q535.492 255.237 535.492 258.085 Q535.492 260.353 536.974 261.696 Q538.479 263.015 541.048 263.015 Q544.59 263.015 546.719 260.515 Q548.872 257.992 548.872 253.825 L548.872 252.876 L544.636 252.876 M553.131 251.117 L553.131 265.909 L548.872 265.909 L548.872 261.973 Q547.414 264.335 545.238 265.469 Q543.062 266.58 539.914 266.58 Q535.932 266.58 533.571 264.358 Q531.233 262.112 531.233 258.362 Q531.233 253.987 534.15 251.765 Q537.09 249.543 542.9 249.543 L548.872 249.543 L548.872 249.126 Q548.872 246.187 546.928 244.589 Q545.006 242.969 541.511 242.969 Q539.289 242.969 537.182 243.501 Q535.076 244.034 533.131 245.099 L533.131 241.163 Q535.469 240.261 537.668 239.821 Q539.867 239.358 541.951 239.358 Q547.576 239.358 550.354 242.274 Q553.131 245.191 553.131 251.117 Z" fill="#000000" fill-rule="nonzero" fill-opacity="1" /><path clip-path="url(#clip320)" d="M561.233 229.937 L564.937 229.937 Q568.409 235.4 570.122 240.631 Q571.858 245.862 571.858 251.024 Q571.858 256.21 570.122 261.464 Q568.409 266.719 564.937 272.159 L561.233 272.159 Q564.312 266.858 565.816 261.626 Q567.344 256.372 567.344 251.024 Q567.344 245.677 565.816 240.469 Q564.312 235.261 561.233 229.937 Z" fill="#000000" fill-rule="nonzero" fill-opacity="1" /><circle clip-path="url(#clip320)" cx="286.444" cy="300.469" r="21.2677" fill="#e26f46" fill-rule="evenodd" fill-opacity="0.7" stroke="#000000" stroke-opacity="0.7" stroke-width="3.15077"/>
<path clip-path="url(#clip320)" d="M386.026 283.189 L391.049 283.189 L400.632 297.402 L410.146 283.189 L415.169 283.189 L402.947 301.29 L402.947 317.749 L398.248 317.749 L398.248 301.29 L386.026 283.189 Z" fill="#000000" fill-rule="nonzero" fill-opacity="1" /><path clip-path="url(#clip320)" d="M444.845 281.777 Q441.743 287.101 440.238 292.309 Q438.734 297.517 438.734 302.864 Q438.734 308.212 440.238 313.466 Q441.766 318.698 444.845 323.999 L441.141 323.999 Q437.669 318.559 435.933 313.304 Q434.22 308.05 434.22 302.864 Q434.22 297.702 435.933 292.471 Q437.646 287.24 441.141 281.777 L444.845 281.777 Z" fill="#000000" fill-rule="nonzero" fill-opacity="1" /><path clip-path="url(#clip320)" d="M470.169 295.758 L470.169 281.73 L474.428 281.73 L474.428 317.749 L470.169 317.749 L470.169 313.86 Q468.826 316.175 466.766 317.309 Q464.729 318.42 461.859 318.42 Q457.16 318.42 454.197 314.67 Q451.257 310.92 451.257 304.809 Q451.257 298.698 454.197 294.948 Q457.16 291.198 461.859 291.198 Q464.729 291.198 466.766 292.332 Q468.826 293.443 470.169 295.758 M455.655 304.809 Q455.655 309.508 457.576 312.193 Q459.521 314.855 462.9 314.855 Q466.28 314.855 468.224 312.193 Q470.169 309.508 470.169 304.809 Q470.169 300.11 468.224 297.448 Q466.28 294.763 462.9 294.763 Q459.521 294.763 457.576 297.448 Q455.655 300.11 455.655 304.809 Z" fill="#000000" fill-rule="nonzero" fill-opacity="1" /><path clip-path="url(#clip320)" d="M494.983 304.716 Q489.821 304.716 487.831 305.897 Q485.84 307.077 485.84 309.925 Q485.84 312.193 487.321 313.536 Q488.826 314.855 491.395 314.855 Q494.937 314.855 497.067 312.355 Q499.22 309.832 499.22 305.665 L499.22 304.716 L494.983 304.716 M503.479 302.957 L503.479 317.749 L499.22 317.749 L499.22 313.813 Q497.761 316.175 495.585 317.309 Q493.409 318.42 490.261 318.42 Q486.28 318.42 483.919 316.198 Q481.581 313.952 481.581 310.202 Q481.581 305.827 484.497 303.605 Q487.437 301.383 493.247 301.383 L499.22 301.383 L499.22 300.966 Q499.22 298.027 497.275 296.429 Q495.354 294.809 491.858 294.809 Q489.636 294.809 487.53 295.341 Q485.423 295.874 483.479 296.939 L483.479 293.003 Q485.817 292.101 488.016 291.661 Q490.215 291.198 492.298 291.198 Q497.923 291.198 500.701 294.114 Q503.479 297.031 503.479 302.957 Z" fill="#000000" fill-rule="nonzero" fill-opacity="1" /><path clip-path="url(#clip320)" d="M516.465 284.462 L516.465 291.823 L525.238 291.823 L525.238 295.133 L516.465 295.133 L516.465 309.207 Q516.465 312.378 517.321 313.281 Q518.201 314.184 520.863 314.184 L525.238 314.184 L525.238 317.749 L520.863 317.749 Q515.932 317.749 514.057 315.92 Q512.182 314.068 512.182 309.207 L512.182 295.133 L509.057 295.133 L509.057 291.823 L512.182 291.823 L512.182 284.462 L516.465 284.462 Z" fill="#000000" fill-rule="nonzero" fill-opacity="1" /><path clip-path="url(#clip320)" d="M542.622 304.716 Q537.46 304.716 535.469 305.897 Q533.479 307.077 533.479 309.925 Q533.479 312.193 534.96 313.536 Q536.465 314.855 539.034 314.855 Q542.576 314.855 544.705 312.355 Q546.858 309.832 546.858 305.665 L546.858 304.716 L542.622 304.716 M551.117 302.957 L551.117 317.749 L546.858 317.749 L546.858 313.813 Q545.4 316.175 543.224 317.309 Q541.048 318.42 537.9 318.42 Q533.918 318.42 531.557 316.198 Q529.219 313.952 529.219 310.202 Q529.219 305.827 532.136 303.605 Q535.076 301.383 540.886 301.383 L546.858 301.383 L546.858 300.966 Q546.858 298.027 544.914 296.429 Q542.992 294.809 539.497 294.809 Q537.275 294.809 535.168 295.341 Q533.062 295.874 531.118 296.939 L531.118 293.003 Q533.455 292.101 535.655 291.661 Q537.854 291.198 539.937 291.198 Q545.562 291.198 548.34 294.114 Q551.117 297.031 551.117 302.957 Z" fill="#000000" fill-rule="nonzero" fill-opacity="1" /><path clip-path="url(#clip320)" d="M559.219 281.777 L562.923 281.777 Q566.395 287.24 568.108 292.471 Q569.844 297.702 569.844 302.864 Q569.844 308.05 568.108 313.304 Q566.395 318.559 562.923 323.999 L559.219 323.999 Q562.298 318.698 563.803 313.466 Q565.33 308.212 565.33 302.864 Q565.33 297.517 563.803 292.309 Q562.298 287.101 559.219 281.777 Z" fill="#000000" fill-rule="nonzero" fill-opacity="1" /></svg>
