<?xml version="1.0" encoding="utf-8"?>
<svg xmlns="http://www.w3.org/2000/svg" xmlns:xlink="http://www.w3.org/1999/xlink" width="600" height="400" viewBox="0 0 2400 1600">
<defs>
  <clipPath id="clip380">
    <rect x="0" y="0" width="2400" height="1600"/>
  </clipPath>
</defs>
<path clip-path="url(#clip380)" d="M0 1600 L2400 1600 L2400 0 L0 0  Z" fill="#ffffff" fill-rule="evenodd" fill-opacity="1"/>
<defs>
  <clipPath id="clip381">
    <rect x="186" y="47" width="2167" height="1440"/>
  </clipPath>
</defs>
<path clip-path="url(#clip380)" d="M186.274 1486.45 L2352.76 1486.45 L2352.76 47.2441 L186.274 47.2441  Z" fill="#ffffff" fill-rule="evenodd" fill-opacity="1"/>
<polyline clip-path="url(#clip381)" style="stroke:#000000; stroke-linecap:round; stroke-linejoin:round; stroke-width:2; stroke-opacity:0.1; fill:none" points="247.59,1486.45 247.59,47.2441 "/>
<polyline clip-path="url(#clip381)" style="stroke:#000000; stroke-linecap:round; stroke-linejoin:round; stroke-width:2; stroke-opacity:0.1; fill:none" points="656.36,1486.45 656.36,47.2441 "/>
<polyline clip-path="url(#clip381)" style="stroke:#000000; stroke-linecap:round; stroke-linejoin:round; stroke-width:2; stroke-opacity:0.1; fill:none" points="1065.13,1486.45 1065.13,47.2441 "/>
<polyline clip-path="url(#clip381)" style="stroke:#000000; stroke-linecap:round; stroke-linejoin:round; stroke-width:2; stroke-opacity:0.1; fill:none" points="1473.9,1486.45 1473.9,47.2441 "/>
<polyline clip-path="url(#clip381)" style="stroke:#000000; stroke-linecap:round; stroke-linejoin:round; stroke-width:2; stroke-opacity:0.1; fill:none" points="1882.67,1486.45 1882.67,47.2441 "/>
<polyline clip-path="url(#clip381)" style="stroke:#000000; stroke-linecap:round; stroke-linejoin:round; stroke-width:2; stroke-opacity:0.1; fill:none" points="2291.44,1486.45 2291.44,47.2441 "/>
<polyline clip-path="url(#clip381)" style="stroke:#000000; stroke-linecap:round; stroke-linejoin:round; stroke-width:2; stroke-opacity:0.1; fill:none" points="186.274,1445.72 2352.76,1445.72 "/>
<polyline clip-path="url(#clip381)" style="stroke:#000000; stroke-linecap:round; stroke-linejoin:round; stroke-width:2; stroke-opacity:0.1; fill:none" points="186.274,1122.57 2352.76,1122.57 "/>
<polyline clip-path="url(#clip381)" style="stroke:#000000; stroke-linecap:round; stroke-linejoin:round; stroke-width:2; stroke-opacity:0.1; fill:none" points="186.274,799.428 2352.76,799.428 "/>
<polyline clip-path="url(#clip381)" style="stroke:#000000; stroke-linecap:round; stroke-linejoin:round; stroke-width:2; stroke-opacity:0.1; fill:none" points="186.274,476.284 2352.76,476.284 "/>
<polyline clip-path="url(#clip381)" style="stroke:#000000; stroke-linecap:round; stroke-linejoin:round; stroke-width:2; stroke-opacity:0.1; fill:none" points="186.274,153.14 2352.76,153.14 "/>
<polyline clip-path="url(#clip380)" style="stroke:#000000; stroke-linecap:round; stroke-linejoin:round; stroke-width:4; stroke-opacity:1; fill:none" points="186.274,1486.45 2352.76,1486.45 "/>
<polyline clip-path="url(#clip380)" style="stroke:#000000; stroke-linecap:round; stroke-linejoin:round; stroke-width:4; stroke-opacity:1; fill:none" points="247.59,1486.45 247.59,1467.55 "/>
<polyline clip-path="url(#clip380)" style="stroke:#000000; stroke-linecap:round; stroke-linejoin:round; stroke-width:4; stroke-opacity:1; fill:none" points="656.36,1486.45 656.36,1467.55 "/>
<polyline clip-path="url(#clip380)" style="stroke:#000000; stroke-linecap:round; stroke-linejoin:round; stroke-width:4; stroke-opacity:1; fill:none" points="1065.13,1486.45 1065.13,1467.55 "/>
<polyline clip-path="url(#clip380)" style="stroke:#000000; stroke-linecap:round; stroke-linejoin:round; stroke-width:4; stroke-opacity:1; fill:none" points="1473.9,1486.45 1473.9,1467.55 "/>
<polyline clip-path="url(#clip380)" style="stroke:#000000; stroke-linecap:round; stroke-linejoin:round; stroke-width:4; stroke-opacity:1; fill:none" points="1882.67,1486.45 1882.67,1467.55 "/>
<polyline clip-path="url(#clip380)" style="stroke:#000000; stroke-linecap:round; stroke-linejoin:round; stroke-width:4; stroke-opacity:1; fill:none" points="2291.44,1486.45 2291.44,1467.55 "/>
<path clip-path="url(#clip380)" d="M247.59 1517.37 Q243.978 1517.37 242.15 1520.93 Q240.344 1524.47 240.344 1531.6 Q240.344 1538.71 242.15 1542.27 Q243.978 1545.82 247.59 1545.82 Q251.224 1545.82 253.029 1542.27 Q254.858 1538.71 254.858 1531.6 Q254.858 1524.47 253.029 1520.93 Q251.224 1517.37 247.59 1517.37 M247.59 1513.66 Q253.4 1513.66 256.455 1518.27 Q259.534 1522.85 259.534 1531.6 Q259.534 1540.33 256.455 1544.94 Q253.4 1549.52 247.59 1549.52 Q241.779 1549.52 238.701 1544.94 Q235.645 1540.33 235.645 1531.6 Q235.645 1522.85 238.701 1518.27 Q241.779 1513.66 247.59 1513.66 Z" fill="#000000" fill-rule="nonzero" fill-opacity="1" /><path clip-path="url(#clip380)" d="M646.742 1544.91 L654.381 1544.91 L654.381 1518.55 L646.07 1520.21 L646.07 1515.95 L654.334 1514.29 L659.01 1514.29 L659.01 1544.91 L666.649 1544.91 L666.649 1548.85 L646.742 1548.85 L646.742 1544.91 Z" fill="#000000" fill-rule="nonzero" fill-opacity="1" /><path clip-path="url(#clip380)" d="M1059.78 1544.91 L1076.1 1544.91 L1076.1 1548.85 L1054.16 1548.85 L1054.16 1544.91 Q1056.82 1542.16 1061.4 1537.53 Q1066.01 1532.88 1067.19 1531.53 Q1069.44 1529.01 1070.32 1527.27 Q1071.22 1525.51 1071.22 1523.82 Q1071.22 1521.07 1069.27 1519.33 Q1067.35 1517.6 1064.25 1517.6 Q1062.05 1517.6 1059.6 1518.36 Q1057.17 1519.13 1054.39 1520.68 L1054.39 1515.95 Q1057.21 1514.82 1059.67 1514.24 Q1062.12 1513.66 1064.16 1513.66 Q1069.53 1513.66 1072.72 1516.35 Q1075.92 1519.03 1075.92 1523.52 Q1075.92 1525.65 1075.11 1527.57 Q1074.32 1529.47 1072.21 1532.07 Q1071.63 1532.74 1068.53 1535.95 Q1065.43 1539.15 1059.78 1544.91 Z" fill="#000000" fill-rule="nonzero" fill-opacity="1" /><path clip-path="url(#clip380)" d="M1478.15 1530.21 Q1481.5 1530.93 1483.38 1533.2 Q1485.28 1535.47 1485.28 1538.8 Q1485.28 1543.92 1481.76 1546.72 Q1478.24 1549.52 1471.76 1549.52 Q1469.58 1549.52 1467.27 1549.08 Q1464.98 1548.66 1462.52 1547.81 L1462.52 1543.29 Q1464.47 1544.43 1466.78 1545.01 Q1469.1 1545.58 1471.62 1545.58 Q1476.02 1545.58 1478.31 1543.85 Q1480.62 1542.11 1480.62 1538.8 Q1480.62 1535.75 1478.47 1534.03 Q1476.34 1532.3 1472.52 1532.3 L1468.49 1532.3 L1468.49 1528.45 L1472.71 1528.45 Q1476.16 1528.45 1477.99 1527.09 Q1479.81 1525.7 1479.81 1523.11 Q1479.81 1520.45 1477.92 1519.03 Q1476.04 1517.6 1472.52 1517.6 Q1470.6 1517.6 1468.4 1518.01 Q1466.2 1518.43 1463.56 1519.31 L1463.56 1515.14 Q1466.23 1514.4 1468.54 1514.03 Q1470.88 1513.66 1472.94 1513.66 Q1478.26 1513.66 1481.37 1516.09 Q1484.47 1518.5 1484.47 1522.62 Q1484.47 1525.49 1482.82 1527.48 Q1481.18 1529.45 1478.15 1530.21 Z" fill="#000000" fill-rule="nonzero" fill-opacity="1" /><path clip-path="url(#clip380)" d="M1885.68 1518.36 L1873.87 1536.81 L1885.68 1536.81 L1885.68 1518.36 M1884.45 1514.29 L1890.33 1514.29 L1890.33 1536.81 L1895.26 1536.81 L1895.26 1540.7 L1890.33 1540.7 L1890.33 1548.85 L1885.68 1548.85 L1885.68 1540.7 L1870.08 1540.7 L1870.08 1536.19 L1884.45 1514.29 Z" fill="#000000" fill-rule="nonzero" fill-opacity="1" /><path clip-path="url(#clip380)" d="M2281.72 1514.29 L2300.07 1514.29 L2300.07 1518.22 L2286 1518.22 L2286 1526.7 Q2287.02 1526.35 2288.04 1526.19 Q2289.06 1526 2290.07 1526 Q2295.86 1526 2299.24 1529.17 Q2302.62 1532.34 2302.62 1537.76 Q2302.62 1543.34 2299.15 1546.44 Q2295.68 1549.52 2289.36 1549.52 Q2287.18 1549.52 2284.91 1549.15 Q2282.67 1548.78 2280.26 1548.04 L2280.26 1543.34 Q2282.34 1544.47 2284.57 1545.03 Q2286.79 1545.58 2289.26 1545.58 Q2293.27 1545.58 2295.61 1543.48 Q2297.94 1541.37 2297.94 1537.76 Q2297.94 1534.15 2295.61 1532.04 Q2293.27 1529.94 2289.26 1529.94 Q2287.39 1529.94 2285.51 1530.35 Q2283.66 1530.77 2281.72 1531.65 L2281.72 1514.29 Z" fill="#000000" fill-rule="nonzero" fill-opacity="1" /><polyline clip-path="url(#clip380)" style="stroke:#000000; stroke-linecap:round; stroke-linejoin:round; stroke-width:4; stroke-opacity:1; fill:none" points="186.274,1486.45 186.274,47.2441 "/>
<polyline clip-path="url(#clip380)" style="stroke:#000000; stroke-linecap:round; stroke-linejoin:round; stroke-width:4; stroke-opacity:1; fill:none" points="186.274,1445.72 205.172,1445.72 "/>
<polyline clip-path="url(#clip380)" style="stroke:#000000; stroke-linecap:round; stroke-linejoin:round; stroke-width:4; stroke-opacity:1; fill:none" points="186.274,1122.57 205.172,1122.57 "/>
<polyline clip-path="url(#clip380)" style="stroke:#000000; stroke-linecap:round; stroke-linejoin:round; stroke-width:4; stroke-opacity:1; fill:none" points="186.274,799.428 205.172,799.428 "/>
<polyline clip-path="url(#clip380)" style="stroke:#000000; stroke-linecap:round; stroke-linejoin:round; stroke-width:4; stroke-opacity:1; fill:none" points="186.274,476.284 205.172,476.284 "/>
<polyline clip-path="url(#clip380)" style="stroke:#000000; stroke-linecap:round; stroke-linejoin:round; stroke-width:4; stroke-opacity:1; fill:none" points="186.274,153.14 205.172,153.14 "/>
<path clip-path="url(#clip380)" d="M62.9365 1431.51 Q59.3254 1431.51 57.4967 1435.08 Q55.6912 1438.62 55.6912 1445.75 Q55.6912 1452.86 57.4967 1456.42 Q59.3254 1459.96 62.9365 1459.96 Q66.5707 1459.96 68.3763 1456.42 Q70.205 1452.86 70.205 1445.75 Q70.205 1438.62 68.3763 1435.08 Q66.5707 1431.51 62.9365 1431.51 M62.9365 1427.81 Q68.7467 1427.81 71.8022 1432.42 Q74.8809 1437 74.8809 1445.75 Q74.8809 1454.48 71.8022 1459.08 Q68.7467 1463.67 62.9365 1463.67 Q57.1264 1463.67 54.0477 1459.08 Q50.9921 1454.48 50.9921 1445.75 Q50.9921 1437 54.0477 1432.42 Q57.1264 1427.81 62.9365 1427.81 Z" fill="#000000" fill-rule="nonzero" fill-opacity="1" /><path clip-path="url(#clip380)" d="M83.0984 1457.12 L87.9827 1457.12 L87.9827 1463 L83.0984 1463 L83.0984 1457.12 Z" fill="#000000" fill-rule="nonzero" fill-opacity="1" /><path clip-path="url(#clip380)" d="M108.168 1431.51 Q104.557 1431.51 102.728 1435.08 Q100.922 1438.62 100.922 1445.75 Q100.922 1452.86 102.728 1456.42 Q104.557 1459.96 108.168 1459.96 Q111.802 1459.96 113.608 1456.42 Q115.436 1452.86 115.436 1445.75 Q115.436 1438.62 113.608 1435.08 Q111.802 1431.51 108.168 1431.51 M108.168 1427.81 Q113.978 1427.81 117.033 1432.42 Q120.112 1437 120.112 1445.75 Q120.112 1454.48 117.033 1459.08 Q113.978 1463.67 108.168 1463.67 Q102.358 1463.67 99.2789 1459.08 Q96.2234 1454.48 96.2234 1445.75 Q96.2234 1437 99.2789 1432.42 Q102.358 1427.81 108.168 1427.81 Z" fill="#000000" fill-rule="nonzero" fill-opacity="1" /><path clip-path="url(#clip380)" d="M138.33 1431.51 Q134.719 1431.51 132.89 1435.08 Q131.084 1438.62 131.084 1445.75 Q131.084 1452.86 132.89 1456.42 Q134.719 1459.96 138.33 1459.96 Q141.964 1459.96 143.769 1456.42 Q145.598 1452.86 145.598 1445.75 Q145.598 1438.62 143.769 1435.08 Q141.964 1431.51 138.33 1431.51 M138.33 1427.81 Q144.14 1427.81 147.195 1432.42 Q150.274 1437 150.274 1445.75 Q150.274 1454.48 147.195 1459.08 Q144.14 1463.67 138.33 1463.67 Q132.519 1463.67 129.441 1459.08 Q126.385 1454.48 126.385 1445.75 Q126.385 1437 129.441 1432.42 Q132.519 1427.81 138.33 1427.81 Z" fill="#000000" fill-rule="nonzero" fill-opacity="1" /><path clip-path="url(#clip380)" d="M63.9319 1108.37 Q60.3208 1108.37 58.4921 1111.94 Q56.6865 1115.48 56.6865 1122.61 Q56.6865 1129.71 58.4921 1133.28 Q60.3208 1136.82 63.9319 1136.82 Q67.5661 1136.82 69.3717 1133.28 Q71.2004 1129.71 71.2004 1122.61 Q71.2004 1115.48 69.3717 1111.94 Q67.5661 1108.37 63.9319 1108.37 M63.9319 1104.67 Q69.742 1104.67 72.7976 1109.27 Q75.8763 1113.86 75.8763 1122.61 Q75.8763 1131.33 72.7976 1135.94 Q69.742 1140.52 63.9319 1140.52 Q58.1217 1140.52 55.043 1135.94 Q51.9875 1131.33 51.9875 1122.61 Q51.9875 1113.86 55.043 1109.27 Q58.1217 1104.67 63.9319 1104.67 Z" fill="#000000" fill-rule="nonzero" fill-opacity="1" /><path clip-path="url(#clip380)" d="M84.0938 1133.97 L88.978 1133.97 L88.978 1139.85 L84.0938 1139.85 L84.0938 1133.97 Z" fill="#000000" fill-rule="nonzero" fill-opacity="1" /><path clip-path="url(#clip380)" d="M103.191 1135.92 L119.51 1135.92 L119.51 1139.85 L97.566 1139.85 L97.566 1135.92 Q100.228 1133.16 104.811 1128.53 Q109.418 1123.88 110.598 1122.54 Q112.844 1120.01 113.723 1118.28 Q114.626 1116.52 114.626 1114.83 Q114.626 1112.07 112.682 1110.34 Q110.76 1108.6 107.658 1108.6 Q105.459 1108.6 103.006 1109.37 Q100.575 1110.13 97.7974 1111.68 L97.7974 1106.96 Q100.621 1105.82 103.075 1105.25 Q105.529 1104.67 107.566 1104.67 Q112.936 1104.67 116.131 1107.35 Q119.325 1110.04 119.325 1114.53 Q119.325 1116.66 118.515 1118.58 Q117.728 1120.48 115.621 1123.07 Q115.043 1123.74 111.941 1126.96 Q108.839 1130.15 103.191 1135.92 Z" fill="#000000" fill-rule="nonzero" fill-opacity="1" /><path clip-path="url(#clip380)" d="M129.371 1105.29 L147.728 1105.29 L147.728 1109.23 L133.654 1109.23 L133.654 1117.7 Q134.672 1117.35 135.691 1117.19 Q136.709 1117 137.728 1117 Q143.515 1117 146.894 1120.18 Q150.274 1123.35 150.274 1128.76 Q150.274 1134.34 146.802 1137.44 Q143.33 1140.52 137.01 1140.52 Q134.834 1140.52 132.566 1140.15 Q130.32 1139.78 127.913 1139.04 L127.913 1134.34 Q129.996 1135.48 132.219 1136.03 Q134.441 1136.59 136.918 1136.59 Q140.922 1136.59 143.26 1134.48 Q145.598 1132.38 145.598 1128.76 Q145.598 1125.15 143.26 1123.05 Q140.922 1120.94 136.918 1120.94 Q135.043 1120.94 133.168 1121.36 Q131.316 1121.77 129.371 1122.65 L129.371 1105.29 Z" fill="#000000" fill-rule="nonzero" fill-opacity="1" /><path clip-path="url(#clip380)" d="M62.9365 785.227 Q59.3254 785.227 57.4967 788.792 Q55.6912 792.333 55.6912 799.463 Q55.6912 806.569 57.4967 810.134 Q59.3254 813.676 62.9365 813.676 Q66.5707 813.676 68.3763 810.134 Q70.205 806.569 70.205 799.463 Q70.205 792.333 68.3763 788.792 Q66.5707 785.227 62.9365 785.227 M62.9365 781.523 Q68.7467 781.523 71.8022 786.13 Q74.8809 790.713 74.8809 799.463 Q74.8809 808.19 71.8022 812.796 Q68.7467 817.379 62.9365 817.379 Q57.1264 817.379 54.0477 812.796 Q50.9921 808.19 50.9921 799.463 Q50.9921 790.713 54.0477 786.13 Q57.1264 781.523 62.9365 781.523 Z" fill="#000000" fill-rule="nonzero" fill-opacity="1" /><path clip-path="url(#clip380)" d="M83.0984 810.828 L87.9827 810.828 L87.9827 816.708 L83.0984 816.708 L83.0984 810.828 Z" fill="#000000" fill-rule="nonzero" fill-opacity="1" /><path clip-path="url(#clip380)" d="M98.2141 782.148 L116.57 782.148 L116.57 786.083 L102.496 786.083 L102.496 794.555 Q103.515 794.208 104.534 794.046 Q105.552 793.861 106.571 793.861 Q112.358 793.861 115.737 797.032 Q119.117 800.204 119.117 805.62 Q119.117 811.199 115.645 814.301 Q112.172 817.379 105.853 817.379 Q103.677 817.379 101.409 817.009 Q99.1632 816.639 96.7558 815.898 L96.7558 811.199 Q98.8391 812.333 101.061 812.889 Q103.284 813.444 105.76 813.444 Q109.765 813.444 112.103 811.338 Q114.441 809.231 114.441 805.62 Q114.441 802.009 112.103 799.903 Q109.765 797.796 105.76 797.796 Q103.885 797.796 102.01 798.213 Q100.159 798.629 98.2141 799.509 L98.2141 782.148 Z" fill="#000000" fill-rule="nonzero" fill-opacity="1" /><path clip-path="url(#clip380)" d="M138.33 785.227 Q134.719 785.227 132.89 788.792 Q131.084 792.333 131.084 799.463 Q131.084 806.569 132.89 810.134 Q134.719 813.676 138.33 813.676 Q141.964 813.676 143.769 810.134 Q145.598 806.569 145.598 799.463 Q145.598 792.333 143.769 788.792 Q141.964 785.227 138.33 785.227 M138.33 781.523 Q144.14 781.523 147.195 786.13 Q150.274 790.713 150.274 799.463 Q150.274 808.19 147.195 812.796 Q144.14 817.379 138.33 817.379 Q132.519 817.379 129.441 812.796 Q126.385 808.19 126.385 799.463 Q126.385 790.713 129.441 786.13 Q132.519 781.523 138.33 781.523 Z" fill="#000000" fill-rule="nonzero" fill-opacity="1" /><path clip-path="url(#clip380)" d="M63.9319 462.083 Q60.3208 462.083 58.4921 465.648 Q56.6865 469.189 56.6865 476.319 Q56.6865 483.425 58.4921 486.99 Q60.3208 490.532 63.9319 490.532 Q67.5661 490.532 69.3717 486.99 Q71.2004 483.425 71.2004 476.319 Q71.2004 469.189 69.3717 465.648 Q67.5661 462.083 63.9319 462.083 M63.9319 458.379 Q69.742 458.379 72.7976 462.986 Q75.8763 467.569 75.8763 476.319 Q75.8763 485.046 72.7976 489.652 Q69.742 494.236 63.9319 494.236 Q58.1217 494.236 55.043 489.652 Q51.9875 485.046 51.9875 476.319 Q51.9875 467.569 55.043 462.986 Q58.1217 458.379 63.9319 458.379 Z" fill="#000000" fill-rule="nonzero" fill-opacity="1" /><path clip-path="url(#clip380)" d="M84.0938 487.685 L88.978 487.685 L88.978 493.564 L84.0938 493.564 L84.0938 487.685 Z" fill="#000000" fill-rule="nonzero" fill-opacity="1" /><path clip-path="url(#clip380)" d="M97.9826 459.004 L120.205 459.004 L120.205 460.995 L107.658 493.564 L102.774 493.564 L114.58 462.939 L97.9826 462.939 L97.9826 459.004 Z" fill="#000000" fill-rule="nonzero" fill-opacity="1" /><path clip-path="url(#clip380)" d="M129.371 459.004 L147.728 459.004 L147.728 462.939 L133.654 462.939 L133.654 471.412 Q134.672 471.064 135.691 470.902 Q136.709 470.717 137.728 470.717 Q143.515 470.717 146.894 473.888 Q150.274 477.06 150.274 482.476 Q150.274 488.055 146.802 491.157 Q143.33 494.236 137.01 494.236 Q134.834 494.236 132.566 493.865 Q130.32 493.495 127.913 492.754 L127.913 488.055 Q129.996 489.189 132.219 489.745 Q134.441 490.3 136.918 490.3 Q140.922 490.3 143.26 488.194 Q145.598 486.087 145.598 482.476 Q145.598 478.865 143.26 476.759 Q140.922 474.652 136.918 474.652 Q135.043 474.652 133.168 475.069 Q131.316 475.486 129.371 476.365 L129.371 459.004 Z" fill="#000000" fill-rule="nonzero" fill-opacity="1" /><path clip-path="url(#clip380)" d="M53.7467 166.485 L61.3856 166.485 L61.3856 140.12 L53.0754 141.786 L53.0754 137.527 L61.3393 135.86 L66.0152 135.86 L66.0152 166.485 L73.654 166.485 L73.654 170.42 L53.7467 170.42 L53.7467 166.485 Z" fill="#000000" fill-rule="nonzero" fill-opacity="1" /><path clip-path="url(#clip380)" d="M83.0984 164.541 L87.9827 164.541 L87.9827 170.42 L83.0984 170.42 L83.0984 164.541 Z" fill="#000000" fill-rule="nonzero" fill-opacity="1" /><path clip-path="url(#clip380)" d="M108.168 138.939 Q104.557 138.939 102.728 142.504 Q100.922 146.046 100.922 153.175 Q100.922 160.282 102.728 163.846 Q104.557 167.388 108.168 167.388 Q111.802 167.388 113.608 163.846 Q115.436 160.282 115.436 153.175 Q115.436 146.046 113.608 142.504 Q111.802 138.939 108.168 138.939 M108.168 135.235 Q113.978 135.235 117.033 139.842 Q120.112 144.425 120.112 153.175 Q120.112 161.902 117.033 166.508 Q113.978 171.092 108.168 171.092 Q102.358 171.092 99.2789 166.508 Q96.2234 161.902 96.2234 153.175 Q96.2234 144.425 99.2789 139.842 Q102.358 135.235 108.168 135.235 Z" fill="#000000" fill-rule="nonzero" fill-opacity="1" /><path clip-path="url(#clip380)" d="M138.33 138.939 Q134.719 138.939 132.89 142.504 Q131.084 146.046 131.084 153.175 Q131.084 160.282 132.89 163.846 Q134.719 167.388 138.33 167.388 Q141.964 167.388 143.769 163.846 Q145.598 160.282 145.598 153.175 Q145.598 146.046 143.769 142.504 Q141.964 138.939 138.33 138.939 M138.33 135.235 Q144.14 135.235 147.195 139.842 Q150.274 144.425 150.274 153.175 Q150.274 161.902 147.195 166.508 Q144.14 171.092 138.33 171.092 Q132.519 171.092 129.441 166.508 Q126.385 161.902 126.385 153.175 Q126.385 144.425 129.441 139.842 Q132.519 135.235 138.33 135.235 Z" fill="#000000" fill-rule="nonzero" fill-opacity="1" /><polyline clip-path="url(#clip381)" style="stroke:#add8e6; stroke-linecap:round; stroke-linejoin:round; stroke-width:32; stroke-opacity:1; fill:none" points="247.59,1445.72 252.865,1445.72 258.14,1445.71 263.415,1445.71 268.69,1445.69 299.585,1445.35 330.48,1444.24 361.376,1441.89 392.271,1437.88 421.016,1432.27 449.761,1424.53 469.026,1418.01 488.29,1410.33 507.555,1401.42 526.819,1391.24 542.738,1381.82 558.656,1371.48 574.575,1360.21 590.493,1348.01 605.296,1335.82 620.098,1322.84 634.901,1309.06 649.703,1294.52 668.286,1275.21 686.868,1254.77 705.45,1233.27 724.033,1210.79 757.37,1168.26 790.706,1123.36 867.024,1014.73 924.071,931.502 960.553,878.738 997.035,827.016 1030.33,781.117 1063.63,736.758 1101.53,688.417 1139.42,642.57 1169.46,608.086 1199.51,575.283 1236.83,536.876 1274.15,501.036 1302.73,475.28 1331.32,450.944 1371.62,418.95 1411.91,389.52 1442.03,369.103 1472.14,349.954 1506.39,329.627 1540.63,310.744 1574.55,293.369 1608.47,277.22 1645.78,260.764 1683.09,245.574 1711.59,234.76 1740.09,224.581 1812.03,201.451 1878.56,182.929 1947.17,166.286 2016.72,151.593 2089.34,138.242 2146.54,128.956 2276.82,111.154 2291.44,109.407 "/>
<polyline clip-path="url(#clip381)" style="stroke:#0000ff; stroke-linecap:round; stroke-linejoin:round; stroke-width:24; stroke-opacity:0.7; fill:none" stroke-dasharray="96, 60" points="247.59,1445.33 258.14,1445.25 268.69,1445.15 330.48,1444.13 392.271,1441.55 421.016,1439.35 449.761,1436.16 488.29,1429.68 526.819,1419.68 542.738,1414.22 558.656,1407.84 574.575,1400.45 590.493,1391.93 605.296,1382.94 620.098,1372.83 634.901,1361.56 649.703,1349.08 668.286,1331.66 686.868,1312.26 705.45,1290.9 724.033,1267.65 740.701,1245.28 757.37,1221.58 774.038,1196.7 790.706,1170.78 828.865,1108.44 867.024,1043.67 895.547,994.906 924.071,946.682 960.553,886.772 997.035,829.727 1030.33,780.686 1063.63,734.782 1082.58,710.093 1101.53,686.439 1120.47,663.803 1139.42,642.16 1169.46,609.805 1199.51,579.72 1236.83,545.259 1274.15,513.729 1302.73,491.364 1331.32,470.395 1371.62,442.955 1411.91,417.707 1442.03,400.094 1472.14,383.433 1506.39,365.517 1540.63,348.576 1574.55,332.649 1608.47,317.47 1683.09,286.295 1740.09,264.177 1812.03,237.917 1878.56,214.934 1947.17,192.264 2016.72,170.132 2089.34,147.734 2146.54,130.494 2276.82,92.2068 2291.44,87.9763 "/>
<path clip-path="url(#clip380)" d="M258.49 250.738 L808.609 250.738 L808.609 95.2176 L258.49 95.2176  Z" fill="#ffffff" fill-rule="evenodd" fill-opacity="1"/>
<polyline clip-path="url(#clip380)" style="stroke:#000000; stroke-linecap:round; stroke-linejoin:round; stroke-width:4; stroke-opacity:1; fill:none" points="258.49,250.738 808.609,250.738 808.609,95.2176 258.49,95.2176 258.49,250.738 "/>
<polyline clip-path="url(#clip380)" style="stroke:#add8e6; stroke-linecap:round; stroke-linejoin:round; stroke-width:20; stroke-opacity:1; fill:none" points="282.562,147.058 426.994,147.058 "/>
<path clip-path="url(#clip380)" d="M451.066 129.778 L480.302 129.778 L480.302 133.713 L468.034 133.713 L468.034 164.338 L463.335 164.338 L463.335 133.713 L451.066 133.713 L451.066 129.778 Z" fill="#000000" fill-rule="nonzero" fill-opacity="1" /><path clip-path="url(#clip380)" d="M492.686 142.393 Q491.969 141.977 491.112 141.791 Q490.279 141.583 489.26 141.583 Q485.649 141.583 483.705 143.944 Q481.784 146.282 481.784 150.68 L481.784 164.338 L477.501 164.338 L477.501 138.412 L481.784 138.412 L481.784 142.44 Q483.126 140.078 485.279 138.944 Q487.432 137.787 490.51 137.787 Q490.95 137.787 491.483 137.856 Q492.015 137.903 492.663 138.018 L492.686 142.393 Z" fill="#000000" fill-rule="nonzero" fill-opacity="1" /><path clip-path="url(#clip380)" d="M496.714 154.106 L496.714 138.412 L500.973 138.412 L500.973 153.944 Q500.973 157.625 502.409 159.476 Q503.844 161.305 506.714 161.305 Q510.163 161.305 512.154 159.106 Q514.168 156.907 514.168 153.111 L514.168 138.412 L518.427 138.412 L518.427 164.338 L514.168 164.338 L514.168 160.356 Q512.617 162.717 510.557 163.875 Q508.52 165.009 505.811 165.009 Q501.344 165.009 499.029 162.231 Q496.714 159.453 496.714 154.106 M507.432 137.787 L507.432 137.787 Z" fill="#000000" fill-rule="nonzero" fill-opacity="1" /><path clip-path="url(#clip380)" d="M549.376 150.31 L549.376 152.393 L529.793 152.393 Q530.07 156.791 532.432 159.106 Q534.816 161.398 539.052 161.398 Q541.506 161.398 543.797 160.796 Q546.112 160.194 548.381 158.99 L548.381 163.018 Q546.089 163.99 543.681 164.5 Q541.274 165.009 538.797 165.009 Q532.594 165.009 528.959 161.398 Q525.348 157.787 525.348 151.629 Q525.348 145.264 528.774 141.537 Q532.223 137.787 538.057 137.787 Q543.288 137.787 546.32 141.166 Q549.376 144.523 549.376 150.31 M545.117 149.06 Q545.07 145.565 543.149 143.481 Q541.251 141.398 538.103 141.398 Q534.538 141.398 532.385 143.412 Q530.256 145.426 529.932 149.083 L545.117 149.06 Z" fill="#000000" fill-rule="nonzero" fill-opacity="1" /><path clip-path="url(#clip380)" d="M584.561 128.319 L584.561 131.861 L580.487 131.861 Q578.195 131.861 577.292 132.787 Q576.413 133.713 576.413 136.12 L576.413 138.412 L583.427 138.412 L583.427 141.722 L576.413 141.722 L576.413 164.338 L572.13 164.338 L572.13 141.722 L568.056 141.722 L568.056 138.412 L572.13 138.412 L572.13 136.606 Q572.13 132.278 574.144 130.31 Q576.158 128.319 580.533 128.319 L584.561 128.319 Z" fill="#000000" fill-rule="nonzero" fill-opacity="1" /><path clip-path="url(#clip380)" d="M587.686 154.106 L587.686 138.412 L591.945 138.412 L591.945 153.944 Q591.945 157.625 593.38 159.476 Q594.815 161.305 597.686 161.305 Q601.135 161.305 603.126 159.106 Q605.139 156.907 605.139 153.111 L605.139 138.412 L609.399 138.412 L609.399 164.338 L605.139 164.338 L605.139 160.356 Q603.589 162.717 601.528 163.875 Q599.491 165.009 596.783 165.009 Q592.315 165.009 590.001 162.231 Q587.686 159.453 587.686 154.106 M598.403 137.787 L598.403 137.787 Z" fill="#000000" fill-rule="nonzero" fill-opacity="1" /><path clip-path="url(#clip380)" d="M639.723 148.689 L639.723 164.338 L635.463 164.338 L635.463 148.828 Q635.463 145.148 634.028 143.319 Q632.593 141.49 629.723 141.49 Q626.274 141.49 624.283 143.69 Q622.292 145.889 622.292 149.685 L622.292 164.338 L618.01 164.338 L618.01 138.412 L622.292 138.412 L622.292 142.44 Q623.82 140.102 625.88 138.944 Q627.963 137.787 630.672 137.787 Q635.139 137.787 637.431 140.565 Q639.723 143.319 639.723 148.689 Z" fill="#000000" fill-rule="nonzero" fill-opacity="1" /><path clip-path="url(#clip380)" d="M666.875 139.407 L666.875 143.389 Q665.07 142.393 663.241 141.907 Q661.435 141.398 659.584 141.398 Q655.44 141.398 653.148 144.037 Q650.857 146.652 650.857 151.398 Q650.857 156.143 653.148 158.782 Q655.44 161.398 659.584 161.398 Q661.435 161.398 663.241 160.912 Q665.07 160.402 666.875 159.407 L666.875 163.342 Q665.093 164.176 663.172 164.592 Q661.273 165.009 659.121 165.009 Q653.264 165.009 649.815 161.328 Q646.366 157.648 646.366 151.398 Q646.366 145.055 649.838 141.421 Q653.334 137.787 659.398 137.787 Q661.366 137.787 663.241 138.203 Q665.116 138.597 666.875 139.407 Z" fill="#000000" fill-rule="nonzero" fill-opacity="1" /><path clip-path="url(#clip380)" d="M678.496 131.051 L678.496 138.412 L687.269 138.412 L687.269 141.722 L678.496 141.722 L678.496 155.796 Q678.496 158.967 679.352 159.87 Q680.232 160.773 682.894 160.773 L687.269 160.773 L687.269 164.338 L682.894 164.338 Q677.963 164.338 676.088 162.509 Q674.213 160.657 674.213 155.796 L674.213 141.722 L671.088 141.722 L671.088 138.412 L674.213 138.412 L674.213 131.051 L678.496 131.051 Z" fill="#000000" fill-rule="nonzero" fill-opacity="1" /><path clip-path="url(#clip380)" d="M692.87 138.412 L697.13 138.412 L697.13 164.338 L692.87 164.338 L692.87 138.412 M692.87 128.319 L697.13 128.319 L697.13 133.713 L692.87 133.713 L692.87 128.319 Z" fill="#000000" fill-rule="nonzero" fill-opacity="1" /><path clip-path="url(#clip380)" d="M716.088 141.398 Q712.662 141.398 710.671 144.083 Q708.681 146.745 708.681 151.398 Q708.681 156.051 710.648 158.736 Q712.639 161.398 716.088 161.398 Q719.491 161.398 721.481 158.713 Q723.472 156.027 723.472 151.398 Q723.472 146.791 721.481 144.106 Q719.491 141.398 716.088 141.398 M716.088 137.787 Q721.643 137.787 724.815 141.398 Q727.986 145.009 727.986 151.398 Q727.986 157.764 724.815 161.398 Q721.643 165.009 716.088 165.009 Q710.509 165.009 707.338 161.398 Q704.19 157.764 704.19 151.398 Q704.19 145.009 707.338 141.398 Q710.509 137.787 716.088 137.787 Z" fill="#000000" fill-rule="nonzero" fill-opacity="1" /><path clip-path="url(#clip380)" d="M756.597 148.689 L756.597 164.338 L752.338 164.338 L752.338 148.828 Q752.338 145.148 750.903 143.319 Q749.467 141.49 746.597 141.49 Q743.148 141.49 741.157 143.69 Q739.167 145.889 739.167 149.685 L739.167 164.338 L734.884 164.338 L734.884 138.412 L739.167 138.412 L739.167 142.44 Q740.694 140.102 742.754 138.944 Q744.838 137.787 747.546 137.787 Q752.014 137.787 754.305 140.565 Q756.597 143.319 756.597 148.689 Z" fill="#000000" fill-rule="nonzero" fill-opacity="1" /><polyline clip-path="url(#clip380)" style="stroke:#0000ff; stroke-linecap:round; stroke-linejoin:round; stroke-width:20; stroke-opacity:0.7; fill:none" stroke-dasharray="80, 50" points="282.562,198.898 426.994,198.898 "/>
<path clip-path="url(#clip380)" d="M451.066 181.618 L470.927 181.618 L470.927 185.553 L455.742 185.553 L455.742 195.738 L469.446 195.738 L469.446 199.673 L455.742 199.673 L455.742 216.178 L451.066 216.178 L451.066 181.618 Z" fill="#000000" fill-rule="nonzero" fill-opacity="1" /><path clip-path="url(#clip380)" d="M474.7 190.252 L478.96 190.252 L478.96 216.178 L474.7 216.178 L474.7 190.252 M474.7 180.159 L478.96 180.159 L478.96 185.553 L474.7 185.553 L474.7 180.159 Z" fill="#000000" fill-rule="nonzero" fill-opacity="1" /><path clip-path="url(#clip380)" d="M492.085 182.891 L492.085 190.252 L500.858 190.252 L500.858 193.562 L492.085 193.562 L492.085 207.636 Q492.085 210.807 492.941 211.71 Q493.821 212.613 496.483 212.613 L500.858 212.613 L500.858 216.178 L496.483 216.178 Q491.552 216.178 489.677 214.349 Q487.802 212.497 487.802 207.636 L487.802 193.562 L484.677 193.562 L484.677 190.252 L487.802 190.252 L487.802 182.891 L492.085 182.891 Z" fill="#000000" fill-rule="nonzero" fill-opacity="1" /><path clip-path="url(#clip380)" d="M510.672 182.891 L510.672 190.252 L519.445 190.252 L519.445 193.562 L510.672 193.562 L510.672 207.636 Q510.672 210.807 511.529 211.71 Q512.408 212.613 515.071 212.613 L519.445 212.613 L519.445 216.178 L515.071 216.178 Q510.14 216.178 508.265 214.349 Q506.39 212.497 506.39 207.636 L506.39 193.562 L503.265 193.562 L503.265 190.252 L506.39 190.252 L506.39 182.891 L510.672 182.891 Z" fill="#000000" fill-rule="nonzero" fill-opacity="1" /><path clip-path="url(#clip380)" d="M547.223 202.15 L547.223 204.233 L527.64 204.233 Q527.918 208.631 530.279 210.946 Q532.663 213.238 536.899 213.238 Q539.353 213.238 541.644 212.636 Q543.959 212.034 546.228 210.83 L546.228 214.858 Q543.936 215.83 541.529 216.34 Q539.121 216.849 536.644 216.849 Q530.441 216.849 526.807 213.238 Q523.195 209.627 523.195 203.469 Q523.195 197.104 526.621 193.377 Q530.07 189.627 535.904 189.627 Q541.135 189.627 544.168 193.006 Q547.223 196.363 547.223 202.15 M542.964 200.9 Q542.918 197.405 540.996 195.321 Q539.098 193.238 535.95 193.238 Q532.385 193.238 530.232 195.252 Q528.103 197.266 527.779 200.923 L542.964 200.9 Z" fill="#000000" fill-rule="nonzero" fill-opacity="1" /><path clip-path="url(#clip380)" d="M571.274 194.187 L571.274 180.159 L575.533 180.159 L575.533 216.178 L571.274 216.178 L571.274 212.289 Q569.931 214.603 567.871 215.738 Q565.834 216.849 562.964 216.849 Q558.265 216.849 555.302 213.099 Q552.362 209.349 552.362 203.238 Q552.362 197.127 555.302 193.377 Q558.265 189.627 562.964 189.627 Q565.834 189.627 567.871 190.761 Q569.931 191.872 571.274 194.187 M556.76 203.238 Q556.76 207.937 558.681 210.622 Q560.626 213.284 564.005 213.284 Q567.385 213.284 569.329 210.622 Q571.274 207.937 571.274 203.238 Q571.274 198.539 569.329 195.877 Q567.385 193.192 564.005 193.192 Q560.626 193.192 558.681 195.877 Q556.76 198.539 556.76 203.238 Z" fill="#000000" fill-rule="nonzero" fill-opacity="1" /><path clip-path="url(#clip380)" d="M612.501 180.159 L612.501 183.701 L608.427 183.701 Q606.135 183.701 605.232 184.627 Q604.352 185.553 604.352 187.96 L604.352 190.252 L611.366 190.252 L611.366 193.562 L604.352 193.562 L604.352 216.178 L600.07 216.178 L600.07 193.562 L595.996 193.562 L595.996 190.252 L600.07 190.252 L600.07 188.446 Q600.07 184.118 602.084 182.15 Q604.098 180.159 608.473 180.159 L612.501 180.159 Z" fill="#000000" fill-rule="nonzero" fill-opacity="1" /><path clip-path="url(#clip380)" d="M615.626 205.946 L615.626 190.252 L619.885 190.252 L619.885 205.784 Q619.885 209.465 621.32 211.316 Q622.755 213.145 625.625 213.145 Q629.075 213.145 631.065 210.946 Q633.079 208.747 633.079 204.951 L633.079 190.252 L637.338 190.252 L637.338 216.178 L633.079 216.178 L633.079 212.196 Q631.528 214.557 629.468 215.715 Q627.431 216.849 624.723 216.849 Q620.255 216.849 617.94 214.071 Q615.626 211.293 615.626 205.946 M626.343 189.627 L626.343 189.627 Z" fill="#000000" fill-rule="nonzero" fill-opacity="1" /><path clip-path="url(#clip380)" d="M667.662 200.529 L667.662 216.178 L663.403 216.178 L663.403 200.668 Q663.403 196.988 661.968 195.159 Q660.533 193.33 657.662 193.33 Q654.213 193.33 652.223 195.53 Q650.232 197.729 650.232 201.525 L650.232 216.178 L645.949 216.178 L645.949 190.252 L650.232 190.252 L650.232 194.28 Q651.76 191.942 653.82 190.784 Q655.903 189.627 658.611 189.627 Q663.079 189.627 665.371 192.405 Q667.662 195.159 667.662 200.529 Z" fill="#000000" fill-rule="nonzero" fill-opacity="1" /><path clip-path="url(#clip380)" d="M694.815 191.247 L694.815 195.229 Q693.009 194.233 691.181 193.747 Q689.375 193.238 687.523 193.238 Q683.38 193.238 681.088 195.877 Q678.796 198.492 678.796 203.238 Q678.796 207.983 681.088 210.622 Q683.38 213.238 687.523 213.238 Q689.375 213.238 691.181 212.752 Q693.009 212.242 694.815 211.247 L694.815 215.182 Q693.033 216.016 691.111 216.432 Q689.213 216.849 687.06 216.849 Q681.204 216.849 677.755 213.168 Q674.306 209.488 674.306 203.238 Q674.306 196.895 677.778 193.261 Q681.273 189.627 687.338 189.627 Q689.306 189.627 691.181 190.043 Q693.056 190.437 694.815 191.247 Z" fill="#000000" fill-rule="nonzero" fill-opacity="1" /><path clip-path="url(#clip380)" d="M706.435 182.891 L706.435 190.252 L715.208 190.252 L715.208 193.562 L706.435 193.562 L706.435 207.636 Q706.435 210.807 707.292 211.71 Q708.171 212.613 710.833 212.613 L715.208 212.613 L715.208 216.178 L710.833 216.178 Q705.903 216.178 704.028 214.349 Q702.153 212.497 702.153 207.636 L702.153 193.562 L699.028 193.562 L699.028 190.252 L702.153 190.252 L702.153 182.891 L706.435 182.891 Z" fill="#000000" fill-rule="nonzero" fill-opacity="1" /><path clip-path="url(#clip380)" d="M720.81 190.252 L725.069 190.252 L725.069 216.178 L720.81 216.178 L720.81 190.252 M720.81 180.159 L725.069 180.159 L725.069 185.553 L720.81 185.553 L720.81 180.159 Z" fill="#000000" fill-rule="nonzero" fill-opacity="1" /><path clip-path="url(#clip380)" d="M744.028 193.238 Q740.602 193.238 738.611 195.923 Q736.62 198.585 736.62 203.238 Q736.62 207.891 738.588 210.576 Q740.579 213.238 744.028 213.238 Q747.43 213.238 749.421 210.553 Q751.412 207.867 751.412 203.238 Q751.412 198.631 749.421 195.946 Q747.43 193.238 744.028 193.238 M744.028 189.627 Q749.583 189.627 752.754 193.238 Q755.926 196.849 755.926 203.238 Q755.926 209.604 752.754 213.238 Q749.583 216.849 744.028 216.849 Q738.449 216.849 735.278 213.238 Q732.13 209.604 732.13 203.238 Q732.13 196.849 735.278 193.238 Q738.449 189.627 744.028 189.627 Z" fill="#000000" fill-rule="nonzero" fill-opacity="1" /><path clip-path="url(#clip380)" d="M784.537 200.529 L784.537 216.178 L780.277 216.178 L780.277 200.668 Q780.277 196.988 778.842 195.159 Q777.407 193.33 774.537 193.33 Q771.088 193.33 769.097 195.53 Q767.106 197.729 767.106 201.525 L767.106 216.178 L762.824 216.178 L762.824 190.252 L767.106 190.252 L767.106 194.28 Q768.634 191.942 770.694 190.784 Q772.777 189.627 775.486 189.627 Q779.953 189.627 782.245 192.405 Q784.537 195.159 784.537 200.529 Z" fill="#000000" fill-rule="nonzero" fill-opacity="1" /></svg>
