<?xml version="1.0" encoding="utf-8"?>
<svg xmlns="http://www.w3.org/2000/svg" xmlns:xlink="http://www.w3.org/1999/xlink" width="600" height="400" viewBox="0 0 2400 1600">
<defs>
  <clipPath id="clip490">
    <rect x="0" y="0" width="2400" height="1600"/>
  </clipPath>
</defs>
<path clip-path="url(#clip490)" d="M0 1600 L2400 1600 L2400 0 L0 0  Z" fill="#ffffff" fill-rule="evenodd" fill-opacity="1"/>
<defs>
  <clipPath id="clip491">
    <rect x="112" y="47" width="2242" height="1377"/>
  </clipPath>
</defs>
<path clip-path="url(#clip490)" d="M112.177 1423.18 L2352.76 1423.18 L2352.76 47.2441 L112.177 47.2441  Z" fill="#ffffff" fill-rule="evenodd" fill-opacity="1"/>
<polyline clip-path="url(#clip491)" style="stroke:#000000; stroke-linecap:round; stroke-linejoin:round; stroke-width:2; stroke-opacity:0.1; fill:none" points="112.177,1423.18 112.177,47.2441 "/>
<polyline clip-path="url(#clip491)" style="stroke:#000000; stroke-linecap:round; stroke-linejoin:round; stroke-width:2; stroke-opacity:0.1; fill:none" points="610.084,1423.18 610.084,47.2441 "/>
<polyline clip-path="url(#clip491)" style="stroke:#000000; stroke-linecap:round; stroke-linejoin:round; stroke-width:2; stroke-opacity:0.1; fill:none" points="1107.99,1423.18 1107.99,47.2441 "/>
<polyline clip-path="url(#clip491)" style="stroke:#000000; stroke-linecap:round; stroke-linejoin:round; stroke-width:2; stroke-opacity:0.1; fill:none" points="1605.9,1423.18 1605.9,47.2441 "/>
<polyline clip-path="url(#clip491)" style="stroke:#000000; stroke-linecap:round; stroke-linejoin:round; stroke-width:2; stroke-opacity:0.1; fill:none" points="2103.8,1423.18 2103.8,47.2441 "/>
<polyline clip-path="url(#clip491)" style="stroke:#000000; stroke-linecap:round; stroke-linejoin:round; stroke-width:2; stroke-opacity:0.1; fill:none" points="112.177,1413.43 2352.76,1413.43 "/>
<polyline clip-path="url(#clip491)" style="stroke:#000000; stroke-linecap:round; stroke-linejoin:round; stroke-width:2; stroke-opacity:0.1; fill:none" points="112.177,1121.48 2352.76,1121.48 "/>
<polyline clip-path="url(#clip491)" style="stroke:#000000; stroke-linecap:round; stroke-linejoin:round; stroke-width:2; stroke-opacity:0.1; fill:none" points="112.177,829.534 2352.76,829.534 "/>
<polyline clip-path="url(#clip491)" style="stroke:#000000; stroke-linecap:round; stroke-linejoin:round; stroke-width:2; stroke-opacity:0.1; fill:none" points="112.177,537.584 2352.76,537.584 "/>
<polyline clip-path="url(#clip491)" style="stroke:#000000; stroke-linecap:round; stroke-linejoin:round; stroke-width:2; stroke-opacity:0.1; fill:none" points="112.177,245.634 2352.76,245.634 "/>
<polyline clip-path="url(#clip490)" style="stroke:#000000; stroke-linecap:round; stroke-linejoin:round; stroke-width:4; stroke-opacity:1; fill:none" points="112.177,1423.18 2352.76,1423.18 "/>
<polyline clip-path="url(#clip490)" style="stroke:#000000; stroke-linecap:round; stroke-linejoin:round; stroke-width:4; stroke-opacity:1; fill:none" points="112.177,1423.18 112.177,1404.28 "/>
<polyline clip-path="url(#clip490)" style="stroke:#000000; stroke-linecap:round; stroke-linejoin:round; stroke-width:4; stroke-opacity:1; fill:none" points="610.084,1423.18 610.084,1404.28 "/>
<polyline clip-path="url(#clip490)" style="stroke:#000000; stroke-linecap:round; stroke-linejoin:round; stroke-width:4; stroke-opacity:1; fill:none" points="1107.99,1423.18 1107.99,1404.28 "/>
<polyline clip-path="url(#clip490)" style="stroke:#000000; stroke-linecap:round; stroke-linejoin:round; stroke-width:4; stroke-opacity:1; fill:none" points="1605.9,1423.18 1605.9,1404.28 "/>
<polyline clip-path="url(#clip490)" style="stroke:#000000; stroke-linecap:round; stroke-linejoin:round; stroke-width:4; stroke-opacity:1; fill:none" points="2103.8,1423.18 2103.8,1404.28 "/>
<path clip-path="url(#clip490)" d="M112.177 1454.1 Q108.566 1454.1 106.737 1457.66 Q104.932 1461.2 104.932 1468.33 Q104.932 1475.44 106.737 1479.01 Q108.566 1482.55 112.177 1482.55 Q115.811 1482.55 117.617 1479.01 Q119.446 1475.44 119.446 1468.33 Q119.446 1461.2 117.617 1457.66 Q115.811 1454.1 112.177 1454.1 M112.177 1450.39 Q117.987 1450.39 121.043 1455 Q124.122 1459.58 124.122 1468.33 Q124.122 1477.06 121.043 1481.67 Q117.987 1486.25 112.177 1486.25 Q106.367 1486.25 103.288 1481.67 Q100.233 1477.06 100.233 1468.33 Q100.233 1459.58 103.288 1455 Q106.367 1450.39 112.177 1450.39 Z" fill="#000000" fill-rule="nonzero" fill-opacity="1" /><path clip-path="url(#clip490)" d="M584.771 1481.64 L592.41 1481.64 L592.41 1455.28 L584.1 1456.95 L584.1 1452.69 L592.364 1451.02 L597.04 1451.02 L597.04 1481.64 L604.678 1481.64 L604.678 1485.58 L584.771 1485.58 L584.771 1481.64 Z" fill="#000000" fill-rule="nonzero" fill-opacity="1" /><path clip-path="url(#clip490)" d="M624.123 1454.1 Q620.512 1454.1 618.683 1457.66 Q616.878 1461.2 616.878 1468.33 Q616.878 1475.44 618.683 1479.01 Q620.512 1482.55 624.123 1482.55 Q627.757 1482.55 629.563 1479.01 Q631.391 1475.44 631.391 1468.33 Q631.391 1461.2 629.563 1457.66 Q627.757 1454.1 624.123 1454.1 M624.123 1450.39 Q629.933 1450.39 632.989 1455 Q636.067 1459.58 636.067 1468.33 Q636.067 1477.06 632.989 1481.67 Q629.933 1486.25 624.123 1486.25 Q618.313 1486.25 615.234 1481.67 Q612.178 1477.06 612.178 1468.33 Q612.178 1459.58 615.234 1455 Q618.313 1450.39 624.123 1450.39 Z" fill="#000000" fill-rule="nonzero" fill-opacity="1" /><path clip-path="url(#clip490)" d="M1086.76 1481.64 L1103.08 1481.64 L1103.08 1485.58 L1081.14 1485.58 L1081.14 1481.64 Q1083.8 1478.89 1088.38 1474.26 Q1092.99 1469.61 1094.17 1468.27 Q1096.42 1465.74 1097.3 1464.01 Q1098.2 1462.25 1098.2 1460.56 Q1098.2 1457.8 1096.25 1456.07 Q1094.33 1454.33 1091.23 1454.33 Q1089.03 1454.33 1086.58 1455.09 Q1084.15 1455.86 1081.37 1457.41 L1081.37 1452.69 Q1084.19 1451.55 1086.65 1450.97 Q1089.1 1450.39 1091.14 1450.39 Q1096.51 1450.39 1099.7 1453.08 Q1102.9 1455.77 1102.9 1460.26 Q1102.9 1462.39 1102.09 1464.31 Q1101.3 1466.2 1099.19 1468.8 Q1098.61 1469.47 1095.51 1472.69 Q1092.41 1475.88 1086.76 1481.64 Z" fill="#000000" fill-rule="nonzero" fill-opacity="1" /><path clip-path="url(#clip490)" d="M1122.9 1454.1 Q1119.29 1454.1 1117.46 1457.66 Q1115.65 1461.2 1115.65 1468.33 Q1115.65 1475.44 1117.46 1479.01 Q1119.29 1482.55 1122.9 1482.55 Q1126.53 1482.55 1128.34 1479.01 Q1130.17 1475.44 1130.17 1468.33 Q1130.17 1461.2 1128.34 1457.66 Q1126.53 1454.1 1122.9 1454.1 M1122.9 1450.39 Q1128.71 1450.39 1131.76 1455 Q1134.84 1459.58 1134.84 1468.33 Q1134.84 1477.06 1131.76 1481.67 Q1128.71 1486.25 1122.9 1486.25 Q1117.09 1486.25 1114.01 1481.67 Q1110.95 1477.06 1110.95 1468.33 Q1110.95 1459.58 1114.01 1455 Q1117.09 1450.39 1122.9 1450.39 Z" fill="#000000" fill-rule="nonzero" fill-opacity="1" /><path clip-path="url(#clip490)" d="M1594.74 1466.95 Q1598.1 1467.66 1599.97 1469.93 Q1601.87 1472.2 1601.87 1475.53 Q1601.87 1480.65 1598.35 1483.45 Q1594.83 1486.25 1588.35 1486.25 Q1586.17 1486.25 1583.86 1485.81 Q1581.57 1485.39 1579.11 1484.54 L1579.11 1480.02 Q1581.06 1481.16 1583.37 1481.74 Q1585.69 1482.32 1588.21 1482.32 Q1592.61 1482.32 1594.9 1480.58 Q1597.22 1478.84 1597.22 1475.53 Q1597.22 1472.48 1595.06 1470.77 Q1592.93 1469.03 1589.11 1469.03 L1585.09 1469.03 L1585.09 1465.19 L1589.3 1465.19 Q1592.75 1465.19 1594.58 1463.82 Q1596.41 1462.43 1596.41 1459.84 Q1596.41 1457.18 1594.51 1455.77 Q1592.63 1454.33 1589.11 1454.33 Q1587.19 1454.33 1584.99 1454.75 Q1582.79 1455.16 1580.16 1456.04 L1580.16 1451.88 Q1582.82 1451.14 1585.13 1450.77 Q1587.47 1450.39 1589.53 1450.39 Q1594.85 1450.39 1597.96 1452.83 Q1601.06 1455.23 1601.06 1459.35 Q1601.06 1462.22 1599.41 1464.21 Q1597.77 1466.18 1594.74 1466.95 Z" fill="#000000" fill-rule="nonzero" fill-opacity="1" /><path clip-path="url(#clip490)" d="M1620.73 1454.1 Q1617.12 1454.1 1615.29 1457.66 Q1613.49 1461.2 1613.49 1468.33 Q1613.49 1475.44 1615.29 1479.01 Q1617.12 1482.55 1620.73 1482.55 Q1624.37 1482.55 1626.17 1479.01 Q1628 1475.44 1628 1468.33 Q1628 1461.2 1626.17 1457.66 Q1624.37 1454.1 1620.73 1454.1 M1620.73 1450.39 Q1626.54 1450.39 1629.6 1455 Q1632.68 1459.58 1632.68 1468.33 Q1632.68 1477.06 1629.6 1481.67 Q1626.54 1486.25 1620.73 1486.25 Q1614.92 1486.25 1611.85 1481.67 Q1608.79 1477.06 1608.79 1468.33 Q1608.79 1459.58 1611.85 1455 Q1614.92 1450.39 1620.73 1450.39 Z" fill="#000000" fill-rule="nonzero" fill-opacity="1" /><path clip-path="url(#clip490)" d="M2091.97 1455.09 L2080.17 1473.54 L2091.97 1473.54 L2091.97 1455.09 M2090.75 1451.02 L2096.63 1451.02 L2096.63 1473.54 L2101.56 1473.54 L2101.56 1477.43 L2096.63 1477.43 L2096.63 1485.58 L2091.97 1485.58 L2091.97 1477.43 L2076.37 1477.43 L2076.37 1472.92 L2090.75 1451.02 Z" fill="#000000" fill-rule="nonzero" fill-opacity="1" /><path clip-path="url(#clip490)" d="M2119.29 1454.1 Q2115.68 1454.1 2113.85 1457.66 Q2112.04 1461.2 2112.04 1468.33 Q2112.04 1475.44 2113.85 1479.01 Q2115.68 1482.55 2119.29 1482.55 Q2122.92 1482.55 2124.73 1479.01 Q2126.56 1475.44 2126.56 1468.33 Q2126.56 1461.2 2124.73 1457.66 Q2122.92 1454.1 2119.29 1454.1 M2119.29 1450.39 Q2125.1 1450.39 2128.15 1455 Q2131.23 1459.58 2131.23 1468.33 Q2131.23 1477.06 2128.15 1481.67 Q2125.1 1486.25 2119.29 1486.25 Q2113.48 1486.25 2110.4 1481.67 Q2107.34 1477.06 2107.34 1468.33 Q2107.34 1459.58 2110.4 1455 Q2113.48 1450.39 2119.29 1450.39 Z" fill="#000000" fill-rule="nonzero" fill-opacity="1" /><path clip-path="url(#clip490)" d="M1231.53 1522.27 L1231.53 1532.4 L1243.59 1532.4 L1243.59 1536.95 L1231.53 1536.95 L1231.53 1556.3 Q1231.53 1560.66 1232.71 1561.9 Q1233.91 1563.14 1237.58 1563.14 L1243.59 1563.14 L1243.59 1568.04 L1237.58 1568.04 Q1230.8 1568.04 1228.22 1565.53 Q1225.64 1562.98 1225.64 1556.3 L1225.64 1536.95 L1221.34 1536.95 L1221.34 1532.4 L1225.64 1532.4 L1225.64 1522.27 L1231.53 1522.27 Z" fill="#000000" fill-rule="nonzero" fill-opacity="1" /><polyline clip-path="url(#clip490)" style="stroke:#000000; stroke-linecap:round; stroke-linejoin:round; stroke-width:4; stroke-opacity:1; fill:none" points="112.177,1423.18 112.177,47.2441 "/>
<polyline clip-path="url(#clip490)" style="stroke:#000000; stroke-linecap:round; stroke-linejoin:round; stroke-width:4; stroke-opacity:1; fill:none" points="112.177,1413.43 131.075,1413.43 "/>
<polyline clip-path="url(#clip490)" style="stroke:#000000; stroke-linecap:round; stroke-linejoin:round; stroke-width:4; stroke-opacity:1; fill:none" points="112.177,1121.48 131.075,1121.48 "/>
<polyline clip-path="url(#clip490)" style="stroke:#000000; stroke-linecap:round; stroke-linejoin:round; stroke-width:4; stroke-opacity:1; fill:none" points="112.177,829.534 131.075,829.534 "/>
<polyline clip-path="url(#clip490)" style="stroke:#000000; stroke-linecap:round; stroke-linejoin:round; stroke-width:4; stroke-opacity:1; fill:none" points="112.177,537.584 131.075,537.584 "/>
<polyline clip-path="url(#clip490)" style="stroke:#000000; stroke-linecap:round; stroke-linejoin:round; stroke-width:4; stroke-opacity:1; fill:none" points="112.177,245.634 131.075,245.634 "/>
<path clip-path="url(#clip490)" d="M64.2328 1399.23 Q60.6217 1399.23 58.793 1402.8 Q56.9875 1406.34 56.9875 1413.47 Q56.9875 1420.57 58.793 1424.14 Q60.6217 1427.68 64.2328 1427.68 Q67.867 1427.68 69.6726 1424.14 Q71.5013 1420.57 71.5013 1413.47 Q71.5013 1406.34 69.6726 1402.8 Q67.867 1399.23 64.2328 1399.23 M64.2328 1395.53 Q70.0429 1395.53 73.0985 1400.13 Q76.1772 1404.72 76.1772 1413.47 Q76.1772 1422.19 73.0985 1426.8 Q70.0429 1431.38 64.2328 1431.38 Q58.4226 1431.38 55.344 1426.8 Q52.2884 1422.19 52.2884 1413.47 Q52.2884 1404.72 55.344 1400.13 Q58.4226 1395.53 64.2328 1395.53 Z" fill="#000000" fill-rule="nonzero" fill-opacity="1" /><path clip-path="url(#clip490)" d="M56.2699 1134.83 L63.9087 1134.83 L63.9087 1108.46 L55.5986 1110.13 L55.5986 1105.87 L63.8624 1104.2 L68.5383 1104.2 L68.5383 1134.83 L76.1772 1134.83 L76.1772 1138.76 L56.2699 1138.76 L56.2699 1134.83 Z" fill="#000000" fill-rule="nonzero" fill-opacity="1" /><path clip-path="url(#clip490)" d="M59.8578 842.878 L76.1772 842.878 L76.1772 846.814 L54.2328 846.814 L54.2328 842.878 Q56.8949 840.124 61.4782 835.494 Q66.0846 830.841 67.2652 829.499 Q69.5105 826.976 70.3902 825.24 Q71.2929 823.48 71.2929 821.791 Q71.2929 819.036 69.3485 817.3 Q67.4272 815.564 64.3254 815.564 Q62.1263 815.564 59.6726 816.328 Q57.2421 817.091 54.4643 818.642 L54.4643 813.92 Q57.2884 812.786 59.7421 812.207 Q62.1958 811.629 64.2328 811.629 Q69.6031 811.629 72.7976 814.314 Q75.992 816.999 75.992 821.49 Q75.992 823.619 75.1818 825.541 Q74.3948 827.439 72.2883 830.031 Q71.7096 830.703 68.6078 833.92 Q65.5059 837.115 59.8578 842.878 Z" fill="#000000" fill-rule="nonzero" fill-opacity="1" /><path clip-path="url(#clip490)" d="M69.0476 536.23 Q72.404 536.947 74.279 539.216 Q76.1772 541.484 76.1772 544.817 Q76.1772 549.933 72.6587 552.734 Q69.1402 555.535 62.6587 555.535 Q60.4828 555.535 58.168 555.095 Q55.8764 554.679 53.4227 553.822 L53.4227 549.308 Q55.3671 550.442 57.6819 551.021 Q59.9967 551.6 62.5198 551.6 Q66.918 551.6 69.2096 549.864 Q71.5244 548.128 71.5244 544.817 Q71.5244 541.762 69.3717 540.049 Q67.242 538.313 63.4226 538.313 L59.3949 538.313 L59.3949 534.47 L63.6078 534.47 Q67.0569 534.47 68.8855 533.105 Q70.7142 531.716 70.7142 529.123 Q70.7142 526.461 68.8161 525.049 Q66.9411 523.614 63.4226 523.614 Q61.5013 523.614 59.3023 524.031 Q57.1032 524.447 54.4643 525.327 L54.4643 521.16 Q57.1264 520.419 59.4412 520.049 Q61.7791 519.679 63.8393 519.679 Q69.1633 519.679 72.2652 522.109 Q75.367 524.517 75.367 528.637 Q75.367 531.507 73.7235 533.498 Q72.08 535.466 69.0476 536.23 Z" fill="#000000" fill-rule="nonzero" fill-opacity="1" /><path clip-path="url(#clip490)" d="M66.5939 232.428 L54.7884 250.877 L66.5939 250.877 L66.5939 232.428 M65.367 228.354 L71.2466 228.354 L71.2466 250.877 L76.1772 250.877 L76.1772 254.766 L71.2466 254.766 L71.2466 262.914 L66.5939 262.914 L66.5939 254.766 L50.9921 254.766 L50.9921 250.252 L65.367 228.354 Z" fill="#000000" fill-rule="nonzero" fill-opacity="1" /><polyline clip-path="url(#clip491)" style="stroke:#009af9; stroke-linecap:round; stroke-linejoin:round; stroke-width:24; stroke-opacity:1; fill:none" points="112.177,829.534 114.42,842.532 116.663,855.225 118.906,867.604 121.148,879.658 123.391,891.377 125.634,902.747 127.877,913.757 130.12,924.398 132.363,934.662 134.605,944.544 136.848,954.042 139.091,963.154 141.334,971.883 143.577,980.234 145.819,988.212 148.062,995.824 150.305,1003.08 152.548,1009.99 154.791,1016.56 157.034,1022.8 159.276,1028.74 161.519,1034.37 163.762,1039.72 166.005,1044.78 168.248,1049.59 170.491,1054.14 172.733,1058.44 174.976,1062.52 177.219,1066.38 179.462,1070.04 181.705,1073.49 183.947,1076.76 186.19,1079.84 188.433,1082.76 190.676,1085.52 192.919,1088.12 195.162,1090.58 197.404,1092.9 199.647,1095.09 201.89,1097.15 204.133,1099.1 206.376,1100.93 208.619,1102.67 210.861,1104.29 213.104,1105.83 215.347,1107.27 217.59,1108.63 219.833,1109.91 222.075,1111.11 224.318,1112.23 226.561,1113.29 228.804,1114.28 231.047,1115.21 233.29,1116.09 235.532,1116.9 237.775,1117.66 240.018,1118.37 242.261,1119.03 244.504,1119.65 246.746,1120.22 248.989,1120.75 251.232,1121.24 253.475,1121.7 255.718,1122.12 257.961,1122.51 260.203,1122.86 262.446,1123.18 264.689,1123.48 266.932,1123.75 269.175,1123.99 271.418,1124.21 273.66,1124.4 275.903,1124.57 278.146,1124.72 280.389,1124.85 282.632,1124.96 284.874,1125.05 287.117,1125.12 289.36,1125.18 291.603,1125.22 293.846,1125.24 296.089,1125.25 298.331,1125.25 300.574,1125.23 302.817,1125.2 305.06,1125.16 307.303,1125.11 309.545,1125.04 311.788,1124.97 314.031,1124.88 316.274,1124.79 318.517,1124.68 320.76,1124.57 323.002,1124.44 325.245,1124.31 327.488,1124.17 329.731,1124.02 331.974,1123.87 334.217,1123.71 336.459,1123.54 338.702,1123.36 340.945,1123.18 343.188,1123 345.431,1122.8 347.673,1122.61 349.916,1122.4 352.159,1122.19 354.402,1121.98 356.645,1121.76 358.888,1121.53 361.13,1121.3 363.373,1121.07 365.616,1120.83 367.859,1120.59 370.102,1120.34 372.344,1120.09 374.587,1119.83 376.83,1119.57 379.073,1119.31 381.316,1119.04 383.559,1118.77 385.801,1118.5 388.044,1118.22 390.287,1117.94 392.53,1117.65 394.773,1117.37 397.016,1117.08 399.258,1116.78 401.501,1116.48 403.744,1116.18 405.987,1115.88 408.23,1115.57 410.472,1115.27 412.715,1114.95 414.958,1114.64 417.201,1114.32 419.444,1114 421.687,1113.67 423.929,1113.35 426.172,1113.02 428.415,1112.68 430.658,1112.35 432.901,1112.01 435.143,1111.67 437.386,1111.32 439.629,1110.98 441.872,1110.63 444.115,1110.28 446.358,1109.92 448.6,1109.56 450.843,1109.2 453.086,1108.84 455.329,1108.48 457.572,1108.11 459.815,1107.74 462.057,1107.37 464.3,1106.99 466.543,1106.61 468.786,1106.23 471.029,1105.85 473.271,1105.46 475.514,1105.08 477.757,1104.69 480,1104.29 482.243,1103.9 484.486,1103.5 486.728,1103.1 488.971,1102.7 491.214,1102.29 493.457,1101.88 495.7,1101.47 497.942,1101.06 500.185,1100.64 502.428,1100.22 504.671,1099.8 506.914,1099.38 509.157,1098.95 511.399,1098.52 513.642,1098.09 515.885,1097.65 518.128,1097.22 520.371,1096.78 522.614,1096.34 524.856,1095.89 527.099,1095.44 529.342,1095 531.585,1094.54 533.828,1094.09 536.07,1093.63 538.313,1093.17 540.556,1092.71 542.799,1092.24 545.042,1091.78 547.285,1091.31 549.527,1090.83 551.77,1090.36 554.013,1089.88 556.256,1089.4 558.499,1088.92 560.741,1088.43 562.984,1087.94 565.227,1087.45 567.47,1086.96 569.713,1086.46 571.956,1085.97 574.198,1085.47 576.441,1084.96 578.684,1084.46 580.927,1083.95 583.17,1083.44 585.413,1082.92 587.655,1082.41 589.898,1081.89 592.141,1081.37 594.384,1080.84 596.627,1080.31 598.869,1079.79 601.112,1079.25 603.355,1078.72 605.598,1078.18 607.841,1077.64 610.084,1077.1 612.326,1076.56 614.569,1076.01 616.812,1075.46 619.055,1074.91 621.298,1074.36 623.54,1073.8 625.783,1073.24 628.026,1072.68 630.269,1072.11 632.512,1071.55 634.755,1070.98 636.997,1070.41 639.24,1069.83 641.483,1069.26 643.726,1068.68 645.969,1068.09 648.212,1067.51 650.454,1066.92 652.697,1066.33 654.94,1065.74 657.183,1065.15 659.426,1064.55 661.668,1063.95 663.911,1063.35 666.154,1062.74 668.397,1062.14 670.64,1061.53 672.883,1060.92 675.125,1060.3 677.368,1059.69 679.611,1059.07 681.854,1058.45 684.097,1057.83 686.339,1057.2 688.582,1056.58 690.825,1055.95 693.068,1055.32 695.311,1054.68 697.554,1054.05 699.796,1053.41 702.039,1052.77 704.282,1052.13 706.525,1051.49 708.768,1050.85 711.011,1050.2 713.253,1049.55 715.496,1048.9 717.739,1048.25 719.982,1047.6 722.225,1046.94 724.467,1046.29 726.71,1045.63 728.953,1044.97 731.196,1044.31 733.439,1043.64 735.682,1042.98 737.924,1042.31 740.167,1041.64 742.41,1040.97 744.653,1040.3 746.896,1039.63 749.138,1038.95 751.381,1038.27 753.624,1037.59 755.867,1036.91 758.11,1036.23 760.353,1035.55 762.595,1034.86 764.838,1034.17 767.081,1033.48 769.324,1032.79 771.567,1032.1 773.81,1031.41 776.052,1030.71 778.295,1030.01 780.538,1029.31 782.781,1028.61 785.024,1027.91 787.266,1027.21 789.509,1026.5 791.752,1025.8 793.995,1025.09 796.238,1024.38 798.481,1023.67 800.723,1022.96 802.966,1022.25 805.209,1021.54 807.452,1020.82 809.695,1020.11 811.938,1019.39 814.18,1018.68 816.423,1017.96 818.666,1017.25 820.909,1016.53 823.152,1015.81 825.394,1015.09 827.637,1014.37 829.88,1013.65 832.123,1012.93 834.366,1012.21 836.609,1011.49 838.851,1010.77 841.094,1010.05 843.337,1009.33 845.58,1008.61 847.823,1007.88 850.065,1007.16 852.308,1006.44 854.551,1005.72 856.794,1005 859.037,1004.27 861.28,1003.55 863.522,1002.83 865.765,1002.1 868.008,1001.38 870.251,1000.66 872.494,999.937 874.737,999.214 876.979,998.492 879.222,997.769 881.465,997.047 883.708,996.325 885.951,995.602 888.193,994.88 890.436,994.158 892.679,993.436 894.922,992.715 897.165,991.993 899.408,991.271 901.65,990.55 903.893,989.828 906.136,989.107 908.379,988.386 910.622,987.665 912.864,986.945 915.107,986.225 917.35,985.506 919.593,984.787 921.836,984.069 924.079,983.352 926.321,982.636 928.564,981.921 930.807,981.206 933.05,980.493 935.293,979.781 937.536,979.07 939.778,978.36 942.021,977.651 944.264,976.944 946.507,976.238 948.75,975.533 950.992,974.83 953.235,974.128 955.478,973.428 957.721,972.729 959.964,972.032 962.207,971.336 964.449,970.642 966.692,969.95 968.935,969.26 971.178,968.571 973.421,967.884 975.663,967.199 977.906,966.515 980.149,965.833 982.392,965.153 984.635,964.475 986.878,963.799 989.12,963.125 991.363,962.452 993.606,961.781 995.849,961.112 998.092,960.445 1000.33,959.78 1002.58,959.116 1004.82,958.455 1007.06,957.795 1009.31,957.137 1011.55,956.481 1013.79,955.826 1016.03,955.174 1018.28,954.523 1020.52,953.873 1022.76,953.226 1025.01,952.58 1027.25,951.936 1029.49,951.293 1031.73,950.652 1033.98,950.012 1036.22,949.374 1038.46,948.737 1040.71,948.103 1042.95,947.47 1045.19,946.839 1047.43,946.21 1049.68,945.584 1051.92,944.959 1054.16,944.337 1056.41,943.717 1058.65,943.099 1060.89,942.483 1063.13,941.87 1065.38,941.259 1067.62,940.651 1069.86,940.045 1072.1,939.442 1074.35,938.841 1076.59,938.243 1078.83,937.648 1081.08,937.055 1083.32,936.465 1085.56,935.877 1087.8,935.292 1090.05,934.71 1092.29,934.131 1094.53,933.555 1096.78,932.981 1099.02,932.41 1101.26,931.842 1103.5,931.277 1105.75,930.714 1107.99,930.155 1110.23,929.598 1112.48,929.044 1114.72,928.493 1116.96,927.944 1119.2,927.399 1121.45,926.856 1123.69,926.316 1125.93,925.779 1128.18,925.245 1130.42,924.713 1132.66,924.184 1134.9,923.658 1137.15,923.134 1139.39,922.613 1141.63,922.095 1143.88,921.579 1146.12,921.066 1148.36,920.556 1150.6,920.048 1152.85,919.542 1155.09,919.039 1157.33,918.538 1159.57,918.04 1161.82,917.543 1164.06,917.05 1166.3,916.558 1168.55,916.068 1170.79,915.581 1173.03,915.095 1175.27,914.612 1177.52,914.132 1179.76,913.653 1182,913.178 1184.25,912.704 1186.49,912.233 1188.73,911.765 1190.97,911.3 1193.22,910.836 1195.46,910.376 1197.7,909.918 1199.95,909.463 1202.19,909.011 1204.43,908.561 1206.67,908.114 1208.92,907.67 1211.16,907.228 1213.4,906.789 1215.65,906.353 1217.89,905.92 1220.13,905.49 1222.37,905.062 1224.62,904.638 1226.86,904.216 1229.1,903.796 1231.35,903.38 1233.59,902.967 1235.83,902.556 1238.07,902.148 1240.32,901.743 1242.56,901.341 1244.8,900.941 1247.04,900.544 1249.29,900.151 1251.53,899.759 1253.77,899.371 1256.02,898.985 1258.26,898.602 1260.5,898.222 1262.74,897.844 1264.99,897.469 1267.23,897.096 1269.47,896.727 1271.72,896.359 1273.96,895.994 1276.2,895.632 1278.44,895.272 1280.69,894.915 1282.93,894.56 1285.17,894.207 1287.42,893.857 1289.66,893.509 1291.9,893.163 1294.14,892.82 1296.39,892.478 1298.63,892.139 1300.87,891.802 1303.12,891.467 1305.36,891.133 1307.6,890.802 1309.84,890.473 1312.09,890.145 1314.33,889.819 1316.57,889.495 1318.82,889.173 1321.06,888.852 1323.3,888.534 1325.54,888.218 1327.79,887.904 1330.03,887.592 1332.27,887.282 1334.51,886.974 1336.76,886.669 1339,886.365 1341.24,886.064 1343.49,885.765 1345.73,885.468 1347.97,885.173 1350.21,884.88 1352.46,884.59 1354.7,884.301 1356.94,884.015 1359.19,883.731 1361.43,883.449 1363.67,883.17 1365.91,882.892 1368.16,882.617 1370.4,882.344 1372.64,882.073 1374.89,881.804 1377.13,881.537 1379.37,881.273 1381.61,881.011 1383.86,880.75 1386.1,880.492 1388.34,880.236 1390.59,879.982 1392.83,879.731 1395.07,879.481 1397.31,879.233 1399.56,878.987 1401.8,878.744 1404.04,878.502 1406.29,878.263 1408.53,878.025 1410.77,877.789 1413.01,877.555 1415.26,877.324 1417.5,877.094 1419.74,876.865 1421.98,876.639 1424.23,876.415 1426.47,876.192 1428.71,875.971 1430.96,875.752 1433.2,875.534 1435.44,875.319 1437.68,875.104 1439.93,874.892 1442.17,874.681 1444.41,874.471 1446.66,874.263 1448.9,874.057 1451.14,873.852 1453.38,873.648 1455.63,873.446 1457.87,873.245 1460.11,873.046 1462.36,872.847 1464.6,872.65 1466.84,872.454 1469.08,872.259 1471.33,872.065 1473.57,871.873 1475.81,871.682 1478.06,871.493 1480.3,871.305 1482.54,871.118 1484.78,870.933 1487.03,870.749 1489.27,870.566 1491.51,870.385 1493.76,870.205 1496,870.027 1498.24,869.85 1500.48,869.675 1502.73,869.501 1504.97,869.328 1507.21,869.157 1509.46,868.987 1511.7,868.819 1513.94,868.652 1516.18,868.487 1518.43,868.323 1520.67,868.16 1522.91,867.999 1525.15,867.839 1527.4,867.68 1529.64,867.523 1531.88,867.367 1534.13,867.213 1536.37,867.06 1538.61,866.909 1540.85,866.758 1543.1,866.61 1545.34,866.462 1547.58,866.316 1549.83,866.171 1552.07,866.028 1554.31,865.885 1556.55,865.744 1558.8,865.605 1561.04,865.466 1563.28,865.329 1565.53,865.193 1567.77,865.059 1570.01,864.925 1572.25,864.793 1574.5,864.662 1576.74,864.532 1578.98,864.404 1581.23,864.276 1583.47,864.15 1585.71,864.024 1587.95,863.9 1590.2,863.777 1592.44,863.655 1594.68,863.534 1596.93,863.414 1599.17,863.294 1601.41,863.176 1603.65,863.059 1605.9,862.943 1608.14,862.828 1610.38,862.713 1612.62,862.599 1614.87,862.487 1617.11,862.375 1619.35,862.264 1621.6,862.153 1623.84,862.043 1626.08,861.934 1628.32,861.826 1630.57,861.718 1632.81,861.611 1635.05,861.505 1637.3,861.399 1639.54,861.294 1641.78,861.19 1644.02,861.086 1646.27,860.984 1648.51,860.882 1650.75,860.781 1653,860.68 1655.24,860.581 1657.48,860.482 1659.72,860.384 1661.97,860.287 1664.21,860.191 1666.45,860.095 1668.7,860.001 1670.94,859.907 1673.18,859.813 1675.42,859.721 1677.67,859.63 1679.91,859.539 1682.15,859.449 1684.4,859.36 1686.64,859.272 1688.88,859.184 1691.12,859.098 1693.37,859.012 1695.61,858.927 1697.85,858.842 1700.09,858.759 1702.34,858.676 1704.58,858.594 1706.82,858.513 1709.07,858.433 1711.31,858.353 1713.55,858.274 1715.79,858.196 1718.04,858.119 1720.28,858.043 1722.52,857.967 1724.77,857.892 1727.01,857.817 1729.25,857.744 1731.49,857.671 1733.74,857.599 1735.98,857.527 1738.22,857.457 1740.47,857.387 1742.71,857.317 1744.95,857.249 1747.19,857.181 1749.44,857.113 1751.68,857.047 1753.92,856.981 1756.17,856.915 1758.41,856.85 1760.65,856.786 1762.89,856.723 1765.14,856.66 1767.38,856.597 1769.62,856.535 1771.87,856.474 1774.11,856.413 1776.35,856.353 1778.59,856.293 1780.84,856.234 1783.08,856.175 1785.32,856.117 1787.56,856.059 1789.81,856.002 1792.05,855.945 1794.29,855.889 1796.54,855.833 1798.78,855.777 1801.02,855.722 1803.26,855.667 1805.51,855.612 1807.75,855.558 1809.99,855.504 1812.24,855.45 1814.48,855.397 1816.72,855.343 1818.96,855.29 1821.21,855.238 1823.45,855.185 1825.69,855.134 1827.94,855.082 1830.18,855.031 1832.42,854.98 1834.66,854.929 1836.91,854.879 1839.15,854.829 1841.39,854.78 1843.64,854.731 1845.88,854.682 1848.12,854.634 1850.36,854.587 1852.61,854.539 1854.85,854.492 1857.09,854.446 1859.34,854.399 1861.58,854.354 1863.82,854.308 1866.06,854.263 1868.31,854.219 1870.55,854.175 1872.79,854.131 1875.03,854.088 1877.28,854.045 1879.52,854.002 1881.76,853.96 1884.01,853.919 1886.25,853.878 1888.49,853.837 1890.73,853.796 1892.98,853.757 1895.22,853.717 1897.46,853.678 1899.71,853.639 1901.95,853.601 1904.19,853.563 1906.43,853.526 1908.68,853.489 1910.92,853.452 1913.16,853.416 1915.41,853.38 1917.65,853.344 1919.89,853.309 1922.13,853.275 1924.38,853.24 1926.62,853.206 1928.86,853.173 1931.11,853.14 1933.35,853.107 1935.59,853.074 1937.83,853.042 1940.08,853.011 1942.32,852.979 1944.56,852.948 1946.81,852.917 1949.05,852.887 1951.29,852.857 1953.53,852.827 1955.78,852.798 1958.02,852.769 1960.26,852.74 1962.5,852.711 1964.75,852.683 1966.99,852.655 1969.23,852.628 1971.48,852.6 1973.72,852.573 1975.96,852.546 1978.2,852.519 1980.45,852.493 1982.69,852.467 1984.93,852.441 1987.18,852.415 1989.42,852.389 1991.66,852.364 1993.9,852.339 1996.15,852.313 1998.39,852.288 2000.63,852.264 2002.88,852.239 2005.12,852.214 2007.36,852.19 2009.6,852.166 2011.85,852.141 2014.09,852.117 2016.33,852.093 2018.58,852.069 2020.82,852.045 2023.06,852.021 2025.3,851.997 2027.55,851.973 2029.79,851.949 2032.03,851.925 2034.28,851.901 2036.52,851.878 2038.76,851.854 2041,851.831 2043.25,851.808 2045.49,851.784 2047.73,851.761 2049.97,851.739 2052.22,851.716 2054.46,851.693 2056.7,851.671 2058.95,851.649 2061.19,851.627 2063.43,851.605 2065.67,851.583 2067.92,851.561 2070.16,851.54 2072.4,851.519 2074.65,851.498 2076.89,851.477 2079.13,851.457 2081.37,851.436 2083.62,851.416 2085.86,851.396 2088.1,851.377 2090.35,851.357 2092.59,851.338 2094.83,851.319 2097.07,851.3 2099.32,851.282 2101.56,851.264 2103.8,851.246 2106.05,851.228 2108.29,851.21 2110.53,851.193 2112.77,851.176 2115.02,851.159 2117.26,851.142 2119.5,851.126 2121.75,851.11 2123.99,851.094 2126.23,851.078 2128.47,851.062 2130.72,851.047 2132.96,851.032 2135.2,851.018 2137.45,851.003 2139.69,850.989 2141.93,850.975 2144.17,850.961 2146.42,850.947 2148.66,850.934 2150.9,850.92 2153.14,850.907 2155.39,850.895 2157.63,850.882 2159.87,850.87 2162.12,850.857 2164.36,850.845 2166.6,850.834 2168.84,850.822 2171.09,850.81 2173.33,850.799 2175.57,850.788 2177.82,850.777 2180.06,850.766 2182.3,850.755 2184.54,850.745 2186.79,850.734 2189.03,850.724 2191.27,850.714 2193.52,850.704 2195.76,850.694 2198,850.684 2200.24,850.674 2202.49,850.665 2204.73,850.655 2206.97,850.645 2209.22,850.636 2211.46,850.627 2213.7,850.617 2215.94,850.608 2218.19,850.598 2220.43,850.589 2222.67,850.58 2224.92,850.57 2227.16,850.561 2229.4,850.551 2231.64,850.542 2233.89,850.532 2236.13,850.523 2238.37,850.513 2240.61,850.503 2242.86,850.494 2245.1,850.484 2247.34,850.473 2249.59,850.463 2251.83,850.453 2254.07,850.442 2256.31,850.432 2258.56,850.421 2260.8,850.411 2263.04,850.401 2265.29,850.391 2267.53,850.381 2269.77,850.371 2272.01,850.361 2274.26,850.352 2276.5,850.342 2278.74,850.333 2280.99,850.323 2283.23,850.314 2285.47,850.305 2287.71,850.296 2289.96,850.287 2292.2,850.279 2294.44,850.27 2296.69,850.261 2298.93,850.253 2301.17,850.244 2303.41,850.236 2305.66,850.228 2307.9,850.22 2310.14,850.212 2312.39,850.204 2314.63,850.196 2316.87,850.188 2319.11,850.18 2321.36,850.173 2323.6,850.165 2325.84,850.158 2328.08,850.15 2330.33,850.143 2332.57,850.136 2334.81,850.128 2337.06,850.121 2339.3,850.114 2341.54,850.107 2343.78,850.1 2346.03,850.094 2348.27,850.087 2350.51,850.08 2352.76,850.073 "/>
<polyline clip-path="url(#clip491)" style="stroke:#e26f46; stroke-linecap:round; stroke-linejoin:round; stroke-width:24; stroke-opacity:1; fill:none" points="112.177,1384.24 114.42,1359.17 116.663,1335.24 118.906,1312.39 121.148,1290.6 123.391,1269.83 125.634,1250.03 127.877,1231.17 130.12,1213.21 132.363,1196.12 134.605,1179.85 136.848,1164.38 139.091,1149.67 141.334,1135.69 143.577,1122.39 145.819,1109.76 148.062,1097.75 150.305,1086.35 152.548,1075.51 154.791,1065.21 157.034,1055.43 159.276,1046.14 161.519,1037.31 163.762,1028.92 166.005,1020.95 168.248,1013.38 170.491,1006.19 172.733,999.354 174.976,992.856 177.219,986.679 179.462,980.807 181.705,975.223 183.947,969.914 186.19,964.866 188.433,960.063 190.676,955.494 192.919,951.146 195.162,947.008 197.404,943.067 199.647,939.315 201.89,935.74 204.133,932.334 206.376,929.088 208.619,925.994 210.861,923.044 213.104,920.231 215.347,917.547 217.59,914.985 219.833,912.539 222.075,910.203 224.318,907.97 226.561,905.835 228.804,903.793 231.047,901.838 233.29,899.967 235.532,898.176 237.775,896.46 240.018,894.815 242.261,893.237 244.504,891.724 246.746,890.271 248.989,888.874 251.232,887.532 253.475,886.241 255.718,884.998 257.961,883.8 260.203,882.645 262.446,881.53 264.689,880.453 266.932,879.413 269.175,878.408 271.418,877.435 273.66,876.494 275.903,875.582 278.146,874.697 280.389,873.839 282.632,873.005 284.874,872.195 287.117,871.406 289.36,870.638 291.603,869.889 293.846,869.157 296.089,868.443 298.331,867.744 300.574,867.06 302.817,866.389 305.06,865.732 307.303,865.088 309.545,864.455 311.788,863.834 314.031,863.223 316.274,862.621 318.517,862.029 320.76,861.445 323.002,860.87 325.245,860.301 327.488,859.74 329.731,859.184 331.974,858.635 334.217,858.09 336.459,857.55 338.702,857.014 340.945,856.482 343.188,855.953 345.431,855.427 347.673,854.905 349.916,854.384 352.159,853.866 354.402,853.35 356.645,852.836 358.888,852.324 361.13,851.813 363.373,851.304 365.616,850.795 367.859,850.287 370.102,849.78 372.344,849.272 374.587,848.766 376.83,848.259 379.073,847.751 381.316,847.244 383.559,846.735 385.801,846.226 388.044,845.716 390.287,845.204 392.53,844.691 394.773,844.177 397.016,843.661 399.258,843.143 401.501,842.623 403.744,842.102 405.987,841.579 408.23,841.053 410.472,840.526 412.715,839.997 414.958,839.465 417.201,838.932 419.444,838.396 421.687,837.858 423.929,837.317 426.172,836.774 428.415,836.228 430.658,835.679 432.901,835.128 435.143,834.574 437.386,834.018 439.629,833.458 441.872,832.895 444.115,832.33 446.358,831.761 448.6,831.189 450.843,830.613 453.086,830.035 455.329,829.453 457.572,828.867 459.815,828.278 462.057,827.685 464.3,827.089 466.543,826.489 468.786,825.886 471.029,825.279 473.271,824.668 475.514,824.054 477.757,823.436 480,822.815 482.243,822.19 484.486,821.561 486.728,820.928 488.971,820.292 491.214,819.652 493.457,819.007 495.7,818.36 497.942,817.708 500.185,817.052 502.428,816.392 504.671,815.729 506.914,815.061 509.157,814.389 511.399,813.713 513.642,813.034 515.885,812.35 518.128,811.661 520.371,810.969 522.614,810.273 524.856,809.572 527.099,808.867 529.342,808.158 531.585,807.444 533.828,806.726 536.07,806.004 538.313,805.277 540.556,804.546 542.799,803.81 545.042,803.071 547.285,802.327 549.527,801.578 551.77,800.825 554.013,800.068 556.256,799.306 558.499,798.539 560.741,797.769 562.984,796.993 565.227,796.213 567.47,795.429 569.713,794.64 571.956,793.846 574.198,793.048 576.441,792.245 578.684,791.438 580.927,790.626 583.17,789.809 585.413,788.988 587.655,788.162 589.898,787.331 592.141,786.496 594.384,785.655 596.627,784.811 598.869,783.961 601.112,783.107 603.355,782.248 605.598,781.384 607.841,780.515 610.084,779.642 612.326,778.764 614.569,777.881 616.812,776.994 619.055,776.101 621.298,775.204 623.54,774.302 625.783,773.396 628.026,772.484 630.269,771.568 632.512,770.647 634.755,769.721 636.997,768.791 639.24,767.856 641.483,766.916 643.726,765.971 645.969,765.022 648.212,764.069 650.454,763.111 652.697,762.149 654.94,761.182 657.183,760.21 659.426,759.234 661.668,758.254 663.911,757.269 666.154,756.278 668.397,755.284 670.64,754.284 672.883,753.28 675.125,752.27 677.368,751.256 679.611,750.237 681.854,749.213 684.097,748.184 686.339,747.15 688.582,746.111 690.825,745.067 693.068,744.018 695.311,742.965 697.554,741.906 699.796,740.842 702.039,739.773 704.282,738.699 706.525,737.621 708.768,736.537 711.011,735.448 713.253,734.355 715.496,733.256 717.739,732.153 719.982,731.045 722.225,729.932 724.467,728.814 726.71,727.691 728.953,726.564 731.196,725.432 733.439,724.295 735.682,723.154 737.924,722.008 740.167,720.858 742.41,719.703 744.653,718.544 746.896,717.38 749.138,716.212 751.381,715.04 753.624,713.864 755.867,712.684 758.11,711.499 760.353,710.311 762.595,709.119 764.838,707.923 767.081,706.723 769.324,705.52 771.567,704.313 773.81,703.103 776.052,701.889 778.295,700.672 780.538,699.452 782.781,698.229 785.024,697.002 787.266,695.771 789.509,694.537 791.752,693.299 793.995,692.058 796.238,690.813 798.481,689.564 800.723,688.312 802.966,687.056 805.209,685.797 807.452,684.534 809.695,683.267 811.938,681.997 814.18,680.723 816.423,679.445 818.666,678.164 820.909,676.879 823.152,675.591 825.394,674.299 827.637,673.004 829.88,671.705 832.123,670.403 834.366,669.097 836.609,667.788 838.851,666.476 841.094,665.16 843.337,663.842 845.58,662.52 847.823,661.195 850.065,659.867 852.308,658.536 854.551,657.203 856.794,655.866 859.037,654.527 861.28,653.185 863.522,651.84 865.765,650.493 868.008,649.144 870.251,647.792 872.494,646.438 874.737,645.081 876.979,643.723 879.222,642.363 881.465,641.001 883.708,639.637 885.951,638.272 888.193,636.905 890.436,635.537 892.679,634.167 894.922,632.797 897.165,631.425 899.408,630.052 901.65,628.679 903.893,627.306 906.136,625.931 908.379,624.556 910.622,623.181 912.864,621.804 915.107,620.427 917.35,619.049 919.593,617.671 921.836,616.291 924.079,614.91 926.321,613.529 928.564,612.147 930.807,610.764 933.05,609.38 935.293,607.995 937.536,606.609 939.778,605.222 942.021,603.834 944.264,602.446 946.507,601.056 948.75,599.666 950.992,598.275 953.235,596.883 955.478,595.491 957.721,594.097 959.964,592.703 962.207,591.309 964.449,589.914 966.692,588.518 968.935,587.122 971.178,585.726 973.421,584.329 975.663,582.933 977.906,581.536 980.149,580.139 982.392,578.742 984.635,577.345 986.878,575.949 989.12,574.552 991.363,573.157 993.606,571.762 995.849,570.367 998.092,568.973 1000.33,567.581 1002.58,566.189 1004.82,564.798 1007.06,563.409 1009.31,562.021 1011.55,560.635 1013.79,559.25 1016.03,557.868 1018.28,556.487 1020.52,555.109 1022.76,553.733 1025.01,552.36 1027.25,550.989 1029.49,549.621 1031.73,548.256 1033.98,546.895 1036.22,545.537 1038.46,544.182 1040.71,542.83 1042.95,541.481 1045.19,540.135 1047.43,538.792 1049.68,537.451 1051.92,536.113 1054.16,534.777 1056.41,533.444 1058.65,532.113 1060.89,530.785 1063.13,529.46 1065.38,528.137 1067.62,526.816 1069.86,525.498 1072.1,524.182 1074.35,522.868 1076.59,521.557 1078.83,520.248 1081.08,518.942 1083.32,517.638 1085.56,516.336 1087.8,515.037 1090.05,513.741 1092.29,512.446 1094.53,511.155 1096.78,509.865 1099.02,508.579 1101.26,507.295 1103.5,506.013 1105.75,504.735 1107.99,503.459 1110.23,502.186 1112.48,500.915 1114.72,499.648 1116.96,498.383 1119.2,497.122 1121.45,495.864 1123.69,494.609 1125.93,493.357 1128.18,492.109 1130.42,490.864 1132.66,489.623 1134.9,488.386 1137.15,487.152 1139.39,485.922 1141.63,484.696 1143.88,483.474 1146.12,482.256 1148.36,481.043 1150.6,479.834 1152.85,478.63 1155.09,477.431 1157.33,476.236 1159.57,475.047 1161.82,473.862 1164.06,472.683 1166.3,471.509 1168.55,470.341 1170.79,469.179 1173.03,468.023 1175.27,466.871 1177.52,465.725 1179.76,464.585 1182,463.449 1184.25,462.318 1186.49,461.192 1188.73,460.071 1190.97,458.954 1193.22,457.842 1195.46,456.735 1197.7,455.632 1199.95,454.534 1202.19,453.44 1204.43,452.351 1206.67,451.266 1208.92,450.185 1211.16,449.109 1213.4,448.037 1215.65,446.969 1217.89,445.905 1220.13,444.845 1222.37,443.789 1224.62,442.738 1226.86,441.69 1229.1,440.647 1231.35,439.608 1233.59,438.572 1235.83,437.541 1238.07,436.514 1240.32,435.491 1242.56,434.472 1244.8,433.457 1247.04,432.447 1249.29,431.44 1251.53,430.438 1253.77,429.439 1256.02,428.445 1258.26,427.456 1260.5,426.47 1262.74,425.489 1264.99,424.513 1267.23,423.54 1269.47,422.572 1271.72,421.609 1273.96,420.651 1276.2,419.697 1278.44,418.747 1280.69,417.803 1282.93,416.863 1285.17,415.929 1287.42,414.999 1289.66,414.075 1291.9,413.155 1294.14,412.241 1296.39,411.333 1298.63,410.43 1300.87,409.532 1303.12,408.64 1305.36,407.754 1307.6,406.874 1309.84,406 1312.09,405.132 1314.33,404.271 1316.57,403.415 1318.82,402.566 1321.06,401.721 1323.3,400.883 1325.54,400.049 1327.79,399.221 1330.03,398.397 1332.27,397.579 1334.51,396.766 1336.76,395.957 1339,395.154 1341.24,394.355 1343.49,393.561 1345.73,392.771 1347.97,391.986 1350.21,391.206 1352.46,390.43 1354.7,389.658 1356.94,388.891 1359.19,388.128 1361.43,387.369 1363.67,386.614 1365.91,385.864 1368.16,385.117 1370.4,384.375 1372.64,383.637 1374.89,382.903 1377.13,382.173 1379.37,381.447 1381.61,380.725 1383.86,380.007 1386.1,379.292 1388.34,378.582 1390.59,377.876 1392.83,377.173 1395.07,376.474 1397.31,375.78 1399.56,375.089 1401.8,374.402 1404.04,373.719 1406.29,373.04 1408.53,372.364 1410.77,371.693 1413.01,371.026 1415.26,370.362 1417.5,369.703 1419.74,369.047 1421.98,368.396 1424.23,367.748 1426.47,367.105 1428.71,366.466 1430.96,365.831 1433.2,365.2 1435.44,364.573 1437.68,363.951 1439.93,363.333 1442.17,362.719 1444.41,362.11 1446.66,361.505 1448.9,360.904 1451.14,360.308 1453.38,359.717 1455.63,359.131 1457.87,358.549 1460.11,357.972 1462.36,357.4 1464.6,356.833 1466.84,356.271 1469.08,355.714 1471.33,355.162 1473.57,354.614 1475.81,354.07 1478.06,353.531 1480.3,352.995 1482.54,352.464 1484.78,351.937 1487.03,351.413 1489.27,350.893 1491.51,350.378 1493.76,349.865 1496,349.357 1498.24,348.852 1500.48,348.351 1502.73,347.853 1504.97,347.359 1507.21,346.868 1509.46,346.38 1511.7,345.896 1513.94,345.415 1516.18,344.937 1518.43,344.463 1520.67,343.991 1522.91,343.523 1525.15,343.058 1527.4,342.596 1529.64,342.137 1531.88,341.68 1534.13,341.227 1536.37,340.777 1538.61,340.33 1540.85,339.885 1543.1,339.444 1545.34,339.005 1547.58,338.569 1549.83,338.136 1552.07,337.706 1554.31,337.278 1556.55,336.853 1558.8,336.431 1561.04,336.012 1563.28,335.596 1565.53,335.182 1567.77,334.771 1570.01,334.363 1572.25,333.957 1574.5,333.554 1576.74,333.154 1578.98,332.757 1581.23,332.362 1583.47,331.971 1585.71,331.582 1587.95,331.196 1590.2,330.812 1592.44,330.432 1594.68,330.054 1596.93,329.679 1599.17,329.307 1601.41,328.938 1603.65,328.572 1605.9,328.209 1608.14,327.849 1610.38,327.492 1612.62,327.138 1614.87,326.787 1617.11,326.439 1619.35,326.094 1621.6,325.752 1623.84,325.414 1626.08,325.079 1628.32,324.747 1630.57,324.419 1632.81,324.094 1635.05,323.773 1637.3,323.454 1639.54,323.139 1641.78,322.826 1644.02,322.516 1646.27,322.209 1648.51,321.905 1650.75,321.603 1653,321.303 1655.24,321.006 1657.48,320.712 1659.72,320.42 1661.97,320.13 1664.21,319.843 1666.45,319.558 1668.7,319.275 1670.94,318.995 1673.18,318.716 1675.42,318.44 1677.67,318.166 1679.91,317.894 1682.15,317.624 1684.4,317.356 1686.64,317.09 1688.88,316.826 1691.12,316.564 1693.37,316.304 1695.61,316.045 1697.85,315.789 1700.09,315.534 1702.34,315.281 1704.58,315.03 1706.82,314.781 1709.07,314.533 1711.31,314.287 1713.55,314.043 1715.79,313.8 1718.04,313.56 1720.28,313.32 1722.52,313.083 1724.77,312.847 1727.01,312.612 1729.25,312.38 1731.49,312.149 1733.74,311.919 1735.98,311.691 1738.22,311.465 1740.47,311.24 1742.71,311.016 1744.95,310.795 1747.19,310.574 1749.44,310.356 1751.68,310.139 1753.92,309.923 1756.17,309.709 1758.41,309.497 1760.65,309.286 1762.89,309.077 1765.14,308.869 1767.38,308.663 1769.62,308.459 1771.87,308.256 1774.11,308.055 1776.35,307.856 1778.59,307.658 1780.84,307.461 1783.08,307.267 1785.32,307.074 1787.56,306.883 1789.81,306.694 1792.05,306.506 1794.29,306.32 1796.54,306.136 1798.78,305.954 1801.02,305.773 1803.26,305.595 1805.51,305.418 1807.75,305.244 1809.99,305.071 1812.24,304.9 1814.48,304.731 1816.72,304.565 1818.96,304.4 1821.21,304.238 1823.45,304.077 1825.69,303.917 1827.94,303.76 1830.18,303.604 1832.42,303.449 1834.66,303.296 1836.91,303.144 1839.15,302.994 1841.39,302.845 1843.64,302.698 1845.88,302.552 1848.12,302.407 1850.36,302.264 1852.61,302.121 1854.85,301.98 1857.09,301.841 1859.34,301.702 1861.58,301.564 1863.82,301.428 1866.06,301.293 1868.31,301.158 1870.55,301.025 1872.79,300.893 1875.03,300.762 1877.28,300.631 1879.52,300.502 1881.76,300.374 1884.01,300.246 1886.25,300.12 1888.49,299.994 1890.73,299.869 1892.98,299.745 1895.22,299.622 1897.46,299.5 1899.71,299.378 1901.95,299.258 1904.19,299.138 1906.43,299.019 1908.68,298.9 1910.92,298.783 1913.16,298.666 1915.41,298.55 1917.65,298.434 1919.89,298.32 1922.13,298.206 1924.38,298.093 1926.62,297.98 1928.86,297.868 1931.11,297.757 1933.35,297.647 1935.59,297.537 1937.83,297.428 1940.08,297.32 1942.32,297.212 1944.56,297.105 1946.81,296.999 1949.05,296.894 1951.29,296.789 1953.53,296.685 1955.78,296.581 1958.02,296.479 1960.26,296.377 1962.5,296.276 1964.75,296.176 1966.99,296.076 1969.23,295.977 1971.48,295.879 1973.72,295.782 1975.96,295.686 1978.2,295.59 1980.45,295.495 1982.69,295.401 1984.93,295.308 1987.18,295.216 1989.42,295.125 1991.66,295.034 1993.9,294.945 1996.15,294.857 1998.39,294.769 2000.63,294.683 2002.88,294.597 2005.12,294.513 2007.36,294.429 2009.6,294.347 2011.85,294.266 2014.09,294.186 2016.33,294.107 2018.58,294.029 2020.82,293.953 2023.06,293.878 2025.3,293.804 2027.55,293.731 2029.79,293.66 2032.03,293.589 2034.28,293.519 2036.52,293.451 2038.76,293.383 2041,293.316 2043.25,293.25 2045.49,293.184 2047.73,293.12 2049.97,293.056 2052.22,292.993 2054.46,292.931 2056.7,292.869 2058.95,292.808 2061.19,292.747 2063.43,292.688 2065.67,292.628 2067.92,292.569 2070.16,292.511 2072.4,292.453 2074.65,292.396 2076.89,292.339 2079.13,292.282 2081.37,292.226 2083.62,292.17 2085.86,292.115 2088.1,292.06 2090.35,292.005 2092.59,291.951 2094.83,291.896 2097.07,291.842 2099.32,291.789 2101.56,291.735 2103.8,291.682 2106.05,291.629 2108.29,291.576 2110.53,291.524 2112.77,291.472 2115.02,291.419 2117.26,291.367 2119.5,291.315 2121.75,291.264 2123.99,291.212 2126.23,291.161 2128.47,291.109 2130.72,291.058 2132.96,291.007 2135.2,290.956 2137.45,290.906 2139.69,290.855 2141.93,290.805 2144.17,290.754 2146.42,290.704 2148.66,290.654 2150.9,290.604 2153.14,290.554 2155.39,290.504 2157.63,290.455 2159.87,290.405 2162.12,290.356 2164.36,290.307 2166.6,290.258 2168.84,290.21 2171.09,290.161 2173.33,290.113 2175.57,290.065 2177.82,290.017 2180.06,289.969 2182.3,289.922 2184.54,289.875 2186.79,289.828 2189.03,289.781 2191.27,289.735 2193.52,289.689 2195.76,289.644 2198,289.599 2200.24,289.554 2202.49,289.51 2204.73,289.466 2206.97,289.422 2209.22,289.38 2211.46,289.337 2213.7,289.295 2215.94,289.254 2218.19,289.213 2220.43,289.173 2222.67,289.133 2224.92,289.094 2227.16,289.056 2229.4,289.018 2231.64,288.981 2233.89,288.945 2236.13,288.91 2238.37,288.876 2240.61,288.842 2242.86,288.81 2245.1,288.778 2247.34,288.747 2249.59,288.717 2251.83,288.689 2254.07,288.661 2256.31,288.634 2258.56,288.607 2260.8,288.58 2263.04,288.553 2265.29,288.527 2267.53,288.5 2269.77,288.474 2272.01,288.448 2274.26,288.422 2276.5,288.396 2278.74,288.371 2280.99,288.345 2283.23,288.32 2285.47,288.295 2287.71,288.27 2289.96,288.245 2292.2,288.22 2294.44,288.196 2296.69,288.171 2298.93,288.147 2301.17,288.123 2303.41,288.099 2305.66,288.075 2307.9,288.051 2310.14,288.028 2312.39,288.005 2314.63,287.981 2316.87,287.958 2319.11,287.936 2321.36,287.913 2323.6,287.89 2325.84,287.868 2328.08,287.846 2330.33,287.824 2332.57,287.802 2334.81,287.78 2337.06,287.759 2339.3,287.737 2341.54,287.716 2343.78,287.695 2346.03,287.674 2348.27,287.653 2350.51,287.633 2352.76,287.612 "/>
<circle clip-path="url(#clip491)" cx="112.177" cy="750.833" r="21.6" fill="#009af9" fill-rule="evenodd" fill-opacity="0.7" stroke="#000000" stroke-opacity="0.7" stroke-width="3.2"/>
<circle clip-path="url(#clip491)" cx="230.102" cy="1099.24" r="21.6" fill="#009af9" fill-rule="evenodd" fill-opacity="0.7" stroke="#000000" stroke-opacity="0.7" stroke-width="3.2"/>
<circle clip-path="url(#clip491)" cx="348.028" cy="1102.61" r="21.6" fill="#009af9" fill-rule="evenodd" fill-opacity="0.7" stroke="#000000" stroke-opacity="0.7" stroke-width="3.2"/>
<circle clip-path="url(#clip491)" cx="465.953" cy="1109.31" r="21.6" fill="#009af9" fill-rule="evenodd" fill-opacity="0.7" stroke="#000000" stroke-opacity="0.7" stroke-width="3.2"/>
<circle clip-path="url(#clip491)" cx="583.878" cy="1051.34" r="21.6" fill="#009af9" fill-rule="evenodd" fill-opacity="0.7" stroke="#000000" stroke-opacity="0.7" stroke-width="3.2"/>
<circle clip-path="url(#clip491)" cx="701.803" cy="1103.19" r="21.6" fill="#009af9" fill-rule="evenodd" fill-opacity="0.7" stroke="#000000" stroke-opacity="0.7" stroke-width="3.2"/>
<circle clip-path="url(#clip491)" cx="819.728" cy="988.615" r="21.6" fill="#009af9" fill-rule="evenodd" fill-opacity="0.7" stroke="#000000" stroke-opacity="0.7" stroke-width="3.2"/>
<circle clip-path="url(#clip491)" cx="937.654" cy="1023.55" r="21.6" fill="#009af9" fill-rule="evenodd" fill-opacity="0.7" stroke="#000000" stroke-opacity="0.7" stroke-width="3.2"/>
<circle clip-path="url(#clip491)" cx="1055.58" cy="894.941" r="21.6" fill="#009af9" fill-rule="evenodd" fill-opacity="0.7" stroke="#000000" stroke-opacity="0.7" stroke-width="3.2"/>
<circle clip-path="url(#clip491)" cx="1173.5" cy="999.855" r="21.6" fill="#009af9" fill-rule="evenodd" fill-opacity="0.7" stroke="#000000" stroke-opacity="0.7" stroke-width="3.2"/>
<circle clip-path="url(#clip491)" cx="1291.43" cy="837.807" r="21.6" fill="#009af9" fill-rule="evenodd" fill-opacity="0.7" stroke="#000000" stroke-opacity="0.7" stroke-width="3.2"/>
<circle clip-path="url(#clip491)" cx="1409.35" cy="863.212" r="21.6" fill="#009af9" fill-rule="evenodd" fill-opacity="0.7" stroke="#000000" stroke-opacity="0.7" stroke-width="3.2"/>
<circle clip-path="url(#clip491)" cx="1527.28" cy="758.732" r="21.6" fill="#009af9" fill-rule="evenodd" fill-opacity="0.7" stroke="#000000" stroke-opacity="0.7" stroke-width="3.2"/>
<circle clip-path="url(#clip491)" cx="1645.2" cy="906.486" r="21.6" fill="#009af9" fill-rule="evenodd" fill-opacity="0.7" stroke="#000000" stroke-opacity="0.7" stroke-width="3.2"/>
<circle clip-path="url(#clip491)" cx="1763.13" cy="844.553" r="21.6" fill="#009af9" fill-rule="evenodd" fill-opacity="0.7" stroke="#000000" stroke-opacity="0.7" stroke-width="3.2"/>
<circle clip-path="url(#clip491)" cx="1881.06" cy="914.635" r="21.6" fill="#009af9" fill-rule="evenodd" fill-opacity="0.7" stroke="#000000" stroke-opacity="0.7" stroke-width="3.2"/>
<circle clip-path="url(#clip491)" cx="1998.98" cy="749.161" r="21.6" fill="#009af9" fill-rule="evenodd" fill-opacity="0.7" stroke="#000000" stroke-opacity="0.7" stroke-width="3.2"/>
<circle clip-path="url(#clip491)" cx="2116.91" cy="897.394" r="21.6" fill="#009af9" fill-rule="evenodd" fill-opacity="0.7" stroke="#000000" stroke-opacity="0.7" stroke-width="3.2"/>
<circle clip-path="url(#clip491)" cx="2234.83" cy="862.136" r="21.6" fill="#009af9" fill-rule="evenodd" fill-opacity="0.7" stroke="#000000" stroke-opacity="0.7" stroke-width="3.2"/>
<circle clip-path="url(#clip491)" cx="2352.76" cy="849.787" r="21.6" fill="#009af9" fill-rule="evenodd" fill-opacity="0.7" stroke="#000000" stroke-opacity="0.7" stroke-width="3.2"/>
<circle clip-path="url(#clip491)" cx="112.177" cy="1381.32" r="21.6" fill="#e26f46" fill-rule="evenodd" fill-opacity="0.7" stroke="#000000" stroke-opacity="0.7" stroke-width="3.2"/>
<circle clip-path="url(#clip491)" cx="230.102" cy="923.651" r="21.6" fill="#e26f46" fill-rule="evenodd" fill-opacity="0.7" stroke="#000000" stroke-opacity="0.7" stroke-width="3.2"/>
<circle clip-path="url(#clip491)" cx="348.028" cy="815.816" r="21.6" fill="#e26f46" fill-rule="evenodd" fill-opacity="0.7" stroke="#000000" stroke-opacity="0.7" stroke-width="3.2"/>
<circle clip-path="url(#clip491)" cx="465.953" cy="713.639" r="21.6" fill="#e26f46" fill-rule="evenodd" fill-opacity="0.7" stroke="#000000" stroke-opacity="0.7" stroke-width="3.2"/>
<circle clip-path="url(#clip491)" cx="583.878" cy="779.017" r="21.6" fill="#e26f46" fill-rule="evenodd" fill-opacity="0.7" stroke="#000000" stroke-opacity="0.7" stroke-width="3.2"/>
<circle clip-path="url(#clip491)" cx="701.803" cy="689.72" r="21.6" fill="#e26f46" fill-rule="evenodd" fill-opacity="0.7" stroke="#000000" stroke-opacity="0.7" stroke-width="3.2"/>
<circle clip-path="url(#clip491)" cx="819.728" cy="550.169" r="21.6" fill="#e26f46" fill-rule="evenodd" fill-opacity="0.7" stroke="#000000" stroke-opacity="0.7" stroke-width="3.2"/>
<circle clip-path="url(#clip491)" cx="937.654" cy="473.274" r="21.6" fill="#e26f46" fill-rule="evenodd" fill-opacity="0.7" stroke="#000000" stroke-opacity="0.7" stroke-width="3.2"/>
<circle clip-path="url(#clip491)" cx="1055.58" cy="507.336" r="21.6" fill="#e26f46" fill-rule="evenodd" fill-opacity="0.7" stroke="#000000" stroke-opacity="0.7" stroke-width="3.2"/>
<circle clip-path="url(#clip491)" cx="1173.5" cy="415.747" r="21.6" fill="#e26f46" fill-rule="evenodd" fill-opacity="0.7" stroke="#000000" stroke-opacity="0.7" stroke-width="3.2"/>
<circle clip-path="url(#clip491)" cx="1291.43" cy="268.754" r="21.6" fill="#e26f46" fill-rule="evenodd" fill-opacity="0.7" stroke="#000000" stroke-opacity="0.7" stroke-width="3.2"/>
<circle clip-path="url(#clip491)" cx="1409.35" cy="228.999" r="21.6" fill="#e26f46" fill-rule="evenodd" fill-opacity="0.7" stroke="#000000" stroke-opacity="0.7" stroke-width="3.2"/>
<circle clip-path="url(#clip491)" cx="1527.28" cy="529.223" r="21.6" fill="#e26f46" fill-rule="evenodd" fill-opacity="0.7" stroke="#000000" stroke-opacity="0.7" stroke-width="3.2"/>
<circle clip-path="url(#clip491)" cx="1645.2" cy="237.901" r="21.6" fill="#e26f46" fill-rule="evenodd" fill-opacity="0.7" stroke="#000000" stroke-opacity="0.7" stroke-width="3.2"/>
<circle clip-path="url(#clip491)" cx="1763.13" cy="180.689" r="21.6" fill="#e26f46" fill-rule="evenodd" fill-opacity="0.7" stroke="#000000" stroke-opacity="0.7" stroke-width="3.2"/>
<circle clip-path="url(#clip491)" cx="1881.06" cy="471.576" r="21.6" fill="#e26f46" fill-rule="evenodd" fill-opacity="0.7" stroke="#000000" stroke-opacity="0.7" stroke-width="3.2"/>
<circle clip-path="url(#clip491)" cx="1998.98" cy="471.126" r="21.6" fill="#e26f46" fill-rule="evenodd" fill-opacity="0.7" stroke="#000000" stroke-opacity="0.7" stroke-width="3.2"/>
<circle clip-path="url(#clip491)" cx="2116.91" cy="250.895" r="21.6" fill="#e26f46" fill-rule="evenodd" fill-opacity="0.7" stroke="#000000" stroke-opacity="0.7" stroke-width="3.2"/>
<circle clip-path="url(#clip491)" cx="2234.83" cy="187.757" r="21.6" fill="#e26f46" fill-rule="evenodd" fill-opacity="0.7" stroke="#000000" stroke-opacity="0.7" stroke-width="3.2"/>
<circle clip-path="url(#clip491)" cx="2352.76" cy="86.1857" r="21.6" fill="#e26f46" fill-rule="evenodd" fill-opacity="0.7" stroke="#000000" stroke-opacity="0.7" stroke-width="3.2"/>
<path clip-path="url(#clip490)" d="M186.863 352.309 L596.753 352.309 L596.753 93.1086 L186.863 93.1086  Z" fill="#ffffff" fill-rule="evenodd" fill-opacity="1"/>
<polyline clip-path="url(#clip490)" style="stroke:#000000; stroke-linecap:round; stroke-linejoin:round; stroke-width:4; stroke-opacity:1; fill:none" points="186.863,352.309 596.753,352.309 596.753,93.1086 186.863,93.1086 186.863,352.309 "/>
<polyline clip-path="url(#clip490)" style="stroke:#009af9; stroke-linecap:round; stroke-linejoin:round; stroke-width:20; stroke-opacity:1; fill:none" points="211.758,144.949 361.13,144.949 "/>
<path clip-path="url(#clip490)" d="M387.6 127.669 L392.623 127.669 L401.211 140.516 L409.845 127.669 L414.868 127.669 L403.757 144.266 L415.609 162.229 L410.586 162.229 L400.864 147.53 L391.072 162.229 L386.026 162.229 L398.364 143.78 L387.6 127.669 Z" fill="#000000" fill-rule="nonzero" fill-opacity="1" /><polyline clip-path="url(#clip490)" style="stroke:#e26f46; stroke-linecap:round; stroke-linejoin:round; stroke-width:20; stroke-opacity:1; fill:none" points="211.758,196.789 361.13,196.789 "/>
<path clip-path="url(#clip490)" d="M386.026 179.509 L391.049 179.509 L400.632 193.722 L410.146 179.509 L415.169 179.509 L402.947 197.61 L402.947 214.069 L398.248 214.069 L398.248 197.61 L386.026 179.509 Z" fill="#000000" fill-rule="nonzero" fill-opacity="1" /><circle clip-path="url(#clip490)" cx="286.444" cy="248.629" r="21.2677" fill="#009af9" fill-rule="evenodd" fill-opacity="0.7" stroke="#000000" stroke-opacity="0.7" stroke-width="3.15077"/>
<path clip-path="url(#clip490)" d="M387.6 231.349 L392.623 231.349 L401.211 244.196 L409.845 231.349 L414.868 231.349 L403.757 247.946 L415.609 265.909 L410.586 265.909 L400.864 251.21 L391.072 265.909 L386.026 265.909 L398.364 247.46 L387.6 231.349 Z" fill="#000000" fill-rule="nonzero" fill-opacity="1" /><path clip-path="url(#clip490)" d="M446.859 229.937 Q443.757 235.261 442.252 240.469 Q440.748 245.677 440.748 251.024 Q440.748 256.372 442.252 261.626 Q443.78 266.858 446.859 272.159 L443.155 272.159 Q439.683 266.719 437.947 261.464 Q436.234 256.21 436.234 251.024 Q436.234 245.862 437.947 240.631 Q439.66 235.4 443.155 229.937 L446.859 229.937 Z" fill="#000000" fill-rule="nonzero" fill-opacity="1" /><path clip-path="url(#clip490)" d="M472.183 243.918 L472.183 229.89 L476.442 229.89 L476.442 265.909 L472.183 265.909 L472.183 262.02 Q470.84 264.335 468.78 265.469 Q466.743 266.58 463.872 266.58 Q459.173 266.58 456.21 262.83 Q453.271 259.08 453.271 252.969 Q453.271 246.858 456.21 243.108 Q459.173 239.358 463.872 239.358 Q466.743 239.358 468.78 240.492 Q470.84 241.603 472.183 243.918 M457.669 252.969 Q457.669 257.668 459.59 260.353 Q461.535 263.015 464.914 263.015 Q468.294 263.015 470.238 260.353 Q472.183 257.668 472.183 252.969 Q472.183 248.27 470.238 245.608 Q468.294 242.923 464.914 242.923 Q461.535 242.923 459.59 245.608 Q457.669 248.27 457.669 252.969 Z" fill="#000000" fill-rule="nonzero" fill-opacity="1" /><path clip-path="url(#clip490)" d="M496.997 252.876 Q491.835 252.876 489.845 254.057 Q487.854 255.237 487.854 258.085 Q487.854 260.353 489.335 261.696 Q490.84 263.015 493.409 263.015 Q496.951 263.015 499.081 260.515 Q501.233 257.992 501.233 253.825 L501.233 252.876 L496.997 252.876 M505.493 251.117 L505.493 265.909 L501.233 265.909 L501.233 261.973 Q499.775 264.335 497.599 265.469 Q495.423 266.58 492.275 266.58 Q488.294 266.58 485.933 264.358 Q483.595 262.112 483.595 258.362 Q483.595 253.987 486.511 251.765 Q489.451 249.543 495.261 249.543 L501.233 249.543 L501.233 249.126 Q501.233 246.187 499.289 244.589 Q497.368 242.969 493.872 242.969 Q491.65 242.969 489.544 243.501 Q487.437 244.034 485.493 245.099 L485.493 241.163 Q487.831 240.261 490.03 239.821 Q492.229 239.358 494.312 239.358 Q499.937 239.358 502.715 242.274 Q505.493 245.191 505.493 251.117 Z" fill="#000000" fill-rule="nonzero" fill-opacity="1" /><path clip-path="url(#clip490)" d="M518.479 232.622 L518.479 239.983 L527.252 239.983 L527.252 243.293 L518.479 243.293 L518.479 257.367 Q518.479 260.538 519.335 261.441 Q520.215 262.344 522.877 262.344 L527.252 262.344 L527.252 265.909 L522.877 265.909 Q517.946 265.909 516.071 264.08 Q514.196 262.228 514.196 257.367 L514.196 243.293 L511.071 243.293 L511.071 239.983 L514.196 239.983 L514.196 232.622 L518.479 232.622 Z" fill="#000000" fill-rule="nonzero" fill-opacity="1" /><path clip-path="url(#clip490)" d="M544.636 252.876 Q539.474 252.876 537.483 254.057 Q535.492 255.237 535.492 258.085 Q535.492 260.353 536.974 261.696 Q538.479 263.015 541.048 263.015 Q544.59 263.015 546.719 260.515 Q548.872 257.992 548.872 253.825 L548.872 252.876 L544.636 252.876 M553.131 251.117 L553.131 265.909 L548.872 265.909 L548.872 261.973 Q547.414 264.335 545.238 265.469 Q543.062 266.58 539.914 266.58 Q535.932 266.58 533.571 264.358 Q531.233 262.112 531.233 258.362 Q531.233 253.987 534.15 251.765 Q537.09 249.543 542.9 249.543 L548.872 249.543 L548.872 249.126 Q548.872 246.187 546.928 244.589 Q545.006 242.969 541.511 242.969 Q539.289 242.969 537.182 243.501 Q535.076 244.034 533.131 245.099 L533.131 241.163 Q535.469 240.261 537.668 239.821 Q539.867 239.358 541.951 239.358 Q547.576 239.358 550.354 242.274 Q553.131 245.191 553.131 251.117 Z" fill="#000000" fill-rule="nonzero" fill-opacity="1" /><path clip-path="url(#clip490)" d="M561.233 229.937 L564.937 229.937 Q568.409 235.4 570.122 240.631 Q571.858 245.862 571.858 251.024 Q571.858 256.21 570.122 261.464 Q568.409 266.719 564.937 272.159 L561.233 272.159 Q564.312 266.858 565.816 261.626 Q567.344 256.372 567.344 251.024 Q567.344 245.677 565.816 240.469 Q564.312 235.261 561.233 229.937 Z" fill="#000000" fill-rule="nonzero" fill-opacity="1" /><circle clip-path="url(#clip490)" cx="286.444" cy="300.469" r="21.2677" fill="#e26f46" fill-rule="evenodd" fill-opacity="0.7" stroke="#000000" stroke-opacity="0.7" stroke-width="3.15077"/>
<path clip-path="url(#clip490)" d="M386.026 283.189 L391.049 283.189 L400.632 297.402 L410.146 283.189 L415.169 283.189 L402.947 301.29 L402.947 317.749 L398.248 317.749 L398.248 301.29 L386.026 283.189 Z" fill="#000000" fill-rule="nonzero" fill-opacity="1" /><path clip-path="url(#clip490)" d="M444.845 281.777 Q441.743 287.101 440.238 292.309 Q438.734 297.517 438.734 302.864 Q438.734 308.212 440.238 313.466 Q441.766 318.698 444.845 323.999 L441.141 323.999 Q437.669 318.559 435.933 313.304 Q434.22 308.05 434.22 302.864 Q434.22 297.702 435.933 292.471 Q437.646 287.24 441.141 281.777 L444.845 281.777 Z" fill="#000000" fill-rule="nonzero" fill-opacity="1" /><path clip-path="url(#clip490)" d="M470.169 295.758 L470.169 281.73 L474.428 281.73 L474.428 317.749 L470.169 317.749 L470.169 313.86 Q468.826 316.175 466.766 317.309 Q464.729 318.42 461.859 318.42 Q457.16 318.42 454.197 314.67 Q451.257 310.92 451.257 304.809 Q451.257 298.698 454.197 294.948 Q457.16 291.198 461.859 291.198 Q464.729 291.198 466.766 292.332 Q468.826 293.443 470.169 295.758 M455.655 304.809 Q455.655 309.508 457.576 312.193 Q459.521 314.855 462.9 314.855 Q466.28 314.855 468.224 312.193 Q470.169 309.508 470.169 304.809 Q470.169 300.11 468.224 297.448 Q466.28 294.763 462.9 294.763 Q459.521 294.763 457.576 297.448 Q455.655 300.11 455.655 304.809 Z" fill="#000000" fill-rule="nonzero" fill-opacity="1" /><path clip-path="url(#clip490)" d="M494.983 304.716 Q489.821 304.716 487.831 305.897 Q485.84 307.077 485.84 309.925 Q485.84 312.193 487.321 313.536 Q488.826 314.855 491.395 314.855 Q494.937 314.855 497.067 312.355 Q499.22 309.832 499.22 305.665 L499.22 304.716 L494.983 304.716 M503.479 302.957 L503.479 317.749 L499.22 317.749 L499.22 313.813 Q497.761 316.175 495.585 317.309 Q493.409 318.42 490.261 318.42 Q486.28 318.42 483.919 316.198 Q481.581 313.952 481.581 310.202 Q481.581 305.827 484.497 303.605 Q487.437 301.383 493.247 301.383 L499.22 301.383 L499.22 300.966 Q499.22 298.027 497.275 296.429 Q495.354 294.809 491.858 294.809 Q489.636 294.809 487.53 295.341 Q485.423 295.874 483.479 296.939 L483.479 293.003 Q485.817 292.101 488.016 291.661 Q490.215 291.198 492.298 291.198 Q497.923 291.198 500.701 294.114 Q503.479 297.031 503.479 302.957 Z" fill="#000000" fill-rule="nonzero" fill-opacity="1" /><path clip-path="url(#clip490)" d="M516.465 284.462 L516.465 291.823 L525.238 291.823 L525.238 295.133 L516.465 295.133 L516.465 309.207 Q516.465 312.378 517.321 313.281 Q518.201 314.184 520.863 314.184 L525.238 314.184 L525.238 317.749 L520.863 317.749 Q515.932 317.749 514.057 315.92 Q512.182 314.068 512.182 309.207 L512.182 295.133 L509.057 295.133 L509.057 291.823 L512.182 291.823 L512.182 284.462 L516.465 284.462 Z" fill="#000000" fill-rule="nonzero" fill-opacity="1" /><path clip-path="url(#clip490)" d="M542.622 304.716 Q537.46 304.716 535.469 305.897 Q533.479 307.077 533.479 309.925 Q533.479 312.193 534.96 313.536 Q536.465 314.855 539.034 314.855 Q542.576 314.855 544.705 312.355 Q546.858 309.832 546.858 305.665 L546.858 304.716 L542.622 304.716 M551.117 302.957 L551.117 317.749 L546.858 317.749 L546.858 313.813 Q545.4 316.175 543.224 317.309 Q541.048 318.42 537.9 318.42 Q533.918 318.42 531.557 316.198 Q529.219 313.952 529.219 310.202 Q529.219 305.827 532.136 303.605 Q535.076 301.383 540.886 301.383 L546.858 301.383 L546.858 300.966 Q546.858 298.027 544.914 296.429 Q542.992 294.809 539.497 294.809 Q537.275 294.809 535.168 295.341 Q533.062 295.874 531.118 296.939 L531.118 293.003 Q533.455 292.101 535.655 291.661 Q537.854 291.198 539.937 291.198 Q545.562 291.198 548.34 294.114 Q551.117 297.031 551.117 302.957 Z" fill="#000000" fill-rule="nonzero" fill-opacity="1" /><path clip-path="url(#clip490)" d="M559.219 281.777 L562.923 281.777 Q566.395 287.24 568.108 292.471 Q569.844 297.702 569.844 302.864 Q569.844 308.05 568.108 313.304 Q566.395 318.559 562.923 323.999 L559.219 323.999 Q562.298 318.698 563.803 313.466 Q565.33 308.212 565.33 302.864 Q565.33 297.517 563.803 292.309 Q562.298 287.101 559.219 281.777 Z" fill="#000000" fill-rule="nonzero" fill-opacity="1" /></svg>
