<?xml version="1.0" encoding="utf-8"?>
<svg xmlns="http://www.w3.org/2000/svg" xmlns:xlink="http://www.w3.org/1999/xlink" width="600" height="400" viewBox="0 0 2400 1600">
<defs>
  <clipPath id="clip140">
    <rect x="0" y="0" width="2400" height="1600"/>
  </clipPath>
</defs>
<path clip-path="url(#clip140)" d="M0 1600 L2400 1600 L2400 0 L0 0  Z" fill="#ffffff" fill-rule="evenodd" fill-opacity="1"/>
<defs>
  <clipPath id="clip141">
    <rect x="112" y="47" width="2242" height="1377"/>
  </clipPath>
</defs>
<path clip-path="url(#clip140)" d="M112.177 1423.18 L2352.76 1423.18 L2352.76 47.2441 L112.177 47.2441  Z" fill="#ffffff" fill-rule="evenodd" fill-opacity="1"/>
<polyline clip-path="url(#clip141)" style="stroke:#000000; stroke-linecap:round; stroke-linejoin:round; stroke-width:2; stroke-opacity:0.1; fill:none" points="112.177,1423.18 112.177,47.2441 "/>
<polyline clip-path="url(#clip141)" style="stroke:#000000; stroke-linecap:round; stroke-linejoin:round; stroke-width:2; stroke-opacity:0.1; fill:none" points="610.084,1423.18 610.084,47.2441 "/>
<polyline clip-path="url(#clip141)" style="stroke:#000000; stroke-linecap:round; stroke-linejoin:round; stroke-width:2; stroke-opacity:0.1; fill:none" points="1107.99,1423.18 1107.99,47.2441 "/>
<polyline clip-path="url(#clip141)" style="stroke:#000000; stroke-linecap:round; stroke-linejoin:round; stroke-width:2; stroke-opacity:0.1; fill:none" points="1605.9,1423.18 1605.9,47.2441 "/>
<polyline clip-path="url(#clip141)" style="stroke:#000000; stroke-linecap:round; stroke-linejoin:round; stroke-width:2; stroke-opacity:0.1; fill:none" points="2103.8,1423.18 2103.8,47.2441 "/>
<polyline clip-path="url(#clip141)" style="stroke:#000000; stroke-linecap:round; stroke-linejoin:round; stroke-width:2; stroke-opacity:0.1; fill:none" points="112.177,1414.19 2352.76,1414.19 "/>
<polyline clip-path="url(#clip141)" style="stroke:#000000; stroke-linecap:round; stroke-linejoin:round; stroke-width:2; stroke-opacity:0.1; fill:none" points="112.177,1114.7 2352.76,1114.7 "/>
<polyline clip-path="url(#clip141)" style="stroke:#000000; stroke-linecap:round; stroke-linejoin:round; stroke-width:2; stroke-opacity:0.1; fill:none" points="112.177,815.222 2352.76,815.222 "/>
<polyline clip-path="url(#clip141)" style="stroke:#000000; stroke-linecap:round; stroke-linejoin:round; stroke-width:2; stroke-opacity:0.1; fill:none" points="112.177,515.74 2352.76,515.74 "/>
<polyline clip-path="url(#clip141)" style="stroke:#000000; stroke-linecap:round; stroke-linejoin:round; stroke-width:2; stroke-opacity:0.1; fill:none" points="112.177,216.258 2352.76,216.258 "/>
<polyline clip-path="url(#clip140)" style="stroke:#000000; stroke-linecap:round; stroke-linejoin:round; stroke-width:4; stroke-opacity:1; fill:none" points="112.177,1423.18 2352.76,1423.18 "/>
<polyline clip-path="url(#clip140)" style="stroke:#000000; stroke-linecap:round; stroke-linejoin:round; stroke-width:4; stroke-opacity:1; fill:none" points="112.177,1423.18 112.177,1404.28 "/>
<polyline clip-path="url(#clip140)" style="stroke:#000000; stroke-linecap:round; stroke-linejoin:round; stroke-width:4; stroke-opacity:1; fill:none" points="610.084,1423.18 610.084,1404.28 "/>
<polyline clip-path="url(#clip140)" style="stroke:#000000; stroke-linecap:round; stroke-linejoin:round; stroke-width:4; stroke-opacity:1; fill:none" points="1107.99,1423.18 1107.99,1404.28 "/>
<polyline clip-path="url(#clip140)" style="stroke:#000000; stroke-linecap:round; stroke-linejoin:round; stroke-width:4; stroke-opacity:1; fill:none" points="1605.9,1423.18 1605.9,1404.28 "/>
<polyline clip-path="url(#clip140)" style="stroke:#000000; stroke-linecap:round; stroke-linejoin:round; stroke-width:4; stroke-opacity:1; fill:none" points="2103.8,1423.18 2103.8,1404.28 "/>
<path clip-path="url(#clip140)" d="M112.177 1454.1 Q108.566 1454.1 106.737 1457.66 Q104.932 1461.2 104.932 1468.33 Q104.932 1475.44 106.737 1479.01 Q108.566 1482.55 112.177 1482.55 Q115.811 1482.55 117.617 1479.01 Q119.446 1475.44 119.446 1468.33 Q119.446 1461.2 117.617 1457.66 Q115.811 1454.1 112.177 1454.1 M112.177 1450.39 Q117.987 1450.39 121.043 1455 Q124.122 1459.58 124.122 1468.33 Q124.122 1477.06 121.043 1481.67 Q117.987 1486.25 112.177 1486.25 Q106.367 1486.25 103.288 1481.67 Q100.233 1477.06 100.233 1468.33 Q100.233 1459.58 103.288 1455 Q106.367 1450.39 112.177 1450.39 Z" fill="#000000" fill-rule="nonzero" fill-opacity="1" /><path clip-path="url(#clip140)" d="M584.771 1481.64 L592.41 1481.64 L592.41 1455.28 L584.1 1456.95 L584.1 1452.69 L592.364 1451.02 L597.04 1451.02 L597.04 1481.64 L604.678 1481.64 L604.678 1485.58 L584.771 1485.58 L584.771 1481.64 Z" fill="#000000" fill-rule="nonzero" fill-opacity="1" /><path clip-path="url(#clip140)" d="M624.123 1454.1 Q620.512 1454.1 618.683 1457.66 Q616.878 1461.2 616.878 1468.33 Q616.878 1475.44 618.683 1479.01 Q620.512 1482.55 624.123 1482.55 Q627.757 1482.55 629.563 1479.01 Q631.391 1475.44 631.391 1468.33 Q631.391 1461.2 629.563 1457.66 Q627.757 1454.1 624.123 1454.1 M624.123 1450.39 Q629.933 1450.39 632.989 1455 Q636.067 1459.58 636.067 1468.33 Q636.067 1477.06 632.989 1481.67 Q629.933 1486.25 624.123 1486.25 Q618.313 1486.25 615.234 1481.67 Q612.178 1477.06 612.178 1468.33 Q612.178 1459.58 615.234 1455 Q618.313 1450.39 624.123 1450.39 Z" fill="#000000" fill-rule="nonzero" fill-opacity="1" /><path clip-path="url(#clip140)" d="M1086.76 1481.64 L1103.08 1481.64 L1103.08 1485.58 L1081.14 1485.58 L1081.14 1481.64 Q1083.8 1478.89 1088.38 1474.26 Q1092.99 1469.61 1094.17 1468.27 Q1096.42 1465.74 1097.3 1464.01 Q1098.2 1462.25 1098.2 1460.56 Q1098.2 1457.8 1096.25 1456.07 Q1094.33 1454.33 1091.23 1454.33 Q1089.03 1454.33 1086.58 1455.09 Q1084.15 1455.86 1081.37 1457.41 L1081.37 1452.69 Q1084.19 1451.55 1086.65 1450.97 Q1089.1 1450.39 1091.14 1450.39 Q1096.51 1450.39 1099.7 1453.08 Q1102.9 1455.77 1102.9 1460.26 Q1102.9 1462.39 1102.09 1464.31 Q1101.3 1466.2 1099.19 1468.8 Q1098.61 1469.47 1095.51 1472.69 Q1092.41 1475.88 1086.76 1481.64 Z" fill="#000000" fill-rule="nonzero" fill-opacity="1" /><path clip-path="url(#clip140)" d="M1122.9 1454.1 Q1119.29 1454.1 1117.46 1457.66 Q1115.65 1461.2 1115.65 1468.33 Q1115.65 1475.44 1117.46 1479.01 Q1119.29 1482.55 1122.9 1482.55 Q1126.53 1482.55 1128.34 1479.01 Q1130.17 1475.44 1130.17 1468.33 Q1130.17 1461.2 1128.34 1457.66 Q1126.53 1454.1 1122.9 1454.1 M1122.9 1450.39 Q1128.71 1450.39 1131.76 1455 Q1134.84 1459.58 1134.84 1468.33 Q1134.84 1477.06 1131.76 1481.67 Q1128.71 1486.25 1122.9 1486.25 Q1117.09 1486.25 1114.01 1481.67 Q1110.95 1477.06 1110.95 1468.33 Q1110.95 1459.58 1114.01 1455 Q1117.09 1450.39 1122.9 1450.39 Z" fill="#000000" fill-rule="nonzero" fill-opacity="1" /><path clip-path="url(#clip140)" d="M1594.74 1466.95 Q1598.1 1467.66 1599.97 1469.93 Q1601.87 1472.2 1601.87 1475.53 Q1601.87 1480.65 1598.35 1483.45 Q1594.83 1486.25 1588.35 1486.25 Q1586.17 1486.25 1583.86 1485.81 Q1581.57 1485.39 1579.11 1484.54 L1579.11 1480.02 Q1581.06 1481.16 1583.37 1481.74 Q1585.69 1482.32 1588.21 1482.32 Q1592.61 1482.32 1594.9 1480.58 Q1597.22 1478.84 1597.22 1475.53 Q1597.22 1472.48 1595.06 1470.77 Q1592.93 1469.03 1589.11 1469.03 L1585.09 1469.03 L1585.09 1465.19 L1589.3 1465.19 Q1592.75 1465.19 1594.58 1463.82 Q1596.41 1462.43 1596.41 1459.84 Q1596.41 1457.18 1594.51 1455.77 Q1592.63 1454.33 1589.11 1454.33 Q1587.19 1454.33 1584.99 1454.75 Q1582.79 1455.16 1580.16 1456.04 L1580.16 1451.88 Q1582.82 1451.14 1585.13 1450.77 Q1587.47 1450.39 1589.53 1450.39 Q1594.85 1450.39 1597.96 1452.83 Q1601.06 1455.23 1601.06 1459.35 Q1601.06 1462.22 1599.41 1464.21 Q1597.77 1466.18 1594.74 1466.95 Z" fill="#000000" fill-rule="nonzero" fill-opacity="1" /><path clip-path="url(#clip140)" d="M1620.73 1454.1 Q1617.12 1454.1 1615.29 1457.66 Q1613.49 1461.2 1613.49 1468.33 Q1613.49 1475.44 1615.29 1479.01 Q1617.12 1482.55 1620.73 1482.55 Q1624.37 1482.55 1626.17 1479.01 Q1628 1475.44 1628 1468.33 Q1628 1461.2 1626.17 1457.66 Q1624.37 1454.1 1620.73 1454.1 M1620.73 1450.39 Q1626.54 1450.39 1629.6 1455 Q1632.68 1459.58 1632.68 1468.33 Q1632.68 1477.06 1629.6 1481.67 Q1626.54 1486.25 1620.73 1486.25 Q1614.92 1486.25 1611.85 1481.67 Q1608.79 1477.06 1608.79 1468.33 Q1608.79 1459.58 1611.85 1455 Q1614.92 1450.39 1620.73 1450.39 Z" fill="#000000" fill-rule="nonzero" fill-opacity="1" /><path clip-path="url(#clip140)" d="M2091.97 1455.09 L2080.17 1473.54 L2091.97 1473.54 L2091.97 1455.09 M2090.75 1451.02 L2096.63 1451.02 L2096.63 1473.54 L2101.56 1473.54 L2101.56 1477.43 L2096.63 1477.43 L2096.63 1485.58 L2091.97 1485.58 L2091.97 1477.43 L2076.37 1477.43 L2076.37 1472.92 L2090.75 1451.02 Z" fill="#000000" fill-rule="nonzero" fill-opacity="1" /><path clip-path="url(#clip140)" d="M2119.29 1454.1 Q2115.68 1454.1 2113.85 1457.66 Q2112.04 1461.2 2112.04 1468.33 Q2112.04 1475.44 2113.85 1479.01 Q2115.68 1482.55 2119.29 1482.55 Q2122.92 1482.55 2124.73 1479.01 Q2126.56 1475.44 2126.56 1468.33 Q2126.56 1461.2 2124.73 1457.66 Q2122.92 1454.1 2119.29 1454.1 M2119.29 1450.39 Q2125.1 1450.39 2128.15 1455 Q2131.23 1459.58 2131.23 1468.33 Q2131.23 1477.06 2128.15 1481.67 Q2125.1 1486.25 2119.29 1486.25 Q2113.48 1486.25 2110.4 1481.67 Q2107.34 1477.06 2107.34 1468.33 Q2107.34 1459.58 2110.4 1455 Q2113.48 1450.39 2119.29 1450.39 Z" fill="#000000" fill-rule="nonzero" fill-opacity="1" /><path clip-path="url(#clip140)" d="M1231.53 1522.27 L1231.53 1532.4 L1243.59 1532.4 L1243.59 1536.95 L1231.53 1536.95 L1231.53 1556.3 Q1231.53 1560.66 1232.71 1561.9 Q1233.91 1563.14 1237.58 1563.14 L1243.59 1563.14 L1243.59 1568.04 L1237.58 1568.04 Q1230.8 1568.04 1228.22 1565.53 Q1225.64 1562.98 1225.64 1556.3 L1225.64 1536.95 L1221.34 1536.95 L1221.34 1532.4 L1225.64 1532.4 L1225.64 1522.27 L1231.53 1522.27 Z" fill="#000000" fill-rule="nonzero" fill-opacity="1" /><polyline clip-path="url(#clip140)" style="stroke:#000000; stroke-linecap:round; stroke-linejoin:round; stroke-width:4; stroke-opacity:1; fill:none" points="112.177,1423.18 112.177,47.2441 "/>
<polyline clip-path="url(#clip140)" style="stroke:#000000; stroke-linecap:round; stroke-linejoin:round; stroke-width:4; stroke-opacity:1; fill:none" points="112.177,1414.19 131.075,1414.19 "/>
<polyline clip-path="url(#clip140)" style="stroke:#000000; stroke-linecap:round; stroke-linejoin:round; stroke-width:4; stroke-opacity:1; fill:none" points="112.177,1114.7 131.075,1114.7 "/>
<polyline clip-path="url(#clip140)" style="stroke:#000000; stroke-linecap:round; stroke-linejoin:round; stroke-width:4; stroke-opacity:1; fill:none" points="112.177,815.222 131.075,815.222 "/>
<polyline clip-path="url(#clip140)" style="stroke:#000000; stroke-linecap:round; stroke-linejoin:round; stroke-width:4; stroke-opacity:1; fill:none" points="112.177,515.74 131.075,515.74 "/>
<polyline clip-path="url(#clip140)" style="stroke:#000000; stroke-linecap:round; stroke-linejoin:round; stroke-width:4; stroke-opacity:1; fill:none" points="112.177,216.258 131.075,216.258 "/>
<path clip-path="url(#clip140)" d="M64.2328 1399.99 Q60.6217 1399.99 58.793 1403.55 Q56.9875 1407.09 56.9875 1414.22 Q56.9875 1421.33 58.793 1424.89 Q60.6217 1428.43 64.2328 1428.43 Q67.867 1428.43 69.6726 1424.89 Q71.5013 1421.33 71.5013 1414.22 Q71.5013 1407.09 69.6726 1403.55 Q67.867 1399.99 64.2328 1399.99 M64.2328 1396.28 Q70.0429 1396.28 73.0985 1400.89 Q76.1772 1405.47 76.1772 1414.22 Q76.1772 1422.95 73.0985 1427.55 Q70.0429 1432.14 64.2328 1432.14 Q58.4226 1432.14 55.344 1427.55 Q52.2884 1422.95 52.2884 1414.22 Q52.2884 1405.47 55.344 1400.89 Q58.4226 1396.28 64.2328 1396.28 Z" fill="#000000" fill-rule="nonzero" fill-opacity="1" /><path clip-path="url(#clip140)" d="M56.2699 1128.05 L63.9087 1128.05 L63.9087 1101.68 L55.5986 1103.35 L55.5986 1099.09 L63.8624 1097.42 L68.5383 1097.42 L68.5383 1128.05 L76.1772 1128.05 L76.1772 1131.98 L56.2699 1131.98 L56.2699 1128.05 Z" fill="#000000" fill-rule="nonzero" fill-opacity="1" /><path clip-path="url(#clip140)" d="M59.8578 828.567 L76.1772 828.567 L76.1772 832.502 L54.2328 832.502 L54.2328 828.567 Q56.8949 825.812 61.4782 821.183 Q66.0846 816.53 67.2652 815.187 Q69.5105 812.664 70.3902 810.928 Q71.2929 809.169 71.2929 807.479 Q71.2929 804.724 69.3485 802.988 Q67.4272 801.252 64.3254 801.252 Q62.1263 801.252 59.6726 802.016 Q57.2421 802.78 54.4643 804.331 L54.4643 799.609 Q57.2884 798.474 59.7421 797.896 Q62.1958 797.317 64.2328 797.317 Q69.6031 797.317 72.7976 800.002 Q75.992 802.687 75.992 807.178 Q75.992 809.308 75.1818 811.229 Q74.3948 813.127 72.2883 815.72 Q71.7096 816.391 68.6078 819.609 Q65.5059 822.803 59.8578 828.567 Z" fill="#000000" fill-rule="nonzero" fill-opacity="1" /><path clip-path="url(#clip140)" d="M69.0476 514.386 Q72.404 515.103 74.279 517.372 Q76.1772 519.64 76.1772 522.974 Q76.1772 528.089 72.6587 530.89 Q69.1402 533.691 62.6587 533.691 Q60.4828 533.691 58.168 533.251 Q55.8764 532.835 53.4227 531.978 L53.4227 527.464 Q55.3671 528.599 57.6819 529.177 Q59.9967 529.756 62.5198 529.756 Q66.918 529.756 69.2096 528.02 Q71.5244 526.284 71.5244 522.974 Q71.5244 519.918 69.3717 518.205 Q67.242 516.469 63.4226 516.469 L59.3949 516.469 L59.3949 512.626 L63.6078 512.626 Q67.0569 512.626 68.8855 511.261 Q70.7142 509.872 70.7142 507.279 Q70.7142 504.617 68.8161 503.205 Q66.9411 501.77 63.4226 501.77 Q61.5013 501.77 59.3023 502.187 Q57.1032 502.603 54.4643 503.483 L54.4643 499.316 Q57.1264 498.576 59.4412 498.205 Q61.7791 497.835 63.8393 497.835 Q69.1633 497.835 72.2652 500.265 Q75.367 502.673 75.367 506.793 Q75.367 509.663 73.7235 511.654 Q72.08 513.622 69.0476 514.386 Z" fill="#000000" fill-rule="nonzero" fill-opacity="1" /><path clip-path="url(#clip140)" d="M66.5939 203.052 L54.7884 221.501 L66.5939 221.501 L66.5939 203.052 M65.367 198.978 L71.2466 198.978 L71.2466 221.501 L76.1772 221.501 L76.1772 225.39 L71.2466 225.39 L71.2466 233.538 L66.5939 233.538 L66.5939 225.39 L50.9921 225.39 L50.9921 220.876 L65.367 198.978 Z" fill="#000000" fill-rule="nonzero" fill-opacity="1" /><polyline clip-path="url(#clip141)" style="stroke:#009af9; stroke-linecap:round; stroke-linejoin:round; stroke-width:24; stroke-opacity:1; fill:none" points="112.177,815.222 114.42,828.556 116.663,841.576 118.906,854.274 121.148,866.64 123.391,878.661 125.634,890.324 127.877,901.618 130.12,912.534 132.363,923.063 134.605,933.2 136.848,942.943 139.091,952.29 141.334,961.245 143.577,969.811 145.819,977.994 148.062,985.802 150.305,993.244 152.548,1000.33 154.791,1007.07 157.034,1013.48 159.276,1019.57 161.519,1025.34 163.762,1030.83 166.005,1036.02 168.248,1040.95 170.491,1045.62 172.733,1050.04 174.976,1054.22 177.219,1058.18 179.462,1061.93 181.705,1065.47 183.947,1068.82 186.19,1071.99 188.433,1074.98 190.676,1077.81 192.919,1080.48 195.162,1083 197.404,1085.38 199.647,1087.63 201.89,1089.74 204.133,1091.74 206.376,1093.63 208.619,1095.4 210.861,1097.07 213.104,1098.65 215.347,1100.13 217.59,1101.52 219.833,1102.83 222.075,1104.06 224.318,1105.22 226.561,1106.3 228.804,1107.32 231.047,1108.27 233.29,1109.17 235.532,1110 237.775,1110.78 240.018,1111.51 242.261,1112.19 244.504,1112.82 246.746,1113.41 248.989,1113.95 251.232,1114.46 253.475,1114.93 255.718,1115.36 257.961,1115.75 260.203,1116.12 262.446,1116.45 264.689,1116.75 266.932,1117.03 269.175,1117.28 271.418,1117.5 273.66,1117.7 275.903,1117.87 278.146,1118.03 280.389,1118.16 282.632,1118.27 284.874,1118.36 287.117,1118.44 289.36,1118.49 291.603,1118.53 293.846,1118.56 296.089,1118.57 298.331,1118.57 300.574,1118.55 302.817,1118.52 305.06,1118.48 307.303,1118.42 309.545,1118.35 311.788,1118.28 314.031,1118.19 316.274,1118.09 318.517,1117.98 320.76,1117.87 323.002,1117.74 325.245,1117.6 327.488,1117.46 329.731,1117.31 331.974,1117.15 334.217,1116.99 336.459,1116.81 338.702,1116.63 340.945,1116.45 343.188,1116.26 345.431,1116.06 347.673,1115.86 349.916,1115.65 352.159,1115.43 354.402,1115.21 356.645,1114.99 358.888,1114.76 361.13,1114.52 363.373,1114.28 365.616,1114.04 367.859,1113.79 370.102,1113.53 372.344,1113.28 374.587,1113.01 376.83,1112.75 379.073,1112.48 381.316,1112.2 383.559,1111.92 385.801,1111.64 388.044,1111.36 390.287,1111.07 392.53,1110.78 394.773,1110.48 397.016,1110.18 399.258,1109.88 401.501,1109.58 403.744,1109.27 405.987,1108.96 408.23,1108.64 410.472,1108.33 412.715,1108 414.958,1107.68 417.201,1107.35 419.444,1107.02 421.687,1106.69 423.929,1106.36 426.172,1106.02 428.415,1105.68 430.658,1105.33 432.901,1104.98 435.143,1104.63 437.386,1104.28 439.629,1103.93 441.872,1103.57 444.115,1103.21 446.358,1102.84 448.6,1102.48 450.843,1102.11 453.086,1101.74 455.329,1101.36 457.572,1100.98 459.815,1100.6 462.057,1100.22 464.3,1099.84 466.543,1099.45 468.786,1099.06 471.029,1098.67 473.271,1098.27 475.514,1097.87 477.757,1097.47 480,1097.07 482.243,1096.67 484.486,1096.26 486.728,1095.85 488.971,1095.43 491.214,1095.02 493.457,1094.6 495.7,1094.17 497.942,1093.75 500.185,1093.32 502.428,1092.89 504.671,1092.46 506.914,1092.03 509.157,1091.59 511.399,1091.15 513.642,1090.71 515.885,1090.26 518.128,1089.81 520.371,1089.36 522.614,1088.91 524.856,1088.45 527.099,1087.99 529.342,1087.53 531.585,1087.07 533.828,1086.6 536.07,1086.13 538.313,1085.66 540.556,1085.19 542.799,1084.71 545.042,1084.23 547.285,1083.75 549.527,1083.26 551.77,1082.78 554.013,1082.29 556.256,1081.79 558.499,1081.3 560.741,1080.8 562.984,1080.3 565.227,1079.8 567.47,1079.29 569.713,1078.78 571.956,1078.27 574.198,1077.76 576.441,1077.24 578.684,1076.72 580.927,1076.2 583.17,1075.68 585.413,1075.15 587.655,1074.62 589.898,1074.09 592.141,1073.55 594.384,1073.01 596.627,1072.47 598.869,1071.93 601.112,1071.39 603.355,1070.84 605.598,1070.29 607.841,1069.73 610.084,1069.18 612.326,1068.62 614.569,1068.06 616.812,1067.5 619.055,1066.93 621.298,1066.36 623.54,1065.79 625.783,1065.22 628.026,1064.64 630.269,1064.06 632.512,1063.48 634.755,1062.9 636.997,1062.31 639.24,1061.72 641.483,1061.13 643.726,1060.53 645.969,1059.94 648.212,1059.34 650.454,1058.74 652.697,1058.13 654.94,1057.52 657.183,1056.91 659.426,1056.3 661.668,1055.69 663.911,1055.07 666.154,1054.45 668.397,1053.83 670.64,1053.2 672.883,1052.57 675.125,1051.94 677.368,1051.31 679.611,1050.68 681.854,1050.04 684.097,1049.4 686.339,1048.76 688.582,1048.12 690.825,1047.48 693.068,1046.83 695.311,1046.18 697.554,1045.53 699.796,1044.88 702.039,1044.22 704.282,1043.57 706.525,1042.91 708.768,1042.25 711.011,1041.58 713.253,1040.92 715.496,1040.25 717.739,1039.58 719.982,1038.91 722.225,1038.24 724.467,1037.57 726.71,1036.89 728.953,1036.22 731.196,1035.54 733.439,1034.86 735.682,1034.17 737.924,1033.49 740.167,1032.8 742.41,1032.11 744.653,1031.43 746.896,1030.73 749.138,1030.04 751.381,1029.35 753.624,1028.65 755.867,1027.95 758.11,1027.25 760.353,1026.55 762.595,1025.85 764.838,1025.14 767.081,1024.43 769.324,1023.73 771.567,1023.02 773.81,1022.3 776.052,1021.59 778.295,1020.87 780.538,1020.16 782.781,1019.44 785.024,1018.72 787.266,1018 789.509,1017.27 791.752,1016.55 793.995,1015.82 796.238,1015.1 798.481,1014.37 800.723,1013.64 802.966,1012.91 805.209,1012.18 807.452,1011.45 809.695,1010.72 811.938,1009.98 814.18,1009.25 816.423,1008.51 818.666,1007.78 820.909,1007.04 823.152,1006.3 825.394,1005.57 827.637,1004.83 829.88,1004.09 832.123,1003.35 834.366,1002.61 836.609,1001.88 838.851,1001.14 841.094,1000.4 843.337,999.656 845.58,998.915 847.823,998.175 850.065,997.434 852.308,996.693 854.551,995.952 856.794,995.211 859.037,994.47 861.28,993.728 863.522,992.987 865.765,992.246 868.008,991.505 870.251,990.763 872.494,990.022 874.737,989.281 876.979,988.54 879.222,987.798 881.465,987.057 883.708,986.316 885.951,985.576 888.193,984.835 890.436,984.094 892.679,983.354 894.922,982.613 897.165,981.873 899.408,981.133 901.65,980.392 903.893,979.652 906.136,978.912 908.379,978.173 910.622,977.434 912.864,976.695 915.107,975.956 917.35,975.219 919.593,974.481 921.836,973.745 924.079,973.009 926.321,972.275 928.564,971.541 930.807,970.808 933.05,970.076 935.293,969.346 937.536,968.616 939.778,967.888 942.021,967.161 944.264,966.435 946.507,965.711 948.75,964.988 950.992,964.267 953.235,963.547 955.478,962.829 957.721,962.112 959.964,961.397 962.207,960.683 964.449,959.972 966.692,959.262 968.935,958.553 971.178,957.847 973.421,957.142 975.663,956.439 977.906,955.738 980.149,955.038 982.392,954.341 984.635,953.645 986.878,952.952 989.12,952.26 991.363,951.57 993.606,950.882 995.849,950.196 998.092,949.511 1000.33,948.829 1002.58,948.148 1004.82,947.47 1007.06,946.793 1009.31,946.118 1011.55,945.445 1013.79,944.773 1016.03,944.104 1018.28,943.436 1020.52,942.77 1022.76,942.106 1025.01,941.443 1027.25,940.782 1029.49,940.123 1031.73,939.465 1033.98,938.809 1036.22,938.154 1038.46,937.501 1040.71,936.85 1042.95,936.201 1045.19,935.554 1047.43,934.909 1049.68,934.266 1051.92,933.626 1054.16,932.987 1056.41,932.351 1058.65,931.717 1060.89,931.086 1063.13,930.457 1065.38,929.83 1067.62,929.206 1069.86,928.585 1072.1,927.966 1074.35,927.35 1076.59,926.736 1078.83,926.126 1081.08,925.517 1083.32,924.912 1085.56,924.309 1087.8,923.71 1090.05,923.113 1092.29,922.518 1094.53,921.927 1096.78,921.339 1099.02,920.753 1101.26,920.17 1103.5,919.59 1105.75,919.013 1107.99,918.439 1110.23,917.868 1112.48,917.3 1114.72,916.734 1116.96,916.172 1119.2,915.612 1121.45,915.056 1123.69,914.502 1125.93,913.951 1128.18,913.403 1130.42,912.857 1132.66,912.315 1134.9,911.775 1137.15,911.238 1139.39,910.703 1141.63,910.172 1143.88,909.643 1146.12,909.116 1148.36,908.593 1150.6,908.072 1152.85,907.553 1155.09,907.037 1157.33,906.523 1159.57,906.012 1161.82,905.503 1164.06,904.996 1166.3,904.492 1168.55,903.989 1170.79,903.489 1173.03,902.991 1175.27,902.496 1177.52,902.003 1179.76,901.512 1182,901.024 1184.25,900.539 1186.49,900.056 1188.73,899.575 1190.97,899.098 1193.22,898.623 1195.46,898.15 1197.7,897.681 1199.95,897.214 1202.19,896.75 1204.43,896.288 1206.67,895.83 1208.92,895.374 1211.16,894.921 1213.4,894.471 1215.65,894.024 1217.89,893.58 1220.13,893.138 1222.37,892.699 1224.62,892.264 1226.86,891.831 1229.1,891.401 1231.35,890.974 1233.59,890.55 1235.83,890.128 1238.07,889.71 1240.32,889.295 1242.56,888.882 1244.8,888.472 1247.04,888.065 1249.29,887.661 1251.53,887.26 1253.77,886.861 1256.02,886.465 1258.26,886.073 1260.5,885.682 1262.74,885.295 1264.99,884.91 1267.23,884.528 1269.47,884.149 1271.72,883.772 1273.96,883.398 1276.2,883.026 1278.44,882.657 1280.69,882.29 1282.93,881.926 1285.17,881.565 1287.42,881.205 1289.66,880.848 1291.9,880.494 1294.14,880.141 1296.39,879.791 1298.63,879.443 1300.87,879.097 1303.12,878.753 1305.36,878.411 1307.6,878.071 1309.84,877.733 1312.09,877.397 1314.33,877.063 1316.57,876.73 1318.82,876.4 1321.06,876.071 1323.3,875.745 1325.54,875.421 1327.79,875.098 1330.03,874.778 1332.27,874.461 1334.51,874.145 1336.76,873.831 1339,873.52 1341.24,873.211 1343.49,872.904 1345.73,872.599 1347.97,872.297 1350.21,871.997 1352.46,871.699 1354.7,871.403 1356.94,871.109 1359.19,870.818 1361.43,870.529 1363.67,870.242 1365.91,869.958 1368.16,869.675 1370.4,869.395 1372.64,869.117 1374.89,868.841 1377.13,868.568 1379.37,868.296 1381.61,868.027 1383.86,867.76 1386.1,867.496 1388.34,867.233 1390.59,866.972 1392.83,866.714 1395.07,866.458 1397.31,866.204 1399.56,865.952 1401.8,865.702 1404.04,865.454 1406.29,865.208 1408.53,864.964 1410.77,864.723 1413.01,864.483 1415.26,864.245 1417.5,864.009 1419.74,863.775 1421.98,863.543 1424.23,863.313 1426.47,863.084 1428.71,862.858 1430.96,862.633 1433.2,862.41 1435.44,862.188 1437.68,861.969 1439.93,861.751 1442.17,861.534 1444.41,861.319 1446.66,861.106 1448.9,860.894 1451.14,860.684 1453.38,860.475 1455.63,860.268 1457.87,860.061 1460.11,859.857 1462.36,859.653 1464.6,859.451 1466.84,859.25 1469.08,859.05 1471.33,858.851 1473.57,858.654 1475.81,858.458 1478.06,858.264 1480.3,858.071 1482.54,857.879 1484.78,857.689 1487.03,857.501 1489.27,857.313 1491.51,857.128 1493.76,856.943 1496,856.76 1498.24,856.579 1500.48,856.399 1502.73,856.221 1504.97,856.044 1507.21,855.868 1509.46,855.694 1511.7,855.521 1513.94,855.35 1516.18,855.18 1518.43,855.012 1520.67,854.845 1522.91,854.68 1525.15,854.516 1527.4,854.353 1529.64,854.192 1531.88,854.032 1534.13,853.874 1536.37,853.717 1538.61,853.561 1540.85,853.407 1543.1,853.255 1545.34,853.103 1547.58,852.953 1549.83,852.805 1552.07,852.658 1554.31,852.512 1556.55,852.367 1558.8,852.224 1561.04,852.082 1563.28,851.941 1565.53,851.802 1567.77,851.664 1570.01,851.527 1572.25,851.391 1574.5,851.257 1576.74,851.124 1578.98,850.992 1581.23,850.861 1583.47,850.731 1585.71,850.603 1587.95,850.475 1590.2,850.349 1592.44,850.224 1594.68,850.099 1596.93,849.976 1599.17,849.854 1601.41,849.733 1603.65,849.613 1605.9,849.493 1608.14,849.375 1610.38,849.258 1612.62,849.141 1614.87,849.025 1617.11,848.911 1619.35,848.796 1621.6,848.683 1623.84,848.571 1626.08,848.459 1628.32,848.348 1630.57,848.237 1632.81,848.128 1635.05,848.018 1637.3,847.91 1639.54,847.802 1641.78,847.695 1644.02,847.589 1646.27,847.484 1648.51,847.379 1650.75,847.275 1653,847.173 1655.24,847.07 1657.48,846.969 1659.72,846.869 1661.97,846.769 1664.21,846.67 1666.45,846.572 1668.7,846.475 1670.94,846.379 1673.18,846.283 1675.42,846.189 1677.67,846.095 1679.91,846.002 1682.15,845.909 1684.4,845.818 1686.64,845.728 1688.88,845.638 1691.12,845.549 1693.37,845.461 1695.61,845.374 1697.85,845.287 1700.09,845.201 1702.34,845.117 1704.58,845.033 1706.82,844.949 1709.07,844.867 1711.31,844.785 1713.55,844.704 1715.79,844.624 1718.04,844.545 1720.28,844.467 1722.52,844.389 1724.77,844.312 1727.01,844.236 1729.25,844.16 1731.49,844.085 1733.74,844.011 1735.98,843.938 1738.22,843.866 1740.47,843.794 1742.71,843.723 1744.95,843.652 1747.19,843.582 1749.44,843.513 1751.68,843.445 1753.92,843.377 1756.17,843.31 1758.41,843.244 1760.65,843.178 1762.89,843.113 1765.14,843.048 1767.38,842.984 1769.62,842.92 1771.87,842.858 1774.11,842.795 1776.35,842.733 1778.59,842.672 1780.84,842.611 1783.08,842.551 1785.32,842.491 1787.56,842.432 1789.81,842.373 1792.05,842.315 1794.29,842.257 1796.54,842.2 1798.78,842.142 1801.02,842.086 1803.26,842.029 1805.51,841.973 1807.75,841.918 1809.99,841.862 1812.24,841.807 1814.48,841.752 1816.72,841.698 1818.96,841.644 1821.21,841.589 1823.45,841.536 1825.69,841.483 1827.94,841.43 1830.18,841.377 1832.42,841.325 1834.66,841.273 1836.91,841.222 1839.15,841.171 1841.39,841.12 1843.64,841.07 1845.88,841.02 1848.12,840.97 1850.36,840.921 1852.61,840.873 1854.85,840.825 1857.09,840.777 1859.34,840.729 1861.58,840.682 1863.82,840.636 1866.06,840.59 1868.31,840.544 1870.55,840.499 1872.79,840.454 1875.03,840.41 1877.28,840.366 1879.52,840.322 1881.76,840.279 1884.01,840.236 1886.25,840.194 1888.49,840.152 1890.73,840.111 1892.98,840.07 1895.22,840.029 1897.46,839.989 1899.71,839.95 1901.95,839.91 1904.19,839.872 1906.43,839.833 1908.68,839.795 1910.92,839.757 1913.16,839.72 1915.41,839.684 1917.65,839.647 1919.89,839.611 1922.13,839.576 1924.38,839.54 1926.62,839.506 1928.86,839.471 1931.11,839.437 1933.35,839.404 1935.59,839.37 1937.83,839.337 1940.08,839.305 1942.32,839.273 1944.56,839.241 1946.81,839.209 1949.05,839.178 1951.29,839.147 1953.53,839.117 1955.78,839.087 1958.02,839.057 1960.26,839.027 1962.5,838.998 1964.75,838.969 1966.99,838.94 1969.23,838.912 1971.48,838.884 1973.72,838.856 1975.96,838.828 1978.2,838.801 1980.45,838.774 1982.69,838.747 1984.93,838.72 1987.18,838.694 1989.42,838.667 1991.66,838.641 1993.9,838.615 1996.15,838.59 1998.39,838.564 2000.63,838.539 2002.88,838.513 2005.12,838.488 2007.36,838.463 2009.6,838.438 2011.85,838.413 2014.09,838.388 2016.33,838.364 2018.58,838.339 2020.82,838.314 2023.06,838.29 2025.3,838.265 2027.55,838.24 2029.79,838.216 2032.03,838.191 2034.28,838.167 2036.52,838.143 2038.76,838.119 2041,838.095 2043.25,838.071 2045.49,838.047 2047.73,838.023 2049.97,838 2052.22,837.977 2054.46,837.953 2056.7,837.93 2058.95,837.908 2061.19,837.885 2063.43,837.863 2065.67,837.84 2067.92,837.818 2070.16,837.796 2072.4,837.775 2074.65,837.753 2076.89,837.732 2079.13,837.711 2081.37,837.69 2083.62,837.669 2085.86,837.649 2088.1,837.629 2090.35,837.609 2092.59,837.589 2094.83,837.57 2097.07,837.55 2099.32,837.531 2101.56,837.513 2103.8,837.494 2106.05,837.476 2108.29,837.458 2110.53,837.44 2112.77,837.423 2115.02,837.405 2117.26,837.388 2119.5,837.371 2121.75,837.355 2123.99,837.338 2126.23,837.322 2128.47,837.306 2130.72,837.291 2132.96,837.275 2135.2,837.26 2137.45,837.245 2139.69,837.231 2141.93,837.216 2144.17,837.202 2146.42,837.188 2148.66,837.174 2150.9,837.161 2153.14,837.147 2155.39,837.134 2157.63,837.121 2159.87,837.109 2162.12,837.096 2164.36,837.084 2166.6,837.072 2168.84,837.06 2171.09,837.048 2173.33,837.036 2175.57,837.025 2177.82,837.014 2180.06,837.002 2182.3,836.991 2184.54,836.981 2186.79,836.97 2189.03,836.959 2191.27,836.949 2193.52,836.939 2195.76,836.928 2198,836.918 2200.24,836.908 2202.49,836.898 2204.73,836.889 2206.97,836.879 2209.22,836.869 2211.46,836.859 2213.7,836.85 2215.94,836.84 2218.19,836.83 2220.43,836.821 2222.67,836.811 2224.92,836.802 2227.16,836.792 2229.4,836.782 2231.64,836.772 2233.89,836.763 2236.13,836.753 2238.37,836.743 2240.61,836.733 2242.86,836.723 2245.1,836.713 2247.34,836.702 2249.59,836.692 2251.83,836.681 2254.07,836.67 2256.31,836.659 2258.56,836.649 2260.8,836.638 2263.04,836.628 2265.29,836.617 2267.53,836.607 2269.77,836.597 2272.01,836.587 2274.26,836.577 2276.5,836.568 2278.74,836.558 2280.99,836.548 2283.23,836.539 2285.47,836.53 2287.71,836.52 2289.96,836.511 2292.2,836.502 2294.44,836.493 2296.69,836.485 2298.93,836.476 2301.17,836.467 2303.41,836.459 2305.66,836.45 2307.9,836.442 2310.14,836.434 2312.39,836.425 2314.63,836.417 2316.87,836.409 2319.11,836.401 2321.36,836.394 2323.6,836.386 2325.84,836.378 2328.08,836.371 2330.33,836.363 2332.57,836.356 2334.81,836.348 2337.06,836.341 2339.3,836.334 2341.54,836.327 2343.78,836.32 2346.03,836.313 2348.27,836.306 2350.51,836.299 2352.76,836.292 "/>
<polyline clip-path="url(#clip141)" style="stroke:#e26f46; stroke-linecap:round; stroke-linejoin:round; stroke-width:24; stroke-opacity:1; fill:none" points="112.177,1384.24 114.42,1358.53 116.663,1333.97 118.906,1310.54 121.148,1288.19 123.391,1266.87 125.634,1246.56 127.877,1227.22 130.12,1208.79 132.363,1191.26 134.605,1174.58 136.848,1158.71 139.091,1143.62 141.334,1129.27 143.577,1115.64 145.819,1102.68 148.062,1090.36 150.305,1078.66 152.548,1067.54 154.791,1056.98 157.034,1046.95 159.276,1037.42 161.519,1028.36 163.762,1019.76 166.005,1011.58 168.248,1003.82 170.491,996.436 172.733,989.423 174.976,982.758 177.219,976.422 179.462,970.398 181.705,964.671 183.947,959.225 186.19,954.046 188.433,949.119 190.676,944.432 192.919,939.972 195.162,935.727 197.404,931.685 199.647,927.836 201.89,924.169 204.133,920.675 206.376,917.345 208.619,914.171 210.861,911.145 213.104,908.26 215.347,905.506 217.59,902.878 219.833,900.369 222.075,897.973 224.318,895.682 226.561,893.492 228.804,891.397 231.047,889.392 233.29,887.473 235.532,885.635 237.775,883.875 240.018,882.187 242.261,880.569 244.504,879.017 246.746,877.526 248.989,876.094 251.232,874.717 253.475,873.393 255.718,872.117 257.961,870.888 260.203,869.703 262.446,868.56 264.689,867.456 266.932,866.389 269.175,865.357 271.418,864.36 273.66,863.394 275.903,862.458 278.146,861.551 280.389,860.671 282.632,859.816 284.874,858.984 287.117,858.175 289.36,857.387 291.603,856.618 293.846,855.868 296.089,855.135 298.331,854.418 300.574,853.716 302.817,853.029 305.06,852.355 307.303,851.694 309.545,851.045 311.788,850.407 314.031,849.78 316.274,849.163 318.517,848.556 320.76,847.957 323.002,847.367 325.245,846.784 327.488,846.208 329.731,845.638 331.974,845.074 334.217,844.515 336.459,843.961 338.702,843.412 340.945,842.866 343.188,842.323 345.431,841.784 347.673,841.248 349.916,840.714 352.159,840.183 354.402,839.653 356.645,839.126 358.888,838.601 361.13,838.077 363.373,837.554 365.616,837.032 367.859,836.511 370.102,835.99 372.344,835.47 374.587,834.95 376.83,834.43 379.073,833.91 381.316,833.389 383.559,832.868 385.801,832.345 388.044,831.822 390.287,831.297 392.53,830.771 394.773,830.243 397.016,829.714 399.258,829.182 401.501,828.65 403.744,828.115 405.987,827.578 408.23,827.039 410.472,826.498 412.715,825.955 414.958,825.41 417.201,824.863 419.444,824.313 421.687,823.761 423.929,823.206 426.172,822.649 428.415,822.089 430.658,821.526 432.901,820.961 435.143,820.393 437.386,819.822 439.629,819.248 441.872,818.671 444.115,818.09 446.358,817.507 448.6,816.92 450.843,816.33 453.086,815.736 455.329,815.139 457.572,814.538 459.815,813.934 462.057,813.326 464.3,812.714 466.543,812.099 468.786,811.48 471.029,810.858 473.271,810.231 475.514,809.601 477.757,808.968 480,808.33 482.243,807.689 484.486,807.044 486.728,806.395 488.971,805.742 491.214,805.085 493.457,804.424 495.7,803.76 497.942,803.091 500.185,802.418 502.428,801.742 504.671,801.061 506.914,800.376 509.157,799.687 511.399,798.994 513.642,798.296 515.885,797.595 518.128,796.889 520.371,796.179 522.614,795.464 524.856,794.746 527.099,794.022 529.342,793.295 531.585,792.563 533.828,791.826 536.07,791.085 538.313,790.34 540.556,789.59 542.799,788.835 545.042,788.076 547.285,787.313 549.527,786.545 551.77,785.773 554.013,784.996 556.256,784.214 558.499,783.428 560.741,782.638 562.984,781.842 565.227,781.042 567.47,780.237 569.713,779.428 571.956,778.614 574.198,777.795 576.441,776.972 578.684,776.144 580.927,775.311 583.17,774.473 585.413,773.63 587.655,772.783 589.898,771.931 592.141,771.074 594.384,770.212 596.627,769.345 598.869,768.474 601.112,767.597 603.355,766.716 605.598,765.83 607.841,764.939 610.084,764.043 612.326,763.143 614.569,762.237 616.812,761.327 619.055,760.411 621.298,759.491 623.54,758.566 625.783,757.636 628.026,756.701 630.269,755.761 632.512,754.816 634.755,753.867 636.997,752.912 639.24,751.953 641.483,750.989 643.726,750.02 645.969,749.046 648.212,748.068 650.454,747.086 652.697,746.099 654.94,745.107 657.183,744.11 659.426,743.109 661.668,742.103 663.911,741.093 666.154,740.077 668.397,739.056 670.64,738.031 672.883,737.001 675.125,735.965 677.368,734.925 679.611,733.88 681.854,732.829 684.097,731.774 686.339,730.713 688.582,729.647 690.825,728.577 693.068,727.501 695.311,726.42 697.554,725.333 699.796,724.242 702.039,723.146 704.282,722.044 706.525,720.938 708.768,719.826 711.011,718.709 713.253,717.588 715.496,716.461 717.739,715.329 719.982,714.192 722.225,713.05 724.467,711.904 726.71,710.752 728.953,709.596 731.196,708.434 733.439,707.268 735.682,706.098 737.924,704.922 740.167,703.742 742.41,702.558 744.653,701.369 746.896,700.175 749.138,698.977 751.381,697.775 753.624,696.568 755.867,695.357 758.11,694.143 760.353,692.924 762.595,691.701 764.838,690.474 767.081,689.243 769.324,688.009 771.567,686.771 773.81,685.529 776.052,684.285 778.295,683.036 780.538,681.785 782.781,680.529 785.024,679.271 787.266,678.008 789.509,676.742 791.752,675.473 793.995,674.199 796.238,672.922 798.481,671.642 800.723,670.357 802.966,669.069 805.209,667.777 807.452,666.481 809.695,665.182 811.938,663.879 814.18,662.572 816.423,661.261 818.666,659.947 820.909,658.629 823.152,657.307 825.394,655.982 827.637,654.654 829.88,653.321 832.123,651.986 834.366,650.646 836.609,649.304 838.851,647.958 841.094,646.608 843.337,645.255 845.58,643.9 847.823,642.54 850.065,641.178 852.308,639.813 854.551,638.445 856.794,637.074 859.037,635.7 861.28,634.323 863.522,632.944 865.765,631.562 868.008,630.178 870.251,628.791 872.494,627.402 874.737,626.011 876.979,624.618 879.222,623.222 881.465,621.825 883.708,620.426 885.951,619.026 888.193,617.624 890.436,616.22 892.679,614.815 894.922,613.409 897.165,612.002 899.408,610.594 901.65,609.186 903.893,607.776 906.136,606.367 908.379,604.956 910.622,603.545 912.864,602.133 915.107,600.721 917.35,599.307 919.593,597.893 921.836,596.478 924.079,595.062 926.321,593.645 928.564,592.227 930.807,590.808 933.05,589.388 935.293,587.967 937.536,586.546 939.778,585.123 942.021,583.7 944.264,582.275 946.507,580.85 948.75,579.424 950.992,577.997 953.235,576.569 955.478,575.141 957.721,573.711 959.964,572.282 962.207,570.851 964.449,569.42 966.692,567.989 968.935,566.557 971.178,565.124 973.421,563.692 975.663,562.259 977.906,560.826 980.149,559.393 982.392,557.96 984.635,556.527 986.878,555.095 989.12,553.662 991.363,552.231 993.606,550.8 995.849,549.369 998.092,547.939 1000.33,546.511 1002.58,545.083 1004.82,543.657 1007.06,542.231 1009.31,540.808 1011.55,539.386 1013.79,537.966 1016.03,536.547 1018.28,535.131 1020.52,533.717 1022.76,532.306 1025.01,530.897 1027.25,529.491 1029.49,528.088 1031.73,526.688 1033.98,525.291 1036.22,523.898 1038.46,522.509 1040.71,521.122 1042.95,519.738 1045.19,518.357 1047.43,516.979 1049.68,515.603 1051.92,514.231 1054.16,512.861 1056.41,511.493 1058.65,510.128 1060.89,508.766 1063.13,507.406 1065.38,506.049 1067.62,504.694 1069.86,503.342 1072.1,501.992 1074.35,500.645 1076.59,499.3 1078.83,497.957 1081.08,496.617 1083.32,495.28 1085.56,493.944 1087.8,492.612 1090.05,491.282 1092.29,489.954 1094.53,488.629 1096.78,487.306 1099.02,485.987 1101.26,484.669 1103.5,483.355 1105.75,482.043 1107.99,480.734 1110.23,479.428 1112.48,478.125 1114.72,476.825 1116.96,475.528 1119.2,474.234 1121.45,472.944 1123.69,471.656 1125.93,470.372 1128.18,469.092 1130.42,467.815 1132.66,466.542 1134.9,465.272 1137.15,464.007 1139.39,462.745 1141.63,461.488 1143.88,460.234 1146.12,458.985 1148.36,457.741 1150.6,456.501 1152.85,455.265 1155.09,454.035 1157.33,452.81 1159.57,451.589 1161.82,450.374 1164.06,449.165 1166.3,447.961 1168.55,446.763 1170.79,445.57 1173.03,444.384 1175.27,443.203 1177.52,442.028 1179.76,440.857 1182,439.692 1184.25,438.532 1186.49,437.377 1188.73,436.227 1190.97,435.082 1193.22,433.941 1195.46,432.805 1197.7,431.674 1199.95,430.548 1202.19,429.426 1204.43,428.308 1206.67,427.195 1208.92,426.087 1211.16,424.982 1213.4,423.882 1215.65,422.787 1217.89,421.695 1220.13,420.608 1222.37,419.525 1224.62,418.447 1226.86,417.372 1229.1,416.302 1231.35,415.236 1233.59,414.174 1235.83,413.116 1238.07,412.063 1240.32,411.013 1242.56,409.968 1244.8,408.927 1247.04,407.89 1249.29,406.858 1251.53,405.829 1253.77,404.805 1256.02,403.786 1258.26,402.771 1260.5,401.76 1262.74,400.753 1264.99,399.751 1267.23,398.754 1269.47,397.761 1271.72,396.773 1273.96,395.79 1276.2,394.811 1278.44,393.838 1280.69,392.869 1282.93,391.905 1285.17,390.946 1287.42,389.993 1289.66,389.044 1291.9,388.101 1294.14,387.164 1296.39,386.232 1298.63,385.305 1300.87,384.385 1303.12,383.47 1305.36,382.561 1307.6,381.658 1309.84,380.761 1312.09,379.871 1314.33,378.987 1316.57,378.11 1318.82,377.238 1321.06,376.372 1323.3,375.512 1325.54,374.657 1327.79,373.807 1330.03,372.963 1332.27,372.123 1334.51,371.289 1336.76,370.46 1339,369.635 1341.24,368.816 1343.49,368.001 1345.73,367.191 1347.97,366.386 1350.21,365.585 1352.46,364.789 1354.7,363.998 1356.94,363.21 1359.19,362.428 1361.43,361.649 1363.67,360.875 1365.91,360.105 1368.16,359.34 1370.4,358.579 1372.64,357.821 1374.89,357.068 1377.13,356.319 1379.37,355.575 1381.61,354.834 1383.86,354.097 1386.1,353.365 1388.34,352.636 1390.59,351.911 1392.83,351.191 1395.07,350.474 1397.31,349.761 1399.56,349.053 1401.8,348.348 1404.04,347.647 1406.29,346.95 1408.53,346.258 1410.77,345.569 1413.01,344.885 1415.26,344.204 1417.5,343.527 1419.74,342.855 1421.98,342.187 1424.23,341.523 1426.47,340.863 1428.71,340.207 1430.96,339.556 1433.2,338.908 1435.44,338.266 1437.68,337.627 1439.93,336.993 1442.17,336.363 1444.41,335.738 1446.66,335.118 1448.9,334.502 1451.14,333.891 1453.38,333.284 1455.63,332.683 1457.87,332.086 1460.11,331.494 1462.36,330.908 1464.6,330.326 1466.84,329.75 1469.08,329.178 1471.33,328.612 1473.57,328.05 1475.81,327.492 1478.06,326.938 1480.3,326.389 1482.54,325.844 1484.78,325.303 1487.03,324.766 1489.27,324.233 1491.51,323.704 1493.76,323.178 1496,322.657 1498.24,322.139 1500.48,321.625 1502.73,321.114 1504.97,320.607 1507.21,320.103 1509.46,319.603 1511.7,319.106 1513.94,318.613 1516.18,318.123 1518.43,317.636 1520.67,317.153 1522.91,316.672 1525.15,316.195 1527.4,315.721 1529.64,315.25 1531.88,314.782 1534.13,314.317 1536.37,313.856 1538.61,313.397 1540.85,312.941 1543.1,312.488 1545.34,312.038 1547.58,311.591 1549.83,311.146 1552.07,310.705 1554.31,310.266 1556.55,309.831 1558.8,309.398 1561.04,308.968 1563.28,308.54 1565.53,308.116 1567.77,307.694 1570.01,307.276 1572.25,306.86 1574.5,306.446 1576.74,306.036 1578.98,305.628 1581.23,305.224 1583.47,304.822 1585.71,304.423 1587.95,304.027 1590.2,303.634 1592.44,303.243 1594.68,302.856 1596.93,302.471 1599.17,302.09 1601.41,301.711 1603.65,301.336 1605.9,300.963 1608.14,300.594 1610.38,300.227 1612.62,299.864 1614.87,299.504 1617.11,299.147 1619.35,298.794 1621.6,298.443 1623.84,298.096 1626.08,297.753 1628.32,297.412 1630.57,297.075 1632.81,296.742 1635.05,296.412 1637.3,296.086 1639.54,295.762 1641.78,295.442 1644.02,295.124 1646.27,294.809 1648.51,294.496 1650.75,294.186 1653,293.879 1655.24,293.575 1657.48,293.273 1659.72,292.973 1661.97,292.676 1664.21,292.381 1666.45,292.089 1668.7,291.799 1670.94,291.511 1673.18,291.226 1675.42,290.942 1677.67,290.661 1679.91,290.382 1682.15,290.105 1684.4,289.83 1686.64,289.558 1688.88,289.287 1691.12,289.018 1693.37,288.751 1695.61,288.486 1697.85,288.223 1700.09,287.961 1702.34,287.702 1704.58,287.444 1706.82,287.189 1709.07,286.935 1711.31,286.682 1713.55,286.432 1715.79,286.183 1718.04,285.936 1720.28,285.69 1722.52,285.447 1724.77,285.205 1727.01,284.964 1729.25,284.726 1731.49,284.488 1733.74,284.253 1735.98,284.019 1738.22,283.787 1740.47,283.556 1742.71,283.327 1744.95,283.1 1747.19,282.874 1749.44,282.649 1751.68,282.427 1753.92,282.206 1756.17,281.986 1758.41,281.769 1760.65,281.552 1762.89,281.338 1765.14,281.125 1767.38,280.913 1769.62,280.704 1771.87,280.496 1774.11,280.289 1776.35,280.085 1778.59,279.882 1780.84,279.68 1783.08,279.481 1785.32,279.283 1787.56,279.087 1789.81,278.893 1792.05,278.7 1794.29,278.51 1796.54,278.321 1798.78,278.134 1801.02,277.949 1803.26,277.766 1805.51,277.585 1807.75,277.405 1809.99,277.228 1812.24,277.053 1814.48,276.88 1816.72,276.709 1818.96,276.54 1821.21,276.373 1823.45,276.208 1825.69,276.045 1827.94,275.883 1830.18,275.723 1832.42,275.564 1834.66,275.407 1836.91,275.252 1839.15,275.098 1841.39,274.945 1843.64,274.794 1845.88,274.644 1848.12,274.496 1850.36,274.349 1852.61,274.203 1854.85,274.058 1857.09,273.914 1859.34,273.772 1861.58,273.631 1863.82,273.491 1866.06,273.352 1868.31,273.215 1870.55,273.078 1872.79,272.942 1875.03,272.808 1877.28,272.674 1879.52,272.541 1881.76,272.41 1884.01,272.279 1886.25,272.149 1888.49,272.02 1890.73,271.892 1892.98,271.765 1895.22,271.639 1897.46,271.513 1899.71,271.389 1901.95,271.265 1904.19,271.142 1906.43,271.02 1908.68,270.898 1910.92,270.778 1913.16,270.658 1915.41,270.539 1917.65,270.42 1919.89,270.303 1922.13,270.186 1924.38,270.07 1926.62,269.954 1928.86,269.84 1931.11,269.726 1933.35,269.612 1935.59,269.5 1937.83,269.388 1940.08,269.277 1942.32,269.167 1944.56,269.057 1946.81,268.948 1949.05,268.84 1951.29,268.732 1953.53,268.626 1955.78,268.52 1958.02,268.414 1960.26,268.31 1962.5,268.206 1964.75,268.103 1966.99,268.001 1969.23,267.9 1971.48,267.799 1973.72,267.7 1975.96,267.601 1978.2,267.503 1980.45,267.405 1982.69,267.309 1984.93,267.214 1987.18,267.119 1989.42,267.025 1991.66,266.933 1993.9,266.841 1996.15,266.75 1998.39,266.661 2000.63,266.572 2002.88,266.484 2005.12,266.398 2007.36,266.312 2009.6,266.228 2011.85,266.145 2014.09,266.062 2016.33,265.982 2018.58,265.902 2020.82,265.823 2023.06,265.746 2025.3,265.67 2027.55,265.596 2029.79,265.522 2032.03,265.45 2034.28,265.378 2036.52,265.308 2038.76,265.238 2041,265.17 2043.25,265.102 2045.49,265.035 2047.73,264.969 2049.97,264.903 2052.22,264.839 2054.46,264.775 2056.7,264.711 2058.95,264.649 2061.19,264.587 2063.43,264.525 2065.67,264.464 2067.92,264.404 2070.16,264.344 2072.4,264.285 2074.65,264.226 2076.89,264.168 2079.13,264.11 2081.37,264.052 2083.62,263.995 2085.86,263.938 2088.1,263.881 2090.35,263.825 2092.59,263.769 2094.83,263.714 2097.07,263.658 2099.32,263.603 2101.56,263.549 2103.8,263.494 2106.05,263.44 2108.29,263.386 2110.53,263.332 2112.77,263.278 2115.02,263.224 2117.26,263.171 2119.5,263.118 2121.75,263.065 2123.99,263.012 2126.23,262.959 2128.47,262.907 2130.72,262.854 2132.96,262.802 2135.2,262.75 2137.45,262.697 2139.69,262.646 2141.93,262.594 2144.17,262.542 2146.42,262.491 2148.66,262.439 2150.9,262.388 2153.14,262.337 2155.39,262.286 2157.63,262.235 2159.87,262.184 2162.12,262.134 2164.36,262.083 2166.6,262.033 2168.84,261.983 2171.09,261.934 2173.33,261.884 2175.57,261.835 2177.82,261.786 2180.06,261.737 2182.3,261.688 2184.54,261.64 2186.79,261.592 2189.03,261.544 2191.27,261.497 2193.52,261.45 2195.76,261.403 2198,261.357 2200.24,261.311 2202.49,261.266 2204.73,261.221 2206.97,261.176 2209.22,261.132 2211.46,261.088 2213.7,261.045 2215.94,261.003 2218.19,260.961 2220.43,260.92 2222.67,260.879 2224.92,260.839 2227.16,260.8 2229.4,260.761 2231.64,260.724 2233.89,260.687 2236.13,260.65 2238.37,260.615 2240.61,260.581 2242.86,260.547 2245.1,260.515 2247.34,260.483 2249.59,260.453 2251.83,260.423 2254.07,260.395 2256.31,260.367 2258.56,260.339 2260.8,260.312 2263.04,260.284 2265.29,260.257 2267.53,260.23 2269.77,260.203 2272.01,260.177 2274.26,260.15 2276.5,260.123 2278.74,260.097 2280.99,260.071 2283.23,260.045 2285.47,260.019 2287.71,259.994 2289.96,259.968 2292.2,259.943 2294.44,259.918 2296.69,259.892 2298.93,259.868 2301.17,259.843 2303.41,259.818 2305.66,259.794 2307.9,259.77 2310.14,259.746 2312.39,259.722 2314.63,259.698 2316.87,259.674 2319.11,259.651 2321.36,259.627 2323.6,259.604 2325.84,259.581 2328.08,259.559 2330.33,259.536 2332.57,259.514 2334.81,259.491 2337.06,259.469 2339.3,259.447 2341.54,259.425 2343.78,259.404 2346.03,259.382 2348.27,259.361 2350.51,259.34 2352.76,259.319 "/>
<circle clip-path="url(#clip141)" cx="112.177" cy="709.568" r="21.6" fill="#009af9" fill-rule="evenodd" fill-opacity="0.7" stroke="#000000" stroke-opacity="0.7" stroke-width="3.2"/>
<circle clip-path="url(#clip141)" cx="230.102" cy="1073.19" r="21.6" fill="#009af9" fill-rule="evenodd" fill-opacity="0.7" stroke="#000000" stroke-opacity="0.7" stroke-width="3.2"/>
<circle clip-path="url(#clip141)" cx="348.028" cy="1057.57" r="21.6" fill="#009af9" fill-rule="evenodd" fill-opacity="0.7" stroke="#000000" stroke-opacity="0.7" stroke-width="3.2"/>
<circle clip-path="url(#clip141)" cx="465.953" cy="1098.1" r="21.6" fill="#009af9" fill-rule="evenodd" fill-opacity="0.7" stroke="#000000" stroke-opacity="0.7" stroke-width="3.2"/>
<circle clip-path="url(#clip141)" cx="583.878" cy="1106.41" r="21.6" fill="#009af9" fill-rule="evenodd" fill-opacity="0.7" stroke="#000000" stroke-opacity="0.7" stroke-width="3.2"/>
<circle clip-path="url(#clip141)" cx="701.803" cy="975.918" r="21.6" fill="#009af9" fill-rule="evenodd" fill-opacity="0.7" stroke="#000000" stroke-opacity="0.7" stroke-width="3.2"/>
<circle clip-path="url(#clip141)" cx="819.728" cy="1008.13" r="21.6" fill="#009af9" fill-rule="evenodd" fill-opacity="0.7" stroke="#000000" stroke-opacity="0.7" stroke-width="3.2"/>
<circle clip-path="url(#clip141)" cx="937.654" cy="945.74" r="21.6" fill="#009af9" fill-rule="evenodd" fill-opacity="0.7" stroke="#000000" stroke-opacity="0.7" stroke-width="3.2"/>
<circle clip-path="url(#clip141)" cx="1055.58" cy="963.156" r="21.6" fill="#009af9" fill-rule="evenodd" fill-opacity="0.7" stroke="#000000" stroke-opacity="0.7" stroke-width="3.2"/>
<circle clip-path="url(#clip141)" cx="1173.5" cy="876.279" r="21.6" fill="#009af9" fill-rule="evenodd" fill-opacity="0.7" stroke="#000000" stroke-opacity="0.7" stroke-width="3.2"/>
<circle clip-path="url(#clip141)" cx="1291.43" cy="906.482" r="21.6" fill="#009af9" fill-rule="evenodd" fill-opacity="0.7" stroke="#000000" stroke-opacity="0.7" stroke-width="3.2"/>
<circle clip-path="url(#clip141)" cx="1409.35" cy="805.859" r="21.6" fill="#009af9" fill-rule="evenodd" fill-opacity="0.7" stroke="#000000" stroke-opacity="0.7" stroke-width="3.2"/>
<circle clip-path="url(#clip141)" cx="1527.28" cy="856.523" r="21.6" fill="#009af9" fill-rule="evenodd" fill-opacity="0.7" stroke="#000000" stroke-opacity="0.7" stroke-width="3.2"/>
<circle clip-path="url(#clip141)" cx="1645.2" cy="862.14" r="21.6" fill="#009af9" fill-rule="evenodd" fill-opacity="0.7" stroke="#000000" stroke-opacity="0.7" stroke-width="3.2"/>
<circle clip-path="url(#clip141)" cx="1763.13" cy="790.908" r="21.6" fill="#009af9" fill-rule="evenodd" fill-opacity="0.7" stroke="#000000" stroke-opacity="0.7" stroke-width="3.2"/>
<circle clip-path="url(#clip141)" cx="1881.06" cy="775.679" r="21.6" fill="#009af9" fill-rule="evenodd" fill-opacity="0.7" stroke="#000000" stroke-opacity="0.7" stroke-width="3.2"/>
<circle clip-path="url(#clip141)" cx="1998.98" cy="832.252" r="21.6" fill="#009af9" fill-rule="evenodd" fill-opacity="0.7" stroke="#000000" stroke-opacity="0.7" stroke-width="3.2"/>
<circle clip-path="url(#clip141)" cx="2116.91" cy="918.44" r="21.6" fill="#009af9" fill-rule="evenodd" fill-opacity="0.7" stroke="#000000" stroke-opacity="0.7" stroke-width="3.2"/>
<circle clip-path="url(#clip141)" cx="2234.83" cy="883.281" r="21.6" fill="#009af9" fill-rule="evenodd" fill-opacity="0.7" stroke="#000000" stroke-opacity="0.7" stroke-width="3.2"/>
<circle clip-path="url(#clip141)" cx="2352.76" cy="947.02" r="21.6" fill="#009af9" fill-rule="evenodd" fill-opacity="0.7" stroke="#000000" stroke-opacity="0.7" stroke-width="3.2"/>
<circle clip-path="url(#clip141)" cx="112.177" cy="1380.82" r="21.6" fill="#e26f46" fill-rule="evenodd" fill-opacity="0.7" stroke="#000000" stroke-opacity="0.7" stroke-width="3.2"/>
<circle clip-path="url(#clip141)" cx="230.102" cy="965.314" r="21.6" fill="#e26f46" fill-rule="evenodd" fill-opacity="0.7" stroke="#000000" stroke-opacity="0.7" stroke-width="3.2"/>
<circle clip-path="url(#clip141)" cx="348.028" cy="727.079" r="21.6" fill="#e26f46" fill-rule="evenodd" fill-opacity="0.7" stroke="#000000" stroke-opacity="0.7" stroke-width="3.2"/>
<circle clip-path="url(#clip141)" cx="465.953" cy="734.01" r="21.6" fill="#e26f46" fill-rule="evenodd" fill-opacity="0.7" stroke="#000000" stroke-opacity="0.7" stroke-width="3.2"/>
<circle clip-path="url(#clip141)" cx="583.878" cy="739.891" r="21.6" fill="#e26f46" fill-rule="evenodd" fill-opacity="0.7" stroke="#000000" stroke-opacity="0.7" stroke-width="3.2"/>
<circle clip-path="url(#clip141)" cx="701.803" cy="710.956" r="21.6" fill="#e26f46" fill-rule="evenodd" fill-opacity="0.7" stroke="#000000" stroke-opacity="0.7" stroke-width="3.2"/>
<circle clip-path="url(#clip141)" cx="819.728" cy="803.797" r="21.6" fill="#e26f46" fill-rule="evenodd" fill-opacity="0.7" stroke="#000000" stroke-opacity="0.7" stroke-width="3.2"/>
<circle clip-path="url(#clip141)" cx="937.654" cy="748.936" r="21.6" fill="#e26f46" fill-rule="evenodd" fill-opacity="0.7" stroke="#000000" stroke-opacity="0.7" stroke-width="3.2"/>
<circle clip-path="url(#clip141)" cx="1055.58" cy="432.29" r="21.6" fill="#e26f46" fill-rule="evenodd" fill-opacity="0.7" stroke="#000000" stroke-opacity="0.7" stroke-width="3.2"/>
<circle clip-path="url(#clip141)" cx="1173.5" cy="421.439" r="21.6" fill="#e26f46" fill-rule="evenodd" fill-opacity="0.7" stroke="#000000" stroke-opacity="0.7" stroke-width="3.2"/>
<circle clip-path="url(#clip141)" cx="1291.43" cy="254.528" r="21.6" fill="#e26f46" fill-rule="evenodd" fill-opacity="0.7" stroke="#000000" stroke-opacity="0.7" stroke-width="3.2"/>
<circle clip-path="url(#clip141)" cx="1409.35" cy="411.135" r="21.6" fill="#e26f46" fill-rule="evenodd" fill-opacity="0.7" stroke="#000000" stroke-opacity="0.7" stroke-width="3.2"/>
<circle clip-path="url(#clip141)" cx="1527.28" cy="188.351" r="21.6" fill="#e26f46" fill-rule="evenodd" fill-opacity="0.7" stroke="#000000" stroke-opacity="0.7" stroke-width="3.2"/>
<circle clip-path="url(#clip141)" cx="1645.2" cy="105.328" r="21.6" fill="#e26f46" fill-rule="evenodd" fill-opacity="0.7" stroke="#000000" stroke-opacity="0.7" stroke-width="3.2"/>
<circle clip-path="url(#clip141)" cx="1763.13" cy="429.98" r="21.6" fill="#e26f46" fill-rule="evenodd" fill-opacity="0.7" stroke="#000000" stroke-opacity="0.7" stroke-width="3.2"/>
<circle clip-path="url(#clip141)" cx="1881.06" cy="364.586" r="21.6" fill="#e26f46" fill-rule="evenodd" fill-opacity="0.7" stroke="#000000" stroke-opacity="0.7" stroke-width="3.2"/>
<circle clip-path="url(#clip141)" cx="1998.98" cy="216.903" r="21.6" fill="#e26f46" fill-rule="evenodd" fill-opacity="0.7" stroke="#000000" stroke-opacity="0.7" stroke-width="3.2"/>
<circle clip-path="url(#clip141)" cx="2116.91" cy="254.376" r="21.6" fill="#e26f46" fill-rule="evenodd" fill-opacity="0.7" stroke="#000000" stroke-opacity="0.7" stroke-width="3.2"/>
<circle clip-path="url(#clip141)" cx="2234.83" cy="86.1857" r="21.6" fill="#e26f46" fill-rule="evenodd" fill-opacity="0.7" stroke="#000000" stroke-opacity="0.7" stroke-width="3.2"/>
<circle clip-path="url(#clip141)" cx="2352.76" cy="311.983" r="21.6" fill="#e26f46" fill-rule="evenodd" fill-opacity="0.7" stroke="#000000" stroke-opacity="0.7" stroke-width="3.2"/>
<path clip-path="url(#clip140)" d="M186.863 352.309 L596.753 352.309 L596.753 93.1086 L186.863 93.1086  Z" fill="#ffffff" fill-rule="evenodd" fill-opacity="1"/>
<polyline clip-path="url(#clip140)" style="stroke:#000000; stroke-linecap:round; stroke-linejoin:round; stroke-width:4; stroke-opacity:1; fill:none" points="186.863,352.309 596.753,352.309 596.753,93.1086 186.863,93.1086 186.863,352.309 "/>
<polyline clip-path="url(#clip140)" style="stroke:#009af9; stroke-linecap:round; stroke-linejoin:round; stroke-width:20; stroke-opacity:1; fill:none" points="211.758,144.949 361.13,144.949 "/>
<path clip-path="url(#clip140)" d="M387.6 127.669 L392.623 127.669 L401.211 140.516 L409.845 127.669 L414.868 127.669 L403.757 144.266 L415.609 162.229 L410.586 162.229 L400.864 147.53 L391.072 162.229 L386.026 162.229 L398.364 143.78 L387.6 127.669 Z" fill="#000000" fill-rule="nonzero" fill-opacity="1" /><polyline clip-path="url(#clip140)" style="stroke:#e26f46; stroke-linecap:round; stroke-linejoin:round; stroke-width:20; stroke-opacity:1; fill:none" points="211.758,196.789 361.13,196.789 "/>
<path clip-path="url(#clip140)" d="M386.026 179.509 L391.049 179.509 L400.632 193.722 L410.146 179.509 L415.169 179.509 L402.947 197.61 L402.947 214.069 L398.248 214.069 L398.248 197.61 L386.026 179.509 Z" fill="#000000" fill-rule="nonzero" fill-opacity="1" /><circle clip-path="url(#clip140)" cx="286.444" cy="248.629" r="21.2677" fill="#009af9" fill-rule="evenodd" fill-opacity="0.7" stroke="#000000" stroke-opacity="0.7" stroke-width="3.15077"/>
<path clip-path="url(#clip140)" d="M387.6 231.349 L392.623 231.349 L401.211 244.196 L409.845 231.349 L414.868 231.349 L403.757 247.946 L415.609 265.909 L410.586 265.909 L400.864 251.21 L391.072 265.909 L386.026 265.909 L398.364 247.46 L387.6 231.349 Z" fill="#000000" fill-rule="nonzero" fill-opacity="1" /><path clip-path="url(#clip140)" d="M446.859 229.937 Q443.757 235.261 442.252 240.469 Q440.748 245.677 440.748 251.024 Q440.748 256.372 442.252 261.626 Q443.78 266.858 446.859 272.159 L443.155 272.159 Q439.683 266.719 437.947 261.464 Q436.234 256.21 436.234 251.024 Q436.234 245.862 437.947 240.631 Q439.66 235.4 443.155 229.937 L446.859 229.937 Z" fill="#000000" fill-rule="nonzero" fill-opacity="1" /><path clip-path="url(#clip140)" d="M472.183 243.918 L472.183 229.89 L476.442 229.89 L476.442 265.909 L472.183 265.909 L472.183 262.02 Q470.84 264.335 468.78 265.469 Q466.743 266.58 463.872 266.58 Q459.173 266.58 456.21 262.83 Q453.271 259.08 453.271 252.969 Q453.271 246.858 456.21 243.108 Q459.173 239.358 463.872 239.358 Q466.743 239.358 468.78 240.492 Q470.84 241.603 472.183 243.918 M457.669 252.969 Q457.669 257.668 459.59 260.353 Q461.535 263.015 464.914 263.015 Q468.294 263.015 470.238 260.353 Q472.183 257.668 472.183 252.969 Q472.183 248.27 470.238 245.608 Q468.294 242.923 464.914 242.923 Q461.535 242.923 459.59 245.608 Q457.669 248.27 457.669 252.969 Z" fill="#000000" fill-rule="nonzero" fill-opacity="1" /><path clip-path="url(#clip140)" d="M496.997 252.876 Q491.835 252.876 489.845 254.057 Q487.854 255.237 487.854 258.085 Q487.854 260.353 489.335 261.696 Q490.84 263.015 493.409 263.015 Q496.951 263.015 499.081 260.515 Q501.233 257.992 501.233 253.825 L501.233 252.876 L496.997 252.876 M505.493 251.117 L505.493 265.909 L501.233 265.909 L501.233 261.973 Q499.775 264.335 497.599 265.469 Q495.423 266.58 492.275 266.58 Q488.294 266.58 485.933 264.358 Q483.595 262.112 483.595 258.362 Q483.595 253.987 486.511 251.765 Q489.451 249.543 495.261 249.543 L501.233 249.543 L501.233 249.126 Q501.233 246.187 499.289 244.589 Q497.368 242.969 493.872 242.969 Q491.65 242.969 489.544 243.501 Q487.437 244.034 485.493 245.099 L485.493 241.163 Q487.831 240.261 490.03 239.821 Q492.229 239.358 494.312 239.358 Q499.937 239.358 502.715 242.274 Q505.493 245.191 505.493 251.117 Z" fill="#000000" fill-rule="nonzero" fill-opacity="1" /><path clip-path="url(#clip140)" d="M518.479 232.622 L518.479 239.983 L527.252 239.983 L527.252 243.293 L518.479 243.293 L518.479 257.367 Q518.479 260.538 519.335 261.441 Q520.215 262.344 522.877 262.344 L527.252 262.344 L527.252 265.909 L522.877 265.909 Q517.946 265.909 516.071 264.08 Q514.196 262.228 514.196 257.367 L514.196 243.293 L511.071 243.293 L511.071 239.983 L514.196 239.983 L514.196 232.622 L518.479 232.622 Z" fill="#000000" fill-rule="nonzero" fill-opacity="1" /><path clip-path="url(#clip140)" d="M544.636 252.876 Q539.474 252.876 537.483 254.057 Q535.492 255.237 535.492 258.085 Q535.492 260.353 536.974 261.696 Q538.479 263.015 541.048 263.015 Q544.59 263.015 546.719 260.515 Q548.872 257.992 548.872 253.825 L548.872 252.876 L544.636 252.876 M553.131 251.117 L553.131 265.909 L548.872 265.909 L548.872 261.973 Q547.414 264.335 545.238 265.469 Q543.062 266.58 539.914 266.58 Q535.932 266.58 533.571 264.358 Q531.233 262.112 531.233 258.362 Q531.233 253.987 534.15 251.765 Q537.09 249.543 542.9 249.543 L548.872 249.543 L548.872 249.126 Q548.872 246.187 546.928 244.589 Q545.006 242.969 541.511 242.969 Q539.289 242.969 537.182 243.501 Q535.076 244.034 533.131 245.099 L533.131 241.163 Q535.469 240.261 537.668 239.821 Q539.867 239.358 541.951 239.358 Q547.576 239.358 550.354 242.274 Q553.131 245.191 553.131 251.117 Z" fill="#000000" fill-rule="nonzero" fill-opacity="1" /><path clip-path="url(#clip140)" d="M561.233 229.937 L564.937 229.937 Q568.409 235.4 570.122 240.631 Q571.858 245.862 571.858 251.024 Q571.858 256.21 570.122 261.464 Q568.409 266.719 564.937 272.159 L561.233 272.159 Q564.312 266.858 565.816 261.626 Q567.344 256.372 567.344 251.024 Q567.344 245.677 565.816 240.469 Q564.312 235.261 561.233 229.937 Z" fill="#000000" fill-rule="nonzero" fill-opacity="1" /><circle clip-path="url(#clip140)" cx="286.444" cy="300.469" r="21.2677" fill="#e26f46" fill-rule="evenodd" fill-opacity="0.7" stroke="#000000" stroke-opacity="0.7" stroke-width="3.15077"/>
<path clip-path="url(#clip140)" d="M386.026 283.189 L391.049 283.189 L400.632 297.402 L410.146 283.189 L415.169 283.189 L402.947 301.29 L402.947 317.749 L398.248 317.749 L398.248 301.29 L386.026 283.189 Z" fill="#000000" fill-rule="nonzero" fill-opacity="1" /><path clip-path="url(#clip140)" d="M444.845 281.777 Q441.743 287.101 440.238 292.309 Q438.734 297.517 438.734 302.864 Q438.734 308.212 440.238 313.466 Q441.766 318.698 444.845 323.999 L441.141 323.999 Q437.669 318.559 435.933 313.304 Q434.22 308.05 434.22 302.864 Q434.22 297.702 435.933 292.471 Q437.646 287.24 441.141 281.777 L444.845 281.777 Z" fill="#000000" fill-rule="nonzero" fill-opacity="1" /><path clip-path="url(#clip140)" d="M470.169 295.758 L470.169 281.73 L474.428 281.73 L474.428 317.749 L470.169 317.749 L470.169 313.86 Q468.826 316.175 466.766 317.309 Q464.729 318.42 461.859 318.42 Q457.16 318.42 454.197 314.67 Q451.257 310.92 451.257 304.809 Q451.257 298.698 454.197 294.948 Q457.16 291.198 461.859 291.198 Q464.729 291.198 466.766 292.332 Q468.826 293.443 470.169 295.758 M455.655 304.809 Q455.655 309.508 457.576 312.193 Q459.521 314.855 462.9 314.855 Q466.28 314.855 468.224 312.193 Q470.169 309.508 470.169 304.809 Q470.169 300.11 468.224 297.448 Q466.28 294.763 462.9 294.763 Q459.521 294.763 457.576 297.448 Q455.655 300.11 455.655 304.809 Z" fill="#000000" fill-rule="nonzero" fill-opacity="1" /><path clip-path="url(#clip140)" d="M494.983 304.716 Q489.821 304.716 487.831 305.897 Q485.84 307.077 485.84 309.925 Q485.84 312.193 487.321 313.536 Q488.826 314.855 491.395 314.855 Q494.937 314.855 497.067 312.355 Q499.22 309.832 499.22 305.665 L499.22 304.716 L494.983 304.716 M503.479 302.957 L503.479 317.749 L499.22 317.749 L499.22 313.813 Q497.761 316.175 495.585 317.309 Q493.409 318.42 490.261 318.42 Q486.28 318.42 483.919 316.198 Q481.581 313.952 481.581 310.202 Q481.581 305.827 484.497 303.605 Q487.437 301.383 493.247 301.383 L499.22 301.383 L499.22 300.966 Q499.22 298.027 497.275 296.429 Q495.354 294.809 491.858 294.809 Q489.636 294.809 487.53 295.341 Q485.423 295.874 483.479 296.939 L483.479 293.003 Q485.817 292.101 488.016 291.661 Q490.215 291.198 492.298 291.198 Q497.923 291.198 500.701 294.114 Q503.479 297.031 503.479 302.957 Z" fill="#000000" fill-rule="nonzero" fill-opacity="1" /><path clip-path="url(#clip140)" d="M516.465 284.462 L516.465 291.823 L525.238 291.823 L525.238 295.133 L516.465 295.133 L516.465 309.207 Q516.465 312.378 517.321 313.281 Q518.201 314.184 520.863 314.184 L525.238 314.184 L525.238 317.749 L520.863 317.749 Q515.932 317.749 514.057 315.92 Q512.182 314.068 512.182 309.207 L512.182 295.133 L509.057 295.133 L509.057 291.823 L512.182 291.823 L512.182 284.462 L516.465 284.462 Z" fill="#000000" fill-rule="nonzero" fill-opacity="1" /><path clip-path="url(#clip140)" d="M542.622 304.716 Q537.46 304.716 535.469 305.897 Q533.479 307.077 533.479 309.925 Q533.479 312.193 534.96 313.536 Q536.465 314.855 539.034 314.855 Q542.576 314.855 544.705 312.355 Q546.858 309.832 546.858 305.665 L546.858 304.716 L542.622 304.716 M551.117 302.957 L551.117 317.749 L546.858 317.749 L546.858 313.813 Q545.4 316.175 543.224 317.309 Q541.048 318.42 537.9 318.42 Q533.918 318.42 531.557 316.198 Q529.219 313.952 529.219 310.202 Q529.219 305.827 532.136 303.605 Q535.076 301.383 540.886 301.383 L546.858 301.383 L546.858 300.966 Q546.858 298.027 544.914 296.429 Q542.992 294.809 539.497 294.809 Q537.275 294.809 535.168 295.341 Q533.062 295.874 531.118 296.939 L531.118 293.003 Q533.455 292.101 535.655 291.661 Q537.854 291.198 539.937 291.198 Q545.562 291.198 548.34 294.114 Q551.117 297.031 551.117 302.957 Z" fill="#000000" fill-rule="nonzero" fill-opacity="1" /><path clip-path="url(#clip140)" d="M559.219 281.777 L562.923 281.777 Q566.395 287.24 568.108 292.471 Q569.844 297.702 569.844 302.864 Q569.844 308.05 568.108 313.304 Q566.395 318.559 562.923 323.999 L559.219 323.999 Q562.298 318.698 563.803 313.466 Q565.33 308.212 565.33 302.864 Q565.33 297.517 563.803 292.309 Q562.298 287.101 559.219 281.777 Z" fill="#000000" fill-rule="nonzero" fill-opacity="1" /></svg>
