<?xml version="1.0" encoding="utf-8"?>
<svg xmlns="http://www.w3.org/2000/svg" xmlns:xlink="http://www.w3.org/1999/xlink" width="600" height="400" viewBox="0 0 2400 1600">
<defs>
  <clipPath id="clip260">
    <rect x="0" y="0" width="2400" height="1600"/>
  </clipPath>
</defs>
<path clip-path="url(#clip260)" d="M0 1600 L2400 1600 L2400 0 L0 0  Z" fill="#ffffff" fill-rule="evenodd" fill-opacity="1"/>
<defs>
  <clipPath id="clip261">
    <rect x="480" y="0" width="1681" height="1600"/>
  </clipPath>
</defs>
<path clip-path="url(#clip260)" d="M141.853 1486.45 L2352.76 1486.45 L2352.76 47.2441 L141.853 47.2441  Z" fill="#ffffff" fill-rule="evenodd" fill-opacity="1"/>
<defs>
  <clipPath id="clip262">
    <rect x="141" y="47" width="2212" height="1440"/>
  </clipPath>
</defs>
<polyline clip-path="url(#clip262)" style="stroke:#000000; stroke-linecap:round; stroke-linejoin:round; stroke-width:2; stroke-opacity:0.1; fill:none" points="204.426,1486.45 204.426,47.2441 "/>
<polyline clip-path="url(#clip262)" style="stroke:#000000; stroke-linecap:round; stroke-linejoin:round; stroke-width:2; stroke-opacity:0.1; fill:none" points="725.865,1486.45 725.865,47.2441 "/>
<polyline clip-path="url(#clip262)" style="stroke:#000000; stroke-linecap:round; stroke-linejoin:round; stroke-width:2; stroke-opacity:0.1; fill:none" points="1247.3,1486.45 1247.3,47.2441 "/>
<polyline clip-path="url(#clip262)" style="stroke:#000000; stroke-linecap:round; stroke-linejoin:round; stroke-width:2; stroke-opacity:0.1; fill:none" points="1768.74,1486.45 1768.74,47.2441 "/>
<polyline clip-path="url(#clip262)" style="stroke:#000000; stroke-linecap:round; stroke-linejoin:round; stroke-width:2; stroke-opacity:0.1; fill:none" points="2290.18,1486.45 2290.18,47.2441 "/>
<polyline clip-path="url(#clip262)" style="stroke:#000000; stroke-linecap:round; stroke-linejoin:round; stroke-width:2; stroke-opacity:0.1; fill:none" points="141.853,1445.72 2352.76,1445.72 "/>
<polyline clip-path="url(#clip262)" style="stroke:#000000; stroke-linecap:round; stroke-linejoin:round; stroke-width:2; stroke-opacity:0.1; fill:none" points="141.853,1154.72 2352.76,1154.72 "/>
<polyline clip-path="url(#clip262)" style="stroke:#000000; stroke-linecap:round; stroke-linejoin:round; stroke-width:2; stroke-opacity:0.1; fill:none" points="141.853,863.724 2352.76,863.724 "/>
<polyline clip-path="url(#clip262)" style="stroke:#000000; stroke-linecap:round; stroke-linejoin:round; stroke-width:2; stroke-opacity:0.1; fill:none" points="141.853,572.729 2352.76,572.729 "/>
<polyline clip-path="url(#clip262)" style="stroke:#000000; stroke-linecap:round; stroke-linejoin:round; stroke-width:2; stroke-opacity:0.1; fill:none" points="141.853,281.733 2352.76,281.733 "/>
<polyline clip-path="url(#clip260)" style="stroke:#000000; stroke-linecap:round; stroke-linejoin:round; stroke-width:4; stroke-opacity:1; fill:none" points="141.853,1486.45 2352.76,1486.45 "/>
<polyline clip-path="url(#clip260)" style="stroke:#000000; stroke-linecap:round; stroke-linejoin:round; stroke-width:4; stroke-opacity:1; fill:none" points="204.426,1486.45 204.426,1467.55 "/>
<polyline clip-path="url(#clip260)" style="stroke:#000000; stroke-linecap:round; stroke-linejoin:round; stroke-width:4; stroke-opacity:1; fill:none" points="725.865,1486.45 725.865,1467.55 "/>
<polyline clip-path="url(#clip260)" style="stroke:#000000; stroke-linecap:round; stroke-linejoin:round; stroke-width:4; stroke-opacity:1; fill:none" points="1247.3,1486.45 1247.3,1467.55 "/>
<polyline clip-path="url(#clip260)" style="stroke:#000000; stroke-linecap:round; stroke-linejoin:round; stroke-width:4; stroke-opacity:1; fill:none" points="1768.74,1486.45 1768.74,1467.55 "/>
<polyline clip-path="url(#clip260)" style="stroke:#000000; stroke-linecap:round; stroke-linejoin:round; stroke-width:4; stroke-opacity:1; fill:none" points="2290.18,1486.45 2290.18,1467.55 "/>
<path clip-path="url(#clip260)" d="M151.648 1517.37 Q148.037 1517.37 146.208 1520.93 Q144.403 1524.47 144.403 1531.6 Q144.403 1538.71 146.208 1542.27 Q148.037 1545.82 151.648 1545.82 Q155.282 1545.82 157.088 1542.27 Q158.917 1538.71 158.917 1531.6 Q158.917 1524.47 157.088 1520.93 Q155.282 1517.37 151.648 1517.37 M151.648 1513.66 Q157.458 1513.66 160.514 1518.27 Q163.593 1522.85 163.593 1531.6 Q163.593 1540.33 160.514 1544.94 Q157.458 1549.52 151.648 1549.52 Q145.838 1549.52 142.759 1544.94 Q139.704 1540.33 139.704 1531.6 Q139.704 1522.85 142.759 1518.27 Q145.838 1513.66 151.648 1513.66 Z" fill="#000000" fill-rule="nonzero" fill-opacity="1" /><path clip-path="url(#clip260)" d="M171.81 1542.97 L176.694 1542.97 L176.694 1548.85 L171.81 1548.85 L171.81 1542.97 Z" fill="#000000" fill-rule="nonzero" fill-opacity="1" /><path clip-path="url(#clip260)" d="M196.879 1517.37 Q193.268 1517.37 191.44 1520.93 Q189.634 1524.47 189.634 1531.6 Q189.634 1538.71 191.44 1542.27 Q193.268 1545.82 196.879 1545.82 Q200.514 1545.82 202.319 1542.27 Q204.148 1538.71 204.148 1531.6 Q204.148 1524.47 202.319 1520.93 Q200.514 1517.37 196.879 1517.37 M196.879 1513.66 Q202.69 1513.66 205.745 1518.27 Q208.824 1522.85 208.824 1531.6 Q208.824 1540.33 205.745 1544.94 Q202.69 1549.52 196.879 1549.52 Q191.069 1549.52 187.991 1544.94 Q184.935 1540.33 184.935 1531.6 Q184.935 1522.85 187.991 1518.27 Q191.069 1513.66 196.879 1513.66 Z" fill="#000000" fill-rule="nonzero" fill-opacity="1" /><path clip-path="url(#clip260)" d="M227.041 1517.37 Q223.43 1517.37 221.602 1520.93 Q219.796 1524.47 219.796 1531.6 Q219.796 1538.71 221.602 1542.27 Q223.43 1545.82 227.041 1545.82 Q230.676 1545.82 232.481 1542.27 Q234.31 1538.71 234.31 1531.6 Q234.31 1524.47 232.481 1520.93 Q230.676 1517.37 227.041 1517.37 M227.041 1513.66 Q232.851 1513.66 235.907 1518.27 Q238.986 1522.85 238.986 1531.6 Q238.986 1540.33 235.907 1544.94 Q232.851 1549.52 227.041 1549.52 Q221.231 1549.52 218.152 1544.94 Q215.097 1540.33 215.097 1531.6 Q215.097 1522.85 218.152 1518.27 Q221.231 1513.66 227.041 1513.66 Z" fill="#000000" fill-rule="nonzero" fill-opacity="1" /><path clip-path="url(#clip260)" d="M257.203 1517.37 Q253.592 1517.37 251.763 1520.93 Q249.958 1524.47 249.958 1531.6 Q249.958 1538.71 251.763 1542.27 Q253.592 1545.82 257.203 1545.82 Q260.837 1545.82 262.643 1542.27 Q264.472 1538.71 264.472 1531.6 Q264.472 1524.47 262.643 1520.93 Q260.837 1517.37 257.203 1517.37 M257.203 1513.66 Q263.013 1513.66 266.069 1518.27 Q269.148 1522.85 269.148 1531.6 Q269.148 1540.33 266.069 1544.94 Q263.013 1549.52 257.203 1549.52 Q251.393 1549.52 248.314 1544.94 Q245.259 1540.33 245.259 1531.6 Q245.259 1522.85 248.314 1518.27 Q251.393 1513.66 257.203 1513.66 Z" fill="#000000" fill-rule="nonzero" fill-opacity="1" /><path clip-path="url(#clip260)" d="M673.585 1517.37 Q669.974 1517.37 668.145 1520.93 Q666.34 1524.47 666.34 1531.6 Q666.34 1538.71 668.145 1542.27 Q669.974 1545.82 673.585 1545.82 Q677.219 1545.82 679.025 1542.27 Q680.854 1538.71 680.854 1531.6 Q680.854 1524.47 679.025 1520.93 Q677.219 1517.37 673.585 1517.37 M673.585 1513.66 Q679.395 1513.66 682.451 1518.27 Q685.53 1522.85 685.53 1531.6 Q685.53 1540.33 682.451 1544.94 Q679.395 1549.52 673.585 1549.52 Q667.775 1549.52 664.696 1544.94 Q661.641 1540.33 661.641 1531.6 Q661.641 1522.85 664.696 1518.27 Q667.775 1513.66 673.585 1513.66 Z" fill="#000000" fill-rule="nonzero" fill-opacity="1" /><path clip-path="url(#clip260)" d="M693.747 1542.97 L698.631 1542.97 L698.631 1548.85 L693.747 1548.85 L693.747 1542.97 Z" fill="#000000" fill-rule="nonzero" fill-opacity="1" /><path clip-path="url(#clip260)" d="M718.816 1517.37 Q715.205 1517.37 713.377 1520.93 Q711.571 1524.47 711.571 1531.6 Q711.571 1538.71 713.377 1542.27 Q715.205 1545.82 718.816 1545.82 Q722.451 1545.82 724.256 1542.27 Q726.085 1538.71 726.085 1531.6 Q726.085 1524.47 724.256 1520.93 Q722.451 1517.37 718.816 1517.37 M718.816 1513.66 Q724.627 1513.66 727.682 1518.27 Q730.761 1522.85 730.761 1531.6 Q730.761 1540.33 727.682 1544.94 Q724.627 1549.52 718.816 1549.52 Q713.006 1549.52 709.928 1544.94 Q706.872 1540.33 706.872 1531.6 Q706.872 1522.85 709.928 1518.27 Q713.006 1513.66 718.816 1513.66 Z" fill="#000000" fill-rule="nonzero" fill-opacity="1" /><path clip-path="url(#clip260)" d="M743.006 1544.91 L759.326 1544.91 L759.326 1548.85 L737.381 1548.85 L737.381 1544.91 Q740.043 1542.16 744.627 1537.53 Q749.233 1532.88 750.414 1531.53 Q752.659 1529.01 753.539 1527.27 Q754.441 1525.51 754.441 1523.82 Q754.441 1521.07 752.497 1519.33 Q750.576 1517.6 747.474 1517.6 Q745.275 1517.6 742.821 1518.36 Q740.39 1519.13 737.613 1520.68 L737.613 1515.95 Q740.437 1514.82 742.89 1514.24 Q745.344 1513.66 747.381 1513.66 Q752.751 1513.66 755.946 1516.35 Q759.14 1519.03 759.14 1523.52 Q759.14 1525.65 758.33 1527.57 Q757.543 1529.47 755.437 1532.07 Q754.858 1532.74 751.756 1535.95 Q748.654 1539.15 743.006 1544.91 Z" fill="#000000" fill-rule="nonzero" fill-opacity="1" /><path clip-path="url(#clip260)" d="M769.187 1514.29 L787.543 1514.29 L787.543 1518.22 L773.469 1518.22 L773.469 1526.7 Q774.487 1526.35 775.506 1526.19 Q776.524 1526 777.543 1526 Q783.33 1526 786.71 1529.17 Q790.089 1532.34 790.089 1537.76 Q790.089 1543.34 786.617 1546.44 Q783.145 1549.52 776.825 1549.52 Q774.65 1549.52 772.381 1549.15 Q770.136 1548.78 767.728 1548.04 L767.728 1543.34 Q769.812 1544.47 772.034 1545.03 Q774.256 1545.58 776.733 1545.58 Q780.737 1545.58 783.075 1543.48 Q785.413 1541.37 785.413 1537.76 Q785.413 1534.15 783.075 1532.04 Q780.737 1529.94 776.733 1529.94 Q774.858 1529.94 772.983 1530.35 Q771.131 1530.77 769.187 1531.65 L769.187 1514.29 Z" fill="#000000" fill-rule="nonzero" fill-opacity="1" /><path clip-path="url(#clip260)" d="M1194.53 1517.37 Q1190.92 1517.37 1189.09 1520.93 Q1187.28 1524.47 1187.28 1531.6 Q1187.28 1538.71 1189.09 1542.27 Q1190.92 1545.82 1194.53 1545.82 Q1198.16 1545.82 1199.97 1542.27 Q1201.8 1538.71 1201.8 1531.6 Q1201.8 1524.47 1199.97 1520.93 Q1198.16 1517.37 1194.53 1517.37 M1194.53 1513.66 Q1200.34 1513.66 1203.39 1518.27 Q1206.47 1522.85 1206.47 1531.6 Q1206.47 1540.33 1203.39 1544.94 Q1200.34 1549.52 1194.53 1549.52 Q1188.72 1549.52 1185.64 1544.94 Q1182.58 1540.33 1182.58 1531.6 Q1182.58 1522.85 1185.64 1518.27 Q1188.72 1513.66 1194.53 1513.66 Z" fill="#000000" fill-rule="nonzero" fill-opacity="1" /><path clip-path="url(#clip260)" d="M1214.69 1542.97 L1219.57 1542.97 L1219.57 1548.85 L1214.69 1548.85 L1214.69 1542.97 Z" fill="#000000" fill-rule="nonzero" fill-opacity="1" /><path clip-path="url(#clip260)" d="M1239.76 1517.37 Q1236.15 1517.37 1234.32 1520.93 Q1232.51 1524.47 1232.51 1531.6 Q1232.51 1538.71 1234.32 1542.27 Q1236.15 1545.82 1239.76 1545.82 Q1243.39 1545.82 1245.2 1542.27 Q1247.03 1538.71 1247.03 1531.6 Q1247.03 1524.47 1245.2 1520.93 Q1243.39 1517.37 1239.76 1517.37 M1239.76 1513.66 Q1245.57 1513.66 1248.62 1518.27 Q1251.7 1522.85 1251.7 1531.6 Q1251.7 1540.33 1248.62 1544.94 Q1245.57 1549.52 1239.76 1549.52 Q1233.95 1549.52 1230.87 1544.94 Q1227.81 1540.33 1227.81 1531.6 Q1227.81 1522.85 1230.87 1518.27 Q1233.95 1513.66 1239.76 1513.66 Z" fill="#000000" fill-rule="nonzero" fill-opacity="1" /><path clip-path="url(#clip260)" d="M1259.97 1514.29 L1278.32 1514.29 L1278.32 1518.22 L1264.25 1518.22 L1264.25 1526.7 Q1265.27 1526.35 1266.29 1526.19 Q1267.3 1526 1268.32 1526 Q1274.11 1526 1277.49 1529.17 Q1280.87 1532.34 1280.87 1537.76 Q1280.87 1543.34 1277.4 1546.44 Q1273.92 1549.52 1267.61 1549.52 Q1265.43 1549.52 1263.16 1549.15 Q1260.92 1548.78 1258.51 1548.04 L1258.51 1543.34 Q1260.59 1544.47 1262.81 1545.03 Q1265.04 1545.58 1267.51 1545.58 Q1271.52 1545.58 1273.86 1543.48 Q1276.19 1541.37 1276.19 1537.76 Q1276.19 1534.15 1273.86 1532.04 Q1271.52 1529.94 1267.51 1529.94 Q1265.64 1529.94 1263.76 1530.35 Q1261.91 1530.77 1259.97 1531.65 L1259.97 1514.29 Z" fill="#000000" fill-rule="nonzero" fill-opacity="1" /><path clip-path="url(#clip260)" d="M1300.08 1517.37 Q1296.47 1517.37 1294.64 1520.93 Q1292.84 1524.47 1292.84 1531.6 Q1292.84 1538.71 1294.64 1542.27 Q1296.47 1545.82 1300.08 1545.82 Q1303.72 1545.82 1305.52 1542.27 Q1307.35 1538.71 1307.35 1531.6 Q1307.35 1524.47 1305.52 1520.93 Q1303.72 1517.37 1300.08 1517.37 M1300.08 1513.66 Q1305.89 1513.66 1308.95 1518.27 Q1312.03 1522.85 1312.03 1531.6 Q1312.03 1540.33 1308.95 1544.94 Q1305.89 1549.52 1300.08 1549.52 Q1294.27 1549.52 1291.19 1544.94 Q1288.14 1540.33 1288.14 1531.6 Q1288.14 1522.85 1291.19 1518.27 Q1294.27 1513.66 1300.08 1513.66 Z" fill="#000000" fill-rule="nonzero" fill-opacity="1" /><path clip-path="url(#clip260)" d="M1716.46 1517.37 Q1712.85 1517.37 1711.02 1520.93 Q1709.22 1524.47 1709.22 1531.6 Q1709.22 1538.71 1711.02 1542.27 Q1712.85 1545.82 1716.46 1545.82 Q1720.1 1545.82 1721.9 1542.27 Q1723.73 1538.71 1723.73 1531.6 Q1723.73 1524.47 1721.9 1520.93 Q1720.1 1517.37 1716.46 1517.37 M1716.46 1513.66 Q1722.27 1513.66 1725.33 1518.27 Q1728.41 1522.85 1728.41 1531.6 Q1728.41 1540.33 1725.33 1544.94 Q1722.27 1549.52 1716.46 1549.52 Q1710.65 1549.52 1707.58 1544.94 Q1704.52 1540.33 1704.52 1531.6 Q1704.52 1522.85 1707.58 1518.27 Q1710.65 1513.66 1716.46 1513.66 Z" fill="#000000" fill-rule="nonzero" fill-opacity="1" /><path clip-path="url(#clip260)" d="M1736.63 1542.97 L1741.51 1542.97 L1741.51 1548.85 L1736.63 1548.85 L1736.63 1542.97 Z" fill="#000000" fill-rule="nonzero" fill-opacity="1" /><path clip-path="url(#clip260)" d="M1761.7 1517.37 Q1758.08 1517.37 1756.26 1520.93 Q1754.45 1524.47 1754.45 1531.6 Q1754.45 1538.71 1756.26 1542.27 Q1758.08 1545.82 1761.7 1545.82 Q1765.33 1545.82 1767.14 1542.27 Q1768.96 1538.71 1768.96 1531.6 Q1768.96 1524.47 1767.14 1520.93 Q1765.33 1517.37 1761.7 1517.37 M1761.7 1513.66 Q1767.51 1513.66 1770.56 1518.27 Q1773.64 1522.85 1773.64 1531.6 Q1773.64 1540.33 1770.56 1544.94 Q1767.51 1549.52 1761.7 1549.52 Q1755.89 1549.52 1752.81 1544.94 Q1749.75 1540.33 1749.75 1531.6 Q1749.75 1522.85 1752.81 1518.27 Q1755.89 1513.66 1761.7 1513.66 Z" fill="#000000" fill-rule="nonzero" fill-opacity="1" /><path clip-path="url(#clip260)" d="M1780.68 1514.29 L1802.9 1514.29 L1802.9 1516.28 L1790.35 1548.85 L1785.47 1548.85 L1797.27 1518.22 L1780.68 1518.22 L1780.68 1514.29 Z" fill="#000000" fill-rule="nonzero" fill-opacity="1" /><path clip-path="url(#clip260)" d="M1812.07 1514.29 L1830.42 1514.29 L1830.42 1518.22 L1816.35 1518.22 L1816.35 1526.7 Q1817.37 1526.35 1818.38 1526.19 Q1819.4 1526 1820.42 1526 Q1826.21 1526 1829.59 1529.17 Q1832.97 1532.34 1832.97 1537.76 Q1832.97 1543.34 1829.5 1546.44 Q1826.02 1549.52 1819.7 1549.52 Q1817.53 1549.52 1815.26 1549.15 Q1813.01 1548.78 1810.61 1548.04 L1810.61 1543.34 Q1812.69 1544.47 1814.91 1545.03 Q1817.13 1545.58 1819.61 1545.58 Q1823.62 1545.58 1825.95 1543.48 Q1828.29 1541.37 1828.29 1537.76 Q1828.29 1534.15 1825.95 1532.04 Q1823.62 1529.94 1819.61 1529.94 Q1817.74 1529.94 1815.86 1530.35 Q1814.01 1530.77 1812.07 1531.65 L1812.07 1514.29 Z" fill="#000000" fill-rule="nonzero" fill-opacity="1" /><path clip-path="url(#clip260)" d="M2237.41 1517.37 Q2233.79 1517.37 2231.97 1520.93 Q2230.16 1524.47 2230.16 1531.6 Q2230.16 1538.71 2231.97 1542.27 Q2233.79 1545.82 2237.41 1545.82 Q2241.04 1545.82 2242.85 1542.27 Q2244.67 1538.71 2244.67 1531.6 Q2244.67 1524.47 2242.85 1520.93 Q2241.04 1517.37 2237.41 1517.37 M2237.41 1513.66 Q2243.22 1513.66 2246.27 1518.27 Q2249.35 1522.85 2249.35 1531.6 Q2249.35 1540.33 2246.27 1544.94 Q2243.22 1549.52 2237.41 1549.52 Q2231.6 1549.52 2228.52 1544.94 Q2225.46 1540.33 2225.46 1531.6 Q2225.46 1522.85 2228.52 1518.27 Q2231.6 1513.66 2237.41 1513.66 Z" fill="#000000" fill-rule="nonzero" fill-opacity="1" /><path clip-path="url(#clip260)" d="M2257.57 1542.97 L2262.45 1542.97 L2262.45 1548.85 L2257.57 1548.85 L2257.57 1542.97 Z" fill="#000000" fill-rule="nonzero" fill-opacity="1" /><path clip-path="url(#clip260)" d="M2273.45 1544.91 L2281.09 1544.91 L2281.09 1518.55 L2272.78 1520.21 L2272.78 1515.95 L2281.04 1514.29 L2285.72 1514.29 L2285.72 1544.91 L2293.35 1544.91 L2293.35 1548.85 L2273.45 1548.85 L2273.45 1544.91 Z" fill="#000000" fill-rule="nonzero" fill-opacity="1" /><path clip-path="url(#clip260)" d="M2312.8 1517.37 Q2309.19 1517.37 2307.36 1520.93 Q2305.55 1524.47 2305.55 1531.6 Q2305.55 1538.71 2307.36 1542.27 Q2309.19 1545.82 2312.8 1545.82 Q2316.43 1545.82 2318.24 1542.27 Q2320.07 1538.71 2320.07 1531.6 Q2320.07 1524.47 2318.24 1520.93 Q2316.43 1517.37 2312.8 1517.37 M2312.8 1513.66 Q2318.61 1513.66 2321.66 1518.27 Q2324.74 1522.85 2324.74 1531.6 Q2324.74 1540.33 2321.66 1544.94 Q2318.61 1549.52 2312.8 1549.52 Q2306.99 1549.52 2303.91 1544.94 Q2300.85 1540.33 2300.85 1531.6 Q2300.85 1522.85 2303.91 1518.27 Q2306.99 1513.66 2312.8 1513.66 Z" fill="#000000" fill-rule="nonzero" fill-opacity="1" /><path clip-path="url(#clip260)" d="M2342.96 1517.37 Q2339.35 1517.37 2337.52 1520.93 Q2335.72 1524.47 2335.72 1531.6 Q2335.72 1538.71 2337.52 1542.27 Q2339.35 1545.82 2342.96 1545.82 Q2346.59 1545.82 2348.4 1542.27 Q2350.23 1538.71 2350.23 1531.6 Q2350.23 1524.47 2348.4 1520.93 Q2346.59 1517.37 2342.96 1517.37 M2342.96 1513.66 Q2348.77 1513.66 2351.83 1518.27 Q2354.91 1522.85 2354.91 1531.6 Q2354.91 1540.33 2351.83 1544.94 Q2348.77 1549.52 2342.96 1549.52 Q2337.15 1549.52 2334.07 1544.94 Q2331.02 1540.33 2331.02 1531.6 Q2331.02 1522.85 2334.07 1518.27 Q2337.15 1513.66 2342.96 1513.66 Z" fill="#000000" fill-rule="nonzero" fill-opacity="1" /><polyline clip-path="url(#clip260)" style="stroke:#000000; stroke-linecap:round; stroke-linejoin:round; stroke-width:4; stroke-opacity:1; fill:none" points="141.853,1486.45 141.853,47.2441 "/>
<polyline clip-path="url(#clip260)" style="stroke:#000000; stroke-linecap:round; stroke-linejoin:round; stroke-width:4; stroke-opacity:1; fill:none" points="141.853,1445.72 160.751,1445.72 "/>
<polyline clip-path="url(#clip260)" style="stroke:#000000; stroke-linecap:round; stroke-linejoin:round; stroke-width:4; stroke-opacity:1; fill:none" points="141.853,1154.72 160.751,1154.72 "/>
<polyline clip-path="url(#clip260)" style="stroke:#000000; stroke-linecap:round; stroke-linejoin:round; stroke-width:4; stroke-opacity:1; fill:none" points="141.853,863.724 160.751,863.724 "/>
<polyline clip-path="url(#clip260)" style="stroke:#000000; stroke-linecap:round; stroke-linejoin:round; stroke-width:4; stroke-opacity:1; fill:none" points="141.853,572.729 160.751,572.729 "/>
<polyline clip-path="url(#clip260)" style="stroke:#000000; stroke-linecap:round; stroke-linejoin:round; stroke-width:4; stroke-opacity:1; fill:none" points="141.853,281.733 160.751,281.733 "/>
<path clip-path="url(#clip260)" d="M93.9086 1431.51 Q90.2975 1431.51 88.4688 1435.08 Q86.6632 1438.62 86.6632 1445.75 Q86.6632 1452.86 88.4688 1456.42 Q90.2975 1459.96 93.9086 1459.96 Q97.5428 1459.96 99.3483 1456.42 Q101.177 1452.86 101.177 1445.75 Q101.177 1438.62 99.3483 1435.08 Q97.5428 1431.51 93.9086 1431.51 M93.9086 1427.81 Q99.7187 1427.81 102.774 1432.42 Q105.853 1437 105.853 1445.75 Q105.853 1454.48 102.774 1459.08 Q99.7187 1463.67 93.9086 1463.67 Q88.0984 1463.67 85.0197 1459.08 Q81.9642 1454.48 81.9642 1445.75 Q81.9642 1437 85.0197 1432.42 Q88.0984 1427.81 93.9086 1427.81 Z" fill="#000000" fill-rule="nonzero" fill-opacity="1" /><path clip-path="url(#clip260)" d="M54.5569 1168.06 L62.1958 1168.06 L62.1958 1141.7 L53.8856 1143.37 L53.8856 1139.11 L62.1495 1137.44 L66.8254 1137.44 L66.8254 1168.06 L74.4642 1168.06 L74.4642 1172 L54.5569 1172 L54.5569 1168.06 Z" fill="#000000" fill-rule="nonzero" fill-opacity="1" /><path clip-path="url(#clip260)" d="M93.9086 1140.52 Q90.2975 1140.52 88.4688 1144.08 Q86.6632 1147.63 86.6632 1154.75 Q86.6632 1161.86 88.4688 1165.43 Q90.2975 1168.97 93.9086 1168.97 Q97.5428 1168.97 99.3483 1165.43 Q101.177 1161.86 101.177 1154.75 Q101.177 1147.63 99.3483 1144.08 Q97.5428 1140.52 93.9086 1140.52 M93.9086 1136.82 Q99.7187 1136.82 102.774 1141.42 Q105.853 1146 105.853 1154.75 Q105.853 1163.48 102.774 1168.09 Q99.7187 1172.67 93.9086 1172.67 Q88.0984 1172.67 85.0197 1168.09 Q81.9642 1163.48 81.9642 1154.75 Q81.9642 1146 85.0197 1141.42 Q88.0984 1136.82 93.9086 1136.82 Z" fill="#000000" fill-rule="nonzero" fill-opacity="1" /><path clip-path="url(#clip260)" d="M57.7745 877.069 L74.0939 877.069 L74.0939 881.004 L52.1495 881.004 L52.1495 877.069 Q54.8115 874.315 59.3949 869.685 Q64.0013 865.032 65.1819 863.69 Q67.4272 861.167 68.3068 859.43 Q69.2096 857.671 69.2096 855.981 Q69.2096 853.227 67.2652 851.491 Q65.3439 849.755 62.2421 849.755 Q60.043 849.755 57.5893 850.518 Q55.1588 851.282 52.381 852.833 L52.381 848.111 Q55.2051 846.977 57.6588 846.398 Q60.1124 845.819 62.1495 845.819 Q67.5198 845.819 70.7142 848.505 Q73.9087 851.19 73.9087 855.681 Q73.9087 857.81 73.0985 859.731 Q72.3115 861.63 70.205 864.222 Q69.6263 864.893 66.5245 868.111 Q63.4226 871.305 57.7745 877.069 Z" fill="#000000" fill-rule="nonzero" fill-opacity="1" /><path clip-path="url(#clip260)" d="M93.9086 849.523 Q90.2975 849.523 88.4688 853.088 Q86.6632 856.63 86.6632 863.759 Q86.6632 870.866 88.4688 874.43 Q90.2975 877.972 93.9086 877.972 Q97.5428 877.972 99.3483 874.43 Q101.177 870.866 101.177 863.759 Q101.177 856.63 99.3483 853.088 Q97.5428 849.523 93.9086 849.523 M93.9086 845.819 Q99.7187 845.819 102.774 850.426 Q105.853 855.009 105.853 863.759 Q105.853 872.486 102.774 877.092 Q99.7187 881.676 93.9086 881.676 Q88.0984 881.676 85.0197 877.092 Q81.9642 872.486 81.9642 863.759 Q81.9642 855.009 85.0197 850.426 Q88.0984 845.819 93.9086 845.819 Z" fill="#000000" fill-rule="nonzero" fill-opacity="1" /><path clip-path="url(#clip260)" d="M67.9133 571.375 Q71.2698 572.092 73.1448 574.361 Q75.0429 576.629 75.0429 579.963 Q75.0429 585.078 71.5244 587.879 Q68.0059 590.68 61.5245 590.68 Q59.3486 590.68 57.0338 590.24 Q54.7421 589.824 52.2884 588.967 L52.2884 584.453 Q54.2328 585.588 56.5477 586.166 Q58.8625 586.745 61.3856 586.745 Q65.7837 586.745 68.0754 585.009 Q70.3902 583.273 70.3902 579.963 Q70.3902 576.907 68.2374 575.194 Q66.1078 573.458 62.2884 573.458 L58.2606 573.458 L58.2606 569.615 L62.4735 569.615 Q65.9226 569.615 67.7513 568.25 Q69.58 566.861 69.58 564.268 Q69.58 561.606 67.6819 560.194 Q65.8069 558.759 62.2884 558.759 Q60.3671 558.759 58.168 559.176 Q55.969 559.592 53.3301 560.472 L53.3301 556.305 Q55.9921 555.565 58.3069 555.194 Q60.6449 554.824 62.705 554.824 Q68.0291 554.824 71.1309 557.254 Q74.2327 559.662 74.2327 563.782 Q74.2327 566.652 72.5892 568.643 Q70.9457 570.611 67.9133 571.375 Z" fill="#000000" fill-rule="nonzero" fill-opacity="1" /><path clip-path="url(#clip260)" d="M93.9086 558.528 Q90.2975 558.528 88.4688 562.092 Q86.6632 565.634 86.6632 572.764 Q86.6632 579.87 88.4688 583.435 Q90.2975 586.976 93.9086 586.976 Q97.5428 586.976 99.3483 583.435 Q101.177 579.87 101.177 572.764 Q101.177 565.634 99.3483 562.092 Q97.5428 558.528 93.9086 558.528 M93.9086 554.824 Q99.7187 554.824 102.774 559.43 Q105.853 564.014 105.853 572.764 Q105.853 581.49 102.774 586.097 Q99.7187 590.68 93.9086 590.68 Q88.0984 590.68 85.0197 586.097 Q81.9642 581.49 81.9642 572.764 Q81.9642 564.014 85.0197 559.43 Q88.0984 554.824 93.9086 554.824 Z" fill="#000000" fill-rule="nonzero" fill-opacity="1" /><path clip-path="url(#clip260)" d="M66.5939 268.527 L54.7884 286.976 L66.5939 286.976 L66.5939 268.527 M65.367 264.453 L71.2466 264.453 L71.2466 286.976 L76.1772 286.976 L76.1772 290.865 L71.2466 290.865 L71.2466 299.013 L66.5939 299.013 L66.5939 290.865 L50.9921 290.865 L50.9921 286.351 L65.367 264.453 Z" fill="#000000" fill-rule="nonzero" fill-opacity="1" /><path clip-path="url(#clip260)" d="M93.9086 267.532 Q90.2975 267.532 88.4688 271.097 Q86.6632 274.638 86.6632 281.768 Q86.6632 288.874 88.4688 292.439 Q90.2975 295.981 93.9086 295.981 Q97.5428 295.981 99.3483 292.439 Q101.177 288.874 101.177 281.768 Q101.177 274.638 99.3483 271.097 Q97.5428 267.532 93.9086 267.532 M93.9086 263.828 Q99.7187 263.828 102.774 268.435 Q105.853 273.018 105.853 281.768 Q105.853 290.495 102.774 295.101 Q99.7187 299.684 93.9086 299.684 Q88.0984 299.684 85.0197 295.101 Q81.9642 290.495 81.9642 281.768 Q81.9642 273.018 85.0197 268.435 Q88.0984 263.828 93.9086 263.828 Z" fill="#000000" fill-rule="nonzero" fill-opacity="1" /><circle clip-path="url(#clip262)" cx="204.426" cy="1445.72" r="14.4" fill="#009af9" fill-rule="evenodd" fill-opacity="1" stroke="#000000" stroke-opacity="1" stroke-width="3.2"/>
<circle clip-path="url(#clip262)" cx="225.283" cy="1269.94" r="14.4" fill="#009af9" fill-rule="evenodd" fill-opacity="1" stroke="#000000" stroke-opacity="1" stroke-width="3.2"/>
<circle clip-path="url(#clip262)" cx="246.141" cy="1114.27" r="14.4" fill="#009af9" fill-rule="evenodd" fill-opacity="1" stroke="#000000" stroke-opacity="1" stroke-width="3.2"/>
<circle clip-path="url(#clip262)" cx="266.998" cy="984.846" r="14.4" fill="#009af9" fill-rule="evenodd" fill-opacity="1" stroke="#000000" stroke-opacity="1" stroke-width="3.2"/>
<circle clip-path="url(#clip262)" cx="287.856" cy="884.053" r="14.4" fill="#009af9" fill-rule="evenodd" fill-opacity="1" stroke="#000000" stroke-opacity="1" stroke-width="3.2"/>
<circle clip-path="url(#clip262)" cx="308.714" cy="811.695" r="14.4" fill="#009af9" fill-rule="evenodd" fill-opacity="1" stroke="#000000" stroke-opacity="1" stroke-width="3.2"/>
<circle clip-path="url(#clip262)" cx="329.571" cy="766.008" r="14.4" fill="#009af9" fill-rule="evenodd" fill-opacity="1" stroke="#000000" stroke-opacity="1" stroke-width="3.2"/>
<circle clip-path="url(#clip262)" cx="350.429" cy="744.297" r="14.4" fill="#009af9" fill-rule="evenodd" fill-opacity="1" stroke="#000000" stroke-opacity="1" stroke-width="3.2"/>
<circle clip-path="url(#clip262)" cx="371.286" cy="743.298" r="14.4" fill="#009af9" fill-rule="evenodd" fill-opacity="1" stroke="#000000" stroke-opacity="1" stroke-width="3.2"/>
<circle clip-path="url(#clip262)" cx="392.144" cy="759.36" r="14.4" fill="#009af9" fill-rule="evenodd" fill-opacity="1" stroke="#000000" stroke-opacity="1" stroke-width="3.2"/>
<circle clip-path="url(#clip262)" cx="413.001" cy="788.552" r="14.4" fill="#009af9" fill-rule="evenodd" fill-opacity="1" stroke="#000000" stroke-opacity="1" stroke-width="3.2"/>
<circle clip-path="url(#clip262)" cx="433.859" cy="826.777" r="14.4" fill="#009af9" fill-rule="evenodd" fill-opacity="1" stroke="#000000" stroke-opacity="1" stroke-width="3.2"/>
<circle clip-path="url(#clip262)" cx="454.717" cy="869.933" r="14.4" fill="#009af9" fill-rule="evenodd" fill-opacity="1" stroke="#000000" stroke-opacity="1" stroke-width="3.2"/>
<circle clip-path="url(#clip262)" cx="475.574" cy="914.143" r="14.4" fill="#009af9" fill-rule="evenodd" fill-opacity="1" stroke="#000000" stroke-opacity="1" stroke-width="3.2"/>
<circle clip-path="url(#clip262)" cx="496.432" cy="956.015" r="14.4" fill="#009af9" fill-rule="evenodd" fill-opacity="1" stroke="#000000" stroke-opacity="1" stroke-width="3.2"/>
<circle clip-path="url(#clip262)" cx="517.289" cy="992.881" r="14.4" fill="#009af9" fill-rule="evenodd" fill-opacity="1" stroke="#000000" stroke-opacity="1" stroke-width="3.2"/>
<circle clip-path="url(#clip262)" cx="538.147" cy="1022.96" r="14.4" fill="#009af9" fill-rule="evenodd" fill-opacity="1" stroke="#000000" stroke-opacity="1" stroke-width="3.2"/>
<circle clip-path="url(#clip262)" cx="559.004" cy="1045.37" r="14.4" fill="#009af9" fill-rule="evenodd" fill-opacity="1" stroke="#000000" stroke-opacity="1" stroke-width="3.2"/>
<circle clip-path="url(#clip262)" cx="579.862" cy="1060.06" r="14.4" fill="#009af9" fill-rule="evenodd" fill-opacity="1" stroke="#000000" stroke-opacity="1" stroke-width="3.2"/>
<circle clip-path="url(#clip262)" cx="600.72" cy="1067.6" r="14.4" fill="#009af9" fill-rule="evenodd" fill-opacity="1" stroke="#000000" stroke-opacity="1" stroke-width="3.2"/>
<circle clip-path="url(#clip262)" cx="621.577" cy="1068.94" r="14.4" fill="#009af9" fill-rule="evenodd" fill-opacity="1" stroke="#000000" stroke-opacity="1" stroke-width="3.2"/>
<circle clip-path="url(#clip262)" cx="642.435" cy="1065.21" r="14.4" fill="#009af9" fill-rule="evenodd" fill-opacity="1" stroke="#000000" stroke-opacity="1" stroke-width="3.2"/>
<circle clip-path="url(#clip262)" cx="663.292" cy="1057.55" r="14.4" fill="#009af9" fill-rule="evenodd" fill-opacity="1" stroke="#000000" stroke-opacity="1" stroke-width="3.2"/>
<circle clip-path="url(#clip262)" cx="684.15" cy="1046.96" r="14.4" fill="#009af9" fill-rule="evenodd" fill-opacity="1" stroke="#000000" stroke-opacity="1" stroke-width="3.2"/>
<circle clip-path="url(#clip262)" cx="705.007" cy="1034.31" r="14.4" fill="#009af9" fill-rule="evenodd" fill-opacity="1" stroke="#000000" stroke-opacity="1" stroke-width="3.2"/>
<circle clip-path="url(#clip262)" cx="725.865" cy="1020.25" r="14.4" fill="#009af9" fill-rule="evenodd" fill-opacity="1" stroke="#000000" stroke-opacity="1" stroke-width="3.2"/>
<circle clip-path="url(#clip262)" cx="746.723" cy="1005.29" r="14.4" fill="#009af9" fill-rule="evenodd" fill-opacity="1" stroke="#000000" stroke-opacity="1" stroke-width="3.2"/>
<circle clip-path="url(#clip262)" cx="767.58" cy="989.785" r="14.4" fill="#009af9" fill-rule="evenodd" fill-opacity="1" stroke="#000000" stroke-opacity="1" stroke-width="3.2"/>
<circle clip-path="url(#clip262)" cx="788.438" cy="973.982" r="14.4" fill="#009af9" fill-rule="evenodd" fill-opacity="1" stroke="#000000" stroke-opacity="1" stroke-width="3.2"/>
<circle clip-path="url(#clip262)" cx="809.295" cy="958.047" r="14.4" fill="#009af9" fill-rule="evenodd" fill-opacity="1" stroke="#000000" stroke-opacity="1" stroke-width="3.2"/>
<circle clip-path="url(#clip262)" cx="830.153" cy="942.085" r="14.4" fill="#009af9" fill-rule="evenodd" fill-opacity="1" stroke="#000000" stroke-opacity="1" stroke-width="3.2"/>
<circle clip-path="url(#clip262)" cx="851.01" cy="926.163" r="14.4" fill="#009af9" fill-rule="evenodd" fill-opacity="1" stroke="#000000" stroke-opacity="1" stroke-width="3.2"/>
<circle clip-path="url(#clip262)" cx="871.868" cy="910.323" r="14.4" fill="#009af9" fill-rule="evenodd" fill-opacity="1" stroke="#000000" stroke-opacity="1" stroke-width="3.2"/>
<circle clip-path="url(#clip262)" cx="892.726" cy="894.588" r="14.4" fill="#009af9" fill-rule="evenodd" fill-opacity="1" stroke="#000000" stroke-opacity="1" stroke-width="3.2"/>
<circle clip-path="url(#clip262)" cx="913.583" cy="878.973" r="14.4" fill="#009af9" fill-rule="evenodd" fill-opacity="1" stroke="#000000" stroke-opacity="1" stroke-width="3.2"/>
<circle clip-path="url(#clip262)" cx="934.441" cy="863.485" r="14.4" fill="#009af9" fill-rule="evenodd" fill-opacity="1" stroke="#000000" stroke-opacity="1" stroke-width="3.2"/>
<circle clip-path="url(#clip262)" cx="955.298" cy="848.128" r="14.4" fill="#009af9" fill-rule="evenodd" fill-opacity="1" stroke="#000000" stroke-opacity="1" stroke-width="3.2"/>
<circle clip-path="url(#clip262)" cx="976.156" cy="832.904" r="14.4" fill="#009af9" fill-rule="evenodd" fill-opacity="1" stroke="#000000" stroke-opacity="1" stroke-width="3.2"/>
<circle clip-path="url(#clip262)" cx="997.014" cy="817.815" r="14.4" fill="#009af9" fill-rule="evenodd" fill-opacity="1" stroke="#000000" stroke-opacity="1" stroke-width="3.2"/>
<circle clip-path="url(#clip262)" cx="1017.87" cy="802.86" r="14.4" fill="#009af9" fill-rule="evenodd" fill-opacity="1" stroke="#000000" stroke-opacity="1" stroke-width="3.2"/>
<circle clip-path="url(#clip262)" cx="1038.73" cy="788.04" r="14.4" fill="#009af9" fill-rule="evenodd" fill-opacity="1" stroke="#000000" stroke-opacity="1" stroke-width="3.2"/>
<circle clip-path="url(#clip262)" cx="1059.59" cy="773.354" r="14.4" fill="#009af9" fill-rule="evenodd" fill-opacity="1" stroke="#000000" stroke-opacity="1" stroke-width="3.2"/>
<circle clip-path="url(#clip262)" cx="1080.44" cy="758.801" r="14.4" fill="#009af9" fill-rule="evenodd" fill-opacity="1" stroke="#000000" stroke-opacity="1" stroke-width="3.2"/>
<circle clip-path="url(#clip262)" cx="1101.3" cy="744.381" r="14.4" fill="#009af9" fill-rule="evenodd" fill-opacity="1" stroke="#000000" stroke-opacity="1" stroke-width="3.2"/>
<circle clip-path="url(#clip262)" cx="1122.16" cy="730.094" r="14.4" fill="#009af9" fill-rule="evenodd" fill-opacity="1" stroke="#000000" stroke-opacity="1" stroke-width="3.2"/>
<circle clip-path="url(#clip262)" cx="1143.02" cy="715.939" r="14.4" fill="#009af9" fill-rule="evenodd" fill-opacity="1" stroke="#000000" stroke-opacity="1" stroke-width="3.2"/>
<circle clip-path="url(#clip262)" cx="1163.87" cy="701.915" r="14.4" fill="#009af9" fill-rule="evenodd" fill-opacity="1" stroke="#000000" stroke-opacity="1" stroke-width="3.2"/>
<circle clip-path="url(#clip262)" cx="1184.73" cy="688.021" r="14.4" fill="#009af9" fill-rule="evenodd" fill-opacity="1" stroke="#000000" stroke-opacity="1" stroke-width="3.2"/>
<circle clip-path="url(#clip262)" cx="1205.59" cy="674.257" r="14.4" fill="#009af9" fill-rule="evenodd" fill-opacity="1" stroke="#000000" stroke-opacity="1" stroke-width="3.2"/>
<circle clip-path="url(#clip262)" cx="1226.45" cy="660.622" r="14.4" fill="#009af9" fill-rule="evenodd" fill-opacity="1" stroke="#000000" stroke-opacity="1" stroke-width="3.2"/>
<circle clip-path="url(#clip262)" cx="1247.3" cy="647.115" r="14.4" fill="#009af9" fill-rule="evenodd" fill-opacity="1" stroke="#000000" stroke-opacity="1" stroke-width="3.2"/>
<circle clip-path="url(#clip262)" cx="1268.16" cy="633.736" r="14.4" fill="#009af9" fill-rule="evenodd" fill-opacity="1" stroke="#000000" stroke-opacity="1" stroke-width="3.2"/>
<circle clip-path="url(#clip262)" cx="1289.02" cy="620.483" r="14.4" fill="#009af9" fill-rule="evenodd" fill-opacity="1" stroke="#000000" stroke-opacity="1" stroke-width="3.2"/>
<circle clip-path="url(#clip262)" cx="1309.88" cy="607.356" r="14.4" fill="#009af9" fill-rule="evenodd" fill-opacity="1" stroke="#000000" stroke-opacity="1" stroke-width="3.2"/>
<circle clip-path="url(#clip262)" cx="1330.73" cy="594.355" r="14.4" fill="#009af9" fill-rule="evenodd" fill-opacity="1" stroke="#000000" stroke-opacity="1" stroke-width="3.2"/>
<circle clip-path="url(#clip262)" cx="1351.59" cy="581.477" r="14.4" fill="#009af9" fill-rule="evenodd" fill-opacity="1" stroke="#000000" stroke-opacity="1" stroke-width="3.2"/>
<circle clip-path="url(#clip262)" cx="1372.45" cy="568.722" r="14.4" fill="#009af9" fill-rule="evenodd" fill-opacity="1" stroke="#000000" stroke-opacity="1" stroke-width="3.2"/>
<circle clip-path="url(#clip262)" cx="1393.31" cy="556.09" r="14.4" fill="#009af9" fill-rule="evenodd" fill-opacity="1" stroke="#000000" stroke-opacity="1" stroke-width="3.2"/>
<circle clip-path="url(#clip262)" cx="1414.17" cy="543.58" r="14.4" fill="#009af9" fill-rule="evenodd" fill-opacity="1" stroke="#000000" stroke-opacity="1" stroke-width="3.2"/>
<circle clip-path="url(#clip262)" cx="1435.02" cy="531.19" r="14.4" fill="#009af9" fill-rule="evenodd" fill-opacity="1" stroke="#000000" stroke-opacity="1" stroke-width="3.2"/>
<circle clip-path="url(#clip262)" cx="1455.88" cy="518.919" r="14.4" fill="#009af9" fill-rule="evenodd" fill-opacity="1" stroke="#000000" stroke-opacity="1" stroke-width="3.2"/>
<circle clip-path="url(#clip262)" cx="1476.74" cy="506.768" r="14.4" fill="#009af9" fill-rule="evenodd" fill-opacity="1" stroke="#000000" stroke-opacity="1" stroke-width="3.2"/>
<circle clip-path="url(#clip262)" cx="1497.6" cy="494.734" r="14.4" fill="#009af9" fill-rule="evenodd" fill-opacity="1" stroke="#000000" stroke-opacity="1" stroke-width="3.2"/>
<circle clip-path="url(#clip262)" cx="1518.45" cy="482.817" r="14.4" fill="#009af9" fill-rule="evenodd" fill-opacity="1" stroke="#000000" stroke-opacity="1" stroke-width="3.2"/>
<circle clip-path="url(#clip262)" cx="1539.31" cy="471.016" r="14.4" fill="#009af9" fill-rule="evenodd" fill-opacity="1" stroke="#000000" stroke-opacity="1" stroke-width="3.2"/>
<circle clip-path="url(#clip262)" cx="1560.17" cy="459.33" r="14.4" fill="#009af9" fill-rule="evenodd" fill-opacity="1" stroke="#000000" stroke-opacity="1" stroke-width="3.2"/>
<circle clip-path="url(#clip262)" cx="1581.03" cy="447.758" r="14.4" fill="#009af9" fill-rule="evenodd" fill-opacity="1" stroke="#000000" stroke-opacity="1" stroke-width="3.2"/>
<circle clip-path="url(#clip262)" cx="1601.88" cy="436.299" r="14.4" fill="#009af9" fill-rule="evenodd" fill-opacity="1" stroke="#000000" stroke-opacity="1" stroke-width="3.2"/>
<circle clip-path="url(#clip262)" cx="1622.74" cy="424.951" r="14.4" fill="#009af9" fill-rule="evenodd" fill-opacity="1" stroke="#000000" stroke-opacity="1" stroke-width="3.2"/>
<circle clip-path="url(#clip262)" cx="1643.6" cy="413.715" r="14.4" fill="#009af9" fill-rule="evenodd" fill-opacity="1" stroke="#000000" stroke-opacity="1" stroke-width="3.2"/>
<circle clip-path="url(#clip262)" cx="1664.46" cy="402.589" r="14.4" fill="#009af9" fill-rule="evenodd" fill-opacity="1" stroke="#000000" stroke-opacity="1" stroke-width="3.2"/>
<circle clip-path="url(#clip262)" cx="1685.31" cy="391.572" r="14.4" fill="#009af9" fill-rule="evenodd" fill-opacity="1" stroke="#000000" stroke-opacity="1" stroke-width="3.2"/>
<circle clip-path="url(#clip262)" cx="1706.17" cy="380.664" r="14.4" fill="#009af9" fill-rule="evenodd" fill-opacity="1" stroke="#000000" stroke-opacity="1" stroke-width="3.2"/>
<circle clip-path="url(#clip262)" cx="1727.03" cy="369.862" r="14.4" fill="#009af9" fill-rule="evenodd" fill-opacity="1" stroke="#000000" stroke-opacity="1" stroke-width="3.2"/>
<circle clip-path="url(#clip262)" cx="1747.89" cy="359.166" r="14.4" fill="#009af9" fill-rule="evenodd" fill-opacity="1" stroke="#000000" stroke-opacity="1" stroke-width="3.2"/>
<circle clip-path="url(#clip262)" cx="1768.74" cy="348.576" r="14.4" fill="#009af9" fill-rule="evenodd" fill-opacity="1" stroke="#000000" stroke-opacity="1" stroke-width="3.2"/>
<circle clip-path="url(#clip262)" cx="1789.6" cy="338.09" r="14.4" fill="#009af9" fill-rule="evenodd" fill-opacity="1" stroke="#000000" stroke-opacity="1" stroke-width="3.2"/>
<circle clip-path="url(#clip262)" cx="1810.46" cy="327.707" r="14.4" fill="#009af9" fill-rule="evenodd" fill-opacity="1" stroke="#000000" stroke-opacity="1" stroke-width="3.2"/>
<circle clip-path="url(#clip262)" cx="1831.32" cy="317.426" r="14.4" fill="#009af9" fill-rule="evenodd" fill-opacity="1" stroke="#000000" stroke-opacity="1" stroke-width="3.2"/>
<circle clip-path="url(#clip262)" cx="1852.17" cy="307.247" r="14.4" fill="#009af9" fill-rule="evenodd" fill-opacity="1" stroke="#000000" stroke-opacity="1" stroke-width="3.2"/>
<circle clip-path="url(#clip262)" cx="1873.03" cy="297.167" r="14.4" fill="#009af9" fill-rule="evenodd" fill-opacity="1" stroke="#000000" stroke-opacity="1" stroke-width="3.2"/>
<circle clip-path="url(#clip262)" cx="1893.89" cy="287.187" r="14.4" fill="#009af9" fill-rule="evenodd" fill-opacity="1" stroke="#000000" stroke-opacity="1" stroke-width="3.2"/>
<circle clip-path="url(#clip262)" cx="1914.75" cy="277.305" r="14.4" fill="#009af9" fill-rule="evenodd" fill-opacity="1" stroke="#000000" stroke-opacity="1" stroke-width="3.2"/>
<circle clip-path="url(#clip262)" cx="1935.6" cy="267.521" r="14.4" fill="#009af9" fill-rule="evenodd" fill-opacity="1" stroke="#000000" stroke-opacity="1" stroke-width="3.2"/>
<circle clip-path="url(#clip262)" cx="1956.46" cy="257.833" r="14.4" fill="#009af9" fill-rule="evenodd" fill-opacity="1" stroke="#000000" stroke-opacity="1" stroke-width="3.2"/>
<circle clip-path="url(#clip262)" cx="1977.32" cy="248.241" r="14.4" fill="#009af9" fill-rule="evenodd" fill-opacity="1" stroke="#000000" stroke-opacity="1" stroke-width="3.2"/>
<circle clip-path="url(#clip262)" cx="1998.18" cy="238.742" r="14.4" fill="#009af9" fill-rule="evenodd" fill-opacity="1" stroke="#000000" stroke-opacity="1" stroke-width="3.2"/>
<circle clip-path="url(#clip262)" cx="2019.03" cy="229.338" r="14.4" fill="#009af9" fill-rule="evenodd" fill-opacity="1" stroke="#000000" stroke-opacity="1" stroke-width="3.2"/>
<circle clip-path="url(#clip262)" cx="2039.89" cy="220.026" r="14.4" fill="#009af9" fill-rule="evenodd" fill-opacity="1" stroke="#000000" stroke-opacity="1" stroke-width="3.2"/>
<circle clip-path="url(#clip262)" cx="2060.75" cy="210.805" r="14.4" fill="#009af9" fill-rule="evenodd" fill-opacity="1" stroke="#000000" stroke-opacity="1" stroke-width="3.2"/>
<circle clip-path="url(#clip262)" cx="2081.61" cy="201.676" r="14.4" fill="#009af9" fill-rule="evenodd" fill-opacity="1" stroke="#000000" stroke-opacity="1" stroke-width="3.2"/>
<circle clip-path="url(#clip262)" cx="2102.47" cy="192.636" r="14.4" fill="#009af9" fill-rule="evenodd" fill-opacity="1" stroke="#000000" stroke-opacity="1" stroke-width="3.2"/>
<circle clip-path="url(#clip262)" cx="2123.32" cy="183.684" r="14.4" fill="#009af9" fill-rule="evenodd" fill-opacity="1" stroke="#000000" stroke-opacity="1" stroke-width="3.2"/>
<circle clip-path="url(#clip262)" cx="2144.18" cy="174.821" r="14.4" fill="#009af9" fill-rule="evenodd" fill-opacity="1" stroke="#000000" stroke-opacity="1" stroke-width="3.2"/>
<circle clip-path="url(#clip262)" cx="2165.04" cy="166.045" r="14.4" fill="#009af9" fill-rule="evenodd" fill-opacity="1" stroke="#000000" stroke-opacity="1" stroke-width="3.2"/>
<circle clip-path="url(#clip262)" cx="2185.9" cy="157.355" r="14.4" fill="#009af9" fill-rule="evenodd" fill-opacity="1" stroke="#000000" stroke-opacity="1" stroke-width="3.2"/>
<circle clip-path="url(#clip262)" cx="2206.75" cy="148.75" r="14.4" fill="#009af9" fill-rule="evenodd" fill-opacity="1" stroke="#000000" stroke-opacity="1" stroke-width="3.2"/>
<circle clip-path="url(#clip262)" cx="2227.61" cy="140.229" r="14.4" fill="#009af9" fill-rule="evenodd" fill-opacity="1" stroke="#000000" stroke-opacity="1" stroke-width="3.2"/>
<circle clip-path="url(#clip262)" cx="2248.47" cy="131.792" r="14.4" fill="#009af9" fill-rule="evenodd" fill-opacity="1" stroke="#000000" stroke-opacity="1" stroke-width="3.2"/>
<circle clip-path="url(#clip262)" cx="2269.33" cy="123.437" r="14.4" fill="#009af9" fill-rule="evenodd" fill-opacity="1" stroke="#000000" stroke-opacity="1" stroke-width="3.2"/>
<circle clip-path="url(#clip262)" cx="2290.18" cy="115.164" r="14.4" fill="#009af9" fill-rule="evenodd" fill-opacity="1" stroke="#000000" stroke-opacity="1" stroke-width="3.2"/>
<polyline clip-path="url(#clip262)" style="stroke:#e26f46; stroke-linecap:round; stroke-linejoin:round; stroke-width:4; stroke-opacity:1; fill:none" points="204.426,1445.72 225.283,1235.5 246.141,1085.06 266.998,967.297 287.856,873.691 308.714,804.667 329.571,763.287 350.429,750.688 371.286,763.344 392.144,793.849 413.001,833.816 433.859,876.271 454.717,916.51 475.574,951.887 496.432,981.233 517.289,1004.3 538.147,1021.37 559.004,1032.98 579.862,1039.78 600.72,1042.45 621.577,1041.62 642.435,1037.86 663.292,1031.7 684.15,1023.58 705.007,1013.87 725.865,1002.9 746.723,990.918 767.58,978.154 788.438,964.784 809.295,950.953 830.153,936.782 851.01,922.365 871.868,907.782 892.726,893.095 913.583,878.353 934.441,863.596 955.298,848.858 976.156,834.162 997.014,819.529 1017.87,804.974 1038.73,790.509 1059.59,776.145 1080.44,761.886 1101.3,747.739 1122.16,733.706 1143.02,719.791 1163.87,705.994 1184.73,692.315 1205.59,678.755 1226.45,665.312 1247.3,651.986 1268.16,638.773 1289.02,625.674 1309.88,612.685 1330.73,599.805 1351.59,587.03 1372.45,574.359 1393.31,561.789 1414.17,549.317 1435.02,536.941 1455.88,524.658 1476.74,512.466 1497.6,500.362 1518.45,488.344 1539.31,476.408 1560.17,464.554 1581.03,452.779 1601.88,441.08 1622.74,429.455 1643.6,417.902 1664.46,406.42 1685.31,395.006 1706.17,383.659 1727.03,372.377 1747.89,361.159 1768.74,350.002 1789.6,338.905 1810.46,327.868 1831.32,316.888 1852.17,305.964 1873.03,295.095 1893.89,284.281 1914.75,273.519 1935.6,262.809 1956.46,252.151 1977.32,241.543 1998.18,230.983 2019.03,220.473 2039.89,210.01 2060.75,199.595 2081.61,189.226 2102.47,178.903 2123.32,168.625 2144.18,158.392 2165.04,148.203 2185.9,138.058 2206.75,127.956 2227.61,117.898 2248.47,107.882 2269.33,97.9082 2290.18,87.9763 "/>
<path clip-path="url(#clip260)" d="M215.55 250.738 L1100.66 250.738 L1100.66 95.2176 L215.55 95.2176  Z" fill="#ffffff" fill-rule="evenodd" fill-opacity="1"/>
<polyline clip-path="url(#clip260)" style="stroke:#000000; stroke-linecap:round; stroke-linejoin:round; stroke-width:4; stroke-opacity:1; fill:none" points="215.55,250.738 1100.66,250.738 1100.66,95.2176 215.55,95.2176 215.55,250.738 "/>
<circle clip-path="url(#clip260)" cx="313.812" cy="147.058" r="20.48" fill="#009af9" fill-rule="evenodd" fill-opacity="1" stroke="#000000" stroke-opacity="1" stroke-width="4.55111"/>
<path clip-path="url(#clip260)" d="M430.986 151.074 Q430.986 146.444 429.065 143.898 Q427.167 141.352 423.718 141.352 Q420.292 141.352 418.371 143.898 Q416.473 146.444 416.473 151.074 Q416.473 155.68 418.371 158.226 Q420.292 160.773 423.718 160.773 Q427.167 160.773 429.065 158.226 Q430.986 155.68 430.986 151.074 M435.246 161.12 Q435.246 167.74 432.306 170.958 Q429.366 174.199 423.301 174.199 Q421.056 174.199 419.065 173.851 Q417.074 173.527 415.199 172.833 L415.199 168.689 Q417.074 169.708 418.903 170.194 Q420.732 170.68 422.63 170.68 Q426.82 170.68 428.903 168.481 Q430.986 166.305 430.986 161.884 L430.986 159.777 Q429.667 162.069 427.607 163.203 Q425.547 164.338 422.676 164.338 Q417.908 164.338 414.991 160.703 Q412.074 157.069 412.074 151.074 Q412.074 145.055 414.991 141.421 Q417.908 137.787 422.676 137.787 Q425.547 137.787 427.607 138.921 Q429.667 140.055 430.986 142.347 L430.986 138.412 L435.246 138.412 L435.246 161.12 Z" fill="#000000" fill-rule="nonzero" fill-opacity="1" /><path clip-path="url(#clip260)" d="M459.042 142.393 Q458.324 141.977 457.468 141.791 Q456.634 141.583 455.616 141.583 Q452.005 141.583 450.06 143.944 Q448.139 146.282 448.139 150.68 L448.139 164.338 L443.857 164.338 L443.857 138.412 L448.139 138.412 L448.139 142.44 Q449.482 140.078 451.634 138.944 Q453.787 137.787 456.866 137.787 Q457.306 137.787 457.838 137.856 Q458.37 137.903 459.019 138.018 L459.042 142.393 Z" fill="#000000" fill-rule="nonzero" fill-opacity="1" /><path clip-path="url(#clip260)" d="M472.514 141.398 Q469.088 141.398 467.097 144.083 Q465.107 146.745 465.107 151.398 Q465.107 156.051 467.074 158.736 Q469.065 161.398 472.514 161.398 Q475.917 161.398 477.907 158.713 Q479.898 156.027 479.898 151.398 Q479.898 146.791 477.907 144.106 Q475.917 141.398 472.514 141.398 M472.514 137.787 Q478.069 137.787 481.241 141.398 Q484.412 145.009 484.412 151.398 Q484.412 157.764 481.241 161.398 Q478.069 165.009 472.514 165.009 Q466.935 165.009 463.764 161.398 Q460.616 157.764 460.616 151.398 Q460.616 145.009 463.764 141.398 Q466.935 137.787 472.514 137.787 Z" fill="#000000" fill-rule="nonzero" fill-opacity="1" /><path clip-path="url(#clip260)" d="M491.032 154.106 L491.032 138.412 L495.292 138.412 L495.292 153.944 Q495.292 157.625 496.727 159.476 Q498.162 161.305 501.032 161.305 Q504.481 161.305 506.472 159.106 Q508.486 156.907 508.486 153.111 L508.486 138.412 L512.745 138.412 L512.745 164.338 L508.486 164.338 L508.486 160.356 Q506.935 162.717 504.875 163.875 Q502.838 165.009 500.13 165.009 Q495.662 165.009 493.347 162.231 Q491.032 159.453 491.032 154.106 M501.75 137.787 L501.75 137.787 Z" fill="#000000" fill-rule="nonzero" fill-opacity="1" /><path clip-path="url(#clip260)" d="M543.069 148.689 L543.069 164.338 L538.81 164.338 L538.81 148.828 Q538.81 145.148 537.375 143.319 Q535.939 141.49 533.069 141.49 Q529.62 141.49 527.629 143.69 Q525.639 145.889 525.639 149.685 L525.639 164.338 L521.356 164.338 L521.356 138.412 L525.639 138.412 L525.639 142.44 Q527.166 140.102 529.227 138.944 Q531.31 137.787 534.018 137.787 Q538.486 137.787 540.777 140.565 Q543.069 143.319 543.069 148.689 Z" fill="#000000" fill-rule="nonzero" fill-opacity="1" /><path clip-path="url(#clip260)" d="M568.625 142.347 L568.625 128.319 L572.884 128.319 L572.884 164.338 L568.625 164.338 L568.625 160.449 Q567.282 162.763 565.222 163.898 Q563.185 165.009 560.314 165.009 Q555.615 165.009 552.652 161.259 Q549.713 157.509 549.713 151.398 Q549.713 145.287 552.652 141.537 Q555.615 137.787 560.314 137.787 Q563.185 137.787 565.222 138.921 Q567.282 140.032 568.625 142.347 M554.111 151.398 Q554.111 156.097 556.032 158.782 Q557.976 161.444 561.356 161.444 Q564.736 161.444 566.68 158.782 Q568.625 156.097 568.625 151.398 Q568.625 146.699 566.68 144.037 Q564.736 141.352 561.356 141.352 Q557.976 141.352 556.032 144.037 Q554.111 146.699 554.111 151.398 Z" fill="#000000" fill-rule="nonzero" fill-opacity="1" /><path clip-path="url(#clip260)" d="M600.939 131.051 L600.939 138.412 L609.712 138.412 L609.712 141.722 L600.939 141.722 L600.939 155.796 Q600.939 158.967 601.796 159.87 Q602.675 160.773 605.337 160.773 L609.712 160.773 L609.712 164.338 L605.337 164.338 Q600.407 164.338 598.532 162.509 Q596.657 160.657 596.657 155.796 L596.657 141.722 L593.532 141.722 L593.532 138.412 L596.657 138.412 L596.657 131.051 L600.939 131.051 Z" fill="#000000" fill-rule="nonzero" fill-opacity="1" /><path clip-path="url(#clip260)" d="M630.337 142.393 Q629.62 141.977 628.763 141.791 Q627.93 141.583 626.911 141.583 Q623.3 141.583 621.356 143.944 Q619.434 146.282 619.434 150.68 L619.434 164.338 L615.152 164.338 L615.152 138.412 L619.434 138.412 L619.434 142.44 Q620.777 140.078 622.93 138.944 Q625.083 137.787 628.161 137.787 Q628.601 137.787 629.133 137.856 Q629.666 137.903 630.314 138.018 L630.337 142.393 Z" fill="#000000" fill-rule="nonzero" fill-opacity="1" /><path clip-path="url(#clip260)" d="M634.365 154.106 L634.365 138.412 L638.624 138.412 L638.624 153.944 Q638.624 157.625 640.059 159.476 Q641.494 161.305 644.365 161.305 Q647.814 161.305 649.805 159.106 Q651.819 156.907 651.819 153.111 L651.819 138.412 L656.078 138.412 L656.078 164.338 L651.819 164.338 L651.819 160.356 Q650.268 162.717 648.207 163.875 Q646.17 165.009 643.462 165.009 Q638.994 165.009 636.68 162.231 Q634.365 159.453 634.365 154.106 M645.082 137.787 L645.082 137.787 Z" fill="#000000" fill-rule="nonzero" fill-opacity="1" /><path clip-path="url(#clip260)" d="M669.064 131.051 L669.064 138.412 L677.837 138.412 L677.837 141.722 L669.064 141.722 L669.064 155.796 Q669.064 158.967 669.92 159.87 Q670.8 160.773 673.462 160.773 L677.837 160.773 L677.837 164.338 L673.462 164.338 Q668.531 164.338 666.656 162.509 Q664.781 160.657 664.781 155.796 L664.781 141.722 L661.656 141.722 L661.656 138.412 L664.781 138.412 L664.781 131.051 L669.064 131.051 Z" fill="#000000" fill-rule="nonzero" fill-opacity="1" /><path clip-path="url(#clip260)" d="M704.99 148.689 L704.99 164.338 L700.73 164.338 L700.73 148.828 Q700.73 145.148 699.295 143.319 Q697.86 141.49 694.99 141.49 Q691.541 141.49 689.55 143.69 Q687.559 145.889 687.559 149.685 L687.559 164.338 L683.277 164.338 L683.277 128.319 L687.559 128.319 L687.559 142.44 Q689.087 140.102 691.147 138.944 Q693.23 137.787 695.939 137.787 Q700.406 137.787 702.698 140.565 Q704.99 143.319 704.99 148.689 Z" fill="#000000" fill-rule="nonzero" fill-opacity="1" /><path clip-path="url(#clip260)" d="M741.679 128.319 L741.679 131.861 L737.605 131.861 Q735.313 131.861 734.411 132.787 Q733.531 133.713 733.531 136.12 L733.531 138.412 L740.545 138.412 L740.545 141.722 L733.531 141.722 L733.531 164.338 L729.249 164.338 L729.249 141.722 L725.175 141.722 L725.175 138.412 L729.249 138.412 L729.249 136.606 Q729.249 132.278 731.263 130.31 Q733.276 128.319 737.651 128.319 L741.679 128.319 Z" fill="#000000" fill-rule="nonzero" fill-opacity="1" /><path clip-path="url(#clip260)" d="M760.267 142.393 Q759.549 141.977 758.693 141.791 Q757.86 141.583 756.841 141.583 Q753.23 141.583 751.286 143.944 Q749.364 146.282 749.364 150.68 L749.364 164.338 L745.082 164.338 L745.082 138.412 L749.364 138.412 L749.364 142.44 Q750.707 140.078 752.86 138.944 Q755.012 137.787 758.091 137.787 Q758.531 137.787 759.063 137.856 Q759.596 137.903 760.244 138.018 L760.267 142.393 Z" fill="#000000" fill-rule="nonzero" fill-opacity="1" /><path clip-path="url(#clip260)" d="M764.735 138.412 L768.994 138.412 L768.994 164.338 L764.735 164.338 L764.735 138.412 M764.735 128.319 L768.994 128.319 L768.994 133.713 L764.735 133.713 L764.735 128.319 Z" fill="#000000" fill-rule="nonzero" fill-opacity="1" /><path clip-path="url(#clip260)" d="M796.563 139.407 L796.563 143.389 Q794.758 142.393 792.929 141.907 Q791.123 141.398 789.271 141.398 Q785.128 141.398 782.836 144.037 Q780.545 146.652 780.545 151.398 Q780.545 156.143 782.836 158.782 Q785.128 161.398 789.271 161.398 Q791.123 161.398 792.929 160.912 Q794.758 160.402 796.563 159.407 L796.563 163.342 Q794.781 164.176 792.859 164.592 Q790.961 165.009 788.809 165.009 Q782.952 165.009 779.503 161.328 Q776.054 157.648 776.054 151.398 Q776.054 145.055 779.526 141.421 Q783.022 137.787 789.086 137.787 Q791.054 137.787 792.929 138.203 Q794.804 138.597 796.563 139.407 Z" fill="#000000" fill-rule="nonzero" fill-opacity="1" /><path clip-path="url(#clip260)" d="M808.183 131.051 L808.183 138.412 L816.957 138.412 L816.957 141.722 L808.183 141.722 L808.183 155.796 Q808.183 158.967 809.04 159.87 Q809.92 160.773 812.582 160.773 L816.957 160.773 L816.957 164.338 L812.582 164.338 Q807.651 164.338 805.776 162.509 Q803.901 160.657 803.901 155.796 L803.901 141.722 L800.776 141.722 L800.776 138.412 L803.901 138.412 L803.901 131.051 L808.183 131.051 Z" fill="#000000" fill-rule="nonzero" fill-opacity="1" /><path clip-path="url(#clip260)" d="M822.558 138.412 L826.818 138.412 L826.818 164.338 L822.558 164.338 L822.558 138.412 M822.558 128.319 L826.818 128.319 L826.818 133.713 L822.558 133.713 L822.558 128.319 Z" fill="#000000" fill-rule="nonzero" fill-opacity="1" /><path clip-path="url(#clip260)" d="M845.776 141.398 Q842.35 141.398 840.359 144.083 Q838.368 146.745 838.368 151.398 Q838.368 156.051 840.336 158.736 Q842.327 161.398 845.776 161.398 Q849.179 161.398 851.169 158.713 Q853.16 156.027 853.16 151.398 Q853.16 146.791 851.169 144.106 Q849.179 141.398 845.776 141.398 M845.776 137.787 Q851.331 137.787 854.503 141.398 Q857.674 145.009 857.674 151.398 Q857.674 157.764 854.503 161.398 Q851.331 165.009 845.776 165.009 Q840.197 165.009 837.026 161.398 Q833.878 157.764 833.878 151.398 Q833.878 145.009 837.026 141.398 Q840.197 137.787 845.776 137.787 Z" fill="#000000" fill-rule="nonzero" fill-opacity="1" /><path clip-path="url(#clip260)" d="M886.285 148.689 L886.285 164.338 L882.026 164.338 L882.026 148.828 Q882.026 145.148 880.59 143.319 Q879.155 141.49 876.285 141.49 Q872.836 141.49 870.845 143.69 Q868.854 145.889 868.854 149.685 L868.854 164.338 L864.572 164.338 L864.572 138.412 L868.854 138.412 L868.854 142.44 Q870.382 140.102 872.442 138.944 Q874.526 137.787 877.234 137.787 Q881.702 137.787 883.993 140.565 Q886.285 143.319 886.285 148.689 Z" fill="#000000" fill-rule="nonzero" fill-opacity="1" /><polyline clip-path="url(#clip260)" style="stroke:#e26f46; stroke-linecap:round; stroke-linejoin:round; stroke-width:4; stroke-opacity:1; fill:none" points="240.115,198.898 387.509,198.898 "/>
<path clip-path="url(#clip260)" d="M428.579 180.159 L428.579 183.701 L424.505 183.701 Q422.213 183.701 421.31 184.627 Q420.431 185.553 420.431 187.96 L420.431 190.252 L427.445 190.252 L427.445 193.562 L420.431 193.562 L420.431 216.178 L416.148 216.178 L416.148 193.562 L412.074 193.562 L412.074 190.252 L416.148 190.252 L416.148 188.446 Q416.148 184.118 418.162 182.15 Q420.176 180.159 424.551 180.159 L428.579 180.159 Z" fill="#000000" fill-rule="nonzero" fill-opacity="1" /><path clip-path="url(#clip260)" d="M447.167 194.233 Q446.449 193.817 445.593 193.631 Q444.759 193.423 443.741 193.423 Q440.13 193.423 438.185 195.784 Q436.264 198.122 436.264 202.52 L436.264 216.178 L431.982 216.178 L431.982 190.252 L436.264 190.252 L436.264 194.28 Q437.607 191.918 439.759 190.784 Q441.912 189.627 444.991 189.627 Q445.431 189.627 445.963 189.696 Q446.496 189.743 447.144 189.858 L447.167 194.233 Z" fill="#000000" fill-rule="nonzero" fill-opacity="1" /><path clip-path="url(#clip260)" d="M451.634 190.252 L455.894 190.252 L455.894 216.178 L451.634 216.178 L451.634 190.252 M451.634 180.159 L455.894 180.159 L455.894 185.553 L451.634 185.553 L451.634 180.159 Z" fill="#000000" fill-rule="nonzero" fill-opacity="1" /><path clip-path="url(#clip260)" d="M483.463 191.247 L483.463 195.229 Q481.657 194.233 479.829 193.747 Q478.023 193.238 476.171 193.238 Q472.028 193.238 469.736 195.877 Q467.444 198.492 467.444 203.238 Q467.444 207.983 469.736 210.622 Q472.028 213.238 476.171 213.238 Q478.023 213.238 479.829 212.752 Q481.657 212.242 483.463 211.247 L483.463 215.182 Q481.681 216.016 479.759 216.432 Q477.861 216.849 475.708 216.849 Q469.852 216.849 466.403 213.168 Q462.954 209.488 462.954 203.238 Q462.954 196.895 466.426 193.261 Q469.921 189.627 475.986 189.627 Q477.954 189.627 479.829 190.043 Q481.704 190.437 483.463 191.247 Z" fill="#000000" fill-rule="nonzero" fill-opacity="1" /><path clip-path="url(#clip260)" d="M495.083 182.891 L495.083 190.252 L503.856 190.252 L503.856 193.562 L495.083 193.562 L495.083 207.636 Q495.083 210.807 495.94 211.71 Q496.819 212.613 499.481 212.613 L503.856 212.613 L503.856 216.178 L499.481 216.178 Q494.551 216.178 492.676 214.349 Q490.801 212.497 490.801 207.636 L490.801 193.562 L487.676 193.562 L487.676 190.252 L490.801 190.252 L490.801 182.891 L495.083 182.891 Z" fill="#000000" fill-rule="nonzero" fill-opacity="1" /><path clip-path="url(#clip260)" d="M509.458 190.252 L513.717 190.252 L513.717 216.178 L509.458 216.178 L509.458 190.252 M509.458 180.159 L513.717 180.159 L513.717 185.553 L509.458 185.553 L509.458 180.159 Z" fill="#000000" fill-rule="nonzero" fill-opacity="1" /><path clip-path="url(#clip260)" d="M532.676 193.238 Q529.25 193.238 527.259 195.923 Q525.268 198.585 525.268 203.238 Q525.268 207.891 527.236 210.576 Q529.227 213.238 532.676 213.238 Q536.078 213.238 538.069 210.553 Q540.06 207.867 540.06 203.238 Q540.06 198.631 538.069 195.946 Q536.078 193.238 532.676 193.238 M532.676 189.627 Q538.231 189.627 541.402 193.238 Q544.574 196.849 544.574 203.238 Q544.574 209.604 541.402 213.238 Q538.231 216.849 532.676 216.849 Q527.097 216.849 523.926 213.238 Q520.778 209.604 520.778 203.238 Q520.778 196.849 523.926 193.238 Q527.097 189.627 532.676 189.627 Z" fill="#000000" fill-rule="nonzero" fill-opacity="1" /><path clip-path="url(#clip260)" d="M573.185 200.529 L573.185 216.178 L568.925 216.178 L568.925 200.668 Q568.925 196.988 567.49 195.159 Q566.055 193.33 563.185 193.33 Q559.736 193.33 557.745 195.53 Q555.754 197.729 555.754 201.525 L555.754 216.178 L551.472 216.178 L551.472 190.252 L555.754 190.252 L555.754 194.28 Q557.282 191.942 559.342 190.784 Q561.425 189.627 564.134 189.627 Q568.601 189.627 570.893 192.405 Q573.185 195.159 573.185 200.529 Z" fill="#000000" fill-rule="nonzero" fill-opacity="1" /><path clip-path="url(#clip260)" d="M609.874 180.159 L609.874 183.701 L605.8 183.701 Q603.509 183.701 602.606 184.627 Q601.726 185.553 601.726 187.96 L601.726 190.252 L608.74 190.252 L608.74 193.562 L601.726 193.562 L601.726 216.178 L597.444 216.178 L597.444 193.562 L593.37 193.562 L593.37 190.252 L597.444 190.252 L597.444 188.446 Q597.444 184.118 599.458 182.15 Q601.472 180.159 605.847 180.159 L609.874 180.159 Z" fill="#000000" fill-rule="nonzero" fill-opacity="1" /><path clip-path="url(#clip260)" d="M628.462 194.233 Q627.745 193.817 626.888 193.631 Q626.055 193.423 625.036 193.423 Q621.425 193.423 619.481 195.784 Q617.559 198.122 617.559 202.52 L617.559 216.178 L613.277 216.178 L613.277 190.252 L617.559 190.252 L617.559 194.28 Q618.902 191.918 621.055 190.784 Q623.208 189.627 626.286 189.627 Q626.726 189.627 627.258 189.696 Q627.791 189.743 628.439 189.858 L628.462 194.233 Z" fill="#000000" fill-rule="nonzero" fill-opacity="1" /><path clip-path="url(#clip260)" d="M641.934 193.238 Q638.508 193.238 636.518 195.923 Q634.527 198.585 634.527 203.238 Q634.527 207.891 636.495 210.576 Q638.485 213.238 641.934 213.238 Q645.337 213.238 647.328 210.553 Q649.319 207.867 649.319 203.238 Q649.319 198.631 647.328 195.946 Q645.337 193.238 641.934 193.238 M641.934 189.627 Q647.49 189.627 650.661 193.238 Q653.832 196.849 653.832 203.238 Q653.832 209.604 650.661 213.238 Q647.49 216.849 641.934 216.849 Q636.356 216.849 633.184 213.238 Q630.036 209.604 630.036 203.238 Q630.036 196.849 633.184 193.238 Q636.356 189.627 641.934 189.627 Z" fill="#000000" fill-rule="nonzero" fill-opacity="1" /><path clip-path="url(#clip260)" d="M681.078 195.229 Q682.675 192.358 684.897 190.993 Q687.119 189.627 690.128 189.627 Q694.179 189.627 696.378 192.474 Q698.578 195.298 698.578 200.529 L698.578 216.178 L694.295 216.178 L694.295 200.668 Q694.295 196.942 692.976 195.136 Q691.656 193.33 688.948 193.33 Q685.638 193.33 683.716 195.53 Q681.795 197.729 681.795 201.525 L681.795 216.178 L677.513 216.178 L677.513 200.668 Q677.513 196.918 676.193 195.136 Q674.874 193.33 672.119 193.33 Q668.855 193.33 666.934 195.553 Q665.013 197.752 665.013 201.525 L665.013 216.178 L660.73 216.178 L660.73 190.252 L665.013 190.252 L665.013 194.28 Q666.471 191.895 668.508 190.761 Q670.545 189.627 673.346 189.627 Q676.17 189.627 678.138 191.062 Q680.129 192.497 681.078 195.229 Z" fill="#000000" fill-rule="nonzero" fill-opacity="1" /><path clip-path="url(#clip260)" d="M743.693 200.529 L743.693 216.178 L739.434 216.178 L739.434 200.668 Q739.434 196.988 737.999 195.159 Q736.563 193.33 733.693 193.33 Q730.244 193.33 728.253 195.53 Q726.263 197.729 726.263 201.525 L726.263 216.178 L721.98 216.178 L721.98 190.252 L726.263 190.252 L726.263 194.28 Q727.79 191.942 729.85 190.784 Q731.934 189.627 734.642 189.627 Q739.11 189.627 741.401 192.405 Q743.693 195.159 743.693 200.529 Z" fill="#000000" fill-rule="nonzero" fill-opacity="1" /><path clip-path="url(#clip260)" d="M774.364 202.15 L774.364 204.233 L754.781 204.233 Q755.059 208.631 757.42 210.946 Q759.804 213.238 764.04 213.238 Q766.494 213.238 768.785 212.636 Q771.1 212.034 773.369 210.83 L773.369 214.858 Q771.077 215.83 768.67 216.34 Q766.262 216.849 763.785 216.849 Q757.582 216.849 753.948 213.238 Q750.336 209.627 750.336 203.469 Q750.336 197.104 753.762 193.377 Q757.211 189.627 763.045 189.627 Q768.276 189.627 771.309 193.006 Q774.364 196.363 774.364 202.15 M770.105 200.9 Q770.059 197.405 768.137 195.321 Q766.239 193.238 763.091 193.238 Q759.526 193.238 757.373 195.252 Q755.244 197.266 754.92 200.923 L770.105 200.9 Z" fill="#000000" fill-rule="nonzero" fill-opacity="1" /><path clip-path="url(#clip260)" d="M780.915 205.946 L780.915 190.252 L785.174 190.252 L785.174 205.784 Q785.174 209.465 786.609 211.316 Q788.045 213.145 790.915 213.145 Q794.364 213.145 796.355 210.946 Q798.369 208.747 798.369 204.951 L798.369 190.252 L802.628 190.252 L802.628 216.178 L798.369 216.178 L798.369 212.196 Q796.818 214.557 794.758 215.715 Q792.721 216.849 790.012 216.849 Q785.545 216.849 783.23 214.071 Q780.915 211.293 780.915 205.946 M791.633 189.627 L791.633 189.627 Z" fill="#000000" fill-rule="nonzero" fill-opacity="1" /><path clip-path="url(#clip260)" d="M826.424 194.233 Q825.706 193.817 824.85 193.631 Q824.017 193.423 822.998 193.423 Q819.387 193.423 817.443 195.784 Q815.521 198.122 815.521 202.52 L815.521 216.178 L811.239 216.178 L811.239 190.252 L815.521 190.252 L815.521 194.28 Q816.864 191.918 819.017 190.784 Q821.169 189.627 824.248 189.627 Q824.688 189.627 825.22 189.696 Q825.753 189.743 826.401 189.858 L826.424 194.233 Z" fill="#000000" fill-rule="nonzero" fill-opacity="1" /><path clip-path="url(#clip260)" d="M842.674 203.145 Q837.512 203.145 835.521 204.326 Q833.53 205.506 833.53 208.354 Q833.53 210.622 835.012 211.965 Q836.517 213.284 839.086 213.284 Q842.628 213.284 844.757 210.784 Q846.91 208.261 846.91 204.094 L846.91 203.145 L842.674 203.145 M851.169 201.386 L851.169 216.178 L846.91 216.178 L846.91 212.242 Q845.452 214.603 843.276 215.738 Q841.1 216.849 837.952 216.849 Q833.97 216.849 831.609 214.627 Q829.271 212.381 829.271 208.631 Q829.271 204.256 832.188 202.034 Q835.128 199.812 840.938 199.812 L846.91 199.812 L846.91 199.395 Q846.91 196.455 844.966 194.858 Q843.044 193.238 839.549 193.238 Q837.327 193.238 835.22 193.77 Q833.114 194.303 831.169 195.367 L831.169 191.432 Q833.507 190.53 835.706 190.09 Q837.905 189.627 839.989 189.627 Q845.614 189.627 848.392 192.543 Q851.169 195.46 851.169 201.386 Z" fill="#000000" fill-rule="nonzero" fill-opacity="1" /><path clip-path="url(#clip260)" d="M859.942 180.159 L864.202 180.159 L864.202 216.178 L859.942 216.178 L859.942 180.159 Z" fill="#000000" fill-rule="nonzero" fill-opacity="1" /><path clip-path="url(#clip260)" d="M909.734 200.529 L909.734 216.178 L905.475 216.178 L905.475 200.668 Q905.475 196.988 904.039 195.159 Q902.604 193.33 899.734 193.33 Q896.285 193.33 894.294 195.53 Q892.303 197.729 892.303 201.525 L892.303 216.178 L888.021 216.178 L888.021 190.252 L892.303 190.252 L892.303 194.28 Q893.831 191.942 895.891 190.784 Q897.975 189.627 900.683 189.627 Q905.15 189.627 907.442 192.405 Q909.734 195.159 909.734 200.529 Z" fill="#000000" fill-rule="nonzero" fill-opacity="1" /><path clip-path="url(#clip260)" d="M940.405 202.15 L940.405 204.233 L920.822 204.233 Q921.099 208.631 923.461 210.946 Q925.845 213.238 930.081 213.238 Q932.535 213.238 934.826 212.636 Q937.141 212.034 939.41 210.83 L939.41 214.858 Q937.118 215.83 934.711 216.34 Q932.303 216.849 929.826 216.849 Q923.623 216.849 919.988 213.238 Q916.377 209.627 916.377 203.469 Q916.377 197.104 919.803 193.377 Q923.252 189.627 929.086 189.627 Q934.317 189.627 937.349 193.006 Q940.405 196.363 940.405 202.15 M936.146 200.9 Q936.099 197.405 934.178 195.321 Q932.28 193.238 929.132 193.238 Q925.567 193.238 923.414 195.252 Q921.285 197.266 920.961 200.923 L936.146 200.9 Z" fill="#000000" fill-rule="nonzero" fill-opacity="1" /><path clip-path="url(#clip260)" d="M951.609 182.891 L951.609 190.252 L960.382 190.252 L960.382 193.562 L951.609 193.562 L951.609 207.636 Q951.609 210.807 952.465 211.71 Q953.345 212.613 956.007 212.613 L960.382 212.613 L960.382 216.178 L956.007 216.178 Q951.076 216.178 949.201 214.349 Q947.326 212.497 947.326 207.636 L947.326 193.562 L944.201 193.562 L944.201 190.252 L947.326 190.252 L947.326 182.891 L951.609 182.891 Z" fill="#000000" fill-rule="nonzero" fill-opacity="1" /><path clip-path="url(#clip260)" d="M963.507 190.252 L967.766 190.252 L973.09 210.483 L978.391 190.252 L983.414 190.252 L988.738 210.483 L994.039 190.252 L998.298 190.252 L991.516 216.178 L986.493 216.178 L980.914 194.928 L975.312 216.178 L970.289 216.178 L963.507 190.252 Z" fill="#000000" fill-rule="nonzero" fill-opacity="1" /><path clip-path="url(#clip260)" d="M1014.8 193.238 Q1011.38 193.238 1009.39 195.923 Q1007.4 198.585 1007.4 203.238 Q1007.4 207.891 1009.36 210.576 Q1011.35 213.238 1014.8 213.238 Q1018.21 213.238 1020.2 210.553 Q1022.19 207.867 1022.19 203.238 Q1022.19 198.631 1020.2 195.946 Q1018.21 193.238 1014.8 193.238 M1014.8 189.627 Q1020.36 189.627 1023.53 193.238 Q1026.7 196.849 1026.7 203.238 Q1026.7 209.604 1023.53 213.238 Q1020.36 216.849 1014.8 216.849 Q1009.22 216.849 1006.05 213.238 Q1002.9 209.604 1002.9 203.238 Q1002.9 196.849 1006.05 193.238 Q1009.22 189.627 1014.8 189.627 Z" fill="#000000" fill-rule="nonzero" fill-opacity="1" /><path clip-path="url(#clip260)" d="M1048.78 194.233 Q1048.07 193.817 1047.21 193.631 Q1046.38 193.423 1045.36 193.423 Q1041.75 193.423 1039.8 195.784 Q1037.88 198.122 1037.88 202.52 L1037.88 216.178 L1033.6 216.178 L1033.6 190.252 L1037.88 190.252 L1037.88 194.28 Q1039.22 191.918 1041.38 190.784 Q1043.53 189.627 1046.61 189.627 Q1047.05 189.627 1047.58 189.696 Q1048.11 189.743 1048.76 189.858 L1048.78 194.233 Z" fill="#000000" fill-rule="nonzero" fill-opacity="1" /><path clip-path="url(#clip260)" d="M1053.09 180.159 L1057.37 180.159 L1057.37 201.432 L1070.08 190.252 L1075.52 190.252 L1061.77 202.381 L1076.1 216.178 L1070.54 216.178 L1057.37 203.516 L1057.37 216.178 L1053.09 216.178 L1053.09 180.159 Z" fill="#000000" fill-rule="nonzero" fill-opacity="1" /></svg>
