<?xml version="1.0" encoding="utf-8"?>
<svg xmlns="http://www.w3.org/2000/svg" xmlns:xlink="http://www.w3.org/1999/xlink" width="600" height="400" viewBox="0 0 2400 1600">
<defs>
  <clipPath id="clip600">
    <rect x="0" y="0" width="2400" height="1600"/>
  </clipPath>
</defs>
<path clip-path="url(#clip600)" d="M0 1600 L2400 1600 L2400 0 L0 0  Z" fill="#ffffff" fill-rule="evenodd" fill-opacity="1"/>
<defs>
  <clipPath id="clip601">
    <rect x="480" y="0" width="1681" height="1600"/>
  </clipPath>
</defs>
<path clip-path="url(#clip600)" d="M216.089 1423.18 L2352.76 1423.18 L2352.76 47.2441 L216.089 47.2441  Z" fill="#ffffff" fill-rule="evenodd" fill-opacity="1"/>
<defs>
  <clipPath id="clip602">
    <rect x="216" y="47" width="2138" height="1377"/>
  </clipPath>
</defs>
<polyline clip-path="url(#clip602)" style="stroke:#000000; stroke-linecap:round; stroke-linejoin:round; stroke-width:2; stroke-opacity:0.1; fill:none" points="216.089,1423.18 216.089,47.2441 "/>
<polyline clip-path="url(#clip602)" style="stroke:#000000; stroke-linecap:round; stroke-linejoin:round; stroke-width:2; stroke-opacity:0.1; fill:none" points="643.422,1423.18 643.422,47.2441 "/>
<polyline clip-path="url(#clip602)" style="stroke:#000000; stroke-linecap:round; stroke-linejoin:round; stroke-width:2; stroke-opacity:0.1; fill:none" points="1070.76,1423.18 1070.76,47.2441 "/>
<polyline clip-path="url(#clip602)" style="stroke:#000000; stroke-linecap:round; stroke-linejoin:round; stroke-width:2; stroke-opacity:0.1; fill:none" points="1498.09,1423.18 1498.09,47.2441 "/>
<polyline clip-path="url(#clip602)" style="stroke:#000000; stroke-linecap:round; stroke-linejoin:round; stroke-width:2; stroke-opacity:0.1; fill:none" points="1925.42,1423.18 1925.42,47.2441 "/>
<polyline clip-path="url(#clip602)" style="stroke:#000000; stroke-linecap:round; stroke-linejoin:round; stroke-width:2; stroke-opacity:0.1; fill:none" points="2352.76,1423.18 2352.76,47.2441 "/>
<polyline clip-path="url(#clip602)" style="stroke:#000000; stroke-linecap:round; stroke-linejoin:round; stroke-width:2; stroke-opacity:0.1; fill:none" points="216.089,1188.94 2352.76,1188.94 "/>
<polyline clip-path="url(#clip602)" style="stroke:#000000; stroke-linecap:round; stroke-linejoin:round; stroke-width:2; stroke-opacity:0.1; fill:none" points="216.089,925.026 2352.76,925.026 "/>
<polyline clip-path="url(#clip602)" style="stroke:#000000; stroke-linecap:round; stroke-linejoin:round; stroke-width:2; stroke-opacity:0.1; fill:none" points="216.089,661.111 2352.76,661.111 "/>
<polyline clip-path="url(#clip602)" style="stroke:#000000; stroke-linecap:round; stroke-linejoin:round; stroke-width:2; stroke-opacity:0.1; fill:none" points="216.089,397.196 2352.76,397.196 "/>
<polyline clip-path="url(#clip602)" style="stroke:#000000; stroke-linecap:round; stroke-linejoin:round; stroke-width:2; stroke-opacity:0.1; fill:none" points="216.089,133.281 2352.76,133.281 "/>
<polyline clip-path="url(#clip600)" style="stroke:#000000; stroke-linecap:round; stroke-linejoin:round; stroke-width:4; stroke-opacity:1; fill:none" points="216.089,1423.18 2352.76,1423.18 "/>
<polyline clip-path="url(#clip600)" style="stroke:#000000; stroke-linecap:round; stroke-linejoin:round; stroke-width:4; stroke-opacity:1; fill:none" points="216.089,1423.18 216.089,1404.28 "/>
<polyline clip-path="url(#clip600)" style="stroke:#000000; stroke-linecap:round; stroke-linejoin:round; stroke-width:4; stroke-opacity:1; fill:none" points="643.422,1423.18 643.422,1404.28 "/>
<polyline clip-path="url(#clip600)" style="stroke:#000000; stroke-linecap:round; stroke-linejoin:round; stroke-width:4; stroke-opacity:1; fill:none" points="1070.76,1423.18 1070.76,1404.28 "/>
<polyline clip-path="url(#clip600)" style="stroke:#000000; stroke-linecap:round; stroke-linejoin:round; stroke-width:4; stroke-opacity:1; fill:none" points="1498.09,1423.18 1498.09,1404.28 "/>
<polyline clip-path="url(#clip600)" style="stroke:#000000; stroke-linecap:round; stroke-linejoin:round; stroke-width:4; stroke-opacity:1; fill:none" points="1925.42,1423.18 1925.42,1404.28 "/>
<polyline clip-path="url(#clip600)" style="stroke:#000000; stroke-linecap:round; stroke-linejoin:round; stroke-width:4; stroke-opacity:1; fill:none" points="2352.76,1423.18 2352.76,1404.28 "/>
<path clip-path="url(#clip600)" d="M216.089 1454.1 Q212.478 1454.1 210.649 1457.66 Q208.843 1461.2 208.843 1468.33 Q208.843 1475.44 210.649 1479.01 Q212.478 1482.55 216.089 1482.55 Q219.723 1482.55 221.528 1479.01 Q223.357 1475.44 223.357 1468.33 Q223.357 1461.2 221.528 1457.66 Q219.723 1454.1 216.089 1454.1 M216.089 1450.39 Q221.899 1450.39 224.954 1455 Q228.033 1459.58 228.033 1468.33 Q228.033 1477.06 224.954 1481.67 Q221.899 1486.25 216.089 1486.25 Q210.279 1486.25 207.2 1481.67 Q204.144 1477.06 204.144 1468.33 Q204.144 1459.58 207.2 1455 Q210.279 1450.39 216.089 1450.39 Z" fill="#000000" fill-rule="nonzero" fill-opacity="1" /><path clip-path="url(#clip600)" d="M622.195 1481.64 L638.515 1481.64 L638.515 1485.58 L616.57 1485.58 L616.57 1481.64 Q619.232 1478.89 623.816 1474.26 Q628.422 1469.61 629.603 1468.27 Q631.848 1465.74 632.728 1464.01 Q633.63 1462.25 633.63 1460.56 Q633.63 1457.8 631.686 1456.07 Q629.765 1454.33 626.663 1454.33 Q624.464 1454.33 622.01 1455.09 Q619.58 1455.86 616.802 1457.41 L616.802 1452.69 Q619.626 1451.55 622.08 1450.97 Q624.533 1450.39 626.57 1450.39 Q631.941 1450.39 635.135 1453.08 Q638.33 1455.77 638.33 1460.26 Q638.33 1462.39 637.519 1464.31 Q636.732 1466.2 634.626 1468.8 Q634.047 1469.47 630.945 1472.69 Q627.843 1475.88 622.195 1481.64 Z" fill="#000000" fill-rule="nonzero" fill-opacity="1" /><path clip-path="url(#clip600)" d="M658.329 1454.1 Q654.718 1454.1 652.89 1457.66 Q651.084 1461.2 651.084 1468.33 Q651.084 1475.44 652.89 1479.01 Q654.718 1482.55 658.329 1482.55 Q661.964 1482.55 663.769 1479.01 Q665.598 1475.44 665.598 1468.33 Q665.598 1461.2 663.769 1457.66 Q661.964 1454.1 658.329 1454.1 M658.329 1450.39 Q664.14 1450.39 667.195 1455 Q670.274 1459.58 670.274 1468.33 Q670.274 1477.06 667.195 1481.67 Q664.14 1486.25 658.329 1486.25 Q652.519 1486.25 649.441 1481.67 Q646.385 1477.06 646.385 1468.33 Q646.385 1459.58 649.441 1455 Q652.519 1450.39 658.329 1450.39 Z" fill="#000000" fill-rule="nonzero" fill-opacity="1" /><path clip-path="url(#clip600)" d="M1058.93 1455.09 L1047.12 1473.54 L1058.93 1473.54 L1058.93 1455.09 M1057.7 1451.02 L1063.58 1451.02 L1063.58 1473.54 L1068.51 1473.54 L1068.51 1477.43 L1063.58 1477.43 L1063.58 1485.58 L1058.93 1485.58 L1058.93 1477.43 L1043.33 1477.43 L1043.33 1472.92 L1057.7 1451.02 Z" fill="#000000" fill-rule="nonzero" fill-opacity="1" /><path clip-path="url(#clip600)" d="M1086.24 1454.1 Q1082.63 1454.1 1080.8 1457.66 Q1079 1461.2 1079 1468.33 Q1079 1475.44 1080.8 1479.01 Q1082.63 1482.55 1086.24 1482.55 Q1089.88 1482.55 1091.68 1479.01 Q1093.51 1475.44 1093.51 1468.33 Q1093.51 1461.2 1091.68 1457.66 Q1089.88 1454.1 1086.24 1454.1 M1086.24 1450.39 Q1092.05 1450.39 1095.11 1455 Q1098.19 1459.58 1098.19 1468.33 Q1098.19 1477.06 1095.11 1481.67 Q1092.05 1486.25 1086.24 1486.25 Q1080.43 1486.25 1077.35 1481.67 Q1074.3 1477.06 1074.3 1468.33 Q1074.3 1459.58 1077.35 1455 Q1080.43 1450.39 1086.24 1450.39 Z" fill="#000000" fill-rule="nonzero" fill-opacity="1" /><path clip-path="url(#clip600)" d="M1483.49 1466.44 Q1480.35 1466.44 1478.49 1468.59 Q1476.67 1470.74 1476.67 1474.49 Q1476.67 1478.22 1478.49 1480.39 Q1480.35 1482.55 1483.49 1482.55 Q1486.64 1482.55 1488.47 1480.39 Q1490.32 1478.22 1490.32 1474.49 Q1490.32 1470.74 1488.47 1468.59 Q1486.64 1466.44 1483.49 1466.44 M1492.78 1451.78 L1492.78 1456.04 Q1491.02 1455.21 1489.21 1454.77 Q1487.43 1454.33 1485.67 1454.33 Q1481.04 1454.33 1478.59 1457.45 Q1476.16 1460.58 1475.81 1466.9 Q1477.17 1464.89 1479.23 1463.82 Q1481.3 1462.73 1483.77 1462.73 Q1488.98 1462.73 1491.99 1465.9 Q1495.02 1469.05 1495.02 1474.49 Q1495.02 1479.82 1491.87 1483.03 Q1488.73 1486.25 1483.49 1486.25 Q1477.5 1486.25 1474.33 1481.67 Q1471.16 1477.06 1471.16 1468.33 Q1471.16 1460.14 1475.05 1455.28 Q1478.93 1450.39 1485.48 1450.39 Q1487.24 1450.39 1489.03 1450.74 Q1490.83 1451.09 1492.78 1451.78 Z" fill="#000000" fill-rule="nonzero" fill-opacity="1" /><path clip-path="url(#clip600)" d="M1513.08 1454.1 Q1509.47 1454.1 1507.64 1457.66 Q1505.83 1461.2 1505.83 1468.33 Q1505.83 1475.44 1507.64 1479.01 Q1509.47 1482.55 1513.08 1482.55 Q1516.71 1482.55 1518.52 1479.01 Q1520.35 1475.44 1520.35 1468.33 Q1520.35 1461.2 1518.52 1457.66 Q1516.71 1454.1 1513.08 1454.1 M1513.08 1450.39 Q1518.89 1450.39 1521.94 1455 Q1525.02 1459.58 1525.02 1468.33 Q1525.02 1477.06 1521.94 1481.67 Q1518.89 1486.25 1513.08 1486.25 Q1507.27 1486.25 1504.19 1481.67 Q1501.13 1477.06 1501.13 1468.33 Q1501.13 1459.58 1504.19 1455 Q1507.27 1450.39 1513.08 1450.39 Z" fill="#000000" fill-rule="nonzero" fill-opacity="1" /><path clip-path="url(#clip600)" d="M1910.3 1469.17 Q1906.96 1469.17 1905.04 1470.95 Q1903.14 1472.73 1903.14 1475.86 Q1903.14 1478.98 1905.04 1480.77 Q1906.96 1482.55 1910.3 1482.55 Q1913.63 1482.55 1915.55 1480.77 Q1917.47 1478.96 1917.47 1475.86 Q1917.47 1472.73 1915.55 1470.95 Q1913.65 1469.17 1910.3 1469.17 M1905.62 1467.18 Q1902.61 1466.44 1900.92 1464.38 Q1899.25 1462.32 1899.25 1459.35 Q1899.25 1455.21 1902.19 1452.8 Q1905.16 1450.39 1910.3 1450.39 Q1915.46 1450.39 1918.4 1452.8 Q1921.34 1455.21 1921.34 1459.35 Q1921.34 1462.32 1919.65 1464.38 Q1917.98 1466.44 1914.99 1467.18 Q1918.37 1467.96 1920.25 1470.26 Q1922.15 1472.55 1922.15 1475.86 Q1922.15 1480.88 1919.07 1483.57 Q1916.01 1486.25 1910.3 1486.25 Q1904.58 1486.25 1901.5 1483.57 Q1898.44 1480.88 1898.44 1475.86 Q1898.44 1472.55 1900.34 1470.26 Q1902.24 1467.96 1905.62 1467.18 M1903.91 1459.79 Q1903.91 1462.48 1905.57 1463.98 Q1907.26 1465.49 1910.3 1465.49 Q1913.3 1465.49 1914.99 1463.98 Q1916.71 1462.48 1916.71 1459.79 Q1916.71 1457.11 1914.99 1455.6 Q1913.3 1454.1 1910.3 1454.1 Q1907.26 1454.1 1905.57 1455.6 Q1903.91 1457.11 1903.91 1459.79 Z" fill="#000000" fill-rule="nonzero" fill-opacity="1" /><path clip-path="url(#clip600)" d="M1940.46 1454.1 Q1936.85 1454.1 1935.02 1457.66 Q1933.21 1461.2 1933.21 1468.33 Q1933.21 1475.44 1935.02 1479.01 Q1936.85 1482.55 1940.46 1482.55 Q1944.09 1482.55 1945.9 1479.01 Q1947.73 1475.44 1947.73 1468.33 Q1947.73 1461.2 1945.9 1457.66 Q1944.09 1454.1 1940.46 1454.1 M1940.46 1450.39 Q1946.27 1450.39 1949.32 1455 Q1952.4 1459.58 1952.4 1468.33 Q1952.4 1477.06 1949.32 1481.67 Q1946.27 1486.25 1940.46 1486.25 Q1934.65 1486.25 1931.57 1481.67 Q1928.51 1477.06 1928.51 1468.33 Q1928.51 1459.58 1931.57 1455 Q1934.65 1450.39 1940.46 1450.39 Z" fill="#000000" fill-rule="nonzero" fill-opacity="1" /><path clip-path="url(#clip600)" d="M2312.36 1481.64 L2320 1481.64 L2320 1455.28 L2311.69 1456.95 L2311.69 1452.69 L2319.96 1451.02 L2324.63 1451.02 L2324.63 1481.64 L2332.27 1481.64 L2332.27 1485.58 L2312.36 1485.58 L2312.36 1481.64 Z" fill="#000000" fill-rule="nonzero" fill-opacity="1" /><path clip-path="url(#clip600)" d="M2351.71 1454.1 Q2348.1 1454.1 2346.27 1457.66 Q2344.47 1461.2 2344.47 1468.33 Q2344.47 1475.44 2346.27 1479.01 Q2348.1 1482.55 2351.71 1482.55 Q2355.35 1482.55 2357.15 1479.01 Q2358.98 1475.44 2358.98 1468.33 Q2358.98 1461.2 2357.15 1457.66 Q2355.35 1454.1 2351.71 1454.1 M2351.71 1450.39 Q2357.52 1450.39 2360.58 1455 Q2363.66 1459.58 2363.66 1468.33 Q2363.66 1477.06 2360.58 1481.67 Q2357.52 1486.25 2351.71 1486.25 Q2345.9 1486.25 2342.83 1481.67 Q2339.77 1477.06 2339.77 1468.33 Q2339.77 1459.58 2342.83 1455 Q2345.9 1450.39 2351.71 1450.39 Z" fill="#000000" fill-rule="nonzero" fill-opacity="1" /><path clip-path="url(#clip600)" d="M2381.88 1454.1 Q2378.27 1454.1 2376.44 1457.66 Q2374.63 1461.2 2374.63 1468.33 Q2374.63 1475.44 2376.44 1479.01 Q2378.27 1482.55 2381.88 1482.55 Q2385.51 1482.55 2387.32 1479.01 Q2389.14 1475.44 2389.14 1468.33 Q2389.14 1461.2 2387.32 1457.66 Q2385.51 1454.1 2381.88 1454.1 M2381.88 1450.39 Q2387.69 1450.39 2390.74 1455 Q2393.82 1459.58 2393.82 1468.33 Q2393.82 1477.06 2390.74 1481.67 Q2387.69 1486.25 2381.88 1486.25 Q2376.07 1486.25 2372.99 1481.67 Q2369.93 1477.06 2369.93 1468.33 Q2369.93 1459.58 2372.99 1455 Q2376.07 1450.39 2381.88 1450.39 Z" fill="#000000" fill-rule="nonzero" fill-opacity="1" /><path clip-path="url(#clip600)" d="M1283.48 1522.27 L1283.48 1532.4 L1295.55 1532.4 L1295.55 1536.95 L1283.48 1536.95 L1283.48 1556.3 Q1283.48 1560.66 1284.66 1561.9 Q1285.87 1563.14 1289.53 1563.14 L1295.55 1563.14 L1295.55 1568.04 L1289.53 1568.04 Q1282.75 1568.04 1280.17 1565.53 Q1277.6 1562.98 1277.6 1556.3 L1277.6 1536.95 L1273.3 1536.95 L1273.3 1532.4 L1277.6 1532.4 L1277.6 1522.27 L1283.48 1522.27 Z" fill="#000000" fill-rule="nonzero" fill-opacity="1" /><polyline clip-path="url(#clip600)" style="stroke:#000000; stroke-linecap:round; stroke-linejoin:round; stroke-width:4; stroke-opacity:1; fill:none" points="216.089,1423.18 216.089,47.2441 "/>
<polyline clip-path="url(#clip600)" style="stroke:#000000; stroke-linecap:round; stroke-linejoin:round; stroke-width:4; stroke-opacity:1; fill:none" points="216.089,1188.94 234.986,1188.94 "/>
<polyline clip-path="url(#clip600)" style="stroke:#000000; stroke-linecap:round; stroke-linejoin:round; stroke-width:4; stroke-opacity:1; fill:none" points="216.089,925.026 234.986,925.026 "/>
<polyline clip-path="url(#clip600)" style="stroke:#000000; stroke-linecap:round; stroke-linejoin:round; stroke-width:4; stroke-opacity:1; fill:none" points="216.089,661.111 234.986,661.111 "/>
<polyline clip-path="url(#clip600)" style="stroke:#000000; stroke-linecap:round; stroke-linejoin:round; stroke-width:4; stroke-opacity:1; fill:none" points="216.089,397.196 234.986,397.196 "/>
<polyline clip-path="url(#clip600)" style="stroke:#000000; stroke-linecap:round; stroke-linejoin:round; stroke-width:4; stroke-opacity:1; fill:none" points="216.089,133.281 234.986,133.281 "/>
<path clip-path="url(#clip600)" d="M56.6171 1202.29 L72.9365 1202.29 L72.9365 1206.22 L50.9921 1206.22 L50.9921 1202.29 Q53.6541 1199.53 58.2375 1194.9 Q62.8439 1190.25 64.0245 1188.91 Q66.2698 1186.38 67.1494 1184.65 Q68.0522 1182.89 68.0522 1181.2 Q68.0522 1178.44 66.1078 1176.71 Q64.1865 1174.97 61.0847 1174.97 Q58.8856 1174.97 56.4319 1175.74 Q54.0014 1176.5 51.2236 1178.05 L51.2236 1173.33 Q54.0477 1172.19 56.5014 1171.61 Q58.955 1171.04 60.9921 1171.04 Q66.3624 1171.04 69.5568 1173.72 Q72.7513 1176.41 72.7513 1180.9 Q72.7513 1183.03 71.9411 1184.95 Q71.1541 1186.85 69.0476 1189.44 Q68.4689 1190.11 65.367 1193.33 Q62.2652 1196.52 56.6171 1202.29 Z" fill="#000000" fill-rule="nonzero" fill-opacity="1" /><path clip-path="url(#clip600)" d="M81.5707 1171.66 L103.793 1171.66 L103.793 1173.65 L91.2465 1206.22 L86.3623 1206.22 L98.1678 1175.6 L81.5707 1175.6 L81.5707 1171.66 Z" fill="#000000" fill-rule="nonzero" fill-opacity="1" /><path clip-path="url(#clip600)" d="M112.959 1171.66 L131.316 1171.66 L131.316 1175.6 L117.242 1175.6 L117.242 1184.07 Q118.26 1183.72 119.279 1183.56 Q120.297 1183.37 121.316 1183.37 Q127.103 1183.37 130.482 1186.55 Q133.862 1189.72 133.862 1195.13 Q133.862 1200.71 130.39 1203.81 Q126.918 1206.89 120.598 1206.89 Q118.422 1206.89 116.154 1206.52 Q113.908 1206.15 111.501 1205.41 L111.501 1200.71 Q113.584 1201.85 115.807 1202.4 Q118.029 1202.96 120.506 1202.96 Q124.51 1202.96 126.848 1200.85 Q129.186 1198.74 129.186 1195.13 Q129.186 1191.52 126.848 1189.42 Q124.51 1187.31 120.506 1187.31 Q118.631 1187.31 116.756 1187.73 Q114.904 1188.14 112.959 1189.02 L112.959 1171.66 Z" fill="#000000" fill-rule="nonzero" fill-opacity="1" /><path clip-path="url(#clip600)" d="M143.075 1200.34 L147.959 1200.34 L147.959 1206.22 L143.075 1206.22 L143.075 1200.34 Z" fill="#000000" fill-rule="nonzero" fill-opacity="1" /><path clip-path="url(#clip600)" d="M168.144 1174.74 Q164.533 1174.74 162.704 1178.3 Q160.899 1181.85 160.899 1188.98 Q160.899 1196.08 162.704 1199.65 Q164.533 1203.19 168.144 1203.19 Q171.779 1203.19 173.584 1199.65 Q175.413 1196.08 175.413 1188.98 Q175.413 1181.85 173.584 1178.3 Q171.779 1174.74 168.144 1174.74 M168.144 1171.04 Q173.954 1171.04 177.01 1175.64 Q180.089 1180.23 180.089 1188.98 Q180.089 1197.7 177.01 1202.31 Q173.954 1206.89 168.144 1206.89 Q162.334 1206.89 159.255 1202.31 Q156.2 1197.7 156.2 1188.98 Q156.2 1180.23 159.255 1175.64 Q162.334 1171.04 168.144 1171.04 Z" fill="#000000" fill-rule="nonzero" fill-opacity="1" /><path clip-path="url(#clip600)" d="M57.6125 938.371 L73.9318 938.371 L73.9318 942.306 L51.9875 942.306 L51.9875 938.371 Q54.6495 935.616 59.2328 930.987 Q63.8393 926.334 65.0198 924.991 Q67.2652 922.468 68.1448 920.732 Q69.0476 918.973 69.0476 917.283 Q69.0476 914.528 67.1032 912.792 Q65.1819 911.056 62.08 911.056 Q59.881 911.056 57.4273 911.82 Q54.9967 912.584 52.219 914.135 L52.219 909.413 Q55.043 908.278 57.4967 907.7 Q59.9504 907.121 61.9874 907.121 Q67.3578 907.121 70.5522 909.806 Q73.7466 912.491 73.7466 916.982 Q73.7466 919.112 72.9365 921.033 Q72.1494 922.931 70.0429 925.524 Q69.4642 926.195 66.3624 929.413 Q63.2606 932.607 57.6125 938.371 Z" fill="#000000" fill-rule="nonzero" fill-opacity="1" /><path clip-path="url(#clip600)" d="M82.566 907.746 L104.788 907.746 L104.788 909.737 L92.2419 942.306 L87.3577 942.306 L99.1632 911.681 L82.566 911.681 L82.566 907.746 Z" fill="#000000" fill-rule="nonzero" fill-opacity="1" /><path clip-path="url(#clip600)" d="M112.728 907.746 L134.95 907.746 L134.95 909.737 L122.404 942.306 L117.52 942.306 L129.325 911.681 L112.728 911.681 L112.728 907.746 Z" fill="#000000" fill-rule="nonzero" fill-opacity="1" /><path clip-path="url(#clip600)" d="M144.07 936.426 L148.955 936.426 L148.955 942.306 L144.07 942.306 L144.07 936.426 Z" fill="#000000" fill-rule="nonzero" fill-opacity="1" /><path clip-path="url(#clip600)" d="M159.186 907.746 L177.542 907.746 L177.542 911.681 L163.468 911.681 L163.468 920.153 Q164.487 919.806 165.505 919.644 Q166.524 919.459 167.542 919.459 Q173.329 919.459 176.709 922.63 Q180.089 925.801 180.089 931.218 Q180.089 936.797 176.616 939.899 Q173.144 942.977 166.825 942.977 Q164.649 942.977 162.38 942.607 Q160.135 942.237 157.728 941.496 L157.728 936.797 Q159.811 937.931 162.033 938.487 Q164.255 939.042 166.732 939.042 Q170.737 939.042 173.075 936.936 Q175.413 934.829 175.413 931.218 Q175.413 927.607 173.075 925.501 Q170.737 923.394 166.732 923.394 Q164.857 923.394 162.982 923.811 Q161.13 924.227 159.186 925.107 L159.186 907.746 Z" fill="#000000" fill-rule="nonzero" fill-opacity="1" /><path clip-path="url(#clip600)" d="M56.6171 674.456 L72.9365 674.456 L72.9365 678.391 L50.9921 678.391 L50.9921 674.456 Q53.6541 671.701 58.2375 667.072 Q62.8439 662.419 64.0245 661.076 Q66.2698 658.553 67.1494 656.817 Q68.0522 655.058 68.0522 653.368 Q68.0522 650.613 66.1078 648.877 Q64.1865 647.141 61.0847 647.141 Q58.8856 647.141 56.4319 647.905 Q54.0014 648.669 51.2236 650.22 L51.2236 645.498 Q54.0477 644.363 56.5014 643.785 Q58.955 643.206 60.9921 643.206 Q66.3624 643.206 69.5568 645.891 Q72.7513 648.576 72.7513 653.067 Q72.7513 655.197 71.9411 657.118 Q71.1541 659.016 69.0476 661.609 Q68.4689 662.28 65.367 665.497 Q62.2652 668.692 56.6171 674.456 Z" fill="#000000" fill-rule="nonzero" fill-opacity="1" /><path clip-path="url(#clip600)" d="M92.7512 661.979 Q89.4178 661.979 87.4966 663.761 Q85.5984 665.544 85.5984 668.669 Q85.5984 671.794 87.4966 673.576 Q89.4178 675.359 92.7512 675.359 Q96.0845 675.359 98.0058 673.576 Q99.927 671.771 99.927 668.669 Q99.927 665.544 98.0058 663.761 Q96.1076 661.979 92.7512 661.979 M88.0753 659.988 Q85.066 659.247 83.3762 657.187 Q81.7096 655.127 81.7096 652.164 Q81.7096 648.021 84.6494 645.613 Q87.6123 643.206 92.7512 643.206 Q97.9132 643.206 100.853 645.613 Q103.793 648.021 103.793 652.164 Q103.793 655.127 102.103 657.187 Q100.436 659.247 97.4502 659.988 Q100.83 660.775 102.705 663.067 Q104.603 665.359 104.603 668.669 Q104.603 673.692 101.524 676.377 Q98.4687 679.062 92.7512 679.062 Q87.0336 679.062 83.9549 676.377 Q80.8994 673.692 80.8994 668.669 Q80.8994 665.359 82.7975 663.067 Q84.6956 660.775 88.0753 659.988 M86.3623 652.604 Q86.3623 655.289 88.029 656.794 Q89.7188 658.298 92.7512 658.298 Q95.7604 658.298 97.4502 656.794 Q99.1632 655.289 99.1632 652.604 Q99.1632 649.919 97.4502 648.414 Q95.7604 646.91 92.7512 646.91 Q89.7188 646.91 88.029 648.414 Q86.3623 649.919 86.3623 652.604 Z" fill="#000000" fill-rule="nonzero" fill-opacity="1" /><path clip-path="url(#clip600)" d="M122.913 646.91 Q119.302 646.91 117.473 650.474 Q115.668 654.016 115.668 661.146 Q115.668 668.252 117.473 671.817 Q119.302 675.359 122.913 675.359 Q126.547 675.359 128.353 671.817 Q130.182 668.252 130.182 661.146 Q130.182 654.016 128.353 650.474 Q126.547 646.91 122.913 646.91 M122.913 643.206 Q128.723 643.206 131.779 647.812 Q134.857 652.396 134.857 661.146 Q134.857 669.872 131.779 674.479 Q128.723 679.062 122.913 679.062 Q117.103 679.062 114.024 674.479 Q110.969 669.872 110.969 661.146 Q110.969 652.396 114.024 647.812 Q117.103 643.206 122.913 643.206 Z" fill="#000000" fill-rule="nonzero" fill-opacity="1" /><path clip-path="url(#clip600)" d="M143.075 672.511 L147.959 672.511 L147.959 678.391 L143.075 678.391 L143.075 672.511 Z" fill="#000000" fill-rule="nonzero" fill-opacity="1" /><path clip-path="url(#clip600)" d="M168.144 646.91 Q164.533 646.91 162.704 650.474 Q160.899 654.016 160.899 661.146 Q160.899 668.252 162.704 671.817 Q164.533 675.359 168.144 675.359 Q171.779 675.359 173.584 671.817 Q175.413 668.252 175.413 661.146 Q175.413 654.016 173.584 650.474 Q171.779 646.91 168.144 646.91 M168.144 643.206 Q173.954 643.206 177.01 647.812 Q180.089 652.396 180.089 661.146 Q180.089 669.872 177.01 674.479 Q173.954 679.062 168.144 679.062 Q162.334 679.062 159.255 674.479 Q156.2 669.872 156.2 661.146 Q156.2 652.396 159.255 647.812 Q162.334 643.206 168.144 643.206 Z" fill="#000000" fill-rule="nonzero" fill-opacity="1" /><path clip-path="url(#clip600)" d="M57.6125 410.541 L73.9318 410.541 L73.9318 414.476 L51.9875 414.476 L51.9875 410.541 Q54.6495 407.786 59.2328 403.156 Q63.8393 398.504 65.0198 397.161 Q67.2652 394.638 68.1448 392.902 Q69.0476 391.143 69.0476 389.453 Q69.0476 386.698 67.1032 384.962 Q65.1819 383.226 62.08 383.226 Q59.881 383.226 57.4273 383.99 Q54.9967 384.754 52.219 386.305 L52.219 381.582 Q55.043 380.448 57.4967 379.87 Q59.9504 379.291 61.9874 379.291 Q67.3578 379.291 70.5522 381.976 Q73.7466 384.661 73.7466 389.152 Q73.7466 391.281 72.9365 393.203 Q72.1494 395.101 70.0429 397.693 Q69.4642 398.365 66.3624 401.582 Q63.2606 404.777 57.6125 410.541 Z" fill="#000000" fill-rule="nonzero" fill-opacity="1" /><path clip-path="url(#clip600)" d="M93.7465 398.064 Q90.4132 398.064 88.4919 399.846 Q86.5938 401.629 86.5938 404.754 Q86.5938 407.879 88.4919 409.661 Q90.4132 411.443 93.7465 411.443 Q97.0798 411.443 99.0011 409.661 Q100.922 407.855 100.922 404.754 Q100.922 401.629 99.0011 399.846 Q97.103 398.064 93.7465 398.064 M89.0706 396.073 Q86.0614 395.332 84.3716 393.272 Q82.7049 391.212 82.7049 388.249 Q82.7049 384.106 85.6447 381.698 Q88.6077 379.291 93.7465 379.291 Q98.9085 379.291 101.848 381.698 Q104.788 384.106 104.788 388.249 Q104.788 391.212 103.098 393.272 Q101.432 395.332 98.4456 396.073 Q101.825 396.86 103.7 399.152 Q105.598 401.443 105.598 404.754 Q105.598 409.777 102.52 412.462 Q99.4641 415.147 93.7465 415.147 Q88.029 415.147 84.9503 412.462 Q81.8947 409.777 81.8947 404.754 Q81.8947 401.443 83.7929 399.152 Q85.691 396.86 89.0706 396.073 M87.3577 388.689 Q87.3577 391.374 89.0243 392.879 Q90.7141 394.383 93.7465 394.383 Q96.7558 394.383 98.4456 392.879 Q100.159 391.374 100.159 388.689 Q100.159 386.004 98.4456 384.499 Q96.7558 382.995 93.7465 382.995 Q90.7141 382.995 89.0243 384.499 Q87.3577 386.004 87.3577 388.689 Z" fill="#000000" fill-rule="nonzero" fill-opacity="1" /><path clip-path="url(#clip600)" d="M117.936 410.541 L134.256 410.541 L134.256 414.476 L112.311 414.476 L112.311 410.541 Q114.973 407.786 119.557 403.156 Q124.163 398.504 125.344 397.161 Q127.589 394.638 128.469 392.902 Q129.371 391.143 129.371 389.453 Q129.371 386.698 127.427 384.962 Q125.506 383.226 122.404 383.226 Q120.205 383.226 117.751 383.99 Q115.32 384.754 112.543 386.305 L112.543 381.582 Q115.367 380.448 117.82 379.87 Q120.274 379.291 122.311 379.291 Q127.682 379.291 130.876 381.976 Q134.07 384.661 134.07 389.152 Q134.07 391.281 133.26 393.203 Q132.473 395.101 130.367 397.693 Q129.788 398.365 126.686 401.582 Q123.584 404.777 117.936 410.541 Z" fill="#000000" fill-rule="nonzero" fill-opacity="1" /><path clip-path="url(#clip600)" d="M144.07 408.596 L148.955 408.596 L148.955 414.476 L144.07 414.476 L144.07 408.596 Z" fill="#000000" fill-rule="nonzero" fill-opacity="1" /><path clip-path="url(#clip600)" d="M159.186 379.916 L177.542 379.916 L177.542 383.851 L163.468 383.851 L163.468 392.323 Q164.487 391.976 165.505 391.814 Q166.524 391.629 167.542 391.629 Q173.329 391.629 176.709 394.8 Q180.089 397.971 180.089 403.388 Q180.089 408.967 176.616 412.068 Q173.144 415.147 166.825 415.147 Q164.649 415.147 162.38 414.777 Q160.135 414.406 157.728 413.666 L157.728 408.967 Q159.811 410.101 162.033 410.656 Q164.255 411.212 166.732 411.212 Q170.737 411.212 173.075 409.105 Q175.413 406.999 175.413 403.388 Q175.413 399.777 173.075 397.67 Q170.737 395.564 166.732 395.564 Q164.857 395.564 162.982 395.981 Q161.13 396.397 159.186 397.277 L159.186 379.916 Z" fill="#000000" fill-rule="nonzero" fill-opacity="1" /><path clip-path="url(#clip600)" d="M56.6171 146.626 L72.9365 146.626 L72.9365 150.561 L50.9921 150.561 L50.9921 146.626 Q53.6541 143.871 58.2375 139.241 Q62.8439 134.589 64.0245 133.246 Q66.2698 130.723 67.1494 128.987 Q68.0522 127.228 68.0522 125.538 Q68.0522 122.783 66.1078 121.047 Q64.1865 119.311 61.0847 119.311 Q58.8856 119.311 56.4319 120.075 Q54.0014 120.839 51.2236 122.39 L51.2236 117.667 Q54.0477 116.533 56.5014 115.954 Q58.955 115.376 60.9921 115.376 Q66.3624 115.376 69.5568 118.061 Q72.7513 120.746 72.7513 125.237 Q72.7513 127.366 71.9411 129.288 Q71.1541 131.186 69.0476 133.778 Q68.4689 134.45 65.367 137.667 Q62.2652 140.862 56.6171 146.626 Z" fill="#000000" fill-rule="nonzero" fill-opacity="1" /><path clip-path="url(#clip600)" d="M92.7512 134.149 Q89.4178 134.149 87.4966 135.931 Q85.5984 137.714 85.5984 140.839 Q85.5984 143.964 87.4966 145.746 Q89.4178 147.528 92.7512 147.528 Q96.0845 147.528 98.0058 145.746 Q99.927 143.94 99.927 140.839 Q99.927 137.714 98.0058 135.931 Q96.1076 134.149 92.7512 134.149 M88.0753 132.158 Q85.066 131.417 83.3762 129.357 Q81.7096 127.297 81.7096 124.334 Q81.7096 120.191 84.6494 117.783 Q87.6123 115.376 92.7512 115.376 Q97.9132 115.376 100.853 117.783 Q103.793 120.191 103.793 124.334 Q103.793 127.297 102.103 129.357 Q100.436 131.417 97.4502 132.158 Q100.83 132.945 102.705 135.237 Q104.603 137.528 104.603 140.839 Q104.603 145.862 101.524 148.547 Q98.4687 151.232 92.7512 151.232 Q87.0336 151.232 83.9549 148.547 Q80.8994 145.862 80.8994 140.839 Q80.8994 137.528 82.7975 135.237 Q84.6956 132.945 88.0753 132.158 M86.3623 124.774 Q86.3623 127.459 88.029 128.964 Q89.7188 130.468 92.7512 130.468 Q95.7604 130.468 97.4502 128.964 Q99.1632 127.459 99.1632 124.774 Q99.1632 122.089 97.4502 120.584 Q95.7604 119.079 92.7512 119.079 Q89.7188 119.079 88.029 120.584 Q86.3623 122.089 86.3623 124.774 Z" fill="#000000" fill-rule="nonzero" fill-opacity="1" /><path clip-path="url(#clip600)" d="M112.959 116.001 L131.316 116.001 L131.316 119.936 L117.242 119.936 L117.242 128.408 Q118.26 128.061 119.279 127.899 Q120.297 127.714 121.316 127.714 Q127.103 127.714 130.482 130.885 Q133.862 134.056 133.862 139.473 Q133.862 145.051 130.39 148.153 Q126.918 151.232 120.598 151.232 Q118.422 151.232 116.154 150.862 Q113.908 150.491 111.501 149.751 L111.501 145.051 Q113.584 146.186 115.807 146.741 Q118.029 147.297 120.506 147.297 Q124.51 147.297 126.848 145.19 Q129.186 143.084 129.186 139.473 Q129.186 135.862 126.848 133.755 Q124.51 131.649 120.506 131.649 Q118.631 131.649 116.756 132.065 Q114.904 132.482 112.959 133.362 L112.959 116.001 Z" fill="#000000" fill-rule="nonzero" fill-opacity="1" /><path clip-path="url(#clip600)" d="M143.075 144.681 L147.959 144.681 L147.959 150.561 L143.075 150.561 L143.075 144.681 Z" fill="#000000" fill-rule="nonzero" fill-opacity="1" /><path clip-path="url(#clip600)" d="M168.144 119.079 Q164.533 119.079 162.704 122.644 Q160.899 126.186 160.899 133.315 Q160.899 140.422 162.704 143.987 Q164.533 147.528 168.144 147.528 Q171.779 147.528 173.584 143.987 Q175.413 140.422 175.413 133.315 Q175.413 126.186 173.584 122.644 Q171.779 119.079 168.144 119.079 M168.144 115.376 Q173.954 115.376 177.01 119.982 Q180.089 124.565 180.089 133.315 Q180.089 142.042 177.01 146.649 Q173.954 151.232 168.144 151.232 Q162.334 151.232 159.255 146.649 Q156.2 142.042 156.2 133.315 Q156.2 124.565 159.255 119.982 Q162.334 115.376 168.144 115.376 Z" fill="#000000" fill-rule="nonzero" fill-opacity="1" /><polyline clip-path="url(#clip602)" style="stroke:#009af9; stroke-linecap:round; stroke-linejoin:round; stroke-width:4; stroke-opacity:1; fill:none" points="216.089,1384.24 218.227,1382.82 220.366,1381.37 222.505,1379.91 224.644,1378.43 226.783,1376.93 228.921,1375.42 231.06,1373.9 233.199,1372.36 235.338,1370.82 237.477,1369.26 239.616,1367.7 241.754,1366.13 243.893,1364.55 246.032,1362.97 248.171,1361.39 250.31,1359.8 252.448,1358.2 254.587,1356.6 256.726,1355 258.865,1353.4 261.004,1351.79 263.142,1350.18 265.281,1348.57 267.42,1346.96 269.559,1345.34 271.698,1343.73 273.836,1342.11 275.975,1340.49 278.114,1338.87 280.253,1337.26 282.392,1335.64 284.53,1334.01 286.669,1332.39 288.808,1330.77 290.947,1329.15 293.086,1327.53 295.224,1325.9 297.363,1324.28 299.502,1322.66 301.641,1321.03 303.78,1319.41 305.919,1317.78 308.057,1316.16 310.196,1314.53 312.335,1312.9 314.474,1311.28 316.613,1309.65 318.751,1308.02 320.89,1306.4 323.029,1304.77 325.168,1303.14 327.307,1301.51 329.445,1299.88 331.584,1298.25 333.723,1296.62 335.862,1294.99 338.001,1293.36 340.139,1291.73 342.278,1290.09 344.417,1288.46 346.556,1286.82 348.695,1285.19 350.833,1283.55 352.972,1281.92 355.111,1280.28 357.25,1278.64 359.389,1277 361.527,1275.36 363.666,1273.72 365.805,1272.08 367.944,1270.44 370.083,1268.8 372.221,1267.15 374.36,1265.51 376.499,1263.86 378.638,1262.21 380.777,1260.56 382.916,1258.91 385.054,1257.26 387.193,1255.61 389.332,1253.96 391.471,1252.3 393.61,1250.65 395.748,1248.99 397.887,1247.33 400.026,1245.67 402.165,1244.01 404.304,1242.34 406.442,1240.68 408.581,1239.01 410.72,1237.35 412.859,1235.68 414.998,1234.01 417.136,1232.34 419.275,1230.66 421.414,1228.99 423.553,1227.31 425.692,1225.63 427.83,1223.96 429.969,1222.27 432.108,1220.59 434.247,1218.91 436.386,1217.22 438.524,1215.53 440.663,1213.84 442.802,1212.15 444.941,1210.46 447.08,1208.76 449.219,1207.06 451.357,1205.37 453.496,1203.66 455.635,1201.96 457.774,1200.26 459.913,1198.55 462.051,1196.84 464.19,1195.13 466.329,1193.42 468.468,1191.71 470.607,1189.99 472.745,1188.28 474.884,1186.56 477.023,1184.84 479.162,1183.11 481.301,1181.39 483.439,1179.66 485.578,1177.93 487.717,1176.2 489.856,1174.47 491.995,1172.74 494.133,1171 496.272,1169.26 498.411,1167.52 500.55,1165.78 502.689,1164.04 504.827,1162.29 506.966,1160.54 509.105,1158.8 511.244,1157.05 513.383,1155.29 515.522,1153.54 517.66,1151.78 519.799,1150.03 521.938,1148.27 524.077,1146.51 526.216,1144.75 528.354,1142.98 530.493,1141.22 532.632,1139.45 534.771,1137.68 536.91,1135.91 539.048,1134.14 541.187,1132.37 543.326,1130.6 545.465,1128.82 547.604,1127.05 549.742,1125.27 551.881,1123.49 554.02,1121.71 556.159,1119.93 558.298,1118.15 560.436,1116.37 562.575,1114.59 564.714,1112.8 566.853,1111.02 568.992,1109.23 571.13,1107.45 573.269,1105.66 575.408,1103.87 577.547,1102.09 579.686,1100.3 581.824,1098.51 583.963,1096.72 586.102,1094.93 588.241,1093.15 590.38,1091.36 592.519,1089.57 594.657,1087.78 596.796,1086 598.935,1084.21 601.074,1082.42 603.213,1080.64 605.351,1078.85 607.49,1077.07 609.629,1075.28 611.768,1073.5 613.907,1071.72 616.045,1069.94 618.184,1068.16 620.323,1066.38 622.462,1064.6 624.601,1062.83 626.739,1061.06 628.878,1059.29 631.017,1057.52 633.156,1055.75 635.295,1053.98 637.433,1052.22 639.572,1050.46 641.711,1048.7 643.85,1046.95 645.989,1045.19 648.127,1043.44 650.266,1041.69 652.405,1039.95 654.544,1038.21 656.683,1036.47 658.822,1034.74 660.96,1033.01 663.099,1031.28 665.238,1029.56 667.377,1027.84 669.516,1026.13 671.654,1024.41 673.793,1022.71 675.932,1021.01 678.071,1019.31 680.21,1017.62 682.348,1015.93 684.487,1014.25 686.626,1012.57 688.765,1010.9 690.904,1009.23 693.042,1007.57 695.181,1005.92 697.32,1004.27 699.459,1002.62 701.598,1000.99 703.736,999.354 705.875,997.729 708.014,996.111 710.153,994.499 712.292,992.893 714.43,991.294 716.569,989.703 718.708,988.118 720.847,986.54 722.986,984.97 725.124,983.407 727.263,981.851 729.402,980.303 731.541,978.763 733.68,977.231 735.819,975.707 737.957,974.19 740.096,972.682 742.235,971.181 744.374,969.689 746.513,968.205 748.651,966.729 750.79,965.261 752.929,963.803 755.068,962.352 757.207,960.911 759.345,959.478 761.484,958.054 763.623,956.639 765.762,955.233 767.901,953.835 770.039,952.447 772.178,951.067 774.317,949.696 776.456,948.334 778.595,946.982 780.733,945.638 782.872,944.303 785.011,942.977 787.15,941.66 789.289,940.352 791.427,939.053 793.566,937.763 795.705,936.482 797.844,935.21 799.983,933.946 802.122,932.691 804.26,931.445 806.399,930.208 808.538,928.979 810.677,927.759 812.816,926.547 814.954,925.343 817.093,924.148 819.232,922.96 821.371,921.781 823.51,920.609 825.648,919.445 827.787,918.289 829.926,917.14 832.065,915.998 834.204,914.864 836.342,913.736 838.481,912.615 840.62,911.501 842.759,910.394 844.898,909.293 847.036,908.198 849.175,907.109 851.314,906.027 853.453,904.949 855.592,903.877 857.73,902.81 859.869,901.748 862.008,900.69 864.147,899.637 866.286,898.587 868.425,897.541 870.563,896.499 872.702,895.46 874.841,894.424 876.98,893.39 879.119,892.36 881.257,891.332 883.396,890.305 885.535,889.281 887.674,888.258 889.813,887.236 891.951,886.214 894.09,885.193 896.229,884.172 898.368,883.151 900.507,882.129 902.645,881.107 904.784,880.083 906.923,879.059 909.062,878.032 911.201,877.004 913.339,875.974 915.478,874.941 917.617,873.905 919.756,872.866 921.895,871.823 924.033,870.777 926.172,869.726 928.311,868.67 930.45,867.609 932.589,866.544 934.727,865.473 936.866,864.397 939.005,863.315 941.144,862.227 943.283,861.132 945.422,860.031 947.56,858.922 949.699,857.807 951.838,856.684 953.977,855.553 956.116,854.414 958.254,853.266 960.393,852.111 962.532,850.946 964.671,849.773 966.81,848.592 968.948,847.401 971.087,846.201 973.226,844.991 975.365,843.772 977.504,842.543 979.642,841.304 981.781,840.055 983.92,838.796 986.059,837.527 988.198,836.247 990.336,834.957 992.475,833.657 994.614,832.347 996.753,831.027 998.892,829.696 1001.03,828.354 1003.17,827.003 1005.31,825.641 1007.45,824.269 1009.59,822.887 1011.72,821.495 1013.86,820.093 1016,818.681 1018.14,817.259 1020.28,815.828 1022.42,814.388 1024.56,812.938 1026.7,811.479 1028.83,810.012 1030.97,808.536 1033.11,807.052 1035.25,805.56 1037.39,804.06 1039.53,802.552 1041.67,801.038 1043.81,799.516 1045.95,797.989 1048.08,796.455 1050.22,794.916 1052.36,793.371 1054.5,791.82 1056.64,790.265 1058.78,788.705 1060.92,787.141 1063.06,785.574 1065.19,784.003 1067.33,782.43 1069.47,780.855 1071.61,779.278 1073.75,777.7 1075.89,776.122 1078.03,774.543 1080.17,772.965 1082.31,771.388 1084.44,769.811 1086.58,768.236 1088.72,766.664 1090.86,765.093 1093,763.526 1095.14,761.962 1097.28,760.403 1099.42,758.848 1101.55,757.298 1103.69,755.754 1105.83,754.217 1107.97,752.685 1110.11,751.161 1112.25,749.645 1114.39,748.136 1116.53,746.635 1118.66,745.143 1120.8,743.66 1122.94,742.186 1125.08,740.723 1127.22,739.27 1129.36,737.828 1131.5,736.397 1133.64,734.978 1135.78,733.571 1137.91,732.176 1140.05,730.793 1142.19,729.422 1144.33,728.065 1146.47,726.72 1148.61,725.389 1150.75,724.071 1152.89,722.767 1155.02,721.477 1157.16,720.201 1159.3,718.938 1161.44,717.69 1163.58,716.456 1165.72,715.236 1167.86,714.03 1170,712.839 1172.13,711.661 1174.27,710.497 1176.41,709.347 1178.55,708.21 1180.69,707.087 1182.83,705.977 1184.97,704.881 1187.11,703.797 1189.25,702.726 1191.38,701.667 1193.52,700.62 1195.66,699.585 1197.8,698.561 1199.94,697.547 1202.08,696.545 1204.22,695.552 1206.36,694.569 1208.49,693.595 1210.63,692.629 1212.77,691.671 1214.91,690.721 1217.05,689.777 1219.19,688.84 1221.33,687.908 1223.47,686.982 1225.61,686.06 1227.74,685.143 1229.88,684.229 1232.02,683.317 1234.16,682.408 1236.3,681.5 1238.44,680.592 1240.58,679.685 1242.72,678.776 1244.85,677.866 1246.99,676.953 1249.13,676.038 1251.27,675.12 1253.41,674.198 1255.55,673.271 1257.69,672.339 1259.83,671.401 1261.96,670.456 1264.1,669.504 1266.24,668.544 1268.38,667.576 1270.52,666.599 1272.66,665.612 1274.8,664.615 1276.94,663.608 1279.08,662.589 1281.21,661.56 1283.35,660.519 1285.49,659.466 1287.63,658.4 1289.77,657.321 1291.91,656.229 1294.05,655.123 1296.19,654.004 1298.32,652.871 1300.46,651.723 1302.6,650.562 1304.74,649.386 1306.88,648.196 1309.02,646.992 1311.16,645.774 1313.3,644.541 1315.43,643.294 1317.57,642.034 1319.71,640.759 1321.85,639.471 1323.99,638.169 1326.13,636.855 1328.27,635.527 1330.41,634.188 1332.55,632.836 1334.68,631.474 1336.82,630.1 1338.96,628.715 1341.1,627.321 1343.24,625.917 1345.38,624.505 1347.52,623.085 1349.66,621.658 1351.79,620.223 1353.93,618.783 1356.07,617.337 1358.21,615.887 1360.35,614.432 1362.49,612.975 1364.63,611.515 1366.77,610.053 1368.91,608.591 1371.04,607.13 1373.18,605.67 1375.32,604.212 1377.46,602.757 1379.6,601.306 1381.74,599.859 1383.88,598.418 1386.02,596.982 1388.15,595.554 1390.29,594.133 1392.43,592.721 1394.57,591.318 1396.71,589.925 1398.85,588.543 1400.99,587.173 1403.13,585.814 1405.26,584.469 1407.4,583.136 1409.54,581.818 1411.68,580.513 1413.82,579.224 1415.96,577.95 1418.1,576.691 1420.24,575.449 1422.38,574.223 1424.51,573.014 1426.65,571.821 1428.79,570.646 1430.93,569.488 1433.07,568.347 1435.21,567.223 1437.35,566.116 1439.49,565.026 1441.62,563.953 1443.76,562.896 1445.9,561.857 1448.04,560.833 1450.18,559.825 1452.32,558.832 1454.46,557.855 1456.6,556.891 1458.73,555.942 1460.87,555.006 1463.01,554.082 1465.15,553.17 1467.29,552.27 1469.43,551.38 1471.57,550.499 1473.71,549.627 1475.85,548.762 1477.98,547.905 1480.12,547.053 1482.26,546.207 1484.4,545.366 1486.54,544.528 1488.68,543.692 1490.82,542.858 1492.96,542.025 1495.09,541.19 1497.23,540.354 1499.37,539.514 1501.51,538.67 1503.65,537.822 1505.79,536.967 1507.93,536.106 1510.07,535.237 1512.21,534.359 1514.34,533.473 1516.48,532.576 1518.62,531.668 1520.76,530.748 1522.9,529.816 1525.04,528.87 1527.18,527.911 1529.32,526.936 1531.45,525.947 1533.59,524.943 1535.73,523.923 1537.87,522.887 1540.01,521.835 1542.15,520.766 1544.29,519.68 1546.43,518.577 1548.56,517.457 1550.7,516.32 1552.84,515.166 1554.98,513.995 1557.12,512.809 1559.26,511.606 1561.4,510.387 1563.54,509.153 1565.68,507.904 1567.81,506.642 1569.95,505.365 1572.09,504.076 1574.23,502.774 1576.37,501.461 1578.51,500.138 1580.65,498.805 1582.79,497.464 1584.92,496.114 1587.06,494.758 1589.2,493.396 1591.34,492.029 1593.48,490.659 1595.62,489.287 1597.76,487.913 1599.9,486.54 1602.03,485.168 1604.17,483.799 1606.31,482.433 1608.45,481.071 1610.59,479.715 1612.73,478.366 1614.87,477.025 1617.01,475.693 1619.15,474.371 1621.28,473.06 1623.42,471.762 1625.56,470.477 1627.7,469.206 1629.84,467.949 1631.98,466.708 1634.12,465.484 1636.26,464.276 1638.39,463.085 1640.53,461.912 1642.67,460.758 1644.81,459.622 1646.95,458.506 1649.09,457.409 1651.23,456.331 1653.37,455.272 1655.51,454.233 1657.64,453.213 1659.78,452.212 1661.92,451.23 1664.06,450.265 1666.2,449.319 1668.34,448.39 1670.48,447.477 1672.62,446.581 1674.75,445.7 1676.89,444.833 1679.03,443.979 1681.17,443.139 1683.31,442.309 1685.45,441.49 1687.59,440.681 1689.73,439.879 1691.86,439.085 1694,438.296 1696.14,437.511 1698.28,436.729 1700.42,435.949 1702.56,435.169 1704.7,434.389 1706.84,433.607 1708.98,432.822 1711.11,432.032 1713.25,431.236 1715.39,430.433 1717.53,429.621 1719.67,428.799 1721.81,427.966 1723.95,427.122 1726.09,426.264 1728.22,425.393 1730.36,424.507 1732.5,423.606 1734.64,422.689 1736.78,421.755 1738.92,420.803 1741.06,419.833 1743.2,418.845 1745.33,417.838 1747.47,416.812 1749.61,415.767 1751.75,414.704 1753.89,413.621 1756.03,412.521 1758.17,411.401 1760.31,410.264 1762.45,409.11 1764.58,407.938 1766.72,406.75 1768.86,405.547 1771,404.33 1773.14,403.098 1775.28,401.854 1777.42,400.599 1779.56,399.333 1781.69,398.058 1783.83,396.775 1785.97,395.485 1788.11,394.191 1790.25,392.893 1792.39,391.593 1794.53,390.291 1796.67,388.99 1798.81,387.691 1800.94,386.396 1803.08,385.104 1805.22,383.819 1807.36,382.542 1809.5,381.273 1811.64,380.015 1813.78,378.77 1815.92,377.537 1818.05,376.319 1820.19,375.117 1822.33,373.93 1824.47,372.76 1826.61,371.609 1828.75,370.476 1830.89,369.362 1833.03,368.268 1835.16,367.195 1837.3,366.143 1839.44,365.111 1841.58,364.101 1843.72,363.112 1845.86,362.143 1848,361.195 1850.14,360.267 1852.28,359.359 1854.41,358.47 1856.55,357.599 1858.69,356.747 1860.83,355.911 1862.97,355.09 1865.11,354.285 1867.25,353.493 1869.39,352.713 1871.52,351.944 1873.66,351.185 1875.8,350.434 1877.94,349.689 1880.08,348.949 1882.22,348.213 1884.36,347.478 1886.5,346.743 1888.63,346.007 1890.77,345.268 1892.91,344.524 1895.05,343.775 1897.19,343.018 1899.33,342.252 1901.47,341.476 1903.61,340.688 1905.75,339.886 1907.88,339.07 1910.02,338.238 1912.16,337.389 1914.3,336.523 1916.44,335.639 1918.58,334.736 1920.72,333.814 1922.86,332.871 1924.99,331.909 1927.13,330.926 1929.27,329.922 1931.41,328.898 1933.55,327.853 1935.69,326.789 1937.83,325.706 1939.97,324.604 1942.11,323.484 1944.24,322.347 1946.38,321.193 1948.52,320.025 1950.66,318.842 1952.8,317.647 1954.94,316.441 1957.08,315.225 1959.22,314.001 1961.35,312.77 1963.49,311.534 1965.63,310.295 1967.77,309.053 1969.91,307.812 1972.05,306.574 1974.19,305.338 1976.33,304.109 1978.46,302.886 1980.6,301.673 1982.74,300.469 1984.88,299.277 1987.02,298.098 1989.16,296.934 1991.3,295.786 1993.44,294.655 1995.58,293.543 1997.71,292.451 1999.85,291.379 2001.99,290.327 2004.13,289.297 2006.27,288.289 2008.41,287.303 2010.55,286.339 2012.69,285.397 2014.82,284.478 2016.96,283.581 2019.1,282.705 2021.24,281.85 2023.38,281.015 2025.52,280.199 2027.66,279.401 2029.8,278.62 2031.93,277.854 2034.07,277.103 2036.21,276.365 2038.35,275.638 2040.49,274.921 2042.63,274.211 2044.77,273.507 2046.91,272.807 2049.05,272.11 2051.18,271.414 2053.32,270.716 2055.46,270.015 2057.6,269.31 2059.74,268.597 2061.88,267.876 2064.02,267.144 2066.16,266.4 2068.29,265.642 2070.43,264.869 2072.57,264.08 2074.71,263.274 2076.85,262.449 2078.99,261.605 2081.13,260.741 2083.27,259.855 2085.41,258.949 2087.54,258.02 2089.68,257.07 2091.82,256.098 2093.96,255.105 2096.1,254.091 2098.24,253.056 2100.38,252.002 2102.52,250.928 2104.65,249.836 2106.79,248.728 2108.93,247.604 2111.07,246.466 2113.21,245.316 2115.35,244.154 2117.49,242.984 2119.63,241.806 2121.76,240.623 2123.9,239.436 2126.04,238.248 2128.18,237.06 2130.32,235.876 2132.46,234.696 2134.6,233.522 2136.74,232.357 2138.88,231.202 2141.01,230.059 2143.15,228.93 2145.29,227.815 2147.43,226.718 2149.57,225.639 2151.71,224.579 2153.85,223.541 2155.99,222.525 2158.12,221.53 2160.26,220.559 2162.4,219.61 2164.54,218.685 2166.68,217.783 2168.82,216.904 2170.96,216.049 2173.1,215.215 2175.24,214.404 2177.37,213.613 2179.51,212.842 2181.65,212.089 2183.79,211.353 2185.93,210.633 2188.07,209.926 2190.21,209.232 2192.35,208.548 2194.48,207.872 2196.62,207.202 2198.76,206.536 2200.9,205.872 2203.04,205.208 2205.18,204.541 2207.32,203.871 2209.46,203.195 2211.59,202.51 2213.73,201.815 2215.87,201.107 2218.01,200.385 2220.15,199.647 2222.29,198.892 2224.43,198.119 2226.57,197.326 2228.71,196.512 2230.84,195.677 2232.98,194.82 2235.12,193.94 2237.26,193.038 2239.4,192.113 2241.54,191.165 2243.68,190.194 2245.82,189.203 2247.95,188.19 2250.09,187.158 2252.23,186.108 2254.37,185.04 2256.51,183.956 2258.65,182.858 2260.79,181.748 2262.93,180.627 2265.06,179.498 2267.2,178.363 2269.34,177.224 2271.48,176.083 2273.62,174.942 2275.76,173.804 2277.9,172.671 2280.04,171.544 2282.18,170.428 2284.31,169.323 2286.45,168.231 2288.59,167.154 2290.73,166.095 2292.87,165.053 2295.01,164.032 2297.15,163.031 2299.29,162.052 2301.42,161.097 2303.56,160.166 2305.7,159.259 2307.84,158.376 2309.98,157.518 2312.12,156.684 2314.26,155.873 2316.4,155.085 2318.54,154.319 2320.67,153.573 2322.81,152.848 2324.95,152.14 2327.09,151.449 2329.23,150.772 2331.37,150.108 2333.51,149.455 2335.65,148.809 2337.78,148.17 2339.92,147.534 2342.06,146.9 2344.2,146.265 2346.34,145.626 2348.48,144.981 2350.62,144.329 2352.76,143.666 "/>
<polyline clip-path="url(#clip602)" style="stroke:#e26f46; stroke-linecap:round; stroke-linejoin:round; stroke-width:4; stroke-opacity:1; fill:none" points="216.089,1384.24 218.227,1382.48 220.366,1380.72 222.505,1378.96 224.644,1377.2 226.783,1375.45 228.921,1373.69 231.06,1371.94 233.199,1370.18 235.338,1368.43 237.477,1366.68 239.616,1364.93 241.754,1363.18 243.893,1361.43 246.032,1359.68 248.171,1357.93 250.31,1356.19 252.448,1354.44 254.587,1352.69 256.726,1350.95 258.865,1349.2 261.004,1347.46 263.142,1345.71 265.281,1343.97 267.42,1342.23 269.559,1340.48 271.698,1338.74 273.836,1337 275.975,1335.25 278.114,1333.51 280.253,1331.77 282.392,1330.03 284.53,1328.29 286.669,1326.54 288.808,1324.8 290.947,1323.06 293.086,1321.32 295.224,1319.58 297.363,1317.83 299.502,1316.09 301.641,1314.35 303.78,1312.61 305.919,1310.86 308.057,1309.12 310.196,1307.38 312.335,1305.63 314.474,1303.89 316.613,1302.14 318.751,1300.4 320.89,1298.65 323.029,1296.9 325.168,1295.16 327.307,1293.41 329.445,1291.66 331.584,1289.91 333.723,1288.16 335.862,1286.41 338.001,1284.66 340.139,1282.91 342.278,1281.15 344.417,1279.4 346.556,1277.64 348.695,1275.89 350.833,1274.13 352.972,1272.37 355.111,1270.61 357.25,1268.86 359.389,1267.09 361.527,1265.33 363.666,1263.57 365.805,1261.8 367.944,1260.04 370.083,1258.27 372.221,1256.5 374.36,1254.73 376.499,1252.96 378.638,1251.19 380.777,1249.42 382.916,1247.64 385.054,1245.87 387.193,1244.09 389.332,1242.31 391.471,1240.53 393.61,1238.75 395.748,1236.96 397.887,1235.18 400.026,1233.39 402.165,1231.6 404.304,1229.81 406.442,1228.02 408.581,1226.22 410.72,1224.43 412.859,1222.63 414.998,1220.83 417.136,1219.03 419.275,1217.23 421.414,1215.42 423.553,1213.61 425.692,1211.81 427.83,1210 429.969,1208.18 432.108,1206.37 434.247,1204.55 436.386,1202.74 438.524,1200.92 440.663,1199.1 442.802,1197.27 444.941,1195.45 447.08,1193.62 449.219,1191.79 451.357,1189.96 453.496,1188.13 455.635,1186.29 457.774,1184.45 459.913,1182.62 462.051,1180.77 464.19,1178.93 466.329,1177.09 468.468,1175.24 470.607,1173.39 472.745,1171.54 474.884,1169.69 477.023,1167.83 479.162,1165.98 481.301,1164.12 483.439,1162.26 485.578,1160.39 487.717,1158.53 489.856,1156.66 491.995,1154.8 494.133,1152.93 496.272,1151.05 498.411,1149.18 500.55,1147.31 502.689,1145.43 504.827,1143.55 506.966,1141.67 509.105,1139.79 511.244,1137.91 513.383,1136.02 515.522,1134.13 517.66,1132.25 519.799,1130.36 521.938,1128.47 524.077,1126.57 526.216,1124.68 528.354,1122.78 530.493,1120.89 532.632,1118.99 534.771,1117.09 536.91,1115.19 539.048,1113.29 541.187,1111.39 543.326,1109.49 545.465,1107.59 547.604,1105.68 549.742,1103.78 551.881,1101.87 554.02,1099.97 556.159,1098.06 558.298,1096.16 560.436,1094.25 562.575,1092.34 564.714,1090.43 566.853,1088.53 568.992,1086.62 571.13,1084.71 573.269,1082.81 575.408,1080.9 577.547,1078.99 579.686,1077.09 581.824,1075.18 583.963,1073.28 586.102,1071.37 588.241,1069.47 590.38,1067.57 592.519,1065.66 594.657,1063.76 596.796,1061.86 598.935,1059.97 601.074,1058.07 603.213,1056.17 605.351,1054.28 607.49,1052.39 609.629,1050.5 611.768,1048.61 613.907,1046.72 616.045,1044.84 618.184,1042.96 620.323,1041.08 622.462,1039.21 624.601,1037.34 626.739,1035.47 628.878,1033.6 631.017,1031.74 633.156,1029.88 635.295,1028.02 637.433,1026.17 639.572,1024.32 641.711,1022.48 643.85,1020.64 645.989,1018.8 648.127,1016.97 650.266,1015.15 652.405,1013.33 654.544,1011.51 656.683,1009.7 658.822,1007.89 660.96,1006.09 663.099,1004.29 665.238,1002.5 667.377,1000.72 669.516,998.938 671.654,997.164 673.793,995.397 675.932,993.635 678.071,991.88 680.21,990.132 682.348,988.389 684.487,986.654 686.626,984.925 688.765,983.203 690.904,981.488 693.042,979.78 695.181,978.08 697.32,976.387 699.459,974.701 701.598,973.023 703.736,971.353 705.875,969.691 708.014,968.037 710.153,966.39 712.292,964.753 714.43,963.123 716.569,961.502 718.708,959.89 720.847,958.286 722.986,956.691 725.124,955.105 727.263,953.529 729.402,951.961 731.541,950.403 733.68,948.854 735.819,947.315 737.957,945.786 740.096,944.266 742.235,942.756 744.374,941.255 746.513,939.765 748.651,938.283 750.79,936.812 752.929,935.35 755.068,933.899 757.207,932.457 759.345,931.025 761.484,929.603 763.623,928.19 765.762,926.788 767.901,925.395 770.039,924.013 772.178,922.64 774.317,921.277 776.456,919.924 778.595,918.581 780.733,917.248 782.872,915.924 785.011,914.609 787.15,913.305 789.289,912.009 791.427,910.723 793.566,909.447 795.705,908.179 797.844,906.921 799.983,905.671 802.122,904.43 804.26,903.198 806.399,901.975 808.538,900.76 810.677,899.553 812.816,898.355 814.954,897.164 817.093,895.981 819.232,894.806 821.371,893.638 823.51,892.477 825.648,891.323 827.787,890.177 829.926,889.036 832.065,887.902 834.204,886.775 836.342,885.653 838.481,884.536 840.62,883.425 842.759,882.32 844.898,881.219 847.036,880.123 849.175,879.031 851.314,877.943 853.453,876.858 855.592,875.778 857.73,874.701 859.869,873.63 862.008,872.563 864.147,871.499 866.286,870.439 868.425,869.381 870.563,868.326 872.702,867.271 874.841,866.218 876.98,865.165 879.119,864.113 881.257,863.059 883.396,862.005 885.535,860.949 887.674,859.892 889.813,858.832 891.951,857.769 894.09,856.703 896.229,855.633 898.368,854.56 900.507,853.482 902.645,852.399 904.784,851.311 906.923,850.217 909.062,849.118 911.201,848.013 913.339,846.901 915.478,845.782 917.617,844.656 919.756,843.523 921.895,842.382 924.033,841.233 926.172,840.076 928.311,838.911 930.45,837.737 932.589,836.554 934.727,835.362 936.866,834.161 939.005,832.95 941.144,831.729 943.283,830.499 945.422,829.259 947.56,828.008 949.699,826.747 951.838,825.476 953.977,824.195 956.116,822.903 958.254,821.6 960.393,820.286 962.532,818.962 964.671,817.626 966.81,816.28 968.948,814.923 971.087,813.554 973.226,812.175 975.365,810.785 977.504,809.384 979.642,807.971 981.781,806.548 983.92,805.114 986.059,803.669 988.198,802.214 990.336,800.747 992.475,799.27 994.614,797.783 996.753,796.285 998.892,794.776 1001.03,793.258 1003.17,791.73 1005.31,790.191 1007.45,788.644 1009.59,787.086 1011.72,785.519 1013.86,783.943 1016,782.358 1018.14,780.765 1020.28,779.163 1022.42,777.553 1024.56,775.934 1026.7,774.308 1028.83,772.675 1030.97,771.034 1033.11,769.387 1035.25,767.733 1037.39,766.073 1039.53,764.406 1041.67,762.734 1043.81,761.058 1045.95,759.377 1048.08,757.693 1050.22,756.006 1052.36,754.317 1054.5,752.626 1056.64,750.935 1058.78,749.243 1060.92,747.552 1063.06,745.862 1065.19,744.174 1067.33,742.488 1069.47,740.805 1071.61,739.125 1073.75,737.449 1075.89,735.777 1078.03,734.111 1080.17,732.45 1082.31,730.795 1084.44,729.147 1086.58,727.506 1088.72,725.872 1090.86,724.246 1093,722.629 1095.14,721.021 1097.28,719.422 1099.42,717.833 1101.55,716.255 1103.69,714.687 1105.83,713.13 1107.97,711.584 1110.11,710.05 1112.25,708.529 1114.39,707.019 1116.53,705.523 1118.66,704.04 1120.8,702.571 1122.94,701.115 1125.08,699.674 1127.22,698.247 1129.36,696.834 1131.5,695.437 1133.64,694.055 1135.78,692.688 1137.91,691.338 1140.05,690.003 1142.19,688.684 1144.33,687.382 1146.47,686.096 1148.61,684.827 1150.75,683.576 1152.89,682.341 1155.02,681.124 1157.16,679.924 1159.3,678.74 1161.44,677.572 1163.58,676.42 1165.72,675.284 1167.86,674.162 1170,673.054 1172.13,671.96 1174.27,670.88 1176.41,669.812 1178.55,668.756 1180.69,667.713 1182.83,666.681 1184.97,665.66 1187.11,664.649 1189.25,663.647 1191.38,662.655 1193.52,661.672 1195.66,660.696 1197.8,659.729 1199.94,658.768 1202.08,657.813 1204.22,656.864 1206.36,655.92 1208.49,654.981 1210.63,654.046 1212.77,653.114 1214.91,652.184 1217.05,651.257 1219.19,650.33 1221.33,649.405 1223.47,648.479 1225.61,647.553 1227.74,646.625 1229.88,645.695 1232.02,644.762 1234.16,643.826 1236.3,642.886 1238.44,641.94 1240.58,640.989 1242.72,640.031 1244.85,639.066 1246.99,638.092 1249.13,637.11 1251.27,636.119 1253.41,635.117 1255.55,634.104 1257.69,633.078 1259.83,632.04 1261.96,630.989 1264.1,629.922 1266.24,628.841 1268.38,627.743 1270.52,626.628 1272.66,625.498 1274.8,624.352 1276.94,623.189 1279.08,622.01 1281.21,620.815 1283.35,619.603 1285.49,618.374 1287.63,617.129 1289.77,615.867 1291.91,614.589 1294.05,613.294 1296.19,611.983 1298.32,610.656 1300.46,609.313 1302.6,607.954 1304.74,606.58 1306.88,605.19 1309.02,603.786 1311.16,602.368 1313.3,600.935 1315.43,599.489 1317.57,598.03 1319.71,596.558 1321.85,595.074 1323.99,593.579 1326.13,592.073 1328.27,590.557 1330.41,589.031 1332.55,587.497 1334.68,585.954 1336.82,584.404 1338.96,582.848 1341.1,581.287 1343.24,579.72 1345.38,578.15 1347.52,576.578 1349.66,575.003 1351.79,573.428 1353.93,571.853 1356.07,570.28 1358.21,568.709 1360.35,567.142 1362.49,565.58 1364.63,564.024 1366.77,562.475 1368.91,560.936 1371.04,559.406 1373.18,557.886 1375.32,556.376 1377.46,554.877 1379.6,553.39 1381.74,551.916 1383.88,550.456 1386.02,549.011 1388.15,547.581 1390.29,546.168 1392.43,544.771 1394.57,543.393 1396.71,542.032 1398.85,540.69 1400.99,539.367 1403.13,538.064 1405.26,536.781 1407.4,535.517 1409.54,534.274 1411.68,533.051 1413.82,531.849 1415.96,530.668 1418.1,529.507 1420.24,528.366 1422.38,527.246 1424.51,526.146 1426.65,525.066 1428.79,524.006 1430.93,522.965 1433.07,521.942 1435.21,520.938 1437.35,519.952 1439.49,518.983 1441.62,518.03 1443.76,517.093 1445.9,516.172 1448.04,515.264 1450.18,514.37 1452.32,513.488 1454.46,512.618 1456.6,511.757 1458.73,510.906 1460.87,510.063 1463.01,509.227 1465.15,508.397 1467.29,507.57 1469.43,506.746 1471.57,505.923 1473.71,505.101 1475.85,504.281 1477.98,503.461 1480.12,502.639 1482.26,501.813 1484.4,500.983 1486.54,500.147 1488.68,499.302 1490.82,498.449 1492.96,497.585 1495.09,496.709 1497.23,495.821 1499.37,494.919 1501.51,494.003 1503.65,493.07 1505.79,492.121 1507.93,491.155 1510.07,490.171 1512.21,489.169 1514.34,488.147 1516.48,487.106 1518.62,486.045 1520.76,484.964 1522.9,483.862 1525.04,482.739 1527.18,481.596 1529.32,480.432 1531.45,479.247 1533.59,478.041 1535.73,476.815 1537.87,475.568 1540.01,474.302 1542.15,473.016 1544.29,471.711 1546.43,470.388 1548.56,469.047 1550.7,467.688 1552.84,466.313 1554.98,464.923 1557.12,463.518 1559.26,462.099 1561.4,460.668 1563.54,459.225 1565.68,457.772 1567.81,456.309 1569.95,454.84 1572.09,453.363 1574.23,451.882 1576.37,450.396 1578.51,448.903 1580.65,447.406 1582.79,445.909 1584.92,444.412 1587.06,442.917 1589.2,441.427 1591.34,439.944 1593.48,438.468 1595.62,437.003 1597.76,435.549 1599.9,434.107 1602.03,432.68 1604.17,431.268 1606.31,429.873 1608.45,428.495 1610.59,427.137 1612.73,425.798 1614.87,424.479 1617.01,423.182 1619.15,421.907 1621.28,420.655 1623.42,419.425 1625.56,418.22 1627.7,417.037 1629.84,415.879 1631.98,414.745 1634.12,413.635 1636.26,412.549 1638.39,411.488 1640.53,410.45 1642.67,409.435 1644.81,408.444 1646.95,407.475 1649.09,406.528 1651.23,405.602 1653.37,404.697 1655.51,403.812 1657.64,402.945 1659.78,402.096 1661.92,401.264 1664.06,400.448 1666.2,399.645 1668.34,398.855 1670.48,398.077 1672.62,397.309 1674.75,396.548 1676.89,395.794 1679.03,395.045 1681.17,394.298 1683.31,393.552 1685.45,392.804 1687.59,392.056 1689.73,391.307 1691.86,390.554 1694,389.795 1696.14,389.029 1698.28,388.253 1700.42,387.465 1702.56,386.665 1704.7,385.85 1706.84,385.019 1708.98,384.17 1711.11,383.303 1713.25,382.417 1715.39,381.51 1717.53,380.581 1719.67,379.63 1721.81,378.657 1723.95,377.66 1726.09,376.639 1728.22,375.594 1730.36,374.525 1732.5,373.432 1734.64,372.314 1736.78,371.172 1738.92,370.006 1741.06,368.816 1743.2,367.604 1745.33,366.369 1747.47,365.112 1749.61,363.835 1751.75,362.538 1753.89,361.221 1756.03,359.887 1758.17,358.537 1760.31,357.171 1762.45,355.792 1764.58,354.401 1766.72,353 1768.86,351.591 1771,350.175 1773.14,348.755 1775.28,347.333 1777.42,345.911 1779.56,344.49 1781.69,343.07 1783.83,341.653 1785.97,340.241 1788.11,338.837 1790.25,337.443 1792.39,336.061 1794.53,334.692 1796.67,333.34 1798.81,332.005 1800.94,330.689 1803.08,329.393 1805.22,328.119 1807.36,326.868 1809.5,325.641 1811.64,324.439 1813.78,323.262 1815.92,322.112 1818.05,320.988 1820.19,319.891 1822.33,318.821 1824.47,317.779 1826.61,316.764 1828.75,315.775 1830.89,314.814 1833.03,313.879 1835.16,312.97 1837.3,312.086 1839.44,311.226 1841.58,310.389 1843.72,309.574 1845.86,308.78 1848,308.005 1850.14,307.249 1852.28,306.508 1854.41,305.782 1856.55,305.069 1858.69,304.366 1860.83,303.672 1862.97,302.983 1865.11,302.298 1867.25,301.614 1869.39,300.929 1871.52,300.241 1873.66,299.551 1875.8,298.856 1877.94,298.154 1880.08,297.441 1882.22,296.717 1884.36,295.978 1886.5,295.222 1888.63,294.449 1890.77,293.656 1892.91,292.842 1895.05,292.005 1897.19,291.145 1899.33,290.26 1901.47,289.35 1903.61,288.414 1905.75,287.45 1907.88,286.46 1910.02,285.443 1912.16,284.398 1914.3,283.326 1916.44,282.227 1918.58,281.102 1920.72,279.95 1922.86,278.773 1924.99,277.572 1927.13,276.348 1929.27,275.101 1931.41,273.834 1933.55,272.547 1935.69,271.243 1937.83,269.923 1939.97,268.589 1942.11,267.243 1944.24,265.889 1946.38,264.527 1948.52,263.161 1950.66,261.793 1952.8,260.427 1954.94,259.065 1957.08,257.706 1959.22,256.352 1961.35,255.006 1963.49,253.672 1965.63,252.35 1967.77,251.045 1969.91,249.758 1972.05,248.49 1974.19,247.245 1976.33,246.023 1978.46,244.826 1980.6,243.655 1982.74,242.511 1984.88,241.395 1987.02,240.309 1989.16,239.252 1991.3,238.224 1993.44,237.227 1995.58,236.26 1997.71,235.322 1999.85,234.414 2001.99,233.535 2004.13,232.684 2006.27,231.861 2008.41,231.063 2010.55,230.291 2012.69,229.542 2014.82,228.816 2016.96,228.109 2019.1,227.42 2021.24,226.748 2023.38,226.089 2025.52,225.441 2027.66,224.801 2029.8,224.167 2031.93,223.536 2034.07,222.903 2036.21,222.268 2038.35,221.63 2040.49,220.987 2042.63,220.336 2044.77,219.673 2046.91,218.997 2049.05,218.303 2051.18,217.591 2053.32,216.859 2055.46,216.103 2057.6,215.324 2059.74,214.518 2061.88,213.686 2064.02,212.826 2066.16,211.937 2068.29,211.019 2070.43,210.07 2072.57,209.092 2074.71,208.084 2076.85,207.046 2078.99,205.979 2081.13,204.883 2083.27,203.759 2085.41,202.608 2087.54,201.432 2089.68,200.231 2091.82,199.008 2093.96,197.764 2096.1,196.502 2098.24,195.224 2100.38,193.931 2102.52,192.628 2104.65,191.316 2106.79,190 2108.93,188.681 2111.07,187.364 2113.21,186.051 2115.35,184.741 2117.49,183.439 2119.63,182.146 2121.76,180.866 2123.9,179.603 2126.04,178.359 2128.18,177.136 2130.32,175.936 2132.46,174.762 2134.6,173.615 2136.74,172.496 2138.88,171.407 2141.01,170.349 2143.15,169.323 2145.29,168.329 2147.43,167.367 2149.57,166.438 2151.71,165.541 2153.85,164.676 2155.99,163.843 2158.12,163.04 2160.26,162.267 2162.4,161.522 2164.54,160.803 2166.68,160.11 2168.82,159.439 2170.96,158.789 2173.1,158.157 2175.24,157.54 2177.37,156.936 2179.51,156.341 2181.65,155.752 2183.79,155.165 2185.93,154.577 2188.07,153.988 2190.21,153.395 2192.35,152.795 2194.48,152.184 2196.62,151.559 2198.76,150.917 2200.9,150.255 2203.04,149.572 2205.18,148.864 2207.32,148.129 2209.46,147.367 2211.59,146.575 2213.73,145.753 2215.87,144.899 2218.01,144.014 2220.15,143.096 2222.29,142.145 2224.43,141.162 2226.57,140.148 2228.71,139.102 2230.84,138.025 2232.98,136.919 2235.12,135.786 2237.26,134.627 2239.4,133.443 2241.54,132.238 2243.68,131.014 2245.82,129.773 2247.95,128.518 2250.09,127.253 2252.23,125.982 2254.37,124.707 2256.51,123.433 2258.65,122.162 2260.79,120.894 2262.93,119.633 2265.06,118.383 2267.2,117.149 2269.34,115.932 2271.48,114.737 2273.62,113.565 2275.76,112.42 2277.9,111.303 2280.04,110.216 2282.18,109.16 2284.31,108.137 2286.45,107.149 2288.59,106.194 2290.73,105.274 2292.87,104.39 2295.01,103.54 2297.15,102.724 2299.29,101.941 2301.42,101.191 2303.56,100.472 2305.7,99.7825 2307.84,99.1201 2309.98,98.483 2312.12,97.8685 2314.26,97.2739 2316.4,96.6962 2318.54,96.1318 2320.67,95.5772 2322.81,95.0284 2324.95,94.4812 2327.09,93.9325 2329.23,93.3805 2331.37,92.8215 2333.51,92.252 2335.65,91.6689 2337.78,91.0689 2339.92,90.4494 2342.06,89.8075 2344.2,89.141 2346.34,88.4474 2348.48,87.7249 2350.62,86.9715 2352.76,86.1857 "/>
<path clip-path="url(#clip600)" d="M287.311 248.629 L1103.78 248.629 L1103.78 93.1086 L287.311 93.1086  Z" fill="#ffffff" fill-rule="evenodd" fill-opacity="1"/>
<polyline clip-path="url(#clip600)" style="stroke:#000000; stroke-linecap:round; stroke-linejoin:round; stroke-width:4; stroke-opacity:1; fill:none" points="287.311,248.629 1103.78,248.629 1103.78,93.1086 287.311,93.1086 287.311,248.629 "/>
<polyline clip-path="url(#clip600)" style="stroke:#009af9; stroke-linecap:round; stroke-linejoin:round; stroke-width:4; stroke-opacity:1; fill:none" points="311.052,144.949 453.496,144.949 "/>
<path clip-path="url(#clip600)" d="M481.519 158.34 L481.519 172.09 L477.237 172.09 L477.237 136.303 L481.519 136.303 L481.519 140.238 Q482.862 137.923 484.899 136.812 Q486.959 135.678 489.806 135.678 Q494.528 135.678 497.468 139.428 Q500.431 143.178 500.431 149.289 Q500.431 155.4 497.468 159.15 Q494.528 162.9 489.806 162.9 Q486.959 162.9 484.899 161.789 Q482.862 160.655 481.519 158.34 M496.01 149.289 Q496.01 144.59 494.065 141.928 Q492.144 139.243 488.765 139.243 Q485.385 139.243 483.441 141.928 Q481.519 144.59 481.519 149.289 Q481.519 153.988 483.441 156.673 Q485.385 159.335 488.765 159.335 Q492.144 159.335 494.065 156.673 Q496.01 153.988 496.01 149.289 Z" fill="#000000" fill-rule="nonzero" fill-opacity="1" /><path clip-path="url(#clip600)" d="M517.538 139.289 Q514.112 139.289 512.121 141.974 Q510.13 144.636 510.13 149.289 Q510.13 153.942 512.098 156.627 Q514.089 159.289 517.538 159.289 Q520.94 159.289 522.931 156.604 Q524.922 153.918 524.922 149.289 Q524.922 144.682 522.931 141.997 Q520.94 139.289 517.538 139.289 M517.538 135.678 Q523.093 135.678 526.264 139.289 Q529.436 142.9 529.436 149.289 Q529.436 155.655 526.264 159.289 Q523.093 162.9 517.538 162.9 Q511.959 162.9 508.788 159.289 Q505.64 155.655 505.64 149.289 Q505.64 142.9 508.788 139.289 Q511.959 135.678 517.538 135.678 Z" fill="#000000" fill-rule="nonzero" fill-opacity="1" /><path clip-path="url(#clip600)" d="M540.709 128.942 L540.709 136.303 L549.482 136.303 L549.482 139.613 L540.709 139.613 L540.709 153.687 Q540.709 156.858 541.565 157.761 Q542.445 158.664 545.107 158.664 L549.482 158.664 L549.482 162.229 L545.107 162.229 Q540.176 162.229 538.301 160.4 Q536.426 158.548 536.426 153.687 L536.426 139.613 L533.301 139.613 L533.301 136.303 L536.426 136.303 L536.426 128.942 L540.709 128.942 Z" fill="#000000" fill-rule="nonzero" fill-opacity="1" /><path clip-path="url(#clip600)" d="M555.686 156.349 L560.57 156.349 L560.57 162.229 L555.686 162.229 L555.686 156.349 Z" fill="#000000" fill-rule="nonzero" fill-opacity="1" /><path clip-path="url(#clip600)" d="M565.547 127.669 L594.783 127.669 L594.783 131.604 L582.514 131.604 L582.514 162.229 L577.815 162.229 L577.815 131.604 L565.547 131.604 L565.547 127.669 Z" fill="#000000" fill-rule="nonzero" fill-opacity="1" /><path clip-path="url(#clip600)" d="M614.181 136.303 L618.44 136.303 L618.44 162.229 L614.181 162.229 L614.181 136.303 M614.181 126.21 L618.44 126.21 L618.44 131.604 L614.181 131.604 L614.181 126.21 Z" fill="#000000" fill-rule="nonzero" fill-opacity="1" /><path clip-path="url(#clip600)" d="M648.903 146.581 L648.903 162.229 L644.643 162.229 L644.643 146.719 Q644.643 143.039 643.208 141.21 Q641.773 139.382 638.903 139.382 Q635.454 139.382 633.463 141.581 Q631.472 143.78 631.472 147.576 L631.472 162.229 L627.19 162.229 L627.19 136.303 L631.472 136.303 L631.472 140.331 Q633 137.993 635.06 136.835 Q637.143 135.678 639.852 135.678 Q644.319 135.678 646.611 138.456 Q648.903 141.21 648.903 146.581 Z" fill="#000000" fill-rule="nonzero" fill-opacity="1" /><path clip-path="url(#clip600)" d="M682.514 139.289 Q679.088 139.289 677.097 141.974 Q675.106 144.636 675.106 149.289 Q675.106 153.942 677.074 156.627 Q679.064 159.289 682.514 159.289 Q685.916 159.289 687.907 156.604 Q689.898 153.918 689.898 149.289 Q689.898 144.682 687.907 141.997 Q685.916 139.289 682.514 139.289 M682.514 135.678 Q688.069 135.678 691.24 139.289 Q694.412 142.9 694.412 149.289 Q694.412 155.655 691.24 159.289 Q688.069 162.9 682.514 162.9 Q676.935 162.9 673.764 159.289 Q670.615 155.655 670.615 149.289 Q670.615 142.9 673.764 139.289 Q676.935 135.678 682.514 135.678 Z" fill="#000000" fill-rule="nonzero" fill-opacity="1" /><path clip-path="url(#clip600)" d="M716.495 140.284 Q715.777 139.868 714.921 139.682 Q714.087 139.474 713.069 139.474 Q709.458 139.474 707.513 141.835 Q705.592 144.173 705.592 148.571 L705.592 162.229 L701.31 162.229 L701.31 136.303 L705.592 136.303 L705.592 140.331 Q706.935 137.969 709.087 136.835 Q711.24 135.678 714.319 135.678 Q714.759 135.678 715.291 135.747 Q715.824 135.794 716.472 135.909 L716.495 140.284 Z" fill="#000000" fill-rule="nonzero" fill-opacity="1" /><path clip-path="url(#clip600)" d="M720.962 136.303 L725.222 136.303 L725.222 162.229 L720.962 162.229 L720.962 136.303 M720.962 126.21 L725.222 126.21 L725.222 131.604 L720.962 131.604 L720.962 126.21 Z" fill="#000000" fill-rule="nonzero" fill-opacity="1" /><path clip-path="url(#clip600)" d="M751.194 148.965 Q751.194 144.335 749.272 141.789 Q747.374 139.243 743.925 139.243 Q740.499 139.243 738.578 141.789 Q736.68 144.335 736.68 148.965 Q736.68 153.571 738.578 156.118 Q740.499 158.664 743.925 158.664 Q747.374 158.664 749.272 156.118 Q751.194 153.571 751.194 148.965 M755.453 159.011 Q755.453 165.631 752.513 168.849 Q749.573 172.09 743.509 172.09 Q741.263 172.09 739.273 171.742 Q737.282 171.418 735.407 170.724 L735.407 166.58 Q737.282 167.599 739.11 168.085 Q740.939 168.571 742.837 168.571 Q747.027 168.571 749.11 166.372 Q751.194 164.196 751.194 159.775 L751.194 157.668 Q749.874 159.96 747.814 161.094 Q745.754 162.229 742.884 162.229 Q738.115 162.229 735.198 158.594 Q732.282 154.96 732.282 148.965 Q732.282 142.946 735.198 139.312 Q738.115 135.678 742.884 135.678 Q745.754 135.678 747.814 136.812 Q749.874 137.946 751.194 140.238 L751.194 136.303 L755.453 136.303 L755.453 159.011 Z" fill="#000000" fill-rule="nonzero" fill-opacity="1" /><path clip-path="url(#clip600)" d="M764.226 136.303 L768.485 136.303 L768.485 162.229 L764.226 162.229 L764.226 136.303 M764.226 126.21 L768.485 126.21 L768.485 131.604 L764.226 131.604 L764.226 126.21 Z" fill="#000000" fill-rule="nonzero" fill-opacity="1" /><path clip-path="url(#clip600)" d="M798.948 146.581 L798.948 162.229 L794.689 162.229 L794.689 146.719 Q794.689 143.039 793.254 141.21 Q791.819 139.382 788.948 139.382 Q785.499 139.382 783.508 141.581 Q781.518 143.78 781.518 147.576 L781.518 162.229 L777.235 162.229 L777.235 136.303 L781.518 136.303 L781.518 140.331 Q783.045 137.993 785.106 136.835 Q787.189 135.678 789.897 135.678 Q794.365 135.678 796.656 138.456 Q798.948 141.21 798.948 146.581 Z" fill="#000000" fill-rule="nonzero" fill-opacity="1" /><path clip-path="url(#clip600)" d="M819.226 149.196 Q814.064 149.196 812.073 150.377 Q810.082 151.557 810.082 154.405 Q810.082 156.673 811.564 158.016 Q813.068 159.335 815.638 159.335 Q819.179 159.335 821.309 156.835 Q823.462 154.312 823.462 150.145 L823.462 149.196 L819.226 149.196 M827.721 147.437 L827.721 162.229 L823.462 162.229 L823.462 158.293 Q822.004 160.655 819.828 161.789 Q817.652 162.9 814.504 162.9 Q810.522 162.9 808.161 160.678 Q805.823 158.432 805.823 154.682 Q805.823 150.307 808.74 148.085 Q811.68 145.863 817.49 145.863 L823.462 145.863 L823.462 145.446 Q823.462 142.507 821.517 140.909 Q819.596 139.289 816.101 139.289 Q813.879 139.289 811.772 139.821 Q809.666 140.354 807.721 141.419 L807.721 137.483 Q810.059 136.581 812.258 136.141 Q814.457 135.678 816.541 135.678 Q822.166 135.678 824.943 138.594 Q827.721 141.511 827.721 147.437 Z" fill="#000000" fill-rule="nonzero" fill-opacity="1" /><path clip-path="url(#clip600)" d="M836.494 126.21 L840.753 126.21 L840.753 162.229 L836.494 162.229 L836.494 126.21 Z" fill="#000000" fill-rule="nonzero" fill-opacity="1" /><path clip-path="url(#clip600)" d="M881.262 137.067 L881.262 141.094 Q879.457 140.169 877.513 139.706 Q875.568 139.243 873.485 139.243 Q870.313 139.243 868.716 140.215 Q867.142 141.187 867.142 143.131 Q867.142 144.613 868.276 145.469 Q869.411 146.303 872.837 147.067 L874.295 147.391 Q878.832 148.363 880.73 150.145 Q882.651 151.905 882.651 155.076 Q882.651 158.687 879.781 160.793 Q876.934 162.9 871.934 162.9 Q869.851 162.9 867.582 162.483 Q865.337 162.09 862.837 161.28 L862.837 156.881 Q865.198 158.108 867.489 158.733 Q869.781 159.335 872.026 159.335 Q875.036 159.335 876.656 158.317 Q878.276 157.275 878.276 155.4 Q878.276 153.664 877.096 152.738 Q875.938 151.812 871.98 150.956 L870.499 150.608 Q866.54 149.775 864.781 148.062 Q863.022 146.326 863.022 143.317 Q863.022 139.659 865.614 137.669 Q868.207 135.678 872.975 135.678 Q875.337 135.678 877.42 136.025 Q879.503 136.372 881.262 137.067 Z" fill="#000000" fill-rule="nonzero" fill-opacity="1" /><path clip-path="url(#clip600)" d="M900.221 164.636 Q898.415 169.266 896.702 170.678 Q894.989 172.09 892.119 172.09 L888.716 172.09 L888.716 168.525 L891.216 168.525 Q892.975 168.525 893.948 167.692 Q894.92 166.858 896.1 163.756 L896.864 161.812 L886.378 136.303 L890.892 136.303 L898.994 156.581 L907.096 136.303 L911.61 136.303 L900.221 164.636 Z" fill="#000000" fill-rule="nonzero" fill-opacity="1" /><path clip-path="url(#clip600)" d="M934.017 137.067 L934.017 141.094 Q932.211 140.169 930.267 139.706 Q928.322 139.243 926.239 139.243 Q923.068 139.243 921.471 140.215 Q919.897 141.187 919.897 143.131 Q919.897 144.613 921.031 145.469 Q922.165 146.303 925.591 147.067 L927.049 147.391 Q931.586 148.363 933.484 150.145 Q935.406 151.905 935.406 155.076 Q935.406 158.687 932.535 160.793 Q929.688 162.9 924.688 162.9 Q922.605 162.9 920.336 162.483 Q918.091 162.09 915.591 161.28 L915.591 156.881 Q917.952 158.108 920.244 158.733 Q922.535 159.335 924.781 159.335 Q927.79 159.335 929.41 158.317 Q931.031 157.275 931.031 155.4 Q931.031 153.664 929.85 152.738 Q928.693 151.812 924.734 150.956 L923.253 150.608 Q919.295 149.775 917.535 148.062 Q915.776 146.326 915.776 143.317 Q915.776 139.659 918.369 137.669 Q920.961 135.678 925.73 135.678 Q928.091 135.678 930.174 136.025 Q932.258 136.372 934.017 137.067 Z" fill="#000000" fill-rule="nonzero" fill-opacity="1" /><path clip-path="url(#clip600)" d="M946.401 128.942 L946.401 136.303 L955.174 136.303 L955.174 139.613 L946.401 139.613 L946.401 153.687 Q946.401 156.858 947.258 157.761 Q948.137 158.664 950.799 158.664 L955.174 158.664 L955.174 162.229 L950.799 162.229 Q945.869 162.229 943.994 160.4 Q942.119 158.548 942.119 153.687 L942.119 139.613 L938.994 139.613 L938.994 136.303 L942.119 136.303 L942.119 128.942 L946.401 128.942 Z" fill="#000000" fill-rule="nonzero" fill-opacity="1" /><path clip-path="url(#clip600)" d="M982.952 148.201 L982.952 150.284 L963.369 150.284 Q963.646 154.682 966.007 156.997 Q968.392 159.289 972.628 159.289 Q975.081 159.289 977.373 158.687 Q979.688 158.085 981.956 156.881 L981.956 160.909 Q979.665 161.881 977.257 162.391 Q974.85 162.9 972.373 162.9 Q966.169 162.9 962.535 159.289 Q958.924 155.678 958.924 149.52 Q958.924 143.155 962.35 139.428 Q965.799 135.678 971.632 135.678 Q976.864 135.678 979.896 139.057 Q982.952 142.414 982.952 148.201 M978.693 146.951 Q978.646 143.456 976.725 141.372 Q974.827 139.289 971.679 139.289 Q968.114 139.289 965.961 141.303 Q963.831 143.317 963.507 146.974 L978.693 146.951 Z" fill="#000000" fill-rule="nonzero" fill-opacity="1" /><path clip-path="url(#clip600)" d="M1010.13 141.28 Q1011.72 138.409 1013.95 137.044 Q1016.17 135.678 1019.18 135.678 Q1023.23 135.678 1025.43 138.525 Q1027.63 141.349 1027.63 146.581 L1027.63 162.229 L1023.35 162.229 L1023.35 146.719 Q1023.35 142.993 1022.03 141.187 Q1020.71 139.382 1018 139.382 Q1014.69 139.382 1012.77 141.581 Q1010.85 143.78 1010.85 147.576 L1010.85 162.229 L1006.56 162.229 L1006.56 146.719 Q1006.56 142.969 1005.24 141.187 Q1003.92 139.382 1001.17 139.382 Q997.905 139.382 995.984 141.604 Q994.063 143.803 994.063 147.576 L994.063 162.229 L989.78 162.229 L989.78 136.303 L994.063 136.303 L994.063 140.331 Q995.521 137.946 997.558 136.812 Q999.595 135.678 1002.4 135.678 Q1005.22 135.678 1007.19 137.113 Q1009.18 138.548 1010.13 141.28 Z" fill="#000000" fill-rule="nonzero" fill-opacity="1" /><polyline clip-path="url(#clip600)" style="stroke:#e26f46; stroke-linecap:round; stroke-linejoin:round; stroke-width:4; stroke-opacity:1; fill:none" points="311.052,196.789 453.496,196.789 "/>
<path clip-path="url(#clip600)" d="M481.519 210.18 L481.519 223.93 L477.237 223.93 L477.237 188.143 L481.519 188.143 L481.519 192.078 Q482.862 189.763 484.899 188.652 Q486.959 187.518 489.806 187.518 Q494.528 187.518 497.468 191.268 Q500.431 195.018 500.431 201.129 Q500.431 207.24 497.468 210.99 Q494.528 214.74 489.806 214.74 Q486.959 214.74 484.899 213.629 Q482.862 212.495 481.519 210.18 M496.01 201.129 Q496.01 196.43 494.065 193.768 Q492.144 191.083 488.765 191.083 Q485.385 191.083 483.441 193.768 Q481.519 196.43 481.519 201.129 Q481.519 205.828 483.441 208.513 Q485.385 211.175 488.765 211.175 Q492.144 211.175 494.065 208.513 Q496.01 205.828 496.01 201.129 Z" fill="#000000" fill-rule="nonzero" fill-opacity="1" /><path clip-path="url(#clip600)" d="M517.538 191.129 Q514.112 191.129 512.121 193.814 Q510.13 196.476 510.13 201.129 Q510.13 205.782 512.098 208.467 Q514.089 211.129 517.538 211.129 Q520.94 211.129 522.931 208.444 Q524.922 205.758 524.922 201.129 Q524.922 196.522 522.931 193.837 Q520.94 191.129 517.538 191.129 M517.538 187.518 Q523.093 187.518 526.264 191.129 Q529.436 194.74 529.436 201.129 Q529.436 207.495 526.264 211.129 Q523.093 214.74 517.538 214.74 Q511.959 214.74 508.788 211.129 Q505.64 207.495 505.64 201.129 Q505.64 194.74 508.788 191.129 Q511.959 187.518 517.538 187.518 Z" fill="#000000" fill-rule="nonzero" fill-opacity="1" /><path clip-path="url(#clip600)" d="M540.709 180.782 L540.709 188.143 L549.482 188.143 L549.482 191.453 L540.709 191.453 L540.709 205.527 Q540.709 208.698 541.565 209.601 Q542.445 210.504 545.107 210.504 L549.482 210.504 L549.482 214.069 L545.107 214.069 Q540.176 214.069 538.301 212.24 Q536.426 210.388 536.426 205.527 L536.426 191.453 L533.301 191.453 L533.301 188.143 L536.426 188.143 L536.426 180.782 L540.709 180.782 Z" fill="#000000" fill-rule="nonzero" fill-opacity="1" /><path clip-path="url(#clip600)" d="M555.686 208.189 L560.57 208.189 L560.57 214.069 L555.686 214.069 L555.686 208.189 Z" fill="#000000" fill-rule="nonzero" fill-opacity="1" /><path clip-path="url(#clip600)" d="M565.547 179.509 L594.783 179.509 L594.783 183.444 L582.514 183.444 L582.514 214.069 L577.815 214.069 L577.815 183.444 L565.547 183.444 L565.547 179.509 Z" fill="#000000" fill-rule="nonzero" fill-opacity="1" /><path clip-path="url(#clip600)" d="M614.181 188.143 L618.44 188.143 L618.44 214.069 L614.181 214.069 L614.181 188.143 M614.181 178.05 L618.44 178.05 L618.44 183.444 L614.181 183.444 L614.181 178.05 Z" fill="#000000" fill-rule="nonzero" fill-opacity="1" /><path clip-path="url(#clip600)" d="M648.903 198.421 L648.903 214.069 L644.643 214.069 L644.643 198.559 Q644.643 194.879 643.208 193.05 Q641.773 191.222 638.903 191.222 Q635.454 191.222 633.463 193.421 Q631.472 195.62 631.472 199.416 L631.472 214.069 L627.19 214.069 L627.19 188.143 L631.472 188.143 L631.472 192.171 Q633 189.833 635.06 188.675 Q637.143 187.518 639.852 187.518 Q644.319 187.518 646.611 190.296 Q648.903 193.05 648.903 198.421 Z" fill="#000000" fill-rule="nonzero" fill-opacity="1" /><path clip-path="url(#clip600)" d="M688.995 188.907 L688.995 192.934 Q687.189 192.009 685.245 191.546 Q683.301 191.083 681.217 191.083 Q678.046 191.083 676.449 192.055 Q674.875 193.027 674.875 194.971 Q674.875 196.453 676.009 197.309 Q677.143 198.143 680.569 198.907 L682.027 199.231 Q686.564 200.203 688.463 201.985 Q690.384 203.745 690.384 206.916 Q690.384 210.527 687.514 212.633 Q684.666 214.74 679.666 214.74 Q677.583 214.74 675.315 214.323 Q673.069 213.93 670.569 213.12 L670.569 208.721 Q672.93 209.948 675.222 210.573 Q677.514 211.175 679.759 211.175 Q682.768 211.175 684.389 210.157 Q686.009 209.115 686.009 207.24 Q686.009 205.504 684.828 204.578 Q683.671 203.652 679.713 202.796 L678.231 202.448 Q674.273 201.615 672.514 199.902 Q670.754 198.166 670.754 195.157 Q670.754 191.499 673.347 189.509 Q675.94 187.518 680.708 187.518 Q683.069 187.518 685.152 187.865 Q687.236 188.212 688.995 188.907 Z" fill="#000000" fill-rule="nonzero" fill-opacity="1" /><path clip-path="url(#clip600)" d="M697.166 188.143 L701.425 188.143 L701.425 214.069 L697.166 214.069 L697.166 188.143 M697.166 178.05 L701.425 178.05 L701.425 183.444 L697.166 183.444 L697.166 178.05 Z" fill="#000000" fill-rule="nonzero" fill-opacity="1" /><path clip-path="url(#clip600)" d="M730.523 193.12 Q732.12 190.249 734.342 188.884 Q736.564 187.518 739.573 187.518 Q743.624 187.518 745.823 190.365 Q748.022 193.189 748.022 198.421 L748.022 214.069 L743.74 214.069 L743.74 198.559 Q743.74 194.833 742.421 193.027 Q741.101 191.222 738.393 191.222 Q735.083 191.222 733.161 193.421 Q731.24 195.62 731.24 199.416 L731.24 214.069 L726.958 214.069 L726.958 198.559 Q726.958 194.809 725.638 193.027 Q724.319 191.222 721.564 191.222 Q718.3 191.222 716.379 193.444 Q714.458 195.643 714.458 199.416 L714.458 214.069 L710.175 214.069 L710.175 188.143 L714.458 188.143 L714.458 192.171 Q715.916 189.786 717.953 188.652 Q719.99 187.518 722.791 187.518 Q725.615 187.518 727.583 188.953 Q729.573 190.388 730.523 193.12 Z" fill="#000000" fill-rule="nonzero" fill-opacity="1" /><path clip-path="url(#clip600)" d="M760.638 210.18 L760.638 223.93 L756.356 223.93 L756.356 188.143 L760.638 188.143 L760.638 192.078 Q761.981 189.763 764.018 188.652 Q766.078 187.518 768.925 187.518 Q773.647 187.518 776.587 191.268 Q779.55 195.018 779.55 201.129 Q779.55 207.24 776.587 210.99 Q773.647 214.74 768.925 214.74 Q766.078 214.74 764.018 213.629 Q761.981 212.495 760.638 210.18 M775.129 201.129 Q775.129 196.43 773.184 193.768 Q771.263 191.083 767.883 191.083 Q764.504 191.083 762.559 193.768 Q760.638 196.43 760.638 201.129 Q760.638 205.828 762.559 208.513 Q764.504 211.175 767.883 211.175 Q771.263 211.175 773.184 208.513 Q775.129 205.828 775.129 201.129 Z" fill="#000000" fill-rule="nonzero" fill-opacity="1" /><path clip-path="url(#clip600)" d="M786.61 178.05 L790.869 178.05 L790.869 214.069 L786.61 214.069 L786.61 178.05 Z" fill="#000000" fill-rule="nonzero" fill-opacity="1" /><path clip-path="url(#clip600)" d="M799.781 188.143 L804.041 188.143 L804.041 214.069 L799.781 214.069 L799.781 188.143 M799.781 178.05 L804.041 178.05 L804.041 183.444 L799.781 183.444 L799.781 178.05 Z" fill="#000000" fill-rule="nonzero" fill-opacity="1" /><path clip-path="url(#clip600)" d="M826.078 178.05 L826.078 181.592 L822.004 181.592 Q819.712 181.592 818.809 182.518 Q817.929 183.444 817.929 185.851 L817.929 188.143 L824.943 188.143 L824.943 191.453 L817.929 191.453 L817.929 214.069 L813.647 214.069 L813.647 191.453 L809.573 191.453 L809.573 188.143 L813.647 188.143 L813.647 186.337 Q813.647 182.009 815.661 180.041 Q817.675 178.05 822.05 178.05 L826.078 178.05 Z" fill="#000000" fill-rule="nonzero" fill-opacity="1" /><path clip-path="url(#clip600)" d="M829.642 188.143 L833.902 188.143 L833.902 214.069 L829.642 214.069 L829.642 188.143 M829.642 178.05 L833.902 178.05 L833.902 183.444 L829.642 183.444 L829.642 178.05 Z" fill="#000000" fill-rule="nonzero" fill-opacity="1" /><path clip-path="url(#clip600)" d="M864.989 200.041 L864.989 202.124 L845.406 202.124 Q845.684 206.522 848.045 208.837 Q850.429 211.129 854.665 211.129 Q857.119 211.129 859.411 210.527 Q861.726 209.925 863.994 208.721 L863.994 212.749 Q861.702 213.721 859.295 214.231 Q856.888 214.74 854.411 214.74 Q848.207 214.74 844.573 211.129 Q840.962 207.518 840.962 201.36 Q840.962 194.995 844.388 191.268 Q847.837 187.518 853.67 187.518 Q858.901 187.518 861.934 190.897 Q864.989 194.254 864.989 200.041 M860.73 198.791 Q860.684 195.296 858.763 193.212 Q856.864 191.129 853.716 191.129 Q850.152 191.129 847.999 193.143 Q845.869 195.157 845.545 198.814 L860.73 198.791 Z" fill="#000000" fill-rule="nonzero" fill-opacity="1" /><path clip-path="url(#clip600)" d="M889.04 192.078 L889.04 178.05 L893.299 178.05 L893.299 214.069 L889.04 214.069 L889.04 210.18 Q887.698 212.495 885.637 213.629 Q883.6 214.74 880.73 214.74 Q876.031 214.74 873.068 210.99 Q870.128 207.24 870.128 201.129 Q870.128 195.018 873.068 191.268 Q876.031 187.518 880.73 187.518 Q883.6 187.518 885.637 188.652 Q887.698 189.763 889.04 192.078 M874.526 201.129 Q874.526 205.828 876.448 208.513 Q878.392 211.175 881.772 211.175 Q885.151 211.175 887.096 208.513 Q889.04 205.828 889.04 201.129 Q889.04 196.43 887.096 193.768 Q885.151 191.083 881.772 191.083 Q878.392 191.083 876.448 193.768 Q874.526 196.43 874.526 201.129 Z" fill="#000000" fill-rule="nonzero" fill-opacity="1" /><path clip-path="url(#clip600)" d="M933.67 188.907 L933.67 192.934 Q931.864 192.009 929.92 191.546 Q927.975 191.083 925.892 191.083 Q922.721 191.083 921.123 192.055 Q919.549 193.027 919.549 194.971 Q919.549 196.453 920.684 197.309 Q921.818 198.143 925.244 198.907 L926.702 199.231 Q931.239 200.203 933.137 201.985 Q935.058 203.745 935.058 206.916 Q935.058 210.527 932.188 212.633 Q929.341 214.74 924.341 214.74 Q922.258 214.74 919.989 214.323 Q917.744 213.93 915.244 213.12 L915.244 208.721 Q917.605 209.948 919.897 210.573 Q922.188 211.175 924.434 211.175 Q927.443 211.175 929.063 210.157 Q930.684 209.115 930.684 207.24 Q930.684 205.504 929.503 204.578 Q928.346 203.652 924.387 202.796 L922.906 202.448 Q918.947 201.615 917.188 199.902 Q915.429 198.166 915.429 195.157 Q915.429 191.499 918.022 189.509 Q920.614 187.518 925.383 187.518 Q927.744 187.518 929.827 187.865 Q931.91 188.212 933.67 188.907 Z" fill="#000000" fill-rule="nonzero" fill-opacity="1" /><path clip-path="url(#clip600)" d="M952.628 216.476 Q950.822 221.106 949.109 222.518 Q947.396 223.93 944.526 223.93 L941.123 223.93 L941.123 220.365 L943.623 220.365 Q945.383 220.365 946.355 219.532 Q947.327 218.698 948.507 215.596 L949.271 213.652 L938.785 188.143 L943.299 188.143 L951.401 208.421 L959.503 188.143 L964.017 188.143 L952.628 216.476 Z" fill="#000000" fill-rule="nonzero" fill-opacity="1" /><path clip-path="url(#clip600)" d="M986.424 188.907 L986.424 192.934 Q984.618 192.009 982.674 191.546 Q980.73 191.083 978.646 191.083 Q975.475 191.083 973.878 192.055 Q972.304 193.027 972.304 194.971 Q972.304 196.453 973.438 197.309 Q974.572 198.143 977.998 198.907 L979.456 199.231 Q983.993 200.203 985.892 201.985 Q987.813 203.745 987.813 206.916 Q987.813 210.527 984.942 212.633 Q982.095 214.74 977.095 214.74 Q975.012 214.74 972.743 214.323 Q970.498 213.93 967.998 213.12 L967.998 208.721 Q970.359 209.948 972.651 210.573 Q974.943 211.175 977.188 211.175 Q980.197 211.175 981.818 210.157 Q983.438 209.115 983.438 207.24 Q983.438 205.504 982.257 204.578 Q981.1 203.652 977.142 202.796 L975.66 202.448 Q971.702 201.615 969.943 199.902 Q968.183 198.166 968.183 195.157 Q968.183 191.499 970.776 189.509 Q973.368 187.518 978.137 187.518 Q980.498 187.518 982.581 187.865 Q984.665 188.212 986.424 188.907 Z" fill="#000000" fill-rule="nonzero" fill-opacity="1" /><path clip-path="url(#clip600)" d="M998.808 180.782 L998.808 188.143 L1007.58 188.143 L1007.58 191.453 L998.808 191.453 L998.808 205.527 Q998.808 208.698 999.665 209.601 Q1000.54 210.504 1003.21 210.504 L1007.58 210.504 L1007.58 214.069 L1003.21 214.069 Q998.276 214.069 996.401 212.24 Q994.526 210.388 994.526 205.527 L994.526 191.453 L991.401 191.453 L991.401 188.143 L994.526 188.143 L994.526 180.782 L998.808 180.782 Z" fill="#000000" fill-rule="nonzero" fill-opacity="1" /><path clip-path="url(#clip600)" d="M1035.36 200.041 L1035.36 202.124 L1015.78 202.124 Q1016.05 206.522 1018.41 208.837 Q1020.8 211.129 1025.03 211.129 Q1027.49 211.129 1029.78 210.527 Q1032.1 209.925 1034.36 208.721 L1034.36 212.749 Q1032.07 213.721 1029.66 214.231 Q1027.26 214.74 1024.78 214.74 Q1018.58 214.74 1014.94 211.129 Q1011.33 207.518 1011.33 201.36 Q1011.33 194.995 1014.76 191.268 Q1018.21 187.518 1024.04 187.518 Q1029.27 187.518 1032.3 190.897 Q1035.36 194.254 1035.36 200.041 M1031.1 198.791 Q1031.05 195.296 1029.13 193.212 Q1027.23 191.129 1024.09 191.129 Q1020.52 191.129 1018.37 193.143 Q1016.24 195.157 1015.91 198.814 L1031.1 198.791 Z" fill="#000000" fill-rule="nonzero" fill-opacity="1" /><path clip-path="url(#clip600)" d="M1062.53 193.12 Q1064.13 190.249 1066.35 188.884 Q1068.58 187.518 1071.59 187.518 Q1075.64 187.518 1077.84 190.365 Q1080.03 193.189 1080.03 198.421 L1080.03 214.069 L1075.75 214.069 L1075.75 198.559 Q1075.75 194.833 1074.43 193.027 Q1073.11 191.222 1070.4 191.222 Q1067.09 191.222 1065.17 193.421 Q1063.25 195.62 1063.25 199.416 L1063.25 214.069 L1058.97 214.069 L1058.97 198.559 Q1058.97 194.809 1057.65 193.027 Q1056.33 191.222 1053.58 191.222 Q1050.31 191.222 1048.39 193.444 Q1046.47 195.643 1046.47 199.416 L1046.47 214.069 L1042.19 214.069 L1042.19 188.143 L1046.47 188.143 L1046.47 192.171 Q1047.93 189.786 1049.97 188.652 Q1052 187.518 1054.8 187.518 Q1057.63 187.518 1059.59 188.953 Q1061.59 190.388 1062.53 193.12 Z" fill="#000000" fill-rule="nonzero" fill-opacity="1" /></svg>
