<?xml version="1.0" encoding="utf-8"?>
<svg xmlns="http://www.w3.org/2000/svg" xmlns:xlink="http://www.w3.org/1999/xlink" width="600" height="400" viewBox="0 0 2400 1600">
<defs>
  <clipPath id="clip260">
    <rect x="0" y="0" width="2400" height="1600"/>
  </clipPath>
</defs>
<path clip-path="url(#clip260)" d="M0 1600 L2400 1600 L2400 0 L0 0  Z" fill="#ffffff" fill-rule="evenodd" fill-opacity="1"/>
<defs>
  <clipPath id="clip261">
    <rect x="112" y="47" width="2242" height="1377"/>
  </clipPath>
</defs>
<path clip-path="url(#clip260)" d="M112.177 1423.18 L2352.76 1423.18 L2352.76 47.2441 L112.177 47.2441  Z" fill="#ffffff" fill-rule="evenodd" fill-opacity="1"/>
<polyline clip-path="url(#clip261)" style="stroke:#000000; stroke-linecap:round; stroke-linejoin:round; stroke-width:2; stroke-opacity:0.1; fill:none" points="112.177,1423.18 112.177,47.2441 "/>
<polyline clip-path="url(#clip261)" style="stroke:#000000; stroke-linecap:round; stroke-linejoin:round; stroke-width:2; stroke-opacity:0.1; fill:none" points="610.084,1423.18 610.084,47.2441 "/>
<polyline clip-path="url(#clip261)" style="stroke:#000000; stroke-linecap:round; stroke-linejoin:round; stroke-width:2; stroke-opacity:0.1; fill:none" points="1107.99,1423.18 1107.99,47.2441 "/>
<polyline clip-path="url(#clip261)" style="stroke:#000000; stroke-linecap:round; stroke-linejoin:round; stroke-width:2; stroke-opacity:0.1; fill:none" points="1605.9,1423.18 1605.9,47.2441 "/>
<polyline clip-path="url(#clip261)" style="stroke:#000000; stroke-linecap:round; stroke-linejoin:round; stroke-width:2; stroke-opacity:0.1; fill:none" points="2103.8,1423.18 2103.8,47.2441 "/>
<polyline clip-path="url(#clip261)" style="stroke:#000000; stroke-linecap:round; stroke-linejoin:round; stroke-width:2; stroke-opacity:0.1; fill:none" points="112.177,1411.75 2352.76,1411.75 "/>
<polyline clip-path="url(#clip261)" style="stroke:#000000; stroke-linecap:round; stroke-linejoin:round; stroke-width:2; stroke-opacity:0.1; fill:none" points="112.177,1117.98 2352.76,1117.98 "/>
<polyline clip-path="url(#clip261)" style="stroke:#000000; stroke-linecap:round; stroke-linejoin:round; stroke-width:2; stroke-opacity:0.1; fill:none" points="112.177,824.208 2352.76,824.208 "/>
<polyline clip-path="url(#clip261)" style="stroke:#000000; stroke-linecap:round; stroke-linejoin:round; stroke-width:2; stroke-opacity:0.1; fill:none" points="112.177,530.437 2352.76,530.437 "/>
<polyline clip-path="url(#clip261)" style="stroke:#000000; stroke-linecap:round; stroke-linejoin:round; stroke-width:2; stroke-opacity:0.1; fill:none" points="112.177,236.666 2352.76,236.666 "/>
<polyline clip-path="url(#clip260)" style="stroke:#000000; stroke-linecap:round; stroke-linejoin:round; stroke-width:4; stroke-opacity:1; fill:none" points="112.177,1423.18 2352.76,1423.18 "/>
<polyline clip-path="url(#clip260)" style="stroke:#000000; stroke-linecap:round; stroke-linejoin:round; stroke-width:4; stroke-opacity:1; fill:none" points="112.177,1423.18 112.177,1404.28 "/>
<polyline clip-path="url(#clip260)" style="stroke:#000000; stroke-linecap:round; stroke-linejoin:round; stroke-width:4; stroke-opacity:1; fill:none" points="610.084,1423.18 610.084,1404.28 "/>
<polyline clip-path="url(#clip260)" style="stroke:#000000; stroke-linecap:round; stroke-linejoin:round; stroke-width:4; stroke-opacity:1; fill:none" points="1107.99,1423.18 1107.99,1404.28 "/>
<polyline clip-path="url(#clip260)" style="stroke:#000000; stroke-linecap:round; stroke-linejoin:round; stroke-width:4; stroke-opacity:1; fill:none" points="1605.9,1423.18 1605.9,1404.28 "/>
<polyline clip-path="url(#clip260)" style="stroke:#000000; stroke-linecap:round; stroke-linejoin:round; stroke-width:4; stroke-opacity:1; fill:none" points="2103.8,1423.18 2103.8,1404.28 "/>
<path clip-path="url(#clip260)" d="M112.177 1454.1 Q108.566 1454.1 106.737 1457.66 Q104.932 1461.2 104.932 1468.33 Q104.932 1475.44 106.737 1479.01 Q108.566 1482.55 112.177 1482.55 Q115.811 1482.55 117.617 1479.01 Q119.446 1475.44 119.446 1468.33 Q119.446 1461.2 117.617 1457.66 Q115.811 1454.1 112.177 1454.1 M112.177 1450.39 Q117.987 1450.39 121.043 1455 Q124.122 1459.58 124.122 1468.33 Q124.122 1477.06 121.043 1481.67 Q117.987 1486.25 112.177 1486.25 Q106.367 1486.25 103.288 1481.67 Q100.233 1477.06 100.233 1468.33 Q100.233 1459.58 103.288 1455 Q106.367 1450.39 112.177 1450.39 Z" fill="#000000" fill-rule="nonzero" fill-opacity="1" /><path clip-path="url(#clip260)" d="M584.771 1481.64 L592.41 1481.64 L592.41 1455.28 L584.1 1456.95 L584.1 1452.69 L592.364 1451.02 L597.04 1451.02 L597.04 1481.64 L604.678 1481.64 L604.678 1485.58 L584.771 1485.58 L584.771 1481.64 Z" fill="#000000" fill-rule="nonzero" fill-opacity="1" /><path clip-path="url(#clip260)" d="M624.123 1454.1 Q620.512 1454.1 618.683 1457.66 Q616.878 1461.2 616.878 1468.33 Q616.878 1475.44 618.683 1479.01 Q620.512 1482.55 624.123 1482.55 Q627.757 1482.55 629.563 1479.01 Q631.391 1475.44 631.391 1468.33 Q631.391 1461.2 629.563 1457.66 Q627.757 1454.1 624.123 1454.1 M624.123 1450.39 Q629.933 1450.39 632.989 1455 Q636.067 1459.58 636.067 1468.33 Q636.067 1477.06 632.989 1481.67 Q629.933 1486.25 624.123 1486.25 Q618.313 1486.25 615.234 1481.67 Q612.178 1477.06 612.178 1468.33 Q612.178 1459.58 615.234 1455 Q618.313 1450.39 624.123 1450.39 Z" fill="#000000" fill-rule="nonzero" fill-opacity="1" /><path clip-path="url(#clip260)" d="M1086.76 1481.64 L1103.08 1481.64 L1103.08 1485.58 L1081.14 1485.58 L1081.14 1481.64 Q1083.8 1478.89 1088.38 1474.26 Q1092.99 1469.61 1094.17 1468.27 Q1096.42 1465.74 1097.3 1464.01 Q1098.2 1462.25 1098.2 1460.56 Q1098.2 1457.8 1096.25 1456.07 Q1094.33 1454.33 1091.23 1454.33 Q1089.03 1454.33 1086.58 1455.09 Q1084.15 1455.86 1081.37 1457.41 L1081.37 1452.69 Q1084.19 1451.55 1086.65 1450.97 Q1089.1 1450.39 1091.14 1450.39 Q1096.51 1450.39 1099.7 1453.08 Q1102.9 1455.77 1102.9 1460.26 Q1102.9 1462.39 1102.09 1464.31 Q1101.3 1466.2 1099.19 1468.8 Q1098.61 1469.47 1095.51 1472.69 Q1092.41 1475.88 1086.76 1481.64 Z" fill="#000000" fill-rule="nonzero" fill-opacity="1" /><path clip-path="url(#clip260)" d="M1122.9 1454.1 Q1119.29 1454.1 1117.46 1457.66 Q1115.65 1461.2 1115.65 1468.33 Q1115.65 1475.44 1117.46 1479.01 Q1119.29 1482.55 1122.9 1482.55 Q1126.53 1482.55 1128.34 1479.01 Q1130.17 1475.44 1130.17 1468.33 Q1130.17 1461.2 1128.34 1457.66 Q1126.53 1454.1 1122.9 1454.1 M1122.9 1450.39 Q1128.71 1450.39 1131.76 1455 Q1134.84 1459.58 1134.84 1468.33 Q1134.84 1477.06 1131.76 1481.67 Q1128.71 1486.25 1122.9 1486.25 Q1117.09 1486.25 1114.01 1481.67 Q1110.95 1477.06 1110.95 1468.33 Q1110.95 1459.58 1114.01 1455 Q1117.09 1450.39 1122.9 1450.39 Z" fill="#000000" fill-rule="nonzero" fill-opacity="1" /><path clip-path="url(#clip260)" d="M1594.74 1466.95 Q1598.1 1467.66 1599.97 1469.93 Q1601.87 1472.2 1601.87 1475.53 Q1601.87 1480.65 1598.35 1483.45 Q1594.83 1486.25 1588.35 1486.25 Q1586.17 1486.25 1583.86 1485.81 Q1581.57 1485.39 1579.11 1484.54 L1579.11 1480.02 Q1581.06 1481.16 1583.37 1481.74 Q1585.69 1482.32 1588.21 1482.32 Q1592.61 1482.32 1594.9 1480.58 Q1597.22 1478.84 1597.22 1475.53 Q1597.22 1472.48 1595.06 1470.77 Q1592.93 1469.03 1589.11 1469.03 L1585.09 1469.03 L1585.09 1465.19 L1589.3 1465.19 Q1592.75 1465.19 1594.58 1463.82 Q1596.41 1462.43 1596.41 1459.84 Q1596.41 1457.18 1594.51 1455.77 Q1592.63 1454.33 1589.11 1454.33 Q1587.19 1454.33 1584.99 1454.75 Q1582.79 1455.16 1580.16 1456.04 L1580.16 1451.88 Q1582.82 1451.14 1585.13 1450.77 Q1587.47 1450.39 1589.53 1450.39 Q1594.85 1450.39 1597.96 1452.83 Q1601.06 1455.23 1601.06 1459.35 Q1601.06 1462.22 1599.41 1464.21 Q1597.77 1466.18 1594.74 1466.95 Z" fill="#000000" fill-rule="nonzero" fill-opacity="1" /><path clip-path="url(#clip260)" d="M1620.73 1454.1 Q1617.12 1454.1 1615.29 1457.66 Q1613.49 1461.2 1613.49 1468.33 Q1613.49 1475.44 1615.29 1479.01 Q1617.12 1482.55 1620.73 1482.55 Q1624.37 1482.55 1626.17 1479.01 Q1628 1475.44 1628 1468.33 Q1628 1461.2 1626.17 1457.66 Q1624.37 1454.1 1620.73 1454.1 M1620.73 1450.39 Q1626.54 1450.39 1629.6 1455 Q1632.68 1459.58 1632.68 1468.33 Q1632.68 1477.06 1629.6 1481.67 Q1626.54 1486.25 1620.73 1486.25 Q1614.92 1486.25 1611.85 1481.67 Q1608.79 1477.06 1608.79 1468.33 Q1608.79 1459.58 1611.85 1455 Q1614.92 1450.39 1620.73 1450.39 Z" fill="#000000" fill-rule="nonzero" fill-opacity="1" /><path clip-path="url(#clip260)" d="M2091.97 1455.09 L2080.17 1473.54 L2091.97 1473.54 L2091.97 1455.09 M2090.75 1451.02 L2096.63 1451.02 L2096.63 1473.54 L2101.56 1473.54 L2101.56 1477.43 L2096.63 1477.43 L2096.63 1485.58 L2091.97 1485.58 L2091.97 1477.43 L2076.37 1477.43 L2076.37 1472.92 L2090.75 1451.02 Z" fill="#000000" fill-rule="nonzero" fill-opacity="1" /><path clip-path="url(#clip260)" d="M2119.29 1454.1 Q2115.68 1454.1 2113.85 1457.66 Q2112.04 1461.2 2112.04 1468.33 Q2112.04 1475.44 2113.85 1479.01 Q2115.68 1482.55 2119.29 1482.55 Q2122.92 1482.55 2124.73 1479.01 Q2126.56 1475.44 2126.56 1468.33 Q2126.56 1461.2 2124.73 1457.66 Q2122.92 1454.1 2119.29 1454.1 M2119.29 1450.39 Q2125.1 1450.39 2128.15 1455 Q2131.23 1459.58 2131.23 1468.33 Q2131.23 1477.06 2128.15 1481.67 Q2125.1 1486.25 2119.29 1486.25 Q2113.48 1486.25 2110.4 1481.67 Q2107.34 1477.06 2107.34 1468.33 Q2107.34 1459.58 2110.4 1455 Q2113.48 1450.39 2119.29 1450.39 Z" fill="#000000" fill-rule="nonzero" fill-opacity="1" /><path clip-path="url(#clip260)" d="M1231.53 1522.27 L1231.53 1532.4 L1243.59 1532.4 L1243.59 1536.95 L1231.53 1536.95 L1231.53 1556.3 Q1231.53 1560.66 1232.71 1561.9 Q1233.91 1563.14 1237.58 1563.14 L1243.59 1563.14 L1243.59 1568.04 L1237.58 1568.04 Q1230.8 1568.04 1228.22 1565.53 Q1225.64 1562.98 1225.64 1556.3 L1225.64 1536.95 L1221.34 1536.95 L1221.34 1532.4 L1225.64 1532.4 L1225.64 1522.27 L1231.53 1522.27 Z" fill="#000000" fill-rule="nonzero" fill-opacity="1" /><polyline clip-path="url(#clip260)" style="stroke:#000000; stroke-linecap:round; stroke-linejoin:round; stroke-width:4; stroke-opacity:1; fill:none" points="112.177,1423.18 112.177,47.2441 "/>
<polyline clip-path="url(#clip260)" style="stroke:#000000; stroke-linecap:round; stroke-linejoin:round; stroke-width:4; stroke-opacity:1; fill:none" points="112.177,1411.75 131.075,1411.75 "/>
<polyline clip-path="url(#clip260)" style="stroke:#000000; stroke-linecap:round; stroke-linejoin:round; stroke-width:4; stroke-opacity:1; fill:none" points="112.177,1117.98 131.075,1117.98 "/>
<polyline clip-path="url(#clip260)" style="stroke:#000000; stroke-linecap:round; stroke-linejoin:round; stroke-width:4; stroke-opacity:1; fill:none" points="112.177,824.208 131.075,824.208 "/>
<polyline clip-path="url(#clip260)" style="stroke:#000000; stroke-linecap:round; stroke-linejoin:round; stroke-width:4; stroke-opacity:1; fill:none" points="112.177,530.437 131.075,530.437 "/>
<polyline clip-path="url(#clip260)" style="stroke:#000000; stroke-linecap:round; stroke-linejoin:round; stroke-width:4; stroke-opacity:1; fill:none" points="112.177,236.666 131.075,236.666 "/>
<path clip-path="url(#clip260)" d="M64.2328 1397.55 Q60.6217 1397.55 58.793 1401.11 Q56.9875 1404.66 56.9875 1411.79 Q56.9875 1418.89 58.793 1422.46 Q60.6217 1426 64.2328 1426 Q67.867 1426 69.6726 1422.46 Q71.5013 1418.89 71.5013 1411.79 Q71.5013 1404.66 69.6726 1401.11 Q67.867 1397.55 64.2328 1397.55 M64.2328 1393.85 Q70.0429 1393.85 73.0985 1398.45 Q76.1772 1403.04 76.1772 1411.79 Q76.1772 1420.51 73.0985 1425.12 Q70.0429 1429.7 64.2328 1429.7 Q58.4226 1429.7 55.344 1425.12 Q52.2884 1420.51 52.2884 1411.79 Q52.2884 1403.04 55.344 1398.45 Q58.4226 1393.85 64.2328 1393.85 Z" fill="#000000" fill-rule="nonzero" fill-opacity="1" /><path clip-path="url(#clip260)" d="M56.2699 1131.32 L63.9087 1131.32 L63.9087 1104.96 L55.5986 1106.63 L55.5986 1102.37 L63.8624 1100.7 L68.5383 1100.7 L68.5383 1131.32 L76.1772 1131.32 L76.1772 1135.26 L56.2699 1135.26 L56.2699 1131.32 Z" fill="#000000" fill-rule="nonzero" fill-opacity="1" /><path clip-path="url(#clip260)" d="M59.8578 837.553 L76.1772 837.553 L76.1772 841.488 L54.2328 841.488 L54.2328 837.553 Q56.8949 834.799 61.4782 830.169 Q66.0846 825.516 67.2652 824.174 Q69.5105 821.651 70.3902 819.914 Q71.2929 818.155 71.2929 816.465 Q71.2929 813.711 69.3485 811.975 Q67.4272 810.239 64.3254 810.239 Q62.1263 810.239 59.6726 811.003 Q57.2421 811.766 54.4643 813.317 L54.4643 808.595 Q57.2884 807.461 59.7421 806.882 Q62.1958 806.303 64.2328 806.303 Q69.6031 806.303 72.7976 808.989 Q75.992 811.674 75.992 816.165 Q75.992 818.294 75.1818 820.215 Q74.3948 822.114 72.2883 824.706 Q71.7096 825.377 68.6078 828.595 Q65.5059 831.789 59.8578 837.553 Z" fill="#000000" fill-rule="nonzero" fill-opacity="1" /><path clip-path="url(#clip260)" d="M69.0476 529.083 Q72.404 529.801 74.279 532.069 Q76.1772 534.338 76.1772 537.671 Q76.1772 542.787 72.6587 545.588 Q69.1402 548.389 62.6587 548.389 Q60.4828 548.389 58.168 547.949 Q55.8764 547.532 53.4227 546.676 L53.4227 542.162 Q55.3671 543.296 57.6819 543.875 Q59.9967 544.453 62.5198 544.453 Q66.918 544.453 69.2096 542.717 Q71.5244 540.981 71.5244 537.671 Q71.5244 534.616 69.3717 532.903 Q67.242 531.166 63.4226 531.166 L59.3949 531.166 L59.3949 527.324 L63.6078 527.324 Q67.0569 527.324 68.8855 525.958 Q70.7142 524.569 70.7142 521.977 Q70.7142 519.315 68.8161 517.903 Q66.9411 516.467 63.4226 516.467 Q61.5013 516.467 59.3023 516.884 Q57.1032 517.301 54.4643 518.18 L54.4643 514.014 Q57.1264 513.273 59.4412 512.903 Q61.7791 512.532 63.8393 512.532 Q69.1633 512.532 72.2652 514.963 Q75.367 517.37 75.367 521.491 Q75.367 524.361 73.7235 526.352 Q72.08 528.319 69.0476 529.083 Z" fill="#000000" fill-rule="nonzero" fill-opacity="1" /><path clip-path="url(#clip260)" d="M66.5939 223.46 L54.7884 241.909 L66.5939 241.909 L66.5939 223.46 M65.367 219.386 L71.2466 219.386 L71.2466 241.909 L76.1772 241.909 L76.1772 245.798 L71.2466 245.798 L71.2466 253.946 L66.5939 253.946 L66.5939 245.798 L50.9921 245.798 L50.9921 241.284 L65.367 219.386 Z" fill="#000000" fill-rule="nonzero" fill-opacity="1" /><polyline clip-path="url(#clip261)" style="stroke:#009af9; stroke-linecap:round; stroke-linejoin:round; stroke-width:24; stroke-opacity:1; fill:none" points="112.177,824.208 114.42,837.288 116.663,850.06 118.906,862.516 121.148,874.646 123.391,886.437 125.634,897.878 127.877,908.957 130.12,919.664 132.363,929.993 134.605,939.936 136.848,949.493 139.091,958.663 141.334,967.446 143.577,975.849 145.819,983.876 148.062,991.536 150.305,998.836 152.548,1005.79 154.791,1012.4 157.034,1018.68 159.276,1024.66 161.519,1030.32 163.762,1035.7 166.005,1040.8 168.248,1045.63 170.491,1050.21 172.733,1054.55 174.976,1058.65 177.219,1062.54 179.462,1066.21 181.705,1069.69 183.947,1072.97 186.19,1076.08 188.433,1079.02 190.676,1081.79 192.919,1084.41 195.162,1086.88 197.404,1089.21 199.647,1091.42 201.89,1093.5 204.133,1095.46 206.376,1097.3 208.619,1099.04 210.861,1100.68 213.104,1102.23 215.347,1103.68 217.59,1105.05 219.833,1106.33 222.075,1107.54 224.318,1108.67 226.561,1109.74 228.804,1110.74 231.047,1111.67 233.29,1112.55 235.532,1113.37 237.775,1114.13 240.018,1114.85 242.261,1115.51 244.504,1116.13 246.746,1116.71 248.989,1117.24 251.232,1117.74 253.475,1118.2 255.718,1118.62 257.961,1119.01 260.203,1119.36 262.446,1119.69 264.689,1119.99 266.932,1120.26 269.175,1120.5 271.418,1120.72 273.66,1120.92 275.903,1121.09 278.146,1121.24 280.389,1121.37 282.632,1121.48 284.874,1121.57 287.117,1121.64 289.36,1121.7 291.603,1121.74 293.846,1121.76 296.089,1121.77 298.331,1121.77 300.574,1121.75 302.817,1121.72 305.06,1121.68 307.303,1121.63 309.545,1121.56 311.788,1121.48 314.031,1121.4 316.274,1121.3 318.517,1121.2 320.76,1121.08 323.002,1120.96 325.245,1120.82 327.488,1120.68 329.731,1120.54 331.974,1120.38 334.217,1120.22 336.459,1120.05 338.702,1119.87 340.945,1119.69 343.188,1119.5 345.431,1119.31 347.673,1119.11 349.916,1118.9 352.159,1118.69 354.402,1118.48 356.645,1118.26 358.888,1118.03 361.13,1117.8 363.373,1117.56 365.616,1117.32 367.859,1117.08 370.102,1116.83 372.344,1116.58 374.587,1116.32 376.83,1116.06 379.073,1115.79 381.316,1115.53 383.559,1115.25 385.801,1114.98 388.044,1114.7 390.287,1114.41 392.53,1114.13 394.773,1113.84 397.016,1113.54 399.258,1113.25 401.501,1112.95 403.744,1112.65 405.987,1112.34 408.23,1112.03 410.472,1111.72 412.715,1111.41 414.958,1111.09 417.201,1110.77 419.444,1110.45 421.687,1110.12 423.929,1109.79 426.172,1109.46 428.415,1109.12 430.658,1108.79 432.901,1108.45 435.143,1108.1 437.386,1107.76 439.629,1107.41 441.872,1107.06 444.115,1106.7 446.358,1106.34 448.6,1105.98 450.843,1105.62 453.086,1105.26 455.329,1104.89 457.572,1104.52 459.815,1104.15 462.057,1103.77 464.3,1103.4 466.543,1103.02 468.786,1102.63 471.029,1102.25 473.271,1101.86 475.514,1101.47 477.757,1101.08 480,1100.68 482.243,1100.28 484.486,1099.88 486.728,1099.48 488.971,1099.07 491.214,1098.67 493.457,1098.26 495.7,1097.84 497.942,1097.43 500.185,1097.01 502.428,1096.59 504.671,1096.16 506.914,1095.73 509.157,1095.31 511.399,1094.87 513.642,1094.44 515.885,1094 518.128,1093.56 520.371,1093.12 522.614,1092.68 524.856,1092.23 527.099,1091.78 529.342,1091.33 531.585,1090.87 533.828,1090.41 536.07,1089.95 538.313,1089.49 540.556,1089.03 542.799,1088.56 545.042,1088.09 547.285,1087.62 549.527,1087.14 551.77,1086.66 554.013,1086.18 556.256,1085.7 558.499,1085.21 560.741,1084.72 562.984,1084.23 565.227,1083.74 567.47,1083.24 569.713,1082.74 571.956,1082.24 574.198,1081.74 576.441,1081.23 578.684,1080.72 580.927,1080.21 583.17,1079.69 585.413,1079.18 587.655,1078.66 589.898,1078.14 592.141,1077.61 594.384,1077.08 596.627,1076.55 598.869,1076.02 601.112,1075.49 603.355,1074.95 605.598,1074.41 607.841,1073.87 610.084,1073.32 612.326,1072.77 614.569,1072.22 616.812,1071.67 619.055,1071.12 621.298,1070.56 623.54,1070 625.783,1069.44 628.026,1068.87 630.269,1068.3 632.512,1067.73 634.755,1067.16 636.997,1066.58 639.24,1066.01 641.483,1065.43 643.726,1064.84 645.969,1064.26 648.212,1063.67 650.454,1063.08 652.697,1062.49 654.94,1061.89 657.183,1061.29 659.426,1060.69 661.668,1060.09 663.911,1059.48 666.154,1058.87 668.397,1058.26 670.64,1057.65 672.883,1057.03 675.125,1056.42 677.368,1055.8 679.611,1055.18 681.854,1054.55 684.097,1053.93 686.339,1053.3 688.582,1052.67 690.825,1052.03 693.068,1051.4 695.311,1050.76 697.554,1050.12 699.796,1049.48 702.039,1048.84 704.282,1048.2 706.525,1047.55 708.768,1046.9 711.011,1046.25 713.253,1045.6 715.496,1044.95 717.739,1044.29 719.982,1043.64 722.225,1042.98 724.467,1042.32 726.71,1041.65 728.953,1040.99 731.196,1040.32 733.439,1039.65 735.682,1038.98 737.924,1038.31 740.167,1037.64 742.41,1036.97 744.653,1036.29 746.896,1035.61 749.138,1034.93 751.381,1034.25 753.624,1033.57 755.867,1032.88 758.11,1032.19 760.353,1031.51 762.595,1030.82 764.838,1030.12 767.081,1029.43 769.324,1028.74 771.567,1028.04 773.81,1027.34 776.052,1026.64 778.295,1025.94 780.538,1025.24 782.781,1024.53 785.024,1023.82 787.266,1023.12 789.509,1022.41 791.752,1021.7 793.995,1020.98 796.238,1020.27 798.481,1019.56 800.723,1018.84 802.966,1018.13 805.209,1017.41 807.452,1016.69 809.695,1015.97 811.938,1015.25 814.18,1014.53 816.423,1013.81 818.666,1013.09 820.909,1012.37 823.152,1011.65 825.394,1010.92 827.637,1010.2 829.88,1009.48 832.123,1008.75 834.366,1008.03 836.609,1007.3 838.851,1006.58 841.094,1005.85 843.337,1005.12 845.58,1004.4 847.823,1003.67 850.065,1002.95 852.308,1002.22 854.551,1001.49 856.794,1000.76 859.037,1000.04 861.28,999.311 863.522,998.584 865.765,997.856 868.008,997.129 870.251,996.402 872.494,995.675 874.737,994.948 876.979,994.221 879.222,993.494 881.465,992.767 883.708,992.04 885.951,991.313 888.193,990.587 890.436,989.86 892.679,989.134 894.922,988.407 897.165,987.681 899.408,986.955 901.65,986.229 903.893,985.503 906.136,984.777 908.379,984.052 910.622,983.327 912.864,982.602 915.107,981.878 917.35,981.154 919.593,980.431 921.836,979.708 924.079,978.987 926.321,978.266 928.564,977.546 930.807,976.827 933.05,976.11 935.293,975.393 937.536,974.677 939.778,973.963 942.021,973.25 944.264,972.538 946.507,971.828 948.75,971.119 950.992,970.411 953.235,969.705 955.478,969 957.721,968.297 959.964,967.596 962.207,966.896 964.449,966.198 966.692,965.501 968.935,964.806 971.178,964.113 973.421,963.422 975.663,962.732 977.906,962.045 980.149,961.359 982.392,960.674 984.635,959.992 986.878,959.312 989.12,958.633 991.363,957.956 993.606,957.281 995.849,956.608 998.092,955.937 1000.33,955.267 1002.58,954.6 1004.82,953.934 1007.06,953.27 1009.31,952.608 1011.55,951.948 1013.79,951.289 1016.03,950.632 1018.28,949.977 1020.52,949.324 1022.76,948.672 1025.01,948.022 1027.25,947.374 1029.49,946.727 1031.73,946.082 1033.98,945.439 1036.22,944.796 1038.46,944.156 1040.71,943.517 1042.95,942.881 1045.19,942.246 1047.43,941.613 1049.68,940.983 1051.92,940.354 1054.16,939.728 1056.41,939.104 1058.65,938.482 1060.89,937.863 1063.13,937.246 1065.38,936.631 1067.62,936.019 1069.86,935.41 1072.1,934.803 1074.35,934.198 1076.59,933.596 1078.83,932.997 1081.08,932.401 1083.32,931.807 1085.56,931.216 1087.8,930.627 1090.05,930.042 1092.29,929.459 1094.53,928.879 1096.78,928.301 1099.02,927.727 1101.26,927.155 1103.5,926.586 1105.75,926.02 1107.99,925.457 1110.23,924.897 1112.48,924.34 1114.72,923.785 1116.96,923.233 1119.2,922.684 1121.45,922.138 1123.69,921.595 1125.93,921.054 1128.18,920.517 1130.42,919.982 1132.66,919.449 1134.9,918.92 1137.15,918.393 1139.39,917.869 1141.63,917.347 1143.88,916.829 1146.12,916.312 1148.36,915.799 1150.6,915.287 1152.85,914.779 1155.09,914.272 1157.33,913.768 1159.57,913.267 1161.82,912.767 1164.06,912.27 1166.3,911.776 1168.55,911.283 1170.79,910.792 1173.03,910.304 1175.27,909.818 1177.52,909.334 1179.76,908.853 1182,908.374 1184.25,907.898 1186.49,907.424 1188.73,906.953 1190.97,906.485 1193.22,906.019 1195.46,905.555 1197.7,905.095 1199.95,904.637 1202.19,904.181 1204.43,903.729 1206.67,903.279 1208.92,902.832 1211.16,902.388 1213.4,901.946 1215.65,901.508 1217.89,901.072 1220.13,900.639 1222.37,900.208 1224.62,899.781 1226.86,899.356 1229.1,898.935 1231.35,898.516 1233.59,898.1 1235.83,897.686 1238.07,897.276 1240.32,896.868 1242.56,896.464 1244.8,896.062 1247.04,895.662 1249.29,895.266 1251.53,894.872 1253.77,894.481 1256.02,894.093 1258.26,893.708 1260.5,893.325 1262.74,892.945 1264.99,892.568 1267.23,892.193 1269.47,891.821 1271.72,891.451 1273.96,891.084 1276.2,890.719 1278.44,890.357 1280.69,889.998 1282.93,889.641 1285.17,889.286 1287.42,888.933 1289.66,888.583 1291.9,888.235 1294.14,887.89 1296.39,887.546 1298.63,887.205 1300.87,886.865 1303.12,886.528 1305.36,886.193 1307.6,885.859 1309.84,885.528 1312.09,885.198 1314.33,884.87 1316.57,884.544 1318.82,884.219 1321.06,883.897 1323.3,883.577 1325.54,883.259 1327.79,882.943 1330.03,882.629 1332.27,882.317 1334.51,882.008 1336.76,881.7 1339,881.395 1341.24,881.092 1343.49,880.791 1345.73,880.492 1347.97,880.195 1350.21,879.9 1352.46,879.608 1354.7,879.318 1356.94,879.03 1359.19,878.744 1361.43,878.461 1363.67,878.179 1365.91,877.9 1368.16,877.623 1370.4,877.348 1372.64,877.076 1374.89,876.805 1377.13,876.537 1379.37,876.271 1381.61,876.007 1383.86,875.745 1386.1,875.485 1388.34,875.227 1390.59,874.972 1392.83,874.719 1395.07,874.467 1397.31,874.218 1399.56,873.971 1401.8,873.726 1404.04,873.483 1406.29,873.241 1408.53,873.002 1410.77,872.765 1413.01,872.53 1415.26,872.297 1417.5,872.065 1419.74,871.836 1421.98,871.608 1424.23,871.382 1426.47,871.158 1428.71,870.936 1430.96,870.715 1433.2,870.496 1435.44,870.279 1437.68,870.064 1439.93,869.85 1442.17,869.637 1444.41,869.427 1446.66,869.217 1448.9,869.01 1451.14,868.803 1453.38,868.598 1455.63,868.395 1457.87,868.193 1460.11,867.992 1462.36,867.792 1464.6,867.594 1466.84,867.397 1469.08,867.2 1471.33,867.006 1473.57,866.812 1475.81,866.62 1478.06,866.429 1480.3,866.24 1482.54,866.052 1484.78,865.866 1487.03,865.681 1489.27,865.497 1491.51,865.315 1493.76,865.134 1496,864.955 1498.24,864.777 1500.48,864.6 1502.73,864.425 1504.97,864.251 1507.21,864.079 1509.46,863.908 1511.7,863.739 1513.94,863.571 1516.18,863.405 1518.43,863.239 1520.67,863.076 1522.91,862.913 1525.15,862.753 1527.4,862.593 1529.64,862.435 1531.88,862.278 1534.13,862.123 1536.37,861.969 1538.61,861.817 1540.85,861.666 1543.1,861.516 1545.34,861.367 1547.58,861.22 1549.83,861.075 1552.07,860.93 1554.31,860.787 1556.55,860.645 1558.8,860.505 1561.04,860.365 1563.28,860.227 1565.53,860.091 1567.77,859.955 1570.01,859.821 1572.25,859.688 1574.5,859.556 1576.74,859.425 1578.98,859.296 1581.23,859.168 1583.47,859.04 1585.71,858.914 1587.95,858.789 1590.2,858.665 1592.44,858.542 1594.68,858.421 1596.93,858.3 1599.17,858.18 1601.41,858.061 1603.65,857.943 1605.9,857.826 1608.14,857.71 1610.38,857.595 1612.62,857.481 1614.87,857.367 1617.11,857.255 1619.35,857.143 1621.6,857.032 1623.84,856.921 1626.08,856.811 1628.32,856.702 1630.57,856.594 1632.81,856.486 1635.05,856.379 1637.3,856.273 1639.54,856.167 1641.78,856.062 1644.02,855.958 1646.27,855.855 1648.51,855.752 1650.75,855.651 1653,855.55 1655.24,855.449 1657.48,855.35 1659.72,855.252 1661.97,855.154 1664.21,855.057 1666.45,854.961 1668.7,854.865 1670.94,854.771 1673.18,854.677 1675.42,854.584 1677.67,854.492 1679.91,854.401 1682.15,854.311 1684.4,854.221 1686.64,854.132 1688.88,854.044 1691.12,853.957 1693.37,853.871 1695.61,853.785 1697.85,853.7 1700.09,853.616 1702.34,853.533 1704.58,853.45 1706.82,853.369 1709.07,853.288 1711.31,853.208 1713.55,853.129 1715.79,853.05 1718.04,852.972 1720.28,852.895 1722.52,852.819 1724.77,852.744 1727.01,852.669 1729.25,852.595 1731.49,852.521 1733.74,852.449 1735.98,852.377 1738.22,852.306 1740.47,852.235 1742.71,852.166 1744.95,852.096 1747.19,852.028 1749.44,851.96 1751.68,851.893 1753.92,851.827 1756.17,851.761 1758.41,851.696 1760.65,851.631 1762.89,851.567 1765.14,851.504 1767.38,851.441 1769.62,851.379 1771.87,851.317 1774.11,851.256 1776.35,851.195 1778.59,851.135 1780.84,851.076 1783.08,851.016 1785.32,850.958 1787.56,850.9 1789.81,850.842 1792.05,850.785 1794.29,850.728 1796.54,850.671 1798.78,850.615 1801.02,850.56 1803.26,850.504 1805.51,850.45 1807.75,850.395 1809.99,850.341 1812.24,850.287 1814.48,850.233 1816.72,850.179 1818.96,850.126 1821.21,850.073 1823.45,850.02 1825.69,849.968 1827.94,849.916 1830.18,849.865 1832.42,849.813 1834.66,849.763 1836.91,849.712 1839.15,849.662 1841.39,849.612 1843.64,849.563 1845.88,849.514 1848.12,849.466 1850.36,849.418 1852.61,849.37 1854.85,849.323 1857.09,849.276 1859.34,849.229 1861.58,849.183 1863.82,849.138 1866.06,849.092 1868.31,849.048 1870.55,849.003 1872.79,848.959 1875.03,848.916 1877.28,848.873 1879.52,848.83 1881.76,848.788 1884.01,848.746 1886.25,848.704 1888.49,848.663 1890.73,848.623 1892.98,848.583 1895.22,848.543 1897.46,848.503 1899.71,848.464 1901.95,848.426 1904.19,848.388 1906.43,848.35 1908.68,848.313 1910.92,848.276 1913.16,848.24 1915.41,848.203 1917.65,848.168 1919.89,848.132 1922.13,848.098 1924.38,848.063 1926.62,848.029 1928.86,847.995 1931.11,847.962 1933.35,847.929 1935.59,847.896 1937.83,847.864 1940.08,847.832 1942.32,847.8 1944.56,847.769 1946.81,847.738 1949.05,847.708 1951.29,847.677 1953.53,847.648 1955.78,847.618 1958.02,847.589 1960.26,847.56 1962.5,847.531 1964.75,847.503 1966.99,847.474 1969.23,847.447 1971.48,847.419 1973.72,847.392 1975.96,847.365 1978.2,847.338 1980.45,847.311 1982.69,847.285 1984.93,847.258 1987.18,847.233 1989.42,847.207 1991.66,847.181 1993.9,847.156 1996.15,847.13 1998.39,847.105 2000.63,847.08 2002.88,847.055 2005.12,847.031 2007.36,847.006 2009.6,846.982 2011.85,846.957 2014.09,846.933 2016.33,846.909 2018.58,846.884 2020.82,846.86 2023.06,846.836 2025.3,846.812 2027.55,846.788 2029.79,846.764 2032.03,846.74 2034.28,846.716 2036.52,846.692 2038.76,846.668 2041,846.645 2043.25,846.621 2045.49,846.598 2047.73,846.575 2049.97,846.552 2052.22,846.529 2054.46,846.506 2056.7,846.484 2058.95,846.461 2061.19,846.439 2063.43,846.417 2065.67,846.395 2067.92,846.374 2070.16,846.352 2072.4,846.331 2074.65,846.31 2076.89,846.289 2079.13,846.268 2081.37,846.248 2083.62,846.228 2085.86,846.208 2088.1,846.188 2090.35,846.168 2092.59,846.149 2094.83,846.13 2097.07,846.111 2099.32,846.092 2101.56,846.074 2103.8,846.056 2106.05,846.038 2108.29,846.02 2110.53,846.003 2112.77,845.986 2115.02,845.969 2117.26,845.952 2119.5,845.935 2121.75,845.919 2123.99,845.903 2126.23,845.887 2128.47,845.872 2130.72,845.856 2132.96,845.841 2135.2,845.826 2137.45,845.812 2139.69,845.797 2141.93,845.783 2144.17,845.769 2146.42,845.756 2148.66,845.742 2150.9,845.729 2153.14,845.716 2155.39,845.703 2157.63,845.69 2159.87,845.678 2162.12,845.665 2164.36,845.653 2166.6,845.641 2168.84,845.63 2171.09,845.618 2173.33,845.607 2175.57,845.595 2177.82,845.584 2180.06,845.574 2182.3,845.563 2184.54,845.552 2186.79,845.542 2189.03,845.531 2191.27,845.521 2193.52,845.511 2195.76,845.501 2198,845.491 2200.24,845.481 2202.49,845.471 2204.73,845.462 2206.97,845.452 2209.22,845.443 2211.46,845.433 2213.7,845.424 2215.94,845.414 2218.19,845.405 2220.43,845.395 2222.67,845.386 2224.92,845.376 2227.16,845.367 2229.4,845.357 2231.64,845.348 2233.89,845.338 2236.13,845.329 2238.37,845.319 2240.61,845.309 2242.86,845.299 2245.1,845.289 2247.34,845.279 2249.59,845.269 2251.83,845.258 2254.07,845.248 2256.31,845.237 2258.56,845.227 2260.8,845.216 2263.04,845.206 2265.29,845.196 2267.53,845.186 2269.77,845.176 2272.01,845.166 2274.26,845.156 2276.5,845.147 2278.74,845.137 2280.99,845.128 2283.23,845.119 2285.47,845.11 2287.71,845.101 2289.96,845.092 2292.2,845.083 2294.44,845.074 2296.69,845.065 2298.93,845.057 2301.17,845.048 2303.41,845.04 2305.66,845.032 2307.9,845.024 2310.14,845.015 2312.39,845.007 2314.63,845 2316.87,844.992 2319.11,844.984 2321.36,844.976 2323.6,844.969 2325.84,844.961 2328.08,844.954 2330.33,844.946 2332.57,844.939 2334.81,844.932 2337.06,844.925 2339.3,844.918 2341.54,844.911 2343.78,844.904 2346.03,844.897 2348.27,844.89 2350.51,844.883 2352.76,844.876 "/>
<polyline clip-path="url(#clip261)" style="stroke:#e26f46; stroke-linecap:round; stroke-linejoin:round; stroke-width:24; stroke-opacity:1; fill:none" points="112.177,1382.37 114.42,1357.15 116.663,1333.07 118.906,1310.08 121.148,1288.15 123.391,1267.25 125.634,1247.32 127.877,1228.35 130.12,1210.28 132.363,1193.08 134.605,1176.71 136.848,1161.15 139.091,1146.34 141.334,1132.27 143.577,1118.9 145.819,1106.18 148.062,1094.1 150.305,1082.62 152.548,1071.72 154.791,1061.36 157.034,1051.52 159.276,1042.16 161.519,1033.28 163.762,1024.84 166.005,1016.82 168.248,1009.21 170.491,1001.97 172.733,995.088 174.976,988.55 177.219,982.334 179.462,976.425 181.705,970.807 183.947,965.465 186.19,960.385 188.433,955.552 190.676,950.955 192.919,946.58 195.162,942.415 197.404,938.451 199.647,934.675 201.89,931.077 204.133,927.65 206.376,924.384 208.619,921.271 210.861,918.303 213.104,915.472 215.347,912.771 217.59,910.193 219.833,907.732 222.075,905.381 224.318,903.134 226.561,900.986 228.804,898.931 231.047,896.964 233.29,895.082 235.532,893.279 237.775,891.552 240.018,889.897 242.261,888.31 244.504,886.787 246.746,885.324 248.989,883.92 251.232,882.569 253.475,881.27 255.718,880.019 257.961,878.813 260.203,877.651 262.446,876.529 264.689,875.446 266.932,874.399 269.175,873.388 271.418,872.409 273.66,871.462 275.903,870.544 278.146,869.654 280.389,868.79 282.632,867.952 284.874,867.136 287.117,866.342 289.36,865.569 291.603,864.815 293.846,864.079 296.089,863.36 298.331,862.657 300.574,861.969 302.817,861.294 305.06,860.633 307.303,859.985 309.545,859.348 311.788,858.723 314.031,858.108 316.274,857.503 318.517,856.907 320.76,856.319 323.002,855.74 325.245,855.168 327.488,854.603 329.731,854.044 331.974,853.491 334.217,852.943 336.459,852.4 338.702,851.86 340.945,851.325 343.188,850.793 345.431,850.264 347.673,849.738 349.916,849.214 352.159,848.693 354.402,848.174 356.645,847.657 358.888,847.141 361.13,846.627 363.373,846.114 365.616,845.602 367.859,845.091 370.102,844.581 372.344,844.071 374.587,843.56 376.83,843.05 379.073,842.54 381.316,842.029 383.559,841.517 385.801,841.005 388.044,840.492 390.287,839.977 392.53,839.461 394.773,838.943 397.016,838.424 399.258,837.903 401.501,837.38 403.744,836.855 405.987,836.329 408.23,835.8 410.472,835.27 412.715,834.737 414.958,834.202 417.201,833.665 419.444,833.126 421.687,832.584 423.929,832.04 426.172,831.494 428.415,830.945 430.658,830.393 432.901,829.838 435.143,829.281 437.386,828.721 439.629,828.157 441.872,827.591 444.115,827.022 446.358,826.45 448.6,825.874 450.843,825.295 453.086,824.713 455.329,824.127 457.572,823.538 459.815,822.945 462.057,822.348 464.3,821.748 466.543,821.145 468.786,820.538 471.029,819.927 473.271,819.313 475.514,818.695 477.757,818.073 480,817.448 482.243,816.819 484.486,816.186 486.728,815.549 488.971,814.909 491.214,814.265 493.457,813.617 495.7,812.965 497.942,812.309 500.185,811.649 502.428,810.985 504.671,810.317 506.914,809.645 509.157,808.97 511.399,808.29 513.642,807.606 515.885,806.917 518.128,806.225 520.371,805.528 522.614,804.827 524.856,804.122 527.099,803.413 529.342,802.699 531.585,801.981 533.828,801.259 536.07,800.532 538.313,799.801 540.556,799.065 542.799,798.325 545.042,797.581 547.285,796.832 549.527,796.078 551.77,795.321 554.013,794.559 556.256,793.792 558.499,793.021 560.741,792.245 562.984,791.465 565.227,790.68 567.47,789.891 569.713,789.097 571.956,788.299 574.198,787.495 576.441,786.688 578.684,785.875 580.927,785.058 583.17,784.236 585.413,783.41 587.655,782.579 589.898,781.743 592.141,780.902 594.384,780.057 596.627,779.207 598.869,778.352 601.112,777.492 603.355,776.628 605.598,775.758 607.841,774.884 610.084,774.006 612.326,773.122 614.569,772.234 616.812,771.341 619.055,770.443 621.298,769.54 623.54,768.633 625.783,767.72 628.026,766.803 630.269,765.881 632.512,764.955 634.755,764.023 636.997,763.087 639.24,762.146 641.483,761.2 643.726,760.25 645.969,759.295 648.212,758.335 650.454,757.371 652.697,756.403 654.94,755.43 657.183,754.453 659.426,753.471 661.668,752.484 663.911,751.493 666.154,750.496 668.397,749.495 670.64,748.489 672.883,747.479 675.125,746.463 677.368,745.443 679.611,744.417 681.854,743.387 684.097,742.351 686.339,741.311 688.582,740.266 690.825,739.215 693.068,738.16 695.311,737.099 697.554,736.034 699.796,734.964 702.039,733.888 704.282,732.808 706.525,731.722 708.768,730.632 711.011,729.536 713.253,728.436 715.496,727.331 717.739,726.22 719.982,725.105 722.225,723.985 724.467,722.86 726.71,721.731 728.953,720.596 731.196,719.457 733.439,718.314 735.682,717.165 737.924,716.012 740.167,714.855 742.41,713.693 744.653,712.526 746.896,711.355 749.138,710.18 751.381,709.001 753.624,707.817 755.867,706.63 758.11,705.438 760.353,704.242 762.595,703.043 764.838,701.839 767.081,700.632 769.324,699.421 771.567,698.207 773.81,696.989 776.052,695.768 778.295,694.543 780.538,693.316 782.781,692.084 785.024,690.85 787.266,689.611 789.509,688.37 791.752,687.124 793.995,685.875 796.238,684.622 798.481,683.366 800.723,682.106 802.966,680.842 805.209,679.575 807.452,678.304 809.695,677.029 811.938,675.751 814.18,674.469 816.423,673.184 818.666,671.894 820.909,670.602 823.152,669.305 825.394,668.005 827.637,666.702 829.88,665.395 832.123,664.085 834.366,662.771 836.609,661.454 838.851,660.134 841.094,658.81 843.337,657.483 845.58,656.153 847.823,654.82 850.065,653.484 852.308,652.145 854.551,650.802 856.794,649.458 859.037,648.11 861.28,646.759 863.522,645.407 865.765,644.051 868.008,642.693 870.251,641.333 872.494,639.97 874.737,638.606 876.979,637.239 879.222,635.87 881.465,634.5 883.708,633.127 885.951,631.754 888.193,630.378 890.436,629.001 892.679,627.623 894.922,626.244 897.165,624.864 899.408,623.483 901.65,622.101 903.893,620.719 906.136,619.336 908.379,617.952 910.622,616.568 912.864,615.183 915.107,613.798 917.35,612.411 919.593,611.024 921.836,609.636 924.079,608.246 926.321,606.857 928.564,605.466 930.807,604.074 933.05,602.681 935.293,601.288 937.536,599.893 939.778,598.498 942.021,597.101 944.264,595.704 946.507,594.306 948.75,592.907 950.992,591.507 953.235,590.107 955.478,588.705 957.721,587.303 959.964,585.901 962.207,584.498 964.449,583.094 966.692,581.69 968.935,580.285 971.178,578.88 973.421,577.475 975.663,576.069 977.906,574.664 980.149,573.258 982.392,571.852 984.635,570.447 986.878,569.042 989.12,567.637 991.363,566.232 993.606,564.828 995.849,563.425 998.092,562.023 1000.33,560.621 1002.58,559.221 1004.82,557.822 1007.06,556.424 1009.31,555.027 1011.55,553.632 1013.79,552.239 1016.03,550.848 1018.28,549.459 1020.52,548.072 1022.76,546.687 1025.01,545.305 1027.25,543.926 1029.49,542.55 1031.73,541.177 1033.98,539.807 1036.22,538.44 1038.46,537.077 1040.71,535.717 1042.95,534.359 1045.19,533.005 1047.43,531.653 1049.68,530.304 1051.92,528.957 1054.16,527.613 1056.41,526.272 1058.65,524.933 1060.89,523.597 1063.13,522.263 1065.38,520.931 1067.62,519.602 1069.86,518.276 1072.1,516.952 1074.35,515.63 1076.59,514.311 1078.83,512.994 1081.08,511.679 1083.32,510.367 1085.56,509.057 1087.8,507.75 1090.05,506.445 1092.29,505.143 1094.53,503.843 1096.78,502.546 1099.02,501.251 1101.26,499.959 1103.5,498.67 1105.75,497.383 1107.99,496.099 1110.23,494.818 1112.48,493.54 1114.72,492.265 1116.96,490.993 1119.2,489.723 1121.45,488.457 1123.69,487.195 1125.93,485.935 1128.18,484.679 1130.42,483.426 1132.66,482.178 1134.9,480.932 1137.15,479.691 1139.39,478.453 1141.63,477.22 1143.88,475.99 1146.12,474.765 1148.36,473.544 1150.6,472.328 1152.85,471.116 1155.09,469.909 1157.33,468.707 1159.57,467.51 1161.82,466.318 1164.06,465.132 1166.3,463.951 1168.55,462.775 1170.79,461.606 1173.03,460.442 1175.27,459.284 1177.52,458.131 1179.76,456.983 1182,455.84 1184.25,454.702 1186.49,453.569 1188.73,452.441 1190.97,451.317 1193.22,450.198 1195.46,449.084 1197.7,447.975 1199.95,446.87 1202.19,445.769 1204.43,444.673 1206.67,443.581 1208.92,442.494 1211.16,441.411 1213.4,440.332 1215.65,439.257 1217.89,438.186 1220.13,437.12 1222.37,436.058 1224.62,435 1226.86,433.946 1229.1,432.896 1231.35,431.85 1233.59,430.808 1235.83,429.771 1238.07,428.737 1240.32,427.708 1242.56,426.683 1244.8,425.661 1247.04,424.644 1249.29,423.632 1251.53,422.623 1253.77,421.618 1256.02,420.618 1258.26,419.622 1260.5,418.631 1262.74,417.644 1264.99,416.661 1267.23,415.682 1269.47,414.709 1271.72,413.739 1273.96,412.775 1276.2,411.815 1278.44,410.86 1280.69,409.909 1282.93,408.964 1285.17,408.023 1287.42,407.088 1289.66,406.158 1291.9,405.233 1294.14,404.313 1296.39,403.399 1298.63,402.49 1300.87,401.587 1303.12,400.69 1305.36,399.798 1307.6,398.912 1309.84,398.033 1312.09,397.16 1314.33,396.293 1316.57,395.432 1318.82,394.577 1321.06,393.728 1323.3,392.883 1325.54,392.045 1327.79,391.211 1330.03,390.383 1332.27,389.559 1334.51,388.741 1336.76,387.928 1339,387.119 1341.24,386.315 1343.49,385.516 1345.73,384.721 1347.97,383.932 1350.21,383.146 1352.46,382.365 1354.7,381.589 1356.94,380.817 1359.19,380.049 1361.43,379.285 1363.67,378.526 1365.91,377.771 1368.16,377.02 1370.4,376.273 1372.64,375.53 1374.89,374.792 1377.13,374.057 1379.37,373.326 1381.61,372.6 1383.86,371.877 1386.1,371.158 1388.34,370.444 1390.59,369.733 1392.83,369.026 1395.07,368.323 1397.31,367.624 1399.56,366.929 1401.8,366.237 1404.04,365.55 1406.29,364.867 1408.53,364.187 1410.77,363.512 1413.01,362.84 1415.26,362.173 1417.5,361.509 1419.74,360.849 1421.98,360.194 1424.23,359.542 1426.47,358.895 1428.71,358.252 1430.96,357.613 1433.2,356.978 1435.44,356.347 1437.68,355.721 1439.93,355.099 1442.17,354.482 1444.41,353.868 1446.66,353.26 1448.9,352.656 1451.14,352.056 1453.38,351.461 1455.63,350.871 1457.87,350.286 1460.11,349.705 1462.36,349.13 1464.6,348.559 1466.84,347.994 1469.08,347.434 1471.33,346.878 1473.57,346.326 1475.81,345.779 1478.06,345.236 1480.3,344.698 1482.54,344.163 1484.78,343.632 1487.03,343.105 1489.27,342.582 1491.51,342.063 1493.76,341.548 1496,341.036 1498.24,340.528 1500.48,340.024 1502.73,339.523 1504.97,339.026 1507.21,338.532 1509.46,338.041 1511.7,337.554 1513.94,337.07 1516.18,336.589 1518.43,336.112 1520.67,335.637 1522.91,335.166 1525.15,334.698 1527.4,334.233 1529.64,333.771 1531.88,333.312 1534.13,332.856 1536.37,332.403 1538.61,331.953 1540.85,331.506 1543.1,331.061 1545.34,330.62 1547.58,330.181 1549.83,329.745 1552.07,329.312 1554.31,328.882 1556.55,328.455 1558.8,328.03 1561.04,327.608 1563.28,327.189 1565.53,326.773 1567.77,326.359 1570.01,325.948 1572.25,325.54 1574.5,325.135 1576.74,324.733 1578.98,324.333 1581.23,323.936 1583.47,323.542 1585.71,323.15 1587.95,322.762 1590.2,322.376 1592.44,321.993 1594.68,321.613 1596.93,321.236 1599.17,320.861 1601.41,320.49 1603.65,320.122 1605.9,319.756 1608.14,319.394 1610.38,319.035 1612.62,318.678 1614.87,318.325 1617.11,317.975 1619.35,317.628 1621.6,317.285 1623.84,316.944 1626.08,316.607 1628.32,316.273 1630.57,315.943 1632.81,315.616 1635.05,315.292 1637.3,314.972 1639.54,314.655 1641.78,314.34 1644.02,314.028 1646.27,313.719 1648.51,313.413 1650.75,313.109 1653,312.808 1655.24,312.509 1657.48,312.213 1659.72,311.919 1661.97,311.627 1664.21,311.338 1666.45,311.052 1668.7,310.767 1670.94,310.485 1673.18,310.205 1675.42,309.927 1677.67,309.651 1679.91,309.377 1682.15,309.106 1684.4,308.836 1686.64,308.568 1688.88,308.303 1691.12,308.039 1693.37,307.777 1695.61,307.517 1697.85,307.259 1700.09,307.003 1702.34,306.748 1704.58,306.495 1706.82,306.245 1709.07,305.995 1711.31,305.748 1713.55,305.502 1715.79,305.258 1718.04,305.016 1720.28,304.775 1722.52,304.536 1724.77,304.298 1727.01,304.063 1729.25,303.828 1731.49,303.596 1733.74,303.365 1735.98,303.135 1738.22,302.908 1740.47,302.681 1742.71,302.457 1744.95,302.233 1747.19,302.012 1749.44,301.792 1751.68,301.574 1753.92,301.357 1756.17,301.141 1758.41,300.928 1760.65,300.716 1762.89,300.505 1765.14,300.296 1767.38,300.089 1769.62,299.883 1771.87,299.679 1774.11,299.477 1776.35,299.276 1778.59,299.077 1780.84,298.879 1783.08,298.684 1785.32,298.49 1787.56,298.297 1789.81,298.107 1792.05,297.918 1794.29,297.731 1796.54,297.546 1798.78,297.362 1801.02,297.181 1803.26,297.001 1805.51,296.824 1807.75,296.648 1809.99,296.474 1812.24,296.302 1814.48,296.132 1816.72,295.965 1818.96,295.799 1821.21,295.635 1823.45,295.474 1825.69,295.313 1827.94,295.155 1830.18,294.998 1832.42,294.842 1834.66,294.688 1836.91,294.535 1839.15,294.384 1841.39,294.235 1843.64,294.086 1845.88,293.939 1848.12,293.794 1850.36,293.649 1852.61,293.506 1854.85,293.364 1857.09,293.224 1859.34,293.084 1861.58,292.946 1863.82,292.808 1866.06,292.672 1868.31,292.537 1870.55,292.403 1872.79,292.27 1875.03,292.138 1877.28,292.007 1879.52,291.877 1881.76,291.747 1884.01,291.619 1886.25,291.492 1888.49,291.365 1890.73,291.24 1892.98,291.115 1895.22,290.991 1897.46,290.868 1899.71,290.746 1901.95,290.625 1904.19,290.504 1906.43,290.384 1908.68,290.265 1910.92,290.147 1913.16,290.029 1915.41,289.912 1917.65,289.796 1919.89,289.681 1922.13,289.566 1924.38,289.452 1926.62,289.339 1928.86,289.226 1931.11,289.115 1933.35,289.004 1935.59,288.893 1937.83,288.783 1940.08,288.674 1942.32,288.566 1944.56,288.459 1946.81,288.352 1949.05,288.246 1951.29,288.14 1953.53,288.036 1955.78,287.932 1958.02,287.828 1960.26,287.726 1962.5,287.624 1964.75,287.523 1966.99,287.423 1969.23,287.324 1971.48,287.225 1973.72,287.127 1975.96,287.03 1978.2,286.934 1980.45,286.839 1982.69,286.744 1984.93,286.65 1987.18,286.558 1989.42,286.466 1991.66,286.375 1993.9,286.285 1996.15,286.196 1998.39,286.108 2000.63,286.021 2002.88,285.935 2005.12,285.85 2007.36,285.766 2009.6,285.683 2011.85,285.602 2014.09,285.521 2016.33,285.442 2018.58,285.364 2020.82,285.287 2023.06,285.211 2025.3,285.137 2027.55,285.064 2029.79,284.991 2032.03,284.92 2034.28,284.85 2036.52,284.781 2038.76,284.713 2041,284.646 2043.25,284.579 2045.49,284.513 2047.73,284.448 2049.97,284.384 2052.22,284.321 2054.46,284.258 2056.7,284.196 2058.95,284.135 2061.19,284.074 2063.43,284.013 2065.67,283.954 2067.92,283.895 2070.16,283.836 2072.4,283.778 2074.65,283.72 2076.89,283.663 2079.13,283.606 2081.37,283.549 2083.62,283.493 2085.86,283.437 2088.1,283.382 2090.35,283.327 2092.59,283.272 2094.83,283.217 2097.07,283.163 2099.32,283.109 2101.56,283.055 2103.8,283.002 2106.05,282.948 2108.29,282.895 2110.53,282.843 2112.77,282.79 2115.02,282.737 2117.26,282.685 2119.5,282.633 2121.75,282.581 2123.99,282.529 2126.23,282.477 2128.47,282.425 2130.72,282.374 2132.96,282.323 2135.2,282.271 2137.45,282.22 2139.69,282.169 2141.93,282.119 2144.17,282.068 2146.42,282.017 2148.66,281.967 2150.9,281.917 2153.14,281.867 2155.39,281.817 2157.63,281.767 2159.87,281.717 2162.12,281.667 2164.36,281.618 2166.6,281.569 2168.84,281.52 2171.09,281.471 2173.33,281.423 2175.57,281.374 2177.82,281.326 2180.06,281.278 2182.3,281.23 2184.54,281.183 2186.79,281.136 2189.03,281.089 2191.27,281.043 2193.52,280.997 2195.76,280.951 2198,280.905 2200.24,280.86 2202.49,280.816 2204.73,280.772 2206.97,280.728 2209.22,280.685 2211.46,280.642 2213.7,280.6 2215.94,280.558 2218.19,280.517 2220.43,280.477 2222.67,280.437 2224.92,280.398 2227.16,280.359 2229.4,280.321 2231.64,280.284 2233.89,280.248 2236.13,280.212 2238.37,280.178 2240.61,280.144 2242.86,280.111 2245.1,280.079 2247.34,280.048 2249.59,280.019 2251.83,279.99 2254.07,279.962 2256.31,279.935 2258.56,279.907 2260.8,279.88 2263.04,279.853 2265.29,279.827 2267.53,279.8 2269.77,279.774 2272.01,279.748 2274.26,279.721 2276.5,279.695 2278.74,279.67 2280.99,279.644 2283.23,279.619 2285.47,279.593 2287.71,279.568 2289.96,279.543 2292.2,279.518 2294.44,279.493 2296.69,279.469 2298.93,279.444 2301.17,279.42 2303.41,279.396 2305.66,279.372 2307.9,279.348 2310.14,279.325 2312.39,279.301 2314.63,279.278 2316.87,279.255 2319.11,279.232 2321.36,279.209 2323.6,279.186 2325.84,279.164 2328.08,279.141 2330.33,279.119 2332.57,279.097 2334.81,279.075 2337.06,279.054 2339.3,279.032 2341.54,279.011 2343.78,278.99 2346.03,278.969 2348.27,278.948 2350.51,278.927 2352.76,278.907 "/>
<circle clip-path="url(#clip261)" cx="112.177" cy="852.665" r="21.6" fill="#009af9" fill-rule="evenodd" fill-opacity="0.7" stroke="#000000" stroke-opacity="0.7" stroke-width="3.2"/>
<circle clip-path="url(#clip261)" cx="230.102" cy="1057.89" r="21.6" fill="#009af9" fill-rule="evenodd" fill-opacity="0.7" stroke="#000000" stroke-opacity="0.7" stroke-width="3.2"/>
<circle clip-path="url(#clip261)" cx="348.028" cy="1083.13" r="21.6" fill="#009af9" fill-rule="evenodd" fill-opacity="0.7" stroke="#000000" stroke-opacity="0.7" stroke-width="3.2"/>
<circle clip-path="url(#clip261)" cx="465.953" cy="1078.83" r="21.6" fill="#009af9" fill-rule="evenodd" fill-opacity="0.7" stroke="#000000" stroke-opacity="0.7" stroke-width="3.2"/>
<circle clip-path="url(#clip261)" cx="583.878" cy="1055.88" r="21.6" fill="#009af9" fill-rule="evenodd" fill-opacity="0.7" stroke="#000000" stroke-opacity="0.7" stroke-width="3.2"/>
<circle clip-path="url(#clip261)" cx="701.803" cy="1093.45" r="21.6" fill="#009af9" fill-rule="evenodd" fill-opacity="0.7" stroke="#000000" stroke-opacity="0.7" stroke-width="3.2"/>
<circle clip-path="url(#clip261)" cx="819.728" cy="960.891" r="21.6" fill="#009af9" fill-rule="evenodd" fill-opacity="0.7" stroke="#000000" stroke-opacity="0.7" stroke-width="3.2"/>
<circle clip-path="url(#clip261)" cx="937.654" cy="924.828" r="21.6" fill="#009af9" fill-rule="evenodd" fill-opacity="0.7" stroke="#000000" stroke-opacity="0.7" stroke-width="3.2"/>
<circle clip-path="url(#clip261)" cx="1055.58" cy="881.907" r="21.6" fill="#009af9" fill-rule="evenodd" fill-opacity="0.7" stroke="#000000" stroke-opacity="0.7" stroke-width="3.2"/>
<circle clip-path="url(#clip261)" cx="1173.5" cy="927.372" r="21.6" fill="#009af9" fill-rule="evenodd" fill-opacity="0.7" stroke="#000000" stroke-opacity="0.7" stroke-width="3.2"/>
<circle clip-path="url(#clip261)" cx="1291.43" cy="988.611" r="21.6" fill="#009af9" fill-rule="evenodd" fill-opacity="0.7" stroke="#000000" stroke-opacity="0.7" stroke-width="3.2"/>
<circle clip-path="url(#clip261)" cx="1409.35" cy="808.014" r="21.6" fill="#009af9" fill-rule="evenodd" fill-opacity="0.7" stroke="#000000" stroke-opacity="0.7" stroke-width="3.2"/>
<circle clip-path="url(#clip261)" cx="1527.28" cy="776.374" r="21.6" fill="#009af9" fill-rule="evenodd" fill-opacity="0.7" stroke="#000000" stroke-opacity="0.7" stroke-width="3.2"/>
<circle clip-path="url(#clip261)" cx="1645.2" cy="763.03" r="21.6" fill="#009af9" fill-rule="evenodd" fill-opacity="0.7" stroke="#000000" stroke-opacity="0.7" stroke-width="3.2"/>
<circle clip-path="url(#clip261)" cx="1763.13" cy="782.824" r="21.6" fill="#009af9" fill-rule="evenodd" fill-opacity="0.7" stroke="#000000" stroke-opacity="0.7" stroke-width="3.2"/>
<circle clip-path="url(#clip261)" cx="1881.06" cy="771.618" r="21.6" fill="#009af9" fill-rule="evenodd" fill-opacity="0.7" stroke="#000000" stroke-opacity="0.7" stroke-width="3.2"/>
<circle clip-path="url(#clip261)" cx="1998.98" cy="903.294" r="21.6" fill="#009af9" fill-rule="evenodd" fill-opacity="0.7" stroke="#000000" stroke-opacity="0.7" stroke-width="3.2"/>
<circle clip-path="url(#clip261)" cx="2116.91" cy="783.408" r="21.6" fill="#009af9" fill-rule="evenodd" fill-opacity="0.7" stroke="#000000" stroke-opacity="0.7" stroke-width="3.2"/>
<circle clip-path="url(#clip261)" cx="2234.83" cy="908.162" r="21.6" fill="#009af9" fill-rule="evenodd" fill-opacity="0.7" stroke="#000000" stroke-opacity="0.7" stroke-width="3.2"/>
<circle clip-path="url(#clip261)" cx="2352.76" cy="874.126" r="21.6" fill="#009af9" fill-rule="evenodd" fill-opacity="0.7" stroke="#000000" stroke-opacity="0.7" stroke-width="3.2"/>
<circle clip-path="url(#clip261)" cx="112.177" cy="1384.24" r="21.6" fill="#e26f46" fill-rule="evenodd" fill-opacity="0.7" stroke="#000000" stroke-opacity="0.7" stroke-width="3.2"/>
<circle clip-path="url(#clip261)" cx="230.102" cy="895.445" r="21.6" fill="#e26f46" fill-rule="evenodd" fill-opacity="0.7" stroke="#000000" stroke-opacity="0.7" stroke-width="3.2"/>
<circle clip-path="url(#clip261)" cx="348.028" cy="915.443" r="21.6" fill="#e26f46" fill-rule="evenodd" fill-opacity="0.7" stroke="#000000" stroke-opacity="0.7" stroke-width="3.2"/>
<circle clip-path="url(#clip261)" cx="465.953" cy="769.461" r="21.6" fill="#e26f46" fill-rule="evenodd" fill-opacity="0.7" stroke="#000000" stroke-opacity="0.7" stroke-width="3.2"/>
<circle clip-path="url(#clip261)" cx="583.878" cy="796.281" r="21.6" fill="#e26f46" fill-rule="evenodd" fill-opacity="0.7" stroke="#000000" stroke-opacity="0.7" stroke-width="3.2"/>
<circle clip-path="url(#clip261)" cx="701.803" cy="640.179" r="21.6" fill="#e26f46" fill-rule="evenodd" fill-opacity="0.7" stroke="#000000" stroke-opacity="0.7" stroke-width="3.2"/>
<circle clip-path="url(#clip261)" cx="819.728" cy="760.535" r="21.6" fill="#e26f46" fill-rule="evenodd" fill-opacity="0.7" stroke="#000000" stroke-opacity="0.7" stroke-width="3.2"/>
<circle clip-path="url(#clip261)" cx="937.654" cy="464.497" r="21.6" fill="#e26f46" fill-rule="evenodd" fill-opacity="0.7" stroke="#000000" stroke-opacity="0.7" stroke-width="3.2"/>
<circle clip-path="url(#clip261)" cx="1055.58" cy="593.11" r="21.6" fill="#e26f46" fill-rule="evenodd" fill-opacity="0.7" stroke="#000000" stroke-opacity="0.7" stroke-width="3.2"/>
<circle clip-path="url(#clip261)" cx="1173.5" cy="639.238" r="21.6" fill="#e26f46" fill-rule="evenodd" fill-opacity="0.7" stroke="#000000" stroke-opacity="0.7" stroke-width="3.2"/>
<circle clip-path="url(#clip261)" cx="1291.43" cy="601.759" r="21.6" fill="#e26f46" fill-rule="evenodd" fill-opacity="0.7" stroke="#000000" stroke-opacity="0.7" stroke-width="3.2"/>
<circle clip-path="url(#clip261)" cx="1409.35" cy="441.812" r="21.6" fill="#e26f46" fill-rule="evenodd" fill-opacity="0.7" stroke="#000000" stroke-opacity="0.7" stroke-width="3.2"/>
<circle clip-path="url(#clip261)" cx="1527.28" cy="219.36" r="21.6" fill="#e26f46" fill-rule="evenodd" fill-opacity="0.7" stroke="#000000" stroke-opacity="0.7" stroke-width="3.2"/>
<circle clip-path="url(#clip261)" cx="1645.2" cy="247.658" r="21.6" fill="#e26f46" fill-rule="evenodd" fill-opacity="0.7" stroke="#000000" stroke-opacity="0.7" stroke-width="3.2"/>
<circle clip-path="url(#clip261)" cx="1763.13" cy="400.828" r="21.6" fill="#e26f46" fill-rule="evenodd" fill-opacity="0.7" stroke="#000000" stroke-opacity="0.7" stroke-width="3.2"/>
<circle clip-path="url(#clip261)" cx="1881.06" cy="86.1857" r="21.6" fill="#e26f46" fill-rule="evenodd" fill-opacity="0.7" stroke="#000000" stroke-opacity="0.7" stroke-width="3.2"/>
<circle clip-path="url(#clip261)" cx="1998.98" cy="193.527" r="21.6" fill="#e26f46" fill-rule="evenodd" fill-opacity="0.7" stroke="#000000" stroke-opacity="0.7" stroke-width="3.2"/>
<circle clip-path="url(#clip261)" cx="2116.91" cy="158.684" r="21.6" fill="#e26f46" fill-rule="evenodd" fill-opacity="0.7" stroke="#000000" stroke-opacity="0.7" stroke-width="3.2"/>
<circle clip-path="url(#clip261)" cx="2234.83" cy="492.754" r="21.6" fill="#e26f46" fill-rule="evenodd" fill-opacity="0.7" stroke="#000000" stroke-opacity="0.7" stroke-width="3.2"/>
<circle clip-path="url(#clip261)" cx="2352.76" cy="188.013" r="21.6" fill="#e26f46" fill-rule="evenodd" fill-opacity="0.7" stroke="#000000" stroke-opacity="0.7" stroke-width="3.2"/>
<path clip-path="url(#clip260)" d="M186.863 352.309 L596.753 352.309 L596.753 93.1086 L186.863 93.1086  Z" fill="#ffffff" fill-rule="evenodd" fill-opacity="1"/>
<polyline clip-path="url(#clip260)" style="stroke:#000000; stroke-linecap:round; stroke-linejoin:round; stroke-width:4; stroke-opacity:1; fill:none" points="186.863,352.309 596.753,352.309 596.753,93.1086 186.863,93.1086 186.863,352.309 "/>
<polyline clip-path="url(#clip260)" style="stroke:#009af9; stroke-linecap:round; stroke-linejoin:round; stroke-width:20; stroke-opacity:1; fill:none" points="211.758,144.949 361.13,144.949 "/>
<path clip-path="url(#clip260)" d="M387.6 127.669 L392.623 127.669 L401.211 140.516 L409.845 127.669 L414.868 127.669 L403.757 144.266 L415.609 162.229 L410.586 162.229 L400.864 147.53 L391.072 162.229 L386.026 162.229 L398.364 143.78 L387.6 127.669 Z" fill="#000000" fill-rule="nonzero" fill-opacity="1" /><polyline clip-path="url(#clip260)" style="stroke:#e26f46; stroke-linecap:round; stroke-linejoin:round; stroke-width:20; stroke-opacity:1; fill:none" points="211.758,196.789 361.13,196.789 "/>
<path clip-path="url(#clip260)" d="M386.026 179.509 L391.049 179.509 L400.632 193.722 L410.146 179.509 L415.169 179.509 L402.947 197.61 L402.947 214.069 L398.248 214.069 L398.248 197.61 L386.026 179.509 Z" fill="#000000" fill-rule="nonzero" fill-opacity="1" /><circle clip-path="url(#clip260)" cx="286.444" cy="248.629" r="21.2677" fill="#009af9" fill-rule="evenodd" fill-opacity="0.7" stroke="#000000" stroke-opacity="0.7" stroke-width="3.15077"/>
<path clip-path="url(#clip260)" d="M387.6 231.349 L392.623 231.349 L401.211 244.196 L409.845 231.349 L414.868 231.349 L403.757 247.946 L415.609 265.909 L410.586 265.909 L400.864 251.21 L391.072 265.909 L386.026 265.909 L398.364 247.46 L387.6 231.349 Z" fill="#000000" fill-rule="nonzero" fill-opacity="1" /><path clip-path="url(#clip260)" d="M446.859 229.937 Q443.757 235.261 442.252 240.469 Q440.748 245.677 440.748 251.024 Q440.748 256.372 442.252 261.626 Q443.78 266.858 446.859 272.159 L443.155 272.159 Q439.683 266.719 437.947 261.464 Q436.234 256.21 436.234 251.024 Q436.234 245.862 437.947 240.631 Q439.66 235.4 443.155 229.937 L446.859 229.937 Z" fill="#000000" fill-rule="nonzero" fill-opacity="1" /><path clip-path="url(#clip260)" d="M472.183 243.918 L472.183 229.89 L476.442 229.89 L476.442 265.909 L472.183 265.909 L472.183 262.02 Q470.84 264.335 468.78 265.469 Q466.743 266.58 463.872 266.58 Q459.173 266.58 456.21 262.83 Q453.271 259.08 453.271 252.969 Q453.271 246.858 456.21 243.108 Q459.173 239.358 463.872 239.358 Q466.743 239.358 468.78 240.492 Q470.84 241.603 472.183 243.918 M457.669 252.969 Q457.669 257.668 459.59 260.353 Q461.535 263.015 464.914 263.015 Q468.294 263.015 470.238 260.353 Q472.183 257.668 472.183 252.969 Q472.183 248.27 470.238 245.608 Q468.294 242.923 464.914 242.923 Q461.535 242.923 459.59 245.608 Q457.669 248.27 457.669 252.969 Z" fill="#000000" fill-rule="nonzero" fill-opacity="1" /><path clip-path="url(#clip260)" d="M496.997 252.876 Q491.835 252.876 489.845 254.057 Q487.854 255.237 487.854 258.085 Q487.854 260.353 489.335 261.696 Q490.84 263.015 493.409 263.015 Q496.951 263.015 499.081 260.515 Q501.233 257.992 501.233 253.825 L501.233 252.876 L496.997 252.876 M505.493 251.117 L505.493 265.909 L501.233 265.909 L501.233 261.973 Q499.775 264.335 497.599 265.469 Q495.423 266.58 492.275 266.58 Q488.294 266.58 485.933 264.358 Q483.595 262.112 483.595 258.362 Q483.595 253.987 486.511 251.765 Q489.451 249.543 495.261 249.543 L501.233 249.543 L501.233 249.126 Q501.233 246.187 499.289 244.589 Q497.368 242.969 493.872 242.969 Q491.65 242.969 489.544 243.501 Q487.437 244.034 485.493 245.099 L485.493 241.163 Q487.831 240.261 490.03 239.821 Q492.229 239.358 494.312 239.358 Q499.937 239.358 502.715 242.274 Q505.493 245.191 505.493 251.117 Z" fill="#000000" fill-rule="nonzero" fill-opacity="1" /><path clip-path="url(#clip260)" d="M518.479 232.622 L518.479 239.983 L527.252 239.983 L527.252 243.293 L518.479 243.293 L518.479 257.367 Q518.479 260.538 519.335 261.441 Q520.215 262.344 522.877 262.344 L527.252 262.344 L527.252 265.909 L522.877 265.909 Q517.946 265.909 516.071 264.08 Q514.196 262.228 514.196 257.367 L514.196 243.293 L511.071 243.293 L511.071 239.983 L514.196 239.983 L514.196 232.622 L518.479 232.622 Z" fill="#000000" fill-rule="nonzero" fill-opacity="1" /><path clip-path="url(#clip260)" d="M544.636 252.876 Q539.474 252.876 537.483 254.057 Q535.492 255.237 535.492 258.085 Q535.492 260.353 536.974 261.696 Q538.479 263.015 541.048 263.015 Q544.59 263.015 546.719 260.515 Q548.872 257.992 548.872 253.825 L548.872 252.876 L544.636 252.876 M553.131 251.117 L553.131 265.909 L548.872 265.909 L548.872 261.973 Q547.414 264.335 545.238 265.469 Q543.062 266.58 539.914 266.58 Q535.932 266.58 533.571 264.358 Q531.233 262.112 531.233 258.362 Q531.233 253.987 534.15 251.765 Q537.09 249.543 542.9 249.543 L548.872 249.543 L548.872 249.126 Q548.872 246.187 546.928 244.589 Q545.006 242.969 541.511 242.969 Q539.289 242.969 537.182 243.501 Q535.076 244.034 533.131 245.099 L533.131 241.163 Q535.469 240.261 537.668 239.821 Q539.867 239.358 541.951 239.358 Q547.576 239.358 550.354 242.274 Q553.131 245.191 553.131 251.117 Z" fill="#000000" fill-rule="nonzero" fill-opacity="1" /><path clip-path="url(#clip260)" d="M561.233 229.937 L564.937 229.937 Q568.409 235.4 570.122 240.631 Q571.858 245.862 571.858 251.024 Q571.858 256.21 570.122 261.464 Q568.409 266.719 564.937 272.159 L561.233 272.159 Q564.312 266.858 565.816 261.626 Q567.344 256.372 567.344 251.024 Q567.344 245.677 565.816 240.469 Q564.312 235.261 561.233 229.937 Z" fill="#000000" fill-rule="nonzero" fill-opacity="1" /><circle clip-path="url(#clip260)" cx="286.444" cy="300.469" r="21.2677" fill="#e26f46" fill-rule="evenodd" fill-opacity="0.7" stroke="#000000" stroke-opacity="0.7" stroke-width="3.15077"/>
<path clip-path="url(#clip260)" d="M386.026 283.189 L391.049 283.189 L400.632 297.402 L410.146 283.189 L415.169 283.189 L402.947 301.29 L402.947 317.749 L398.248 317.749 L398.248 301.29 L386.026 283.189 Z" fill="#000000" fill-rule="nonzero" fill-opacity="1" /><path clip-path="url(#clip260)" d="M444.845 281.777 Q441.743 287.101 440.238 292.309 Q438.734 297.517 438.734 302.864 Q438.734 308.212 440.238 313.466 Q441.766 318.698 444.845 323.999 L441.141 323.999 Q437.669 318.559 435.933 313.304 Q434.22 308.05 434.22 302.864 Q434.22 297.702 435.933 292.471 Q437.646 287.24 441.141 281.777 L444.845 281.777 Z" fill="#000000" fill-rule="nonzero" fill-opacity="1" /><path clip-path="url(#clip260)" d="M470.169 295.758 L470.169 281.73 L474.428 281.73 L474.428 317.749 L470.169 317.749 L470.169 313.86 Q468.826 316.175 466.766 317.309 Q464.729 318.42 461.859 318.42 Q457.16 318.42 454.197 314.67 Q451.257 310.92 451.257 304.809 Q451.257 298.698 454.197 294.948 Q457.16 291.198 461.859 291.198 Q464.729 291.198 466.766 292.332 Q468.826 293.443 470.169 295.758 M455.655 304.809 Q455.655 309.508 457.576 312.193 Q459.521 314.855 462.9 314.855 Q466.28 314.855 468.224 312.193 Q470.169 309.508 470.169 304.809 Q470.169 300.11 468.224 297.448 Q466.28 294.763 462.9 294.763 Q459.521 294.763 457.576 297.448 Q455.655 300.11 455.655 304.809 Z" fill="#000000" fill-rule="nonzero" fill-opacity="1" /><path clip-path="url(#clip260)" d="M494.983 304.716 Q489.821 304.716 487.831 305.897 Q485.84 307.077 485.84 309.925 Q485.84 312.193 487.321 313.536 Q488.826 314.855 491.395 314.855 Q494.937 314.855 497.067 312.355 Q499.22 309.832 499.22 305.665 L499.22 304.716 L494.983 304.716 M503.479 302.957 L503.479 317.749 L499.22 317.749 L499.22 313.813 Q497.761 316.175 495.585 317.309 Q493.409 318.42 490.261 318.42 Q486.28 318.42 483.919 316.198 Q481.581 313.952 481.581 310.202 Q481.581 305.827 484.497 303.605 Q487.437 301.383 493.247 301.383 L499.22 301.383 L499.22 300.966 Q499.22 298.027 497.275 296.429 Q495.354 294.809 491.858 294.809 Q489.636 294.809 487.53 295.341 Q485.423 295.874 483.479 296.939 L483.479 293.003 Q485.817 292.101 488.016 291.661 Q490.215 291.198 492.298 291.198 Q497.923 291.198 500.701 294.114 Q503.479 297.031 503.479 302.957 Z" fill="#000000" fill-rule="nonzero" fill-opacity="1" /><path clip-path="url(#clip260)" d="M516.465 284.462 L516.465 291.823 L525.238 291.823 L525.238 295.133 L516.465 295.133 L516.465 309.207 Q516.465 312.378 517.321 313.281 Q518.201 314.184 520.863 314.184 L525.238 314.184 L525.238 317.749 L520.863 317.749 Q515.932 317.749 514.057 315.92 Q512.182 314.068 512.182 309.207 L512.182 295.133 L509.057 295.133 L509.057 291.823 L512.182 291.823 L512.182 284.462 L516.465 284.462 Z" fill="#000000" fill-rule="nonzero" fill-opacity="1" /><path clip-path="url(#clip260)" d="M542.622 304.716 Q537.46 304.716 535.469 305.897 Q533.479 307.077 533.479 309.925 Q533.479 312.193 534.96 313.536 Q536.465 314.855 539.034 314.855 Q542.576 314.855 544.705 312.355 Q546.858 309.832 546.858 305.665 L546.858 304.716 L542.622 304.716 M551.117 302.957 L551.117 317.749 L546.858 317.749 L546.858 313.813 Q545.4 316.175 543.224 317.309 Q541.048 318.42 537.9 318.42 Q533.918 318.42 531.557 316.198 Q529.219 313.952 529.219 310.202 Q529.219 305.827 532.136 303.605 Q535.076 301.383 540.886 301.383 L546.858 301.383 L546.858 300.966 Q546.858 298.027 544.914 296.429 Q542.992 294.809 539.497 294.809 Q537.275 294.809 535.168 295.341 Q533.062 295.874 531.118 296.939 L531.118 293.003 Q533.455 292.101 535.655 291.661 Q537.854 291.198 539.937 291.198 Q545.562 291.198 548.34 294.114 Q551.117 297.031 551.117 302.957 Z" fill="#000000" fill-rule="nonzero" fill-opacity="1" /><path clip-path="url(#clip260)" d="M559.219 281.777 L562.923 281.777 Q566.395 287.24 568.108 292.471 Q569.844 297.702 569.844 302.864 Q569.844 308.05 568.108 313.304 Q566.395 318.559 562.923 323.999 L559.219 323.999 Q562.298 318.698 563.803 313.466 Q565.33 308.212 565.33 302.864 Q565.33 297.517 563.803 292.309 Q562.298 287.101 559.219 281.777 Z" fill="#000000" fill-rule="nonzero" fill-opacity="1" /></svg>
