<?xml version="1.0" encoding="utf-8"?>
<svg xmlns="http://www.w3.org/2000/svg" xmlns:xlink="http://www.w3.org/1999/xlink" width="600" height="400" viewBox="0 0 2400 1600">
<defs>
  <clipPath id="clip120">
    <rect x="0" y="0" width="2400" height="1600"/>
  </clipPath>
</defs>
<path clip-path="url(#clip120)" d="M0 1600 L2400 1600 L2400 0 L0 0  Z" fill="#ffffff" fill-rule="evenodd" fill-opacity="1"/>
<defs>
  <clipPath id="clip121">
    <rect x="112" y="47" width="2242" height="1377"/>
  </clipPath>
</defs>
<path clip-path="url(#clip120)" d="M112.177 1423.18 L2352.76 1423.18 L2352.76 47.2441 L112.177 47.2441  Z" fill="#ffffff" fill-rule="evenodd" fill-opacity="1"/>
<polyline clip-path="url(#clip121)" style="stroke:#000000; stroke-linecap:round; stroke-linejoin:round; stroke-width:2; stroke-opacity:0.1; fill:none" points="112.177,1423.18 112.177,47.2441 "/>
<polyline clip-path="url(#clip121)" style="stroke:#000000; stroke-linecap:round; stroke-linejoin:round; stroke-width:2; stroke-opacity:0.1; fill:none" points="610.084,1423.18 610.084,47.2441 "/>
<polyline clip-path="url(#clip121)" style="stroke:#000000; stroke-linecap:round; stroke-linejoin:round; stroke-width:2; stroke-opacity:0.1; fill:none" points="1107.99,1423.18 1107.99,47.2441 "/>
<polyline clip-path="url(#clip121)" style="stroke:#000000; stroke-linecap:round; stroke-linejoin:round; stroke-width:2; stroke-opacity:0.1; fill:none" points="1605.9,1423.18 1605.9,47.2441 "/>
<polyline clip-path="url(#clip121)" style="stroke:#000000; stroke-linecap:round; stroke-linejoin:round; stroke-width:2; stroke-opacity:0.1; fill:none" points="2103.8,1423.18 2103.8,47.2441 "/>
<polyline clip-path="url(#clip121)" style="stroke:#000000; stroke-linecap:round; stroke-linejoin:round; stroke-width:2; stroke-opacity:0.1; fill:none" points="112.177,1414.75 2352.76,1414.75 "/>
<polyline clip-path="url(#clip121)" style="stroke:#000000; stroke-linecap:round; stroke-linejoin:round; stroke-width:2; stroke-opacity:0.1; fill:none" points="112.177,1098.3 2352.76,1098.3 "/>
<polyline clip-path="url(#clip121)" style="stroke:#000000; stroke-linecap:round; stroke-linejoin:round; stroke-width:2; stroke-opacity:0.1; fill:none" points="112.177,781.858 2352.76,781.858 "/>
<polyline clip-path="url(#clip121)" style="stroke:#000000; stroke-linecap:round; stroke-linejoin:round; stroke-width:2; stroke-opacity:0.1; fill:none" points="112.177,465.412 2352.76,465.412 "/>
<polyline clip-path="url(#clip121)" style="stroke:#000000; stroke-linecap:round; stroke-linejoin:round; stroke-width:2; stroke-opacity:0.1; fill:none" points="112.177,148.966 2352.76,148.966 "/>
<polyline clip-path="url(#clip120)" style="stroke:#000000; stroke-linecap:round; stroke-linejoin:round; stroke-width:4; stroke-opacity:1; fill:none" points="112.177,1423.18 2352.76,1423.18 "/>
<polyline clip-path="url(#clip120)" style="stroke:#000000; stroke-linecap:round; stroke-linejoin:round; stroke-width:4; stroke-opacity:1; fill:none" points="112.177,1423.18 112.177,1404.28 "/>
<polyline clip-path="url(#clip120)" style="stroke:#000000; stroke-linecap:round; stroke-linejoin:round; stroke-width:4; stroke-opacity:1; fill:none" points="610.084,1423.18 610.084,1404.28 "/>
<polyline clip-path="url(#clip120)" style="stroke:#000000; stroke-linecap:round; stroke-linejoin:round; stroke-width:4; stroke-opacity:1; fill:none" points="1107.99,1423.18 1107.99,1404.28 "/>
<polyline clip-path="url(#clip120)" style="stroke:#000000; stroke-linecap:round; stroke-linejoin:round; stroke-width:4; stroke-opacity:1; fill:none" points="1605.9,1423.18 1605.9,1404.28 "/>
<polyline clip-path="url(#clip120)" style="stroke:#000000; stroke-linecap:round; stroke-linejoin:round; stroke-width:4; stroke-opacity:1; fill:none" points="2103.8,1423.18 2103.8,1404.28 "/>
<path clip-path="url(#clip120)" d="M112.177 1454.1 Q108.566 1454.1 106.737 1457.66 Q104.932 1461.2 104.932 1468.33 Q104.932 1475.44 106.737 1479.01 Q108.566 1482.55 112.177 1482.55 Q115.811 1482.55 117.617 1479.01 Q119.446 1475.44 119.446 1468.33 Q119.446 1461.2 117.617 1457.66 Q115.811 1454.1 112.177 1454.1 M112.177 1450.39 Q117.987 1450.39 121.043 1455 Q124.122 1459.58 124.122 1468.33 Q124.122 1477.06 121.043 1481.67 Q117.987 1486.25 112.177 1486.25 Q106.367 1486.25 103.288 1481.67 Q100.233 1477.06 100.233 1468.33 Q100.233 1459.58 103.288 1455 Q106.367 1450.39 112.177 1450.39 Z" fill="#000000" fill-rule="nonzero" fill-opacity="1" /><path clip-path="url(#clip120)" d="M584.771 1481.64 L592.41 1481.64 L592.41 1455.28 L584.1 1456.95 L584.1 1452.69 L592.364 1451.02 L597.04 1451.02 L597.04 1481.64 L604.678 1481.64 L604.678 1485.58 L584.771 1485.58 L584.771 1481.64 Z" fill="#000000" fill-rule="nonzero" fill-opacity="1" /><path clip-path="url(#clip120)" d="M624.123 1454.1 Q620.512 1454.1 618.683 1457.66 Q616.878 1461.2 616.878 1468.33 Q616.878 1475.44 618.683 1479.01 Q620.512 1482.55 624.123 1482.55 Q627.757 1482.55 629.563 1479.01 Q631.391 1475.44 631.391 1468.33 Q631.391 1461.2 629.563 1457.66 Q627.757 1454.1 624.123 1454.1 M624.123 1450.39 Q629.933 1450.39 632.989 1455 Q636.067 1459.58 636.067 1468.33 Q636.067 1477.06 632.989 1481.67 Q629.933 1486.25 624.123 1486.25 Q618.313 1486.25 615.234 1481.67 Q612.178 1477.06 612.178 1468.33 Q612.178 1459.58 615.234 1455 Q618.313 1450.39 624.123 1450.39 Z" fill="#000000" fill-rule="nonzero" fill-opacity="1" /><path clip-path="url(#clip120)" d="M1086.76 1481.64 L1103.08 1481.64 L1103.08 1485.58 L1081.14 1485.58 L1081.14 1481.64 Q1083.8 1478.89 1088.38 1474.26 Q1092.99 1469.61 1094.17 1468.27 Q1096.42 1465.74 1097.3 1464.01 Q1098.2 1462.25 1098.2 1460.56 Q1098.2 1457.8 1096.25 1456.07 Q1094.33 1454.33 1091.23 1454.33 Q1089.03 1454.33 1086.58 1455.09 Q1084.15 1455.86 1081.37 1457.41 L1081.37 1452.69 Q1084.19 1451.55 1086.65 1450.97 Q1089.1 1450.39 1091.14 1450.39 Q1096.51 1450.39 1099.7 1453.08 Q1102.9 1455.77 1102.9 1460.26 Q1102.9 1462.39 1102.09 1464.31 Q1101.3 1466.2 1099.19 1468.8 Q1098.61 1469.47 1095.51 1472.69 Q1092.41 1475.88 1086.76 1481.64 Z" fill="#000000" fill-rule="nonzero" fill-opacity="1" /><path clip-path="url(#clip120)" d="M1122.9 1454.1 Q1119.29 1454.1 1117.46 1457.66 Q1115.65 1461.2 1115.65 1468.33 Q1115.65 1475.44 1117.46 1479.01 Q1119.29 1482.55 1122.9 1482.55 Q1126.53 1482.55 1128.34 1479.01 Q1130.17 1475.44 1130.17 1468.33 Q1130.17 1461.2 1128.34 1457.66 Q1126.53 1454.1 1122.9 1454.1 M1122.9 1450.39 Q1128.71 1450.39 1131.76 1455 Q1134.84 1459.58 1134.84 1468.33 Q1134.84 1477.06 1131.76 1481.67 Q1128.71 1486.25 1122.9 1486.25 Q1117.09 1486.25 1114.01 1481.67 Q1110.95 1477.06 1110.95 1468.33 Q1110.95 1459.58 1114.01 1455 Q1117.09 1450.39 1122.9 1450.39 Z" fill="#000000" fill-rule="nonzero" fill-opacity="1" /><path clip-path="url(#clip120)" d="M1594.74 1466.95 Q1598.1 1467.66 1599.97 1469.93 Q1601.87 1472.2 1601.87 1475.53 Q1601.87 1480.65 1598.35 1483.45 Q1594.83 1486.25 1588.35 1486.25 Q1586.17 1486.25 1583.86 1485.81 Q1581.57 1485.39 1579.11 1484.54 L1579.11 1480.02 Q1581.06 1481.16 1583.37 1481.74 Q1585.69 1482.32 1588.21 1482.32 Q1592.61 1482.32 1594.9 1480.58 Q1597.22 1478.84 1597.22 1475.53 Q1597.22 1472.48 1595.06 1470.77 Q1592.93 1469.03 1589.11 1469.03 L1585.09 1469.03 L1585.09 1465.19 L1589.3 1465.19 Q1592.75 1465.19 1594.58 1463.82 Q1596.41 1462.43 1596.41 1459.84 Q1596.41 1457.18 1594.51 1455.77 Q1592.63 1454.33 1589.11 1454.33 Q1587.19 1454.33 1584.99 1454.75 Q1582.79 1455.16 1580.16 1456.04 L1580.16 1451.88 Q1582.82 1451.14 1585.13 1450.77 Q1587.47 1450.39 1589.53 1450.39 Q1594.85 1450.39 1597.96 1452.83 Q1601.06 1455.23 1601.06 1459.35 Q1601.06 1462.22 1599.41 1464.21 Q1597.77 1466.18 1594.74 1466.95 Z" fill="#000000" fill-rule="nonzero" fill-opacity="1" /><path clip-path="url(#clip120)" d="M1620.73 1454.1 Q1617.12 1454.1 1615.29 1457.66 Q1613.49 1461.2 1613.49 1468.33 Q1613.49 1475.44 1615.29 1479.01 Q1617.12 1482.55 1620.73 1482.55 Q1624.37 1482.55 1626.17 1479.01 Q1628 1475.44 1628 1468.33 Q1628 1461.2 1626.17 1457.66 Q1624.37 1454.1 1620.73 1454.1 M1620.73 1450.39 Q1626.54 1450.39 1629.6 1455 Q1632.68 1459.58 1632.68 1468.33 Q1632.68 1477.06 1629.6 1481.67 Q1626.54 1486.25 1620.73 1486.25 Q1614.92 1486.25 1611.85 1481.67 Q1608.79 1477.06 1608.79 1468.33 Q1608.79 1459.58 1611.85 1455 Q1614.92 1450.39 1620.73 1450.39 Z" fill="#000000" fill-rule="nonzero" fill-opacity="1" /><path clip-path="url(#clip120)" d="M2091.97 1455.09 L2080.17 1473.54 L2091.97 1473.54 L2091.97 1455.09 M2090.75 1451.02 L2096.63 1451.02 L2096.63 1473.54 L2101.56 1473.54 L2101.56 1477.43 L2096.63 1477.43 L2096.63 1485.58 L2091.97 1485.58 L2091.97 1477.43 L2076.37 1477.43 L2076.37 1472.92 L2090.75 1451.02 Z" fill="#000000" fill-rule="nonzero" fill-opacity="1" /><path clip-path="url(#clip120)" d="M2119.29 1454.1 Q2115.68 1454.1 2113.85 1457.66 Q2112.04 1461.2 2112.04 1468.33 Q2112.04 1475.44 2113.85 1479.01 Q2115.68 1482.55 2119.29 1482.55 Q2122.92 1482.55 2124.73 1479.01 Q2126.56 1475.44 2126.56 1468.33 Q2126.56 1461.2 2124.73 1457.66 Q2122.92 1454.1 2119.29 1454.1 M2119.29 1450.39 Q2125.1 1450.39 2128.15 1455 Q2131.23 1459.58 2131.23 1468.33 Q2131.23 1477.06 2128.15 1481.67 Q2125.1 1486.25 2119.29 1486.25 Q2113.48 1486.25 2110.4 1481.67 Q2107.34 1477.06 2107.34 1468.33 Q2107.34 1459.58 2110.4 1455 Q2113.48 1450.39 2119.29 1450.39 Z" fill="#000000" fill-rule="nonzero" fill-opacity="1" /><path clip-path="url(#clip120)" d="M1231.53 1522.27 L1231.53 1532.4 L1243.59 1532.4 L1243.59 1536.95 L1231.53 1536.95 L1231.53 1556.3 Q1231.53 1560.66 1232.71 1561.9 Q1233.91 1563.14 1237.58 1563.14 L1243.59 1563.14 L1243.59 1568.04 L1237.58 1568.04 Q1230.8 1568.04 1228.22 1565.53 Q1225.64 1562.98 1225.64 1556.3 L1225.64 1536.95 L1221.34 1536.95 L1221.34 1532.4 L1225.64 1532.4 L1225.64 1522.27 L1231.53 1522.27 Z" fill="#000000" fill-rule="nonzero" fill-opacity="1" /><polyline clip-path="url(#clip120)" style="stroke:#000000; stroke-linecap:round; stroke-linejoin:round; stroke-width:4; stroke-opacity:1; fill:none" points="112.177,1423.18 112.177,47.2441 "/>
<polyline clip-path="url(#clip120)" style="stroke:#000000; stroke-linecap:round; stroke-linejoin:round; stroke-width:4; stroke-opacity:1; fill:none" points="112.177,1414.75 131.075,1414.75 "/>
<polyline clip-path="url(#clip120)" style="stroke:#000000; stroke-linecap:round; stroke-linejoin:round; stroke-width:4; stroke-opacity:1; fill:none" points="112.177,1098.3 131.075,1098.3 "/>
<polyline clip-path="url(#clip120)" style="stroke:#000000; stroke-linecap:round; stroke-linejoin:round; stroke-width:4; stroke-opacity:1; fill:none" points="112.177,781.858 131.075,781.858 "/>
<polyline clip-path="url(#clip120)" style="stroke:#000000; stroke-linecap:round; stroke-linejoin:round; stroke-width:4; stroke-opacity:1; fill:none" points="112.177,465.412 131.075,465.412 "/>
<polyline clip-path="url(#clip120)" style="stroke:#000000; stroke-linecap:round; stroke-linejoin:round; stroke-width:4; stroke-opacity:1; fill:none" points="112.177,148.966 131.075,148.966 "/>
<path clip-path="url(#clip120)" d="M64.2328 1400.55 Q60.6217 1400.55 58.793 1404.11 Q56.9875 1407.65 56.9875 1414.78 Q56.9875 1421.89 58.793 1425.46 Q60.6217 1429 64.2328 1429 Q67.867 1429 69.6726 1425.46 Q71.5013 1421.89 71.5013 1414.78 Q71.5013 1407.65 69.6726 1404.11 Q67.867 1400.55 64.2328 1400.55 M64.2328 1396.84 Q70.0429 1396.84 73.0985 1401.45 Q76.1772 1406.03 76.1772 1414.78 Q76.1772 1423.51 73.0985 1428.12 Q70.0429 1432.7 64.2328 1432.7 Q58.4226 1432.7 55.344 1428.12 Q52.2884 1423.51 52.2884 1414.78 Q52.2884 1406.03 55.344 1401.45 Q58.4226 1396.84 64.2328 1396.84 Z" fill="#000000" fill-rule="nonzero" fill-opacity="1" /><path clip-path="url(#clip120)" d="M56.2699 1111.65 L63.9087 1111.65 L63.9087 1085.28 L55.5986 1086.95 L55.5986 1082.69 L63.8624 1081.02 L68.5383 1081.02 L68.5383 1111.65 L76.1772 1111.65 L76.1772 1115.58 L56.2699 1115.58 L56.2699 1111.65 Z" fill="#000000" fill-rule="nonzero" fill-opacity="1" /><path clip-path="url(#clip120)" d="M59.8578 795.203 L76.1772 795.203 L76.1772 799.138 L54.2328 799.138 L54.2328 795.203 Q56.8949 792.448 61.4782 787.818 Q66.0846 783.166 67.2652 781.823 Q69.5105 779.3 70.3902 777.564 Q71.2929 775.804 71.2929 774.115 Q71.2929 771.36 69.3485 769.624 Q67.4272 767.888 64.3254 767.888 Q62.1263 767.888 59.6726 768.652 Q57.2421 769.416 54.4643 770.967 L54.4643 766.244 Q57.2884 765.11 59.7421 764.531 Q62.1958 763.953 64.2328 763.953 Q69.6031 763.953 72.7976 766.638 Q75.992 769.323 75.992 773.814 Q75.992 775.943 75.1818 777.865 Q74.3948 779.763 72.2883 782.355 Q71.7096 783.027 68.6078 786.244 Q65.5059 789.439 59.8578 795.203 Z" fill="#000000" fill-rule="nonzero" fill-opacity="1" /><path clip-path="url(#clip120)" d="M69.0476 464.058 Q72.404 464.775 74.279 467.044 Q76.1772 469.312 76.1772 472.646 Q76.1772 477.761 72.6587 480.562 Q69.1402 483.363 62.6587 483.363 Q60.4828 483.363 58.168 482.923 Q55.8764 482.507 53.4227 481.65 L53.4227 477.136 Q55.3671 478.271 57.6819 478.849 Q59.9967 479.428 62.5198 479.428 Q66.918 479.428 69.2096 477.692 Q71.5244 475.956 71.5244 472.646 Q71.5244 469.59 69.3717 467.877 Q67.242 466.141 63.4226 466.141 L59.3949 466.141 L59.3949 462.299 L63.6078 462.299 Q67.0569 462.299 68.8855 460.933 Q70.7142 459.544 70.7142 456.951 Q70.7142 454.289 68.8161 452.877 Q66.9411 451.442 63.4226 451.442 Q61.5013 451.442 59.3023 451.859 Q57.1032 452.275 54.4643 453.155 L54.4643 448.988 Q57.1264 448.248 59.4412 447.877 Q61.7791 447.507 63.8393 447.507 Q69.1633 447.507 72.2652 449.938 Q75.367 452.345 75.367 456.465 Q75.367 459.336 73.7235 461.326 Q72.08 463.294 69.0476 464.058 Z" fill="#000000" fill-rule="nonzero" fill-opacity="1" /><path clip-path="url(#clip120)" d="M66.5939 135.76 L54.7884 154.209 L66.5939 154.209 L66.5939 135.76 M65.367 131.686 L71.2466 131.686 L71.2466 154.209 L76.1772 154.209 L76.1772 158.098 L71.2466 158.098 L71.2466 166.246 L66.5939 166.246 L66.5939 158.098 L50.9921 158.098 L50.9921 153.584 L65.367 131.686 Z" fill="#000000" fill-rule="nonzero" fill-opacity="1" /><polyline clip-path="url(#clip121)" style="stroke:#009af9; stroke-linecap:round; stroke-linejoin:round; stroke-width:24; stroke-opacity:1; fill:none" points="112.177,781.858 114.42,795.946 116.663,809.704 118.906,823.122 121.148,836.188 123.391,848.89 125.634,861.214 127.877,873.148 130.12,884.681 132.363,895.807 134.605,906.518 136.848,916.813 139.091,926.69 141.334,936.151 143.577,945.202 145.819,953.849 148.062,962.1 150.305,969.964 152.548,977.451 154.791,984.574 157.034,991.344 159.276,997.776 161.519,1003.88 163.762,1009.67 166.005,1015.17 168.248,1020.37 170.491,1025.3 172.733,1029.98 174.976,1034.4 177.219,1038.58 179.462,1042.54 181.705,1046.28 183.947,1049.82 186.19,1053.17 188.433,1056.33 190.676,1059.32 192.919,1062.14 195.162,1064.8 197.404,1067.32 199.647,1069.69 201.89,1071.93 204.133,1074.04 206.376,1076.03 208.619,1077.91 210.861,1079.67 213.104,1081.34 215.347,1082.9 217.59,1084.37 219.833,1085.76 222.075,1087.06 224.318,1088.28 226.561,1089.42 228.804,1090.5 231.047,1091.51 233.29,1092.45 235.532,1093.34 237.775,1094.16 240.018,1094.93 242.261,1095.65 244.504,1096.31 246.746,1096.94 248.989,1097.51 251.232,1098.04 253.475,1098.54 255.718,1098.99 257.961,1099.41 260.203,1099.8 262.446,1100.15 264.689,1100.47 266.932,1100.76 269.175,1101.02 271.418,1101.26 273.66,1101.47 275.903,1101.65 278.146,1101.81 280.389,1101.95 282.632,1102.07 284.874,1102.17 287.117,1102.25 289.36,1102.31 291.603,1102.35 293.846,1102.38 296.089,1102.39 298.331,1102.38 300.574,1102.37 302.817,1102.33 305.06,1102.29 307.303,1102.23 309.545,1102.16 311.788,1102.08 314.031,1101.99 316.274,1101.88 318.517,1101.77 320.76,1101.64 323.002,1101.51 325.245,1101.37 327.488,1101.22 329.731,1101.06 331.974,1100.89 334.217,1100.71 336.459,1100.53 338.702,1100.34 340.945,1100.15 343.188,1099.94 345.431,1099.73 347.673,1099.52 349.916,1099.3 352.159,1099.07 354.402,1098.84 356.645,1098.6 358.888,1098.36 361.13,1098.11 363.373,1097.86 365.616,1097.6 367.859,1097.33 370.102,1097.07 372.344,1096.79 374.587,1096.52 376.83,1096.23 379.073,1095.95 381.316,1095.66 383.559,1095.37 385.801,1095.07 388.044,1094.77 390.287,1094.46 392.53,1094.15 394.773,1093.84 397.016,1093.53 399.258,1093.21 401.501,1092.89 403.744,1092.56 405.987,1092.23 408.23,1091.9 410.472,1091.56 412.715,1091.22 414.958,1090.88 417.201,1090.54 419.444,1090.19 421.687,1089.84 423.929,1089.48 426.172,1089.13 428.415,1088.76 430.658,1088.4 432.901,1088.03 435.143,1087.66 437.386,1087.29 439.629,1086.91 441.872,1086.54 444.115,1086.15 446.358,1085.77 448.6,1085.38 450.843,1084.99 453.086,1084.6 455.329,1084.2 457.572,1083.81 459.815,1083.4 462.057,1083 464.3,1082.59 466.543,1082.19 468.786,1081.77 471.029,1081.36 473.271,1080.94 475.514,1080.52 477.757,1080.1 480,1079.67 482.243,1079.24 484.486,1078.81 486.728,1078.38 488.971,1077.94 491.214,1077.5 493.457,1077.06 495.7,1076.61 497.942,1076.16 500.185,1075.71 502.428,1075.26 504.671,1074.8 506.914,1074.34 509.157,1073.88 511.399,1073.41 513.642,1072.95 515.885,1072.48 518.128,1072 520.371,1071.53 522.614,1071.05 524.856,1070.56 527.099,1070.08 529.342,1069.59 531.585,1069.1 533.828,1068.61 536.07,1068.11 538.313,1067.62 540.556,1067.12 542.799,1066.61 545.042,1066.1 547.285,1065.6 549.527,1065.08 551.77,1064.57 554.013,1064.05 556.256,1063.53 558.499,1063.01 560.741,1062.48 562.984,1061.95 565.227,1061.42 567.47,1060.88 569.713,1060.35 571.956,1059.81 574.198,1059.26 576.441,1058.72 578.684,1058.17 580.927,1057.62 583.17,1057.06 585.413,1056.51 587.655,1055.95 589.898,1055.38 592.141,1054.82 594.384,1054.25 596.627,1053.68 598.869,1053.11 601.112,1052.53 603.355,1051.95 605.598,1051.37 607.841,1050.79 610.084,1050.2 612.326,1049.61 614.569,1049.02 616.812,1048.42 619.055,1047.82 621.298,1047.22 623.54,1046.62 625.783,1046.01 628.026,1045.4 630.269,1044.79 632.512,1044.18 634.755,1043.56 636.997,1042.94 639.24,1042.32 641.483,1041.69 643.726,1041.07 645.969,1040.44 648.212,1039.8 650.454,1039.17 652.697,1038.53 654.94,1037.88 657.183,1037.24 659.426,1036.59 661.668,1035.94 663.911,1035.29 666.154,1034.63 668.397,1033.98 670.64,1033.32 672.883,1032.65 675.125,1031.99 677.368,1031.32 679.611,1030.65 681.854,1029.98 684.097,1029.3 686.339,1028.63 688.582,1027.95 690.825,1027.27 693.068,1026.58 695.311,1025.9 697.554,1025.21 699.796,1024.52 702.039,1023.83 704.282,1023.14 706.525,1022.44 708.768,1021.74 711.011,1021.04 713.253,1020.34 715.496,1019.63 717.739,1018.93 719.982,1018.22 722.225,1017.51 724.467,1016.8 726.71,1016.08 728.953,1015.37 731.196,1014.65 733.439,1013.93 735.682,1013.21 737.924,1012.49 740.167,1011.76 742.41,1011.04 744.653,1010.31 746.896,1009.58 749.138,1008.84 751.381,1008.11 753.624,1007.37 755.867,1006.64 758.11,1005.9 760.353,1005.16 762.595,1004.41 764.838,1003.67 767.081,1002.92 769.324,1002.17 771.567,1001.42 773.81,1000.67 776.052,999.914 778.295,999.158 780.538,998.4 782.781,997.641 785.024,996.88 787.266,996.117 789.509,995.353 791.752,994.588 793.995,993.821 796.238,993.054 798.481,992.285 800.723,991.515 802.966,990.743 805.209,989.971 807.452,989.198 809.695,988.424 811.938,987.649 814.18,986.874 816.423,986.097 818.666,985.32 820.909,984.542 823.152,983.764 825.394,982.985 827.637,982.206 829.88,981.426 832.123,980.645 834.366,979.865 836.609,979.083 838.851,978.302 841.094,977.52 843.337,976.738 845.58,975.956 847.823,975.173 850.065,974.391 852.308,973.608 854.551,972.825 856.794,972.042 859.037,971.258 861.28,970.475 863.522,969.692 865.765,968.909 868.008,968.125 870.251,967.342 872.494,966.559 874.737,965.776 876.979,964.992 879.222,964.209 881.465,963.426 883.708,962.643 885.951,961.86 888.193,961.078 890.436,960.295 892.679,959.513 894.922,958.73 897.165,957.948 899.408,957.166 901.65,956.384 903.893,955.602 906.136,954.82 908.379,954.038 910.622,953.257 912.864,952.477 915.107,951.696 917.35,950.917 919.593,950.138 921.836,949.36 924.079,948.583 926.321,947.806 928.564,947.031 930.807,946.257 933.05,945.483 935.293,944.711 937.536,943.941 939.778,943.171 942.021,942.403 944.264,941.636 946.507,940.871 948.75,940.107 950.992,939.345 953.235,938.584 955.478,937.825 957.721,937.068 959.964,936.312 962.207,935.558 964.449,934.806 966.692,934.056 968.935,933.307 971.178,932.561 973.421,931.816 975.663,931.073 977.906,930.333 980.149,929.594 982.392,928.857 984.635,928.122 986.878,927.389 989.12,926.658 991.363,925.929 993.606,925.201 995.849,924.476 998.092,923.753 1000.33,923.032 1002.58,922.313 1004.82,921.596 1007.06,920.881 1009.31,920.168 1011.55,919.456 1013.79,918.747 1016.03,918.04 1018.28,917.334 1020.52,916.63 1022.76,915.928 1025.01,915.228 1027.25,914.53 1029.49,913.833 1031.73,913.138 1033.98,912.445 1036.22,911.753 1038.46,911.063 1040.71,910.375 1042.95,909.689 1045.19,909.006 1047.43,908.324 1049.68,907.645 1051.92,906.968 1054.16,906.293 1056.41,905.621 1058.65,904.952 1060.89,904.284 1063.13,903.62 1065.38,902.958 1067.62,902.298 1069.86,901.642 1072.1,900.988 1074.35,900.337 1076.59,899.689 1078.83,899.043 1081.08,898.4 1083.32,897.761 1085.56,897.124 1087.8,896.49 1090.05,895.859 1092.29,895.232 1094.53,894.607 1096.78,893.985 1099.02,893.366 1101.26,892.75 1103.5,892.138 1105.75,891.528 1107.99,890.921 1110.23,890.318 1112.48,889.717 1114.72,889.12 1116.96,888.526 1119.2,887.934 1121.45,887.346 1123.69,886.761 1125.93,886.179 1128.18,885.599 1130.42,885.023 1132.66,884.45 1134.9,883.879 1137.15,883.312 1139.39,882.747 1141.63,882.186 1143.88,881.627 1146.12,881.07 1148.36,880.517 1150.6,879.966 1152.85,879.418 1155.09,878.873 1157.33,878.33 1159.57,877.79 1161.82,877.252 1164.06,876.717 1166.3,876.184 1168.55,875.653 1170.79,875.125 1173.03,874.598 1175.27,874.075 1177.52,873.554 1179.76,873.036 1182,872.52 1184.25,872.007 1186.49,871.496 1188.73,870.989 1190.97,870.484 1193.22,869.982 1195.46,869.483 1197.7,868.987 1199.95,868.494 1202.19,868.003 1204.43,867.516 1206.67,867.031 1208.92,866.55 1211.16,866.071 1213.4,865.596 1215.65,865.123 1217.89,864.654 1220.13,864.187 1222.37,863.724 1224.62,863.263 1226.86,862.806 1229.1,862.352 1231.35,861.9 1233.59,861.452 1235.83,861.007 1238.07,860.565 1240.32,860.126 1242.56,859.69 1244.8,859.257 1247.04,858.827 1249.29,858.4 1251.53,857.976 1253.77,857.555 1256.02,857.137 1258.26,856.721 1260.5,856.309 1262.74,855.9 1264.99,855.493 1267.23,855.089 1269.47,854.688 1271.72,854.29 1273.96,853.895 1276.2,853.502 1278.44,853.112 1280.69,852.725 1282.93,852.34 1285.17,851.958 1287.42,851.578 1289.66,851.201 1291.9,850.826 1294.14,850.454 1296.39,850.084 1298.63,849.716 1300.87,849.351 1303.12,848.987 1305.36,848.626 1307.6,848.267 1309.84,847.91 1312.09,847.555 1314.33,847.201 1316.57,846.85 1318.82,846.501 1321.06,846.154 1323.3,845.809 1325.54,845.466 1327.79,845.126 1330.03,844.787 1332.27,844.452 1334.51,844.118 1336.76,843.787 1339,843.458 1341.24,843.131 1343.49,842.807 1345.73,842.485 1347.97,842.165 1350.21,841.848 1352.46,841.533 1354.7,841.221 1356.94,840.911 1359.19,840.603 1361.43,840.297 1363.67,839.994 1365.91,839.693 1368.16,839.395 1370.4,839.099 1372.64,838.805 1374.89,838.514 1377.13,838.225 1379.37,837.938 1381.61,837.654 1383.86,837.372 1386.1,837.092 1388.34,836.815 1390.59,836.539 1392.83,836.266 1395.07,835.996 1397.31,835.727 1399.56,835.461 1401.8,835.197 1404.04,834.935 1406.29,834.675 1408.53,834.418 1410.77,834.162 1413.01,833.909 1415.26,833.657 1417.5,833.408 1419.74,833.161 1421.98,832.916 1424.23,832.672 1426.47,832.431 1428.71,832.191 1430.96,831.954 1433.2,831.718 1435.44,831.484 1437.68,831.252 1439.93,831.022 1442.17,830.793 1444.41,830.566 1446.66,830.341 1448.9,830.117 1451.14,829.895 1453.38,829.674 1455.63,829.455 1457.87,829.237 1460.11,829.02 1462.36,828.805 1464.6,828.592 1466.84,828.379 1469.08,828.168 1471.33,827.958 1473.57,827.75 1475.81,827.543 1478.06,827.337 1480.3,827.134 1482.54,826.931 1484.78,826.73 1487.03,826.531 1489.27,826.333 1491.51,826.137 1493.76,825.942 1496,825.749 1498.24,825.557 1500.48,825.367 1502.73,825.178 1504.97,824.991 1507.21,824.806 1509.46,824.622 1511.7,824.439 1513.94,824.258 1516.18,824.079 1518.43,823.901 1520.67,823.725 1522.91,823.55 1525.15,823.377 1527.4,823.205 1529.64,823.035 1531.88,822.866 1534.13,822.699 1536.37,822.533 1538.61,822.369 1540.85,822.206 1543.1,822.045 1545.34,821.885 1547.58,821.726 1549.83,821.569 1552.07,821.414 1554.31,821.26 1556.55,821.107 1558.8,820.955 1561.04,820.805 1563.28,820.657 1565.53,820.51 1567.77,820.364 1570.01,820.219 1572.25,820.076 1574.5,819.934 1576.74,819.793 1578.98,819.653 1581.23,819.515 1583.47,819.378 1585.71,819.242 1587.95,819.108 1590.2,818.974 1592.44,818.842 1594.68,818.71 1596.93,818.58 1599.17,818.451 1601.41,818.323 1603.65,818.196 1605.9,818.07 1608.14,817.945 1610.38,817.821 1612.62,817.698 1614.87,817.576 1617.11,817.454 1619.35,817.334 1621.6,817.214 1623.84,817.095 1626.08,816.977 1628.32,816.86 1630.57,816.743 1632.81,816.627 1635.05,816.512 1637.3,816.397 1639.54,816.283 1641.78,816.17 1644.02,816.058 1646.27,815.947 1648.51,815.836 1650.75,815.727 1653,815.618 1655.24,815.51 1657.48,815.403 1659.72,815.297 1661.97,815.192 1664.21,815.087 1666.45,814.984 1668.7,814.881 1670.94,814.779 1673.18,814.678 1675.42,814.578 1677.67,814.479 1679.91,814.381 1682.15,814.283 1684.4,814.187 1686.64,814.091 1688.88,813.996 1691.12,813.902 1693.37,813.809 1695.61,813.717 1697.85,813.626 1700.09,813.535 1702.34,813.445 1704.58,813.357 1706.82,813.269 1709.07,813.182 1711.31,813.095 1713.55,813.01 1715.79,812.925 1718.04,812.842 1720.28,812.759 1722.52,812.677 1724.77,812.595 1727.01,812.515 1729.25,812.435 1731.49,812.356 1733.74,812.278 1735.98,812.2 1738.22,812.124 1740.47,812.048 1742.71,811.973 1744.95,811.898 1747.19,811.824 1749.44,811.752 1751.68,811.679 1753.92,811.608 1756.17,811.537 1758.41,811.466 1760.65,811.397 1762.89,811.328 1765.14,811.26 1767.38,811.192 1769.62,811.125 1771.87,811.059 1774.11,810.993 1776.35,810.927 1778.59,810.863 1780.84,810.798 1783.08,810.735 1785.32,810.672 1787.56,810.609 1789.81,810.547 1792.05,810.485 1794.29,810.424 1796.54,810.363 1798.78,810.303 1801.02,810.243 1803.26,810.183 1805.51,810.124 1807.75,810.065 1809.99,810.007 1812.24,809.949 1814.48,809.891 1816.72,809.833 1818.96,809.776 1821.21,809.719 1823.45,809.662 1825.69,809.606 1827.94,809.55 1830.18,809.494 1832.42,809.439 1834.66,809.384 1836.91,809.33 1839.15,809.276 1841.39,809.222 1843.64,809.169 1845.88,809.117 1848.12,809.064 1850.36,809.013 1852.61,808.961 1854.85,808.91 1857.09,808.86 1859.34,808.81 1861.58,808.76 1863.82,808.711 1866.06,808.662 1868.31,808.614 1870.55,808.566 1872.79,808.519 1875.03,808.472 1877.28,808.426 1879.52,808.38 1881.76,808.334 1884.01,808.289 1886.25,808.244 1888.49,808.2 1890.73,808.156 1892.98,808.113 1895.22,808.07 1897.46,808.028 1899.71,807.986 1901.95,807.944 1904.19,807.903 1906.43,807.863 1908.68,807.823 1910.92,807.783 1913.16,807.744 1915.41,807.705 1917.65,807.666 1919.89,807.628 1922.13,807.591 1924.38,807.553 1926.62,807.517 1928.86,807.48 1931.11,807.444 1933.35,807.409 1935.59,807.374 1937.83,807.339 1940.08,807.305 1942.32,807.27 1944.56,807.237 1946.81,807.204 1949.05,807.171 1951.29,807.138 1953.53,807.106 1955.78,807.074 1958.02,807.042 1960.26,807.011 1962.5,806.98 1964.75,806.95 1966.99,806.919 1969.23,806.889 1971.48,806.86 1973.72,806.83 1975.96,806.801 1978.2,806.772 1980.45,806.743 1982.69,806.715 1984.93,806.687 1987.18,806.659 1989.42,806.631 1991.66,806.603 1993.9,806.576 1996.15,806.549 1998.39,806.522 2000.63,806.495 2002.88,806.468 2005.12,806.442 2007.36,806.415 2009.6,806.389 2011.85,806.362 2014.09,806.336 2016.33,806.31 2018.58,806.284 2020.82,806.258 2023.06,806.232 2025.3,806.206 2027.55,806.18 2029.79,806.154 2032.03,806.128 2034.28,806.102 2036.52,806.077 2038.76,806.051 2041,806.026 2043.25,806.001 2045.49,805.975 2047.73,805.951 2049.97,805.926 2052.22,805.901 2054.46,805.877 2056.7,805.852 2058.95,805.828 2061.19,805.804 2063.43,805.781 2065.67,805.757 2067.92,805.734 2070.16,805.711 2072.4,805.688 2074.65,805.665 2076.89,805.643 2079.13,805.62 2081.37,805.598 2083.62,805.577 2085.86,805.555 2088.1,805.534 2090.35,805.513 2092.59,805.492 2094.83,805.471 2097.07,805.451 2099.32,805.431 2101.56,805.411 2103.8,805.391 2106.05,805.372 2108.29,805.353 2110.53,805.334 2112.77,805.316 2115.02,805.297 2117.26,805.279 2119.5,805.262 2121.75,805.244 2123.99,805.227 2126.23,805.21 2128.47,805.193 2130.72,805.176 2132.96,805.16 2135.2,805.144 2137.45,805.128 2139.69,805.113 2141.93,805.098 2144.17,805.083 2146.42,805.068 2148.66,805.053 2150.9,805.039 2153.14,805.025 2155.39,805.011 2157.63,804.997 2159.87,804.984 2162.12,804.971 2164.36,804.958 2166.6,804.945 2168.84,804.932 2171.09,804.92 2173.33,804.908 2175.57,804.895 2177.82,804.884 2180.06,804.872 2182.3,804.86 2184.54,804.849 2186.79,804.837 2189.03,804.826 2191.27,804.815 2193.52,804.804 2195.76,804.794 2198,804.783 2200.24,804.772 2202.49,804.762 2204.73,804.751 2206.97,804.741 2209.22,804.731 2211.46,804.72 2213.7,804.71 2215.94,804.7 2218.19,804.69 2220.43,804.68 2222.67,804.67 2224.92,804.659 2227.16,804.649 2229.4,804.639 2231.64,804.629 2233.89,804.618 2236.13,804.608 2238.37,804.598 2240.61,804.587 2242.86,804.576 2245.1,804.565 2247.34,804.555 2249.59,804.543 2251.83,804.532 2254.07,804.521 2256.31,804.509 2258.56,804.498 2260.8,804.487 2263.04,804.476 2265.29,804.465 2267.53,804.454 2269.77,804.443 2272.01,804.433 2274.26,804.423 2276.5,804.412 2278.74,804.402 2280.99,804.392 2283.23,804.382 2285.47,804.372 2287.71,804.362 2289.96,804.353 2292.2,804.343 2294.44,804.334 2296.69,804.324 2298.93,804.315 2301.17,804.306 2303.41,804.297 2305.66,804.288 2307.9,804.279 2310.14,804.271 2312.39,804.262 2314.63,804.254 2316.87,804.245 2319.11,804.237 2321.36,804.228 2323.6,804.22 2325.84,804.212 2328.08,804.204 2330.33,804.196 2332.57,804.188 2334.81,804.181 2337.06,804.173 2339.3,804.165 2341.54,804.158 2343.78,804.15 2346.03,804.143 2348.27,804.135 2350.51,804.128 2352.76,804.121 "/>
<polyline clip-path="url(#clip121)" style="stroke:#e26f46; stroke-linecap:round; stroke-linejoin:round; stroke-width:24; stroke-opacity:1; fill:none" points="112.177,1383.1 114.42,1355.94 116.663,1329.99 118.906,1305.23 121.148,1281.61 123.391,1259.09 125.634,1237.63 127.877,1217.19 130.12,1197.72 132.363,1179.2 134.605,1161.57 136.848,1144.8 139.091,1128.86 141.334,1113.7 143.577,1099.29 145.819,1085.6 148.062,1072.58 150.305,1060.22 152.548,1048.47 154.791,1037.31 157.034,1026.71 159.276,1016.64 161.519,1007.07 163.762,997.977 166.005,989.34 168.248,981.134 170.491,973.336 172.733,965.926 174.976,958.883 177.219,952.188 179.462,945.823 181.705,939.772 183.947,934.017 186.19,928.545 188.433,923.339 190.676,918.387 192.919,913.674 195.162,909.188 197.404,904.918 199.647,900.85 201.89,896.975 204.133,893.283 206.376,889.765 208.619,886.412 210.861,883.214 213.104,880.165 215.347,877.256 217.59,874.479 219.833,871.828 222.075,869.295 224.318,866.875 226.561,864.561 228.804,862.347 231.047,860.229 233.29,858.201 235.532,856.259 237.775,854.399 240.018,852.616 242.261,850.906 244.504,849.266 246.746,847.691 248.989,846.178 251.232,844.723 253.475,843.323 255.718,841.976 257.961,840.677 260.203,839.425 262.446,838.217 264.689,837.05 266.932,835.923 269.175,834.833 271.418,833.779 273.66,832.758 275.903,831.77 278.146,830.811 280.389,829.881 282.632,828.977 284.874,828.099 287.117,827.244 289.36,826.411 291.603,825.599 293.846,824.806 296.089,824.032 298.331,823.274 300.574,822.532 302.817,821.806 305.06,821.094 307.303,820.395 309.545,819.709 311.788,819.036 314.031,818.373 316.274,817.722 318.517,817.08 320.76,816.447 323.002,815.823 325.245,815.207 327.488,814.598 329.731,813.996 331.974,813.4 334.217,812.81 336.459,812.225 338.702,811.644 340.945,811.067 343.188,810.494 345.431,809.924 347.673,809.357 349.916,808.793 352.159,808.232 354.402,807.673 356.645,807.116 358.888,806.561 361.13,806.007 363.373,805.454 365.616,804.903 367.859,804.352 370.102,803.802 372.344,803.253 374.587,802.703 376.83,802.154 379.073,801.604 381.316,801.054 383.559,800.503 385.801,799.951 388.044,799.398 390.287,798.843 392.53,798.287 394.773,797.73 397.016,797.17 399.258,796.609 401.501,796.046 403.744,795.481 405.987,794.913 408.23,794.344 410.472,793.773 412.715,793.199 414.958,792.623 417.201,792.045 419.444,791.464 421.687,790.88 423.929,790.294 426.172,789.705 428.415,789.114 430.658,788.519 432.901,787.922 435.143,787.321 437.386,786.718 439.629,786.111 441.872,785.502 444.115,784.888 446.358,784.272 448.6,783.652 450.843,783.028 453.086,782.401 455.329,781.77 457.572,781.135 459.815,780.496 462.057,779.854 464.3,779.208 466.543,778.558 468.786,777.904 471.029,777.246 473.271,776.584 475.514,775.919 477.757,775.249 480,774.575 482.243,773.898 484.486,773.216 486.728,772.53 488.971,771.841 491.214,771.147 493.457,770.448 495.7,769.746 497.942,769.04 500.185,768.329 502.428,767.614 504.671,766.894 506.914,766.171 509.157,765.443 511.399,764.71 513.642,763.973 515.885,763.232 518.128,762.486 520.371,761.736 522.614,760.981 524.856,760.221 527.099,759.457 529.342,758.688 531.585,757.915 533.828,757.137 536.07,756.354 538.313,755.566 540.556,754.773 542.799,753.976 545.042,753.174 547.285,752.368 549.527,751.556 551.77,750.74 554.013,749.919 556.256,749.094 558.499,748.263 560.741,747.427 562.984,746.587 565.227,745.742 567.47,744.891 569.713,744.036 571.956,743.176 574.198,742.311 576.441,741.441 578.684,740.566 580.927,739.685 583.17,738.8 585.413,737.91 587.655,737.015 589.898,736.114 592.141,735.209 594.384,734.298 596.627,733.382 598.869,732.461 601.112,731.535 603.355,730.604 605.598,729.668 607.841,728.727 610.084,727.78 612.326,726.828 614.569,725.871 616.812,724.909 619.055,723.942 621.298,722.97 623.54,721.992 625.783,721.01 628.026,720.022 630.269,719.029 632.512,718.03 634.755,717.027 636.997,716.019 639.24,715.005 641.483,713.986 643.726,712.962 645.969,711.933 648.212,710.9 650.454,709.862 652.697,708.819 654.94,707.771 657.183,706.718 659.426,705.66 661.668,704.597 663.911,703.529 666.154,702.456 668.397,701.378 670.64,700.294 672.883,699.206 675.125,698.112 677.368,697.012 679.611,695.908 681.854,694.798 684.097,693.683 686.339,692.562 688.582,691.436 690.825,690.304 693.068,689.168 695.311,688.025 697.554,686.878 699.796,685.724 702.039,684.566 704.282,683.402 706.525,682.233 708.768,681.058 711.011,679.878 713.253,678.693 715.496,677.502 717.739,676.306 719.982,675.105 722.225,673.899 724.467,672.687 726.71,671.47 728.953,670.248 731.196,669.021 733.439,667.789 735.682,666.552 737.924,665.31 740.167,664.063 742.41,662.812 744.653,661.555 746.896,660.294 749.138,659.028 751.381,657.758 753.624,656.483 755.867,655.204 758.11,653.92 760.353,652.632 762.595,651.34 764.838,650.043 767.081,648.743 769.324,647.439 771.567,646.131 773.81,644.819 776.052,643.503 778.295,642.184 780.538,640.862 782.781,639.536 785.024,638.206 787.266,636.872 789.509,635.534 791.752,634.193 793.995,632.847 796.238,631.498 798.481,630.144 800.723,628.787 802.966,627.426 805.209,626.061 807.452,624.692 809.695,623.319 811.938,621.942 814.18,620.561 816.423,619.176 818.666,617.787 820.909,616.395 823.152,614.998 825.394,613.598 827.637,612.194 829.88,610.786 832.123,609.375 834.366,607.96 836.609,606.541 838.851,605.119 841.094,603.693 843.337,602.264 845.58,600.831 847.823,599.395 850.065,597.956 852.308,596.513 854.551,595.067 856.794,593.619 859.037,592.167 861.28,590.712 863.522,589.255 865.765,587.795 868.008,586.332 870.251,584.867 872.494,583.399 874.737,581.929 876.979,580.457 879.222,578.983 881.465,577.506 883.708,576.028 885.951,574.548 888.193,573.067 890.436,571.584 892.679,570.099 894.922,568.614 897.165,567.127 899.408,565.639 901.65,564.151 903.893,562.662 906.136,561.172 908.379,559.682 910.622,558.191 912.864,556.699 915.107,555.206 917.35,553.713 919.593,552.218 921.836,550.723 924.079,549.227 926.321,547.73 928.564,546.231 930.807,544.732 933.05,543.232 935.293,541.731 937.536,540.229 939.778,538.725 942.021,537.221 944.264,535.716 946.507,534.21 948.75,532.703 950.992,531.195 953.235,529.687 955.478,528.177 957.721,526.667 959.964,525.156 962.207,523.645 964.449,522.133 966.692,520.62 968.935,519.107 971.178,517.594 973.421,516.08 975.663,514.566 977.906,513.052 980.149,511.538 982.392,510.024 984.635,508.51 986.878,506.996 989.12,505.483 991.363,503.97 993.606,502.458 995.849,500.946 998.092,499.435 1000.33,497.926 1002.58,496.417 1004.82,494.91 1007.06,493.404 1009.31,491.9 1011.55,490.397 1013.79,488.897 1016.03,487.398 1018.28,485.902 1020.52,484.408 1022.76,482.916 1025.01,481.428 1027.25,479.942 1029.49,478.459 1031.73,476.98 1033.98,475.505 1036.22,474.033 1038.46,472.564 1040.71,471.099 1042.95,469.637 1045.19,468.177 1047.43,466.721 1049.68,465.268 1051.92,463.817 1054.16,462.37 1056.41,460.925 1058.65,459.483 1060.89,458.043 1063.13,456.606 1065.38,455.172 1067.62,453.741 1069.86,452.312 1072.1,450.886 1074.35,449.462 1076.59,448.041 1078.83,446.622 1081.08,445.206 1083.32,443.793 1085.56,442.382 1087.8,440.974 1090.05,439.568 1092.29,438.166 1094.53,436.765 1096.78,435.368 1099.02,433.973 1101.26,432.582 1103.5,431.193 1105.75,429.807 1107.99,428.424 1110.23,427.044 1112.48,425.667 1114.72,424.293 1116.96,422.923 1119.2,421.556 1121.45,420.192 1123.69,418.832 1125.93,417.475 1128.18,416.122 1130.42,414.773 1132.66,413.427 1134.9,412.086 1137.15,410.749 1139.39,409.415 1141.63,408.087 1143.88,406.762 1146.12,405.443 1148.36,404.128 1150.6,402.817 1152.85,401.512 1155.09,400.212 1157.33,398.917 1159.57,397.628 1161.82,396.344 1164.06,395.066 1166.3,393.794 1168.55,392.528 1170.79,391.268 1173.03,390.014 1175.27,388.767 1177.52,387.524 1179.76,386.288 1182,385.057 1184.25,383.831 1186.49,382.61 1188.73,381.395 1190.97,380.185 1193.22,378.98 1195.46,377.78 1197.7,376.585 1199.95,375.394 1202.19,374.209 1204.43,373.028 1206.67,371.852 1208.92,370.681 1211.16,369.514 1213.4,368.351 1215.65,367.194 1217.89,366.041 1220.13,364.892 1222.37,363.748 1224.62,362.608 1226.86,361.473 1229.1,360.342 1231.35,359.215 1233.59,358.093 1235.83,356.976 1238.07,355.862 1240.32,354.753 1242.56,353.649 1244.8,352.549 1247.04,351.453 1249.29,350.362 1251.53,349.276 1253.77,348.194 1256.02,347.117 1258.26,346.044 1260.5,344.976 1262.74,343.912 1264.99,342.854 1267.23,341.8 1269.47,340.751 1271.72,339.707 1273.96,338.668 1276.2,337.634 1278.44,336.605 1280.69,335.581 1282.93,334.563 1285.17,333.55 1287.42,332.542 1289.66,331.54 1291.9,330.544 1294.14,329.553 1296.39,328.568 1298.63,327.589 1300.87,326.616 1303.12,325.65 1305.36,324.689 1307.6,323.735 1309.84,322.788 1312.09,321.847 1314.33,320.913 1316.57,319.986 1318.82,319.065 1321.06,318.15 1323.3,317.241 1325.54,316.338 1327.79,315.44 1330.03,314.547 1332.27,313.66 1334.51,312.779 1336.76,311.903 1339,311.032 1341.24,310.166 1343.49,309.305 1345.73,308.449 1347.97,307.598 1350.21,306.752 1352.46,305.911 1354.7,305.075 1356.94,304.243 1359.19,303.416 1361.43,302.593 1363.67,301.775 1365.91,300.962 1368.16,300.153 1370.4,299.349 1372.64,298.549 1374.89,297.753 1377.13,296.962 1379.37,296.175 1381.61,295.392 1383.86,294.613 1386.1,293.839 1388.34,293.069 1390.59,292.304 1392.83,291.542 1395.07,290.785 1397.31,290.032 1399.56,289.283 1401.8,288.539 1404.04,287.798 1406.29,287.062 1408.53,286.33 1410.77,285.602 1413.01,284.879 1415.26,284.16 1417.5,283.445 1419.74,282.735 1421.98,282.028 1424.23,281.327 1426.47,280.629 1428.71,279.937 1430.96,279.248 1433.2,278.564 1435.44,277.885 1437.68,277.21 1439.93,276.54 1442.17,275.875 1444.41,275.215 1446.66,274.559 1448.9,273.908 1451.14,273.263 1453.38,272.622 1455.63,271.986 1457.87,271.356 1460.11,270.73 1462.36,270.11 1464.6,269.496 1466.84,268.887 1469.08,268.283 1471.33,267.685 1473.57,267.091 1475.81,266.501 1478.06,265.916 1480.3,265.336 1482.54,264.76 1484.78,264.188 1487.03,263.621 1489.27,263.058 1491.51,262.498 1493.76,261.943 1496,261.392 1498.24,260.845 1500.48,260.302 1502.73,259.762 1504.97,259.226 1507.21,258.694 1509.46,258.166 1511.7,257.641 1513.94,257.119 1516.18,256.602 1518.43,256.087 1520.67,255.576 1522.91,255.069 1525.15,254.565 1527.4,254.064 1529.64,253.566 1531.88,253.072 1534.13,252.58 1536.37,252.092 1538.61,251.608 1540.85,251.126 1543.1,250.647 1545.34,250.172 1547.58,249.699 1549.83,249.23 1552.07,248.763 1554.31,248.3 1556.55,247.839 1558.8,247.382 1561.04,246.928 1563.28,246.476 1565.53,246.028 1567.77,245.582 1570.01,245.14 1572.25,244.7 1574.5,244.264 1576.74,243.83 1578.98,243.399 1581.23,242.972 1583.47,242.547 1585.71,242.126 1587.95,241.707 1590.2,241.291 1592.44,240.879 1594.68,240.47 1596.93,240.063 1599.17,239.66 1601.41,239.26 1603.65,238.863 1605.9,238.47 1608.14,238.079 1610.38,237.692 1612.62,237.308 1614.87,236.928 1617.11,236.551 1619.35,236.177 1621.6,235.807 1623.84,235.44 1626.08,235.077 1628.32,234.718 1630.57,234.362 1632.81,234.01 1635.05,233.661 1637.3,233.316 1639.54,232.974 1641.78,232.635 1644.02,232.3 1646.27,231.967 1648.51,231.637 1650.75,231.309 1653,230.985 1655.24,230.663 1657.48,230.344 1659.72,230.027 1661.97,229.713 1664.21,229.402 1666.45,229.093 1668.7,228.787 1670.94,228.483 1673.18,228.181 1675.42,227.881 1677.67,227.584 1679.91,227.289 1682.15,226.997 1684.4,226.706 1686.64,226.418 1688.88,226.132 1691.12,225.848 1693.37,225.566 1695.61,225.286 1697.85,225.008 1700.09,224.732 1702.34,224.457 1704.58,224.185 1706.82,223.915 1709.07,223.647 1711.31,223.38 1713.55,223.115 1715.79,222.852 1718.04,222.591 1720.28,222.332 1722.52,222.074 1724.77,221.819 1727.01,221.565 1729.25,221.312 1731.49,221.062 1733.74,220.813 1735.98,220.566 1738.22,220.32 1740.47,220.077 1742.71,219.835 1744.95,219.594 1747.19,219.356 1749.44,219.119 1751.68,218.884 1753.92,218.65 1756.17,218.418 1758.41,218.188 1760.65,217.959 1762.89,217.733 1765.14,217.508 1767.38,217.284 1769.62,217.063 1771.87,216.843 1774.11,216.625 1776.35,216.409 1778.59,216.194 1780.84,215.981 1783.08,215.771 1785.32,215.562 1787.56,215.354 1789.81,215.149 1792.05,214.946 1794.29,214.744 1796.54,214.545 1798.78,214.347 1801.02,214.152 1803.26,213.958 1805.51,213.767 1807.75,213.578 1809.99,213.39 1812.24,213.205 1814.48,213.022 1816.72,212.842 1818.96,212.663 1821.21,212.487 1823.45,212.313 1825.69,212.14 1827.94,211.969 1830.18,211.8 1832.42,211.632 1834.66,211.467 1836.91,211.302 1839.15,211.139 1841.39,210.978 1843.64,210.818 1845.88,210.66 1848.12,210.503 1850.36,210.348 1852.61,210.193 1854.85,210.041 1857.09,209.889 1859.34,209.739 1861.58,209.59 1863.82,209.442 1866.06,209.295 1868.31,209.149 1870.55,209.005 1872.79,208.862 1875.03,208.719 1877.28,208.578 1879.52,208.438 1881.76,208.299 1884.01,208.161 1886.25,208.024 1888.49,207.887 1890.73,207.752 1892.98,207.618 1895.22,207.484 1897.46,207.352 1899.71,207.22 1901.95,207.089 1904.19,206.959 1906.43,206.83 1908.68,206.702 1910.92,206.575 1913.16,206.448 1915.41,206.322 1917.65,206.197 1919.89,206.073 1922.13,205.949 1924.38,205.827 1926.62,205.705 1928.86,205.583 1931.11,205.463 1933.35,205.343 1935.59,205.224 1937.83,205.106 1940.08,204.989 1942.32,204.872 1944.56,204.756 1946.81,204.641 1949.05,204.527 1951.29,204.413 1953.53,204.301 1955.78,204.189 1958.02,204.077 1960.26,203.967 1962.5,203.857 1964.75,203.749 1966.99,203.641 1969.23,203.534 1971.48,203.427 1973.72,203.322 1975.96,203.218 1978.2,203.114 1980.45,203.011 1982.69,202.909 1984.93,202.809 1987.18,202.709 1989.42,202.61 1991.66,202.512 1993.9,202.415 1996.15,202.319 1998.39,202.224 2000.63,202.131 2002.88,202.038 2005.12,201.946 2007.36,201.856 2009.6,201.767 2011.85,201.679 2014.09,201.592 2016.33,201.507 2018.58,201.423 2020.82,201.34 2023.06,201.258 2025.3,201.178 2027.55,201.099 2029.79,201.022 2032.03,200.945 2034.28,200.869 2036.52,200.795 2038.76,200.722 2041,200.649 2043.25,200.577 2045.49,200.507 2047.73,200.437 2049.97,200.368 2052.22,200.299 2054.46,200.232 2056.7,200.165 2058.95,200.099 2061.19,200.033 2063.43,199.968 2065.67,199.904 2067.92,199.84 2070.16,199.777 2072.4,199.714 2074.65,199.652 2076.89,199.59 2079.13,199.529 2081.37,199.468 2083.62,199.407 2085.86,199.347 2088.1,199.288 2090.35,199.228 2092.59,199.169 2094.83,199.11 2097.07,199.052 2099.32,198.994 2101.56,198.936 2103.8,198.878 2106.05,198.821 2108.29,198.764 2110.53,198.707 2112.77,198.65 2115.02,198.593 2117.26,198.537 2119.5,198.481 2121.75,198.425 2123.99,198.369 2126.23,198.313 2128.47,198.258 2130.72,198.202 2132.96,198.147 2135.2,198.092 2137.45,198.037 2139.69,197.982 2141.93,197.927 2144.17,197.872 2146.42,197.818 2148.66,197.764 2150.9,197.709 2153.14,197.655 2155.39,197.602 2157.63,197.548 2159.87,197.494 2162.12,197.441 2164.36,197.388 2166.6,197.335 2168.84,197.282 2171.09,197.23 2173.33,197.177 2175.57,197.125 2177.82,197.073 2180.06,197.022 2182.3,196.97 2184.54,196.919 2186.79,196.869 2189.03,196.818 2191.27,196.768 2193.52,196.718 2195.76,196.669 2198,196.62 2200.24,196.572 2202.49,196.524 2204.73,196.476 2206.97,196.429 2209.22,196.382 2211.46,196.336 2213.7,196.291 2215.94,196.246 2218.19,196.202 2220.43,196.158 2222.67,196.115 2224.92,196.073 2227.16,196.032 2229.4,195.991 2231.64,195.951 2233.89,195.912 2236.13,195.874 2238.37,195.836 2240.61,195.8 2242.86,195.765 2245.1,195.73 2247.34,195.697 2249.59,195.665 2251.83,195.634 2254.07,195.604 2256.31,195.574 2258.56,195.545 2260.8,195.516 2263.04,195.487 2265.29,195.458 2267.53,195.43 2269.77,195.401 2272.01,195.373 2274.26,195.345 2276.5,195.317 2278.74,195.289 2280.99,195.261 2283.23,195.234 2285.47,195.207 2287.71,195.18 2289.96,195.153 2292.2,195.126 2294.44,195.099 2296.69,195.073 2298.93,195.046 2301.17,195.02 2303.41,194.994 2305.66,194.969 2307.9,194.943 2310.14,194.917 2312.39,194.892 2314.63,194.867 2316.87,194.842 2319.11,194.817 2321.36,194.793 2323.6,194.768 2325.84,194.744 2328.08,194.72 2330.33,194.696 2332.57,194.672 2334.81,194.649 2337.06,194.625 2339.3,194.602 2341.54,194.579 2343.78,194.556 2346.03,194.534 2348.27,194.511 2350.51,194.489 2352.76,194.467 "/>
<circle clip-path="url(#clip121)" cx="112.177" cy="840.177" r="21.6" fill="#009af9" fill-rule="evenodd" fill-opacity="0.7" stroke="#000000" stroke-opacity="0.7" stroke-width="3.2"/>
<circle clip-path="url(#clip121)" cx="230.102" cy="1135.7" r="21.6" fill="#009af9" fill-rule="evenodd" fill-opacity="0.7" stroke="#000000" stroke-opacity="0.7" stroke-width="3.2"/>
<circle clip-path="url(#clip121)" cx="348.028" cy="1059.29" r="21.6" fill="#009af9" fill-rule="evenodd" fill-opacity="0.7" stroke="#000000" stroke-opacity="0.7" stroke-width="3.2"/>
<circle clip-path="url(#clip121)" cx="465.953" cy="1055.73" r="21.6" fill="#009af9" fill-rule="evenodd" fill-opacity="0.7" stroke="#000000" stroke-opacity="0.7" stroke-width="3.2"/>
<circle clip-path="url(#clip121)" cx="583.878" cy="1002.11" r="21.6" fill="#009af9" fill-rule="evenodd" fill-opacity="0.7" stroke="#000000" stroke-opacity="0.7" stroke-width="3.2"/>
<circle clip-path="url(#clip121)" cx="701.803" cy="1000.64" r="21.6" fill="#009af9" fill-rule="evenodd" fill-opacity="0.7" stroke="#000000" stroke-opacity="0.7" stroke-width="3.2"/>
<circle clip-path="url(#clip121)" cx="819.728" cy="915.22" r="21.6" fill="#009af9" fill-rule="evenodd" fill-opacity="0.7" stroke="#000000" stroke-opacity="0.7" stroke-width="3.2"/>
<circle clip-path="url(#clip121)" cx="937.654" cy="879.86" r="21.6" fill="#009af9" fill-rule="evenodd" fill-opacity="0.7" stroke="#000000" stroke-opacity="0.7" stroke-width="3.2"/>
<circle clip-path="url(#clip121)" cx="1055.58" cy="979.899" r="21.6" fill="#009af9" fill-rule="evenodd" fill-opacity="0.7" stroke="#000000" stroke-opacity="0.7" stroke-width="3.2"/>
<circle clip-path="url(#clip121)" cx="1173.5" cy="896.266" r="21.6" fill="#009af9" fill-rule="evenodd" fill-opacity="0.7" stroke="#000000" stroke-opacity="0.7" stroke-width="3.2"/>
<circle clip-path="url(#clip121)" cx="1291.43" cy="935.664" r="21.6" fill="#009af9" fill-rule="evenodd" fill-opacity="0.7" stroke="#000000" stroke-opacity="0.7" stroke-width="3.2"/>
<circle clip-path="url(#clip121)" cx="1409.35" cy="730.525" r="21.6" fill="#009af9" fill-rule="evenodd" fill-opacity="0.7" stroke="#000000" stroke-opacity="0.7" stroke-width="3.2"/>
<circle clip-path="url(#clip121)" cx="1527.28" cy="941.222" r="21.6" fill="#009af9" fill-rule="evenodd" fill-opacity="0.7" stroke="#000000" stroke-opacity="0.7" stroke-width="3.2"/>
<circle clip-path="url(#clip121)" cx="1645.2" cy="935.077" r="21.6" fill="#009af9" fill-rule="evenodd" fill-opacity="0.7" stroke="#000000" stroke-opacity="0.7" stroke-width="3.2"/>
<circle clip-path="url(#clip121)" cx="1763.13" cy="912.152" r="21.6" fill="#009af9" fill-rule="evenodd" fill-opacity="0.7" stroke="#000000" stroke-opacity="0.7" stroke-width="3.2"/>
<circle clip-path="url(#clip121)" cx="1881.06" cy="803.697" r="21.6" fill="#009af9" fill-rule="evenodd" fill-opacity="0.7" stroke="#000000" stroke-opacity="0.7" stroke-width="3.2"/>
<circle clip-path="url(#clip121)" cx="1998.98" cy="702.81" r="21.6" fill="#009af9" fill-rule="evenodd" fill-opacity="0.7" stroke="#000000" stroke-opacity="0.7" stroke-width="3.2"/>
<circle clip-path="url(#clip121)" cx="2116.91" cy="775.303" r="21.6" fill="#009af9" fill-rule="evenodd" fill-opacity="0.7" stroke="#000000" stroke-opacity="0.7" stroke-width="3.2"/>
<circle clip-path="url(#clip121)" cx="2234.83" cy="900.324" r="21.6" fill="#009af9" fill-rule="evenodd" fill-opacity="0.7" stroke="#000000" stroke-opacity="0.7" stroke-width="3.2"/>
<circle clip-path="url(#clip121)" cx="2352.76" cy="912.333" r="21.6" fill="#009af9" fill-rule="evenodd" fill-opacity="0.7" stroke="#000000" stroke-opacity="0.7" stroke-width="3.2"/>
<circle clip-path="url(#clip121)" cx="112.177" cy="1384.24" r="21.6" fill="#e26f46" fill-rule="evenodd" fill-opacity="0.7" stroke="#000000" stroke-opacity="0.7" stroke-width="3.2"/>
<circle clip-path="url(#clip121)" cx="230.102" cy="792.218" r="21.6" fill="#e26f46" fill-rule="evenodd" fill-opacity="0.7" stroke="#000000" stroke-opacity="0.7" stroke-width="3.2"/>
<circle clip-path="url(#clip121)" cx="348.028" cy="916.094" r="21.6" fill="#e26f46" fill-rule="evenodd" fill-opacity="0.7" stroke="#000000" stroke-opacity="0.7" stroke-width="3.2"/>
<circle clip-path="url(#clip121)" cx="465.953" cy="874.615" r="21.6" fill="#e26f46" fill-rule="evenodd" fill-opacity="0.7" stroke="#000000" stroke-opacity="0.7" stroke-width="3.2"/>
<circle clip-path="url(#clip121)" cx="583.878" cy="843.377" r="21.6" fill="#e26f46" fill-rule="evenodd" fill-opacity="0.7" stroke="#000000" stroke-opacity="0.7" stroke-width="3.2"/>
<circle clip-path="url(#clip121)" cx="701.803" cy="625.811" r="21.6" fill="#e26f46" fill-rule="evenodd" fill-opacity="0.7" stroke="#000000" stroke-opacity="0.7" stroke-width="3.2"/>
<circle clip-path="url(#clip121)" cx="819.728" cy="471.418" r="21.6" fill="#e26f46" fill-rule="evenodd" fill-opacity="0.7" stroke="#000000" stroke-opacity="0.7" stroke-width="3.2"/>
<circle clip-path="url(#clip121)" cx="937.654" cy="427.679" r="21.6" fill="#e26f46" fill-rule="evenodd" fill-opacity="0.7" stroke="#000000" stroke-opacity="0.7" stroke-width="3.2"/>
<circle clip-path="url(#clip121)" cx="1055.58" cy="364.159" r="21.6" fill="#e26f46" fill-rule="evenodd" fill-opacity="0.7" stroke="#000000" stroke-opacity="0.7" stroke-width="3.2"/>
<circle clip-path="url(#clip121)" cx="1173.5" cy="426.627" r="21.6" fill="#e26f46" fill-rule="evenodd" fill-opacity="0.7" stroke="#000000" stroke-opacity="0.7" stroke-width="3.2"/>
<circle clip-path="url(#clip121)" cx="1291.43" cy="146.929" r="21.6" fill="#e26f46" fill-rule="evenodd" fill-opacity="0.7" stroke="#000000" stroke-opacity="0.7" stroke-width="3.2"/>
<circle clip-path="url(#clip121)" cx="1409.35" cy="319.507" r="21.6" fill="#e26f46" fill-rule="evenodd" fill-opacity="0.7" stroke="#000000" stroke-opacity="0.7" stroke-width="3.2"/>
<circle clip-path="url(#clip121)" cx="1527.28" cy="455.106" r="21.6" fill="#e26f46" fill-rule="evenodd" fill-opacity="0.7" stroke="#000000" stroke-opacity="0.7" stroke-width="3.2"/>
<circle clip-path="url(#clip121)" cx="1645.2" cy="259.209" r="21.6" fill="#e26f46" fill-rule="evenodd" fill-opacity="0.7" stroke="#000000" stroke-opacity="0.7" stroke-width="3.2"/>
<circle clip-path="url(#clip121)" cx="1763.13" cy="330.497" r="21.6" fill="#e26f46" fill-rule="evenodd" fill-opacity="0.7" stroke="#000000" stroke-opacity="0.7" stroke-width="3.2"/>
<circle clip-path="url(#clip121)" cx="1881.06" cy="341.835" r="21.6" fill="#e26f46" fill-rule="evenodd" fill-opacity="0.7" stroke="#000000" stroke-opacity="0.7" stroke-width="3.2"/>
<circle clip-path="url(#clip121)" cx="1998.98" cy="86.1857" r="21.6" fill="#e26f46" fill-rule="evenodd" fill-opacity="0.7" stroke="#000000" stroke-opacity="0.7" stroke-width="3.2"/>
<circle clip-path="url(#clip121)" cx="2116.91" cy="180.666" r="21.6" fill="#e26f46" fill-rule="evenodd" fill-opacity="0.7" stroke="#000000" stroke-opacity="0.7" stroke-width="3.2"/>
<circle clip-path="url(#clip121)" cx="2234.83" cy="249.845" r="21.6" fill="#e26f46" fill-rule="evenodd" fill-opacity="0.7" stroke="#000000" stroke-opacity="0.7" stroke-width="3.2"/>
<circle clip-path="url(#clip121)" cx="2352.76" cy="247.8" r="21.6" fill="#e26f46" fill-rule="evenodd" fill-opacity="0.7" stroke="#000000" stroke-opacity="0.7" stroke-width="3.2"/>
<path clip-path="url(#clip120)" d="M186.863 352.309 L596.753 352.309 L596.753 93.1086 L186.863 93.1086  Z" fill="#ffffff" fill-rule="evenodd" fill-opacity="1"/>
<polyline clip-path="url(#clip120)" style="stroke:#000000; stroke-linecap:round; stroke-linejoin:round; stroke-width:4; stroke-opacity:1; fill:none" points="186.863,352.309 596.753,352.309 596.753,93.1086 186.863,93.1086 186.863,352.309 "/>
<polyline clip-path="url(#clip120)" style="stroke:#009af9; stroke-linecap:round; stroke-linejoin:round; stroke-width:20; stroke-opacity:1; fill:none" points="211.758,144.949 361.13,144.949 "/>
<path clip-path="url(#clip120)" d="M387.6 127.669 L392.623 127.669 L401.211 140.516 L409.845 127.669 L414.868 127.669 L403.757 144.266 L415.609 162.229 L410.586 162.229 L400.864 147.53 L391.072 162.229 L386.026 162.229 L398.364 143.78 L387.6 127.669 Z" fill="#000000" fill-rule="nonzero" fill-opacity="1" /><polyline clip-path="url(#clip120)" style="stroke:#e26f46; stroke-linecap:round; stroke-linejoin:round; stroke-width:20; stroke-opacity:1; fill:none" points="211.758,196.789 361.13,196.789 "/>
<path clip-path="url(#clip120)" d="M386.026 179.509 L391.049 179.509 L400.632 193.722 L410.146 179.509 L415.169 179.509 L402.947 197.61 L402.947 214.069 L398.248 214.069 L398.248 197.61 L386.026 179.509 Z" fill="#000000" fill-rule="nonzero" fill-opacity="1" /><circle clip-path="url(#clip120)" cx="286.444" cy="248.629" r="21.2677" fill="#009af9" fill-rule="evenodd" fill-opacity="0.7" stroke="#000000" stroke-opacity="0.7" stroke-width="3.15077"/>
<path clip-path="url(#clip120)" d="M387.6 231.349 L392.623 231.349 L401.211 244.196 L409.845 231.349 L414.868 231.349 L403.757 247.946 L415.609 265.909 L410.586 265.909 L400.864 251.21 L391.072 265.909 L386.026 265.909 L398.364 247.46 L387.6 231.349 Z" fill="#000000" fill-rule="nonzero" fill-opacity="1" /><path clip-path="url(#clip120)" d="M446.859 229.937 Q443.757 235.261 442.252 240.469 Q440.748 245.677 440.748 251.024 Q440.748 256.372 442.252 261.626 Q443.78 266.858 446.859 272.159 L443.155 272.159 Q439.683 266.719 437.947 261.464 Q436.234 256.21 436.234 251.024 Q436.234 245.862 437.947 240.631 Q439.66 235.4 443.155 229.937 L446.859 229.937 Z" fill="#000000" fill-rule="nonzero" fill-opacity="1" /><path clip-path="url(#clip120)" d="M472.183 243.918 L472.183 229.89 L476.442 229.89 L476.442 265.909 L472.183 265.909 L472.183 262.02 Q470.84 264.335 468.78 265.469 Q466.743 266.58 463.872 266.58 Q459.173 266.58 456.21 262.83 Q453.271 259.08 453.271 252.969 Q453.271 246.858 456.21 243.108 Q459.173 239.358 463.872 239.358 Q466.743 239.358 468.78 240.492 Q470.84 241.603 472.183 243.918 M457.669 252.969 Q457.669 257.668 459.59 260.353 Q461.535 263.015 464.914 263.015 Q468.294 263.015 470.238 260.353 Q472.183 257.668 472.183 252.969 Q472.183 248.27 470.238 245.608 Q468.294 242.923 464.914 242.923 Q461.535 242.923 459.59 245.608 Q457.669 248.27 457.669 252.969 Z" fill="#000000" fill-rule="nonzero" fill-opacity="1" /><path clip-path="url(#clip120)" d="M496.997 252.876 Q491.835 252.876 489.845 254.057 Q487.854 255.237 487.854 258.085 Q487.854 260.353 489.335 261.696 Q490.84 263.015 493.409 263.015 Q496.951 263.015 499.081 260.515 Q501.233 257.992 501.233 253.825 L501.233 252.876 L496.997 252.876 M505.493 251.117 L505.493 265.909 L501.233 265.909 L501.233 261.973 Q499.775 264.335 497.599 265.469 Q495.423 266.58 492.275 266.58 Q488.294 266.58 485.933 264.358 Q483.595 262.112 483.595 258.362 Q483.595 253.987 486.511 251.765 Q489.451 249.543 495.261 249.543 L501.233 249.543 L501.233 249.126 Q501.233 246.187 499.289 244.589 Q497.368 242.969 493.872 242.969 Q491.65 242.969 489.544 243.501 Q487.437 244.034 485.493 245.099 L485.493 241.163 Q487.831 240.261 490.03 239.821 Q492.229 239.358 494.312 239.358 Q499.937 239.358 502.715 242.274 Q505.493 245.191 505.493 251.117 Z" fill="#000000" fill-rule="nonzero" fill-opacity="1" /><path clip-path="url(#clip120)" d="M518.479 232.622 L518.479 239.983 L527.252 239.983 L527.252 243.293 L518.479 243.293 L518.479 257.367 Q518.479 260.538 519.335 261.441 Q520.215 262.344 522.877 262.344 L527.252 262.344 L527.252 265.909 L522.877 265.909 Q517.946 265.909 516.071 264.08 Q514.196 262.228 514.196 257.367 L514.196 243.293 L511.071 243.293 L511.071 239.983 L514.196 239.983 L514.196 232.622 L518.479 232.622 Z" fill="#000000" fill-rule="nonzero" fill-opacity="1" /><path clip-path="url(#clip120)" d="M544.636 252.876 Q539.474 252.876 537.483 254.057 Q535.492 255.237 535.492 258.085 Q535.492 260.353 536.974 261.696 Q538.479 263.015 541.048 263.015 Q544.59 263.015 546.719 260.515 Q548.872 257.992 548.872 253.825 L548.872 252.876 L544.636 252.876 M553.131 251.117 L553.131 265.909 L548.872 265.909 L548.872 261.973 Q547.414 264.335 545.238 265.469 Q543.062 266.58 539.914 266.58 Q535.932 266.58 533.571 264.358 Q531.233 262.112 531.233 258.362 Q531.233 253.987 534.15 251.765 Q537.09 249.543 542.9 249.543 L548.872 249.543 L548.872 249.126 Q548.872 246.187 546.928 244.589 Q545.006 242.969 541.511 242.969 Q539.289 242.969 537.182 243.501 Q535.076 244.034 533.131 245.099 L533.131 241.163 Q535.469 240.261 537.668 239.821 Q539.867 239.358 541.951 239.358 Q547.576 239.358 550.354 242.274 Q553.131 245.191 553.131 251.117 Z" fill="#000000" fill-rule="nonzero" fill-opacity="1" /><path clip-path="url(#clip120)" d="M561.233 229.937 L564.937 229.937 Q568.409 235.4 570.122 240.631 Q571.858 245.862 571.858 251.024 Q571.858 256.21 570.122 261.464 Q568.409 266.719 564.937 272.159 L561.233 272.159 Q564.312 266.858 565.816 261.626 Q567.344 256.372 567.344 251.024 Q567.344 245.677 565.816 240.469 Q564.312 235.261 561.233 229.937 Z" fill="#000000" fill-rule="nonzero" fill-opacity="1" /><circle clip-path="url(#clip120)" cx="286.444" cy="300.469" r="21.2677" fill="#e26f46" fill-rule="evenodd" fill-opacity="0.7" stroke="#000000" stroke-opacity="0.7" stroke-width="3.15077"/>
<path clip-path="url(#clip120)" d="M386.026 283.189 L391.049 283.189 L400.632 297.402 L410.146 283.189 L415.169 283.189 L402.947 301.29 L402.947 317.749 L398.248 317.749 L398.248 301.29 L386.026 283.189 Z" fill="#000000" fill-rule="nonzero" fill-opacity="1" /><path clip-path="url(#clip120)" d="M444.845 281.777 Q441.743 287.101 440.238 292.309 Q438.734 297.517 438.734 302.864 Q438.734 308.212 440.238 313.466 Q441.766 318.698 444.845 323.999 L441.141 323.999 Q437.669 318.559 435.933 313.304 Q434.22 308.05 434.22 302.864 Q434.22 297.702 435.933 292.471 Q437.646 287.24 441.141 281.777 L444.845 281.777 Z" fill="#000000" fill-rule="nonzero" fill-opacity="1" /><path clip-path="url(#clip120)" d="M470.169 295.758 L470.169 281.73 L474.428 281.73 L474.428 317.749 L470.169 317.749 L470.169 313.86 Q468.826 316.175 466.766 317.309 Q464.729 318.42 461.859 318.42 Q457.16 318.42 454.197 314.67 Q451.257 310.92 451.257 304.809 Q451.257 298.698 454.197 294.948 Q457.16 291.198 461.859 291.198 Q464.729 291.198 466.766 292.332 Q468.826 293.443 470.169 295.758 M455.655 304.809 Q455.655 309.508 457.576 312.193 Q459.521 314.855 462.9 314.855 Q466.28 314.855 468.224 312.193 Q470.169 309.508 470.169 304.809 Q470.169 300.11 468.224 297.448 Q466.28 294.763 462.9 294.763 Q459.521 294.763 457.576 297.448 Q455.655 300.11 455.655 304.809 Z" fill="#000000" fill-rule="nonzero" fill-opacity="1" /><path clip-path="url(#clip120)" d="M494.983 304.716 Q489.821 304.716 487.831 305.897 Q485.84 307.077 485.84 309.925 Q485.84 312.193 487.321 313.536 Q488.826 314.855 491.395 314.855 Q494.937 314.855 497.067 312.355 Q499.22 309.832 499.22 305.665 L499.22 304.716 L494.983 304.716 M503.479 302.957 L503.479 317.749 L499.22 317.749 L499.22 313.813 Q497.761 316.175 495.585 317.309 Q493.409 318.42 490.261 318.42 Q486.28 318.42 483.919 316.198 Q481.581 313.952 481.581 310.202 Q481.581 305.827 484.497 303.605 Q487.437 301.383 493.247 301.383 L499.22 301.383 L499.22 300.966 Q499.22 298.027 497.275 296.429 Q495.354 294.809 491.858 294.809 Q489.636 294.809 487.53 295.341 Q485.423 295.874 483.479 296.939 L483.479 293.003 Q485.817 292.101 488.016 291.661 Q490.215 291.198 492.298 291.198 Q497.923 291.198 500.701 294.114 Q503.479 297.031 503.479 302.957 Z" fill="#000000" fill-rule="nonzero" fill-opacity="1" /><path clip-path="url(#clip120)" d="M516.465 284.462 L516.465 291.823 L525.238 291.823 L525.238 295.133 L516.465 295.133 L516.465 309.207 Q516.465 312.378 517.321 313.281 Q518.201 314.184 520.863 314.184 L525.238 314.184 L525.238 317.749 L520.863 317.749 Q515.932 317.749 514.057 315.92 Q512.182 314.068 512.182 309.207 L512.182 295.133 L509.057 295.133 L509.057 291.823 L512.182 291.823 L512.182 284.462 L516.465 284.462 Z" fill="#000000" fill-rule="nonzero" fill-opacity="1" /><path clip-path="url(#clip120)" d="M542.622 304.716 Q537.46 304.716 535.469 305.897 Q533.479 307.077 533.479 309.925 Q533.479 312.193 534.96 313.536 Q536.465 314.855 539.034 314.855 Q542.576 314.855 544.705 312.355 Q546.858 309.832 546.858 305.665 L546.858 304.716 L542.622 304.716 M551.117 302.957 L551.117 317.749 L546.858 317.749 L546.858 313.813 Q545.4 316.175 543.224 317.309 Q541.048 318.42 537.9 318.42 Q533.918 318.42 531.557 316.198 Q529.219 313.952 529.219 310.202 Q529.219 305.827 532.136 303.605 Q535.076 301.383 540.886 301.383 L546.858 301.383 L546.858 300.966 Q546.858 298.027 544.914 296.429 Q542.992 294.809 539.497 294.809 Q537.275 294.809 535.168 295.341 Q533.062 295.874 531.118 296.939 L531.118 293.003 Q533.455 292.101 535.655 291.661 Q537.854 291.198 539.937 291.198 Q545.562 291.198 548.34 294.114 Q551.117 297.031 551.117 302.957 Z" fill="#000000" fill-rule="nonzero" fill-opacity="1" /><path clip-path="url(#clip120)" d="M559.219 281.777 L562.923 281.777 Q566.395 287.24 568.108 292.471 Q569.844 297.702 569.844 302.864 Q569.844 308.05 568.108 313.304 Q566.395 318.559 562.923 323.999 L559.219 323.999 Q562.298 318.698 563.803 313.466 Q565.33 308.212 565.33 302.864 Q565.33 297.517 563.803 292.309 Q562.298 287.101 559.219 281.777 Z" fill="#000000" fill-rule="nonzero" fill-opacity="1" /></svg>
