<?xml version="1.0" encoding="utf-8"?>
<svg xmlns="http://www.w3.org/2000/svg" xmlns:xlink="http://www.w3.org/1999/xlink" width="600" height="400" viewBox="0 0 2400 1600">
<defs>
  <clipPath id="clip570">
    <rect x="0" y="0" width="2400" height="1600"/>
  </clipPath>
</defs>
<path clip-path="url(#clip570)" d="M0 1600 L2400 1600 L2400 0 L0 0  Z" fill="#ffffff" fill-rule="evenodd" fill-opacity="1"/>
<defs>
  <clipPath id="clip571">
    <rect x="112" y="47" width="2242" height="1377"/>
  </clipPath>
</defs>
<path clip-path="url(#clip570)" d="M112.177 1423.18 L2352.76 1423.18 L2352.76 47.2441 L112.177 47.2441  Z" fill="#ffffff" fill-rule="evenodd" fill-opacity="1"/>
<polyline clip-path="url(#clip571)" style="stroke:#000000; stroke-linecap:round; stroke-linejoin:round; stroke-width:2; stroke-opacity:0.1; fill:none" points="112.177,1423.18 112.177,47.2441 "/>
<polyline clip-path="url(#clip571)" style="stroke:#000000; stroke-linecap:round; stroke-linejoin:round; stroke-width:2; stroke-opacity:0.1; fill:none" points="610.084,1423.18 610.084,47.2441 "/>
<polyline clip-path="url(#clip571)" style="stroke:#000000; stroke-linecap:round; stroke-linejoin:round; stroke-width:2; stroke-opacity:0.1; fill:none" points="1107.99,1423.18 1107.99,47.2441 "/>
<polyline clip-path="url(#clip571)" style="stroke:#000000; stroke-linecap:round; stroke-linejoin:round; stroke-width:2; stroke-opacity:0.1; fill:none" points="1605.9,1423.18 1605.9,47.2441 "/>
<polyline clip-path="url(#clip571)" style="stroke:#000000; stroke-linecap:round; stroke-linejoin:round; stroke-width:2; stroke-opacity:0.1; fill:none" points="2103.8,1423.18 2103.8,47.2441 "/>
<polyline clip-path="url(#clip571)" style="stroke:#000000; stroke-linecap:round; stroke-linejoin:round; stroke-width:2; stroke-opacity:0.1; fill:none" points="112.177,1414.16 2352.76,1414.16 "/>
<polyline clip-path="url(#clip571)" style="stroke:#000000; stroke-linecap:round; stroke-linejoin:round; stroke-width:2; stroke-opacity:0.1; fill:none" points="112.177,1097.86 2352.76,1097.86 "/>
<polyline clip-path="url(#clip571)" style="stroke:#000000; stroke-linecap:round; stroke-linejoin:round; stroke-width:2; stroke-opacity:0.1; fill:none" points="112.177,781.565 2352.76,781.565 "/>
<polyline clip-path="url(#clip571)" style="stroke:#000000; stroke-linecap:round; stroke-linejoin:round; stroke-width:2; stroke-opacity:0.1; fill:none" points="112.177,465.27 2352.76,465.27 "/>
<polyline clip-path="url(#clip571)" style="stroke:#000000; stroke-linecap:round; stroke-linejoin:round; stroke-width:2; stroke-opacity:0.1; fill:none" points="112.177,148.974 2352.76,148.974 "/>
<polyline clip-path="url(#clip570)" style="stroke:#000000; stroke-linecap:round; stroke-linejoin:round; stroke-width:4; stroke-opacity:1; fill:none" points="112.177,1423.18 2352.76,1423.18 "/>
<polyline clip-path="url(#clip570)" style="stroke:#000000; stroke-linecap:round; stroke-linejoin:round; stroke-width:4; stroke-opacity:1; fill:none" points="112.177,1423.18 112.177,1404.28 "/>
<polyline clip-path="url(#clip570)" style="stroke:#000000; stroke-linecap:round; stroke-linejoin:round; stroke-width:4; stroke-opacity:1; fill:none" points="610.084,1423.18 610.084,1404.28 "/>
<polyline clip-path="url(#clip570)" style="stroke:#000000; stroke-linecap:round; stroke-linejoin:round; stroke-width:4; stroke-opacity:1; fill:none" points="1107.99,1423.18 1107.99,1404.28 "/>
<polyline clip-path="url(#clip570)" style="stroke:#000000; stroke-linecap:round; stroke-linejoin:round; stroke-width:4; stroke-opacity:1; fill:none" points="1605.9,1423.18 1605.9,1404.28 "/>
<polyline clip-path="url(#clip570)" style="stroke:#000000; stroke-linecap:round; stroke-linejoin:round; stroke-width:4; stroke-opacity:1; fill:none" points="2103.8,1423.18 2103.8,1404.28 "/>
<path clip-path="url(#clip570)" d="M112.177 1454.1 Q108.566 1454.1 106.737 1457.66 Q104.932 1461.2 104.932 1468.33 Q104.932 1475.44 106.737 1479.01 Q108.566 1482.55 112.177 1482.55 Q115.811 1482.55 117.617 1479.01 Q119.446 1475.44 119.446 1468.33 Q119.446 1461.2 117.617 1457.66 Q115.811 1454.1 112.177 1454.1 M112.177 1450.39 Q117.987 1450.39 121.043 1455 Q124.122 1459.58 124.122 1468.33 Q124.122 1477.06 121.043 1481.67 Q117.987 1486.25 112.177 1486.25 Q106.367 1486.25 103.288 1481.67 Q100.233 1477.06 100.233 1468.33 Q100.233 1459.58 103.288 1455 Q106.367 1450.39 112.177 1450.39 Z" fill="#000000" fill-rule="nonzero" fill-opacity="1" /><path clip-path="url(#clip570)" d="M584.771 1481.64 L592.41 1481.64 L592.41 1455.28 L584.1 1456.95 L584.1 1452.69 L592.364 1451.02 L597.04 1451.02 L597.04 1481.64 L604.678 1481.64 L604.678 1485.58 L584.771 1485.58 L584.771 1481.64 Z" fill="#000000" fill-rule="nonzero" fill-opacity="1" /><path clip-path="url(#clip570)" d="M624.123 1454.1 Q620.512 1454.1 618.683 1457.66 Q616.878 1461.2 616.878 1468.33 Q616.878 1475.44 618.683 1479.01 Q620.512 1482.55 624.123 1482.55 Q627.757 1482.55 629.563 1479.01 Q631.391 1475.44 631.391 1468.33 Q631.391 1461.2 629.563 1457.66 Q627.757 1454.1 624.123 1454.1 M624.123 1450.39 Q629.933 1450.39 632.989 1455 Q636.067 1459.58 636.067 1468.33 Q636.067 1477.06 632.989 1481.67 Q629.933 1486.25 624.123 1486.25 Q618.313 1486.25 615.234 1481.67 Q612.178 1477.06 612.178 1468.33 Q612.178 1459.58 615.234 1455 Q618.313 1450.39 624.123 1450.39 Z" fill="#000000" fill-rule="nonzero" fill-opacity="1" /><path clip-path="url(#clip570)" d="M1086.76 1481.64 L1103.08 1481.64 L1103.08 1485.58 L1081.14 1485.58 L1081.14 1481.64 Q1083.8 1478.89 1088.38 1474.26 Q1092.99 1469.61 1094.17 1468.27 Q1096.42 1465.74 1097.3 1464.01 Q1098.2 1462.25 1098.2 1460.56 Q1098.2 1457.8 1096.25 1456.07 Q1094.33 1454.33 1091.23 1454.33 Q1089.03 1454.33 1086.58 1455.09 Q1084.15 1455.86 1081.37 1457.41 L1081.37 1452.69 Q1084.19 1451.55 1086.65 1450.97 Q1089.1 1450.39 1091.14 1450.39 Q1096.51 1450.39 1099.7 1453.08 Q1102.9 1455.77 1102.9 1460.26 Q1102.9 1462.39 1102.09 1464.31 Q1101.3 1466.2 1099.19 1468.8 Q1098.61 1469.47 1095.51 1472.69 Q1092.41 1475.88 1086.76 1481.64 Z" fill="#000000" fill-rule="nonzero" fill-opacity="1" /><path clip-path="url(#clip570)" d="M1122.9 1454.1 Q1119.29 1454.1 1117.46 1457.66 Q1115.65 1461.2 1115.65 1468.33 Q1115.65 1475.44 1117.46 1479.01 Q1119.29 1482.55 1122.9 1482.55 Q1126.53 1482.55 1128.34 1479.01 Q1130.17 1475.44 1130.17 1468.33 Q1130.17 1461.2 1128.34 1457.66 Q1126.53 1454.1 1122.9 1454.1 M1122.9 1450.39 Q1128.71 1450.39 1131.76 1455 Q1134.84 1459.58 1134.84 1468.33 Q1134.84 1477.06 1131.76 1481.67 Q1128.71 1486.25 1122.9 1486.25 Q1117.09 1486.25 1114.01 1481.67 Q1110.95 1477.06 1110.95 1468.33 Q1110.95 1459.58 1114.01 1455 Q1117.09 1450.39 1122.9 1450.39 Z" fill="#000000" fill-rule="nonzero" fill-opacity="1" /><path clip-path="url(#clip570)" d="M1594.74 1466.95 Q1598.1 1467.66 1599.97 1469.93 Q1601.87 1472.2 1601.87 1475.53 Q1601.87 1480.65 1598.35 1483.45 Q1594.83 1486.25 1588.35 1486.25 Q1586.17 1486.25 1583.86 1485.81 Q1581.57 1485.39 1579.11 1484.54 L1579.11 1480.02 Q1581.06 1481.16 1583.37 1481.74 Q1585.69 1482.32 1588.21 1482.32 Q1592.61 1482.32 1594.9 1480.58 Q1597.22 1478.84 1597.22 1475.53 Q1597.22 1472.48 1595.06 1470.77 Q1592.93 1469.03 1589.11 1469.03 L1585.09 1469.03 L1585.09 1465.19 L1589.3 1465.19 Q1592.75 1465.19 1594.58 1463.82 Q1596.41 1462.43 1596.41 1459.84 Q1596.41 1457.18 1594.51 1455.77 Q1592.63 1454.33 1589.11 1454.33 Q1587.19 1454.33 1584.99 1454.75 Q1582.79 1455.16 1580.16 1456.04 L1580.16 1451.88 Q1582.82 1451.14 1585.13 1450.77 Q1587.47 1450.39 1589.53 1450.39 Q1594.85 1450.39 1597.96 1452.83 Q1601.06 1455.23 1601.06 1459.35 Q1601.06 1462.22 1599.41 1464.21 Q1597.77 1466.18 1594.74 1466.95 Z" fill="#000000" fill-rule="nonzero" fill-opacity="1" /><path clip-path="url(#clip570)" d="M1620.73 1454.1 Q1617.12 1454.1 1615.29 1457.66 Q1613.49 1461.2 1613.49 1468.33 Q1613.49 1475.44 1615.29 1479.01 Q1617.12 1482.55 1620.73 1482.55 Q1624.37 1482.55 1626.17 1479.01 Q1628 1475.44 1628 1468.33 Q1628 1461.2 1626.17 1457.66 Q1624.37 1454.1 1620.73 1454.1 M1620.73 1450.39 Q1626.54 1450.39 1629.6 1455 Q1632.68 1459.58 1632.68 1468.33 Q1632.68 1477.06 1629.6 1481.67 Q1626.54 1486.25 1620.73 1486.25 Q1614.92 1486.25 1611.85 1481.67 Q1608.79 1477.06 1608.79 1468.33 Q1608.79 1459.58 1611.85 1455 Q1614.92 1450.39 1620.73 1450.39 Z" fill="#000000" fill-rule="nonzero" fill-opacity="1" /><path clip-path="url(#clip570)" d="M2091.97 1455.09 L2080.17 1473.54 L2091.97 1473.54 L2091.97 1455.09 M2090.75 1451.02 L2096.63 1451.02 L2096.63 1473.54 L2101.56 1473.54 L2101.56 1477.43 L2096.63 1477.43 L2096.63 1485.58 L2091.97 1485.58 L2091.97 1477.43 L2076.37 1477.43 L2076.37 1472.92 L2090.75 1451.02 Z" fill="#000000" fill-rule="nonzero" fill-opacity="1" /><path clip-path="url(#clip570)" d="M2119.29 1454.1 Q2115.68 1454.1 2113.85 1457.66 Q2112.04 1461.2 2112.04 1468.33 Q2112.04 1475.44 2113.85 1479.01 Q2115.68 1482.55 2119.29 1482.55 Q2122.92 1482.55 2124.73 1479.01 Q2126.56 1475.44 2126.56 1468.33 Q2126.56 1461.2 2124.73 1457.66 Q2122.92 1454.1 2119.29 1454.1 M2119.29 1450.39 Q2125.1 1450.39 2128.15 1455 Q2131.23 1459.58 2131.23 1468.33 Q2131.23 1477.06 2128.15 1481.67 Q2125.1 1486.25 2119.29 1486.25 Q2113.48 1486.25 2110.4 1481.67 Q2107.34 1477.06 2107.34 1468.33 Q2107.34 1459.58 2110.4 1455 Q2113.48 1450.39 2119.29 1450.39 Z" fill="#000000" fill-rule="nonzero" fill-opacity="1" /><path clip-path="url(#clip570)" d="M1231.53 1522.27 L1231.53 1532.4 L1243.59 1532.4 L1243.59 1536.95 L1231.53 1536.95 L1231.53 1556.3 Q1231.53 1560.66 1232.71 1561.9 Q1233.91 1563.14 1237.58 1563.14 L1243.59 1563.14 L1243.59 1568.04 L1237.58 1568.04 Q1230.8 1568.04 1228.22 1565.53 Q1225.64 1562.98 1225.64 1556.3 L1225.64 1536.95 L1221.34 1536.95 L1221.34 1532.4 L1225.64 1532.4 L1225.64 1522.27 L1231.53 1522.27 Z" fill="#000000" fill-rule="nonzero" fill-opacity="1" /><polyline clip-path="url(#clip570)" style="stroke:#000000; stroke-linecap:round; stroke-linejoin:round; stroke-width:4; stroke-opacity:1; fill:none" points="112.177,1423.18 112.177,47.2441 "/>
<polyline clip-path="url(#clip570)" style="stroke:#000000; stroke-linecap:round; stroke-linejoin:round; stroke-width:4; stroke-opacity:1; fill:none" points="112.177,1414.16 131.075,1414.16 "/>
<polyline clip-path="url(#clip570)" style="stroke:#000000; stroke-linecap:round; stroke-linejoin:round; stroke-width:4; stroke-opacity:1; fill:none" points="112.177,1097.86 131.075,1097.86 "/>
<polyline clip-path="url(#clip570)" style="stroke:#000000; stroke-linecap:round; stroke-linejoin:round; stroke-width:4; stroke-opacity:1; fill:none" points="112.177,781.565 131.075,781.565 "/>
<polyline clip-path="url(#clip570)" style="stroke:#000000; stroke-linecap:round; stroke-linejoin:round; stroke-width:4; stroke-opacity:1; fill:none" points="112.177,465.27 131.075,465.27 "/>
<polyline clip-path="url(#clip570)" style="stroke:#000000; stroke-linecap:round; stroke-linejoin:round; stroke-width:4; stroke-opacity:1; fill:none" points="112.177,148.974 131.075,148.974 "/>
<path clip-path="url(#clip570)" d="M64.2328 1399.95 Q60.6217 1399.95 58.793 1403.52 Q56.9875 1407.06 56.9875 1414.19 Q56.9875 1421.3 58.793 1424.86 Q60.6217 1428.4 64.2328 1428.4 Q67.867 1428.4 69.6726 1424.86 Q71.5013 1421.3 71.5013 1414.19 Q71.5013 1407.06 69.6726 1403.52 Q67.867 1399.95 64.2328 1399.95 M64.2328 1396.25 Q70.0429 1396.25 73.0985 1400.86 Q76.1772 1405.44 76.1772 1414.19 Q76.1772 1422.92 73.0985 1427.52 Q70.0429 1432.11 64.2328 1432.11 Q58.4226 1432.11 55.344 1427.52 Q52.2884 1422.92 52.2884 1414.19 Q52.2884 1405.44 55.344 1400.86 Q58.4226 1396.25 64.2328 1396.25 Z" fill="#000000" fill-rule="nonzero" fill-opacity="1" /><path clip-path="url(#clip570)" d="M56.2699 1111.21 L63.9087 1111.21 L63.9087 1084.84 L55.5986 1086.51 L55.5986 1082.25 L63.8624 1080.58 L68.5383 1080.58 L68.5383 1111.21 L76.1772 1111.21 L76.1772 1115.14 L56.2699 1115.14 L56.2699 1111.21 Z" fill="#000000" fill-rule="nonzero" fill-opacity="1" /><path clip-path="url(#clip570)" d="M59.8578 794.91 L76.1772 794.91 L76.1772 798.845 L54.2328 798.845 L54.2328 794.91 Q56.8949 792.155 61.4782 787.526 Q66.0846 782.873 67.2652 781.531 Q69.5105 779.007 70.3902 777.271 Q71.2929 775.512 71.2929 773.822 Q71.2929 771.068 69.3485 769.332 Q67.4272 767.595 64.3254 767.595 Q62.1263 767.595 59.6726 768.359 Q57.2421 769.123 54.4643 770.674 L54.4643 765.952 Q57.2884 764.818 59.7421 764.239 Q62.1958 763.66 64.2328 763.66 Q69.6031 763.66 72.7976 766.345 Q75.992 769.031 75.992 773.521 Q75.992 775.651 75.1818 777.572 Q74.3948 779.47 72.2883 782.063 Q71.7096 782.734 68.6078 785.952 Q65.5059 789.146 59.8578 794.91 Z" fill="#000000" fill-rule="nonzero" fill-opacity="1" /><path clip-path="url(#clip570)" d="M69.0476 463.916 Q72.404 464.633 74.279 466.902 Q76.1772 469.17 76.1772 472.504 Q76.1772 477.619 72.6587 480.42 Q69.1402 483.221 62.6587 483.221 Q60.4828 483.221 58.168 482.781 Q55.8764 482.365 53.4227 481.508 L53.4227 476.994 Q55.3671 478.129 57.6819 478.707 Q59.9967 479.286 62.5198 479.286 Q66.918 479.286 69.2096 477.55 Q71.5244 475.814 71.5244 472.504 Q71.5244 469.448 69.3717 467.735 Q67.242 465.999 63.4226 465.999 L59.3949 465.999 L59.3949 462.156 L63.6078 462.156 Q67.0569 462.156 68.8855 460.791 Q70.7142 459.402 70.7142 456.809 Q70.7142 454.147 68.8161 452.735 Q66.9411 451.3 63.4226 451.3 Q61.5013 451.3 59.3023 451.717 Q57.1032 452.133 54.4643 453.013 L54.4643 448.846 Q57.1264 448.106 59.4412 447.735 Q61.7791 447.365 63.8393 447.365 Q69.1633 447.365 72.2652 449.795 Q75.367 452.203 75.367 456.323 Q75.367 459.193 73.7235 461.184 Q72.08 463.152 69.0476 463.916 Z" fill="#000000" fill-rule="nonzero" fill-opacity="1" /><path clip-path="url(#clip570)" d="M66.5939 135.769 L54.7884 154.217 L66.5939 154.217 L66.5939 135.769 M65.367 131.694 L71.2466 131.694 L71.2466 154.217 L76.1772 154.217 L76.1772 158.106 L71.2466 158.106 L71.2466 166.254 L66.5939 166.254 L66.5939 158.106 L50.9921 158.106 L50.9921 153.592 L65.367 131.694 Z" fill="#000000" fill-rule="nonzero" fill-opacity="1" /><polyline clip-path="url(#clip571)" style="stroke:#009af9; stroke-linecap:round; stroke-linejoin:round; stroke-width:24; stroke-opacity:1; fill:none" points="112.177,781.565 114.42,795.647 116.663,809.399 118.906,822.81 121.148,835.87 123.391,848.565 125.634,860.883 127.877,872.812 130.12,884.34 132.363,895.46 134.605,906.166 136.848,916.456 139.091,926.328 141.334,935.786 143.577,944.832 145.819,953.475 148.062,961.722 150.305,969.582 152.548,977.066 154.791,984.185 157.034,990.953 159.276,997.381 161.519,1003.48 163.762,1009.27 166.005,1014.76 168.248,1019.97 170.491,1024.9 172.733,1029.56 174.976,1033.98 177.219,1038.17 179.462,1042.12 181.705,1045.87 183.947,1049.4 186.19,1052.75 188.433,1055.91 190.676,1058.9 192.919,1061.71 195.162,1064.38 197.404,1066.89 199.647,1069.26 201.89,1071.5 204.133,1073.61 206.376,1075.6 208.619,1077.47 210.861,1079.24 213.104,1080.9 215.347,1082.46 217.59,1083.94 219.833,1085.32 222.075,1086.62 224.318,1087.84 226.561,1088.99 228.804,1090.06 231.047,1091.07 233.29,1092.01 235.532,1092.89 237.775,1093.72 240.018,1094.49 242.261,1095.21 244.504,1095.87 246.746,1096.49 248.989,1097.07 251.232,1097.6 253.475,1098.09 255.718,1098.55 257.961,1098.97 260.203,1099.35 262.446,1099.7 264.689,1100.02 266.932,1100.31 269.175,1100.58 271.418,1100.81 273.66,1101.02 275.903,1101.21 278.146,1101.37 280.389,1101.51 282.632,1101.63 284.874,1101.72 287.117,1101.8 289.36,1101.86 291.603,1101.91 293.846,1101.93 296.089,1101.94 298.331,1101.94 300.574,1101.92 302.817,1101.89 305.06,1101.84 307.303,1101.79 309.545,1101.72 311.788,1101.63 314.031,1101.54 316.274,1101.44 318.517,1101.32 320.76,1101.2 323.002,1101.07 325.245,1100.92 327.488,1100.77 329.731,1100.61 331.974,1100.45 334.217,1100.27 336.459,1100.09 338.702,1099.9 340.945,1099.7 343.188,1099.5 345.431,1099.29 347.673,1099.08 349.916,1098.86 352.159,1098.63 354.402,1098.4 356.645,1098.16 358.888,1097.92 361.13,1097.67 363.373,1097.41 365.616,1097.16 367.859,1096.89 370.102,1096.62 372.344,1096.35 374.587,1096.07 376.83,1095.79 379.073,1095.51 381.316,1095.22 383.559,1094.92 385.801,1094.63 388.044,1094.33 390.287,1094.02 392.53,1093.71 394.773,1093.4 397.016,1093.09 399.258,1092.77 401.501,1092.45 403.744,1092.12 405.987,1091.79 408.23,1091.46 410.472,1091.12 412.715,1090.79 414.958,1090.44 417.201,1090.1 419.444,1089.75 421.687,1089.4 423.929,1089.04 426.172,1088.69 428.415,1088.33 430.658,1087.96 432.901,1087.6 435.143,1087.23 437.386,1086.85 439.629,1086.48 441.872,1086.1 444.115,1085.72 446.358,1085.33 448.6,1084.95 450.843,1084.56 453.086,1084.16 455.329,1083.77 457.572,1083.37 459.815,1082.97 462.057,1082.57 464.3,1082.16 466.543,1081.75 468.786,1081.34 471.029,1080.92 473.271,1080.51 475.514,1080.09 477.757,1079.66 480,1079.24 482.243,1078.81 484.486,1078.38 486.728,1077.94 488.971,1077.51 491.214,1077.07 493.457,1076.62 495.7,1076.18 497.942,1075.73 500.185,1075.28 502.428,1074.83 504.671,1074.37 506.914,1073.91 509.157,1073.45 511.399,1072.98 513.642,1072.52 515.885,1072.04 518.128,1071.57 520.371,1071.1 522.614,1070.62 524.856,1070.14 527.099,1069.65 529.342,1069.16 531.585,1068.67 533.828,1068.18 536.07,1067.69 538.313,1067.19 540.556,1066.69 542.799,1066.18 545.042,1065.68 547.285,1065.17 549.527,1064.66 551.77,1064.14 554.013,1063.62 556.256,1063.1 558.499,1062.58 560.741,1062.05 562.984,1061.52 565.227,1060.99 567.47,1060.46 569.713,1059.92 571.956,1059.38 574.198,1058.84 576.441,1058.29 578.684,1057.75 580.927,1057.19 583.17,1056.64 585.413,1056.08 587.655,1055.52 589.898,1054.96 592.141,1054.4 594.384,1053.83 596.627,1053.26 598.869,1052.69 601.112,1052.11 603.355,1051.53 605.598,1050.95 607.841,1050.37 610.084,1049.78 612.326,1049.19 614.569,1048.6 616.812,1048 619.055,1047.4 621.298,1046.8 623.54,1046.2 625.783,1045.59 628.026,1044.99 630.269,1044.37 632.512,1043.76 634.755,1043.14 636.997,1042.52 639.24,1041.9 641.483,1041.28 643.726,1040.65 645.969,1040.02 648.212,1039.39 650.454,1038.75 652.697,1038.11 654.94,1037.47 657.183,1036.83 659.426,1036.18 661.668,1035.53 663.911,1034.88 666.154,1034.22 668.397,1033.56 670.64,1032.9 672.883,1032.24 675.125,1031.58 677.368,1030.91 679.611,1030.24 681.854,1029.57 684.097,1028.89 686.339,1028.22 688.582,1027.54 690.825,1026.86 693.068,1026.18 695.311,1025.49 697.554,1024.8 699.796,1024.11 702.039,1023.42 704.282,1022.73 706.525,1022.03 708.768,1021.33 711.011,1020.63 713.253,1019.93 715.496,1019.23 717.739,1018.52 719.982,1017.82 722.225,1017.11 724.467,1016.39 726.71,1015.68 728.953,1014.97 731.196,1014.25 733.439,1013.53 735.682,1012.81 737.924,1012.09 740.167,1011.36 742.41,1010.63 744.653,1009.91 746.896,1009.18 749.138,1008.44 751.381,1007.71 753.624,1006.97 755.867,1006.24 758.11,1005.5 760.353,1004.76 762.595,1004.01 764.838,1003.27 767.081,1002.52 769.324,1001.77 771.567,1001.02 773.81,1000.27 776.052,999.518 778.295,998.763 780.538,998.005 782.781,997.246 785.024,996.485 787.266,995.723 789.509,994.96 791.752,994.195 793.995,993.428 796.238,992.661 798.481,991.892 800.723,991.123 802.966,990.352 805.209,989.58 807.452,988.807 809.695,988.034 811.938,987.259 814.18,986.484 816.423,985.708 818.666,984.931 820.909,984.154 823.152,983.376 825.394,982.597 827.637,981.818 829.88,981.039 832.123,980.259 834.366,979.478 836.609,978.697 838.851,977.916 841.094,977.135 843.337,976.353 845.58,975.571 847.823,974.789 850.065,974.007 852.308,973.224 854.551,972.442 856.794,971.659 859.037,970.876 861.28,970.093 863.522,969.31 865.765,968.527 868.008,967.744 870.251,966.961 872.494,966.179 874.737,965.396 876.979,964.613 879.222,963.83 881.465,963.048 883.708,962.265 885.951,961.483 888.193,960.7 890.436,959.918 892.679,959.136 894.922,958.354 897.165,957.572 899.408,956.79 901.65,956.008 903.893,955.227 906.136,954.445 908.379,953.664 910.622,952.883 912.864,952.103 915.107,951.323 917.35,950.544 919.593,949.766 921.836,948.988 924.079,948.211 926.321,947.435 928.564,946.66 930.807,945.886 933.05,945.113 935.293,944.342 937.536,943.571 939.778,942.802 942.021,942.034 944.264,941.268 946.507,940.503 948.75,939.739 950.992,938.978 953.235,938.217 955.478,937.459 957.721,936.702 959.964,935.946 962.207,935.193 964.449,934.441 966.692,933.691 968.935,932.943 971.178,932.197 973.421,931.453 975.663,930.71 977.906,929.97 980.149,929.231 982.392,928.494 984.635,927.76 986.878,927.027 989.12,926.296 991.363,925.568 993.606,924.841 995.849,924.116 998.092,923.394 1000.33,922.673 1002.58,921.954 1004.82,921.237 1007.06,920.522 1009.31,919.81 1011.55,919.099 1013.79,918.39 1016.03,917.682 1018.28,916.977 1020.52,916.274 1022.76,915.572 1025.01,914.872 1027.25,914.174 1029.49,913.478 1031.73,912.783 1033.98,912.09 1036.22,911.399 1038.46,910.709 1040.71,910.022 1042.95,909.336 1045.19,908.653 1047.43,907.972 1049.68,907.293 1051.92,906.616 1054.16,905.942 1056.41,905.27 1058.65,904.601 1060.89,903.934 1063.13,903.269 1065.38,902.608 1067.62,901.949 1069.86,901.292 1072.1,900.639 1074.35,899.988 1076.59,899.34 1078.83,898.695 1081.08,898.053 1083.32,897.413 1085.56,896.777 1087.8,896.143 1090.05,895.513 1092.29,894.885 1094.53,894.261 1096.78,893.639 1099.02,893.021 1101.26,892.405 1103.5,891.793 1105.75,891.183 1107.99,890.577 1110.23,889.974 1112.48,889.374 1114.72,888.777 1116.96,888.183 1119.2,887.592 1121.45,887.004 1123.69,886.419 1125.93,885.837 1128.18,885.258 1130.42,884.682 1132.66,884.109 1134.9,883.539 1137.15,882.971 1139.39,882.407 1141.63,881.845 1143.88,881.287 1146.12,880.731 1148.36,880.178 1150.6,879.627 1152.85,879.08 1155.09,878.534 1157.33,877.992 1159.57,877.452 1161.82,876.914 1164.06,876.379 1166.3,875.846 1168.55,875.316 1170.79,874.788 1173.03,874.262 1175.27,873.739 1177.52,873.218 1179.76,872.7 1182,872.184 1184.25,871.672 1186.49,871.161 1188.73,870.654 1190.97,870.15 1193.22,869.648 1195.46,869.149 1197.7,868.653 1199.95,868.16 1202.19,867.67 1204.43,867.183 1206.67,866.698 1208.92,866.217 1211.16,865.739 1213.4,865.263 1215.65,864.791 1217.89,864.322 1220.13,863.855 1222.37,863.392 1224.62,862.932 1226.86,862.475 1229.1,862.021 1231.35,861.57 1233.59,861.122 1235.83,860.677 1238.07,860.235 1240.32,859.796 1242.56,859.36 1244.8,858.928 1247.04,858.498 1249.29,858.071 1251.53,857.647 1253.77,857.226 1256.02,856.808 1258.26,856.393 1260.5,855.981 1262.74,855.572 1264.99,855.166 1267.23,854.762 1269.47,854.361 1271.72,853.964 1273.96,853.568 1276.2,853.176 1278.44,852.786 1280.69,852.399 1282.93,852.014 1285.17,851.632 1287.42,851.253 1289.66,850.876 1291.9,850.501 1294.14,850.129 1296.39,849.759 1298.63,849.391 1300.87,849.026 1303.12,848.663 1305.36,848.302 1307.6,847.943 1309.84,847.586 1312.09,847.231 1314.33,846.878 1316.57,846.527 1318.82,846.177 1321.06,845.831 1323.3,845.486 1325.54,845.143 1327.79,844.803 1330.03,844.465 1332.27,844.129 1334.51,843.796 1336.76,843.465 1339,843.136 1341.24,842.81 1343.49,842.486 1345.73,842.164 1347.97,841.844 1350.21,841.527 1352.46,841.213 1354.7,840.9 1356.94,840.59 1359.19,840.282 1361.43,839.977 1363.67,839.674 1365.91,839.374 1368.16,839.075 1370.4,838.779 1372.64,838.486 1374.89,838.195 1377.13,837.906 1379.37,837.619 1381.61,837.335 1383.86,837.053 1386.1,836.773 1388.34,836.496 1390.59,836.221 1392.83,835.948 1395.07,835.678 1397.31,835.409 1399.56,835.143 1401.8,834.879 1404.04,834.617 1406.29,834.358 1408.53,834.1 1410.77,833.845 1413.01,833.592 1415.26,833.34 1417.5,833.091 1419.74,832.844 1421.98,832.599 1424.23,832.356 1426.47,832.114 1428.71,831.875 1430.96,831.638 1433.2,831.402 1435.44,831.168 1437.68,830.936 1439.93,830.706 1442.17,830.477 1444.41,830.25 1446.66,830.025 1448.9,829.801 1451.14,829.579 1453.38,829.359 1455.63,829.14 1457.87,828.922 1460.11,828.706 1462.36,828.491 1464.6,828.277 1466.84,828.065 1469.08,827.854 1471.33,827.644 1473.57,827.435 1475.81,827.229 1478.06,827.023 1480.3,826.82 1482.54,826.617 1484.78,826.417 1487.03,826.217 1489.27,826.02 1491.51,825.823 1493.76,825.629 1496,825.436 1498.24,825.244 1500.48,825.054 1502.73,824.865 1504.97,824.678 1507.21,824.493 1509.46,824.309 1511.7,824.127 1513.94,823.946 1516.18,823.767 1518.43,823.589 1520.67,823.413 1522.91,823.238 1525.15,823.065 1527.4,822.893 1529.64,822.723 1531.88,822.554 1534.13,822.387 1536.37,822.221 1538.61,822.057 1540.85,821.894 1543.1,821.733 1545.34,821.573 1547.58,821.415 1549.83,821.258 1552.07,821.102 1554.31,820.948 1556.55,820.796 1558.8,820.644 1561.04,820.495 1563.28,820.346 1565.53,820.199 1567.77,820.053 1570.01,819.908 1572.25,819.765 1574.5,819.623 1576.74,819.482 1578.98,819.343 1581.23,819.205 1583.47,819.068 1585.71,818.932 1587.95,818.797 1590.2,818.664 1592.44,818.532 1594.68,818.401 1596.93,818.27 1599.17,818.141 1601.41,818.013 1603.65,817.887 1605.9,817.761 1608.14,817.636 1610.38,817.512 1612.62,817.389 1614.87,817.266 1617.11,817.145 1619.35,817.025 1621.6,816.905 1623.84,816.786 1626.08,816.668 1628.32,816.551 1630.57,816.434 1632.81,816.318 1635.05,816.203 1637.3,816.088 1639.54,815.974 1641.78,815.861 1644.02,815.749 1646.27,815.638 1648.51,815.528 1650.75,815.418 1653,815.309 1655.24,815.202 1657.48,815.095 1659.72,814.989 1661.97,814.883 1664.21,814.779 1666.45,814.675 1668.7,814.573 1670.94,814.471 1673.18,814.37 1675.42,814.27 1677.67,814.171 1679.91,814.073 1682.15,813.975 1684.4,813.879 1686.64,813.783 1688.88,813.689 1691.12,813.595 1693.37,813.502 1695.61,813.409 1697.85,813.318 1700.09,813.228 1702.34,813.138 1704.58,813.049 1706.82,812.961 1709.07,812.874 1711.31,812.788 1713.55,812.703 1715.79,812.618 1718.04,812.534 1720.28,812.452 1722.52,812.369 1724.77,812.288 1727.01,812.208 1729.25,812.128 1731.49,812.049 1733.74,811.971 1735.98,811.894 1738.22,811.817 1740.47,811.741 1742.71,811.666 1744.95,811.591 1747.19,811.518 1749.44,811.445 1751.68,811.373 1753.92,811.301 1756.17,811.23 1758.41,811.16 1760.65,811.09 1762.89,811.022 1765.14,810.953 1767.38,810.886 1769.62,810.819 1771.87,810.752 1774.11,810.686 1776.35,810.621 1778.59,810.556 1780.84,810.492 1783.08,810.429 1785.32,810.366 1787.56,810.303 1789.81,810.241 1792.05,810.179 1794.29,810.118 1796.54,810.057 1798.78,809.997 1801.02,809.937 1803.26,809.877 1805.51,809.818 1807.75,809.759 1809.99,809.701 1812.24,809.643 1814.48,809.585 1816.72,809.527 1818.96,809.47 1821.21,809.413 1823.45,809.356 1825.69,809.3 1827.94,809.244 1830.18,809.189 1832.42,809.133 1834.66,809.079 1836.91,809.024 1839.15,808.971 1841.39,808.917 1843.64,808.864 1845.88,808.811 1848.12,808.759 1850.36,808.707 1852.61,808.656 1854.85,808.605 1857.09,808.555 1859.34,808.505 1861.58,808.455 1863.82,808.406 1866.06,808.357 1868.31,808.309 1870.55,808.261 1872.79,808.214 1875.03,808.167 1877.28,808.121 1879.52,808.075 1881.76,808.029 1884.01,807.984 1886.25,807.939 1888.49,807.895 1890.73,807.851 1892.98,807.808 1895.22,807.765 1897.46,807.723 1899.71,807.681 1901.95,807.64 1904.19,807.599 1906.43,807.558 1908.68,807.518 1910.92,807.478 1913.16,807.439 1915.41,807.4 1917.65,807.362 1919.89,807.324 1922.13,807.286 1924.38,807.249 1926.62,807.212 1928.86,807.176 1931.11,807.14 1933.35,807.104 1935.59,807.069 1937.83,807.034 1940.08,807 1942.32,806.966 1944.56,806.932 1946.81,806.899 1949.05,806.866 1951.29,806.834 1953.53,806.801 1955.78,806.77 1958.02,806.738 1960.26,806.707 1962.5,806.676 1964.75,806.645 1966.99,806.615 1969.23,806.585 1971.48,806.555 1973.72,806.526 1975.96,806.497 1978.2,806.468 1980.45,806.439 1982.69,806.411 1984.93,806.383 1987.18,806.355 1989.42,806.327 1991.66,806.299 1993.9,806.272 1996.15,806.245 1998.39,806.218 2000.63,806.191 2002.88,806.164 2005.12,806.137 2007.36,806.111 2009.6,806.085 2011.85,806.058 2014.09,806.032 2016.33,806.006 2018.58,805.98 2020.82,805.954 2023.06,805.928 2025.3,805.902 2027.55,805.876 2029.79,805.85 2032.03,805.824 2034.28,805.798 2036.52,805.773 2038.76,805.747 2041,805.722 2043.25,805.697 2045.49,805.672 2047.73,805.647 2049.97,805.622 2052.22,805.597 2054.46,805.573 2056.7,805.549 2058.95,805.524 2061.19,805.501 2063.43,805.477 2065.67,805.453 2067.92,805.43 2070.16,805.407 2072.4,805.384 2074.65,805.361 2076.89,805.339 2079.13,805.317 2081.37,805.295 2083.62,805.273 2085.86,805.251 2088.1,805.23 2090.35,805.209 2092.59,805.188 2094.83,805.168 2097.07,805.147 2099.32,805.127 2101.56,805.107 2103.8,805.088 2106.05,805.068 2108.29,805.049 2110.53,805.031 2112.77,805.012 2115.02,804.994 2117.26,804.976 2119.5,804.958 2121.75,804.94 2123.99,804.923 2126.23,804.906 2128.47,804.889 2130.72,804.873 2132.96,804.857 2135.2,804.841 2137.45,804.825 2139.69,804.809 2141.93,804.794 2144.17,804.779 2146.42,804.764 2148.66,804.75 2150.9,804.736 2153.14,804.721 2155.39,804.708 2157.63,804.694 2159.87,804.681 2162.12,804.667 2164.36,804.654 2166.6,804.641 2168.84,804.629 2171.09,804.616 2173.33,804.604 2175.57,804.592 2177.82,804.58 2180.06,804.568 2182.3,804.557 2184.54,804.545 2186.79,804.534 2189.03,804.523 2191.27,804.512 2193.52,804.501 2195.76,804.49 2198,804.48 2200.24,804.469 2202.49,804.458 2204.73,804.448 2206.97,804.438 2209.22,804.427 2211.46,804.417 2213.7,804.407 2215.94,804.397 2218.19,804.387 2220.43,804.377 2222.67,804.366 2224.92,804.356 2227.16,804.346 2229.4,804.336 2231.64,804.326 2233.89,804.315 2236.13,804.305 2238.37,804.294 2240.61,804.284 2242.86,804.273 2245.1,804.262 2247.34,804.251 2249.59,804.24 2251.83,804.229 2254.07,804.218 2256.31,804.206 2258.56,804.195 2260.8,804.184 2263.04,804.173 2265.29,804.162 2267.53,804.151 2269.77,804.14 2272.01,804.13 2274.26,804.119 2276.5,804.109 2278.74,804.099 2280.99,804.089 2283.23,804.079 2285.47,804.069 2287.71,804.059 2289.96,804.05 2292.2,804.04 2294.44,804.031 2296.69,804.021 2298.93,804.012 2301.17,804.003 2303.41,803.994 2305.66,803.985 2307.9,803.976 2310.14,803.968 2312.39,803.959 2314.63,803.95 2316.87,803.942 2319.11,803.934 2321.36,803.925 2323.6,803.917 2325.84,803.909 2328.08,803.901 2330.33,803.893 2332.57,803.885 2334.81,803.878 2337.06,803.87 2339.3,803.862 2341.54,803.855 2343.78,803.847 2346.03,803.84 2348.27,803.832 2350.51,803.825 2352.76,803.818 "/>
<polyline clip-path="url(#clip571)" style="stroke:#e26f46; stroke-linecap:round; stroke-linejoin:round; stroke-width:24; stroke-opacity:1; fill:none" points="112.177,1382.53 114.42,1355.37 116.663,1329.44 118.906,1304.69 121.148,1281.08 123.391,1258.57 125.634,1237.12 127.877,1216.69 130.12,1197.23 132.363,1178.72 134.605,1161.1 136.848,1144.34 139.091,1128.4 141.334,1113.25 143.577,1098.85 145.819,1085.16 148.062,1072.15 150.305,1059.79 152.548,1048.05 154.791,1036.9 157.034,1026.3 159.276,1016.23 161.519,1006.67 163.762,997.582 166.005,988.949 168.248,980.747 170.491,972.953 172.733,965.546 174.976,958.507 177.219,951.815 179.462,945.453 181.705,939.404 183.947,933.652 186.19,928.183 188.433,922.98 190.676,918.03 192.919,913.319 195.162,908.836 197.404,904.567 199.647,900.501 201.89,896.628 204.133,892.938 206.376,889.421 208.619,886.07 210.861,882.874 213.104,879.826 215.347,876.918 217.59,874.143 219.833,871.493 222.075,868.962 224.318,866.542 226.561,864.229 228.804,862.017 231.047,859.899 233.29,857.873 235.532,855.932 237.775,854.072 240.018,852.29 242.261,850.581 244.504,848.941 246.746,847.367 248.989,845.855 251.232,844.401 253.475,843.002 255.718,841.655 257.961,840.357 260.203,839.105 262.446,837.897 264.689,836.731 266.932,835.604 269.175,834.515 271.418,833.462 273.66,832.442 275.903,831.453 278.146,830.495 280.389,829.565 282.632,828.662 284.874,827.784 287.117,826.93 289.36,826.097 291.603,825.286 293.846,824.493 296.089,823.719 298.331,822.962 300.574,822.221 302.817,821.494 305.06,820.783 307.303,820.084 309.545,819.399 311.788,818.726 314.031,818.064 316.274,817.412 318.517,816.771 320.76,816.138 323.002,815.515 325.245,814.899 327.488,814.29 329.731,813.689 331.974,813.093 334.217,812.503 336.459,811.918 338.702,811.337 340.945,810.761 343.188,810.188 345.431,809.618 347.673,809.052 349.916,808.488 352.159,807.927 354.402,807.368 356.645,806.811 358.888,806.256 361.13,805.703 363.373,805.151 365.616,804.6 367.859,804.049 370.102,803.5 372.344,802.95 374.587,802.401 376.83,801.852 379.073,801.302 381.316,800.752 383.559,800.201 385.801,799.65 388.044,799.097 390.287,798.543 392.53,797.987 394.773,797.43 397.016,796.87 399.258,796.309 401.501,795.747 403.744,795.182 405.987,794.615 408.23,794.046 410.472,793.475 412.715,792.901 414.958,792.325 417.201,791.747 419.444,791.167 421.687,790.583 423.929,789.998 426.172,789.409 428.415,788.818 430.658,788.224 432.901,787.627 435.143,787.026 437.386,786.423 439.629,785.817 441.872,785.207 444.115,784.594 446.358,783.978 448.6,783.358 450.843,782.735 453.086,782.108 455.329,781.477 457.572,780.843 459.815,780.205 462.057,779.563 464.3,778.917 466.543,778.267 468.786,777.613 471.029,776.956 473.271,776.294 475.514,775.629 477.757,774.96 480,774.286 482.243,773.609 484.486,772.928 486.728,772.242 488.971,771.553 491.214,770.859 493.457,770.161 495.7,769.459 497.942,768.753 500.185,768.043 502.428,767.328 504.671,766.609 506.914,765.886 509.157,765.158 511.399,764.426 513.642,763.689 515.885,762.948 518.128,762.203 520.371,761.453 522.614,760.698 524.856,759.939 527.099,759.175 529.342,758.407 531.585,757.634 533.828,756.856 536.07,756.073 538.313,755.286 540.556,754.494 542.799,753.697 545.042,752.896 547.285,752.089 549.527,751.278 551.77,750.463 554.013,749.642 556.256,748.817 558.499,747.986 560.741,747.151 562.984,746.311 565.227,745.466 567.47,744.617 569.713,743.762 571.956,742.902 574.198,742.037 576.441,741.168 578.684,740.293 580.927,739.413 583.17,738.528 585.413,737.638 587.655,736.743 589.898,735.843 592.141,734.938 594.384,734.028 596.627,733.113 598.869,732.192 601.112,731.267 603.355,730.336 605.598,729.4 607.841,728.459 610.084,727.513 612.326,726.562 614.569,725.606 616.812,724.644 619.055,723.677 621.298,722.705 623.54,721.728 625.783,720.746 628.026,719.759 630.269,718.766 632.512,717.768 634.755,716.765 636.997,715.757 639.24,714.744 641.483,713.726 643.726,712.702 645.969,711.674 648.212,710.641 650.454,709.604 652.697,708.561 654.94,707.514 657.183,706.461 659.426,705.404 661.668,704.342 663.911,703.274 666.154,702.201 668.397,701.124 670.64,700.041 672.883,698.952 675.125,697.859 677.368,696.76 679.611,695.656 681.854,694.547 684.097,693.432 686.339,692.312 688.582,691.186 690.825,690.055 693.068,688.919 695.311,687.777 697.554,686.63 699.796,685.478 702.039,684.32 704.282,683.156 706.525,681.988 708.768,680.814 711.011,679.634 713.253,678.449 715.496,677.259 717.739,676.064 719.982,674.863 722.225,673.658 724.467,672.447 726.71,671.23 728.953,670.009 731.196,668.783 733.439,667.551 735.682,666.315 737.924,665.073 740.167,663.827 742.41,662.576 744.653,661.32 746.896,660.059 749.138,658.794 751.381,657.524 753.624,656.25 755.867,654.971 758.11,653.688 760.353,652.401 762.595,651.109 764.838,649.814 767.081,648.514 769.324,647.21 771.567,645.903 773.81,644.592 776.052,643.277 778.295,641.958 780.538,640.636 782.781,639.311 785.024,637.982 787.266,636.648 789.509,635.311 791.752,633.97 793.995,632.625 796.238,631.277 798.481,629.924 800.723,628.567 802.966,627.207 805.209,625.842 807.452,624.474 809.695,623.102 811.938,621.725 814.18,620.345 816.423,618.961 818.666,617.573 820.909,616.181 823.152,614.785 825.394,613.386 827.637,611.982 829.88,610.575 832.123,609.164 834.366,607.75 836.609,606.332 838.851,604.91 841.094,603.485 843.337,602.057 845.58,600.625 847.823,599.189 850.065,597.751 852.308,596.309 854.551,594.864 856.794,593.416 859.037,591.965 861.28,590.511 863.522,589.054 865.765,587.595 868.008,586.133 870.251,584.668 872.494,583.201 874.737,581.732 876.979,580.26 879.222,578.787 881.465,577.311 883.708,575.834 885.951,574.354 888.193,572.874 890.436,571.391 892.679,569.907 894.922,568.423 897.165,566.937 899.408,565.45 901.65,563.962 903.893,562.474 906.136,560.985 908.379,559.495 910.622,558.005 912.864,556.514 915.107,555.022 917.35,553.529 919.593,552.035 921.836,550.54 924.079,549.045 926.321,547.548 928.564,546.051 930.807,544.552 933.05,543.053 935.293,541.552 937.536,540.051 939.778,538.548 942.021,537.045 944.264,535.541 946.507,534.035 948.75,532.529 950.992,531.022 953.235,529.514 955.478,528.005 957.721,526.496 959.964,524.986 962.207,523.475 964.449,521.964 966.692,520.452 968.935,518.939 971.178,517.427 973.421,515.914 975.663,514.4 977.906,512.887 980.149,511.374 982.392,509.86 984.635,508.347 986.878,506.834 989.12,505.321 991.363,503.809 993.606,502.298 995.849,500.787 998.092,499.277 1000.33,497.768 1002.58,496.26 1004.82,494.754 1007.06,493.249 1009.31,491.745 1011.55,490.243 1013.79,488.743 1016.03,487.246 1018.28,485.75 1020.52,484.257 1022.76,482.766 1025.01,481.278 1027.25,479.793 1029.49,478.311 1031.73,476.833 1033.98,475.358 1036.22,473.886 1038.46,472.419 1040.71,470.954 1042.95,469.492 1045.19,468.034 1047.43,466.578 1049.68,465.126 1051.92,463.676 1054.16,462.229 1056.41,460.785 1058.65,459.343 1060.89,457.905 1063.13,456.468 1065.38,455.035 1067.62,453.604 1069.86,452.176 1072.1,450.75 1074.35,449.327 1076.59,447.907 1078.83,446.489 1081.08,445.074 1083.32,443.661 1085.56,442.251 1087.8,440.843 1090.05,439.438 1092.29,438.036 1094.53,436.637 1096.78,435.24 1099.02,433.846 1101.26,432.455 1103.5,431.067 1105.75,429.682 1107.99,428.299 1110.23,426.92 1112.48,425.544 1114.72,424.171 1116.96,422.801 1119.2,421.434 1121.45,420.071 1123.69,418.712 1125.93,417.356 1128.18,416.003 1130.42,414.655 1132.66,413.31 1134.9,411.969 1137.15,410.632 1139.39,409.3 1141.63,407.972 1143.88,406.648 1146.12,405.329 1148.36,404.014 1150.6,402.705 1152.85,401.4 1155.09,400.101 1157.33,398.807 1159.57,397.518 1161.82,396.235 1164.06,394.957 1166.3,393.686 1168.55,392.42 1170.79,391.161 1173.03,389.908 1175.27,388.661 1177.52,387.419 1179.76,386.183 1182,384.953 1184.25,383.728 1186.49,382.508 1188.73,381.293 1190.97,380.083 1193.22,378.879 1195.46,377.679 1197.7,376.485 1199.95,375.295 1202.19,374.11 1204.43,372.93 1206.67,371.754 1208.92,370.583 1211.16,369.417 1213.4,368.255 1215.65,367.098 1217.89,365.946 1220.13,364.798 1222.37,363.654 1224.62,362.515 1226.86,361.38 1229.1,360.25 1231.35,359.124 1233.59,358.002 1235.83,356.885 1238.07,355.772 1240.32,354.664 1242.56,353.56 1244.8,352.46 1247.04,351.365 1249.29,350.275 1251.53,349.189 1253.77,348.108 1256.02,347.031 1258.26,345.958 1260.5,344.891 1262.74,343.828 1264.99,342.77 1267.23,341.716 1269.47,340.668 1271.72,339.624 1273.96,338.586 1276.2,337.552 1278.44,336.524 1280.69,335.501 1282.93,334.483 1285.17,333.47 1287.42,332.463 1289.66,331.462 1291.9,330.466 1294.14,329.475 1296.39,328.491 1298.63,327.513 1300.87,326.54 1303.12,325.574 1305.36,324.614 1307.6,323.661 1309.84,322.714 1312.09,321.773 1314.33,320.84 1316.57,319.913 1318.82,318.993 1321.06,318.078 1323.3,317.169 1325.54,316.266 1327.79,315.369 1330.03,314.477 1332.27,313.59 1334.51,312.709 1336.76,311.833 1339,310.963 1341.24,310.097 1343.49,309.237 1345.73,308.382 1347.97,307.531 1350.21,306.685 1352.46,305.845 1354.7,305.009 1356.94,304.177 1359.19,303.351 1361.43,302.529 1363.67,301.711 1365.91,300.898 1368.16,300.089 1370.4,299.285 1372.64,298.486 1374.89,297.69 1377.13,296.899 1379.37,296.113 1381.61,295.33 1383.86,294.552 1386.1,293.779 1388.34,293.009 1390.59,292.244 1392.83,291.483 1395.07,290.726 1397.31,289.973 1399.56,289.225 1401.8,288.48 1404.04,287.74 1406.29,287.005 1408.53,286.273 1410.77,285.546 1413.01,284.823 1415.26,284.104 1417.5,283.389 1419.74,282.679 1421.98,281.973 1424.23,281.272 1426.47,280.575 1428.71,279.883 1430.96,279.194 1433.2,278.511 1435.44,277.832 1437.68,277.158 1439.93,276.488 1442.17,275.823 1444.41,275.163 1446.66,274.508 1448.9,273.857 1451.14,273.212 1453.38,272.571 1455.63,271.936 1457.87,271.306 1460.11,270.681 1462.36,270.061 1464.6,269.447 1466.84,268.838 1469.08,268.235 1471.33,267.636 1473.57,267.043 1475.81,266.454 1478.06,265.869 1480.3,265.289 1482.54,264.713 1484.78,264.142 1487.03,263.575 1489.27,263.012 1491.51,262.453 1493.76,261.898 1496,261.347 1498.24,260.8 1500.48,260.257 1502.73,259.718 1504.97,259.182 1507.21,258.65 1509.46,258.122 1511.7,257.597 1513.94,257.076 1516.18,256.559 1518.43,256.045 1520.67,255.534 1522.91,255.027 1525.15,254.523 1527.4,254.022 1529.64,253.524 1531.88,253.03 1534.13,252.539 1536.37,252.052 1538.61,251.567 1540.85,251.085 1543.1,250.607 1545.34,250.132 1547.58,249.659 1549.83,249.19 1552.07,248.724 1554.31,248.261 1556.55,247.801 1558.8,247.343 1561.04,246.889 1563.28,246.438 1565.53,245.99 1567.77,245.545 1570.01,245.102 1572.25,244.663 1574.5,244.226 1576.74,243.793 1578.98,243.363 1581.23,242.935 1583.47,242.511 1585.71,242.089 1587.95,241.671 1590.2,241.256 1592.44,240.843 1594.68,240.434 1596.93,240.028 1599.17,239.625 1601.41,239.225 1603.65,238.829 1605.9,238.435 1608.14,238.045 1610.38,237.658 1612.62,237.275 1614.87,236.894 1617.11,236.518 1619.35,236.144 1621.6,235.774 1623.84,235.408 1626.08,235.045 1628.32,234.685 1630.57,234.329 1632.81,233.977 1635.05,233.629 1637.3,233.284 1639.54,232.943 1641.78,232.604 1644.02,232.268 1646.27,231.935 1648.51,231.605 1650.75,231.278 1653,230.954 1655.24,230.632 1657.48,230.313 1659.72,229.997 1661.97,229.683 1664.21,229.372 1666.45,229.063 1668.7,228.757 1670.94,228.453 1673.18,228.151 1675.42,227.852 1677.67,227.555 1679.91,227.26 1682.15,226.968 1684.4,226.678 1686.64,226.389 1688.88,226.103 1691.12,225.819 1693.37,225.538 1695.61,225.258 1697.85,224.98 1700.09,224.704 1702.34,224.43 1704.58,224.158 1706.82,223.888 1709.07,223.619 1711.31,223.353 1713.55,223.088 1715.79,222.825 1718.04,222.565 1720.28,222.305 1722.52,222.048 1724.77,221.792 1727.01,221.538 1729.25,221.286 1731.49,221.036 1733.74,220.787 1735.98,220.54 1738.22,220.295 1740.47,220.051 1742.71,219.809 1744.95,219.569 1747.19,219.33 1749.44,219.094 1751.68,218.858 1753.92,218.625 1756.17,218.393 1758.41,218.163 1760.65,217.935 1762.89,217.708 1765.14,217.483 1767.38,217.26 1769.62,217.039 1771.87,216.819 1774.11,216.601 1776.35,216.385 1778.59,216.17 1780.84,215.958 1783.08,215.747 1785.32,215.538 1787.56,215.331 1789.81,215.126 1792.05,214.923 1794.29,214.721 1796.54,214.522 1798.78,214.324 1801.02,214.129 1803.26,213.936 1805.51,213.744 1807.75,213.555 1809.99,213.368 1812.24,213.183 1814.48,213 1816.72,212.82 1818.96,212.641 1821.21,212.465 1823.45,212.291 1825.69,212.118 1827.94,211.947 1830.18,211.778 1832.42,211.611 1834.66,211.445 1836.91,211.281 1839.15,211.118 1841.39,210.957 1843.64,210.797 1845.88,210.639 1848.12,210.482 1850.36,210.327 1852.61,210.173 1854.85,210.02 1857.09,209.868 1859.34,209.718 1861.58,209.569 1863.82,209.421 1866.06,209.274 1868.31,209.129 1870.55,208.985 1872.79,208.841 1875.03,208.699 1877.28,208.558 1879.52,208.418 1881.76,208.279 1884.01,208.141 1886.25,208.004 1888.49,207.868 1890.73,207.732 1892.98,207.598 1895.22,207.465 1897.46,207.332 1899.71,207.201 1901.95,207.07 1904.19,206.94 1906.43,206.811 1908.68,206.683 1910.92,206.555 1913.16,206.429 1915.41,206.303 1917.65,206.178 1919.89,206.054 1922.13,205.93 1924.38,205.808 1926.62,205.686 1928.86,205.565 1931.11,205.444 1933.35,205.325 1935.59,205.206 1937.83,205.088 1940.08,204.97 1942.32,204.854 1944.56,204.738 1946.81,204.623 1949.05,204.509 1951.29,204.395 1953.53,204.282 1955.78,204.171 1958.02,204.059 1960.26,203.949 1962.5,203.84 1964.75,203.731 1966.99,203.623 1969.23,203.516 1971.48,203.41 1973.72,203.304 1975.96,203.2 1978.2,203.096 1980.45,202.994 1982.69,202.892 1984.93,202.791 1987.18,202.691 1989.42,202.592 1991.66,202.495 1993.9,202.398 1996.15,202.302 1998.39,202.207 2000.63,202.113 2002.88,202.021 2005.12,201.929 2007.36,201.839 2009.6,201.75 2011.85,201.662 2014.09,201.575 2016.33,201.49 2018.58,201.406 2020.82,201.323 2023.06,201.241 2025.3,201.161 2027.55,201.083 2029.79,201.005 2032.03,200.928 2034.28,200.853 2036.52,200.779 2038.76,200.705 2041,200.633 2043.25,200.561 2045.49,200.49 2047.73,200.42 2049.97,200.351 2052.22,200.283 2054.46,200.215 2056.7,200.149 2058.95,200.082 2061.19,200.017 2063.43,199.952 2065.67,199.888 2067.92,199.824 2070.16,199.761 2072.4,199.698 2074.65,199.636 2076.89,199.574 2079.13,199.513 2081.37,199.452 2083.62,199.392 2085.86,199.332 2088.1,199.272 2090.35,199.213 2092.59,199.154 2094.83,199.095 2097.07,199.036 2099.32,198.978 2101.56,198.92 2103.8,198.863 2106.05,198.805 2108.29,198.748 2110.53,198.691 2112.77,198.635 2115.02,198.578 2117.26,198.522 2119.5,198.465 2121.75,198.409 2123.99,198.354 2126.23,198.298 2128.47,198.242 2130.72,198.187 2132.96,198.132 2135.2,198.076 2137.45,198.021 2139.69,197.967 2141.93,197.912 2144.17,197.857 2146.42,197.803 2148.66,197.749 2150.9,197.694 2153.14,197.64 2155.39,197.587 2157.63,197.533 2159.87,197.479 2162.12,197.426 2164.36,197.373 2166.6,197.32 2168.84,197.267 2171.09,197.215 2173.33,197.162 2175.57,197.11 2177.82,197.059 2180.06,197.007 2182.3,196.956 2184.54,196.905 2186.79,196.854 2189.03,196.804 2191.27,196.754 2193.52,196.704 2195.76,196.655 2198,196.606 2200.24,196.557 2202.49,196.509 2204.73,196.462 2206.97,196.415 2209.22,196.368 2211.46,196.322 2213.7,196.277 2215.94,196.232 2218.19,196.188 2220.43,196.144 2222.67,196.101 2224.92,196.059 2227.16,196.017 2229.4,195.977 2231.64,195.937 2233.89,195.898 2236.13,195.86 2238.37,195.822 2240.61,195.786 2242.86,195.751 2245.1,195.716 2247.34,195.683 2249.59,195.651 2251.83,195.62 2254.07,195.59 2256.31,195.56 2258.56,195.531 2260.8,195.502 2263.04,195.473 2265.29,195.444 2267.53,195.416 2269.77,195.387 2272.01,195.359 2274.26,195.331 2276.5,195.303 2278.74,195.275 2280.99,195.248 2283.23,195.22 2285.47,195.193 2287.71,195.166 2289.96,195.139 2292.2,195.112 2294.44,195.085 2296.69,195.059 2298.93,195.033 2301.17,195.007 2303.41,194.981 2305.66,194.955 2307.9,194.929 2310.14,194.904 2312.39,194.879 2314.63,194.853 2316.87,194.828 2319.11,194.804 2321.36,194.779 2323.6,194.755 2325.84,194.73 2328.08,194.706 2330.33,194.683 2332.57,194.659 2334.81,194.635 2337.06,194.612 2339.3,194.589 2341.54,194.566 2343.78,194.543 2346.03,194.52 2348.27,194.498 2350.51,194.476 2352.76,194.454 "/>
<circle clip-path="url(#clip571)" cx="112.177" cy="866.051" r="21.6" fill="#009af9" fill-rule="evenodd" fill-opacity="0.7" stroke="#000000" stroke-opacity="0.7" stroke-width="3.2"/>
<circle clip-path="url(#clip571)" cx="230.102" cy="1026.73" r="21.6" fill="#009af9" fill-rule="evenodd" fill-opacity="0.7" stroke="#000000" stroke-opacity="0.7" stroke-width="3.2"/>
<circle clip-path="url(#clip571)" cx="348.028" cy="1070.16" r="21.6" fill="#009af9" fill-rule="evenodd" fill-opacity="0.7" stroke="#000000" stroke-opacity="0.7" stroke-width="3.2"/>
<circle clip-path="url(#clip571)" cx="465.953" cy="1017.2" r="21.6" fill="#009af9" fill-rule="evenodd" fill-opacity="0.7" stroke="#000000" stroke-opacity="0.7" stroke-width="3.2"/>
<circle clip-path="url(#clip571)" cx="583.878" cy="1077.84" r="21.6" fill="#009af9" fill-rule="evenodd" fill-opacity="0.7" stroke="#000000" stroke-opacity="0.7" stroke-width="3.2"/>
<circle clip-path="url(#clip571)" cx="701.803" cy="1058.75" r="21.6" fill="#009af9" fill-rule="evenodd" fill-opacity="0.7" stroke="#000000" stroke-opacity="0.7" stroke-width="3.2"/>
<circle clip-path="url(#clip571)" cx="819.728" cy="1047.53" r="21.6" fill="#009af9" fill-rule="evenodd" fill-opacity="0.7" stroke="#000000" stroke-opacity="0.7" stroke-width="3.2"/>
<circle clip-path="url(#clip571)" cx="937.654" cy="951.076" r="21.6" fill="#009af9" fill-rule="evenodd" fill-opacity="0.7" stroke="#000000" stroke-opacity="0.7" stroke-width="3.2"/>
<circle clip-path="url(#clip571)" cx="1055.58" cy="968.755" r="21.6" fill="#009af9" fill-rule="evenodd" fill-opacity="0.7" stroke="#000000" stroke-opacity="0.7" stroke-width="3.2"/>
<circle clip-path="url(#clip571)" cx="1173.5" cy="789.266" r="21.6" fill="#009af9" fill-rule="evenodd" fill-opacity="0.7" stroke="#000000" stroke-opacity="0.7" stroke-width="3.2"/>
<circle clip-path="url(#clip571)" cx="1291.43" cy="752.492" r="21.6" fill="#009af9" fill-rule="evenodd" fill-opacity="0.7" stroke="#000000" stroke-opacity="0.7" stroke-width="3.2"/>
<circle clip-path="url(#clip571)" cx="1409.35" cy="759.79" r="21.6" fill="#009af9" fill-rule="evenodd" fill-opacity="0.7" stroke="#000000" stroke-opacity="0.7" stroke-width="3.2"/>
<circle clip-path="url(#clip571)" cx="1527.28" cy="771.341" r="21.6" fill="#009af9" fill-rule="evenodd" fill-opacity="0.7" stroke="#000000" stroke-opacity="0.7" stroke-width="3.2"/>
<circle clip-path="url(#clip571)" cx="1645.2" cy="795.541" r="21.6" fill="#009af9" fill-rule="evenodd" fill-opacity="0.7" stroke="#000000" stroke-opacity="0.7" stroke-width="3.2"/>
<circle clip-path="url(#clip571)" cx="1763.13" cy="707.843" r="21.6" fill="#009af9" fill-rule="evenodd" fill-opacity="0.7" stroke="#000000" stroke-opacity="0.7" stroke-width="3.2"/>
<circle clip-path="url(#clip571)" cx="1881.06" cy="853.871" r="21.6" fill="#009af9" fill-rule="evenodd" fill-opacity="0.7" stroke="#000000" stroke-opacity="0.7" stroke-width="3.2"/>
<circle clip-path="url(#clip571)" cx="1998.98" cy="908.86" r="21.6" fill="#009af9" fill-rule="evenodd" fill-opacity="0.7" stroke="#000000" stroke-opacity="0.7" stroke-width="3.2"/>
<circle clip-path="url(#clip571)" cx="2116.91" cy="756.351" r="21.6" fill="#009af9" fill-rule="evenodd" fill-opacity="0.7" stroke="#000000" stroke-opacity="0.7" stroke-width="3.2"/>
<circle clip-path="url(#clip571)" cx="2234.83" cy="686.064" r="21.6" fill="#009af9" fill-rule="evenodd" fill-opacity="0.7" stroke="#000000" stroke-opacity="0.7" stroke-width="3.2"/>
<circle clip-path="url(#clip571)" cx="2352.76" cy="813.577" r="21.6" fill="#009af9" fill-rule="evenodd" fill-opacity="0.7" stroke="#000000" stroke-opacity="0.7" stroke-width="3.2"/>
<circle clip-path="url(#clip571)" cx="112.177" cy="1384.24" r="21.6" fill="#e26f46" fill-rule="evenodd" fill-opacity="0.7" stroke="#000000" stroke-opacity="0.7" stroke-width="3.2"/>
<circle clip-path="url(#clip571)" cx="230.102" cy="863.086" r="21.6" fill="#e26f46" fill-rule="evenodd" fill-opacity="0.7" stroke="#000000" stroke-opacity="0.7" stroke-width="3.2"/>
<circle clip-path="url(#clip571)" cx="348.028" cy="729.688" r="21.6" fill="#e26f46" fill-rule="evenodd" fill-opacity="0.7" stroke="#000000" stroke-opacity="0.7" stroke-width="3.2"/>
<circle clip-path="url(#clip571)" cx="465.953" cy="829.588" r="21.6" fill="#e26f46" fill-rule="evenodd" fill-opacity="0.7" stroke="#000000" stroke-opacity="0.7" stroke-width="3.2"/>
<circle clip-path="url(#clip571)" cx="583.878" cy="643.603" r="21.6" fill="#e26f46" fill-rule="evenodd" fill-opacity="0.7" stroke="#000000" stroke-opacity="0.7" stroke-width="3.2"/>
<circle clip-path="url(#clip571)" cx="701.803" cy="743.582" r="21.6" fill="#e26f46" fill-rule="evenodd" fill-opacity="0.7" stroke="#000000" stroke-opacity="0.7" stroke-width="3.2"/>
<circle clip-path="url(#clip571)" cx="819.728" cy="555.74" r="21.6" fill="#e26f46" fill-rule="evenodd" fill-opacity="0.7" stroke="#000000" stroke-opacity="0.7" stroke-width="3.2"/>
<circle clip-path="url(#clip571)" cx="937.654" cy="677.191" r="21.6" fill="#e26f46" fill-rule="evenodd" fill-opacity="0.7" stroke="#000000" stroke-opacity="0.7" stroke-width="3.2"/>
<circle clip-path="url(#clip571)" cx="1055.58" cy="329.084" r="21.6" fill="#e26f46" fill-rule="evenodd" fill-opacity="0.7" stroke="#000000" stroke-opacity="0.7" stroke-width="3.2"/>
<circle clip-path="url(#clip571)" cx="1173.5" cy="230.021" r="21.6" fill="#e26f46" fill-rule="evenodd" fill-opacity="0.7" stroke="#000000" stroke-opacity="0.7" stroke-width="3.2"/>
<circle clip-path="url(#clip571)" cx="1291.43" cy="415.192" r="21.6" fill="#e26f46" fill-rule="evenodd" fill-opacity="0.7" stroke="#000000" stroke-opacity="0.7" stroke-width="3.2"/>
<circle clip-path="url(#clip571)" cx="1409.35" cy="175.488" r="21.6" fill="#e26f46" fill-rule="evenodd" fill-opacity="0.7" stroke="#000000" stroke-opacity="0.7" stroke-width="3.2"/>
<circle clip-path="url(#clip571)" cx="1527.28" cy="121.4" r="21.6" fill="#e26f46" fill-rule="evenodd" fill-opacity="0.7" stroke="#000000" stroke-opacity="0.7" stroke-width="3.2"/>
<circle clip-path="url(#clip571)" cx="1645.2" cy="394.674" r="21.6" fill="#e26f46" fill-rule="evenodd" fill-opacity="0.7" stroke="#000000" stroke-opacity="0.7" stroke-width="3.2"/>
<circle clip-path="url(#clip571)" cx="1763.13" cy="115.393" r="21.6" fill="#e26f46" fill-rule="evenodd" fill-opacity="0.7" stroke="#000000" stroke-opacity="0.7" stroke-width="3.2"/>
<circle clip-path="url(#clip571)" cx="1881.06" cy="299.424" r="21.6" fill="#e26f46" fill-rule="evenodd" fill-opacity="0.7" stroke="#000000" stroke-opacity="0.7" stroke-width="3.2"/>
<circle clip-path="url(#clip571)" cx="1998.98" cy="364.808" r="21.6" fill="#e26f46" fill-rule="evenodd" fill-opacity="0.7" stroke="#000000" stroke-opacity="0.7" stroke-width="3.2"/>
<circle clip-path="url(#clip571)" cx="2116.91" cy="382.021" r="21.6" fill="#e26f46" fill-rule="evenodd" fill-opacity="0.7" stroke="#000000" stroke-opacity="0.7" stroke-width="3.2"/>
<circle clip-path="url(#clip571)" cx="2234.83" cy="86.1857" r="21.6" fill="#e26f46" fill-rule="evenodd" fill-opacity="0.7" stroke="#000000" stroke-opacity="0.7" stroke-width="3.2"/>
<circle clip-path="url(#clip571)" cx="2352.76" cy="388.117" r="21.6" fill="#e26f46" fill-rule="evenodd" fill-opacity="0.7" stroke="#000000" stroke-opacity="0.7" stroke-width="3.2"/>
<path clip-path="url(#clip570)" d="M186.863 352.309 L596.753 352.309 L596.753 93.1086 L186.863 93.1086  Z" fill="#ffffff" fill-rule="evenodd" fill-opacity="1"/>
<polyline clip-path="url(#clip570)" style="stroke:#000000; stroke-linecap:round; stroke-linejoin:round; stroke-width:4; stroke-opacity:1; fill:none" points="186.863,352.309 596.753,352.309 596.753,93.1086 186.863,93.1086 186.863,352.309 "/>
<polyline clip-path="url(#clip570)" style="stroke:#009af9; stroke-linecap:round; stroke-linejoin:round; stroke-width:20; stroke-opacity:1; fill:none" points="211.758,144.949 361.13,144.949 "/>
<path clip-path="url(#clip570)" d="M387.6 127.669 L392.623 127.669 L401.211 140.516 L409.845 127.669 L414.868 127.669 L403.757 144.266 L415.609 162.229 L410.586 162.229 L400.864 147.53 L391.072 162.229 L386.026 162.229 L398.364 143.78 L387.6 127.669 Z" fill="#000000" fill-rule="nonzero" fill-opacity="1" /><polyline clip-path="url(#clip570)" style="stroke:#e26f46; stroke-linecap:round; stroke-linejoin:round; stroke-width:20; stroke-opacity:1; fill:none" points="211.758,196.789 361.13,196.789 "/>
<path clip-path="url(#clip570)" d="M386.026 179.509 L391.049 179.509 L400.632 193.722 L410.146 179.509 L415.169 179.509 L402.947 197.61 L402.947 214.069 L398.248 214.069 L398.248 197.61 L386.026 179.509 Z" fill="#000000" fill-rule="nonzero" fill-opacity="1" /><circle clip-path="url(#clip570)" cx="286.444" cy="248.629" r="21.2677" fill="#009af9" fill-rule="evenodd" fill-opacity="0.7" stroke="#000000" stroke-opacity="0.7" stroke-width="3.15077"/>
<path clip-path="url(#clip570)" d="M387.6 231.349 L392.623 231.349 L401.211 244.196 L409.845 231.349 L414.868 231.349 L403.757 247.946 L415.609 265.909 L410.586 265.909 L400.864 251.21 L391.072 265.909 L386.026 265.909 L398.364 247.46 L387.6 231.349 Z" fill="#000000" fill-rule="nonzero" fill-opacity="1" /><path clip-path="url(#clip570)" d="M446.859 229.937 Q443.757 235.261 442.252 240.469 Q440.748 245.677 440.748 251.024 Q440.748 256.372 442.252 261.626 Q443.78 266.858 446.859 272.159 L443.155 272.159 Q439.683 266.719 437.947 261.464 Q436.234 256.21 436.234 251.024 Q436.234 245.862 437.947 240.631 Q439.66 235.4 443.155 229.937 L446.859 229.937 Z" fill="#000000" fill-rule="nonzero" fill-opacity="1" /><path clip-path="url(#clip570)" d="M472.183 243.918 L472.183 229.89 L476.442 229.89 L476.442 265.909 L472.183 265.909 L472.183 262.02 Q470.84 264.335 468.78 265.469 Q466.743 266.58 463.872 266.58 Q459.173 266.58 456.21 262.83 Q453.271 259.08 453.271 252.969 Q453.271 246.858 456.21 243.108 Q459.173 239.358 463.872 239.358 Q466.743 239.358 468.78 240.492 Q470.84 241.603 472.183 243.918 M457.669 252.969 Q457.669 257.668 459.59 260.353 Q461.535 263.015 464.914 263.015 Q468.294 263.015 470.238 260.353 Q472.183 257.668 472.183 252.969 Q472.183 248.27 470.238 245.608 Q468.294 242.923 464.914 242.923 Q461.535 242.923 459.59 245.608 Q457.669 248.27 457.669 252.969 Z" fill="#000000" fill-rule="nonzero" fill-opacity="1" /><path clip-path="url(#clip570)" d="M496.997 252.876 Q491.835 252.876 489.845 254.057 Q487.854 255.237 487.854 258.085 Q487.854 260.353 489.335 261.696 Q490.84 263.015 493.409 263.015 Q496.951 263.015 499.081 260.515 Q501.233 257.992 501.233 253.825 L501.233 252.876 L496.997 252.876 M505.493 251.117 L505.493 265.909 L501.233 265.909 L501.233 261.973 Q499.775 264.335 497.599 265.469 Q495.423 266.58 492.275 266.58 Q488.294 266.58 485.933 264.358 Q483.595 262.112 483.595 258.362 Q483.595 253.987 486.511 251.765 Q489.451 249.543 495.261 249.543 L501.233 249.543 L501.233 249.126 Q501.233 246.187 499.289 244.589 Q497.368 242.969 493.872 242.969 Q491.65 242.969 489.544 243.501 Q487.437 244.034 485.493 245.099 L485.493 241.163 Q487.831 240.261 490.03 239.821 Q492.229 239.358 494.312 239.358 Q499.937 239.358 502.715 242.274 Q505.493 245.191 505.493 251.117 Z" fill="#000000" fill-rule="nonzero" fill-opacity="1" /><path clip-path="url(#clip570)" d="M518.479 232.622 L518.479 239.983 L527.252 239.983 L527.252 243.293 L518.479 243.293 L518.479 257.367 Q518.479 260.538 519.335 261.441 Q520.215 262.344 522.877 262.344 L527.252 262.344 L527.252 265.909 L522.877 265.909 Q517.946 265.909 516.071 264.08 Q514.196 262.228 514.196 257.367 L514.196 243.293 L511.071 243.293 L511.071 239.983 L514.196 239.983 L514.196 232.622 L518.479 232.622 Z" fill="#000000" fill-rule="nonzero" fill-opacity="1" /><path clip-path="url(#clip570)" d="M544.636 252.876 Q539.474 252.876 537.483 254.057 Q535.492 255.237 535.492 258.085 Q535.492 260.353 536.974 261.696 Q538.479 263.015 541.048 263.015 Q544.59 263.015 546.719 260.515 Q548.872 257.992 548.872 253.825 L548.872 252.876 L544.636 252.876 M553.131 251.117 L553.131 265.909 L548.872 265.909 L548.872 261.973 Q547.414 264.335 545.238 265.469 Q543.062 266.58 539.914 266.58 Q535.932 266.58 533.571 264.358 Q531.233 262.112 531.233 258.362 Q531.233 253.987 534.15 251.765 Q537.09 249.543 542.9 249.543 L548.872 249.543 L548.872 249.126 Q548.872 246.187 546.928 244.589 Q545.006 242.969 541.511 242.969 Q539.289 242.969 537.182 243.501 Q535.076 244.034 533.131 245.099 L533.131 241.163 Q535.469 240.261 537.668 239.821 Q539.867 239.358 541.951 239.358 Q547.576 239.358 550.354 242.274 Q553.131 245.191 553.131 251.117 Z" fill="#000000" fill-rule="nonzero" fill-opacity="1" /><path clip-path="url(#clip570)" d="M561.233 229.937 L564.937 229.937 Q568.409 235.4 570.122 240.631 Q571.858 245.862 571.858 251.024 Q571.858 256.21 570.122 261.464 Q568.409 266.719 564.937 272.159 L561.233 272.159 Q564.312 266.858 565.816 261.626 Q567.344 256.372 567.344 251.024 Q567.344 245.677 565.816 240.469 Q564.312 235.261 561.233 229.937 Z" fill="#000000" fill-rule="nonzero" fill-opacity="1" /><circle clip-path="url(#clip570)" cx="286.444" cy="300.469" r="21.2677" fill="#e26f46" fill-rule="evenodd" fill-opacity="0.7" stroke="#000000" stroke-opacity="0.7" stroke-width="3.15077"/>
<path clip-path="url(#clip570)" d="M386.026 283.189 L391.049 283.189 L400.632 297.402 L410.146 283.189 L415.169 283.189 L402.947 301.29 L402.947 317.749 L398.248 317.749 L398.248 301.29 L386.026 283.189 Z" fill="#000000" fill-rule="nonzero" fill-opacity="1" /><path clip-path="url(#clip570)" d="M444.845 281.777 Q441.743 287.101 440.238 292.309 Q438.734 297.517 438.734 302.864 Q438.734 308.212 440.238 313.466 Q441.766 318.698 444.845 323.999 L441.141 323.999 Q437.669 318.559 435.933 313.304 Q434.22 308.05 434.22 302.864 Q434.22 297.702 435.933 292.471 Q437.646 287.24 441.141 281.777 L444.845 281.777 Z" fill="#000000" fill-rule="nonzero" fill-opacity="1" /><path clip-path="url(#clip570)" d="M470.169 295.758 L470.169 281.73 L474.428 281.73 L474.428 317.749 L470.169 317.749 L470.169 313.86 Q468.826 316.175 466.766 317.309 Q464.729 318.42 461.859 318.42 Q457.16 318.42 454.197 314.67 Q451.257 310.92 451.257 304.809 Q451.257 298.698 454.197 294.948 Q457.16 291.198 461.859 291.198 Q464.729 291.198 466.766 292.332 Q468.826 293.443 470.169 295.758 M455.655 304.809 Q455.655 309.508 457.576 312.193 Q459.521 314.855 462.9 314.855 Q466.28 314.855 468.224 312.193 Q470.169 309.508 470.169 304.809 Q470.169 300.11 468.224 297.448 Q466.28 294.763 462.9 294.763 Q459.521 294.763 457.576 297.448 Q455.655 300.11 455.655 304.809 Z" fill="#000000" fill-rule="nonzero" fill-opacity="1" /><path clip-path="url(#clip570)" d="M494.983 304.716 Q489.821 304.716 487.831 305.897 Q485.84 307.077 485.84 309.925 Q485.84 312.193 487.321 313.536 Q488.826 314.855 491.395 314.855 Q494.937 314.855 497.067 312.355 Q499.22 309.832 499.22 305.665 L499.22 304.716 L494.983 304.716 M503.479 302.957 L503.479 317.749 L499.22 317.749 L499.22 313.813 Q497.761 316.175 495.585 317.309 Q493.409 318.42 490.261 318.42 Q486.28 318.42 483.919 316.198 Q481.581 313.952 481.581 310.202 Q481.581 305.827 484.497 303.605 Q487.437 301.383 493.247 301.383 L499.22 301.383 L499.22 300.966 Q499.22 298.027 497.275 296.429 Q495.354 294.809 491.858 294.809 Q489.636 294.809 487.53 295.341 Q485.423 295.874 483.479 296.939 L483.479 293.003 Q485.817 292.101 488.016 291.661 Q490.215 291.198 492.298 291.198 Q497.923 291.198 500.701 294.114 Q503.479 297.031 503.479 302.957 Z" fill="#000000" fill-rule="nonzero" fill-opacity="1" /><path clip-path="url(#clip570)" d="M516.465 284.462 L516.465 291.823 L525.238 291.823 L525.238 295.133 L516.465 295.133 L516.465 309.207 Q516.465 312.378 517.321 313.281 Q518.201 314.184 520.863 314.184 L525.238 314.184 L525.238 317.749 L520.863 317.749 Q515.932 317.749 514.057 315.92 Q512.182 314.068 512.182 309.207 L512.182 295.133 L509.057 295.133 L509.057 291.823 L512.182 291.823 L512.182 284.462 L516.465 284.462 Z" fill="#000000" fill-rule="nonzero" fill-opacity="1" /><path clip-path="url(#clip570)" d="M542.622 304.716 Q537.46 304.716 535.469 305.897 Q533.479 307.077 533.479 309.925 Q533.479 312.193 534.96 313.536 Q536.465 314.855 539.034 314.855 Q542.576 314.855 544.705 312.355 Q546.858 309.832 546.858 305.665 L546.858 304.716 L542.622 304.716 M551.117 302.957 L551.117 317.749 L546.858 317.749 L546.858 313.813 Q545.4 316.175 543.224 317.309 Q541.048 318.42 537.9 318.42 Q533.918 318.42 531.557 316.198 Q529.219 313.952 529.219 310.202 Q529.219 305.827 532.136 303.605 Q535.076 301.383 540.886 301.383 L546.858 301.383 L546.858 300.966 Q546.858 298.027 544.914 296.429 Q542.992 294.809 539.497 294.809 Q537.275 294.809 535.168 295.341 Q533.062 295.874 531.118 296.939 L531.118 293.003 Q533.455 292.101 535.655 291.661 Q537.854 291.198 539.937 291.198 Q545.562 291.198 548.34 294.114 Q551.117 297.031 551.117 302.957 Z" fill="#000000" fill-rule="nonzero" fill-opacity="1" /><path clip-path="url(#clip570)" d="M559.219 281.777 L562.923 281.777 Q566.395 287.24 568.108 292.471 Q569.844 297.702 569.844 302.864 Q569.844 308.05 568.108 313.304 Q566.395 318.559 562.923 323.999 L559.219 323.999 Q562.298 318.698 563.803 313.466 Q565.33 308.212 565.33 302.864 Q565.33 297.517 563.803 292.309 Q562.298 287.101 559.219 281.777 Z" fill="#000000" fill-rule="nonzero" fill-opacity="1" /></svg>
