<?xml version="1.0" encoding="utf-8"?>
<svg xmlns="http://www.w3.org/2000/svg" xmlns:xlink="http://www.w3.org/1999/xlink" width="600" height="400" viewBox="0 0 2400 1600">
<defs>
  <clipPath id="clip780">
    <rect x="0" y="0" width="2400" height="1600"/>
  </clipPath>
</defs>
<path clip-path="url(#clip780)" d="M0 1600 L2400 1600 L2400 0 L0 0  Z" fill="#ffffff" fill-rule="evenodd" fill-opacity="1"/>
<defs>
  <clipPath id="clip781">
    <rect x="112" y="47" width="2242" height="1377"/>
  </clipPath>
</defs>
<path clip-path="url(#clip780)" d="M112.177 1423.18 L2352.76 1423.18 L2352.76 47.2441 L112.177 47.2441  Z" fill="#ffffff" fill-rule="evenodd" fill-opacity="1"/>
<polyline clip-path="url(#clip781)" style="stroke:#000000; stroke-linecap:round; stroke-linejoin:round; stroke-width:2; stroke-opacity:0.1; fill:none" points="112.177,1423.18 112.177,47.2441 "/>
<polyline clip-path="url(#clip781)" style="stroke:#000000; stroke-linecap:round; stroke-linejoin:round; stroke-width:2; stroke-opacity:0.1; fill:none" points="610.084,1423.18 610.084,47.2441 "/>
<polyline clip-path="url(#clip781)" style="stroke:#000000; stroke-linecap:round; stroke-linejoin:round; stroke-width:2; stroke-opacity:0.1; fill:none" points="1107.99,1423.18 1107.99,47.2441 "/>
<polyline clip-path="url(#clip781)" style="stroke:#000000; stroke-linecap:round; stroke-linejoin:round; stroke-width:2; stroke-opacity:0.1; fill:none" points="1605.9,1423.18 1605.9,47.2441 "/>
<polyline clip-path="url(#clip781)" style="stroke:#000000; stroke-linecap:round; stroke-linejoin:round; stroke-width:2; stroke-opacity:0.1; fill:none" points="2103.8,1423.18 2103.8,47.2441 "/>
<polyline clip-path="url(#clip781)" style="stroke:#000000; stroke-linecap:round; stroke-linejoin:round; stroke-width:2; stroke-opacity:0.1; fill:none" points="112.177,1409.12 2352.76,1409.12 "/>
<polyline clip-path="url(#clip781)" style="stroke:#000000; stroke-linecap:round; stroke-linejoin:round; stroke-width:2; stroke-opacity:0.1; fill:none" points="112.177,1122.01 2352.76,1122.01 "/>
<polyline clip-path="url(#clip781)" style="stroke:#000000; stroke-linecap:round; stroke-linejoin:round; stroke-width:2; stroke-opacity:0.1; fill:none" points="112.177,834.898 2352.76,834.898 "/>
<polyline clip-path="url(#clip781)" style="stroke:#000000; stroke-linecap:round; stroke-linejoin:round; stroke-width:2; stroke-opacity:0.1; fill:none" points="112.177,547.787 2352.76,547.787 "/>
<polyline clip-path="url(#clip781)" style="stroke:#000000; stroke-linecap:round; stroke-linejoin:round; stroke-width:2; stroke-opacity:0.1; fill:none" points="112.177,260.676 2352.76,260.676 "/>
<polyline clip-path="url(#clip780)" style="stroke:#000000; stroke-linecap:round; stroke-linejoin:round; stroke-width:4; stroke-opacity:1; fill:none" points="112.177,1423.18 2352.76,1423.18 "/>
<polyline clip-path="url(#clip780)" style="stroke:#000000; stroke-linecap:round; stroke-linejoin:round; stroke-width:4; stroke-opacity:1; fill:none" points="112.177,1423.18 112.177,1404.28 "/>
<polyline clip-path="url(#clip780)" style="stroke:#000000; stroke-linecap:round; stroke-linejoin:round; stroke-width:4; stroke-opacity:1; fill:none" points="610.084,1423.18 610.084,1404.28 "/>
<polyline clip-path="url(#clip780)" style="stroke:#000000; stroke-linecap:round; stroke-linejoin:round; stroke-width:4; stroke-opacity:1; fill:none" points="1107.99,1423.18 1107.99,1404.28 "/>
<polyline clip-path="url(#clip780)" style="stroke:#000000; stroke-linecap:round; stroke-linejoin:round; stroke-width:4; stroke-opacity:1; fill:none" points="1605.9,1423.18 1605.9,1404.28 "/>
<polyline clip-path="url(#clip780)" style="stroke:#000000; stroke-linecap:round; stroke-linejoin:round; stroke-width:4; stroke-opacity:1; fill:none" points="2103.8,1423.18 2103.8,1404.28 "/>
<path clip-path="url(#clip780)" d="M112.177 1454.1 Q108.566 1454.1 106.737 1457.66 Q104.932 1461.2 104.932 1468.33 Q104.932 1475.44 106.737 1479.01 Q108.566 1482.55 112.177 1482.55 Q115.811 1482.55 117.617 1479.01 Q119.446 1475.44 119.446 1468.33 Q119.446 1461.2 117.617 1457.66 Q115.811 1454.1 112.177 1454.1 M112.177 1450.39 Q117.987 1450.39 121.043 1455 Q124.122 1459.58 124.122 1468.33 Q124.122 1477.06 121.043 1481.67 Q117.987 1486.25 112.177 1486.25 Q106.367 1486.25 103.288 1481.67 Q100.233 1477.06 100.233 1468.33 Q100.233 1459.58 103.288 1455 Q106.367 1450.39 112.177 1450.39 Z" fill="#000000" fill-rule="nonzero" fill-opacity="1" /><path clip-path="url(#clip780)" d="M584.771 1481.64 L592.41 1481.64 L592.41 1455.28 L584.1 1456.95 L584.1 1452.69 L592.364 1451.02 L597.04 1451.02 L597.04 1481.64 L604.678 1481.64 L604.678 1485.58 L584.771 1485.58 L584.771 1481.64 Z" fill="#000000" fill-rule="nonzero" fill-opacity="1" /><path clip-path="url(#clip780)" d="M624.123 1454.1 Q620.512 1454.1 618.683 1457.66 Q616.878 1461.2 616.878 1468.33 Q616.878 1475.44 618.683 1479.01 Q620.512 1482.55 624.123 1482.55 Q627.757 1482.55 629.563 1479.01 Q631.391 1475.44 631.391 1468.33 Q631.391 1461.2 629.563 1457.66 Q627.757 1454.1 624.123 1454.1 M624.123 1450.39 Q629.933 1450.39 632.989 1455 Q636.067 1459.58 636.067 1468.33 Q636.067 1477.06 632.989 1481.67 Q629.933 1486.25 624.123 1486.25 Q618.313 1486.25 615.234 1481.67 Q612.178 1477.06 612.178 1468.33 Q612.178 1459.58 615.234 1455 Q618.313 1450.39 624.123 1450.39 Z" fill="#000000" fill-rule="nonzero" fill-opacity="1" /><path clip-path="url(#clip780)" d="M1086.76 1481.64 L1103.08 1481.64 L1103.08 1485.58 L1081.14 1485.58 L1081.14 1481.64 Q1083.8 1478.89 1088.38 1474.26 Q1092.99 1469.61 1094.17 1468.27 Q1096.42 1465.74 1097.3 1464.01 Q1098.2 1462.25 1098.2 1460.56 Q1098.2 1457.8 1096.25 1456.07 Q1094.33 1454.33 1091.23 1454.33 Q1089.03 1454.33 1086.58 1455.09 Q1084.15 1455.86 1081.37 1457.41 L1081.37 1452.69 Q1084.19 1451.55 1086.65 1450.97 Q1089.1 1450.39 1091.14 1450.39 Q1096.51 1450.39 1099.7 1453.08 Q1102.9 1455.77 1102.9 1460.26 Q1102.9 1462.39 1102.09 1464.31 Q1101.3 1466.2 1099.19 1468.8 Q1098.61 1469.47 1095.51 1472.69 Q1092.41 1475.88 1086.76 1481.64 Z" fill="#000000" fill-rule="nonzero" fill-opacity="1" /><path clip-path="url(#clip780)" d="M1122.9 1454.1 Q1119.29 1454.1 1117.46 1457.66 Q1115.65 1461.2 1115.65 1468.33 Q1115.65 1475.44 1117.46 1479.01 Q1119.29 1482.55 1122.9 1482.55 Q1126.53 1482.55 1128.34 1479.01 Q1130.17 1475.44 1130.17 1468.33 Q1130.17 1461.2 1128.34 1457.66 Q1126.53 1454.1 1122.9 1454.1 M1122.9 1450.39 Q1128.71 1450.39 1131.76 1455 Q1134.84 1459.58 1134.84 1468.33 Q1134.84 1477.06 1131.76 1481.67 Q1128.71 1486.25 1122.9 1486.25 Q1117.09 1486.25 1114.01 1481.67 Q1110.95 1477.06 1110.95 1468.33 Q1110.95 1459.58 1114.01 1455 Q1117.09 1450.39 1122.9 1450.39 Z" fill="#000000" fill-rule="nonzero" fill-opacity="1" /><path clip-path="url(#clip780)" d="M1594.74 1466.95 Q1598.1 1467.66 1599.97 1469.93 Q1601.87 1472.2 1601.87 1475.53 Q1601.87 1480.65 1598.35 1483.45 Q1594.83 1486.25 1588.35 1486.25 Q1586.17 1486.25 1583.86 1485.81 Q1581.57 1485.39 1579.11 1484.54 L1579.11 1480.02 Q1581.06 1481.16 1583.37 1481.74 Q1585.69 1482.32 1588.21 1482.32 Q1592.61 1482.32 1594.9 1480.58 Q1597.22 1478.84 1597.22 1475.53 Q1597.22 1472.48 1595.06 1470.77 Q1592.93 1469.03 1589.11 1469.03 L1585.09 1469.03 L1585.09 1465.19 L1589.3 1465.19 Q1592.75 1465.19 1594.58 1463.82 Q1596.41 1462.43 1596.41 1459.84 Q1596.41 1457.18 1594.51 1455.77 Q1592.63 1454.33 1589.11 1454.33 Q1587.19 1454.33 1584.99 1454.75 Q1582.79 1455.16 1580.16 1456.04 L1580.16 1451.88 Q1582.82 1451.14 1585.13 1450.77 Q1587.47 1450.39 1589.53 1450.39 Q1594.85 1450.39 1597.96 1452.83 Q1601.06 1455.23 1601.06 1459.35 Q1601.06 1462.22 1599.41 1464.21 Q1597.77 1466.18 1594.74 1466.95 Z" fill="#000000" fill-rule="nonzero" fill-opacity="1" /><path clip-path="url(#clip780)" d="M1620.73 1454.1 Q1617.12 1454.1 1615.29 1457.66 Q1613.49 1461.2 1613.49 1468.33 Q1613.49 1475.44 1615.29 1479.01 Q1617.12 1482.55 1620.73 1482.55 Q1624.37 1482.55 1626.17 1479.01 Q1628 1475.44 1628 1468.33 Q1628 1461.2 1626.17 1457.66 Q1624.37 1454.1 1620.73 1454.1 M1620.73 1450.39 Q1626.54 1450.39 1629.6 1455 Q1632.68 1459.58 1632.68 1468.33 Q1632.68 1477.06 1629.6 1481.67 Q1626.54 1486.25 1620.73 1486.25 Q1614.92 1486.25 1611.85 1481.67 Q1608.79 1477.06 1608.79 1468.33 Q1608.79 1459.58 1611.85 1455 Q1614.92 1450.39 1620.73 1450.39 Z" fill="#000000" fill-rule="nonzero" fill-opacity="1" /><path clip-path="url(#clip780)" d="M2091.97 1455.09 L2080.17 1473.54 L2091.97 1473.54 L2091.97 1455.09 M2090.75 1451.02 L2096.63 1451.02 L2096.63 1473.54 L2101.56 1473.54 L2101.56 1477.43 L2096.63 1477.43 L2096.63 1485.58 L2091.97 1485.58 L2091.97 1477.43 L2076.37 1477.43 L2076.37 1472.92 L2090.75 1451.02 Z" fill="#000000" fill-rule="nonzero" fill-opacity="1" /><path clip-path="url(#clip780)" d="M2119.29 1454.1 Q2115.68 1454.1 2113.85 1457.66 Q2112.04 1461.2 2112.04 1468.33 Q2112.04 1475.44 2113.85 1479.01 Q2115.68 1482.55 2119.29 1482.55 Q2122.92 1482.55 2124.73 1479.01 Q2126.56 1475.44 2126.56 1468.33 Q2126.56 1461.2 2124.73 1457.66 Q2122.92 1454.1 2119.29 1454.1 M2119.29 1450.39 Q2125.1 1450.39 2128.15 1455 Q2131.23 1459.58 2131.23 1468.33 Q2131.23 1477.06 2128.15 1481.67 Q2125.1 1486.25 2119.29 1486.25 Q2113.48 1486.25 2110.4 1481.67 Q2107.34 1477.06 2107.34 1468.33 Q2107.34 1459.58 2110.4 1455 Q2113.48 1450.39 2119.29 1450.39 Z" fill="#000000" fill-rule="nonzero" fill-opacity="1" /><path clip-path="url(#clip780)" d="M1231.53 1522.27 L1231.53 1532.4 L1243.59 1532.4 L1243.59 1536.95 L1231.53 1536.95 L1231.53 1556.3 Q1231.53 1560.66 1232.71 1561.9 Q1233.91 1563.14 1237.58 1563.14 L1243.59 1563.14 L1243.59 1568.04 L1237.58 1568.04 Q1230.8 1568.04 1228.22 1565.53 Q1225.64 1562.98 1225.64 1556.3 L1225.64 1536.95 L1221.34 1536.95 L1221.34 1532.4 L1225.64 1532.4 L1225.64 1522.27 L1231.53 1522.27 Z" fill="#000000" fill-rule="nonzero" fill-opacity="1" /><polyline clip-path="url(#clip780)" style="stroke:#000000; stroke-linecap:round; stroke-linejoin:round; stroke-width:4; stroke-opacity:1; fill:none" points="112.177,1423.18 112.177,47.2441 "/>
<polyline clip-path="url(#clip780)" style="stroke:#000000; stroke-linecap:round; stroke-linejoin:round; stroke-width:4; stroke-opacity:1; fill:none" points="112.177,1409.12 131.075,1409.12 "/>
<polyline clip-path="url(#clip780)" style="stroke:#000000; stroke-linecap:round; stroke-linejoin:round; stroke-width:4; stroke-opacity:1; fill:none" points="112.177,1122.01 131.075,1122.01 "/>
<polyline clip-path="url(#clip780)" style="stroke:#000000; stroke-linecap:round; stroke-linejoin:round; stroke-width:4; stroke-opacity:1; fill:none" points="112.177,834.898 131.075,834.898 "/>
<polyline clip-path="url(#clip780)" style="stroke:#000000; stroke-linecap:round; stroke-linejoin:round; stroke-width:4; stroke-opacity:1; fill:none" points="112.177,547.787 131.075,547.787 "/>
<polyline clip-path="url(#clip780)" style="stroke:#000000; stroke-linecap:round; stroke-linejoin:round; stroke-width:4; stroke-opacity:1; fill:none" points="112.177,260.676 131.075,260.676 "/>
<path clip-path="url(#clip780)" d="M64.2328 1394.92 Q60.6217 1394.92 58.793 1398.48 Q56.9875 1402.02 56.9875 1409.15 Q56.9875 1416.26 58.793 1419.83 Q60.6217 1423.37 64.2328 1423.37 Q67.867 1423.37 69.6726 1419.83 Q71.5013 1416.26 71.5013 1409.15 Q71.5013 1402.02 69.6726 1398.48 Q67.867 1394.92 64.2328 1394.92 M64.2328 1391.21 Q70.0429 1391.21 73.0985 1395.82 Q76.1772 1400.4 76.1772 1409.15 Q76.1772 1417.88 73.0985 1422.49 Q70.0429 1427.07 64.2328 1427.07 Q58.4226 1427.07 55.344 1422.49 Q52.2884 1417.88 52.2884 1409.15 Q52.2884 1400.4 55.344 1395.82 Q58.4226 1391.21 64.2328 1391.21 Z" fill="#000000" fill-rule="nonzero" fill-opacity="1" /><path clip-path="url(#clip780)" d="M56.2699 1135.35 L63.9087 1135.35 L63.9087 1108.99 L55.5986 1110.65 L55.5986 1106.4 L63.8624 1104.73 L68.5383 1104.73 L68.5383 1135.35 L76.1772 1135.35 L76.1772 1139.29 L56.2699 1139.29 L56.2699 1135.35 Z" fill="#000000" fill-rule="nonzero" fill-opacity="1" /><path clip-path="url(#clip780)" d="M59.8578 848.242 L76.1772 848.242 L76.1772 852.178 L54.2328 852.178 L54.2328 848.242 Q56.8949 845.488 61.4782 840.858 Q66.0846 836.206 67.2652 834.863 Q69.5105 832.34 70.3902 830.604 Q71.2929 828.844 71.2929 827.155 Q71.2929 824.4 69.3485 822.664 Q67.4272 820.928 64.3254 820.928 Q62.1263 820.928 59.6726 821.692 Q57.2421 822.456 54.4643 824.006 L54.4643 819.284 Q57.2884 818.15 59.7421 817.571 Q62.1958 816.993 64.2328 816.993 Q69.6031 816.993 72.7976 819.678 Q75.992 822.363 75.992 826.854 Q75.992 828.983 75.1818 830.905 Q74.3948 832.803 72.2883 835.395 Q71.7096 836.067 68.6078 839.284 Q65.5059 842.479 59.8578 848.242 Z" fill="#000000" fill-rule="nonzero" fill-opacity="1" /><path clip-path="url(#clip780)" d="M69.0476 546.433 Q72.404 547.15 74.279 549.419 Q76.1772 551.687 76.1772 555.021 Q76.1772 560.136 72.6587 562.937 Q69.1402 565.738 62.6587 565.738 Q60.4828 565.738 58.168 565.298 Q55.8764 564.882 53.4227 564.025 L53.4227 559.511 Q55.3671 560.645 57.6819 561.224 Q59.9967 561.803 62.5198 561.803 Q66.918 561.803 69.2096 560.067 Q71.5244 558.331 71.5244 555.021 Q71.5244 551.965 69.3717 550.252 Q67.242 548.516 63.4226 548.516 L59.3949 548.516 L59.3949 544.673 L63.6078 544.673 Q67.0569 544.673 68.8855 543.308 Q70.7142 541.919 70.7142 539.326 Q70.7142 536.664 68.8161 535.252 Q66.9411 533.817 63.4226 533.817 Q61.5013 533.817 59.3023 534.234 Q57.1032 534.65 54.4643 535.53 L54.4643 531.363 Q57.1264 530.623 59.4412 530.252 Q61.7791 529.882 63.8393 529.882 Q69.1633 529.882 72.2652 532.312 Q75.367 534.72 75.367 538.84 Q75.367 541.71 73.7235 543.701 Q72.08 545.669 69.0476 546.433 Z" fill="#000000" fill-rule="nonzero" fill-opacity="1" /><path clip-path="url(#clip780)" d="M66.5939 247.47 L54.7884 265.919 L66.5939 265.919 L66.5939 247.47 M65.367 243.396 L71.2466 243.396 L71.2466 265.919 L76.1772 265.919 L76.1772 269.808 L71.2466 269.808 L71.2466 277.956 L66.5939 277.956 L66.5939 269.808 L50.9921 269.808 L50.9921 265.294 L65.367 243.396 Z" fill="#000000" fill-rule="nonzero" fill-opacity="1" /><polyline clip-path="url(#clip781)" style="stroke:#009af9; stroke-linecap:round; stroke-linejoin:round; stroke-width:24; stroke-opacity:1; fill:none" points="112.177,834.898 114.42,847.68 116.663,860.163 118.906,872.337 121.148,884.192 123.391,895.716 125.634,906.897 127.877,917.725 130.12,928.189 132.363,938.283 134.605,948.002 136.848,957.342 139.091,966.303 141.334,974.888 143.577,983.1 145.819,990.946 148.062,998.431 150.305,1005.57 152.548,1012.36 154.791,1018.82 157.034,1024.96 159.276,1030.8 161.519,1036.34 163.762,1041.6 166.005,1046.58 168.248,1051.3 170.491,1055.78 172.733,1060.01 174.976,1064.03 177.219,1067.82 179.462,1071.41 181.705,1074.81 183.947,1078.02 186.19,1081.06 188.433,1083.93 190.676,1086.64 192.919,1089.2 195.162,1091.61 197.404,1093.9 199.647,1096.05 201.89,1098.08 204.133,1099.99 206.376,1101.8 208.619,1103.5 210.861,1105.1 213.104,1106.61 215.347,1108.03 217.59,1109.37 219.833,1110.62 222.075,1111.8 224.318,1112.91 226.561,1113.95 228.804,1114.93 231.047,1115.84 233.29,1116.7 235.532,1117.5 237.775,1118.25 240.018,1118.95 242.261,1119.6 244.504,1120.2 246.746,1120.77 248.989,1121.29 251.232,1121.77 253.475,1122.22 255.718,1122.63 257.961,1123.01 260.203,1123.36 262.446,1123.68 264.689,1123.97 266.932,1124.24 269.175,1124.47 271.418,1124.69 273.66,1124.88 275.903,1125.05 278.146,1125.19 280.389,1125.32 282.632,1125.43 284.874,1125.51 287.117,1125.59 289.36,1125.64 291.603,1125.68 293.846,1125.7 296.089,1125.71 298.331,1125.71 300.574,1125.69 302.817,1125.66 305.06,1125.62 307.303,1125.57 309.545,1125.51 311.788,1125.43 314.031,1125.35 316.274,1125.26 318.517,1125.15 320.76,1125.04 323.002,1124.92 325.245,1124.79 327.488,1124.65 329.731,1124.51 331.974,1124.35 334.217,1124.2 336.459,1124.03 338.702,1123.86 340.945,1123.68 343.188,1123.5 345.431,1123.31 347.673,1123.11 349.916,1122.91 352.159,1122.71 354.402,1122.49 356.645,1122.28 358.888,1122.06 361.13,1121.83 363.373,1121.6 365.616,1121.37 367.859,1121.13 370.102,1120.89 372.344,1120.64 374.587,1120.39 376.83,1120.13 379.073,1119.87 381.316,1119.61 383.559,1119.34 385.801,1119.07 388.044,1118.8 390.287,1118.52 392.53,1118.24 394.773,1117.96 397.016,1117.67 399.258,1117.38 401.501,1117.09 403.744,1116.8 405.987,1116.5 408.23,1116.2 410.472,1115.89 412.715,1115.59 414.958,1115.28 417.201,1114.96 419.444,1114.65 421.687,1114.33 423.929,1114.01 426.172,1113.68 428.415,1113.35 430.658,1113.02 432.901,1112.69 435.143,1112.36 437.386,1112.02 439.629,1111.68 441.872,1111.33 444.115,1110.99 446.358,1110.64 448.6,1110.29 450.843,1109.93 453.086,1109.58 455.329,1109.22 457.572,1108.86 459.815,1108.49 462.057,1108.12 464.3,1107.76 466.543,1107.38 468.786,1107.01 471.029,1106.63 473.271,1106.26 475.514,1105.87 477.757,1105.49 480,1105.1 482.243,1104.71 484.486,1104.32 486.728,1103.93 488.971,1103.53 491.214,1103.13 493.457,1102.73 495.7,1102.33 497.942,1101.92 500.185,1101.51 502.428,1101.1 504.671,1100.68 506.914,1100.27 509.157,1099.85 511.399,1099.43 513.642,1099 515.885,1098.57 518.128,1098.15 520.371,1097.71 522.614,1097.28 524.856,1096.84 527.099,1096.4 529.342,1095.96 531.585,1095.51 533.828,1095.07 536.07,1094.62 538.313,1094.17 540.556,1093.71 542.799,1093.25 545.042,1092.79 547.285,1092.33 549.527,1091.87 551.77,1091.4 554.013,1090.93 556.256,1090.46 558.499,1089.98 560.741,1089.51 562.984,1089.03 565.227,1088.54 567.47,1088.06 569.713,1087.57 571.956,1087.08 574.198,1086.59 576.441,1086.09 578.684,1085.59 580.927,1085.09 583.17,1084.59 585.413,1084.09 587.655,1083.58 589.898,1083.07 592.141,1082.56 594.384,1082.04 596.627,1081.52 598.869,1081 601.112,1080.48 603.355,1079.95 605.598,1079.43 607.841,1078.9 610.084,1078.36 612.326,1077.83 614.569,1077.29 616.812,1076.75 619.055,1076.21 621.298,1075.66 623.54,1075.12 625.783,1074.57 628.026,1074.01 630.269,1073.46 632.512,1072.9 634.755,1072.34 636.997,1071.78 639.24,1071.21 641.483,1070.65 643.726,1070.08 645.969,1069.5 648.212,1068.93 650.454,1068.35 652.697,1067.77 654.94,1067.19 657.183,1066.61 659.426,1066.02 661.668,1065.43 663.911,1064.84 666.154,1064.24 668.397,1063.64 670.64,1063.05 672.883,1062.44 675.125,1061.84 677.368,1061.24 679.611,1060.63 681.854,1060.02 684.097,1059.41 686.339,1058.79 688.582,1058.18 690.825,1057.56 693.068,1056.94 695.311,1056.32 697.554,1055.69 699.796,1055.07 702.039,1054.44 704.282,1053.81 706.525,1053.18 708.768,1052.54 711.011,1051.91 713.253,1051.27 715.496,1050.63 717.739,1049.99 719.982,1049.35 722.225,1048.71 724.467,1048.06 726.71,1047.41 728.953,1046.76 731.196,1046.11 733.439,1045.46 735.682,1044.8 737.924,1044.15 740.167,1043.49 742.41,1042.83 744.653,1042.17 746.896,1041.51 749.138,1040.84 751.381,1040.18 753.624,1039.51 755.867,1038.84 758.11,1038.17 760.353,1037.5 762.595,1036.82 764.838,1036.15 767.081,1035.47 769.324,1034.79 771.567,1034.11 773.81,1033.42 776.052,1032.74 778.295,1032.05 780.538,1031.37 782.781,1030.68 785.024,1029.99 787.266,1029.3 789.509,1028.6 791.752,1027.91 793.995,1027.21 796.238,1026.52 798.481,1025.82 800.723,1025.12 802.966,1024.42 805.209,1023.72 807.452,1023.02 809.695,1022.32 811.938,1021.61 814.18,1020.91 816.423,1020.2 818.666,1019.5 820.909,1018.79 823.152,1018.09 825.394,1017.38 827.637,1016.67 829.88,1015.97 832.123,1015.26 834.366,1014.55 836.609,1013.84 838.851,1013.13 841.094,1012.42 843.337,1011.71 845.58,1011 847.823,1010.29 850.065,1009.58 852.308,1008.87 854.551,1008.16 856.794,1007.45 859.037,1006.74 861.28,1006.03 863.522,1005.32 865.765,1004.61 868.008,1003.9 870.251,1003.19 872.494,1002.48 874.737,1001.77 876.979,1001.06 879.222,1000.35 881.465,999.635 883.708,998.924 885.951,998.214 888.193,997.504 890.436,996.794 892.679,996.084 894.922,995.374 897.165,994.664 899.408,993.954 901.65,993.245 903.893,992.535 906.136,991.826 908.379,991.117 910.622,990.408 912.864,989.7 915.107,988.992 917.35,988.285 919.593,987.578 921.836,986.872 924.079,986.167 926.321,985.463 928.564,984.759 930.807,984.057 933.05,983.355 935.293,982.655 937.536,981.955 939.778,981.257 942.021,980.56 944.264,979.864 946.507,979.17 948.75,978.477 950.992,977.786 953.235,977.095 955.478,976.407 957.721,975.72 959.964,975.034 962.207,974.35 964.449,973.668 966.692,972.987 968.935,972.308 971.178,971.631 973.421,970.955 975.663,970.281 977.906,969.609 980.149,968.938 982.392,968.27 984.635,967.603 986.878,966.938 989.12,966.274 991.363,965.613 993.606,964.953 995.849,964.295 998.092,963.639 1000.33,962.985 1002.58,962.333 1004.82,961.682 1007.06,961.033 1009.31,960.386 1011.55,959.741 1013.79,959.097 1016.03,958.455 1018.28,957.815 1020.52,957.177 1022.76,956.54 1025.01,955.905 1027.25,955.271 1029.49,954.639 1031.73,954.008 1033.98,953.379 1036.22,952.752 1038.46,952.126 1040.71,951.502 1042.95,950.879 1045.19,950.259 1047.43,949.641 1049.68,949.024 1051.92,948.41 1054.16,947.798 1056.41,947.188 1058.65,946.581 1060.89,945.975 1063.13,945.372 1065.38,944.772 1067.62,944.173 1069.86,943.578 1072.1,942.984 1074.35,942.394 1076.59,941.805 1078.83,941.22 1081.08,940.637 1083.32,940.056 1085.56,939.479 1087.8,938.904 1090.05,938.331 1092.29,937.762 1094.53,937.195 1096.78,936.631 1099.02,936.069 1101.26,935.51 1103.5,934.955 1105.75,934.401 1107.99,933.851 1110.23,933.304 1112.48,932.759 1114.72,932.217 1116.96,931.677 1119.2,931.141 1121.45,930.607 1123.69,930.076 1125.93,929.548 1128.18,929.022 1130.42,928.5 1132.66,927.979 1134.9,927.462 1137.15,926.947 1139.39,926.435 1141.63,925.925 1143.88,925.418 1146.12,924.913 1148.36,924.411 1150.6,923.912 1152.85,923.414 1155.09,922.919 1157.33,922.427 1159.57,921.937 1161.82,921.449 1164.06,920.963 1166.3,920.48 1168.55,919.998 1170.79,919.519 1173.03,919.041 1175.27,918.566 1177.52,918.094 1179.76,917.623 1182,917.155 1184.25,916.69 1186.49,916.227 1188.73,915.766 1190.97,915.308 1193.22,914.853 1195.46,914.4 1197.7,913.95 1199.95,913.502 1202.19,913.057 1204.43,912.615 1206.67,912.176 1208.92,911.739 1211.16,911.304 1213.4,910.873 1215.65,910.444 1217.89,910.018 1220.13,909.595 1222.37,909.175 1224.62,908.757 1226.86,908.342 1229.1,907.93 1231.35,907.52 1233.59,907.114 1235.83,906.71 1238.07,906.309 1240.32,905.91 1242.56,905.515 1244.8,905.122 1247.04,904.732 1249.29,904.344 1251.53,903.959 1253.77,903.577 1256.02,903.198 1258.26,902.821 1260.5,902.447 1262.74,902.076 1264.99,901.707 1267.23,901.341 1269.47,900.977 1271.72,900.616 1273.96,900.257 1276.2,899.901 1278.44,899.547 1280.69,899.195 1282.93,898.846 1285.17,898.5 1287.42,898.155 1289.66,897.813 1291.9,897.473 1294.14,897.135 1296.39,896.799 1298.63,896.466 1300.87,896.134 1303.12,895.804 1305.36,895.477 1307.6,895.151 1309.84,894.827 1312.09,894.504 1314.33,894.184 1316.57,893.865 1318.82,893.548 1321.06,893.233 1323.3,892.92 1325.54,892.609 1327.79,892.301 1330.03,891.994 1332.27,891.689 1334.51,891.386 1336.76,891.086 1339,890.787 1341.24,890.491 1343.49,890.197 1345.73,889.905 1347.97,889.615 1350.21,889.327 1352.46,889.041 1354.7,888.758 1356.94,888.476 1359.19,888.197 1361.43,887.92 1363.67,887.645 1365.91,887.372 1368.16,887.101 1370.4,886.833 1372.64,886.566 1374.89,886.302 1377.13,886.04 1379.37,885.78 1381.61,885.522 1383.86,885.266 1386.1,885.012 1388.34,884.76 1390.59,884.51 1392.83,884.263 1395.07,884.017 1397.31,883.773 1399.56,883.532 1401.8,883.292 1404.04,883.055 1406.29,882.819 1408.53,882.585 1410.77,882.353 1413.01,882.124 1415.26,881.896 1417.5,881.669 1419.74,881.445 1421.98,881.222 1424.23,881.002 1426.47,880.783 1428.71,880.565 1430.96,880.35 1433.2,880.136 1435.44,879.924 1437.68,879.713 1439.93,879.504 1442.17,879.297 1444.41,879.091 1446.66,878.886 1448.9,878.683 1451.14,878.481 1453.38,878.281 1455.63,878.082 1457.87,877.885 1460.11,877.688 1462.36,877.493 1464.6,877.299 1466.84,877.107 1469.08,876.915 1471.33,876.725 1473.57,876.535 1475.81,876.348 1478.06,876.161 1480.3,875.976 1482.54,875.793 1484.78,875.611 1487.03,875.43 1489.27,875.25 1491.51,875.072 1493.76,874.895 1496,874.72 1498.24,874.546 1500.48,874.374 1502.73,874.203 1504.97,874.033 1507.21,873.865 1509.46,873.698 1511.7,873.532 1513.94,873.368 1516.18,873.205 1518.43,873.044 1520.67,872.884 1522.91,872.725 1525.15,872.568 1527.4,872.412 1529.64,872.258 1531.88,872.105 1534.13,871.953 1536.37,871.802 1538.61,871.653 1540.85,871.506 1543.1,871.359 1545.34,871.214 1547.58,871.07 1549.83,870.928 1552.07,870.787 1554.31,870.647 1556.55,870.508 1558.8,870.371 1561.04,870.235 1563.28,870.1 1565.53,869.966 1567.77,869.834 1570.01,869.703 1572.25,869.573 1574.5,869.444 1576.74,869.316 1578.98,869.19 1581.23,869.064 1583.47,868.94 1585.71,868.817 1587.95,868.694 1590.2,868.573 1592.44,868.453 1594.68,868.334 1596.93,868.216 1599.17,868.099 1601.41,867.983 1603.65,867.868 1605.9,867.753 1608.14,867.64 1610.38,867.527 1612.62,867.416 1614.87,867.305 1617.11,867.194 1619.35,867.085 1621.6,866.977 1623.84,866.869 1626.08,866.761 1628.32,866.655 1630.57,866.549 1632.81,866.444 1635.05,866.339 1637.3,866.235 1639.54,866.132 1641.78,866.029 1644.02,865.928 1646.27,865.827 1648.51,865.726 1650.75,865.627 1653,865.528 1655.24,865.43 1657.48,865.333 1659.72,865.237 1661.97,865.141 1664.21,865.047 1666.45,864.953 1668.7,864.86 1670.94,864.767 1673.18,864.676 1675.42,864.585 1677.67,864.495 1679.91,864.406 1682.15,864.317 1684.4,864.23 1686.64,864.143 1688.88,864.057 1691.12,863.972 1693.37,863.887 1695.61,863.804 1697.85,863.721 1700.09,863.639 1702.34,863.557 1704.58,863.477 1706.82,863.397 1709.07,863.318 1711.31,863.24 1713.55,863.162 1715.79,863.085 1718.04,863.009 1720.28,862.934 1722.52,862.86 1724.77,862.786 1727.01,862.713 1729.25,862.64 1731.49,862.569 1733.74,862.498 1735.98,862.428 1738.22,862.358 1740.47,862.289 1742.71,862.221 1744.95,862.153 1747.19,862.087 1749.44,862.02 1751.68,861.955 1753.92,861.89 1756.17,861.825 1758.41,861.762 1760.65,861.699 1762.89,861.636 1765.14,861.574 1767.38,861.513 1769.62,861.452 1771.87,861.392 1774.11,861.332 1776.35,861.273 1778.59,861.214 1780.84,861.156 1783.08,861.098 1785.32,861.041 1787.56,860.984 1789.81,860.927 1792.05,860.871 1794.29,860.816 1796.54,860.761 1798.78,860.706 1801.02,860.652 1803.26,860.598 1805.51,860.544 1807.75,860.49 1809.99,860.437 1812.24,860.385 1814.48,860.332 1816.72,860.28 1818.96,860.228 1821.21,860.176 1823.45,860.124 1825.69,860.073 1827.94,860.023 1830.18,859.972 1832.42,859.922 1834.66,859.872 1836.91,859.823 1839.15,859.774 1841.39,859.726 1843.64,859.678 1845.88,859.63 1848.12,859.582 1850.36,859.535 1852.61,859.489 1854.85,859.443 1857.09,859.397 1859.34,859.351 1861.58,859.306 1863.82,859.262 1866.06,859.218 1868.31,859.174 1870.55,859.13 1872.79,859.087 1875.03,859.045 1877.28,859.003 1879.52,858.961 1881.76,858.92 1884.01,858.879 1886.25,858.838 1888.49,858.798 1890.73,858.758 1892.98,858.719 1895.22,858.68 1897.46,858.642 1899.71,858.604 1901.95,858.566 1904.19,858.529 1906.43,858.492 1908.68,858.456 1910.92,858.42 1913.16,858.384 1915.41,858.349 1917.65,858.314 1919.89,858.279 1922.13,858.245 1924.38,858.211 1926.62,858.178 1928.86,858.145 1931.11,858.112 1933.35,858.08 1935.59,858.048 1937.83,858.017 1940.08,857.986 1942.32,857.955 1944.56,857.924 1946.81,857.894 1949.05,857.864 1951.29,857.835 1953.53,857.805 1955.78,857.776 1958.02,857.748 1960.26,857.719 1962.5,857.691 1964.75,857.664 1966.99,857.636 1969.23,857.609 1971.48,857.582 1973.72,857.555 1975.96,857.529 1978.2,857.503 1980.45,857.476 1982.69,857.451 1984.93,857.425 1987.18,857.4 1989.42,857.374 1991.66,857.349 1993.9,857.325 1996.15,857.3 1998.39,857.275 2000.63,857.251 2002.88,857.227 2005.12,857.203 2007.36,857.178 2009.6,857.155 2011.85,857.131 2014.09,857.107 2016.33,857.083 2018.58,857.059 2020.82,857.036 2023.06,857.012 2025.3,856.989 2027.55,856.965 2029.79,856.942 2032.03,856.918 2034.28,856.895 2036.52,856.872 2038.76,856.848 2041,856.825 2043.25,856.802 2045.49,856.78 2047.73,856.757 2049.97,856.735 2052.22,856.712 2054.46,856.69 2056.7,856.668 2058.95,856.646 2061.19,856.624 2063.43,856.603 2065.67,856.582 2067.92,856.56 2070.16,856.539 2072.4,856.519 2074.65,856.498 2076.89,856.478 2079.13,856.457 2081.37,856.437 2083.62,856.418 2085.86,856.398 2088.1,856.379 2090.35,856.36 2092.59,856.341 2094.83,856.322 2097.07,856.304 2099.32,856.285 2101.56,856.268 2103.8,856.25 2106.05,856.232 2108.29,856.215 2110.53,856.198 2112.77,856.181 2115.02,856.164 2117.26,856.148 2119.5,856.132 2121.75,856.116 2123.99,856.1 2126.23,856.085 2128.47,856.07 2130.72,856.055 2132.96,856.04 2135.2,856.026 2137.45,856.011 2139.69,855.997 2141.93,855.983 2144.17,855.97 2146.42,855.956 2148.66,855.943 2150.9,855.93 2153.14,855.917 2155.39,855.905 2157.63,855.892 2159.87,855.88 2162.12,855.868 2164.36,855.856 2166.6,855.845 2168.84,855.833 2171.09,855.822 2173.33,855.811 2175.57,855.8 2177.82,855.789 2180.06,855.778 2182.3,855.768 2184.54,855.757 2186.79,855.747 2189.03,855.737 2191.27,855.727 2193.52,855.717 2195.76,855.707 2198,855.698 2200.24,855.688 2202.49,855.679 2204.73,855.669 2206.97,855.66 2209.22,855.65 2211.46,855.641 2213.7,855.632 2215.94,855.623 2218.19,855.613 2220.43,855.604 2222.67,855.595 2224.92,855.586 2227.16,855.576 2229.4,855.567 2231.64,855.558 2233.89,855.548 2236.13,855.539 2238.37,855.53 2240.61,855.52 2242.86,855.51 2245.1,855.5 2247.34,855.49 2249.59,855.48 2251.83,855.47 2254.07,855.46 2256.31,855.449 2258.56,855.439 2260.8,855.429 2263.04,855.419 2265.29,855.409 2267.53,855.399 2269.77,855.39 2272.01,855.38 2274.26,855.371 2276.5,855.361 2278.74,855.352 2280.99,855.343 2283.23,855.334 2285.47,855.325 2287.71,855.316 2289.96,855.307 2292.2,855.299 2294.44,855.29 2296.69,855.282 2298.93,855.273 2301.17,855.265 2303.41,855.257 2305.66,855.249 2307.9,855.241 2310.14,855.233 2312.39,855.225 2314.63,855.217 2316.87,855.21 2319.11,855.202 2321.36,855.195 2323.6,855.187 2325.84,855.18 2328.08,855.173 2330.33,855.165 2332.57,855.158 2334.81,855.151 2337.06,855.144 2339.3,855.137 2341.54,855.13 2343.78,855.124 2346.03,855.117 2348.27,855.11 2350.51,855.104 2352.76,855.097 "/>
<polyline clip-path="url(#clip781)" style="stroke:#e26f46; stroke-linecap:round; stroke-linejoin:round; stroke-width:24; stroke-opacity:1; fill:none" points="112.177,1380.41 114.42,1355.76 116.663,1332.22 118.906,1309.75 121.148,1288.32 123.391,1267.89 125.634,1248.42 127.877,1229.87 130.12,1212.21 132.363,1195.4 134.605,1179.41 136.848,1164.2 139.091,1149.73 141.334,1135.98 143.577,1122.9 145.819,1110.48 148.062,1098.67 150.305,1087.45 152.548,1076.8 154.791,1066.67 157.034,1057.05 159.276,1047.91 161.519,1039.23 163.762,1030.98 166.005,1023.15 168.248,1015.7 170.491,1008.63 172.733,1001.9 174.976,995.513 177.219,989.438 179.462,983.663 181.705,978.173 183.947,972.952 186.19,967.987 188.433,963.264 190.676,958.771 192.919,954.495 195.162,950.425 197.404,946.55 199.647,942.859 201.89,939.344 204.133,935.994 206.376,932.802 208.619,929.759 210.861,926.859 213.104,924.092 215.347,921.452 217.59,918.933 219.833,916.528 222.075,914.23 224.318,912.034 226.561,909.934 228.804,907.926 231.047,906.004 233.29,904.164 235.532,902.402 237.775,900.714 240.018,899.097 242.261,897.545 244.504,896.057 246.746,894.628 248.989,893.255 251.232,891.935 253.475,890.665 255.718,889.443 257.961,888.265 260.203,887.128 262.446,886.032 264.689,884.973 266.932,883.951 269.175,882.962 271.418,882.006 273.66,881.08 275.903,880.183 278.146,879.313 280.389,878.469 282.632,877.649 284.874,876.852 287.117,876.076 289.36,875.321 291.603,874.584 293.846,873.865 296.089,873.162 298.331,872.475 300.574,871.802 302.817,871.143 305.06,870.496 307.303,869.863 309.545,869.24 311.788,868.629 314.031,868.028 316.274,867.437 318.517,866.855 320.76,866.281 323.002,865.714 325.245,865.156 327.488,864.603 329.731,864.057 331.974,863.516 334.217,862.981 336.459,862.45 338.702,861.923 340.945,861.399 343.188,860.879 345.431,860.362 347.673,859.848 349.916,859.336 352.159,858.827 354.402,858.32 356.645,857.814 358.888,857.31 361.13,856.808 363.373,856.307 365.616,855.807 367.859,855.307 370.102,854.808 372.344,854.309 374.587,853.811 376.83,853.312 379.073,852.814 381.316,852.314 383.559,851.814 385.801,851.313 388.044,850.812 390.287,850.309 392.53,849.804 394.773,849.298 397.016,848.791 399.258,848.281 401.501,847.77 403.744,847.258 405.987,846.743 408.23,846.227 410.472,845.708 412.715,845.188 414.958,844.665 417.201,844.14 419.444,843.613 421.687,843.084 423.929,842.552 426.172,842.018 428.415,841.481 430.658,840.942 432.901,840.4 435.143,839.855 437.386,839.307 439.629,838.757 441.872,838.204 444.115,837.647 446.358,837.088 448.6,836.525 450.843,835.96 453.086,835.39 455.329,834.818 457.572,834.242 459.815,833.663 462.057,833.08 464.3,832.493 466.543,831.904 468.786,831.31 471.029,830.714 473.271,830.113 475.514,829.509 477.757,828.902 480,828.29 482.243,827.676 484.486,827.057 486.728,826.435 488.971,825.809 491.214,825.179 493.457,824.546 495.7,823.909 497.942,823.268 500.185,822.623 502.428,821.974 504.671,821.321 506.914,820.665 509.157,820.004 511.399,819.34 513.642,818.671 515.885,817.999 518.128,817.322 520.371,816.641 522.614,815.956 524.856,815.267 527.099,814.574 529.342,813.876 531.585,813.174 533.828,812.468 536.07,811.758 538.313,811.043 540.556,810.324 542.799,809.601 545.042,808.873 547.285,808.142 549.527,807.405 551.77,806.665 554.013,805.92 556.256,805.171 558.499,804.417 560.741,803.659 562.984,802.897 565.227,802.13 567.47,801.358 569.713,800.582 571.956,799.802 574.198,799.017 576.441,798.227 578.684,797.433 580.927,796.635 583.17,795.832 585.413,795.024 587.655,794.212 589.898,793.395 592.141,792.573 594.384,791.747 596.627,790.916 598.869,790.08 601.112,789.24 603.355,788.396 605.598,787.546 607.841,786.692 610.084,785.833 612.326,784.97 614.569,784.101 616.812,783.229 619.055,782.351 621.298,781.469 623.54,780.582 625.783,779.69 628.026,778.794 630.269,777.893 632.512,776.987 634.755,776.077 636.997,775.162 639.24,774.242 641.483,773.318 643.726,772.389 645.969,771.455 648.212,770.518 650.454,769.576 652.697,768.63 654.94,767.679 657.183,766.724 659.426,765.764 661.668,764.799 663.911,763.83 666.154,762.857 668.397,761.878 670.64,760.895 672.883,759.908 675.125,758.915 677.368,757.918 679.611,756.915 681.854,755.908 684.097,754.896 686.339,753.88 688.582,752.858 690.825,751.831 693.068,750.8 695.311,749.764 697.554,748.722 699.796,747.676 702.039,746.625 704.282,745.569 706.525,744.508 708.768,743.442 711.011,742.372 713.253,741.296 715.496,740.216 717.739,739.131 719.982,738.041 722.225,736.947 724.467,735.847 726.71,734.743 728.953,733.635 731.196,732.521 733.439,731.404 735.682,730.281 737.924,729.154 740.167,728.023 742.41,726.887 744.653,725.747 746.896,724.603 749.138,723.455 751.381,722.302 753.624,721.145 755.867,719.985 758.11,718.82 760.353,717.651 762.595,716.479 764.838,715.303 767.081,714.123 769.324,712.94 771.567,711.753 773.81,710.563 776.052,709.369 778.295,708.172 780.538,706.972 782.781,705.769 785.024,704.562 787.266,703.352 789.509,702.138 791.752,700.921 793.995,699.701 796.238,698.476 798.481,697.248 800.723,696.017 802.966,694.782 805.209,693.543 807.452,692.301 809.695,691.055 811.938,689.806 814.18,688.553 816.423,687.297 818.666,686.037 820.909,684.773 823.152,683.506 825.394,682.236 827.637,680.962 829.88,679.685 832.123,678.404 834.366,677.12 836.609,675.833 838.851,674.543 841.094,673.249 843.337,671.952 845.58,670.652 847.823,669.349 850.065,668.043 852.308,666.735 854.551,665.423 856.794,664.109 859.037,662.791 861.28,661.472 863.522,660.149 865.765,658.825 868.008,657.498 870.251,656.168 872.494,654.836 874.737,653.503 876.979,652.167 879.222,650.829 881.465,649.49 883.708,648.149 885.951,646.806 888.193,645.462 890.436,644.116 892.679,642.769 894.922,641.422 897.165,640.073 899.408,638.723 901.65,637.372 903.893,636.021 906.136,634.67 908.379,633.318 910.622,631.965 912.864,630.611 915.107,629.257 917.35,627.902 919.593,626.546 921.836,625.189 924.079,623.832 926.321,622.473 928.564,621.114 930.807,619.754 933.05,618.393 935.293,617.031 937.536,615.668 939.778,614.304 942.021,612.939 944.264,611.574 946.507,610.207 948.75,608.84 950.992,607.472 953.235,606.103 955.478,604.734 957.721,603.364 959.964,601.993 962.207,600.621 964.449,599.249 966.692,597.877 968.935,596.504 971.178,595.131 973.421,593.758 975.663,592.384 977.906,591.01 980.149,589.637 982.392,588.263 984.635,586.889 986.878,585.516 989.12,584.143 991.363,582.77 993.606,581.398 995.849,580.027 998.092,578.656 1000.33,577.286 1002.58,575.918 1004.82,574.55 1007.06,573.184 1009.31,571.819 1011.55,570.456 1013.79,569.094 1016.03,567.735 1018.28,566.377 1020.52,565.022 1022.76,563.668 1025.01,562.318 1027.25,560.97 1029.49,559.625 1031.73,558.283 1033.98,556.944 1036.22,555.608 1038.46,554.276 1040.71,552.946 1042.95,551.62 1045.19,550.296 1047.43,548.975 1049.68,547.656 1051.92,546.34 1054.16,545.027 1056.41,543.716 1058.65,542.407 1060.89,541.101 1063.13,539.798 1065.38,538.496 1067.62,537.198 1069.86,535.901 1072.1,534.607 1074.35,533.315 1076.59,532.026 1078.83,530.739 1081.08,529.454 1083.32,528.172 1085.56,526.892 1087.8,525.614 1090.05,524.339 1092.29,523.066 1094.53,521.796 1096.78,520.528 1099.02,519.263 1101.26,518 1103.5,516.74 1105.75,515.482 1107.99,514.227 1110.23,512.975 1112.48,511.726 1114.72,510.48 1116.96,509.236 1119.2,507.996 1121.45,506.759 1123.69,505.524 1125.93,504.294 1128.18,503.066 1130.42,501.842 1132.66,500.621 1134.9,499.404 1137.15,498.191 1139.39,496.981 1141.63,495.776 1143.88,494.574 1146.12,493.377 1148.36,492.183 1150.6,490.995 1152.85,489.81 1155.09,488.631 1157.33,487.456 1159.57,486.286 1161.82,485.121 1164.06,483.962 1166.3,482.808 1168.55,481.659 1170.79,480.516 1173.03,479.379 1175.27,478.246 1177.52,477.119 1179.76,475.998 1182,474.881 1184.25,473.768 1186.49,472.661 1188.73,471.558 1190.97,470.46 1193.22,469.367 1195.46,468.278 1197.7,467.194 1199.95,466.114 1202.19,465.038 1204.43,463.967 1206.67,462.9 1208.92,461.837 1211.16,460.778 1213.4,459.724 1215.65,458.674 1217.89,457.627 1220.13,456.585 1222.37,455.547 1224.62,454.513 1226.86,453.483 1229.1,452.457 1231.35,451.435 1233.59,450.417 1235.83,449.402 1238.07,448.392 1240.32,447.386 1242.56,446.384 1244.8,445.386 1247.04,444.392 1249.29,443.402 1251.53,442.417 1253.77,441.435 1256.02,440.457 1258.26,439.484 1260.5,438.515 1262.74,437.55 1264.99,436.59 1267.23,435.634 1269.47,434.682 1271.72,433.735 1273.96,432.792 1276.2,431.854 1278.44,430.92 1280.69,429.991 1282.93,429.067 1285.17,428.148 1287.42,427.234 1289.66,426.325 1291.9,425.421 1294.14,424.522 1296.39,423.629 1298.63,422.74 1300.87,421.858 1303.12,420.981 1305.36,420.109 1307.6,419.244 1309.84,418.384 1312.09,417.531 1314.33,416.683 1316.57,415.842 1318.82,415.007 1321.06,414.176 1323.3,413.351 1325.54,412.532 1327.79,411.717 1330.03,410.907 1332.27,410.103 1334.51,409.303 1336.76,408.508 1339,407.718 1341.24,406.932 1343.49,406.151 1345.73,405.375 1347.97,404.603 1350.21,403.835 1352.46,403.072 1354.7,402.313 1356.94,401.558 1359.19,400.808 1361.43,400.062 1363.67,399.319 1365.91,398.581 1368.16,397.848 1370.4,397.118 1372.64,396.392 1374.89,395.67 1377.13,394.952 1379.37,394.238 1381.61,393.528 1383.86,392.821 1386.1,392.119 1388.34,391.42 1390.59,390.726 1392.83,390.035 1395.07,389.348 1397.31,388.665 1399.56,387.985 1401.8,387.31 1404.04,386.638 1406.29,385.97 1408.53,385.306 1410.77,384.646 1413.01,383.989 1415.26,383.337 1417.5,382.688 1419.74,382.044 1421.98,381.403 1424.23,380.766 1426.47,380.134 1428.71,379.505 1430.96,378.881 1433.2,378.26 1435.44,377.644 1437.68,377.032 1439.93,376.424 1442.17,375.82 1444.41,375.221 1446.66,374.626 1448.9,374.036 1451.14,373.45 1453.38,372.868 1455.63,372.292 1457.87,371.72 1460.11,371.152 1462.36,370.59 1464.6,370.032 1466.84,369.48 1469.08,368.932 1471.33,368.389 1473.57,367.85 1475.81,367.315 1478.06,366.785 1480.3,366.258 1482.54,365.735 1484.78,365.217 1487.03,364.702 1489.27,364.191 1491.51,363.683 1493.76,363.18 1496,362.68 1498.24,362.183 1500.48,361.69 1502.73,361.201 1504.97,360.715 1507.21,360.232 1509.46,359.752 1511.7,359.276 1513.94,358.803 1516.18,358.333 1518.43,357.867 1520.67,357.403 1522.91,356.943 1525.15,356.485 1527.4,356.031 1529.64,355.579 1531.88,355.131 1534.13,354.685 1536.37,354.242 1538.61,353.802 1540.85,353.365 1543.1,352.931 1545.34,352.499 1547.58,352.071 1549.83,351.645 1552.07,351.222 1554.31,350.801 1556.55,350.383 1558.8,349.968 1561.04,349.556 1563.28,349.147 1565.53,348.74 1567.77,348.335 1570.01,347.934 1572.25,347.535 1574.5,347.139 1576.74,346.746 1578.98,346.355 1581.23,345.967 1583.47,345.582 1585.71,345.199 1587.95,344.819 1590.2,344.442 1592.44,344.068 1594.68,343.697 1596.93,343.328 1599.17,342.962 1601.41,342.599 1603.65,342.239 1605.9,341.882 1608.14,341.528 1610.38,341.177 1612.62,340.829 1614.87,340.483 1617.11,340.141 1619.35,339.802 1621.6,339.466 1623.84,339.134 1626.08,338.804 1628.32,338.478 1630.57,338.155 1632.81,337.836 1635.05,337.52 1637.3,337.207 1639.54,336.896 1641.78,336.589 1644.02,336.284 1646.27,335.982 1648.51,335.683 1650.75,335.386 1653,335.091 1655.24,334.799 1657.48,334.51 1659.72,334.222 1661.97,333.938 1664.21,333.655 1666.45,333.375 1668.7,333.097 1670.94,332.821 1673.18,332.547 1675.42,332.276 1677.67,332.006 1679.91,331.738 1682.15,331.473 1684.4,331.209 1686.64,330.948 1688.88,330.688 1691.12,330.43 1693.37,330.174 1695.61,329.92 1697.85,329.668 1700.09,329.418 1702.34,329.169 1704.58,328.922 1706.82,328.677 1709.07,328.433 1711.31,328.191 1713.55,327.951 1715.79,327.713 1718.04,327.476 1720.28,327.241 1722.52,327.007 1724.77,326.775 1727.01,326.544 1729.25,326.315 1731.49,326.088 1733.74,325.862 1735.98,325.638 1738.22,325.415 1740.47,325.194 1742.71,324.975 1744.95,324.757 1747.19,324.54 1749.44,324.325 1751.68,324.112 1753.92,323.9 1756.17,323.689 1758.41,323.481 1760.65,323.273 1762.89,323.068 1765.14,322.863 1767.38,322.661 1769.62,322.46 1771.87,322.26 1774.11,322.062 1776.35,321.866 1778.59,321.672 1780.84,321.479 1783.08,321.287 1785.32,321.098 1787.56,320.91 1789.81,320.724 1792.05,320.539 1794.29,320.356 1796.54,320.175 1798.78,319.996 1801.02,319.819 1803.26,319.643 1805.51,319.469 1807.75,319.298 1809.99,319.128 1812.24,318.96 1814.48,318.794 1816.72,318.63 1818.96,318.468 1821.21,318.308 1823.45,318.15 1825.69,317.993 1827.94,317.838 1830.18,317.685 1832.42,317.533 1834.66,317.382 1836.91,317.233 1839.15,317.086 1841.39,316.939 1843.64,316.794 1845.88,316.651 1848.12,316.508 1850.36,316.367 1852.61,316.227 1854.85,316.089 1857.09,315.951 1859.34,315.815 1861.58,315.679 1863.82,315.545 1866.06,315.412 1868.31,315.28 1870.55,315.149 1872.79,315.019 1875.03,314.89 1877.28,314.762 1879.52,314.635 1881.76,314.508 1884.01,314.383 1886.25,314.259 1888.49,314.135 1890.73,314.012 1892.98,313.89 1895.22,313.769 1897.46,313.649 1899.71,313.53 1901.95,313.411 1904.19,313.293 1906.43,313.176 1908.68,313.059 1910.92,312.944 1913.16,312.829 1915.41,312.715 1917.65,312.601 1919.89,312.489 1922.13,312.376 1924.38,312.265 1926.62,312.154 1928.86,312.045 1931.11,311.935 1933.35,311.827 1935.59,311.719 1937.83,311.612 1940.08,311.505 1942.32,311.399 1944.56,311.294 1946.81,311.19 1949.05,311.086 1951.29,310.983 1953.53,310.881 1955.78,310.779 1958.02,310.678 1960.26,310.578 1962.5,310.479 1964.75,310.38 1966.99,310.282 1969.23,310.185 1971.48,310.088 1973.72,309.993 1975.96,309.898 1978.2,309.804 1980.45,309.711 1982.69,309.618 1984.93,309.527 1987.18,309.436 1989.42,309.347 1991.66,309.258 1993.9,309.17 1996.15,309.083 1998.39,308.997 2000.63,308.912 2002.88,308.828 2005.12,308.745 2007.36,308.663 2009.6,308.582 2011.85,308.502 2014.09,308.423 2016.33,308.346 2018.58,308.269 2020.82,308.194 2023.06,308.12 2025.3,308.047 2027.55,307.976 2029.79,307.906 2032.03,307.836 2034.28,307.768 2036.52,307.7 2038.76,307.633 2041,307.568 2043.25,307.503 2045.49,307.438 2047.73,307.375 2049.97,307.312 2052.22,307.25 2054.46,307.189 2056.7,307.128 2058.95,307.068 2061.19,307.009 2063.43,306.95 2065.67,306.891 2067.92,306.833 2070.16,306.776 2072.4,306.719 2074.65,306.663 2076.89,306.607 2079.13,306.551 2081.37,306.496 2083.62,306.441 2085.86,306.387 2088.1,306.332 2090.35,306.279 2092.59,306.225 2094.83,306.172 2097.07,306.119 2099.32,306.066 2101.56,306.013 2103.8,305.961 2106.05,305.909 2108.29,305.857 2110.53,305.805 2112.77,305.754 2115.02,305.702 2117.26,305.651 2119.5,305.6 2121.75,305.549 2123.99,305.499 2126.23,305.448 2128.47,305.398 2130.72,305.347 2132.96,305.297 2135.2,305.247 2137.45,305.197 2139.69,305.148 2141.93,305.098 2144.17,305.048 2146.42,304.999 2148.66,304.95 2150.9,304.901 2153.14,304.852 2155.39,304.803 2157.63,304.754 2159.87,304.705 2162.12,304.657 2164.36,304.609 2166.6,304.561 2168.84,304.513 2171.09,304.465 2173.33,304.418 2175.57,304.37 2177.82,304.323 2180.06,304.276 2182.3,304.23 2184.54,304.184 2186.79,304.138 2189.03,304.092 2191.27,304.046 2193.52,304.001 2195.76,303.957 2198,303.912 2200.24,303.868 2202.49,303.825 2204.73,303.781 2206.97,303.739 2209.22,303.696 2211.46,303.655 2213.7,303.613 2215.94,303.573 2218.19,303.533 2220.43,303.493 2222.67,303.454 2224.92,303.416 2227.16,303.378 2229.4,303.341 2231.64,303.305 2233.89,303.27 2236.13,303.235 2238.37,303.201 2240.61,303.168 2242.86,303.136 2245.1,303.105 2247.34,303.075 2249.59,303.045 2251.83,303.017 2254.07,302.99 2256.31,302.963 2258.56,302.937 2260.8,302.91 2263.04,302.884 2265.29,302.858 2267.53,302.832 2269.77,302.806 2272.01,302.781 2274.26,302.755 2276.5,302.73 2278.74,302.704 2280.99,302.679 2283.23,302.655 2285.47,302.63 2287.71,302.605 2289.96,302.581 2292.2,302.556 2294.44,302.532 2296.69,302.508 2298.93,302.484 2301.17,302.461 2303.41,302.437 2305.66,302.414 2307.9,302.39 2310.14,302.367 2312.39,302.344 2314.63,302.322 2316.87,302.299 2319.11,302.276 2321.36,302.254 2323.6,302.232 2325.84,302.21 2328.08,302.188 2330.33,302.166 2332.57,302.145 2334.81,302.124 2337.06,302.102 2339.3,302.081 2341.54,302.06 2343.78,302.04 2346.03,302.019 2348.27,301.999 2350.51,301.979 2352.76,301.959 "/>
<circle clip-path="url(#clip781)" cx="112.177" cy="846.662" r="21.6" fill="#009af9" fill-rule="evenodd" fill-opacity="0.7" stroke="#000000" stroke-opacity="0.7" stroke-width="3.2"/>
<circle clip-path="url(#clip781)" cx="230.102" cy="1102.25" r="21.6" fill="#009af9" fill-rule="evenodd" fill-opacity="0.7" stroke="#000000" stroke-opacity="0.7" stroke-width="3.2"/>
<circle clip-path="url(#clip781)" cx="348.028" cy="1129.77" r="21.6" fill="#009af9" fill-rule="evenodd" fill-opacity="0.7" stroke="#000000" stroke-opacity="0.7" stroke-width="3.2"/>
<circle clip-path="url(#clip781)" cx="465.953" cy="1084.74" r="21.6" fill="#009af9" fill-rule="evenodd" fill-opacity="0.7" stroke="#000000" stroke-opacity="0.7" stroke-width="3.2"/>
<circle clip-path="url(#clip781)" cx="583.878" cy="1113.03" r="21.6" fill="#009af9" fill-rule="evenodd" fill-opacity="0.7" stroke="#000000" stroke-opacity="0.7" stroke-width="3.2"/>
<circle clip-path="url(#clip781)" cx="701.803" cy="1053.05" r="21.6" fill="#009af9" fill-rule="evenodd" fill-opacity="0.7" stroke="#000000" stroke-opacity="0.7" stroke-width="3.2"/>
<circle clip-path="url(#clip781)" cx="819.728" cy="1060.94" r="21.6" fill="#009af9" fill-rule="evenodd" fill-opacity="0.7" stroke="#000000" stroke-opacity="0.7" stroke-width="3.2"/>
<circle clip-path="url(#clip781)" cx="937.654" cy="1024.15" r="21.6" fill="#009af9" fill-rule="evenodd" fill-opacity="0.7" stroke="#000000" stroke-opacity="0.7" stroke-width="3.2"/>
<circle clip-path="url(#clip781)" cx="1055.58" cy="942.33" r="21.6" fill="#009af9" fill-rule="evenodd" fill-opacity="0.7" stroke="#000000" stroke-opacity="0.7" stroke-width="3.2"/>
<circle clip-path="url(#clip781)" cx="1173.5" cy="844.213" r="21.6" fill="#009af9" fill-rule="evenodd" fill-opacity="0.7" stroke="#000000" stroke-opacity="0.7" stroke-width="3.2"/>
<circle clip-path="url(#clip781)" cx="1291.43" cy="878.217" r="21.6" fill="#009af9" fill-rule="evenodd" fill-opacity="0.7" stroke="#000000" stroke-opacity="0.7" stroke-width="3.2"/>
<circle clip-path="url(#clip781)" cx="1409.35" cy="908.759" r="21.6" fill="#009af9" fill-rule="evenodd" fill-opacity="0.7" stroke="#000000" stroke-opacity="0.7" stroke-width="3.2"/>
<circle clip-path="url(#clip781)" cx="1527.28" cy="779.39" r="21.6" fill="#009af9" fill-rule="evenodd" fill-opacity="0.7" stroke="#000000" stroke-opacity="0.7" stroke-width="3.2"/>
<circle clip-path="url(#clip781)" cx="1645.2" cy="874.204" r="21.6" fill="#009af9" fill-rule="evenodd" fill-opacity="0.7" stroke="#000000" stroke-opacity="0.7" stroke-width="3.2"/>
<circle clip-path="url(#clip781)" cx="1763.13" cy="825.652" r="21.6" fill="#009af9" fill-rule="evenodd" fill-opacity="0.7" stroke="#000000" stroke-opacity="0.7" stroke-width="3.2"/>
<circle clip-path="url(#clip781)" cx="1881.06" cy="911.477" r="21.6" fill="#009af9" fill-rule="evenodd" fill-opacity="0.7" stroke="#000000" stroke-opacity="0.7" stroke-width="3.2"/>
<circle clip-path="url(#clip781)" cx="1998.98" cy="836.388" r="21.6" fill="#009af9" fill-rule="evenodd" fill-opacity="0.7" stroke="#000000" stroke-opacity="0.7" stroke-width="3.2"/>
<circle clip-path="url(#clip781)" cx="2116.91" cy="828.631" r="21.6" fill="#009af9" fill-rule="evenodd" fill-opacity="0.7" stroke="#000000" stroke-opacity="0.7" stroke-width="3.2"/>
<circle clip-path="url(#clip781)" cx="2234.83" cy="882.526" r="21.6" fill="#009af9" fill-rule="evenodd" fill-opacity="0.7" stroke="#000000" stroke-opacity="0.7" stroke-width="3.2"/>
<circle clip-path="url(#clip781)" cx="2352.76" cy="811.158" r="21.6" fill="#009af9" fill-rule="evenodd" fill-opacity="0.7" stroke="#000000" stroke-opacity="0.7" stroke-width="3.2"/>
<circle clip-path="url(#clip781)" cx="112.177" cy="1384.24" r="21.6" fill="#e26f46" fill-rule="evenodd" fill-opacity="0.7" stroke="#000000" stroke-opacity="0.7" stroke-width="3.2"/>
<circle clip-path="url(#clip781)" cx="230.102" cy="986.19" r="21.6" fill="#e26f46" fill-rule="evenodd" fill-opacity="0.7" stroke="#000000" stroke-opacity="0.7" stroke-width="3.2"/>
<circle clip-path="url(#clip781)" cx="348.028" cy="896.71" r="21.6" fill="#e26f46" fill-rule="evenodd" fill-opacity="0.7" stroke="#000000" stroke-opacity="0.7" stroke-width="3.2"/>
<circle clip-path="url(#clip781)" cx="465.953" cy="763.535" r="21.6" fill="#e26f46" fill-rule="evenodd" fill-opacity="0.7" stroke="#000000" stroke-opacity="0.7" stroke-width="3.2"/>
<circle clip-path="url(#clip781)" cx="583.878" cy="866.668" r="21.6" fill="#e26f46" fill-rule="evenodd" fill-opacity="0.7" stroke="#000000" stroke-opacity="0.7" stroke-width="3.2"/>
<circle clip-path="url(#clip781)" cx="701.803" cy="676.309" r="21.6" fill="#e26f46" fill-rule="evenodd" fill-opacity="0.7" stroke="#000000" stroke-opacity="0.7" stroke-width="3.2"/>
<circle clip-path="url(#clip781)" cx="819.728" cy="672.933" r="21.6" fill="#e26f46" fill-rule="evenodd" fill-opacity="0.7" stroke="#000000" stroke-opacity="0.7" stroke-width="3.2"/>
<circle clip-path="url(#clip781)" cx="937.654" cy="573.97" r="21.6" fill="#e26f46" fill-rule="evenodd" fill-opacity="0.7" stroke="#000000" stroke-opacity="0.7" stroke-width="3.2"/>
<circle clip-path="url(#clip781)" cx="1055.58" cy="622.732" r="21.6" fill="#e26f46" fill-rule="evenodd" fill-opacity="0.7" stroke="#000000" stroke-opacity="0.7" stroke-width="3.2"/>
<circle clip-path="url(#clip781)" cx="1173.5" cy="336.155" r="21.6" fill="#e26f46" fill-rule="evenodd" fill-opacity="0.7" stroke="#000000" stroke-opacity="0.7" stroke-width="3.2"/>
<circle clip-path="url(#clip781)" cx="1291.43" cy="235.977" r="21.6" fill="#e26f46" fill-rule="evenodd" fill-opacity="0.7" stroke="#000000" stroke-opacity="0.7" stroke-width="3.2"/>
<circle clip-path="url(#clip781)" cx="1409.35" cy="464.51" r="21.6" fill="#e26f46" fill-rule="evenodd" fill-opacity="0.7" stroke="#000000" stroke-opacity="0.7" stroke-width="3.2"/>
<circle clip-path="url(#clip781)" cx="1527.28" cy="228.966" r="21.6" fill="#e26f46" fill-rule="evenodd" fill-opacity="0.7" stroke="#000000" stroke-opacity="0.7" stroke-width="3.2"/>
<circle clip-path="url(#clip781)" cx="1645.2" cy="125.731" r="21.6" fill="#e26f46" fill-rule="evenodd" fill-opacity="0.7" stroke="#000000" stroke-opacity="0.7" stroke-width="3.2"/>
<circle clip-path="url(#clip781)" cx="1763.13" cy="424.557" r="21.6" fill="#e26f46" fill-rule="evenodd" fill-opacity="0.7" stroke="#000000" stroke-opacity="0.7" stroke-width="3.2"/>
<circle clip-path="url(#clip781)" cx="1881.06" cy="397.32" r="21.6" fill="#e26f46" fill-rule="evenodd" fill-opacity="0.7" stroke="#000000" stroke-opacity="0.7" stroke-width="3.2"/>
<circle clip-path="url(#clip781)" cx="1998.98" cy="410.517" r="21.6" fill="#e26f46" fill-rule="evenodd" fill-opacity="0.7" stroke="#000000" stroke-opacity="0.7" stroke-width="3.2"/>
<circle clip-path="url(#clip781)" cx="2116.91" cy="86.1857" r="21.6" fill="#e26f46" fill-rule="evenodd" fill-opacity="0.7" stroke="#000000" stroke-opacity="0.7" stroke-width="3.2"/>
<circle clip-path="url(#clip781)" cx="2234.83" cy="338.853" r="21.6" fill="#e26f46" fill-rule="evenodd" fill-opacity="0.7" stroke="#000000" stroke-opacity="0.7" stroke-width="3.2"/>
<circle clip-path="url(#clip781)" cx="2352.76" cy="238.449" r="21.6" fill="#e26f46" fill-rule="evenodd" fill-opacity="0.7" stroke="#000000" stroke-opacity="0.7" stroke-width="3.2"/>
<path clip-path="url(#clip780)" d="M186.863 352.309 L596.753 352.309 L596.753 93.1086 L186.863 93.1086  Z" fill="#ffffff" fill-rule="evenodd" fill-opacity="1"/>
<polyline clip-path="url(#clip780)" style="stroke:#000000; stroke-linecap:round; stroke-linejoin:round; stroke-width:4; stroke-opacity:1; fill:none" points="186.863,352.309 596.753,352.309 596.753,93.1086 186.863,93.1086 186.863,352.309 "/>
<polyline clip-path="url(#clip780)" style="stroke:#009af9; stroke-linecap:round; stroke-linejoin:round; stroke-width:20; stroke-opacity:1; fill:none" points="211.758,144.949 361.13,144.949 "/>
<path clip-path="url(#clip780)" d="M387.6 127.669 L392.623 127.669 L401.211 140.516 L409.845 127.669 L414.868 127.669 L403.757 144.266 L415.609 162.229 L410.586 162.229 L400.864 147.53 L391.072 162.229 L386.026 162.229 L398.364 143.78 L387.6 127.669 Z" fill="#000000" fill-rule="nonzero" fill-opacity="1" /><polyline clip-path="url(#clip780)" style="stroke:#e26f46; stroke-linecap:round; stroke-linejoin:round; stroke-width:20; stroke-opacity:1; fill:none" points="211.758,196.789 361.13,196.789 "/>
<path clip-path="url(#clip780)" d="M386.026 179.509 L391.049 179.509 L400.632 193.722 L410.146 179.509 L415.169 179.509 L402.947 197.61 L402.947 214.069 L398.248 214.069 L398.248 197.61 L386.026 179.509 Z" fill="#000000" fill-rule="nonzero" fill-opacity="1" /><circle clip-path="url(#clip780)" cx="286.444" cy="248.629" r="21.2677" fill="#009af9" fill-rule="evenodd" fill-opacity="0.7" stroke="#000000" stroke-opacity="0.7" stroke-width="3.15077"/>
<path clip-path="url(#clip780)" d="M387.6 231.349 L392.623 231.349 L401.211 244.196 L409.845 231.349 L414.868 231.349 L403.757 247.946 L415.609 265.909 L410.586 265.909 L400.864 251.21 L391.072 265.909 L386.026 265.909 L398.364 247.46 L387.6 231.349 Z" fill="#000000" fill-rule="nonzero" fill-opacity="1" /><path clip-path="url(#clip780)" d="M446.859 229.937 Q443.757 235.261 442.252 240.469 Q440.748 245.677 440.748 251.024 Q440.748 256.372 442.252 261.626 Q443.78 266.858 446.859 272.159 L443.155 272.159 Q439.683 266.719 437.947 261.464 Q436.234 256.21 436.234 251.024 Q436.234 245.862 437.947 240.631 Q439.66 235.4 443.155 229.937 L446.859 229.937 Z" fill="#000000" fill-rule="nonzero" fill-opacity="1" /><path clip-path="url(#clip780)" d="M472.183 243.918 L472.183 229.89 L476.442 229.89 L476.442 265.909 L472.183 265.909 L472.183 262.02 Q470.84 264.335 468.78 265.469 Q466.743 266.58 463.872 266.58 Q459.173 266.58 456.21 262.83 Q453.271 259.08 453.271 252.969 Q453.271 246.858 456.21 243.108 Q459.173 239.358 463.872 239.358 Q466.743 239.358 468.78 240.492 Q470.84 241.603 472.183 243.918 M457.669 252.969 Q457.669 257.668 459.59 260.353 Q461.535 263.015 464.914 263.015 Q468.294 263.015 470.238 260.353 Q472.183 257.668 472.183 252.969 Q472.183 248.27 470.238 245.608 Q468.294 242.923 464.914 242.923 Q461.535 242.923 459.59 245.608 Q457.669 248.27 457.669 252.969 Z" fill="#000000" fill-rule="nonzero" fill-opacity="1" /><path clip-path="url(#clip780)" d="M496.997 252.876 Q491.835 252.876 489.845 254.057 Q487.854 255.237 487.854 258.085 Q487.854 260.353 489.335 261.696 Q490.84 263.015 493.409 263.015 Q496.951 263.015 499.081 260.515 Q501.233 257.992 501.233 253.825 L501.233 252.876 L496.997 252.876 M505.493 251.117 L505.493 265.909 L501.233 265.909 L501.233 261.973 Q499.775 264.335 497.599 265.469 Q495.423 266.58 492.275 266.58 Q488.294 266.58 485.933 264.358 Q483.595 262.112 483.595 258.362 Q483.595 253.987 486.511 251.765 Q489.451 249.543 495.261 249.543 L501.233 249.543 L501.233 249.126 Q501.233 246.187 499.289 244.589 Q497.368 242.969 493.872 242.969 Q491.65 242.969 489.544 243.501 Q487.437 244.034 485.493 245.099 L485.493 241.163 Q487.831 240.261 490.03 239.821 Q492.229 239.358 494.312 239.358 Q499.937 239.358 502.715 242.274 Q505.493 245.191 505.493 251.117 Z" fill="#000000" fill-rule="nonzero" fill-opacity="1" /><path clip-path="url(#clip780)" d="M518.479 232.622 L518.479 239.983 L527.252 239.983 L527.252 243.293 L518.479 243.293 L518.479 257.367 Q518.479 260.538 519.335 261.441 Q520.215 262.344 522.877 262.344 L527.252 262.344 L527.252 265.909 L522.877 265.909 Q517.946 265.909 516.071 264.08 Q514.196 262.228 514.196 257.367 L514.196 243.293 L511.071 243.293 L511.071 239.983 L514.196 239.983 L514.196 232.622 L518.479 232.622 Z" fill="#000000" fill-rule="nonzero" fill-opacity="1" /><path clip-path="url(#clip780)" d="M544.636 252.876 Q539.474 252.876 537.483 254.057 Q535.492 255.237 535.492 258.085 Q535.492 260.353 536.974 261.696 Q538.479 263.015 541.048 263.015 Q544.59 263.015 546.719 260.515 Q548.872 257.992 548.872 253.825 L548.872 252.876 L544.636 252.876 M553.131 251.117 L553.131 265.909 L548.872 265.909 L548.872 261.973 Q547.414 264.335 545.238 265.469 Q543.062 266.58 539.914 266.58 Q535.932 266.58 533.571 264.358 Q531.233 262.112 531.233 258.362 Q531.233 253.987 534.15 251.765 Q537.09 249.543 542.9 249.543 L548.872 249.543 L548.872 249.126 Q548.872 246.187 546.928 244.589 Q545.006 242.969 541.511 242.969 Q539.289 242.969 537.182 243.501 Q535.076 244.034 533.131 245.099 L533.131 241.163 Q535.469 240.261 537.668 239.821 Q539.867 239.358 541.951 239.358 Q547.576 239.358 550.354 242.274 Q553.131 245.191 553.131 251.117 Z" fill="#000000" fill-rule="nonzero" fill-opacity="1" /><path clip-path="url(#clip780)" d="M561.233 229.937 L564.937 229.937 Q568.409 235.4 570.122 240.631 Q571.858 245.862 571.858 251.024 Q571.858 256.21 570.122 261.464 Q568.409 266.719 564.937 272.159 L561.233 272.159 Q564.312 266.858 565.816 261.626 Q567.344 256.372 567.344 251.024 Q567.344 245.677 565.816 240.469 Q564.312 235.261 561.233 229.937 Z" fill="#000000" fill-rule="nonzero" fill-opacity="1" /><circle clip-path="url(#clip780)" cx="286.444" cy="300.469" r="21.2677" fill="#e26f46" fill-rule="evenodd" fill-opacity="0.7" stroke="#000000" stroke-opacity="0.7" stroke-width="3.15077"/>
<path clip-path="url(#clip780)" d="M386.026 283.189 L391.049 283.189 L400.632 297.402 L410.146 283.189 L415.169 283.189 L402.947 301.29 L402.947 317.749 L398.248 317.749 L398.248 301.29 L386.026 283.189 Z" fill="#000000" fill-rule="nonzero" fill-opacity="1" /><path clip-path="url(#clip780)" d="M444.845 281.777 Q441.743 287.101 440.238 292.309 Q438.734 297.517 438.734 302.864 Q438.734 308.212 440.238 313.466 Q441.766 318.698 444.845 323.999 L441.141 323.999 Q437.669 318.559 435.933 313.304 Q434.22 308.05 434.22 302.864 Q434.22 297.702 435.933 292.471 Q437.646 287.24 441.141 281.777 L444.845 281.777 Z" fill="#000000" fill-rule="nonzero" fill-opacity="1" /><path clip-path="url(#clip780)" d="M470.169 295.758 L470.169 281.73 L474.428 281.73 L474.428 317.749 L470.169 317.749 L470.169 313.86 Q468.826 316.175 466.766 317.309 Q464.729 318.42 461.859 318.42 Q457.16 318.42 454.197 314.67 Q451.257 310.92 451.257 304.809 Q451.257 298.698 454.197 294.948 Q457.16 291.198 461.859 291.198 Q464.729 291.198 466.766 292.332 Q468.826 293.443 470.169 295.758 M455.655 304.809 Q455.655 309.508 457.576 312.193 Q459.521 314.855 462.9 314.855 Q466.28 314.855 468.224 312.193 Q470.169 309.508 470.169 304.809 Q470.169 300.11 468.224 297.448 Q466.28 294.763 462.9 294.763 Q459.521 294.763 457.576 297.448 Q455.655 300.11 455.655 304.809 Z" fill="#000000" fill-rule="nonzero" fill-opacity="1" /><path clip-path="url(#clip780)" d="M494.983 304.716 Q489.821 304.716 487.831 305.897 Q485.84 307.077 485.84 309.925 Q485.84 312.193 487.321 313.536 Q488.826 314.855 491.395 314.855 Q494.937 314.855 497.067 312.355 Q499.22 309.832 499.22 305.665 L499.22 304.716 L494.983 304.716 M503.479 302.957 L503.479 317.749 L499.22 317.749 L499.22 313.813 Q497.761 316.175 495.585 317.309 Q493.409 318.42 490.261 318.42 Q486.28 318.42 483.919 316.198 Q481.581 313.952 481.581 310.202 Q481.581 305.827 484.497 303.605 Q487.437 301.383 493.247 301.383 L499.22 301.383 L499.22 300.966 Q499.22 298.027 497.275 296.429 Q495.354 294.809 491.858 294.809 Q489.636 294.809 487.53 295.341 Q485.423 295.874 483.479 296.939 L483.479 293.003 Q485.817 292.101 488.016 291.661 Q490.215 291.198 492.298 291.198 Q497.923 291.198 500.701 294.114 Q503.479 297.031 503.479 302.957 Z" fill="#000000" fill-rule="nonzero" fill-opacity="1" /><path clip-path="url(#clip780)" d="M516.465 284.462 L516.465 291.823 L525.238 291.823 L525.238 295.133 L516.465 295.133 L516.465 309.207 Q516.465 312.378 517.321 313.281 Q518.201 314.184 520.863 314.184 L525.238 314.184 L525.238 317.749 L520.863 317.749 Q515.932 317.749 514.057 315.92 Q512.182 314.068 512.182 309.207 L512.182 295.133 L509.057 295.133 L509.057 291.823 L512.182 291.823 L512.182 284.462 L516.465 284.462 Z" fill="#000000" fill-rule="nonzero" fill-opacity="1" /><path clip-path="url(#clip780)" d="M542.622 304.716 Q537.46 304.716 535.469 305.897 Q533.479 307.077 533.479 309.925 Q533.479 312.193 534.96 313.536 Q536.465 314.855 539.034 314.855 Q542.576 314.855 544.705 312.355 Q546.858 309.832 546.858 305.665 L546.858 304.716 L542.622 304.716 M551.117 302.957 L551.117 317.749 L546.858 317.749 L546.858 313.813 Q545.4 316.175 543.224 317.309 Q541.048 318.42 537.9 318.42 Q533.918 318.42 531.557 316.198 Q529.219 313.952 529.219 310.202 Q529.219 305.827 532.136 303.605 Q535.076 301.383 540.886 301.383 L546.858 301.383 L546.858 300.966 Q546.858 298.027 544.914 296.429 Q542.992 294.809 539.497 294.809 Q537.275 294.809 535.168 295.341 Q533.062 295.874 531.118 296.939 L531.118 293.003 Q533.455 292.101 535.655 291.661 Q537.854 291.198 539.937 291.198 Q545.562 291.198 548.34 294.114 Q551.117 297.031 551.117 302.957 Z" fill="#000000" fill-rule="nonzero" fill-opacity="1" /><path clip-path="url(#clip780)" d="M559.219 281.777 L562.923 281.777 Q566.395 287.24 568.108 292.471 Q569.844 297.702 569.844 302.864 Q569.844 308.05 568.108 313.304 Q566.395 318.559 562.923 323.999 L559.219 323.999 Q562.298 318.698 563.803 313.466 Q565.33 308.212 565.33 302.864 Q565.33 297.517 563.803 292.309 Q562.298 287.101 559.219 281.777 Z" fill="#000000" fill-rule="nonzero" fill-opacity="1" /></svg>
