<?xml version="1.0" encoding="utf-8"?>
<svg xmlns="http://www.w3.org/2000/svg" xmlns:xlink="http://www.w3.org/1999/xlink" width="600" height="400" viewBox="0 0 2400 1600">
<defs>
  <clipPath id="clip710">
    <rect x="0" y="0" width="2400" height="1600"/>
  </clipPath>
</defs>
<path clip-path="url(#clip710)" d="M0 1600 L2400 1600 L2400 0 L0 0  Z" fill="#ffffff" fill-rule="evenodd" fill-opacity="1"/>
<defs>
  <clipPath id="clip711">
    <rect x="112" y="47" width="2242" height="1377"/>
  </clipPath>
</defs>
<path clip-path="url(#clip710)" d="M112.177 1423.18 L2352.76 1423.18 L2352.76 47.2441 L112.177 47.2441  Z" fill="#ffffff" fill-rule="evenodd" fill-opacity="1"/>
<polyline clip-path="url(#clip711)" style="stroke:#000000; stroke-linecap:round; stroke-linejoin:round; stroke-width:2; stroke-opacity:0.1; fill:none" points="112.177,1423.18 112.177,47.2441 "/>
<polyline clip-path="url(#clip711)" style="stroke:#000000; stroke-linecap:round; stroke-linejoin:round; stroke-width:2; stroke-opacity:0.1; fill:none" points="610.084,1423.18 610.084,47.2441 "/>
<polyline clip-path="url(#clip711)" style="stroke:#000000; stroke-linecap:round; stroke-linejoin:round; stroke-width:2; stroke-opacity:0.1; fill:none" points="1107.99,1423.18 1107.99,47.2441 "/>
<polyline clip-path="url(#clip711)" style="stroke:#000000; stroke-linecap:round; stroke-linejoin:round; stroke-width:2; stroke-opacity:0.1; fill:none" points="1605.9,1423.18 1605.9,47.2441 "/>
<polyline clip-path="url(#clip711)" style="stroke:#000000; stroke-linecap:round; stroke-linejoin:round; stroke-width:2; stroke-opacity:0.1; fill:none" points="2103.8,1423.18 2103.8,47.2441 "/>
<polyline clip-path="url(#clip711)" style="stroke:#000000; stroke-linecap:round; stroke-linejoin:round; stroke-width:2; stroke-opacity:0.1; fill:none" points="112.177,1410.51 2352.76,1410.51 "/>
<polyline clip-path="url(#clip711)" style="stroke:#000000; stroke-linecap:round; stroke-linejoin:round; stroke-width:2; stroke-opacity:0.1; fill:none" points="112.177,1113.45 2352.76,1113.45 "/>
<polyline clip-path="url(#clip711)" style="stroke:#000000; stroke-linecap:round; stroke-linejoin:round; stroke-width:2; stroke-opacity:0.1; fill:none" points="112.177,816.393 2352.76,816.393 "/>
<polyline clip-path="url(#clip711)" style="stroke:#000000; stroke-linecap:round; stroke-linejoin:round; stroke-width:2; stroke-opacity:0.1; fill:none" points="112.177,519.337 2352.76,519.337 "/>
<polyline clip-path="url(#clip711)" style="stroke:#000000; stroke-linecap:round; stroke-linejoin:round; stroke-width:2; stroke-opacity:0.1; fill:none" points="112.177,222.28 2352.76,222.28 "/>
<polyline clip-path="url(#clip710)" style="stroke:#000000; stroke-linecap:round; stroke-linejoin:round; stroke-width:4; stroke-opacity:1; fill:none" points="112.177,1423.18 2352.76,1423.18 "/>
<polyline clip-path="url(#clip710)" style="stroke:#000000; stroke-linecap:round; stroke-linejoin:round; stroke-width:4; stroke-opacity:1; fill:none" points="112.177,1423.18 112.177,1404.28 "/>
<polyline clip-path="url(#clip710)" style="stroke:#000000; stroke-linecap:round; stroke-linejoin:round; stroke-width:4; stroke-opacity:1; fill:none" points="610.084,1423.18 610.084,1404.28 "/>
<polyline clip-path="url(#clip710)" style="stroke:#000000; stroke-linecap:round; stroke-linejoin:round; stroke-width:4; stroke-opacity:1; fill:none" points="1107.99,1423.18 1107.99,1404.28 "/>
<polyline clip-path="url(#clip710)" style="stroke:#000000; stroke-linecap:round; stroke-linejoin:round; stroke-width:4; stroke-opacity:1; fill:none" points="1605.9,1423.18 1605.9,1404.28 "/>
<polyline clip-path="url(#clip710)" style="stroke:#000000; stroke-linecap:round; stroke-linejoin:round; stroke-width:4; stroke-opacity:1; fill:none" points="2103.8,1423.18 2103.8,1404.28 "/>
<path clip-path="url(#clip710)" d="M112.177 1454.1 Q108.566 1454.1 106.737 1457.66 Q104.932 1461.2 104.932 1468.33 Q104.932 1475.44 106.737 1479.01 Q108.566 1482.55 112.177 1482.55 Q115.811 1482.55 117.617 1479.01 Q119.446 1475.44 119.446 1468.33 Q119.446 1461.2 117.617 1457.66 Q115.811 1454.1 112.177 1454.1 M112.177 1450.39 Q117.987 1450.39 121.043 1455 Q124.122 1459.58 124.122 1468.33 Q124.122 1477.06 121.043 1481.67 Q117.987 1486.25 112.177 1486.25 Q106.367 1486.25 103.288 1481.67 Q100.233 1477.06 100.233 1468.33 Q100.233 1459.58 103.288 1455 Q106.367 1450.39 112.177 1450.39 Z" fill="#000000" fill-rule="nonzero" fill-opacity="1" /><path clip-path="url(#clip710)" d="M584.771 1481.64 L592.41 1481.64 L592.41 1455.28 L584.1 1456.95 L584.1 1452.69 L592.364 1451.02 L597.04 1451.02 L597.04 1481.64 L604.678 1481.64 L604.678 1485.58 L584.771 1485.58 L584.771 1481.64 Z" fill="#000000" fill-rule="nonzero" fill-opacity="1" /><path clip-path="url(#clip710)" d="M624.123 1454.1 Q620.512 1454.1 618.683 1457.66 Q616.878 1461.2 616.878 1468.33 Q616.878 1475.44 618.683 1479.01 Q620.512 1482.55 624.123 1482.55 Q627.757 1482.55 629.563 1479.01 Q631.391 1475.44 631.391 1468.33 Q631.391 1461.2 629.563 1457.66 Q627.757 1454.1 624.123 1454.1 M624.123 1450.39 Q629.933 1450.39 632.989 1455 Q636.067 1459.58 636.067 1468.33 Q636.067 1477.06 632.989 1481.67 Q629.933 1486.25 624.123 1486.25 Q618.313 1486.25 615.234 1481.67 Q612.178 1477.06 612.178 1468.33 Q612.178 1459.58 615.234 1455 Q618.313 1450.39 624.123 1450.39 Z" fill="#000000" fill-rule="nonzero" fill-opacity="1" /><path clip-path="url(#clip710)" d="M1086.76 1481.64 L1103.08 1481.64 L1103.08 1485.58 L1081.14 1485.58 L1081.14 1481.64 Q1083.8 1478.89 1088.38 1474.26 Q1092.99 1469.61 1094.17 1468.27 Q1096.42 1465.74 1097.3 1464.01 Q1098.2 1462.25 1098.2 1460.56 Q1098.2 1457.8 1096.25 1456.07 Q1094.33 1454.33 1091.23 1454.33 Q1089.03 1454.33 1086.58 1455.09 Q1084.15 1455.86 1081.37 1457.41 L1081.37 1452.69 Q1084.19 1451.55 1086.65 1450.97 Q1089.1 1450.39 1091.14 1450.39 Q1096.51 1450.39 1099.7 1453.08 Q1102.9 1455.77 1102.9 1460.26 Q1102.9 1462.39 1102.09 1464.31 Q1101.3 1466.2 1099.19 1468.8 Q1098.61 1469.47 1095.51 1472.69 Q1092.41 1475.88 1086.76 1481.64 Z" fill="#000000" fill-rule="nonzero" fill-opacity="1" /><path clip-path="url(#clip710)" d="M1122.9 1454.1 Q1119.29 1454.1 1117.46 1457.66 Q1115.65 1461.2 1115.65 1468.33 Q1115.65 1475.44 1117.46 1479.01 Q1119.29 1482.55 1122.9 1482.55 Q1126.53 1482.55 1128.34 1479.01 Q1130.17 1475.44 1130.17 1468.33 Q1130.17 1461.2 1128.34 1457.66 Q1126.53 1454.1 1122.9 1454.1 M1122.9 1450.39 Q1128.71 1450.39 1131.76 1455 Q1134.84 1459.58 1134.84 1468.33 Q1134.84 1477.06 1131.76 1481.67 Q1128.71 1486.25 1122.9 1486.25 Q1117.09 1486.25 1114.01 1481.67 Q1110.95 1477.06 1110.95 1468.33 Q1110.95 1459.58 1114.01 1455 Q1117.09 1450.39 1122.9 1450.39 Z" fill="#000000" fill-rule="nonzero" fill-opacity="1" /><path clip-path="url(#clip710)" d="M1594.74 1466.95 Q1598.1 1467.66 1599.97 1469.93 Q1601.87 1472.2 1601.87 1475.53 Q1601.87 1480.65 1598.35 1483.45 Q1594.83 1486.25 1588.35 1486.25 Q1586.17 1486.25 1583.86 1485.81 Q1581.57 1485.39 1579.11 1484.54 L1579.11 1480.02 Q1581.06 1481.16 1583.37 1481.74 Q1585.69 1482.32 1588.21 1482.32 Q1592.61 1482.32 1594.9 1480.58 Q1597.22 1478.84 1597.22 1475.53 Q1597.22 1472.48 1595.06 1470.77 Q1592.93 1469.03 1589.11 1469.03 L1585.09 1469.03 L1585.09 1465.19 L1589.3 1465.19 Q1592.75 1465.19 1594.58 1463.82 Q1596.41 1462.43 1596.41 1459.84 Q1596.41 1457.18 1594.51 1455.77 Q1592.63 1454.33 1589.11 1454.33 Q1587.19 1454.33 1584.99 1454.75 Q1582.79 1455.16 1580.16 1456.04 L1580.16 1451.88 Q1582.82 1451.14 1585.13 1450.77 Q1587.47 1450.39 1589.53 1450.39 Q1594.85 1450.39 1597.96 1452.83 Q1601.06 1455.23 1601.06 1459.35 Q1601.06 1462.22 1599.41 1464.21 Q1597.77 1466.18 1594.74 1466.95 Z" fill="#000000" fill-rule="nonzero" fill-opacity="1" /><path clip-path="url(#clip710)" d="M1620.73 1454.1 Q1617.12 1454.1 1615.29 1457.66 Q1613.49 1461.2 1613.49 1468.33 Q1613.49 1475.44 1615.29 1479.01 Q1617.12 1482.55 1620.73 1482.55 Q1624.37 1482.55 1626.17 1479.01 Q1628 1475.44 1628 1468.33 Q1628 1461.2 1626.17 1457.66 Q1624.37 1454.1 1620.73 1454.1 M1620.73 1450.39 Q1626.54 1450.39 1629.6 1455 Q1632.68 1459.58 1632.68 1468.33 Q1632.68 1477.06 1629.6 1481.67 Q1626.54 1486.25 1620.73 1486.25 Q1614.92 1486.25 1611.85 1481.67 Q1608.79 1477.06 1608.79 1468.33 Q1608.79 1459.58 1611.85 1455 Q1614.92 1450.39 1620.73 1450.39 Z" fill="#000000" fill-rule="nonzero" fill-opacity="1" /><path clip-path="url(#clip710)" d="M2091.97 1455.09 L2080.17 1473.54 L2091.97 1473.54 L2091.97 1455.09 M2090.75 1451.02 L2096.63 1451.02 L2096.63 1473.54 L2101.56 1473.54 L2101.56 1477.43 L2096.63 1477.43 L2096.63 1485.58 L2091.97 1485.58 L2091.97 1477.43 L2076.37 1477.43 L2076.37 1472.92 L2090.75 1451.02 Z" fill="#000000" fill-rule="nonzero" fill-opacity="1" /><path clip-path="url(#clip710)" d="M2119.29 1454.1 Q2115.68 1454.1 2113.85 1457.66 Q2112.04 1461.2 2112.04 1468.33 Q2112.04 1475.44 2113.85 1479.01 Q2115.68 1482.55 2119.29 1482.55 Q2122.92 1482.55 2124.73 1479.01 Q2126.56 1475.44 2126.56 1468.33 Q2126.56 1461.2 2124.73 1457.66 Q2122.92 1454.1 2119.29 1454.1 M2119.29 1450.39 Q2125.1 1450.39 2128.15 1455 Q2131.23 1459.58 2131.23 1468.33 Q2131.23 1477.06 2128.15 1481.67 Q2125.1 1486.25 2119.29 1486.25 Q2113.48 1486.25 2110.4 1481.67 Q2107.34 1477.06 2107.34 1468.33 Q2107.34 1459.58 2110.4 1455 Q2113.48 1450.39 2119.29 1450.39 Z" fill="#000000" fill-rule="nonzero" fill-opacity="1" /><path clip-path="url(#clip710)" d="M1231.53 1522.27 L1231.53 1532.4 L1243.59 1532.4 L1243.59 1536.95 L1231.53 1536.95 L1231.53 1556.3 Q1231.53 1560.66 1232.71 1561.9 Q1233.91 1563.14 1237.58 1563.14 L1243.59 1563.14 L1243.59 1568.04 L1237.58 1568.04 Q1230.8 1568.04 1228.22 1565.53 Q1225.64 1562.98 1225.64 1556.3 L1225.64 1536.95 L1221.34 1536.95 L1221.34 1532.4 L1225.64 1532.4 L1225.64 1522.27 L1231.53 1522.27 Z" fill="#000000" fill-rule="nonzero" fill-opacity="1" /><polyline clip-path="url(#clip710)" style="stroke:#000000; stroke-linecap:round; stroke-linejoin:round; stroke-width:4; stroke-opacity:1; fill:none" points="112.177,1423.18 112.177,47.2441 "/>
<polyline clip-path="url(#clip710)" style="stroke:#000000; stroke-linecap:round; stroke-linejoin:round; stroke-width:4; stroke-opacity:1; fill:none" points="112.177,1410.51 131.075,1410.51 "/>
<polyline clip-path="url(#clip710)" style="stroke:#000000; stroke-linecap:round; stroke-linejoin:round; stroke-width:4; stroke-opacity:1; fill:none" points="112.177,1113.45 131.075,1113.45 "/>
<polyline clip-path="url(#clip710)" style="stroke:#000000; stroke-linecap:round; stroke-linejoin:round; stroke-width:4; stroke-opacity:1; fill:none" points="112.177,816.393 131.075,816.393 "/>
<polyline clip-path="url(#clip710)" style="stroke:#000000; stroke-linecap:round; stroke-linejoin:round; stroke-width:4; stroke-opacity:1; fill:none" points="112.177,519.337 131.075,519.337 "/>
<polyline clip-path="url(#clip710)" style="stroke:#000000; stroke-linecap:round; stroke-linejoin:round; stroke-width:4; stroke-opacity:1; fill:none" points="112.177,222.28 131.075,222.28 "/>
<path clip-path="url(#clip710)" d="M64.2328 1396.3 Q60.6217 1396.3 58.793 1399.87 Q56.9875 1403.41 56.9875 1410.54 Q56.9875 1417.65 58.793 1421.21 Q60.6217 1424.75 64.2328 1424.75 Q67.867 1424.75 69.6726 1421.21 Q71.5013 1417.65 71.5013 1410.54 Q71.5013 1403.41 69.6726 1399.87 Q67.867 1396.3 64.2328 1396.3 M64.2328 1392.6 Q70.0429 1392.6 73.0985 1397.21 Q76.1772 1401.79 76.1772 1410.54 Q76.1772 1419.27 73.0985 1423.87 Q70.0429 1428.46 64.2328 1428.46 Q58.4226 1428.46 55.344 1423.87 Q52.2884 1419.27 52.2884 1410.54 Q52.2884 1401.79 55.344 1397.21 Q58.4226 1392.6 64.2328 1392.6 Z" fill="#000000" fill-rule="nonzero" fill-opacity="1" /><path clip-path="url(#clip710)" d="M56.2699 1126.79 L63.9087 1126.79 L63.9087 1100.43 L55.5986 1102.1 L55.5986 1097.84 L63.8624 1096.17 L68.5383 1096.17 L68.5383 1126.79 L76.1772 1126.79 L76.1772 1130.73 L56.2699 1130.73 L56.2699 1126.79 Z" fill="#000000" fill-rule="nonzero" fill-opacity="1" /><path clip-path="url(#clip710)" d="M59.8578 829.738 L76.1772 829.738 L76.1772 833.673 L54.2328 833.673 L54.2328 829.738 Q56.8949 826.983 61.4782 822.354 Q66.0846 817.701 67.2652 816.358 Q69.5105 813.835 70.3902 812.099 Q71.2929 810.34 71.2929 808.65 Q71.2929 805.895 69.3485 804.159 Q67.4272 802.423 64.3254 802.423 Q62.1263 802.423 59.6726 803.187 Q57.2421 803.951 54.4643 805.502 L54.4643 800.78 Q57.2884 799.645 59.7421 799.067 Q62.1958 798.488 64.2328 798.488 Q69.6031 798.488 72.7976 801.173 Q75.992 803.858 75.992 808.349 Q75.992 810.479 75.1818 812.4 Q74.3948 814.298 72.2883 816.891 Q71.7096 817.562 68.6078 820.779 Q65.5059 823.974 59.8578 829.738 Z" fill="#000000" fill-rule="nonzero" fill-opacity="1" /><path clip-path="url(#clip710)" d="M69.0476 517.983 Q72.404 518.7 74.279 520.969 Q76.1772 523.237 76.1772 526.57 Q76.1772 531.686 72.6587 534.487 Q69.1402 537.288 62.6587 537.288 Q60.4828 537.288 58.168 536.848 Q55.8764 536.431 53.4227 535.575 L53.4227 531.061 Q55.3671 532.195 57.6819 532.774 Q59.9967 533.353 62.5198 533.353 Q66.918 533.353 69.2096 531.617 Q71.5244 529.881 71.5244 526.57 Q71.5244 523.515 69.3717 521.802 Q67.242 520.066 63.4226 520.066 L59.3949 520.066 L59.3949 516.223 L63.6078 516.223 Q67.0569 516.223 68.8855 514.858 Q70.7142 513.469 70.7142 510.876 Q70.7142 508.214 68.8161 506.802 Q66.9411 505.367 63.4226 505.367 Q61.5013 505.367 59.3023 505.784 Q57.1032 506.2 54.4643 507.08 L54.4643 502.913 Q57.1264 502.172 59.4412 501.802 Q61.7791 501.432 63.8393 501.432 Q69.1633 501.432 72.2652 503.862 Q75.367 506.27 75.367 510.39 Q75.367 513.26 73.7235 515.251 Q72.08 517.219 69.0476 517.983 Z" fill="#000000" fill-rule="nonzero" fill-opacity="1" /><path clip-path="url(#clip710)" d="M66.5939 209.075 L54.7884 227.523 L66.5939 227.523 L66.5939 209.075 M65.367 205 L71.2466 205 L71.2466 227.523 L76.1772 227.523 L76.1772 231.412 L71.2466 231.412 L71.2466 239.56 L66.5939 239.56 L66.5939 231.412 L50.9921 231.412 L50.9921 226.898 L65.367 205 Z" fill="#000000" fill-rule="nonzero" fill-opacity="1" /><polyline clip-path="url(#clip711)" style="stroke:#009af9; stroke-linecap:round; stroke-linejoin:round; stroke-width:24; stroke-opacity:1; fill:none" points="112.177,816.393 114.42,829.618 116.663,842.533 118.906,855.129 121.148,867.394 123.391,879.318 125.634,890.886 127.877,902.089 130.12,912.916 132.363,923.36 134.605,933.415 136.848,943.079 139.091,952.351 141.334,961.232 143.577,969.729 145.819,977.846 148.062,985.591 150.305,992.973 152.548,1000 154.791,1006.69 157.034,1013.04 159.276,1019.08 161.519,1024.81 163.762,1030.25 166.005,1035.41 168.248,1040.29 170.491,1044.92 172.733,1049.31 174.976,1053.46 177.219,1057.39 179.462,1061.1 181.705,1064.62 183.947,1067.94 186.19,1071.08 188.433,1074.05 190.676,1076.85 192.919,1079.5 195.162,1082 197.404,1084.36 199.647,1086.59 201.89,1088.69 204.133,1090.67 206.376,1092.54 208.619,1094.3 210.861,1095.96 213.104,1097.52 215.347,1098.99 217.59,1100.37 219.833,1101.67 222.075,1102.89 224.318,1104.04 226.561,1105.11 228.804,1106.12 231.047,1107.07 233.29,1107.96 235.532,1108.79 237.775,1109.56 240.018,1110.28 242.261,1110.96 244.504,1111.58 246.746,1112.16 248.989,1112.71 251.232,1113.21 253.475,1113.67 255.718,1114.1 257.961,1114.49 260.203,1114.85 262.446,1115.18 264.689,1115.48 266.932,1115.75 269.175,1116 271.418,1116.22 273.66,1116.42 275.903,1116.59 278.146,1116.74 280.389,1116.87 282.632,1116.99 284.874,1117.08 287.117,1117.15 289.36,1117.21 291.603,1117.25 293.846,1117.27 296.089,1117.28 298.331,1117.28 300.574,1117.26 302.817,1117.23 305.06,1117.19 307.303,1117.14 309.545,1117.07 311.788,1116.99 314.031,1116.91 316.274,1116.81 318.517,1116.7 320.76,1116.59 323.002,1116.46 325.245,1116.33 327.488,1116.18 329.731,1116.03 331.974,1115.88 334.217,1115.71 336.459,1115.54 338.702,1115.36 340.945,1115.18 343.188,1114.99 345.431,1114.79 347.673,1114.59 349.916,1114.38 352.159,1114.17 354.402,1113.95 356.645,1113.73 358.888,1113.5 361.13,1113.27 363.373,1113.03 365.616,1112.79 367.859,1112.54 370.102,1112.29 372.344,1112.03 374.587,1111.77 376.83,1111.51 379.073,1111.24 381.316,1110.97 383.559,1110.69 385.801,1110.41 388.044,1110.13 390.287,1109.84 392.53,1109.55 394.773,1109.26 397.016,1108.96 399.258,1108.67 401.501,1108.36 403.744,1108.06 405.987,1107.75 408.23,1107.44 410.472,1107.12 412.715,1106.8 414.958,1106.48 417.201,1106.16 419.444,1105.83 421.687,1105.5 423.929,1105.17 426.172,1104.83 428.415,1104.49 430.658,1104.15 432.901,1103.81 435.143,1103.46 437.386,1103.11 439.629,1102.76 441.872,1102.4 444.115,1102.04 446.358,1101.68 448.6,1101.32 450.843,1100.95 453.086,1100.59 455.329,1100.21 457.572,1099.84 459.815,1099.46 462.057,1099.08 464.3,1098.7 466.543,1098.32 468.786,1097.93 471.029,1097.54 473.271,1097.15 475.514,1096.76 477.757,1096.36 480,1095.96 482.243,1095.56 484.486,1095.15 486.728,1094.74 488.971,1094.33 491.214,1093.92 493.457,1093.5 495.7,1093.09 497.942,1092.67 500.185,1092.24 502.428,1091.82 504.671,1091.39 506.914,1090.96 509.157,1090.52 511.399,1090.08 513.642,1089.65 515.885,1089.2 518.128,1088.76 520.371,1088.31 522.614,1087.86 524.856,1087.41 527.099,1086.96 529.342,1086.5 531.585,1086.04 533.828,1085.58 536.07,1085.11 538.313,1084.64 540.556,1084.17 542.799,1083.7 545.042,1083.22 547.285,1082.75 549.527,1082.26 551.77,1081.78 554.013,1081.29 556.256,1080.81 558.499,1080.31 560.741,1079.82 562.984,1079.32 565.227,1078.82 567.47,1078.32 569.713,1077.82 571.956,1077.31 574.198,1076.8 576.441,1076.29 578.684,1075.77 580.927,1075.26 583.17,1074.74 585.413,1074.21 587.655,1073.69 589.898,1073.16 592.141,1072.63 594.384,1072.1 596.627,1071.56 598.869,1071.02 601.112,1070.48 603.355,1069.94 605.598,1069.39 607.841,1068.84 610.084,1068.29 612.326,1067.74 614.569,1067.18 616.812,1066.62 619.055,1066.06 621.298,1065.5 623.54,1064.93 625.783,1064.36 628.026,1063.79 630.269,1063.22 632.512,1062.64 634.755,1062.06 636.997,1061.48 639.24,1060.89 641.483,1060.31 643.726,1059.72 645.969,1059.13 648.212,1058.53 650.454,1057.93 652.697,1057.33 654.94,1056.73 657.183,1056.13 659.426,1055.52 661.668,1054.91 663.911,1054.3 666.154,1053.68 668.397,1053.06 670.64,1052.44 672.883,1051.82 675.125,1051.2 677.368,1050.57 679.611,1049.94 681.854,1049.31 684.097,1048.68 686.339,1048.04 688.582,1047.41 690.825,1046.77 693.068,1046.12 695.311,1045.48 697.554,1044.84 699.796,1044.19 702.039,1043.54 704.282,1042.89 706.525,1042.23 708.768,1041.58 711.011,1040.92 713.253,1040.26 715.496,1039.6 717.739,1038.94 719.982,1038.27 722.225,1037.61 724.467,1036.94 726.71,1036.27 728.953,1035.6 731.196,1034.92 733.439,1034.25 735.682,1033.57 737.924,1032.89 740.167,1032.21 742.41,1031.53 744.653,1030.84 746.896,1030.16 749.138,1029.47 751.381,1028.78 753.624,1028.09 755.867,1027.4 758.11,1026.7 760.353,1026.01 762.595,1025.31 764.838,1024.61 767.081,1023.91 769.324,1023.21 771.567,1022.5 773.81,1021.8 776.052,1021.09 778.295,1020.38 780.538,1019.67 782.781,1018.95 785.024,1018.24 787.266,1017.52 789.509,1016.81 791.752,1016.09 793.995,1015.37 796.238,1014.65 798.481,1013.93 800.723,1013.2 802.966,1012.48 805.209,1011.75 807.452,1011.03 809.695,1010.3 811.938,1009.58 814.18,1008.85 816.423,1008.12 818.666,1007.39 820.909,1006.66 823.152,1005.93 825.394,1005.2 827.637,1004.47 829.88,1003.73 832.123,1003 834.366,1002.27 836.609,1001.53 838.851,1000.8 841.094,1000.07 843.337,999.332 845.58,998.598 847.823,997.863 850.065,997.129 852.308,996.394 854.551,995.659 856.794,994.924 859.037,994.189 861.28,993.453 863.522,992.718 865.765,991.983 868.008,991.247 870.251,990.512 872.494,989.777 874.737,989.042 876.979,988.306 879.222,987.571 881.465,986.836 883.708,986.101 885.951,985.366 888.193,984.632 890.436,983.897 892.679,983.162 894.922,982.428 897.165,981.694 899.408,980.959 901.65,980.225 903.893,979.491 906.136,978.757 908.379,978.024 910.622,977.29 912.864,976.557 915.107,975.825 917.35,975.093 919.593,974.362 921.836,973.632 924.079,972.902 926.321,972.173 928.564,971.445 930.807,970.719 933.05,969.993 935.293,969.268 937.536,968.544 939.778,967.822 942.021,967.101 944.264,966.381 946.507,965.663 948.75,964.946 950.992,964.23 953.235,963.516 955.478,962.804 957.721,962.093 959.964,961.384 962.207,960.676 964.449,959.97 966.692,959.266 968.935,958.563 971.178,957.862 973.421,957.163 975.663,956.466 977.906,955.77 980.149,955.077 982.392,954.385 984.635,953.695 986.878,953.007 989.12,952.321 991.363,951.636 993.606,950.954 995.849,950.273 998.092,949.594 1000.33,948.917 1002.58,948.242 1004.82,947.569 1007.06,946.898 1009.31,946.228 1011.55,945.561 1013.79,944.895 1016.03,944.231 1018.28,943.568 1020.52,942.908 1022.76,942.249 1025.01,941.591 1027.25,940.936 1029.49,940.282 1031.73,939.629 1033.98,938.979 1036.22,938.329 1038.46,937.682 1040.71,937.036 1042.95,936.392 1045.19,935.75 1047.43,935.11 1049.68,934.473 1051.92,933.837 1054.16,933.204 1056.41,932.573 1058.65,931.944 1060.89,931.318 1063.13,930.694 1065.38,930.073 1067.62,929.454 1069.86,928.838 1072.1,928.224 1074.35,927.613 1076.59,927.004 1078.83,926.398 1081.08,925.795 1083.32,925.194 1085.56,924.597 1087.8,924.002 1090.05,923.409 1092.29,922.82 1094.53,922.233 1096.78,921.65 1099.02,921.069 1101.26,920.491 1103.5,919.916 1105.75,919.343 1107.99,918.774 1110.23,918.207 1112.48,917.644 1114.72,917.083 1116.96,916.525 1119.2,915.97 1121.45,915.418 1123.69,914.868 1125.93,914.322 1128.18,913.778 1130.42,913.237 1132.66,912.699 1134.9,912.163 1137.15,911.631 1139.39,911.101 1141.63,910.573 1143.88,910.049 1146.12,909.527 1148.36,909.007 1150.6,908.49 1152.85,907.976 1155.09,907.464 1157.33,906.954 1159.57,906.447 1161.82,905.942 1164.06,905.44 1166.3,904.939 1168.55,904.441 1170.79,903.945 1173.03,903.451 1175.27,902.96 1177.52,902.471 1179.76,901.984 1182,901.5 1184.25,901.018 1186.49,900.539 1188.73,900.063 1190.97,899.589 1193.22,899.118 1195.46,898.649 1197.7,898.184 1199.95,897.72 1202.19,897.26 1204.43,896.802 1206.67,896.348 1208.92,895.896 1211.16,895.446 1213.4,895 1215.65,894.556 1217.89,894.116 1220.13,893.678 1222.37,893.243 1224.62,892.81 1226.86,892.381 1229.1,891.955 1231.35,891.531 1233.59,891.11 1235.83,890.692 1238.07,890.277 1240.32,889.865 1242.56,889.456 1244.8,889.05 1247.04,888.646 1249.29,888.245 1251.53,887.847 1253.77,887.452 1256.02,887.059 1258.26,886.669 1260.5,886.282 1262.74,885.898 1264.99,885.516 1267.23,885.138 1269.47,884.761 1271.72,884.387 1273.96,884.016 1276.2,883.648 1278.44,883.282 1280.69,882.918 1282.93,882.557 1285.17,882.198 1287.42,881.842 1289.66,881.487 1291.9,881.136 1294.14,880.786 1296.39,880.439 1298.63,880.093 1300.87,879.75 1303.12,879.409 1305.36,879.07 1307.6,878.733 1309.84,878.398 1312.09,878.064 1314.33,877.733 1316.57,877.403 1318.82,877.075 1321.06,876.749 1323.3,876.425 1325.54,876.104 1327.79,875.784 1330.03,875.467 1332.27,875.152 1334.51,874.838 1336.76,874.528 1339,874.219 1341.24,873.912 1343.49,873.608 1345.73,873.305 1347.97,873.005 1350.21,872.708 1352.46,872.412 1354.7,872.119 1356.94,871.828 1359.19,871.539 1361.43,871.252 1363.67,870.967 1365.91,870.685 1368.16,870.405 1370.4,870.127 1372.64,869.851 1374.89,869.578 1377.13,869.306 1379.37,869.037 1381.61,868.77 1383.86,868.506 1386.1,868.243 1388.34,867.982 1390.59,867.724 1392.83,867.468 1395.07,867.214 1397.31,866.962 1399.56,866.712 1401.8,866.464 1404.04,866.218 1406.29,865.974 1408.53,865.732 1410.77,865.493 1413.01,865.255 1415.26,865.019 1417.5,864.785 1419.74,864.553 1421.98,864.322 1424.23,864.094 1426.47,863.867 1428.71,863.643 1430.96,863.42 1433.2,863.198 1435.44,862.979 1437.68,862.761 1439.93,862.544 1442.17,862.33 1444.41,862.117 1446.66,861.905 1448.9,861.695 1451.14,861.486 1453.38,861.279 1455.63,861.073 1457.87,860.869 1460.11,860.666 1462.36,860.464 1464.6,860.263 1466.84,860.064 1469.08,859.866 1471.33,859.669 1473.57,859.473 1475.81,859.279 1478.06,859.086 1480.3,858.895 1482.54,858.705 1484.78,858.516 1487.03,858.329 1489.27,858.143 1491.51,857.959 1493.76,857.776 1496,857.595 1498.24,857.415 1500.48,857.236 1502.73,857.059 1504.97,856.884 1507.21,856.71 1509.46,856.537 1511.7,856.366 1513.94,856.196 1516.18,856.027 1518.43,855.86 1520.67,855.695 1522.91,855.531 1525.15,855.368 1527.4,855.207 1529.64,855.047 1531.88,854.889 1534.13,854.732 1536.37,854.576 1538.61,854.422 1540.85,854.269 1543.1,854.117 1545.34,853.967 1547.58,853.819 1549.83,853.671 1552.07,853.525 1554.31,853.381 1556.55,853.237 1558.8,853.095 1561.04,852.954 1563.28,852.815 1565.53,852.676 1567.77,852.539 1570.01,852.404 1572.25,852.269 1574.5,852.136 1576.74,852.004 1578.98,851.873 1581.23,851.743 1583.47,851.614 1585.71,851.487 1587.95,851.36 1590.2,851.235 1592.44,851.111 1594.68,850.988 1596.93,850.865 1599.17,850.744 1601.41,850.624 1603.65,850.505 1605.9,850.387 1608.14,850.269 1610.38,850.153 1612.62,850.037 1614.87,849.922 1617.11,849.808 1619.35,849.695 1621.6,849.583 1623.84,849.471 1626.08,849.36 1628.32,849.25 1630.57,849.141 1632.81,849.032 1635.05,848.924 1637.3,848.816 1639.54,848.709 1641.78,848.603 1644.02,848.498 1646.27,848.393 1648.51,848.29 1650.75,848.187 1653,848.085 1655.24,847.983 1657.48,847.883 1659.72,847.783 1661.97,847.684 1664.21,847.586 1666.45,847.489 1668.7,847.393 1670.94,847.297 1673.18,847.202 1675.42,847.109 1677.67,847.015 1679.91,846.923 1682.15,846.832 1684.4,846.741 1686.64,846.651 1688.88,846.562 1691.12,846.474 1693.37,846.387 1695.61,846.3 1697.85,846.214 1700.09,846.129 1702.34,846.045 1704.58,845.962 1706.82,845.879 1709.07,845.798 1711.31,845.717 1713.55,845.636 1715.79,845.557 1718.04,845.478 1720.28,845.401 1722.52,845.323 1724.77,845.247 1727.01,845.171 1729.25,845.097 1731.49,845.022 1733.74,844.949 1735.98,844.876 1738.22,844.804 1740.47,844.733 1742.71,844.663 1744.95,844.593 1747.19,844.524 1749.44,844.455 1751.68,844.387 1753.92,844.32 1756.17,844.253 1758.41,844.188 1760.65,844.122 1762.89,844.057 1765.14,843.993 1767.38,843.93 1769.62,843.867 1771.87,843.805 1774.11,843.743 1776.35,843.681 1778.59,843.621 1780.84,843.56 1783.08,843.501 1785.32,843.441 1787.56,843.383 1789.81,843.324 1792.05,843.266 1794.29,843.209 1796.54,843.152 1798.78,843.095 1801.02,843.039 1803.26,842.983 1805.51,842.927 1807.75,842.872 1809.99,842.817 1812.24,842.763 1814.48,842.708 1816.72,842.654 1818.96,842.6 1821.21,842.547 1823.45,842.494 1825.69,842.441 1827.94,842.388 1830.18,842.336 1832.42,842.284 1834.66,842.233 1836.91,842.182 1839.15,842.131 1841.39,842.081 1843.64,842.031 1845.88,841.982 1848.12,841.933 1850.36,841.884 1852.61,841.836 1854.85,841.788 1857.09,841.741 1859.34,841.694 1861.58,841.647 1863.82,841.601 1866.06,841.555 1868.31,841.51 1870.55,841.465 1872.79,841.421 1875.03,841.377 1877.28,841.333 1879.52,841.29 1881.76,841.247 1884.01,841.205 1886.25,841.163 1888.49,841.121 1890.73,841.08 1892.98,841.04 1895.22,840.999 1897.46,840.96 1899.71,840.92 1901.95,840.881 1904.19,840.843 1906.43,840.805 1908.68,840.767 1910.92,840.73 1913.16,840.693 1915.41,840.656 1917.65,840.62 1919.89,840.584 1922.13,840.549 1924.38,840.514 1926.62,840.48 1928.86,840.446 1931.11,840.412 1933.35,840.378 1935.59,840.345 1937.83,840.313 1940.08,840.281 1942.32,840.249 1944.56,840.217 1946.81,840.186 1949.05,840.155 1951.29,840.124 1953.53,840.094 1955.78,840.064 1958.02,840.035 1960.26,840.005 1962.5,839.976 1964.75,839.947 1966.99,839.919 1969.23,839.891 1971.48,839.863 1973.72,839.835 1975.96,839.808 1978.2,839.781 1980.45,839.754 1982.69,839.727 1984.93,839.701 1987.18,839.674 1989.42,839.648 1991.66,839.622 1993.9,839.597 1996.15,839.571 1998.39,839.546 2000.63,839.521 2002.88,839.495 2005.12,839.47 2007.36,839.446 2009.6,839.421 2011.85,839.396 2014.09,839.371 2016.33,839.347 2018.58,839.322 2020.82,839.298 2023.06,839.273 2025.3,839.249 2027.55,839.225 2029.79,839.2 2032.03,839.176 2034.28,839.152 2036.52,839.128 2038.76,839.104 2041,839.08 2043.25,839.056 2045.49,839.033 2047.73,839.01 2049.97,838.986 2052.22,838.963 2054.46,838.94 2056.7,838.917 2058.95,838.895 2061.19,838.872 2063.43,838.85 2065.67,838.828 2067.92,838.806 2070.16,838.784 2072.4,838.763 2074.65,838.742 2076.89,838.72 2079.13,838.7 2081.37,838.679 2083.62,838.658 2085.86,838.638 2088.1,838.618 2090.35,838.598 2092.59,838.579 2094.83,838.56 2097.07,838.54 2099.32,838.522 2101.56,838.503 2103.8,838.485 2106.05,838.466 2108.29,838.449 2110.53,838.431 2112.77,838.414 2115.02,838.396 2117.26,838.379 2119.5,838.363 2121.75,838.346 2123.99,838.33 2126.23,838.314 2128.47,838.298 2130.72,838.283 2132.96,838.268 2135.2,838.253 2137.45,838.238 2139.69,838.223 2141.93,838.209 2144.17,838.195 2146.42,838.181 2148.66,838.167 2150.9,838.154 2153.14,838.141 2155.39,838.128 2157.63,838.115 2159.87,838.102 2162.12,838.09 2164.36,838.078 2166.6,838.065 2168.84,838.054 2171.09,838.042 2173.33,838.03 2175.57,838.019 2177.82,838.008 2180.06,837.997 2182.3,837.986 2184.54,837.975 2186.79,837.965 2189.03,837.954 2191.27,837.944 2193.52,837.934 2195.76,837.923 2198,837.913 2200.24,837.903 2202.49,837.894 2204.73,837.884 2206.97,837.874 2209.22,837.864 2211.46,837.855 2213.7,837.845 2215.94,837.836 2218.19,837.826 2220.43,837.817 2222.67,837.807 2224.92,837.798 2227.16,837.788 2229.4,837.778 2231.64,837.769 2233.89,837.759 2236.13,837.749 2238.37,837.739 2240.61,837.73 2242.86,837.719 2245.1,837.709 2247.34,837.699 2249.59,837.689 2251.83,837.678 2254.07,837.667 2256.31,837.657 2258.56,837.646 2260.8,837.636 2263.04,837.625 2265.29,837.615 2267.53,837.605 2269.77,837.595 2272.01,837.585 2274.26,837.575 2276.5,837.565 2278.74,837.556 2280.99,837.546 2283.23,837.537 2285.47,837.528 2287.71,837.519 2289.96,837.51 2292.2,837.501 2294.44,837.492 2296.69,837.483 2298.93,837.474 2301.17,837.466 2303.41,837.457 2305.66,837.449 2307.9,837.441 2310.14,837.433 2312.39,837.424 2314.63,837.416 2316.87,837.409 2319.11,837.401 2321.36,837.393 2323.6,837.385 2325.84,837.378 2328.08,837.37 2330.33,837.363 2332.57,837.355 2334.81,837.348 2337.06,837.341 2339.3,837.334 2341.54,837.327 2343.78,837.319 2346.03,837.313 2348.27,837.306 2350.51,837.299 2352.76,837.292 "/>
<polyline clip-path="url(#clip711)" style="stroke:#e26f46; stroke-linecap:round; stroke-linejoin:round; stroke-width:24; stroke-opacity:1; fill:none" points="112.177,1380.8 114.42,1355.3 116.663,1330.94 118.906,1307.7 121.148,1285.53 123.391,1264.39 125.634,1244.24 127.877,1225.05 130.12,1206.78 132.363,1189.39 134.605,1172.84 136.848,1157.1 139.091,1142.13 141.334,1127.9 143.577,1114.37 145.819,1101.52 148.062,1089.3 150.305,1077.7 152.548,1066.67 154.791,1056.19 157.034,1046.24 159.276,1036.79 161.519,1027.8 163.762,1019.27 166.005,1011.16 168.248,1003.46 170.491,996.139 172.733,989.183 174.976,982.572 177.219,976.287 179.462,970.312 181.705,964.631 183.947,959.229 186.19,954.092 188.433,949.206 190.676,944.557 192.919,940.133 195.162,935.922 197.404,931.913 199.647,928.094 201.89,924.457 204.133,920.991 206.376,917.689 208.619,914.541 210.861,911.539 213.104,908.677 215.347,905.946 217.59,903.339 219.833,900.851 222.075,898.473 224.318,896.201 226.561,894.029 228.804,891.951 231.047,889.962 233.29,888.059 235.532,886.236 237.775,884.49 240.018,882.816 242.261,881.211 244.504,879.671 246.746,878.192 248.989,876.772 251.232,875.406 253.475,874.092 255.718,872.827 257.961,871.608 260.203,870.433 262.446,869.299 264.689,868.203 266.932,867.145 269.175,866.122 271.418,865.133 273.66,864.175 275.903,863.247 278.146,862.347 280.389,861.473 282.632,860.625 284.874,859.8 287.117,858.998 289.36,858.216 291.603,857.454 293.846,856.71 296.089,855.983 298.331,855.271 300.574,854.575 302.817,853.893 305.06,853.225 307.303,852.569 309.545,851.925 311.788,851.293 314.031,850.671 316.274,850.059 318.517,849.457 320.76,848.863 323.002,848.277 325.245,847.699 327.488,847.127 329.731,846.562 331.974,846.003 334.217,845.449 336.459,844.899 338.702,844.354 340.945,843.813 343.188,843.275 345.431,842.74 347.673,842.208 349.916,841.678 352.159,841.151 354.402,840.626 356.645,840.103 358.888,839.582 361.13,839.062 363.373,838.544 365.616,838.026 367.859,837.509 370.102,836.993 372.344,836.477 374.587,835.961 376.83,835.445 379.073,834.929 381.316,834.413 383.559,833.895 385.801,833.377 388.044,832.858 390.287,832.338 392.53,831.816 394.773,831.292 397.016,830.767 399.258,830.24 401.501,829.712 403.744,829.181 405.987,828.649 408.23,828.114 410.472,827.578 412.715,827.039 414.958,826.499 417.201,825.956 419.444,825.41 421.687,824.863 423.929,824.312 426.172,823.76 428.415,823.204 430.658,822.646 432.901,822.086 435.143,821.522 437.386,820.955 439.629,820.386 441.872,819.814 444.115,819.238 446.358,818.659 448.6,818.077 450.843,817.492 453.086,816.903 455.329,816.31 457.572,815.715 459.815,815.115 462.057,814.512 464.3,813.905 466.543,813.295 468.786,812.681 471.029,812.064 473.271,811.443 475.514,810.818 477.757,810.189 480,809.557 482.243,808.921 484.486,808.281 486.728,807.637 488.971,806.99 491.214,806.338 493.457,805.683 495.7,805.023 497.942,804.36 500.185,803.693 502.428,803.022 504.671,802.346 506.914,801.667 509.157,800.984 511.399,800.296 513.642,799.604 515.885,798.908 518.128,798.208 520.371,797.504 522.614,796.795 524.856,796.082 527.099,795.365 529.342,794.643 531.585,793.917 533.828,793.187 536.07,792.452 538.313,791.712 540.556,790.968 542.799,790.22 545.042,789.467 547.285,788.71 549.527,787.948 551.77,787.182 554.013,786.412 556.256,785.636 558.499,784.857 560.741,784.072 562.984,783.283 565.227,782.49 567.47,781.692 569.713,780.889 571.956,780.081 574.198,779.269 576.441,778.453 578.684,777.631 580.927,776.805 583.17,775.974 585.413,775.138 587.655,774.297 589.898,773.452 592.141,772.602 594.384,771.747 596.627,770.888 598.869,770.023 601.112,769.154 603.355,768.28 605.598,767.401 607.841,766.517 610.084,765.629 612.326,764.735 614.569,763.837 616.812,762.934 619.055,762.026 621.298,761.113 623.54,760.196 625.783,759.273 628.026,758.346 630.269,757.414 632.512,756.477 634.755,755.535 636.997,754.588 639.24,753.636 641.483,752.68 643.726,751.719 645.969,750.753 648.212,749.783 650.454,748.808 652.697,747.829 654.94,746.846 657.183,745.857 659.426,744.864 661.668,743.866 663.911,742.864 666.154,741.857 668.397,740.844 670.64,739.827 672.883,738.805 675.125,737.778 677.368,736.746 679.611,735.709 681.854,734.667 684.097,733.62 686.339,732.568 688.582,731.511 690.825,730.449 693.068,729.382 695.311,728.31 697.554,727.232 699.796,726.15 702.039,725.063 704.282,723.97 706.525,722.872 708.768,721.77 711.011,720.662 713.253,719.549 715.496,718.432 717.739,717.309 719.982,716.181 722.225,715.049 724.467,713.911 726.71,712.769 728.953,711.622 731.196,710.47 733.439,709.314 735.682,708.153 737.924,706.987 740.167,705.816 742.41,704.641 744.653,703.462 746.896,702.278 749.138,701.09 751.381,699.897 753.624,698.7 755.867,697.499 758.11,696.294 760.353,695.085 762.595,693.872 764.838,692.655 767.081,691.435 769.324,690.21 771.567,688.982 773.81,687.751 776.052,686.516 778.295,685.278 780.538,684.036 782.781,682.791 785.024,681.543 787.266,680.291 789.509,679.035 791.752,677.776 793.995,676.513 796.238,675.246 798.481,673.976 800.723,672.701 802.966,671.424 805.209,670.142 807.452,668.857 809.695,667.568 811.938,666.275 814.18,664.979 816.423,663.679 818.666,662.376 820.909,661.068 823.152,659.758 825.394,658.443 827.637,657.125 829.88,655.804 832.123,654.479 834.366,653.15 836.609,651.818 838.851,650.483 841.094,649.145 843.337,647.803 845.58,646.458 847.823,645.11 850.065,643.759 852.308,642.405 854.551,641.048 856.794,639.688 859.037,638.325 861.28,636.96 863.522,635.592 865.765,634.221 868.008,632.848 870.251,631.472 872.494,630.095 874.737,628.715 876.979,627.333 879.222,625.949 881.465,624.563 883.708,623.175 885.951,621.786 888.193,620.395 890.436,619.003 892.679,617.61 894.922,616.215 897.165,614.819 899.408,613.423 901.65,612.026 903.893,610.628 906.136,609.229 908.379,607.83 910.622,606.431 912.864,605.03 915.107,603.629 917.35,602.227 919.593,600.824 921.836,599.421 924.079,598.016 926.321,596.61 928.564,595.204 930.807,593.797 933.05,592.388 935.293,590.979 937.536,589.569 939.778,588.158 942.021,586.746 944.264,585.333 946.507,583.919 948.75,582.505 950.992,581.089 953.235,579.673 955.478,578.256 957.721,576.839 959.964,575.42 962.207,574.001 964.449,572.582 966.692,571.162 968.935,569.742 971.178,568.321 973.421,566.9 975.663,565.479 977.906,564.057 980.149,562.636 982.392,561.215 984.635,559.794 986.878,558.373 989.12,556.952 991.363,555.532 993.606,554.112 995.849,552.693 998.092,551.275 1000.33,549.858 1002.58,548.442 1004.82,547.027 1007.06,545.614 1009.31,544.202 1011.55,542.791 1013.79,541.382 1016.03,539.976 1018.28,538.571 1020.52,537.169 1022.76,535.768 1025.01,534.371 1027.25,532.976 1029.49,531.585 1031.73,530.196 1033.98,528.811 1036.22,527.429 1038.46,526.051 1040.71,524.675 1042.95,523.302 1045.19,521.933 1047.43,520.566 1049.68,519.201 1051.92,517.84 1054.16,516.481 1056.41,515.124 1058.65,513.771 1060.89,512.419 1063.13,511.071 1065.38,509.724 1067.62,508.381 1069.86,507.039 1072.1,505.7 1074.35,504.364 1076.59,503.03 1078.83,501.698 1081.08,500.369 1083.32,499.042 1085.56,497.718 1087.8,496.396 1090.05,495.077 1092.29,493.76 1094.53,492.445 1096.78,491.134 1099.02,489.824 1101.26,488.518 1103.5,487.214 1105.75,485.913 1107.99,484.615 1110.23,483.319 1112.48,482.027 1114.72,480.737 1116.96,479.451 1119.2,478.167 1121.45,476.887 1123.69,475.61 1125.93,474.337 1128.18,473.067 1130.42,471.8 1132.66,470.537 1134.9,469.278 1137.15,468.023 1139.39,466.771 1141.63,465.524 1143.88,464.281 1146.12,463.042 1148.36,461.807 1150.6,460.577 1152.85,459.352 1155.09,458.132 1157.33,456.916 1159.57,455.706 1161.82,454.501 1164.06,453.301 1166.3,452.107 1168.55,450.918 1170.79,449.736 1173.03,448.559 1175.27,447.388 1177.52,446.222 1179.76,445.061 1182,443.905 1184.25,442.754 1186.49,441.609 1188.73,440.468 1190.97,439.332 1193.22,438.201 1195.46,437.074 1197.7,435.952 1199.95,434.835 1202.19,433.722 1204.43,432.613 1206.67,431.509 1208.92,430.41 1211.16,429.314 1213.4,428.223 1215.65,427.137 1217.89,426.054 1220.13,424.976 1222.37,423.902 1224.62,422.832 1226.86,421.766 1229.1,420.704 1231.35,419.647 1233.59,418.594 1235.83,417.544 1238.07,416.499 1240.32,415.458 1242.56,414.422 1244.8,413.389 1247.04,412.361 1249.29,411.337 1251.53,410.317 1253.77,409.301 1256.02,408.29 1258.26,407.283 1260.5,406.28 1262.74,405.282 1264.99,404.288 1267.23,403.299 1269.47,402.314 1271.72,401.334 1273.96,400.358 1276.2,399.388 1278.44,398.422 1280.69,397.461 1282.93,396.505 1285.17,395.554 1287.42,394.608 1289.66,393.667 1291.9,392.732 1294.14,391.802 1296.39,390.878 1298.63,389.959 1300.87,389.046 1303.12,388.138 1305.36,387.237 1307.6,386.341 1309.84,385.452 1312.09,384.569 1314.33,383.692 1316.57,382.822 1318.82,381.957 1321.06,381.098 1323.3,380.245 1325.54,379.396 1327.79,378.554 1330.03,377.716 1332.27,376.883 1334.51,376.056 1336.76,375.233 1339,374.416 1341.24,373.603 1343.49,372.795 1345.73,371.991 1347.97,371.193 1350.21,370.398 1352.46,369.609 1354.7,368.824 1356.94,368.043 1359.19,367.266 1361.43,366.494 1363.67,365.727 1365.91,364.963 1368.16,364.204 1370.4,363.448 1372.64,362.697 1374.89,361.951 1377.13,361.208 1379.37,360.469 1381.61,359.734 1383.86,359.003 1386.1,358.277 1388.34,357.554 1390.59,356.835 1392.83,356.12 1395.07,355.41 1397.31,354.703 1399.56,354 1401.8,353.301 1404.04,352.606 1406.29,351.915 1408.53,351.228 1410.77,350.544 1413.01,349.865 1415.26,349.19 1417.5,348.519 1419.74,347.852 1421.98,347.19 1424.23,346.531 1426.47,345.876 1428.71,345.226 1430.96,344.58 1433.2,343.938 1435.44,343.3 1437.68,342.667 1439.93,342.038 1442.17,341.413 1444.41,340.793 1446.66,340.178 1448.9,339.567 1451.14,338.961 1453.38,338.359 1455.63,337.763 1457.87,337.171 1460.11,336.584 1462.36,336.002 1464.6,335.425 1466.84,334.853 1469.08,334.286 1471.33,333.725 1473.57,333.167 1475.81,332.614 1478.06,332.065 1480.3,331.52 1482.54,330.979 1484.78,330.443 1487.03,329.91 1489.27,329.381 1491.51,328.856 1493.76,328.335 1496,327.818 1498.24,327.304 1500.48,326.794 1502.73,326.287 1504.97,325.784 1507.21,325.285 1509.46,324.789 1511.7,324.296 1513.94,323.807 1516.18,323.321 1518.43,322.838 1520.67,322.358 1522.91,321.882 1525.15,321.408 1527.4,320.938 1529.64,320.471 1531.88,320.007 1534.13,319.546 1536.37,319.088 1538.61,318.633 1540.85,318.18 1543.1,317.731 1545.34,317.285 1547.58,316.841 1549.83,316.4 1552.07,315.963 1554.31,315.528 1556.55,315.095 1558.8,314.666 1561.04,314.239 1563.28,313.816 1565.53,313.395 1567.77,312.976 1570.01,312.561 1572.25,312.148 1574.5,311.739 1576.74,311.332 1578.98,310.927 1581.23,310.526 1583.47,310.127 1585.71,309.732 1587.95,309.339 1590.2,308.949 1592.44,308.561 1594.68,308.177 1596.93,307.796 1599.17,307.417 1601.41,307.042 1603.65,306.669 1605.9,306.3 1608.14,305.933 1610.38,305.57 1612.62,305.21 1614.87,304.853 1617.11,304.499 1619.35,304.148 1621.6,303.8 1623.84,303.456 1626.08,303.115 1628.32,302.778 1630.57,302.444 1632.81,302.113 1635.05,301.786 1637.3,301.462 1639.54,301.141 1641.78,300.823 1644.02,300.508 1646.27,300.195 1648.51,299.885 1650.75,299.578 1653,299.273 1655.24,298.971 1657.48,298.672 1659.72,298.375 1661.97,298.08 1664.21,297.788 1666.45,297.498 1668.7,297.21 1670.94,296.924 1673.18,296.641 1675.42,296.36 1677.67,296.081 1679.91,295.805 1682.15,295.53 1684.4,295.257 1686.64,294.987 1688.88,294.718 1691.12,294.451 1693.37,294.186 1695.61,293.924 1697.85,293.663 1700.09,293.403 1702.34,293.146 1704.58,292.891 1706.82,292.637 1709.07,292.385 1711.31,292.135 1713.55,291.886 1715.79,291.639 1718.04,291.394 1720.28,291.151 1722.52,290.909 1724.77,290.669 1727.01,290.431 1729.25,290.194 1731.49,289.959 1733.74,289.725 1735.98,289.493 1738.22,289.263 1740.47,289.034 1742.71,288.807 1744.95,288.581 1747.19,288.357 1749.44,288.135 1751.68,287.914 1753.92,287.694 1756.17,287.477 1758.41,287.261 1760.65,287.046 1762.89,286.833 1765.14,286.622 1767.38,286.412 1769.62,286.204 1771.87,285.998 1774.11,285.793 1776.35,285.59 1778.59,285.389 1780.84,285.189 1783.08,284.991 1785.32,284.795 1787.56,284.601 1789.81,284.408 1792.05,284.217 1794.29,284.028 1796.54,283.841 1798.78,283.655 1801.02,283.472 1803.26,283.29 1805.51,283.111 1807.75,282.933 1809.99,282.757 1812.24,282.583 1814.48,282.412 1816.72,282.242 1818.96,282.075 1821.21,281.909 1823.45,281.745 1825.69,281.583 1827.94,281.423 1830.18,281.264 1832.42,281.107 1834.66,280.951 1836.91,280.797 1839.15,280.644 1841.39,280.493 1843.64,280.343 1845.88,280.194 1848.12,280.047 1850.36,279.901 1852.61,279.756 1854.85,279.613 1857.09,279.47 1859.34,279.329 1861.58,279.189 1863.82,279.05 1866.06,278.913 1868.31,278.776 1870.55,278.64 1872.79,278.506 1875.03,278.372 1877.28,278.24 1879.52,278.108 1881.76,277.978 1884.01,277.848 1886.25,277.719 1888.49,277.591 1890.73,277.464 1892.98,277.338 1895.22,277.213 1897.46,277.089 1899.71,276.965 1901.95,276.842 1904.19,276.72 1906.43,276.599 1908.68,276.479 1910.92,276.359 1913.16,276.24 1915.41,276.122 1917.65,276.004 1919.89,275.888 1922.13,275.772 1924.38,275.657 1926.62,275.542 1928.86,275.428 1931.11,275.315 1933.35,275.203 1935.59,275.091 1937.83,274.981 1940.08,274.87 1942.32,274.761 1944.56,274.652 1946.81,274.544 1949.05,274.437 1951.29,274.33 1953.53,274.224 1955.78,274.119 1958.02,274.015 1960.26,273.911 1962.5,273.808 1964.75,273.706 1966.99,273.605 1969.23,273.504 1971.48,273.405 1973.72,273.306 1975.96,273.208 1978.2,273.11 1980.45,273.014 1982.69,272.918 1984.93,272.824 1987.18,272.73 1989.42,272.637 1991.66,272.545 1993.9,272.454 1996.15,272.364 1998.39,272.275 2000.63,272.187 2002.88,272.1 2005.12,272.014 2007.36,271.93 2009.6,271.846 2011.85,271.763 2014.09,271.682 2016.33,271.602 2018.58,271.523 2020.82,271.445 2023.06,271.368 2025.3,271.293 2027.55,271.219 2029.79,271.146 2032.03,271.074 2034.28,271.003 2036.52,270.933 2038.76,270.865 2041,270.796 2043.25,270.729 2045.49,270.663 2047.73,270.597 2049.97,270.532 2052.22,270.468 2054.46,270.405 2056.7,270.342 2058.95,270.28 2061.19,270.218 2063.43,270.157 2065.67,270.097 2067.92,270.037 2070.16,269.978 2072.4,269.919 2074.65,269.86 2076.89,269.802 2079.13,269.745 2081.37,269.688 2083.62,269.631 2085.86,269.575 2088.1,269.518 2090.35,269.463 2092.59,269.407 2094.83,269.352 2097.07,269.297 2099.32,269.243 2101.56,269.188 2103.8,269.134 2106.05,269.08 2108.29,269.027 2110.53,268.973 2112.77,268.92 2115.02,268.867 2117.26,268.814 2119.5,268.761 2121.75,268.708 2123.99,268.656 2126.23,268.604 2128.47,268.551 2130.72,268.499 2132.96,268.448 2135.2,268.396 2137.45,268.344 2139.69,268.293 2141.93,268.241 2144.17,268.19 2146.42,268.139 2148.66,268.088 2150.9,268.037 2153.14,267.986 2155.39,267.936 2157.63,267.885 2159.87,267.835 2162.12,267.785 2164.36,267.735 2166.6,267.685 2168.84,267.636 2171.09,267.586 2173.33,267.537 2175.57,267.488 2177.82,267.44 2180.06,267.391 2182.3,267.343 2184.54,267.295 2186.79,267.248 2189.03,267.2 2191.27,267.153 2193.52,267.107 2195.76,267.06 2198,267.014 2200.24,266.969 2202.49,266.924 2204.73,266.879 2206.97,266.835 2209.22,266.791 2211.46,266.748 2213.7,266.705 2215.94,266.663 2218.19,266.622 2220.43,266.581 2222.67,266.54 2224.92,266.501 2227.16,266.462 2229.4,266.424 2231.64,266.386 2233.89,266.35 2236.13,266.314 2238.37,266.279 2240.61,266.245 2242.86,266.211 2245.1,266.179 2247.34,266.148 2249.59,266.118 2251.83,266.088 2254.07,266.06 2256.31,266.033 2258.56,266.005 2260.8,265.978 2263.04,265.951 2265.29,265.924 2267.53,265.897 2269.77,265.87 2272.01,265.844 2274.26,265.817 2276.5,265.791 2278.74,265.765 2280.99,265.739 2283.23,265.713 2285.47,265.688 2287.71,265.662 2289.96,265.637 2292.2,265.612 2294.44,265.587 2296.69,265.562 2298.93,265.537 2301.17,265.513 2303.41,265.488 2305.66,265.464 2307.9,265.44 2310.14,265.416 2312.39,265.392 2314.63,265.369 2316.87,265.345 2319.11,265.322 2321.36,265.299 2323.6,265.276 2325.84,265.253 2328.08,265.231 2330.33,265.208 2332.57,265.186 2334.81,265.164 2337.06,265.142 2339.3,265.12 2341.54,265.099 2343.78,265.077 2346.03,265.056 2348.27,265.035 2350.51,265.014 2352.76,264.993 "/>
<circle clip-path="url(#clip711)" cx="112.177" cy="878.169" r="21.6" fill="#009af9" fill-rule="evenodd" fill-opacity="0.7" stroke="#000000" stroke-opacity="0.7" stroke-width="3.2"/>
<circle clip-path="url(#clip711)" cx="230.102" cy="1115.26" r="21.6" fill="#009af9" fill-rule="evenodd" fill-opacity="0.7" stroke="#000000" stroke-opacity="0.7" stroke-width="3.2"/>
<circle clip-path="url(#clip711)" cx="348.028" cy="1068.69" r="21.6" fill="#009af9" fill-rule="evenodd" fill-opacity="0.7" stroke="#000000" stroke-opacity="0.7" stroke-width="3.2"/>
<circle clip-path="url(#clip711)" cx="465.953" cy="1138.91" r="21.6" fill="#009af9" fill-rule="evenodd" fill-opacity="0.7" stroke="#000000" stroke-opacity="0.7" stroke-width="3.2"/>
<circle clip-path="url(#clip711)" cx="583.878" cy="1013.42" r="21.6" fill="#009af9" fill-rule="evenodd" fill-opacity="0.7" stroke="#000000" stroke-opacity="0.7" stroke-width="3.2"/>
<circle clip-path="url(#clip711)" cx="701.803" cy="1019.95" r="21.6" fill="#009af9" fill-rule="evenodd" fill-opacity="0.7" stroke="#000000" stroke-opacity="0.7" stroke-width="3.2"/>
<circle clip-path="url(#clip711)" cx="819.728" cy="1072.66" r="21.6" fill="#009af9" fill-rule="evenodd" fill-opacity="0.7" stroke="#000000" stroke-opacity="0.7" stroke-width="3.2"/>
<circle clip-path="url(#clip711)" cx="937.654" cy="1030.95" r="21.6" fill="#009af9" fill-rule="evenodd" fill-opacity="0.7" stroke="#000000" stroke-opacity="0.7" stroke-width="3.2"/>
<circle clip-path="url(#clip711)" cx="1055.58" cy="989.546" r="21.6" fill="#009af9" fill-rule="evenodd" fill-opacity="0.7" stroke="#000000" stroke-opacity="0.7" stroke-width="3.2"/>
<circle clip-path="url(#clip711)" cx="1173.5" cy="896.254" r="21.6" fill="#009af9" fill-rule="evenodd" fill-opacity="0.7" stroke="#000000" stroke-opacity="0.7" stroke-width="3.2"/>
<circle clip-path="url(#clip711)" cx="1291.43" cy="907.553" r="21.6" fill="#009af9" fill-rule="evenodd" fill-opacity="0.7" stroke="#000000" stroke-opacity="0.7" stroke-width="3.2"/>
<circle clip-path="url(#clip711)" cx="1409.35" cy="930.106" r="21.6" fill="#009af9" fill-rule="evenodd" fill-opacity="0.7" stroke="#000000" stroke-opacity="0.7" stroke-width="3.2"/>
<circle clip-path="url(#clip711)" cx="1527.28" cy="821.148" r="21.6" fill="#009af9" fill-rule="evenodd" fill-opacity="0.7" stroke="#000000" stroke-opacity="0.7" stroke-width="3.2"/>
<circle clip-path="url(#clip711)" cx="1645.2" cy="892.841" r="21.6" fill="#009af9" fill-rule="evenodd" fill-opacity="0.7" stroke="#000000" stroke-opacity="0.7" stroke-width="3.2"/>
<circle clip-path="url(#clip711)" cx="1763.13" cy="883.022" r="21.6" fill="#009af9" fill-rule="evenodd" fill-opacity="0.7" stroke="#000000" stroke-opacity="0.7" stroke-width="3.2"/>
<circle clip-path="url(#clip711)" cx="1881.06" cy="913.563" r="21.6" fill="#009af9" fill-rule="evenodd" fill-opacity="0.7" stroke="#000000" stroke-opacity="0.7" stroke-width="3.2"/>
<circle clip-path="url(#clip711)" cx="1998.98" cy="893.077" r="21.6" fill="#009af9" fill-rule="evenodd" fill-opacity="0.7" stroke="#000000" stroke-opacity="0.7" stroke-width="3.2"/>
<circle clip-path="url(#clip711)" cx="2116.91" cy="897.72" r="21.6" fill="#009af9" fill-rule="evenodd" fill-opacity="0.7" stroke="#000000" stroke-opacity="0.7" stroke-width="3.2"/>
<circle clip-path="url(#clip711)" cx="2234.83" cy="866.881" r="21.6" fill="#009af9" fill-rule="evenodd" fill-opacity="0.7" stroke="#000000" stroke-opacity="0.7" stroke-width="3.2"/>
<circle clip-path="url(#clip711)" cx="2352.76" cy="924.653" r="21.6" fill="#009af9" fill-rule="evenodd" fill-opacity="0.7" stroke="#000000" stroke-opacity="0.7" stroke-width="3.2"/>
<circle clip-path="url(#clip711)" cx="112.177" cy="1384.24" r="21.6" fill="#e26f46" fill-rule="evenodd" fill-opacity="0.7" stroke="#000000" stroke-opacity="0.7" stroke-width="3.2"/>
<circle clip-path="url(#clip711)" cx="230.102" cy="887.303" r="21.6" fill="#e26f46" fill-rule="evenodd" fill-opacity="0.7" stroke="#000000" stroke-opacity="0.7" stroke-width="3.2"/>
<circle clip-path="url(#clip711)" cx="348.028" cy="933.873" r="21.6" fill="#e26f46" fill-rule="evenodd" fill-opacity="0.7" stroke="#000000" stroke-opacity="0.7" stroke-width="3.2"/>
<circle clip-path="url(#clip711)" cx="465.953" cy="722.316" r="21.6" fill="#e26f46" fill-rule="evenodd" fill-opacity="0.7" stroke="#000000" stroke-opacity="0.7" stroke-width="3.2"/>
<circle clip-path="url(#clip711)" cx="583.878" cy="705.062" r="21.6" fill="#e26f46" fill-rule="evenodd" fill-opacity="0.7" stroke="#000000" stroke-opacity="0.7" stroke-width="3.2"/>
<circle clip-path="url(#clip711)" cx="701.803" cy="648.331" r="21.6" fill="#e26f46" fill-rule="evenodd" fill-opacity="0.7" stroke="#000000" stroke-opacity="0.7" stroke-width="3.2"/>
<circle clip-path="url(#clip711)" cx="819.728" cy="677.8" r="21.6" fill="#e26f46" fill-rule="evenodd" fill-opacity="0.7" stroke="#000000" stroke-opacity="0.7" stroke-width="3.2"/>
<circle clip-path="url(#clip711)" cx="937.654" cy="450.031" r="21.6" fill="#e26f46" fill-rule="evenodd" fill-opacity="0.7" stroke="#000000" stroke-opacity="0.7" stroke-width="3.2"/>
<circle clip-path="url(#clip711)" cx="1055.58" cy="351.076" r="21.6" fill="#e26f46" fill-rule="evenodd" fill-opacity="0.7" stroke="#000000" stroke-opacity="0.7" stroke-width="3.2"/>
<circle clip-path="url(#clip711)" cx="1173.5" cy="442.221" r="21.6" fill="#e26f46" fill-rule="evenodd" fill-opacity="0.7" stroke="#000000" stroke-opacity="0.7" stroke-width="3.2"/>
<circle clip-path="url(#clip711)" cx="1291.43" cy="550.095" r="21.6" fill="#e26f46" fill-rule="evenodd" fill-opacity="0.7" stroke="#000000" stroke-opacity="0.7" stroke-width="3.2"/>
<circle clip-path="url(#clip711)" cx="1409.35" cy="439.67" r="21.6" fill="#e26f46" fill-rule="evenodd" fill-opacity="0.7" stroke="#000000" stroke-opacity="0.7" stroke-width="3.2"/>
<circle clip-path="url(#clip711)" cx="1527.28" cy="172.07" r="21.6" fill="#e26f46" fill-rule="evenodd" fill-opacity="0.7" stroke="#000000" stroke-opacity="0.7" stroke-width="3.2"/>
<circle clip-path="url(#clip711)" cx="1645.2" cy="86.1857" r="21.6" fill="#e26f46" fill-rule="evenodd" fill-opacity="0.7" stroke="#000000" stroke-opacity="0.7" stroke-width="3.2"/>
<circle clip-path="url(#clip711)" cx="1763.13" cy="207.989" r="21.6" fill="#e26f46" fill-rule="evenodd" fill-opacity="0.7" stroke="#000000" stroke-opacity="0.7" stroke-width="3.2"/>
<circle clip-path="url(#clip711)" cx="1881.06" cy="466.597" r="21.6" fill="#e26f46" fill-rule="evenodd" fill-opacity="0.7" stroke="#000000" stroke-opacity="0.7" stroke-width="3.2"/>
<circle clip-path="url(#clip711)" cx="1998.98" cy="349.597" r="21.6" fill="#e26f46" fill-rule="evenodd" fill-opacity="0.7" stroke="#000000" stroke-opacity="0.7" stroke-width="3.2"/>
<circle clip-path="url(#clip711)" cx="2116.91" cy="422.857" r="21.6" fill="#e26f46" fill-rule="evenodd" fill-opacity="0.7" stroke="#000000" stroke-opacity="0.7" stroke-width="3.2"/>
<circle clip-path="url(#clip711)" cx="2234.83" cy="425.088" r="21.6" fill="#e26f46" fill-rule="evenodd" fill-opacity="0.7" stroke="#000000" stroke-opacity="0.7" stroke-width="3.2"/>
<circle clip-path="url(#clip711)" cx="2352.76" cy="431.245" r="21.6" fill="#e26f46" fill-rule="evenodd" fill-opacity="0.7" stroke="#000000" stroke-opacity="0.7" stroke-width="3.2"/>
<path clip-path="url(#clip710)" d="M186.863 352.309 L596.753 352.309 L596.753 93.1086 L186.863 93.1086  Z" fill="#ffffff" fill-rule="evenodd" fill-opacity="1"/>
<polyline clip-path="url(#clip710)" style="stroke:#000000; stroke-linecap:round; stroke-linejoin:round; stroke-width:4; stroke-opacity:1; fill:none" points="186.863,352.309 596.753,352.309 596.753,93.1086 186.863,93.1086 186.863,352.309 "/>
<polyline clip-path="url(#clip710)" style="stroke:#009af9; stroke-linecap:round; stroke-linejoin:round; stroke-width:20; stroke-opacity:1; fill:none" points="211.758,144.949 361.13,144.949 "/>
<path clip-path="url(#clip710)" d="M387.6 127.669 L392.623 127.669 L401.211 140.516 L409.845 127.669 L414.868 127.669 L403.757 144.266 L415.609 162.229 L410.586 162.229 L400.864 147.53 L391.072 162.229 L386.026 162.229 L398.364 143.78 L387.6 127.669 Z" fill="#000000" fill-rule="nonzero" fill-opacity="1" /><polyline clip-path="url(#clip710)" style="stroke:#e26f46; stroke-linecap:round; stroke-linejoin:round; stroke-width:20; stroke-opacity:1; fill:none" points="211.758,196.789 361.13,196.789 "/>
<path clip-path="url(#clip710)" d="M386.026 179.509 L391.049 179.509 L400.632 193.722 L410.146 179.509 L415.169 179.509 L402.947 197.61 L402.947 214.069 L398.248 214.069 L398.248 197.61 L386.026 179.509 Z" fill="#000000" fill-rule="nonzero" fill-opacity="1" /><circle clip-path="url(#clip710)" cx="286.444" cy="248.629" r="21.2677" fill="#009af9" fill-rule="evenodd" fill-opacity="0.7" stroke="#000000" stroke-opacity="0.7" stroke-width="3.15077"/>
<path clip-path="url(#clip710)" d="M387.6 231.349 L392.623 231.349 L401.211 244.196 L409.845 231.349 L414.868 231.349 L403.757 247.946 L415.609 265.909 L410.586 265.909 L400.864 251.21 L391.072 265.909 L386.026 265.909 L398.364 247.46 L387.6 231.349 Z" fill="#000000" fill-rule="nonzero" fill-opacity="1" /><path clip-path="url(#clip710)" d="M446.859 229.937 Q443.757 235.261 442.252 240.469 Q440.748 245.677 440.748 251.024 Q440.748 256.372 442.252 261.626 Q443.78 266.858 446.859 272.159 L443.155 272.159 Q439.683 266.719 437.947 261.464 Q436.234 256.21 436.234 251.024 Q436.234 245.862 437.947 240.631 Q439.66 235.4 443.155 229.937 L446.859 229.937 Z" fill="#000000" fill-rule="nonzero" fill-opacity="1" /><path clip-path="url(#clip710)" d="M472.183 243.918 L472.183 229.89 L476.442 229.89 L476.442 265.909 L472.183 265.909 L472.183 262.02 Q470.84 264.335 468.78 265.469 Q466.743 266.58 463.872 266.58 Q459.173 266.58 456.21 262.83 Q453.271 259.08 453.271 252.969 Q453.271 246.858 456.21 243.108 Q459.173 239.358 463.872 239.358 Q466.743 239.358 468.78 240.492 Q470.84 241.603 472.183 243.918 M457.669 252.969 Q457.669 257.668 459.59 260.353 Q461.535 263.015 464.914 263.015 Q468.294 263.015 470.238 260.353 Q472.183 257.668 472.183 252.969 Q472.183 248.27 470.238 245.608 Q468.294 242.923 464.914 242.923 Q461.535 242.923 459.59 245.608 Q457.669 248.27 457.669 252.969 Z" fill="#000000" fill-rule="nonzero" fill-opacity="1" /><path clip-path="url(#clip710)" d="M496.997 252.876 Q491.835 252.876 489.845 254.057 Q487.854 255.237 487.854 258.085 Q487.854 260.353 489.335 261.696 Q490.84 263.015 493.409 263.015 Q496.951 263.015 499.081 260.515 Q501.233 257.992 501.233 253.825 L501.233 252.876 L496.997 252.876 M505.493 251.117 L505.493 265.909 L501.233 265.909 L501.233 261.973 Q499.775 264.335 497.599 265.469 Q495.423 266.58 492.275 266.58 Q488.294 266.58 485.933 264.358 Q483.595 262.112 483.595 258.362 Q483.595 253.987 486.511 251.765 Q489.451 249.543 495.261 249.543 L501.233 249.543 L501.233 249.126 Q501.233 246.187 499.289 244.589 Q497.368 242.969 493.872 242.969 Q491.65 242.969 489.544 243.501 Q487.437 244.034 485.493 245.099 L485.493 241.163 Q487.831 240.261 490.03 239.821 Q492.229 239.358 494.312 239.358 Q499.937 239.358 502.715 242.274 Q505.493 245.191 505.493 251.117 Z" fill="#000000" fill-rule="nonzero" fill-opacity="1" /><path clip-path="url(#clip710)" d="M518.479 232.622 L518.479 239.983 L527.252 239.983 L527.252 243.293 L518.479 243.293 L518.479 257.367 Q518.479 260.538 519.335 261.441 Q520.215 262.344 522.877 262.344 L527.252 262.344 L527.252 265.909 L522.877 265.909 Q517.946 265.909 516.071 264.08 Q514.196 262.228 514.196 257.367 L514.196 243.293 L511.071 243.293 L511.071 239.983 L514.196 239.983 L514.196 232.622 L518.479 232.622 Z" fill="#000000" fill-rule="nonzero" fill-opacity="1" /><path clip-path="url(#clip710)" d="M544.636 252.876 Q539.474 252.876 537.483 254.057 Q535.492 255.237 535.492 258.085 Q535.492 260.353 536.974 261.696 Q538.479 263.015 541.048 263.015 Q544.59 263.015 546.719 260.515 Q548.872 257.992 548.872 253.825 L548.872 252.876 L544.636 252.876 M553.131 251.117 L553.131 265.909 L548.872 265.909 L548.872 261.973 Q547.414 264.335 545.238 265.469 Q543.062 266.58 539.914 266.58 Q535.932 266.58 533.571 264.358 Q531.233 262.112 531.233 258.362 Q531.233 253.987 534.15 251.765 Q537.09 249.543 542.9 249.543 L548.872 249.543 L548.872 249.126 Q548.872 246.187 546.928 244.589 Q545.006 242.969 541.511 242.969 Q539.289 242.969 537.182 243.501 Q535.076 244.034 533.131 245.099 L533.131 241.163 Q535.469 240.261 537.668 239.821 Q539.867 239.358 541.951 239.358 Q547.576 239.358 550.354 242.274 Q553.131 245.191 553.131 251.117 Z" fill="#000000" fill-rule="nonzero" fill-opacity="1" /><path clip-path="url(#clip710)" d="M561.233 229.937 L564.937 229.937 Q568.409 235.4 570.122 240.631 Q571.858 245.862 571.858 251.024 Q571.858 256.21 570.122 261.464 Q568.409 266.719 564.937 272.159 L561.233 272.159 Q564.312 266.858 565.816 261.626 Q567.344 256.372 567.344 251.024 Q567.344 245.677 565.816 240.469 Q564.312 235.261 561.233 229.937 Z" fill="#000000" fill-rule="nonzero" fill-opacity="1" /><circle clip-path="url(#clip710)" cx="286.444" cy="300.469" r="21.2677" fill="#e26f46" fill-rule="evenodd" fill-opacity="0.7" stroke="#000000" stroke-opacity="0.7" stroke-width="3.15077"/>
<path clip-path="url(#clip710)" d="M386.026 283.189 L391.049 283.189 L400.632 297.402 L410.146 283.189 L415.169 283.189 L402.947 301.29 L402.947 317.749 L398.248 317.749 L398.248 301.29 L386.026 283.189 Z" fill="#000000" fill-rule="nonzero" fill-opacity="1" /><path clip-path="url(#clip710)" d="M444.845 281.777 Q441.743 287.101 440.238 292.309 Q438.734 297.517 438.734 302.864 Q438.734 308.212 440.238 313.466 Q441.766 318.698 444.845 323.999 L441.141 323.999 Q437.669 318.559 435.933 313.304 Q434.22 308.05 434.22 302.864 Q434.22 297.702 435.933 292.471 Q437.646 287.24 441.141 281.777 L444.845 281.777 Z" fill="#000000" fill-rule="nonzero" fill-opacity="1" /><path clip-path="url(#clip710)" d="M470.169 295.758 L470.169 281.73 L474.428 281.73 L474.428 317.749 L470.169 317.749 L470.169 313.86 Q468.826 316.175 466.766 317.309 Q464.729 318.42 461.859 318.42 Q457.16 318.42 454.197 314.67 Q451.257 310.92 451.257 304.809 Q451.257 298.698 454.197 294.948 Q457.16 291.198 461.859 291.198 Q464.729 291.198 466.766 292.332 Q468.826 293.443 470.169 295.758 M455.655 304.809 Q455.655 309.508 457.576 312.193 Q459.521 314.855 462.9 314.855 Q466.28 314.855 468.224 312.193 Q470.169 309.508 470.169 304.809 Q470.169 300.11 468.224 297.448 Q466.28 294.763 462.9 294.763 Q459.521 294.763 457.576 297.448 Q455.655 300.11 455.655 304.809 Z" fill="#000000" fill-rule="nonzero" fill-opacity="1" /><path clip-path="url(#clip710)" d="M494.983 304.716 Q489.821 304.716 487.831 305.897 Q485.84 307.077 485.84 309.925 Q485.84 312.193 487.321 313.536 Q488.826 314.855 491.395 314.855 Q494.937 314.855 497.067 312.355 Q499.22 309.832 499.22 305.665 L499.22 304.716 L494.983 304.716 M503.479 302.957 L503.479 317.749 L499.22 317.749 L499.22 313.813 Q497.761 316.175 495.585 317.309 Q493.409 318.42 490.261 318.42 Q486.28 318.42 483.919 316.198 Q481.581 313.952 481.581 310.202 Q481.581 305.827 484.497 303.605 Q487.437 301.383 493.247 301.383 L499.22 301.383 L499.22 300.966 Q499.22 298.027 497.275 296.429 Q495.354 294.809 491.858 294.809 Q489.636 294.809 487.53 295.341 Q485.423 295.874 483.479 296.939 L483.479 293.003 Q485.817 292.101 488.016 291.661 Q490.215 291.198 492.298 291.198 Q497.923 291.198 500.701 294.114 Q503.479 297.031 503.479 302.957 Z" fill="#000000" fill-rule="nonzero" fill-opacity="1" /><path clip-path="url(#clip710)" d="M516.465 284.462 L516.465 291.823 L525.238 291.823 L525.238 295.133 L516.465 295.133 L516.465 309.207 Q516.465 312.378 517.321 313.281 Q518.201 314.184 520.863 314.184 L525.238 314.184 L525.238 317.749 L520.863 317.749 Q515.932 317.749 514.057 315.92 Q512.182 314.068 512.182 309.207 L512.182 295.133 L509.057 295.133 L509.057 291.823 L512.182 291.823 L512.182 284.462 L516.465 284.462 Z" fill="#000000" fill-rule="nonzero" fill-opacity="1" /><path clip-path="url(#clip710)" d="M542.622 304.716 Q537.46 304.716 535.469 305.897 Q533.479 307.077 533.479 309.925 Q533.479 312.193 534.96 313.536 Q536.465 314.855 539.034 314.855 Q542.576 314.855 544.705 312.355 Q546.858 309.832 546.858 305.665 L546.858 304.716 L542.622 304.716 M551.117 302.957 L551.117 317.749 L546.858 317.749 L546.858 313.813 Q545.4 316.175 543.224 317.309 Q541.048 318.42 537.9 318.42 Q533.918 318.42 531.557 316.198 Q529.219 313.952 529.219 310.202 Q529.219 305.827 532.136 303.605 Q535.076 301.383 540.886 301.383 L546.858 301.383 L546.858 300.966 Q546.858 298.027 544.914 296.429 Q542.992 294.809 539.497 294.809 Q537.275 294.809 535.168 295.341 Q533.062 295.874 531.118 296.939 L531.118 293.003 Q533.455 292.101 535.655 291.661 Q537.854 291.198 539.937 291.198 Q545.562 291.198 548.34 294.114 Q551.117 297.031 551.117 302.957 Z" fill="#000000" fill-rule="nonzero" fill-opacity="1" /><path clip-path="url(#clip710)" d="M559.219 281.777 L562.923 281.777 Q566.395 287.24 568.108 292.471 Q569.844 297.702 569.844 302.864 Q569.844 308.05 568.108 313.304 Q566.395 318.559 562.923 323.999 L559.219 323.999 Q562.298 318.698 563.803 313.466 Q565.33 308.212 565.33 302.864 Q565.33 297.517 563.803 292.309 Q562.298 287.101 559.219 281.777 Z" fill="#000000" fill-rule="nonzero" fill-opacity="1" /></svg>
