<?xml version="1.0" encoding="utf-8"?>
<svg xmlns="http://www.w3.org/2000/svg" xmlns:xlink="http://www.w3.org/1999/xlink" width="600" height="400" viewBox="0 0 2400 1600">
<defs>
  <clipPath id="clip470">
    <rect x="0" y="0" width="2400" height="1600"/>
  </clipPath>
</defs>
<path clip-path="url(#clip470)" d="M0 1600 L2400 1600 L2400 0 L0 0  Z" fill="#ffffff" fill-rule="evenodd" fill-opacity="1"/>
<defs>
  <clipPath id="clip471">
    <rect x="186" y="47" width="2167" height="1440"/>
  </clipPath>
</defs>
<path clip-path="url(#clip470)" d="M186.274 1486.45 L2352.76 1486.45 L2352.76 47.2441 L186.274 47.2441  Z" fill="#ffffff" fill-rule="evenodd" fill-opacity="1"/>
<polyline clip-path="url(#clip471)" style="stroke:#000000; stroke-linecap:round; stroke-linejoin:round; stroke-width:2; stroke-opacity:0.1; fill:none" points="247.59,1486.45 247.59,47.2441 "/>
<polyline clip-path="url(#clip471)" style="stroke:#000000; stroke-linecap:round; stroke-linejoin:round; stroke-width:2; stroke-opacity:0.1; fill:none" points="656.36,1486.45 656.36,47.2441 "/>
<polyline clip-path="url(#clip471)" style="stroke:#000000; stroke-linecap:round; stroke-linejoin:round; stroke-width:2; stroke-opacity:0.1; fill:none" points="1065.13,1486.45 1065.13,47.2441 "/>
<polyline clip-path="url(#clip471)" style="stroke:#000000; stroke-linecap:round; stroke-linejoin:round; stroke-width:2; stroke-opacity:0.1; fill:none" points="1473.9,1486.45 1473.9,47.2441 "/>
<polyline clip-path="url(#clip471)" style="stroke:#000000; stroke-linecap:round; stroke-linejoin:round; stroke-width:2; stroke-opacity:0.1; fill:none" points="1882.67,1486.45 1882.67,47.2441 "/>
<polyline clip-path="url(#clip471)" style="stroke:#000000; stroke-linecap:round; stroke-linejoin:round; stroke-width:2; stroke-opacity:0.1; fill:none" points="2291.44,1486.45 2291.44,47.2441 "/>
<polyline clip-path="url(#clip471)" style="stroke:#000000; stroke-linecap:round; stroke-linejoin:round; stroke-width:2; stroke-opacity:0.1; fill:none" points="186.274,1445.72 2352.76,1445.72 "/>
<polyline clip-path="url(#clip471)" style="stroke:#000000; stroke-linecap:round; stroke-linejoin:round; stroke-width:2; stroke-opacity:0.1; fill:none" points="186.274,1121.4 2352.76,1121.4 "/>
<polyline clip-path="url(#clip471)" style="stroke:#000000; stroke-linecap:round; stroke-linejoin:round; stroke-width:2; stroke-opacity:0.1; fill:none" points="186.274,797.087 2352.76,797.087 "/>
<polyline clip-path="url(#clip471)" style="stroke:#000000; stroke-linecap:round; stroke-linejoin:round; stroke-width:2; stroke-opacity:0.1; fill:none" points="186.274,472.772 2352.76,472.772 "/>
<polyline clip-path="url(#clip471)" style="stroke:#000000; stroke-linecap:round; stroke-linejoin:round; stroke-width:2; stroke-opacity:0.1; fill:none" points="186.274,148.458 2352.76,148.458 "/>
<polyline clip-path="url(#clip470)" style="stroke:#000000; stroke-linecap:round; stroke-linejoin:round; stroke-width:4; stroke-opacity:1; fill:none" points="186.274,1486.45 2352.76,1486.45 "/>
<polyline clip-path="url(#clip470)" style="stroke:#000000; stroke-linecap:round; stroke-linejoin:round; stroke-width:4; stroke-opacity:1; fill:none" points="247.59,1486.45 247.59,1467.55 "/>
<polyline clip-path="url(#clip470)" style="stroke:#000000; stroke-linecap:round; stroke-linejoin:round; stroke-width:4; stroke-opacity:1; fill:none" points="656.36,1486.45 656.36,1467.55 "/>
<polyline clip-path="url(#clip470)" style="stroke:#000000; stroke-linecap:round; stroke-linejoin:round; stroke-width:4; stroke-opacity:1; fill:none" points="1065.13,1486.45 1065.13,1467.55 "/>
<polyline clip-path="url(#clip470)" style="stroke:#000000; stroke-linecap:round; stroke-linejoin:round; stroke-width:4; stroke-opacity:1; fill:none" points="1473.9,1486.45 1473.9,1467.55 "/>
<polyline clip-path="url(#clip470)" style="stroke:#000000; stroke-linecap:round; stroke-linejoin:round; stroke-width:4; stroke-opacity:1; fill:none" points="1882.67,1486.45 1882.67,1467.55 "/>
<polyline clip-path="url(#clip470)" style="stroke:#000000; stroke-linecap:round; stroke-linejoin:round; stroke-width:4; stroke-opacity:1; fill:none" points="2291.44,1486.45 2291.44,1467.55 "/>
<path clip-path="url(#clip470)" d="M247.59 1517.37 Q243.978 1517.37 242.15 1520.93 Q240.344 1524.47 240.344 1531.6 Q240.344 1538.71 242.15 1542.27 Q243.978 1545.82 247.59 1545.82 Q251.224 1545.82 253.029 1542.27 Q254.858 1538.71 254.858 1531.6 Q254.858 1524.47 253.029 1520.93 Q251.224 1517.37 247.59 1517.37 M247.59 1513.66 Q253.4 1513.66 256.455 1518.27 Q259.534 1522.85 259.534 1531.6 Q259.534 1540.33 256.455 1544.94 Q253.4 1549.52 247.59 1549.52 Q241.779 1549.52 238.701 1544.94 Q235.645 1540.33 235.645 1531.6 Q235.645 1522.85 238.701 1518.27 Q241.779 1513.66 247.59 1513.66 Z" fill="#000000" fill-rule="nonzero" fill-opacity="1" /><path clip-path="url(#clip470)" d="M646.742 1544.91 L654.381 1544.91 L654.381 1518.55 L646.07 1520.21 L646.07 1515.95 L654.334 1514.29 L659.01 1514.29 L659.01 1544.91 L666.649 1544.91 L666.649 1548.85 L646.742 1548.85 L646.742 1544.91 Z" fill="#000000" fill-rule="nonzero" fill-opacity="1" /><path clip-path="url(#clip470)" d="M1059.78 1544.91 L1076.1 1544.91 L1076.1 1548.85 L1054.16 1548.85 L1054.16 1544.91 Q1056.82 1542.16 1061.4 1537.53 Q1066.01 1532.88 1067.19 1531.53 Q1069.44 1529.01 1070.32 1527.27 Q1071.22 1525.51 1071.22 1523.82 Q1071.22 1521.07 1069.27 1519.33 Q1067.35 1517.6 1064.25 1517.6 Q1062.05 1517.6 1059.6 1518.36 Q1057.17 1519.13 1054.39 1520.68 L1054.39 1515.95 Q1057.21 1514.82 1059.67 1514.24 Q1062.12 1513.66 1064.16 1513.66 Q1069.53 1513.66 1072.72 1516.35 Q1075.92 1519.03 1075.92 1523.52 Q1075.92 1525.65 1075.11 1527.57 Q1074.32 1529.47 1072.21 1532.07 Q1071.63 1532.74 1068.53 1535.95 Q1065.43 1539.15 1059.78 1544.91 Z" fill="#000000" fill-rule="nonzero" fill-opacity="1" /><path clip-path="url(#clip470)" d="M1478.15 1530.21 Q1481.5 1530.93 1483.38 1533.2 Q1485.28 1535.47 1485.28 1538.8 Q1485.28 1543.92 1481.76 1546.72 Q1478.24 1549.52 1471.76 1549.52 Q1469.58 1549.52 1467.27 1549.08 Q1464.98 1548.66 1462.52 1547.81 L1462.52 1543.29 Q1464.47 1544.43 1466.78 1545.01 Q1469.1 1545.58 1471.62 1545.58 Q1476.02 1545.58 1478.31 1543.85 Q1480.62 1542.11 1480.62 1538.8 Q1480.62 1535.75 1478.47 1534.03 Q1476.34 1532.3 1472.52 1532.3 L1468.49 1532.3 L1468.49 1528.45 L1472.71 1528.45 Q1476.16 1528.45 1477.99 1527.09 Q1479.81 1525.7 1479.81 1523.11 Q1479.81 1520.45 1477.92 1519.03 Q1476.04 1517.6 1472.52 1517.6 Q1470.6 1517.6 1468.4 1518.01 Q1466.2 1518.43 1463.56 1519.31 L1463.56 1515.14 Q1466.23 1514.4 1468.54 1514.03 Q1470.88 1513.66 1472.94 1513.66 Q1478.26 1513.66 1481.37 1516.09 Q1484.47 1518.5 1484.47 1522.62 Q1484.47 1525.49 1482.82 1527.48 Q1481.18 1529.45 1478.15 1530.21 Z" fill="#000000" fill-rule="nonzero" fill-opacity="1" /><path clip-path="url(#clip470)" d="M1885.68 1518.36 L1873.87 1536.81 L1885.68 1536.81 L1885.68 1518.36 M1884.45 1514.29 L1890.33 1514.29 L1890.33 1536.81 L1895.26 1536.81 L1895.26 1540.7 L1890.33 1540.7 L1890.33 1548.85 L1885.68 1548.85 L1885.68 1540.7 L1870.08 1540.7 L1870.08 1536.19 L1884.45 1514.29 Z" fill="#000000" fill-rule="nonzero" fill-opacity="1" /><path clip-path="url(#clip470)" d="M2281.72 1514.29 L2300.07 1514.29 L2300.07 1518.22 L2286 1518.22 L2286 1526.7 Q2287.02 1526.35 2288.04 1526.19 Q2289.06 1526 2290.07 1526 Q2295.86 1526 2299.24 1529.17 Q2302.62 1532.34 2302.62 1537.76 Q2302.62 1543.34 2299.15 1546.44 Q2295.68 1549.52 2289.36 1549.52 Q2287.18 1549.52 2284.91 1549.15 Q2282.67 1548.78 2280.26 1548.04 L2280.26 1543.34 Q2282.34 1544.47 2284.57 1545.03 Q2286.79 1545.58 2289.26 1545.58 Q2293.27 1545.58 2295.61 1543.48 Q2297.94 1541.37 2297.94 1537.76 Q2297.94 1534.15 2295.61 1532.04 Q2293.27 1529.94 2289.26 1529.94 Q2287.39 1529.94 2285.51 1530.35 Q2283.66 1530.77 2281.72 1531.65 L2281.72 1514.29 Z" fill="#000000" fill-rule="nonzero" fill-opacity="1" /><polyline clip-path="url(#clip470)" style="stroke:#000000; stroke-linecap:round; stroke-linejoin:round; stroke-width:4; stroke-opacity:1; fill:none" points="186.274,1486.45 186.274,47.2441 "/>
<polyline clip-path="url(#clip470)" style="stroke:#000000; stroke-linecap:round; stroke-linejoin:round; stroke-width:4; stroke-opacity:1; fill:none" points="186.274,1445.72 205.172,1445.72 "/>
<polyline clip-path="url(#clip470)" style="stroke:#000000; stroke-linecap:round; stroke-linejoin:round; stroke-width:4; stroke-opacity:1; fill:none" points="186.274,1121.4 205.172,1121.4 "/>
<polyline clip-path="url(#clip470)" style="stroke:#000000; stroke-linecap:round; stroke-linejoin:round; stroke-width:4; stroke-opacity:1; fill:none" points="186.274,797.087 205.172,797.087 "/>
<polyline clip-path="url(#clip470)" style="stroke:#000000; stroke-linecap:round; stroke-linejoin:round; stroke-width:4; stroke-opacity:1; fill:none" points="186.274,472.772 205.172,472.772 "/>
<polyline clip-path="url(#clip470)" style="stroke:#000000; stroke-linecap:round; stroke-linejoin:round; stroke-width:4; stroke-opacity:1; fill:none" points="186.274,148.458 205.172,148.458 "/>
<path clip-path="url(#clip470)" d="M62.9365 1431.51 Q59.3254 1431.51 57.4967 1435.08 Q55.6912 1438.62 55.6912 1445.75 Q55.6912 1452.86 57.4967 1456.42 Q59.3254 1459.96 62.9365 1459.96 Q66.5707 1459.96 68.3763 1456.42 Q70.205 1452.86 70.205 1445.75 Q70.205 1438.62 68.3763 1435.08 Q66.5707 1431.51 62.9365 1431.51 M62.9365 1427.81 Q68.7467 1427.81 71.8022 1432.42 Q74.8809 1437 74.8809 1445.75 Q74.8809 1454.48 71.8022 1459.08 Q68.7467 1463.67 62.9365 1463.67 Q57.1264 1463.67 54.0477 1459.08 Q50.9921 1454.48 50.9921 1445.75 Q50.9921 1437 54.0477 1432.42 Q57.1264 1427.81 62.9365 1427.81 Z" fill="#000000" fill-rule="nonzero" fill-opacity="1" /><path clip-path="url(#clip470)" d="M83.0984 1457.12 L87.9827 1457.12 L87.9827 1463 L83.0984 1463 L83.0984 1457.12 Z" fill="#000000" fill-rule="nonzero" fill-opacity="1" /><path clip-path="url(#clip470)" d="M108.168 1431.51 Q104.557 1431.51 102.728 1435.08 Q100.922 1438.62 100.922 1445.75 Q100.922 1452.86 102.728 1456.42 Q104.557 1459.96 108.168 1459.96 Q111.802 1459.96 113.608 1456.42 Q115.436 1452.86 115.436 1445.75 Q115.436 1438.62 113.608 1435.08 Q111.802 1431.51 108.168 1431.51 M108.168 1427.81 Q113.978 1427.81 117.033 1432.42 Q120.112 1437 120.112 1445.75 Q120.112 1454.48 117.033 1459.08 Q113.978 1463.67 108.168 1463.67 Q102.358 1463.67 99.2789 1459.08 Q96.2234 1454.48 96.2234 1445.75 Q96.2234 1437 99.2789 1432.42 Q102.358 1427.81 108.168 1427.81 Z" fill="#000000" fill-rule="nonzero" fill-opacity="1" /><path clip-path="url(#clip470)" d="M138.33 1431.51 Q134.719 1431.51 132.89 1435.08 Q131.084 1438.62 131.084 1445.75 Q131.084 1452.86 132.89 1456.42 Q134.719 1459.96 138.33 1459.96 Q141.964 1459.96 143.769 1456.42 Q145.598 1452.86 145.598 1445.75 Q145.598 1438.62 143.769 1435.08 Q141.964 1431.51 138.33 1431.51 M138.33 1427.81 Q144.14 1427.81 147.195 1432.42 Q150.274 1437 150.274 1445.75 Q150.274 1454.48 147.195 1459.08 Q144.14 1463.67 138.33 1463.67 Q132.519 1463.67 129.441 1459.08 Q126.385 1454.48 126.385 1445.75 Q126.385 1437 129.441 1432.42 Q132.519 1427.81 138.33 1427.81 Z" fill="#000000" fill-rule="nonzero" fill-opacity="1" /><path clip-path="url(#clip470)" d="M63.9319 1107.2 Q60.3208 1107.2 58.4921 1110.76 Q56.6865 1114.31 56.6865 1121.44 Q56.6865 1128.54 58.4921 1132.11 Q60.3208 1135.65 63.9319 1135.65 Q67.5661 1135.65 69.3717 1132.11 Q71.2004 1128.54 71.2004 1121.44 Q71.2004 1114.31 69.3717 1110.76 Q67.5661 1107.2 63.9319 1107.2 M63.9319 1103.5 Q69.742 1103.5 72.7976 1108.1 Q75.8763 1112.69 75.8763 1121.44 Q75.8763 1130.16 72.7976 1134.77 Q69.742 1139.35 63.9319 1139.35 Q58.1217 1139.35 55.043 1134.77 Q51.9875 1130.16 51.9875 1121.44 Q51.9875 1112.69 55.043 1108.1 Q58.1217 1103.5 63.9319 1103.5 Z" fill="#000000" fill-rule="nonzero" fill-opacity="1" /><path clip-path="url(#clip470)" d="M84.0938 1132.8 L88.978 1132.8 L88.978 1138.68 L84.0938 1138.68 L84.0938 1132.8 Z" fill="#000000" fill-rule="nonzero" fill-opacity="1" /><path clip-path="url(#clip470)" d="M103.191 1134.75 L119.51 1134.75 L119.51 1138.68 L97.566 1138.68 L97.566 1134.75 Q100.228 1131.99 104.811 1127.36 Q109.418 1122.71 110.598 1121.37 Q112.844 1118.84 113.723 1117.11 Q114.626 1115.35 114.626 1113.66 Q114.626 1110.9 112.682 1109.17 Q110.76 1107.43 107.658 1107.43 Q105.459 1107.43 103.006 1108.2 Q100.575 1108.96 97.7974 1110.51 L97.7974 1105.79 Q100.621 1104.65 103.075 1104.07 Q105.529 1103.5 107.566 1103.5 Q112.936 1103.5 116.131 1106.18 Q119.325 1108.87 119.325 1113.36 Q119.325 1115.49 118.515 1117.41 Q117.728 1119.31 115.621 1121.9 Q115.043 1122.57 111.941 1125.79 Q108.839 1128.98 103.191 1134.75 Z" fill="#000000" fill-rule="nonzero" fill-opacity="1" /><path clip-path="url(#clip470)" d="M129.371 1104.12 L147.728 1104.12 L147.728 1108.06 L133.654 1108.06 L133.654 1116.53 Q134.672 1116.18 135.691 1116.02 Q136.709 1115.83 137.728 1115.83 Q143.515 1115.83 146.894 1119.01 Q150.274 1122.18 150.274 1127.59 Q150.274 1133.17 146.802 1136.27 Q143.33 1139.35 137.01 1139.35 Q134.834 1139.35 132.566 1138.98 Q130.32 1138.61 127.913 1137.87 L127.913 1133.17 Q129.996 1134.31 132.219 1134.86 Q134.441 1135.42 136.918 1135.42 Q140.922 1135.42 143.26 1133.31 Q145.598 1131.2 145.598 1127.59 Q145.598 1123.98 143.26 1121.88 Q140.922 1119.77 136.918 1119.77 Q135.043 1119.77 133.168 1120.19 Q131.316 1120.6 129.371 1121.48 L129.371 1104.12 Z" fill="#000000" fill-rule="nonzero" fill-opacity="1" /><path clip-path="url(#clip470)" d="M62.9365 782.886 Q59.3254 782.886 57.4967 786.45 Q55.6912 789.992 55.6912 797.122 Q55.6912 804.228 57.4967 807.793 Q59.3254 811.334 62.9365 811.334 Q66.5707 811.334 68.3763 807.793 Q70.205 804.228 70.205 797.122 Q70.205 789.992 68.3763 786.45 Q66.5707 782.886 62.9365 782.886 M62.9365 779.182 Q68.7467 779.182 71.8022 783.788 Q74.8809 788.372 74.8809 797.122 Q74.8809 805.848 71.8022 810.455 Q68.7467 815.038 62.9365 815.038 Q57.1264 815.038 54.0477 810.455 Q50.9921 805.848 50.9921 797.122 Q50.9921 788.372 54.0477 783.788 Q57.1264 779.182 62.9365 779.182 Z" fill="#000000" fill-rule="nonzero" fill-opacity="1" /><path clip-path="url(#clip470)" d="M83.0984 808.487 L87.9827 808.487 L87.9827 814.367 L83.0984 814.367 L83.0984 808.487 Z" fill="#000000" fill-rule="nonzero" fill-opacity="1" /><path clip-path="url(#clip470)" d="M98.2141 779.807 L116.57 779.807 L116.57 783.742 L102.496 783.742 L102.496 792.214 Q103.515 791.867 104.534 791.705 Q105.552 791.52 106.571 791.52 Q112.358 791.52 115.737 794.691 Q119.117 797.862 119.117 803.279 Q119.117 808.858 115.645 811.959 Q112.172 815.038 105.853 815.038 Q103.677 815.038 101.409 814.668 Q99.1632 814.297 96.7558 813.557 L96.7558 808.858 Q98.8391 809.992 101.061 810.547 Q103.284 811.103 105.76 811.103 Q109.765 811.103 112.103 808.997 Q114.441 806.89 114.441 803.279 Q114.441 799.668 112.103 797.561 Q109.765 795.455 105.76 795.455 Q103.885 795.455 102.01 795.872 Q100.159 796.288 98.2141 797.168 L98.2141 779.807 Z" fill="#000000" fill-rule="nonzero" fill-opacity="1" /><path clip-path="url(#clip470)" d="M138.33 782.886 Q134.719 782.886 132.89 786.45 Q131.084 789.992 131.084 797.122 Q131.084 804.228 132.89 807.793 Q134.719 811.334 138.33 811.334 Q141.964 811.334 143.769 807.793 Q145.598 804.228 145.598 797.122 Q145.598 789.992 143.769 786.45 Q141.964 782.886 138.33 782.886 M138.33 779.182 Q144.14 779.182 147.195 783.788 Q150.274 788.372 150.274 797.122 Q150.274 805.848 147.195 810.455 Q144.14 815.038 138.33 815.038 Q132.519 815.038 129.441 810.455 Q126.385 805.848 126.385 797.122 Q126.385 788.372 129.441 783.788 Q132.519 779.182 138.33 779.182 Z" fill="#000000" fill-rule="nonzero" fill-opacity="1" /><path clip-path="url(#clip470)" d="M63.9319 458.571 Q60.3208 458.571 58.4921 462.136 Q56.6865 465.678 56.6865 472.807 Q56.6865 479.914 58.4921 483.478 Q60.3208 487.02 63.9319 487.02 Q67.5661 487.02 69.3717 483.478 Q71.2004 479.914 71.2004 472.807 Q71.2004 465.678 69.3717 462.136 Q67.5661 458.571 63.9319 458.571 M63.9319 454.867 Q69.742 454.867 72.7976 459.474 Q75.8763 464.057 75.8763 472.807 Q75.8763 481.534 72.7976 486.14 Q69.742 490.724 63.9319 490.724 Q58.1217 490.724 55.043 486.14 Q51.9875 481.534 51.9875 472.807 Q51.9875 464.057 55.043 459.474 Q58.1217 454.867 63.9319 454.867 Z" fill="#000000" fill-rule="nonzero" fill-opacity="1" /><path clip-path="url(#clip470)" d="M84.0938 484.173 L88.978 484.173 L88.978 490.052 L84.0938 490.052 L84.0938 484.173 Z" fill="#000000" fill-rule="nonzero" fill-opacity="1" /><path clip-path="url(#clip470)" d="M97.9826 455.492 L120.205 455.492 L120.205 457.483 L107.658 490.052 L102.774 490.052 L114.58 459.428 L97.9826 459.428 L97.9826 455.492 Z" fill="#000000" fill-rule="nonzero" fill-opacity="1" /><path clip-path="url(#clip470)" d="M129.371 455.492 L147.728 455.492 L147.728 459.428 L133.654 459.428 L133.654 467.9 Q134.672 467.553 135.691 467.391 Q136.709 467.205 137.728 467.205 Q143.515 467.205 146.894 470.377 Q150.274 473.548 150.274 478.965 Q150.274 484.543 146.802 487.645 Q143.33 490.724 137.01 490.724 Q134.834 490.724 132.566 490.353 Q130.32 489.983 127.913 489.242 L127.913 484.543 Q129.996 485.678 132.219 486.233 Q134.441 486.789 136.918 486.789 Q140.922 486.789 143.26 484.682 Q145.598 482.576 145.598 478.965 Q145.598 475.353 143.26 473.247 Q140.922 471.141 136.918 471.141 Q135.043 471.141 133.168 471.557 Q131.316 471.974 129.371 472.853 L129.371 455.492 Z" fill="#000000" fill-rule="nonzero" fill-opacity="1" /><path clip-path="url(#clip470)" d="M53.7467 161.803 L61.3856 161.803 L61.3856 135.437 L53.0754 137.104 L53.0754 132.845 L61.3393 131.178 L66.0152 131.178 L66.0152 161.803 L73.654 161.803 L73.654 165.738 L53.7467 165.738 L53.7467 161.803 Z" fill="#000000" fill-rule="nonzero" fill-opacity="1" /><path clip-path="url(#clip470)" d="M83.0984 159.858 L87.9827 159.858 L87.9827 165.738 L83.0984 165.738 L83.0984 159.858 Z" fill="#000000" fill-rule="nonzero" fill-opacity="1" /><path clip-path="url(#clip470)" d="M108.168 134.257 Q104.557 134.257 102.728 137.822 Q100.922 141.363 100.922 148.493 Q100.922 155.599 102.728 159.164 Q104.557 162.706 108.168 162.706 Q111.802 162.706 113.608 159.164 Q115.436 155.599 115.436 148.493 Q115.436 141.363 113.608 137.822 Q111.802 134.257 108.168 134.257 M108.168 130.553 Q113.978 130.553 117.033 135.16 Q120.112 139.743 120.112 148.493 Q120.112 157.22 117.033 161.826 Q113.978 166.409 108.168 166.409 Q102.358 166.409 99.2789 161.826 Q96.2234 157.22 96.2234 148.493 Q96.2234 139.743 99.2789 135.16 Q102.358 130.553 108.168 130.553 Z" fill="#000000" fill-rule="nonzero" fill-opacity="1" /><path clip-path="url(#clip470)" d="M138.33 134.257 Q134.719 134.257 132.89 137.822 Q131.084 141.363 131.084 148.493 Q131.084 155.599 132.89 159.164 Q134.719 162.706 138.33 162.706 Q141.964 162.706 143.769 159.164 Q145.598 155.599 145.598 148.493 Q145.598 141.363 143.769 137.822 Q141.964 134.257 138.33 134.257 M138.33 130.553 Q144.14 130.553 147.195 135.16 Q150.274 139.743 150.274 148.493 Q150.274 157.22 147.195 161.826 Q144.14 166.409 138.33 166.409 Q132.519 166.409 129.441 161.826 Q126.385 157.22 126.385 148.493 Q126.385 139.743 129.441 135.16 Q132.519 130.553 138.33 130.553 Z" fill="#000000" fill-rule="nonzero" fill-opacity="1" /><polyline clip-path="url(#clip471)" style="stroke:#add8e6; stroke-linecap:round; stroke-linejoin:round; stroke-width:32; stroke-opacity:1; fill:none" points="247.59,1445.72 252.865,1445.72 258.14,1445.71 263.415,1445.71 268.69,1445.69 299.585,1445.35 330.48,1444.23 361.376,1441.88 392.271,1437.85 421.016,1432.22 449.761,1424.46 469.026,1417.91 488.29,1410.2 507.555,1401.26 526.819,1391.04 542.738,1381.59 558.656,1371.21 574.575,1359.91 590.493,1347.66 605.296,1335.43 620.098,1322.39 634.901,1308.57 649.703,1293.97 668.286,1274.59 686.868,1254.08 705.45,1232.5 724.033,1209.94 757.37,1167.26 790.706,1122.19 867.024,1013.17 924.071,929.64 960.553,876.684 997.035,824.775 1030.33,778.709 1063.63,734.19 1101.53,685.674 1139.42,639.661 1169.46,605.052 1199.51,572.13 1236.83,533.584 1274.15,497.614 1302.73,471.764 1331.32,447.341 1371.62,415.23 1411.91,385.694 1442.03,365.203 1472.14,345.985 1506.39,325.584 1540.63,306.633 1574.55,289.195 1608.47,272.987 1645.78,256.471 1683.09,241.226 1711.59,230.373 1740.09,220.158 1812.03,196.944 1878.56,178.354 1947.17,161.651 2016.72,146.905 2089.34,133.505 2146.54,124.186 2276.82,106.319 2291.44,104.566 "/>
<polyline clip-path="url(#clip471)" style="stroke:#0000ff; stroke-linecap:round; stroke-linejoin:round; stroke-width:24; stroke-opacity:0.7; fill:none" stroke-dasharray="96, 60" points="247.59,1426.78 252.865,1426.1 258.14,1425.39 263.415,1424.66 268.69,1423.91 299.585,1419 330.48,1413.1 361.376,1406.06 392.271,1397.72 421.016,1388.61 449.761,1378.05 488.29,1361.32 526.819,1341.3 558.656,1322.02 590.493,1300.06 620.098,1277.12 649.703,1251.67 668.286,1234.41 686.868,1216.15 705.45,1196.91 724.033,1176.72 740.701,1157.83 757.37,1138.22 774.038,1117.93 790.706,1097.02 828.865,1047.03 867.024,994.654 895.547,954.411 924.071,913.612 997.035,809.078 1063.63,716.975 1101.53,667.272 1139.42,620.077 1169.46,584.638 1199.51,551.042 1236.83,511.933 1274.15,475.742 1302.73,449.961 1331.32,425.805 1371.62,394.383 1411.91,365.848 1442.03,346.27 1472.14,328.073 1506.39,308.926 1540.63,291.286 1574.55,275.164 1608.47,260.252 1645.78,245.103 1683.09,231.126 1711.59,221.155 1740.09,211.735 1812.03,190.077 1878.56,172.275 1947.17,155.674 2016.72,140.267 2089.34,125.356 2146.54,114.266 2276.82,90.5389 2291.44,87.9763 "/>
<path clip-path="url(#clip470)" d="M258.49 250.738 L808.609 250.738 L808.609 95.2176 L258.49 95.2176  Z" fill="#ffffff" fill-rule="evenodd" fill-opacity="1"/>
<polyline clip-path="url(#clip470)" style="stroke:#000000; stroke-linecap:round; stroke-linejoin:round; stroke-width:4; stroke-opacity:1; fill:none" points="258.49,250.738 808.609,250.738 808.609,95.2176 258.49,95.2176 258.49,250.738 "/>
<polyline clip-path="url(#clip470)" style="stroke:#add8e6; stroke-linecap:round; stroke-linejoin:round; stroke-width:20; stroke-opacity:1; fill:none" points="282.562,147.058 426.994,147.058 "/>
<path clip-path="url(#clip470)" d="M451.066 129.778 L480.302 129.778 L480.302 133.713 L468.034 133.713 L468.034 164.338 L463.335 164.338 L463.335 133.713 L451.066 133.713 L451.066 129.778 Z" fill="#000000" fill-rule="nonzero" fill-opacity="1" /><path clip-path="url(#clip470)" d="M492.686 142.393 Q491.969 141.977 491.112 141.791 Q490.279 141.583 489.26 141.583 Q485.649 141.583 483.705 143.944 Q481.784 146.282 481.784 150.68 L481.784 164.338 L477.501 164.338 L477.501 138.412 L481.784 138.412 L481.784 142.44 Q483.126 140.078 485.279 138.944 Q487.432 137.787 490.51 137.787 Q490.95 137.787 491.483 137.856 Q492.015 137.903 492.663 138.018 L492.686 142.393 Z" fill="#000000" fill-rule="nonzero" fill-opacity="1" /><path clip-path="url(#clip470)" d="M496.714 154.106 L496.714 138.412 L500.973 138.412 L500.973 153.944 Q500.973 157.625 502.409 159.476 Q503.844 161.305 506.714 161.305 Q510.163 161.305 512.154 159.106 Q514.168 156.907 514.168 153.111 L514.168 138.412 L518.427 138.412 L518.427 164.338 L514.168 164.338 L514.168 160.356 Q512.617 162.717 510.557 163.875 Q508.52 165.009 505.811 165.009 Q501.344 165.009 499.029 162.231 Q496.714 159.453 496.714 154.106 M507.432 137.787 L507.432 137.787 Z" fill="#000000" fill-rule="nonzero" fill-opacity="1" /><path clip-path="url(#clip470)" d="M549.376 150.31 L549.376 152.393 L529.793 152.393 Q530.07 156.791 532.432 159.106 Q534.816 161.398 539.052 161.398 Q541.506 161.398 543.797 160.796 Q546.112 160.194 548.381 158.99 L548.381 163.018 Q546.089 163.99 543.681 164.5 Q541.274 165.009 538.797 165.009 Q532.594 165.009 528.959 161.398 Q525.348 157.787 525.348 151.629 Q525.348 145.264 528.774 141.537 Q532.223 137.787 538.057 137.787 Q543.288 137.787 546.32 141.166 Q549.376 144.523 549.376 150.31 M545.117 149.06 Q545.07 145.565 543.149 143.481 Q541.251 141.398 538.103 141.398 Q534.538 141.398 532.385 143.412 Q530.256 145.426 529.932 149.083 L545.117 149.06 Z" fill="#000000" fill-rule="nonzero" fill-opacity="1" /><path clip-path="url(#clip470)" d="M584.561 128.319 L584.561 131.861 L580.487 131.861 Q578.195 131.861 577.292 132.787 Q576.413 133.713 576.413 136.12 L576.413 138.412 L583.427 138.412 L583.427 141.722 L576.413 141.722 L576.413 164.338 L572.13 164.338 L572.13 141.722 L568.056 141.722 L568.056 138.412 L572.13 138.412 L572.13 136.606 Q572.13 132.278 574.144 130.31 Q576.158 128.319 580.533 128.319 L584.561 128.319 Z" fill="#000000" fill-rule="nonzero" fill-opacity="1" /><path clip-path="url(#clip470)" d="M587.686 154.106 L587.686 138.412 L591.945 138.412 L591.945 153.944 Q591.945 157.625 593.38 159.476 Q594.815 161.305 597.686 161.305 Q601.135 161.305 603.126 159.106 Q605.139 156.907 605.139 153.111 L605.139 138.412 L609.399 138.412 L609.399 164.338 L605.139 164.338 L605.139 160.356 Q603.589 162.717 601.528 163.875 Q599.491 165.009 596.783 165.009 Q592.315 165.009 590.001 162.231 Q587.686 159.453 587.686 154.106 M598.403 137.787 L598.403 137.787 Z" fill="#000000" fill-rule="nonzero" fill-opacity="1" /><path clip-path="url(#clip470)" d="M639.723 148.689 L639.723 164.338 L635.463 164.338 L635.463 148.828 Q635.463 145.148 634.028 143.319 Q632.593 141.49 629.723 141.49 Q626.274 141.49 624.283 143.69 Q622.292 145.889 622.292 149.685 L622.292 164.338 L618.01 164.338 L618.01 138.412 L622.292 138.412 L622.292 142.44 Q623.82 140.102 625.88 138.944 Q627.963 137.787 630.672 137.787 Q635.139 137.787 637.431 140.565 Q639.723 143.319 639.723 148.689 Z" fill="#000000" fill-rule="nonzero" fill-opacity="1" /><path clip-path="url(#clip470)" d="M666.875 139.407 L666.875 143.389 Q665.07 142.393 663.241 141.907 Q661.435 141.398 659.584 141.398 Q655.44 141.398 653.148 144.037 Q650.857 146.652 650.857 151.398 Q650.857 156.143 653.148 158.782 Q655.44 161.398 659.584 161.398 Q661.435 161.398 663.241 160.912 Q665.07 160.402 666.875 159.407 L666.875 163.342 Q665.093 164.176 663.172 164.592 Q661.273 165.009 659.121 165.009 Q653.264 165.009 649.815 161.328 Q646.366 157.648 646.366 151.398 Q646.366 145.055 649.838 141.421 Q653.334 137.787 659.398 137.787 Q661.366 137.787 663.241 138.203 Q665.116 138.597 666.875 139.407 Z" fill="#000000" fill-rule="nonzero" fill-opacity="1" /><path clip-path="url(#clip470)" d="M678.496 131.051 L678.496 138.412 L687.269 138.412 L687.269 141.722 L678.496 141.722 L678.496 155.796 Q678.496 158.967 679.352 159.87 Q680.232 160.773 682.894 160.773 L687.269 160.773 L687.269 164.338 L682.894 164.338 Q677.963 164.338 676.088 162.509 Q674.213 160.657 674.213 155.796 L674.213 141.722 L671.088 141.722 L671.088 138.412 L674.213 138.412 L674.213 131.051 L678.496 131.051 Z" fill="#000000" fill-rule="nonzero" fill-opacity="1" /><path clip-path="url(#clip470)" d="M692.87 138.412 L697.13 138.412 L697.13 164.338 L692.87 164.338 L692.87 138.412 M692.87 128.319 L697.13 128.319 L697.13 133.713 L692.87 133.713 L692.87 128.319 Z" fill="#000000" fill-rule="nonzero" fill-opacity="1" /><path clip-path="url(#clip470)" d="M716.088 141.398 Q712.662 141.398 710.671 144.083 Q708.681 146.745 708.681 151.398 Q708.681 156.051 710.648 158.736 Q712.639 161.398 716.088 161.398 Q719.491 161.398 721.481 158.713 Q723.472 156.027 723.472 151.398 Q723.472 146.791 721.481 144.106 Q719.491 141.398 716.088 141.398 M716.088 137.787 Q721.643 137.787 724.815 141.398 Q727.986 145.009 727.986 151.398 Q727.986 157.764 724.815 161.398 Q721.643 165.009 716.088 165.009 Q710.509 165.009 707.338 161.398 Q704.19 157.764 704.19 151.398 Q704.19 145.009 707.338 141.398 Q710.509 137.787 716.088 137.787 Z" fill="#000000" fill-rule="nonzero" fill-opacity="1" /><path clip-path="url(#clip470)" d="M756.597 148.689 L756.597 164.338 L752.338 164.338 L752.338 148.828 Q752.338 145.148 750.903 143.319 Q749.467 141.49 746.597 141.49 Q743.148 141.49 741.157 143.69 Q739.167 145.889 739.167 149.685 L739.167 164.338 L734.884 164.338 L734.884 138.412 L739.167 138.412 L739.167 142.44 Q740.694 140.102 742.754 138.944 Q744.838 137.787 747.546 137.787 Q752.014 137.787 754.305 140.565 Q756.597 143.319 756.597 148.689 Z" fill="#000000" fill-rule="nonzero" fill-opacity="1" /><polyline clip-path="url(#clip470)" style="stroke:#0000ff; stroke-linecap:round; stroke-linejoin:round; stroke-width:20; stroke-opacity:0.7; fill:none" stroke-dasharray="80, 50" points="282.562,198.898 426.994,198.898 "/>
<path clip-path="url(#clip470)" d="M451.066 181.618 L470.927 181.618 L470.927 185.553 L455.742 185.553 L455.742 195.738 L469.446 195.738 L469.446 199.673 L455.742 199.673 L455.742 216.178 L451.066 216.178 L451.066 181.618 Z" fill="#000000" fill-rule="nonzero" fill-opacity="1" /><path clip-path="url(#clip470)" d="M474.7 190.252 L478.96 190.252 L478.96 216.178 L474.7 216.178 L474.7 190.252 M474.7 180.159 L478.96 180.159 L478.96 185.553 L474.7 185.553 L474.7 180.159 Z" fill="#000000" fill-rule="nonzero" fill-opacity="1" /><path clip-path="url(#clip470)" d="M492.085 182.891 L492.085 190.252 L500.858 190.252 L500.858 193.562 L492.085 193.562 L492.085 207.636 Q492.085 210.807 492.941 211.71 Q493.821 212.613 496.483 212.613 L500.858 212.613 L500.858 216.178 L496.483 216.178 Q491.552 216.178 489.677 214.349 Q487.802 212.497 487.802 207.636 L487.802 193.562 L484.677 193.562 L484.677 190.252 L487.802 190.252 L487.802 182.891 L492.085 182.891 Z" fill="#000000" fill-rule="nonzero" fill-opacity="1" /><path clip-path="url(#clip470)" d="M510.672 182.891 L510.672 190.252 L519.445 190.252 L519.445 193.562 L510.672 193.562 L510.672 207.636 Q510.672 210.807 511.529 211.71 Q512.408 212.613 515.071 212.613 L519.445 212.613 L519.445 216.178 L515.071 216.178 Q510.14 216.178 508.265 214.349 Q506.39 212.497 506.39 207.636 L506.39 193.562 L503.265 193.562 L503.265 190.252 L506.39 190.252 L506.39 182.891 L510.672 182.891 Z" fill="#000000" fill-rule="nonzero" fill-opacity="1" /><path clip-path="url(#clip470)" d="M547.223 202.15 L547.223 204.233 L527.64 204.233 Q527.918 208.631 530.279 210.946 Q532.663 213.238 536.899 213.238 Q539.353 213.238 541.644 212.636 Q543.959 212.034 546.228 210.83 L546.228 214.858 Q543.936 215.83 541.529 216.34 Q539.121 216.849 536.644 216.849 Q530.441 216.849 526.807 213.238 Q523.195 209.627 523.195 203.469 Q523.195 197.104 526.621 193.377 Q530.07 189.627 535.904 189.627 Q541.135 189.627 544.168 193.006 Q547.223 196.363 547.223 202.15 M542.964 200.9 Q542.918 197.405 540.996 195.321 Q539.098 193.238 535.95 193.238 Q532.385 193.238 530.232 195.252 Q528.103 197.266 527.779 200.923 L542.964 200.9 Z" fill="#000000" fill-rule="nonzero" fill-opacity="1" /><path clip-path="url(#clip470)" d="M571.274 194.187 L571.274 180.159 L575.533 180.159 L575.533 216.178 L571.274 216.178 L571.274 212.289 Q569.931 214.603 567.871 215.738 Q565.834 216.849 562.964 216.849 Q558.265 216.849 555.302 213.099 Q552.362 209.349 552.362 203.238 Q552.362 197.127 555.302 193.377 Q558.265 189.627 562.964 189.627 Q565.834 189.627 567.871 190.761 Q569.931 191.872 571.274 194.187 M556.76 203.238 Q556.76 207.937 558.681 210.622 Q560.626 213.284 564.005 213.284 Q567.385 213.284 569.329 210.622 Q571.274 207.937 571.274 203.238 Q571.274 198.539 569.329 195.877 Q567.385 193.192 564.005 193.192 Q560.626 193.192 558.681 195.877 Q556.76 198.539 556.76 203.238 Z" fill="#000000" fill-rule="nonzero" fill-opacity="1" /><path clip-path="url(#clip470)" d="M612.501 180.159 L612.501 183.701 L608.427 183.701 Q606.135 183.701 605.232 184.627 Q604.352 185.553 604.352 187.96 L604.352 190.252 L611.366 190.252 L611.366 193.562 L604.352 193.562 L604.352 216.178 L600.07 216.178 L600.07 193.562 L595.996 193.562 L595.996 190.252 L600.07 190.252 L600.07 188.446 Q600.07 184.118 602.084 182.15 Q604.098 180.159 608.473 180.159 L612.501 180.159 Z" fill="#000000" fill-rule="nonzero" fill-opacity="1" /><path clip-path="url(#clip470)" d="M615.626 205.946 L615.626 190.252 L619.885 190.252 L619.885 205.784 Q619.885 209.465 621.32 211.316 Q622.755 213.145 625.625 213.145 Q629.075 213.145 631.065 210.946 Q633.079 208.747 633.079 204.951 L633.079 190.252 L637.338 190.252 L637.338 216.178 L633.079 216.178 L633.079 212.196 Q631.528 214.557 629.468 215.715 Q627.431 216.849 624.723 216.849 Q620.255 216.849 617.94 214.071 Q615.626 211.293 615.626 205.946 M626.343 189.627 L626.343 189.627 Z" fill="#000000" fill-rule="nonzero" fill-opacity="1" /><path clip-path="url(#clip470)" d="M667.662 200.529 L667.662 216.178 L663.403 216.178 L663.403 200.668 Q663.403 196.988 661.968 195.159 Q660.533 193.33 657.662 193.33 Q654.213 193.33 652.223 195.53 Q650.232 197.729 650.232 201.525 L650.232 216.178 L645.949 216.178 L645.949 190.252 L650.232 190.252 L650.232 194.28 Q651.76 191.942 653.82 190.784 Q655.903 189.627 658.611 189.627 Q663.079 189.627 665.371 192.405 Q667.662 195.159 667.662 200.529 Z" fill="#000000" fill-rule="nonzero" fill-opacity="1" /><path clip-path="url(#clip470)" d="M694.815 191.247 L694.815 195.229 Q693.009 194.233 691.181 193.747 Q689.375 193.238 687.523 193.238 Q683.38 193.238 681.088 195.877 Q678.796 198.492 678.796 203.238 Q678.796 207.983 681.088 210.622 Q683.38 213.238 687.523 213.238 Q689.375 213.238 691.181 212.752 Q693.009 212.242 694.815 211.247 L694.815 215.182 Q693.033 216.016 691.111 216.432 Q689.213 216.849 687.06 216.849 Q681.204 216.849 677.755 213.168 Q674.306 209.488 674.306 203.238 Q674.306 196.895 677.778 193.261 Q681.273 189.627 687.338 189.627 Q689.306 189.627 691.181 190.043 Q693.056 190.437 694.815 191.247 Z" fill="#000000" fill-rule="nonzero" fill-opacity="1" /><path clip-path="url(#clip470)" d="M706.435 182.891 L706.435 190.252 L715.208 190.252 L715.208 193.562 L706.435 193.562 L706.435 207.636 Q706.435 210.807 707.292 211.71 Q708.171 212.613 710.833 212.613 L715.208 212.613 L715.208 216.178 L710.833 216.178 Q705.903 216.178 704.028 214.349 Q702.153 212.497 702.153 207.636 L702.153 193.562 L699.028 193.562 L699.028 190.252 L702.153 190.252 L702.153 182.891 L706.435 182.891 Z" fill="#000000" fill-rule="nonzero" fill-opacity="1" /><path clip-path="url(#clip470)" d="M720.81 190.252 L725.069 190.252 L725.069 216.178 L720.81 216.178 L720.81 190.252 M720.81 180.159 L725.069 180.159 L725.069 185.553 L720.81 185.553 L720.81 180.159 Z" fill="#000000" fill-rule="nonzero" fill-opacity="1" /><path clip-path="url(#clip470)" d="M744.028 193.238 Q740.602 193.238 738.611 195.923 Q736.62 198.585 736.62 203.238 Q736.62 207.891 738.588 210.576 Q740.579 213.238 744.028 213.238 Q747.43 213.238 749.421 210.553 Q751.412 207.867 751.412 203.238 Q751.412 198.631 749.421 195.946 Q747.43 193.238 744.028 193.238 M744.028 189.627 Q749.583 189.627 752.754 193.238 Q755.926 196.849 755.926 203.238 Q755.926 209.604 752.754 213.238 Q749.583 216.849 744.028 216.849 Q738.449 216.849 735.278 213.238 Q732.13 209.604 732.13 203.238 Q732.13 196.849 735.278 193.238 Q738.449 189.627 744.028 189.627 Z" fill="#000000" fill-rule="nonzero" fill-opacity="1" /><path clip-path="url(#clip470)" d="M784.537 200.529 L784.537 216.178 L780.277 216.178 L780.277 200.668 Q780.277 196.988 778.842 195.159 Q777.407 193.33 774.537 193.33 Q771.088 193.33 769.097 195.53 Q767.106 197.729 767.106 201.525 L767.106 216.178 L762.824 216.178 L762.824 190.252 L767.106 190.252 L767.106 194.28 Q768.634 191.942 770.694 190.784 Q772.777 189.627 775.486 189.627 Q779.953 189.627 782.245 192.405 Q784.537 195.159 784.537 200.529 Z" fill="#000000" fill-rule="nonzero" fill-opacity="1" /></svg>
