<?xml version="1.0" encoding="utf-8"?>
<svg xmlns="http://www.w3.org/2000/svg" xmlns:xlink="http://www.w3.org/1999/xlink" width="600" height="400" viewBox="0 0 2400 1600">
<defs>
  <clipPath id="clip820">
    <rect x="0" y="0" width="2400" height="1600"/>
  </clipPath>
</defs>
<path clip-path="url(#clip820)" d="M0 1600 L2400 1600 L2400 0 L0 0  Z" fill="#ffffff" fill-rule="evenodd" fill-opacity="1"/>
<defs>
  <clipPath id="clip821">
    <rect x="480" y="0" width="1681" height="1600"/>
  </clipPath>
</defs>
<path clip-path="url(#clip820)" d="M184.191 1423.18 L2352.76 1423.18 L2352.76 47.2441 L184.191 47.2441  Z" fill="#ffffff" fill-rule="evenodd" fill-opacity="1"/>
<defs>
  <clipPath id="clip822">
    <rect x="184" y="47" width="2170" height="1377"/>
  </clipPath>
</defs>
<polyline clip-path="url(#clip822)" style="stroke:#000000; stroke-linecap:round; stroke-linejoin:round; stroke-width:2; stroke-opacity:0.1; fill:none" points="184.191,1423.18 184.191,47.2441 "/>
<polyline clip-path="url(#clip822)" style="stroke:#000000; stroke-linecap:round; stroke-linejoin:round; stroke-width:2; stroke-opacity:0.1; fill:none" points="617.904,1423.18 617.904,47.2441 "/>
<polyline clip-path="url(#clip822)" style="stroke:#000000; stroke-linecap:round; stroke-linejoin:round; stroke-width:2; stroke-opacity:0.1; fill:none" points="1051.62,1423.18 1051.62,47.2441 "/>
<polyline clip-path="url(#clip822)" style="stroke:#000000; stroke-linecap:round; stroke-linejoin:round; stroke-width:2; stroke-opacity:0.1; fill:none" points="1485.33,1423.18 1485.33,47.2441 "/>
<polyline clip-path="url(#clip822)" style="stroke:#000000; stroke-linecap:round; stroke-linejoin:round; stroke-width:2; stroke-opacity:0.1; fill:none" points="1919.04,1423.18 1919.04,47.2441 "/>
<polyline clip-path="url(#clip820)" style="stroke:#000000; stroke-linecap:round; stroke-linejoin:round; stroke-width:4; stroke-opacity:1; fill:none" points="184.191,1423.18 2352.76,1423.18 "/>
<polyline clip-path="url(#clip820)" style="stroke:#000000; stroke-linecap:round; stroke-linejoin:round; stroke-width:4; stroke-opacity:1; fill:none" points="184.191,1423.18 184.191,1404.28 "/>
<polyline clip-path="url(#clip820)" style="stroke:#000000; stroke-linecap:round; stroke-linejoin:round; stroke-width:4; stroke-opacity:1; fill:none" points="617.904,1423.18 617.904,1404.28 "/>
<polyline clip-path="url(#clip820)" style="stroke:#000000; stroke-linecap:round; stroke-linejoin:round; stroke-width:4; stroke-opacity:1; fill:none" points="1051.62,1423.18 1051.62,1404.28 "/>
<polyline clip-path="url(#clip820)" style="stroke:#000000; stroke-linecap:round; stroke-linejoin:round; stroke-width:4; stroke-opacity:1; fill:none" points="1485.33,1423.18 1485.33,1404.28 "/>
<polyline clip-path="url(#clip820)" style="stroke:#000000; stroke-linecap:round; stroke-linejoin:round; stroke-width:4; stroke-opacity:1; fill:none" points="1919.04,1423.18 1919.04,1404.28 "/>
<path clip-path="url(#clip820)" d="M146.494 1454.1 Q142.883 1454.1 141.054 1457.66 Q139.249 1461.2 139.249 1468.33 Q139.249 1475.44 141.054 1479.01 Q142.883 1482.55 146.494 1482.55 Q150.128 1482.55 151.934 1479.01 Q153.763 1475.44 153.763 1468.33 Q153.763 1461.2 151.934 1457.66 Q150.128 1454.1 146.494 1454.1 M146.494 1450.39 Q152.304 1450.39 155.36 1455 Q158.439 1459.58 158.439 1468.33 Q158.439 1477.06 155.36 1481.67 Q152.304 1486.25 146.494 1486.25 Q140.684 1486.25 137.605 1481.67 Q134.55 1477.06 134.55 1468.33 Q134.55 1459.58 137.605 1455 Q140.684 1450.39 146.494 1450.39 Z" fill="#000000" fill-rule="nonzero" fill-opacity="1" /><path clip-path="url(#clip820)" d="M166.656 1479.7 L171.54 1479.7 L171.54 1485.58 L166.656 1485.58 L166.656 1479.7 Z" fill="#000000" fill-rule="nonzero" fill-opacity="1" /><path clip-path="url(#clip820)" d="M191.725 1454.1 Q188.114 1454.1 186.286 1457.66 Q184.48 1461.2 184.48 1468.33 Q184.48 1475.44 186.286 1479.01 Q188.114 1482.55 191.725 1482.55 Q195.36 1482.55 197.165 1479.01 Q198.994 1475.44 198.994 1468.33 Q198.994 1461.2 197.165 1457.66 Q195.36 1454.1 191.725 1454.1 M191.725 1450.39 Q197.536 1450.39 200.591 1455 Q203.67 1459.58 203.67 1468.33 Q203.67 1477.06 200.591 1481.67 Q197.536 1486.25 191.725 1486.25 Q185.915 1486.25 182.837 1481.67 Q179.781 1477.06 179.781 1468.33 Q179.781 1459.58 182.837 1455 Q185.915 1450.39 191.725 1450.39 Z" fill="#000000" fill-rule="nonzero" fill-opacity="1" /><path clip-path="url(#clip820)" d="M221.887 1454.1 Q218.276 1454.1 216.447 1457.66 Q214.642 1461.2 214.642 1468.33 Q214.642 1475.44 216.447 1479.01 Q218.276 1482.55 221.887 1482.55 Q225.521 1482.55 227.327 1479.01 Q229.156 1475.44 229.156 1468.33 Q229.156 1461.2 227.327 1457.66 Q225.521 1454.1 221.887 1454.1 M221.887 1450.39 Q227.697 1450.39 230.753 1455 Q233.832 1459.58 233.832 1468.33 Q233.832 1477.06 230.753 1481.67 Q227.697 1486.25 221.887 1486.25 Q216.077 1486.25 212.998 1481.67 Q209.943 1477.06 209.943 1468.33 Q209.943 1459.58 212.998 1455 Q216.077 1450.39 221.887 1450.39 Z" fill="#000000" fill-rule="nonzero" fill-opacity="1" /><path clip-path="url(#clip820)" d="M581.006 1454.1 Q577.395 1454.1 575.566 1457.66 Q573.76 1461.2 573.76 1468.33 Q573.76 1475.44 575.566 1479.01 Q577.395 1482.55 581.006 1482.55 Q584.64 1482.55 586.446 1479.01 Q588.274 1475.44 588.274 1468.33 Q588.274 1461.2 586.446 1457.66 Q584.64 1454.1 581.006 1454.1 M581.006 1450.39 Q586.816 1450.39 589.871 1455 Q592.95 1459.58 592.95 1468.33 Q592.95 1477.06 589.871 1481.67 Q586.816 1486.25 581.006 1486.25 Q575.196 1486.25 572.117 1481.67 Q569.061 1477.06 569.061 1468.33 Q569.061 1459.58 572.117 1455 Q575.196 1450.39 581.006 1450.39 Z" fill="#000000" fill-rule="nonzero" fill-opacity="1" /><path clip-path="url(#clip820)" d="M601.168 1479.7 L606.052 1479.7 L606.052 1485.58 L601.168 1485.58 L601.168 1479.7 Z" fill="#000000" fill-rule="nonzero" fill-opacity="1" /><path clip-path="url(#clip820)" d="M626.237 1454.1 Q622.626 1454.1 620.797 1457.66 Q618.992 1461.2 618.992 1468.33 Q618.992 1475.44 620.797 1479.01 Q622.626 1482.55 626.237 1482.55 Q629.871 1482.55 631.677 1479.01 Q633.505 1475.44 633.505 1468.33 Q633.505 1461.2 631.677 1457.66 Q629.871 1454.1 626.237 1454.1 M626.237 1450.39 Q632.047 1450.39 635.103 1455 Q638.181 1459.58 638.181 1468.33 Q638.181 1477.06 635.103 1481.67 Q632.047 1486.25 626.237 1486.25 Q620.427 1486.25 617.348 1481.67 Q614.293 1477.06 614.293 1468.33 Q614.293 1459.58 617.348 1455 Q620.427 1450.39 626.237 1450.39 Z" fill="#000000" fill-rule="nonzero" fill-opacity="1" /><path clip-path="url(#clip820)" d="M650.427 1481.64 L666.746 1481.64 L666.746 1485.58 L644.802 1485.58 L644.802 1481.64 Q647.464 1478.89 652.047 1474.26 Q656.654 1469.61 657.834 1468.27 Q660.079 1465.74 660.959 1464.01 Q661.862 1462.25 661.862 1460.56 Q661.862 1457.8 659.917 1456.07 Q657.996 1454.33 654.894 1454.33 Q652.695 1454.33 650.242 1455.09 Q647.811 1455.86 645.033 1457.41 L645.033 1452.69 Q647.857 1451.55 650.311 1450.97 Q652.765 1450.39 654.802 1450.39 Q660.172 1450.39 663.366 1453.08 Q666.561 1455.77 666.561 1460.26 Q666.561 1462.39 665.751 1464.31 Q664.964 1466.2 662.857 1468.8 Q662.278 1469.47 659.177 1472.69 Q656.075 1475.88 650.427 1481.64 Z" fill="#000000" fill-rule="nonzero" fill-opacity="1" /><path clip-path="url(#clip820)" d="M1013.68 1454.1 Q1010.07 1454.1 1008.24 1457.66 Q1006.43 1461.2 1006.43 1468.33 Q1006.43 1475.44 1008.24 1479.01 Q1010.07 1482.55 1013.68 1482.55 Q1017.31 1482.55 1019.12 1479.01 Q1020.95 1475.44 1020.95 1468.33 Q1020.95 1461.2 1019.12 1457.66 Q1017.31 1454.1 1013.68 1454.1 M1013.68 1450.39 Q1019.49 1450.39 1022.54 1455 Q1025.62 1459.58 1025.62 1468.33 Q1025.62 1477.06 1022.54 1481.67 Q1019.49 1486.25 1013.68 1486.25 Q1007.87 1486.25 1004.79 1481.67 Q1001.73 1477.06 1001.73 1468.33 Q1001.73 1459.58 1004.79 1455 Q1007.87 1450.39 1013.68 1450.39 Z" fill="#000000" fill-rule="nonzero" fill-opacity="1" /><path clip-path="url(#clip820)" d="M1033.84 1479.7 L1038.72 1479.7 L1038.72 1485.58 L1033.84 1485.58 L1033.84 1479.7 Z" fill="#000000" fill-rule="nonzero" fill-opacity="1" /><path clip-path="url(#clip820)" d="M1058.91 1454.1 Q1055.3 1454.1 1053.47 1457.66 Q1051.66 1461.2 1051.66 1468.33 Q1051.66 1475.44 1053.47 1479.01 Q1055.3 1482.55 1058.91 1482.55 Q1062.54 1482.55 1064.35 1479.01 Q1066.18 1475.44 1066.18 1468.33 Q1066.18 1461.2 1064.35 1457.66 Q1062.54 1454.1 1058.91 1454.1 M1058.91 1450.39 Q1064.72 1450.39 1067.77 1455 Q1070.85 1459.58 1070.85 1468.33 Q1070.85 1477.06 1067.77 1481.67 Q1064.72 1486.25 1058.91 1486.25 Q1053.1 1486.25 1050.02 1481.67 Q1046.96 1477.06 1046.96 1468.33 Q1046.96 1459.58 1050.02 1455 Q1053.1 1450.39 1058.91 1450.39 Z" fill="#000000" fill-rule="nonzero" fill-opacity="1" /><path clip-path="url(#clip820)" d="M1091.92 1455.09 L1080.11 1473.54 L1091.92 1473.54 L1091.92 1455.09 M1090.69 1451.02 L1096.57 1451.02 L1096.57 1473.54 L1101.5 1473.54 L1101.5 1477.43 L1096.57 1477.43 L1096.57 1485.58 L1091.92 1485.58 L1091.92 1477.43 L1076.32 1477.43 L1076.32 1472.92 L1090.69 1451.02 Z" fill="#000000" fill-rule="nonzero" fill-opacity="1" /><path clip-path="url(#clip820)" d="M1447.55 1454.1 Q1443.94 1454.1 1442.11 1457.66 Q1440.31 1461.2 1440.31 1468.33 Q1440.31 1475.44 1442.11 1479.01 Q1443.94 1482.55 1447.55 1482.55 Q1451.19 1482.55 1452.99 1479.01 Q1454.82 1475.44 1454.82 1468.33 Q1454.82 1461.2 1452.99 1457.66 Q1451.19 1454.1 1447.55 1454.1 M1447.55 1450.39 Q1453.36 1450.39 1456.42 1455 Q1459.5 1459.58 1459.5 1468.33 Q1459.5 1477.06 1456.42 1481.67 Q1453.36 1486.25 1447.55 1486.25 Q1441.74 1486.25 1438.66 1481.67 Q1435.61 1477.06 1435.61 1468.33 Q1435.61 1459.58 1438.66 1455 Q1441.74 1450.39 1447.55 1450.39 Z" fill="#000000" fill-rule="nonzero" fill-opacity="1" /><path clip-path="url(#clip820)" d="M1467.71 1479.7 L1472.6 1479.7 L1472.6 1485.58 L1467.71 1485.58 L1467.71 1479.7 Z" fill="#000000" fill-rule="nonzero" fill-opacity="1" /><path clip-path="url(#clip820)" d="M1492.78 1454.1 Q1489.17 1454.1 1487.34 1457.66 Q1485.54 1461.2 1485.54 1468.33 Q1485.54 1475.44 1487.34 1479.01 Q1489.17 1482.55 1492.78 1482.55 Q1496.42 1482.55 1498.22 1479.01 Q1500.05 1475.44 1500.05 1468.33 Q1500.05 1461.2 1498.22 1457.66 Q1496.42 1454.1 1492.78 1454.1 M1492.78 1450.39 Q1498.59 1450.39 1501.65 1455 Q1504.73 1459.58 1504.73 1468.33 Q1504.73 1477.06 1501.65 1481.67 Q1498.59 1486.25 1492.78 1486.25 Q1486.97 1486.25 1483.89 1481.67 Q1480.84 1477.06 1480.84 1468.33 Q1480.84 1459.58 1483.89 1455 Q1486.97 1450.39 1492.78 1450.39 Z" fill="#000000" fill-rule="nonzero" fill-opacity="1" /><path clip-path="url(#clip820)" d="M1523.52 1466.44 Q1520.38 1466.44 1518.52 1468.59 Q1516.7 1470.74 1516.7 1474.49 Q1516.7 1478.22 1518.52 1480.39 Q1520.38 1482.55 1523.52 1482.55 Q1526.67 1482.55 1528.5 1480.39 Q1530.35 1478.22 1530.35 1474.49 Q1530.35 1470.74 1528.5 1468.59 Q1526.67 1466.44 1523.52 1466.44 M1532.81 1451.78 L1532.81 1456.04 Q1531.05 1455.21 1529.24 1454.77 Q1527.46 1454.33 1525.7 1454.33 Q1521.07 1454.33 1518.62 1457.45 Q1516.19 1460.58 1515.84 1466.9 Q1517.2 1464.89 1519.26 1463.82 Q1521.32 1462.73 1523.8 1462.73 Q1529.01 1462.73 1532.02 1465.9 Q1535.05 1469.05 1535.05 1474.49 Q1535.05 1479.82 1531.9 1483.03 Q1528.76 1486.25 1523.52 1486.25 Q1517.53 1486.25 1514.36 1481.67 Q1511.19 1477.06 1511.19 1468.33 Q1511.19 1460.14 1515.08 1455.28 Q1518.96 1450.39 1525.51 1450.39 Q1527.27 1450.39 1529.06 1450.74 Q1530.86 1451.09 1532.81 1451.78 Z" fill="#000000" fill-rule="nonzero" fill-opacity="1" /><path clip-path="url(#clip820)" d="M1881.39 1454.1 Q1877.78 1454.1 1875.95 1457.66 Q1874.15 1461.2 1874.15 1468.33 Q1874.15 1475.44 1875.95 1479.01 Q1877.78 1482.55 1881.39 1482.55 Q1885.03 1482.55 1886.83 1479.01 Q1888.66 1475.44 1888.66 1468.33 Q1888.66 1461.2 1886.83 1457.66 Q1885.03 1454.1 1881.39 1454.1 M1881.39 1450.39 Q1887.2 1450.39 1890.26 1455 Q1893.34 1459.58 1893.34 1468.33 Q1893.34 1477.06 1890.26 1481.67 Q1887.2 1486.25 1881.39 1486.25 Q1875.58 1486.25 1872.5 1481.67 Q1869.45 1477.06 1869.45 1468.33 Q1869.45 1459.58 1872.5 1455 Q1875.58 1450.39 1881.39 1450.39 Z" fill="#000000" fill-rule="nonzero" fill-opacity="1" /><path clip-path="url(#clip820)" d="M1901.55 1479.7 L1906.44 1479.7 L1906.44 1485.58 L1901.55 1485.58 L1901.55 1479.7 Z" fill="#000000" fill-rule="nonzero" fill-opacity="1" /><path clip-path="url(#clip820)" d="M1926.62 1454.1 Q1923.01 1454.1 1921.18 1457.66 Q1919.38 1461.2 1919.38 1468.33 Q1919.38 1475.44 1921.18 1479.01 Q1923.01 1482.55 1926.62 1482.55 Q1930.26 1482.55 1932.06 1479.01 Q1933.89 1475.44 1933.89 1468.33 Q1933.89 1461.2 1932.06 1457.66 Q1930.26 1454.1 1926.62 1454.1 M1926.62 1450.39 Q1932.43 1450.39 1935.49 1455 Q1938.57 1459.58 1938.57 1468.33 Q1938.57 1477.06 1935.49 1481.67 Q1932.43 1486.25 1926.62 1486.25 Q1920.81 1486.25 1917.73 1481.67 Q1914.68 1477.06 1914.68 1468.33 Q1914.68 1459.58 1917.73 1455 Q1920.81 1450.39 1926.62 1450.39 Z" fill="#000000" fill-rule="nonzero" fill-opacity="1" /><path clip-path="url(#clip820)" d="M1956.79 1469.17 Q1953.45 1469.17 1951.53 1470.95 Q1949.63 1472.73 1949.63 1475.86 Q1949.63 1478.98 1951.53 1480.77 Q1953.45 1482.55 1956.79 1482.55 Q1960.12 1482.55 1962.04 1480.77 Q1963.96 1478.96 1963.96 1475.86 Q1963.96 1472.73 1962.04 1470.95 Q1960.14 1469.17 1956.79 1469.17 M1952.11 1467.18 Q1949.1 1466.44 1947.41 1464.38 Q1945.74 1462.32 1945.74 1459.35 Q1945.74 1455.21 1948.68 1452.8 Q1951.65 1450.39 1956.79 1450.39 Q1961.95 1450.39 1964.89 1452.8 Q1967.83 1455.21 1967.83 1459.35 Q1967.83 1462.32 1966.14 1464.38 Q1964.47 1466.44 1961.48 1467.18 Q1964.86 1467.96 1966.74 1470.26 Q1968.64 1472.55 1968.64 1475.86 Q1968.64 1480.88 1965.56 1483.57 Q1962.5 1486.25 1956.79 1486.25 Q1951.07 1486.25 1947.99 1483.57 Q1944.93 1480.88 1944.93 1475.86 Q1944.93 1472.55 1946.83 1470.26 Q1948.73 1467.96 1952.11 1467.18 M1950.4 1459.79 Q1950.4 1462.48 1952.06 1463.98 Q1953.75 1465.49 1956.79 1465.49 Q1959.79 1465.49 1961.48 1463.98 Q1963.2 1462.48 1963.2 1459.79 Q1963.2 1457.11 1961.48 1455.6 Q1959.79 1454.1 1956.79 1454.1 Q1953.75 1454.1 1952.06 1455.6 Q1950.4 1457.11 1950.4 1459.79 Z" fill="#000000" fill-rule="nonzero" fill-opacity="1" /><path clip-path="url(#clip820)" d="M1267.53 1522.27 L1267.53 1532.4 L1279.6 1532.4 L1279.6 1536.95 L1267.53 1536.95 L1267.53 1556.3 Q1267.53 1560.66 1268.71 1561.9 Q1269.92 1563.14 1273.58 1563.14 L1279.6 1563.14 L1279.6 1568.04 L1273.58 1568.04 Q1266.8 1568.04 1264.22 1565.53 Q1261.65 1562.98 1261.65 1556.3 L1261.65 1536.95 L1257.35 1536.95 L1257.35 1532.4 L1261.65 1532.4 L1261.65 1522.27 L1267.53 1522.27 Z" fill="#000000" fill-rule="nonzero" fill-opacity="1" /><polyline clip-path="url(#clip822)" style="stroke:#000000; stroke-linecap:round; stroke-linejoin:round; stroke-width:2; stroke-opacity:0.1; fill:none" points="184.191,1384.24 2352.76,1384.24 "/>
<polyline clip-path="url(#clip822)" style="stroke:#000000; stroke-linecap:round; stroke-linejoin:round; stroke-width:2; stroke-opacity:0.1; fill:none" points="184.191,1115.71 2352.76,1115.71 "/>
<polyline clip-path="url(#clip822)" style="stroke:#000000; stroke-linecap:round; stroke-linejoin:round; stroke-width:2; stroke-opacity:0.1; fill:none" points="184.191,847.186 2352.76,847.186 "/>
<polyline clip-path="url(#clip822)" style="stroke:#000000; stroke-linecap:round; stroke-linejoin:round; stroke-width:2; stroke-opacity:0.1; fill:none" points="184.191,578.659 2352.76,578.659 "/>
<polyline clip-path="url(#clip822)" style="stroke:#000000; stroke-linecap:round; stroke-linejoin:round; stroke-width:2; stroke-opacity:0.1; fill:none" points="184.191,310.133 2352.76,310.133 "/>
<polyline clip-path="url(#clip820)" style="stroke:#000000; stroke-linecap:round; stroke-linejoin:round; stroke-width:4; stroke-opacity:1; fill:none" points="184.191,1423.18 184.191,47.2441 "/>
<polyline clip-path="url(#clip820)" style="stroke:#000000; stroke-linecap:round; stroke-linejoin:round; stroke-width:4; stroke-opacity:1; fill:none" points="184.191,1384.24 203.088,1384.24 "/>
<polyline clip-path="url(#clip820)" style="stroke:#000000; stroke-linecap:round; stroke-linejoin:round; stroke-width:4; stroke-opacity:1; fill:none" points="184.191,1115.71 203.088,1115.71 "/>
<polyline clip-path="url(#clip820)" style="stroke:#000000; stroke-linecap:round; stroke-linejoin:round; stroke-width:4; stroke-opacity:1; fill:none" points="184.191,847.186 203.088,847.186 "/>
<polyline clip-path="url(#clip820)" style="stroke:#000000; stroke-linecap:round; stroke-linejoin:round; stroke-width:4; stroke-opacity:1; fill:none" points="184.191,578.659 203.088,578.659 "/>
<polyline clip-path="url(#clip820)" style="stroke:#000000; stroke-linecap:round; stroke-linejoin:round; stroke-width:4; stroke-opacity:1; fill:none" points="184.191,310.133 203.088,310.133 "/>
<path clip-path="url(#clip820)" d="M91.0151 1370.04 Q87.404 1370.04 85.5753 1373.6 Q83.7697 1377.14 83.7697 1384.27 Q83.7697 1391.38 85.5753 1394.94 Q87.404 1398.49 91.0151 1398.49 Q94.6493 1398.49 96.4548 1394.94 Q98.2835 1391.38 98.2835 1384.27 Q98.2835 1377.14 96.4548 1373.6 Q94.6493 1370.04 91.0151 1370.04 M91.0151 1366.33 Q96.8252 1366.33 99.8808 1370.94 Q102.959 1375.52 102.959 1384.27 Q102.959 1393 99.8808 1397.61 Q96.8252 1402.19 91.0151 1402.19 Q85.2049 1402.19 82.1262 1397.61 Q79.0707 1393 79.0707 1384.27 Q79.0707 1375.52 82.1262 1370.94 Q85.2049 1366.33 91.0151 1366.33 Z" fill="#000000" fill-rule="nonzero" fill-opacity="1" /><path clip-path="url(#clip820)" d="M111.177 1395.64 L116.061 1395.64 L116.061 1401.52 L111.177 1401.52 L111.177 1395.64 Z" fill="#000000" fill-rule="nonzero" fill-opacity="1" /><path clip-path="url(#clip820)" d="M136.246 1370.04 Q132.635 1370.04 130.807 1373.6 Q129.001 1377.14 129.001 1384.27 Q129.001 1391.38 130.807 1394.94 Q132.635 1398.49 136.246 1398.49 Q139.881 1398.49 141.686 1394.94 Q143.515 1391.38 143.515 1384.27 Q143.515 1377.14 141.686 1373.6 Q139.881 1370.04 136.246 1370.04 M136.246 1366.33 Q142.056 1366.33 145.112 1370.94 Q148.191 1375.52 148.191 1384.27 Q148.191 1393 145.112 1397.61 Q142.056 1402.19 136.246 1402.19 Q130.436 1402.19 127.357 1397.61 Q124.302 1393 124.302 1384.27 Q124.302 1375.52 127.357 1370.94 Q130.436 1366.33 136.246 1366.33 Z" fill="#000000" fill-rule="nonzero" fill-opacity="1" /><path clip-path="url(#clip820)" d="M86.0382 1129.06 L102.358 1129.06 L102.358 1132.99 L80.4133 1132.99 L80.4133 1129.06 Q83.0753 1126.3 87.6586 1121.67 Q92.2651 1117.02 93.4456 1115.68 Q95.691 1113.15 96.5706 1111.42 Q97.4734 1109.66 97.4734 1107.97 Q97.4734 1105.21 95.5289 1103.48 Q93.6076 1101.74 90.5058 1101.74 Q88.3067 1101.74 85.8531 1102.51 Q83.4225 1103.27 80.6447 1104.82 L80.6447 1100.1 Q83.4688 1098.96 85.9225 1098.39 Q88.3762 1097.81 90.4132 1097.81 Q95.7836 1097.81 98.978 1100.49 Q102.172 1103.18 102.172 1107.67 Q102.172 1109.8 101.362 1111.72 Q100.575 1113.62 98.4687 1116.21 Q97.89 1116.88 94.7882 1120.1 Q91.6864 1123.29 86.0382 1129.06 Z" fill="#000000" fill-rule="nonzero" fill-opacity="1" /><path clip-path="url(#clip820)" d="M112.172 1127.11 L117.057 1127.11 L117.057 1132.99 L112.172 1132.99 L112.172 1127.11 Z" fill="#000000" fill-rule="nonzero" fill-opacity="1" /><path clip-path="url(#clip820)" d="M127.288 1098.43 L145.644 1098.43 L145.644 1102.37 L131.57 1102.37 L131.57 1110.84 Q132.589 1110.49 133.607 1110.33 Q134.626 1110.14 135.644 1110.14 Q141.431 1110.14 144.811 1113.32 Q148.191 1116.49 148.191 1121.9 Q148.191 1127.48 144.718 1130.58 Q141.246 1133.66 134.927 1133.66 Q132.751 1133.66 130.482 1133.29 Q128.237 1132.92 125.83 1132.18 L125.83 1127.48 Q127.913 1128.62 130.135 1129.17 Q132.357 1129.73 134.834 1129.73 Q138.839 1129.73 141.177 1127.62 Q143.515 1125.52 143.515 1121.9 Q143.515 1118.29 141.177 1116.19 Q138.839 1114.08 134.834 1114.08 Q132.959 1114.08 131.084 1114.5 Q129.232 1114.91 127.288 1115.79 L127.288 1098.43 Z" fill="#000000" fill-rule="nonzero" fill-opacity="1" /><path clip-path="url(#clip820)" d="M81.0614 829.906 L99.4178 829.906 L99.4178 833.841 L85.3438 833.841 L85.3438 842.313 Q86.3623 841.966 87.3808 841.804 Q88.3993 841.619 89.4178 841.619 Q95.2049 841.619 98.5845 844.79 Q101.964 847.961 101.964 853.378 Q101.964 858.956 98.4919 862.058 Q95.0197 865.137 88.7003 865.137 Q86.5243 865.137 84.2558 864.767 Q82.0105 864.396 79.6031 863.656 L79.6031 858.956 Q81.6864 860.091 83.9086 860.646 Q86.1308 861.202 88.6077 861.202 Q92.6123 861.202 94.9502 859.095 Q97.2882 856.989 97.2882 853.378 Q97.2882 849.767 94.9502 847.66 Q92.6123 845.554 88.6077 845.554 Q86.7327 845.554 84.8577 845.97 Q83.0058 846.387 81.0614 847.267 L81.0614 829.906 Z" fill="#000000" fill-rule="nonzero" fill-opacity="1" /><path clip-path="url(#clip820)" d="M111.177 858.586 L116.061 858.586 L116.061 864.466 L111.177 864.466 L111.177 858.586 Z" fill="#000000" fill-rule="nonzero" fill-opacity="1" /><path clip-path="url(#clip820)" d="M136.246 832.984 Q132.635 832.984 130.807 836.549 Q129.001 840.091 129.001 847.22 Q129.001 854.327 130.807 857.892 Q132.635 861.433 136.246 861.433 Q139.881 861.433 141.686 857.892 Q143.515 854.327 143.515 847.22 Q143.515 840.091 141.686 836.549 Q139.881 832.984 136.246 832.984 M136.246 829.281 Q142.056 829.281 145.112 833.887 Q148.191 838.47 148.191 847.22 Q148.191 855.947 145.112 860.554 Q142.056 865.137 136.246 865.137 Q130.436 865.137 127.357 860.554 Q124.302 855.947 124.302 847.22 Q124.302 838.47 127.357 833.887 Q130.436 829.281 136.246 829.281 Z" fill="#000000" fill-rule="nonzero" fill-opacity="1" /><path clip-path="url(#clip820)" d="M80.8299 561.379 L103.052 561.379 L103.052 563.37 L90.5058 595.939 L85.6216 595.939 L97.4271 565.315 L80.8299 565.315 L80.8299 561.379 Z" fill="#000000" fill-rule="nonzero" fill-opacity="1" /><path clip-path="url(#clip820)" d="M112.172 590.06 L117.057 590.06 L117.057 595.939 L112.172 595.939 L112.172 590.06 Z" fill="#000000" fill-rule="nonzero" fill-opacity="1" /><path clip-path="url(#clip820)" d="M127.288 561.379 L145.644 561.379 L145.644 565.315 L131.57 565.315 L131.57 573.787 Q132.589 573.44 133.607 573.278 Q134.626 573.092 135.644 573.092 Q141.431 573.092 144.811 576.264 Q148.191 579.435 148.191 584.852 Q148.191 590.43 144.718 593.532 Q141.246 596.611 134.927 596.611 Q132.751 596.611 130.482 596.24 Q128.237 595.87 125.83 595.129 L125.83 590.43 Q127.913 591.564 130.135 592.12 Q132.357 592.676 134.834 592.676 Q138.839 592.676 141.177 590.569 Q143.515 588.463 143.515 584.852 Q143.515 581.24 141.177 579.134 Q138.839 577.027 134.834 577.027 Q132.959 577.027 131.084 577.444 Q129.232 577.861 127.288 578.74 L127.288 561.379 Z" fill="#000000" fill-rule="nonzero" fill-opacity="1" /><path clip-path="url(#clip820)" d="M51.6634 323.478 L59.3023 323.478 L59.3023 297.112 L50.9921 298.779 L50.9921 294.52 L59.256 292.853 L63.9319 292.853 L63.9319 323.478 L71.5707 323.478 L71.5707 327.413 L51.6634 327.413 L51.6634 323.478 Z" fill="#000000" fill-rule="nonzero" fill-opacity="1" /><path clip-path="url(#clip820)" d="M91.0151 295.932 Q87.404 295.932 85.5753 299.497 Q83.7697 303.038 83.7697 310.168 Q83.7697 317.274 85.5753 320.839 Q87.404 324.381 91.0151 324.381 Q94.6493 324.381 96.4548 320.839 Q98.2835 317.274 98.2835 310.168 Q98.2835 303.038 96.4548 299.497 Q94.6493 295.932 91.0151 295.932 M91.0151 292.228 Q96.8252 292.228 99.8808 296.835 Q102.959 301.418 102.959 310.168 Q102.959 318.895 99.8808 323.501 Q96.8252 328.084 91.0151 328.084 Q85.2049 328.084 82.1262 323.501 Q79.0707 318.895 79.0707 310.168 Q79.0707 301.418 82.1262 296.835 Q85.2049 292.228 91.0151 292.228 Z" fill="#000000" fill-rule="nonzero" fill-opacity="1" /><path clip-path="url(#clip820)" d="M111.177 321.534 L116.061 321.534 L116.061 327.413 L111.177 327.413 L111.177 321.534 Z" fill="#000000" fill-rule="nonzero" fill-opacity="1" /><path clip-path="url(#clip820)" d="M136.246 295.932 Q132.635 295.932 130.807 299.497 Q129.001 303.038 129.001 310.168 Q129.001 317.274 130.807 320.839 Q132.635 324.381 136.246 324.381 Q139.881 324.381 141.686 320.839 Q143.515 317.274 143.515 310.168 Q143.515 303.038 141.686 299.497 Q139.881 295.932 136.246 295.932 M136.246 292.228 Q142.056 292.228 145.112 296.835 Q148.191 301.418 148.191 310.168 Q148.191 318.895 145.112 323.501 Q142.056 328.084 136.246 328.084 Q130.436 328.084 127.357 323.501 Q124.302 318.895 124.302 310.168 Q124.302 301.418 127.357 296.835 Q130.436 292.228 136.246 292.228 Z" fill="#000000" fill-rule="nonzero" fill-opacity="1" /><circle clip-path="url(#clip822)" cx="184.191" cy="1384.24" r="14.4" fill="#009af9" fill-rule="evenodd" fill-opacity="1" stroke="#000000" stroke-opacity="1" stroke-width="3.2"/>
<circle clip-path="url(#clip822)" cx="205.876" cy="1371.68" r="14.4" fill="#009af9" fill-rule="evenodd" fill-opacity="1" stroke="#000000" stroke-opacity="1" stroke-width="3.2"/>
<circle clip-path="url(#clip822)" cx="227.562" cy="1359.73" r="14.4" fill="#009af9" fill-rule="evenodd" fill-opacity="1" stroke="#000000" stroke-opacity="1" stroke-width="3.2"/>
<circle clip-path="url(#clip822)" cx="249.248" cy="1348.31" r="14.4" fill="#009af9" fill-rule="evenodd" fill-opacity="1" stroke="#000000" stroke-opacity="1" stroke-width="3.2"/>
<circle clip-path="url(#clip822)" cx="270.933" cy="1337.32" r="14.4" fill="#009af9" fill-rule="evenodd" fill-opacity="1" stroke="#000000" stroke-opacity="1" stroke-width="3.2"/>
<circle clip-path="url(#clip822)" cx="292.619" cy="1326.65" r="14.4" fill="#009af9" fill-rule="evenodd" fill-opacity="1" stroke="#000000" stroke-opacity="1" stroke-width="3.2"/>
<circle clip-path="url(#clip822)" cx="314.305" cy="1316.19" r="14.4" fill="#009af9" fill-rule="evenodd" fill-opacity="1" stroke="#000000" stroke-opacity="1" stroke-width="3.2"/>
<circle clip-path="url(#clip822)" cx="335.99" cy="1305.86" r="14.4" fill="#009af9" fill-rule="evenodd" fill-opacity="1" stroke="#000000" stroke-opacity="1" stroke-width="3.2"/>
<circle clip-path="url(#clip822)" cx="357.676" cy="1295.56" r="14.4" fill="#009af9" fill-rule="evenodd" fill-opacity="1" stroke="#000000" stroke-opacity="1" stroke-width="3.2"/>
<circle clip-path="url(#clip822)" cx="379.362" cy="1285.24" r="14.4" fill="#009af9" fill-rule="evenodd" fill-opacity="1" stroke="#000000" stroke-opacity="1" stroke-width="3.2"/>
<circle clip-path="url(#clip822)" cx="401.047" cy="1274.83" r="14.4" fill="#009af9" fill-rule="evenodd" fill-opacity="1" stroke="#000000" stroke-opacity="1" stroke-width="3.2"/>
<circle clip-path="url(#clip822)" cx="422.733" cy="1264.31" r="14.4" fill="#009af9" fill-rule="evenodd" fill-opacity="1" stroke="#000000" stroke-opacity="1" stroke-width="3.2"/>
<circle clip-path="url(#clip822)" cx="444.419" cy="1253.62" r="14.4" fill="#009af9" fill-rule="evenodd" fill-opacity="1" stroke="#000000" stroke-opacity="1" stroke-width="3.2"/>
<circle clip-path="url(#clip822)" cx="466.104" cy="1242.77" r="14.4" fill="#009af9" fill-rule="evenodd" fill-opacity="1" stroke="#000000" stroke-opacity="1" stroke-width="3.2"/>
<circle clip-path="url(#clip822)" cx="487.79" cy="1231.77" r="14.4" fill="#009af9" fill-rule="evenodd" fill-opacity="1" stroke="#000000" stroke-opacity="1" stroke-width="3.2"/>
<circle clip-path="url(#clip822)" cx="509.475" cy="1220.61" r="14.4" fill="#009af9" fill-rule="evenodd" fill-opacity="1" stroke="#000000" stroke-opacity="1" stroke-width="3.2"/>
<circle clip-path="url(#clip822)" cx="531.161" cy="1209.34" r="14.4" fill="#009af9" fill-rule="evenodd" fill-opacity="1" stroke="#000000" stroke-opacity="1" stroke-width="3.2"/>
<circle clip-path="url(#clip822)" cx="552.847" cy="1197.97" r="14.4" fill="#009af9" fill-rule="evenodd" fill-opacity="1" stroke="#000000" stroke-opacity="1" stroke-width="3.2"/>
<circle clip-path="url(#clip822)" cx="574.532" cy="1186.53" r="14.4" fill="#009af9" fill-rule="evenodd" fill-opacity="1" stroke="#000000" stroke-opacity="1" stroke-width="3.2"/>
<circle clip-path="url(#clip822)" cx="596.218" cy="1175.05" r="14.4" fill="#009af9" fill-rule="evenodd" fill-opacity="1" stroke="#000000" stroke-opacity="1" stroke-width="3.2"/>
<circle clip-path="url(#clip822)" cx="617.904" cy="1163.55" r="14.4" fill="#009af9" fill-rule="evenodd" fill-opacity="1" stroke="#000000" stroke-opacity="1" stroke-width="3.2"/>
<circle clip-path="url(#clip822)" cx="639.589" cy="1152.07" r="14.4" fill="#009af9" fill-rule="evenodd" fill-opacity="1" stroke="#000000" stroke-opacity="1" stroke-width="3.2"/>
<circle clip-path="url(#clip822)" cx="661.275" cy="1140.6" r="14.4" fill="#009af9" fill-rule="evenodd" fill-opacity="1" stroke="#000000" stroke-opacity="1" stroke-width="3.2"/>
<circle clip-path="url(#clip822)" cx="682.961" cy="1129.16" r="14.4" fill="#009af9" fill-rule="evenodd" fill-opacity="1" stroke="#000000" stroke-opacity="1" stroke-width="3.2"/>
<circle clip-path="url(#clip822)" cx="704.646" cy="1117.75" r="14.4" fill="#009af9" fill-rule="evenodd" fill-opacity="1" stroke="#000000" stroke-opacity="1" stroke-width="3.2"/>
<circle clip-path="url(#clip822)" cx="726.332" cy="1106.41" r="14.4" fill="#009af9" fill-rule="evenodd" fill-opacity="1" stroke="#000000" stroke-opacity="1" stroke-width="3.2"/>
<circle clip-path="url(#clip822)" cx="748.018" cy="1095.12" r="14.4" fill="#009af9" fill-rule="evenodd" fill-opacity="1" stroke="#000000" stroke-opacity="1" stroke-width="3.2"/>
<circle clip-path="url(#clip822)" cx="769.703" cy="1083.88" r="14.4" fill="#009af9" fill-rule="evenodd" fill-opacity="1" stroke="#000000" stroke-opacity="1" stroke-width="3.2"/>
<circle clip-path="url(#clip822)" cx="791.389" cy="1072.7" r="14.4" fill="#009af9" fill-rule="evenodd" fill-opacity="1" stroke="#000000" stroke-opacity="1" stroke-width="3.2"/>
<circle clip-path="url(#clip822)" cx="813.075" cy="1061.59" r="14.4" fill="#009af9" fill-rule="evenodd" fill-opacity="1" stroke="#000000" stroke-opacity="1" stroke-width="3.2"/>
<circle clip-path="url(#clip822)" cx="834.76" cy="1050.53" r="14.4" fill="#009af9" fill-rule="evenodd" fill-opacity="1" stroke="#000000" stroke-opacity="1" stroke-width="3.2"/>
<circle clip-path="url(#clip822)" cx="856.446" cy="1039.53" r="14.4" fill="#009af9" fill-rule="evenodd" fill-opacity="1" stroke="#000000" stroke-opacity="1" stroke-width="3.2"/>
<circle clip-path="url(#clip822)" cx="878.132" cy="1028.58" r="14.4" fill="#009af9" fill-rule="evenodd" fill-opacity="1" stroke="#000000" stroke-opacity="1" stroke-width="3.2"/>
<circle clip-path="url(#clip822)" cx="899.817" cy="1017.7" r="14.4" fill="#009af9" fill-rule="evenodd" fill-opacity="1" stroke="#000000" stroke-opacity="1" stroke-width="3.2"/>
<circle clip-path="url(#clip822)" cx="921.503" cy="1006.87" r="14.4" fill="#009af9" fill-rule="evenodd" fill-opacity="1" stroke="#000000" stroke-opacity="1" stroke-width="3.2"/>
<circle clip-path="url(#clip822)" cx="943.189" cy="996.103" r="14.4" fill="#009af9" fill-rule="evenodd" fill-opacity="1" stroke="#000000" stroke-opacity="1" stroke-width="3.2"/>
<circle clip-path="url(#clip822)" cx="964.874" cy="985.392" r="14.4" fill="#009af9" fill-rule="evenodd" fill-opacity="1" stroke="#000000" stroke-opacity="1" stroke-width="3.2"/>
<circle clip-path="url(#clip822)" cx="986.56" cy="974.736" r="14.4" fill="#009af9" fill-rule="evenodd" fill-opacity="1" stroke="#000000" stroke-opacity="1" stroke-width="3.2"/>
<circle clip-path="url(#clip822)" cx="1008.25" cy="964.137" r="14.4" fill="#009af9" fill-rule="evenodd" fill-opacity="1" stroke="#000000" stroke-opacity="1" stroke-width="3.2"/>
<circle clip-path="url(#clip822)" cx="1029.93" cy="953.593" r="14.4" fill="#009af9" fill-rule="evenodd" fill-opacity="1" stroke="#000000" stroke-opacity="1" stroke-width="3.2"/>
<circle clip-path="url(#clip822)" cx="1051.62" cy="943.104" r="14.4" fill="#009af9" fill-rule="evenodd" fill-opacity="1" stroke="#000000" stroke-opacity="1" stroke-width="3.2"/>
<circle clip-path="url(#clip822)" cx="1073.3" cy="932.669" r="14.4" fill="#009af9" fill-rule="evenodd" fill-opacity="1" stroke="#000000" stroke-opacity="1" stroke-width="3.2"/>
<circle clip-path="url(#clip822)" cx="1094.99" cy="922.289" r="14.4" fill="#009af9" fill-rule="evenodd" fill-opacity="1" stroke="#000000" stroke-opacity="1" stroke-width="3.2"/>
<circle clip-path="url(#clip822)" cx="1116.67" cy="911.961" r="14.4" fill="#009af9" fill-rule="evenodd" fill-opacity="1" stroke="#000000" stroke-opacity="1" stroke-width="3.2"/>
<circle clip-path="url(#clip822)" cx="1138.36" cy="901.687" r="14.4" fill="#009af9" fill-rule="evenodd" fill-opacity="1" stroke="#000000" stroke-opacity="1" stroke-width="3.2"/>
<circle clip-path="url(#clip822)" cx="1160.05" cy="891.466" r="14.4" fill="#009af9" fill-rule="evenodd" fill-opacity="1" stroke="#000000" stroke-opacity="1" stroke-width="3.2"/>
<circle clip-path="url(#clip822)" cx="1181.73" cy="881.296" r="14.4" fill="#009af9" fill-rule="evenodd" fill-opacity="1" stroke="#000000" stroke-opacity="1" stroke-width="3.2"/>
<circle clip-path="url(#clip822)" cx="1203.42" cy="871.178" r="14.4" fill="#009af9" fill-rule="evenodd" fill-opacity="1" stroke="#000000" stroke-opacity="1" stroke-width="3.2"/>
<circle clip-path="url(#clip822)" cx="1225.1" cy="861.111" r="14.4" fill="#009af9" fill-rule="evenodd" fill-opacity="1" stroke="#000000" stroke-opacity="1" stroke-width="3.2"/>
<circle clip-path="url(#clip822)" cx="1246.79" cy="851.095" r="14.4" fill="#009af9" fill-rule="evenodd" fill-opacity="1" stroke="#000000" stroke-opacity="1" stroke-width="3.2"/>
<circle clip-path="url(#clip822)" cx="1268.47" cy="841.128" r="14.4" fill="#009af9" fill-rule="evenodd" fill-opacity="1" stroke="#000000" stroke-opacity="1" stroke-width="3.2"/>
<circle clip-path="url(#clip822)" cx="1290.16" cy="831.212" r="14.4" fill="#009af9" fill-rule="evenodd" fill-opacity="1" stroke="#000000" stroke-opacity="1" stroke-width="3.2"/>
<circle clip-path="url(#clip822)" cx="1311.84" cy="821.344" r="14.4" fill="#009af9" fill-rule="evenodd" fill-opacity="1" stroke="#000000" stroke-opacity="1" stroke-width="3.2"/>
<circle clip-path="url(#clip822)" cx="1333.53" cy="811.525" r="14.4" fill="#009af9" fill-rule="evenodd" fill-opacity="1" stroke="#000000" stroke-opacity="1" stroke-width="3.2"/>
<circle clip-path="url(#clip822)" cx="1355.22" cy="801.754" r="14.4" fill="#009af9" fill-rule="evenodd" fill-opacity="1" stroke="#000000" stroke-opacity="1" stroke-width="3.2"/>
<circle clip-path="url(#clip822)" cx="1376.9" cy="792.031" r="14.4" fill="#009af9" fill-rule="evenodd" fill-opacity="1" stroke="#000000" stroke-opacity="1" stroke-width="3.2"/>
<circle clip-path="url(#clip822)" cx="1398.59" cy="782.355" r="14.4" fill="#009af9" fill-rule="evenodd" fill-opacity="1" stroke="#000000" stroke-opacity="1" stroke-width="3.2"/>
<circle clip-path="url(#clip822)" cx="1420.27" cy="772.727" r="14.4" fill="#009af9" fill-rule="evenodd" fill-opacity="1" stroke="#000000" stroke-opacity="1" stroke-width="3.2"/>
<circle clip-path="url(#clip822)" cx="1441.96" cy="763.144" r="14.4" fill="#009af9" fill-rule="evenodd" fill-opacity="1" stroke="#000000" stroke-opacity="1" stroke-width="3.2"/>
<circle clip-path="url(#clip822)" cx="1463.64" cy="753.607" r="14.4" fill="#009af9" fill-rule="evenodd" fill-opacity="1" stroke="#000000" stroke-opacity="1" stroke-width="3.2"/>
<circle clip-path="url(#clip822)" cx="1485.33" cy="744.116" r="14.4" fill="#009af9" fill-rule="evenodd" fill-opacity="1" stroke="#000000" stroke-opacity="1" stroke-width="3.2"/>
<circle clip-path="url(#clip822)" cx="1507.02" cy="734.67" r="14.4" fill="#009af9" fill-rule="evenodd" fill-opacity="1" stroke="#000000" stroke-opacity="1" stroke-width="3.2"/>
<circle clip-path="url(#clip822)" cx="1528.7" cy="725.269" r="14.4" fill="#009af9" fill-rule="evenodd" fill-opacity="1" stroke="#000000" stroke-opacity="1" stroke-width="3.2"/>
<circle clip-path="url(#clip822)" cx="1550.39" cy="715.912" r="14.4" fill="#009af9" fill-rule="evenodd" fill-opacity="1" stroke="#000000" stroke-opacity="1" stroke-width="3.2"/>
<circle clip-path="url(#clip822)" cx="1572.07" cy="706.599" r="14.4" fill="#009af9" fill-rule="evenodd" fill-opacity="1" stroke="#000000" stroke-opacity="1" stroke-width="3.2"/>
<circle clip-path="url(#clip822)" cx="1593.76" cy="697.329" r="14.4" fill="#009af9" fill-rule="evenodd" fill-opacity="1" stroke="#000000" stroke-opacity="1" stroke-width="3.2"/>
<circle clip-path="url(#clip822)" cx="1615.44" cy="688.102" r="14.4" fill="#009af9" fill-rule="evenodd" fill-opacity="1" stroke="#000000" stroke-opacity="1" stroke-width="3.2"/>
<circle clip-path="url(#clip822)" cx="1637.13" cy="678.918" r="14.4" fill="#009af9" fill-rule="evenodd" fill-opacity="1" stroke="#000000" stroke-opacity="1" stroke-width="3.2"/>
<circle clip-path="url(#clip822)" cx="1658.82" cy="669.775" r="14.4" fill="#009af9" fill-rule="evenodd" fill-opacity="1" stroke="#000000" stroke-opacity="1" stroke-width="3.2"/>
<circle clip-path="url(#clip822)" cx="1680.5" cy="660.675" r="14.4" fill="#009af9" fill-rule="evenodd" fill-opacity="1" stroke="#000000" stroke-opacity="1" stroke-width="3.2"/>
<circle clip-path="url(#clip822)" cx="1702.19" cy="651.615" r="14.4" fill="#009af9" fill-rule="evenodd" fill-opacity="1" stroke="#000000" stroke-opacity="1" stroke-width="3.2"/>
<circle clip-path="url(#clip822)" cx="1723.87" cy="642.597" r="14.4" fill="#009af9" fill-rule="evenodd" fill-opacity="1" stroke="#000000" stroke-opacity="1" stroke-width="3.2"/>
<circle clip-path="url(#clip822)" cx="1745.56" cy="633.619" r="14.4" fill="#009af9" fill-rule="evenodd" fill-opacity="1" stroke="#000000" stroke-opacity="1" stroke-width="3.2"/>
<circle clip-path="url(#clip822)" cx="1767.24" cy="624.681" r="14.4" fill="#009af9" fill-rule="evenodd" fill-opacity="1" stroke="#000000" stroke-opacity="1" stroke-width="3.2"/>
<circle clip-path="url(#clip822)" cx="1788.93" cy="615.783" r="14.4" fill="#009af9" fill-rule="evenodd" fill-opacity="1" stroke="#000000" stroke-opacity="1" stroke-width="3.2"/>
<circle clip-path="url(#clip822)" cx="1810.61" cy="606.925" r="14.4" fill="#009af9" fill-rule="evenodd" fill-opacity="1" stroke="#000000" stroke-opacity="1" stroke-width="3.2"/>
<circle clip-path="url(#clip822)" cx="1832.3" cy="598.104" r="14.4" fill="#009af9" fill-rule="evenodd" fill-opacity="1" stroke="#000000" stroke-opacity="1" stroke-width="3.2"/>
<circle clip-path="url(#clip822)" cx="1853.99" cy="589.323" r="14.4" fill="#009af9" fill-rule="evenodd" fill-opacity="1" stroke="#000000" stroke-opacity="1" stroke-width="3.2"/>
<circle clip-path="url(#clip822)" cx="1875.67" cy="580.579" r="14.4" fill="#009af9" fill-rule="evenodd" fill-opacity="1" stroke="#000000" stroke-opacity="1" stroke-width="3.2"/>
<circle clip-path="url(#clip822)" cx="1897.36" cy="571.872" r="14.4" fill="#009af9" fill-rule="evenodd" fill-opacity="1" stroke="#000000" stroke-opacity="1" stroke-width="3.2"/>
<circle clip-path="url(#clip822)" cx="1919.04" cy="563.203" r="14.4" fill="#009af9" fill-rule="evenodd" fill-opacity="1" stroke="#000000" stroke-opacity="1" stroke-width="3.2"/>
<circle clip-path="url(#clip822)" cx="1940.73" cy="554.571" r="14.4" fill="#009af9" fill-rule="evenodd" fill-opacity="1" stroke="#000000" stroke-opacity="1" stroke-width="3.2"/>
<circle clip-path="url(#clip822)" cx="1962.41" cy="545.976" r="14.4" fill="#009af9" fill-rule="evenodd" fill-opacity="1" stroke="#000000" stroke-opacity="1" stroke-width="3.2"/>
<circle clip-path="url(#clip822)" cx="1984.1" cy="537.417" r="14.4" fill="#009af9" fill-rule="evenodd" fill-opacity="1" stroke="#000000" stroke-opacity="1" stroke-width="3.2"/>
<circle clip-path="url(#clip822)" cx="2005.79" cy="528.894" r="14.4" fill="#009af9" fill-rule="evenodd" fill-opacity="1" stroke="#000000" stroke-opacity="1" stroke-width="3.2"/>
<circle clip-path="url(#clip822)" cx="2027.47" cy="520.406" r="14.4" fill="#009af9" fill-rule="evenodd" fill-opacity="1" stroke="#000000" stroke-opacity="1" stroke-width="3.2"/>
<circle clip-path="url(#clip822)" cx="2049.16" cy="511.954" r="14.4" fill="#009af9" fill-rule="evenodd" fill-opacity="1" stroke="#000000" stroke-opacity="1" stroke-width="3.2"/>
<circle clip-path="url(#clip822)" cx="2070.84" cy="503.537" r="14.4" fill="#009af9" fill-rule="evenodd" fill-opacity="1" stroke="#000000" stroke-opacity="1" stroke-width="3.2"/>
<circle clip-path="url(#clip822)" cx="2092.53" cy="495.154" r="14.4" fill="#009af9" fill-rule="evenodd" fill-opacity="1" stroke="#000000" stroke-opacity="1" stroke-width="3.2"/>
<circle clip-path="url(#clip822)" cx="2114.21" cy="486.806" r="14.4" fill="#009af9" fill-rule="evenodd" fill-opacity="1" stroke="#000000" stroke-opacity="1" stroke-width="3.2"/>
<circle clip-path="url(#clip822)" cx="2135.9" cy="478.492" r="14.4" fill="#009af9" fill-rule="evenodd" fill-opacity="1" stroke="#000000" stroke-opacity="1" stroke-width="3.2"/>
<circle clip-path="url(#clip822)" cx="2157.59" cy="470.211" r="14.4" fill="#009af9" fill-rule="evenodd" fill-opacity="1" stroke="#000000" stroke-opacity="1" stroke-width="3.2"/>
<circle clip-path="url(#clip822)" cx="2179.27" cy="461.964" r="14.4" fill="#009af9" fill-rule="evenodd" fill-opacity="1" stroke="#000000" stroke-opacity="1" stroke-width="3.2"/>
<circle clip-path="url(#clip822)" cx="2200.96" cy="453.75" r="14.4" fill="#009af9" fill-rule="evenodd" fill-opacity="1" stroke="#000000" stroke-opacity="1" stroke-width="3.2"/>
<circle clip-path="url(#clip822)" cx="2222.64" cy="445.568" r="14.4" fill="#009af9" fill-rule="evenodd" fill-opacity="1" stroke="#000000" stroke-opacity="1" stroke-width="3.2"/>
<circle clip-path="url(#clip822)" cx="2244.33" cy="437.419" r="14.4" fill="#009af9" fill-rule="evenodd" fill-opacity="1" stroke="#000000" stroke-opacity="1" stroke-width="3.2"/>
<circle clip-path="url(#clip822)" cx="2266.01" cy="429.302" r="14.4" fill="#009af9" fill-rule="evenodd" fill-opacity="1" stroke="#000000" stroke-opacity="1" stroke-width="3.2"/>
<circle clip-path="url(#clip822)" cx="2287.7" cy="421.216" r="14.4" fill="#009af9" fill-rule="evenodd" fill-opacity="1" stroke="#000000" stroke-opacity="1" stroke-width="3.2"/>
<circle clip-path="url(#clip822)" cx="2309.38" cy="413.162" r="14.4" fill="#009af9" fill-rule="evenodd" fill-opacity="1" stroke="#000000" stroke-opacity="1" stroke-width="3.2"/>
<circle clip-path="url(#clip822)" cx="2331.07" cy="405.139" r="14.4" fill="#009af9" fill-rule="evenodd" fill-opacity="1" stroke="#000000" stroke-opacity="1" stroke-width="3.2"/>
<polyline clip-path="url(#clip822)" style="stroke:#e26f46; stroke-linecap:round; stroke-linejoin:round; stroke-width:4; stroke-opacity:1; fill:none" points="184.191,1384.24 205.876,1371.79 227.562,1360.11 249.248,1348.93 270.933,1338.07 292.619,1327.41 314.305,1316.88 335.99,1306.41 357.676,1295.96 379.362,1285.45 401.047,1274.85 422.733,1264.12 444.419,1253.24 466.104,1242.24 487.79,1231.12 509.475,1219.91 531.161,1208.62 552.847,1197.29 574.532,1185.93 596.218,1174.54 617.904,1163.15 639.589,1151.77 661.275,1140.4 682.961,1129.06 704.646,1117.75 726.332,1106.48 748.018,1095.25 769.703,1084.07 791.389,1072.93 813.075,1061.84 834.76,1050.81 856.446,1039.82 878.132,1028.9 899.817,1018.02 921.503,1007.2 943.189,996.427 964.874,985.713 986.56,975.054 1008.25,964.45 1029.93,953.899 1051.62,943.402 1073.3,932.957 1094.99,922.563 1116.67,912.222 1138.36,901.935 1160.05,891.698 1181.73,881.513 1203.42,871.379 1225.1,861.295 1246.79,851.261 1268.47,841.276 1290.16,831.34 1311.84,821.453 1333.53,811.615 1355.22,801.824 1376.9,792.081 1398.59,782.385 1420.27,772.735 1441.96,763.132 1463.64,753.574 1485.33,744.062 1507.02,734.595 1528.7,725.173 1550.39,715.796 1572.07,706.464 1593.76,697.175 1615.44,687.931 1637.13,678.73 1658.82,669.572 1680.5,660.458 1702.19,651.386 1723.87,642.357 1745.56,633.369 1767.24,624.423 1788.93,615.518 1810.61,606.654 1832.3,597.83 1853.99,589.047 1875.67,580.304 1897.36,571.601 1919.04,562.938 1940.73,554.314 1962.41,545.73 1984.1,537.185 2005.79,528.679 2027.47,520.212 2049.16,511.783 2070.84,503.393 2092.53,495.041 2114.21,486.726 2135.9,478.45 2157.59,470.211 2179.27,462.009 2200.96,453.844 2222.64,445.715 2244.33,437.622 2266.01,429.566 2287.7,421.546 2309.38,413.562 2331.07,405.614 2352.76,397.701 "/>
<polyline clip-path="url(#clip822)" style="stroke:#3da44d; stroke-linecap:round; stroke-linejoin:round; stroke-width:4; stroke-opacity:1; fill:none" points="184.191,1384.24 205.876,1371.35 227.562,1358.46 249.248,1345.56 270.933,1332.66 292.619,1319.76 314.305,1306.86 335.99,1293.95 357.676,1281.05 379.362,1268.14 401.047,1255.22 422.733,1242.31 444.419,1229.39 466.104,1216.47 487.79,1203.55 509.475,1190.62 531.161,1177.7 552.847,1164.77 574.532,1151.83 596.218,1138.9 617.904,1125.96 639.589,1113.02 661.275,1100.08 682.961,1087.14 704.646,1074.2 726.332,1061.25 748.018,1048.3 769.703,1035.35 791.389,1022.4 813.075,1009.44 834.76,996.487 856.446,983.53 878.132,970.571 899.817,957.611 921.503,944.648 943.189,931.685 964.874,918.719 986.56,905.752 1008.25,892.783 1029.93,879.813 1051.62,866.841 1073.3,853.867 1094.99,840.892 1116.67,827.916 1138.36,814.938 1160.05,801.959 1181.73,788.979 1203.42,775.997 1225.1,763.014 1246.79,750.03 1268.47,737.044 1290.16,724.057 1311.84,711.069 1333.53,698.079 1355.22,685.088 1376.9,672.095 1398.59,659.102 1420.27,646.107 1441.96,633.11 1463.64,620.113 1485.33,607.114 1507.02,594.113 1528.7,581.112 1550.39,568.109 1572.07,555.106 1593.76,542.101 1615.44,529.095 1637.13,516.088 1658.82,503.079 1680.5,490.07 1702.19,477.059 1723.87,464.047 1745.56,451.034 1767.24,438.02 1788.93,425.005 1810.61,411.988 1832.3,398.97 1853.99,385.952 1875.67,372.931 1897.36,359.91 1919.04,346.887 1940.73,333.864 1962.41,320.839 1984.1,307.813 2005.79,294.785 2027.47,281.757 2049.16,268.727 2070.84,255.696 2092.53,242.663 2114.21,229.63 2135.9,216.595 2157.59,203.559 2179.27,190.521 2200.96,177.483 2222.64,164.444 2244.33,151.404 2266.01,138.363 2287.7,125.32 2309.38,112.276 2331.07,99.2316 2352.76,86.1857 "/>
<path clip-path="url(#clip820)" d="M256.476 300.469 L1019.26 300.469 L1019.26 93.1086 L256.476 93.1086  Z" fill="#ffffff" fill-rule="evenodd" fill-opacity="1"/>
<polyline clip-path="url(#clip820)" style="stroke:#000000; stroke-linecap:round; stroke-linejoin:round; stroke-width:4; stroke-opacity:1; fill:none" points="256.476,300.469 1019.26,300.469 1019.26,93.1086 256.476,93.1086 256.476,300.469 "/>
<circle clip-path="url(#clip820)" cx="352.857" cy="144.949" r="20.48" fill="#009af9" fill-rule="evenodd" fill-opacity="1" stroke="#000000" stroke-opacity="1" stroke-width="4.55111"/>
<path clip-path="url(#clip820)" d="M468.149 148.965 Q468.149 144.335 466.228 141.789 Q464.33 139.243 460.881 139.243 Q457.455 139.243 455.534 141.789 Q453.636 144.335 453.636 148.965 Q453.636 153.571 455.534 156.118 Q457.455 158.664 460.881 158.664 Q464.33 158.664 466.228 156.118 Q468.149 153.571 468.149 148.965 M472.409 159.011 Q472.409 165.631 469.469 168.849 Q466.529 172.09 460.464 172.09 Q458.219 172.09 456.228 171.742 Q454.238 171.418 452.363 170.724 L452.363 166.58 Q454.238 167.599 456.066 168.085 Q457.895 168.571 459.793 168.571 Q463.983 168.571 466.066 166.372 Q468.149 164.196 468.149 159.775 L468.149 157.668 Q466.83 159.96 464.77 161.094 Q462.71 162.229 459.839 162.229 Q455.071 162.229 452.154 158.594 Q449.238 154.96 449.238 148.965 Q449.238 142.946 452.154 139.312 Q455.071 135.678 459.839 135.678 Q462.71 135.678 464.77 136.812 Q466.83 137.946 468.149 140.238 L468.149 136.303 L472.409 136.303 L472.409 159.011 Z" fill="#000000" fill-rule="nonzero" fill-opacity="1" /><path clip-path="url(#clip820)" d="M496.205 140.284 Q495.487 139.868 494.631 139.682 Q493.797 139.474 492.779 139.474 Q489.168 139.474 487.223 141.835 Q485.302 144.173 485.302 148.571 L485.302 162.229 L481.02 162.229 L481.02 136.303 L485.302 136.303 L485.302 140.331 Q486.645 137.969 488.798 136.835 Q490.95 135.678 494.029 135.678 Q494.469 135.678 495.001 135.747 Q495.534 135.794 496.182 135.909 L496.205 140.284 Z" fill="#000000" fill-rule="nonzero" fill-opacity="1" /><path clip-path="url(#clip820)" d="M509.677 139.289 Q506.251 139.289 504.26 141.974 Q502.27 144.636 502.27 149.289 Q502.27 153.942 504.237 156.627 Q506.228 159.289 509.677 159.289 Q513.08 159.289 515.071 156.604 Q517.061 153.918 517.061 149.289 Q517.061 144.682 515.071 141.997 Q513.08 139.289 509.677 139.289 M509.677 135.678 Q515.233 135.678 518.404 139.289 Q521.575 142.9 521.575 149.289 Q521.575 155.655 518.404 159.289 Q515.233 162.9 509.677 162.9 Q504.098 162.9 500.927 159.289 Q497.779 155.655 497.779 149.289 Q497.779 142.9 500.927 139.289 Q504.098 135.678 509.677 135.678 Z" fill="#000000" fill-rule="nonzero" fill-opacity="1" /><path clip-path="url(#clip820)" d="M528.195 151.997 L528.195 136.303 L532.455 136.303 L532.455 151.835 Q532.455 155.516 533.89 157.368 Q535.325 159.196 538.195 159.196 Q541.644 159.196 543.635 156.997 Q545.649 154.798 545.649 151.002 L545.649 136.303 L549.908 136.303 L549.908 162.229 L545.649 162.229 L545.649 158.247 Q544.098 160.608 542.038 161.766 Q540.001 162.9 537.293 162.9 Q532.825 162.9 530.51 160.122 Q528.195 157.344 528.195 151.997 M538.913 135.678 L538.913 135.678 Z" fill="#000000" fill-rule="nonzero" fill-opacity="1" /><path clip-path="url(#clip820)" d="M580.232 146.581 L580.232 162.229 L575.973 162.229 L575.973 146.719 Q575.973 143.039 574.538 141.21 Q573.103 139.382 570.232 139.382 Q566.783 139.382 564.792 141.581 Q562.802 143.78 562.802 147.576 L562.802 162.229 L558.519 162.229 L558.519 136.303 L562.802 136.303 L562.802 140.331 Q564.33 137.993 566.39 136.835 Q568.473 135.678 571.181 135.678 Q575.649 135.678 577.941 138.456 Q580.232 141.21 580.232 146.581 Z" fill="#000000" fill-rule="nonzero" fill-opacity="1" /><path clip-path="url(#clip820)" d="M605.788 140.238 L605.788 126.21 L610.047 126.21 L610.047 162.229 L605.788 162.229 L605.788 158.34 Q604.445 160.655 602.385 161.789 Q600.348 162.9 597.477 162.9 Q592.778 162.9 589.815 159.15 Q586.876 155.4 586.876 149.289 Q586.876 143.178 589.815 139.428 Q592.778 135.678 597.477 135.678 Q600.348 135.678 602.385 136.812 Q604.445 137.923 605.788 140.238 M591.274 149.289 Q591.274 153.988 593.195 156.673 Q595.14 159.335 598.519 159.335 Q601.899 159.335 603.843 156.673 Q605.788 153.988 605.788 149.289 Q605.788 144.59 603.843 141.928 Q601.899 139.243 598.519 139.243 Q595.14 139.243 593.195 141.928 Q591.274 144.59 591.274 149.289 Z" fill="#000000" fill-rule="nonzero" fill-opacity="1" /><path clip-path="url(#clip820)" d="M638.102 128.942 L638.102 136.303 L646.875 136.303 L646.875 139.613 L638.102 139.613 L638.102 153.687 Q638.102 156.858 638.959 157.761 Q639.838 158.664 642.5 158.664 L646.875 158.664 L646.875 162.229 L642.5 162.229 Q637.57 162.229 635.695 160.4 Q633.82 158.548 633.82 153.687 L633.82 139.613 L630.695 139.613 L630.695 136.303 L633.82 136.303 L633.82 128.942 L638.102 128.942 Z" fill="#000000" fill-rule="nonzero" fill-opacity="1" /><path clip-path="url(#clip820)" d="M667.5 140.284 Q666.783 139.868 665.926 139.682 Q665.093 139.474 664.074 139.474 Q660.463 139.474 658.519 141.835 Q656.598 144.173 656.598 148.571 L656.598 162.229 L652.315 162.229 L652.315 136.303 L656.598 136.303 L656.598 140.331 Q657.94 137.969 660.093 136.835 Q662.246 135.678 665.324 135.678 Q665.764 135.678 666.297 135.747 Q666.829 135.794 667.477 135.909 L667.5 140.284 Z" fill="#000000" fill-rule="nonzero" fill-opacity="1" /><path clip-path="url(#clip820)" d="M671.528 151.997 L671.528 136.303 L675.787 136.303 L675.787 151.835 Q675.787 155.516 677.222 157.368 Q678.658 159.196 681.528 159.196 Q684.977 159.196 686.968 156.997 Q688.982 154.798 688.982 151.002 L688.982 136.303 L693.241 136.303 L693.241 162.229 L688.982 162.229 L688.982 158.247 Q687.431 160.608 685.371 161.766 Q683.334 162.9 680.625 162.9 Q676.158 162.9 673.843 160.122 Q671.528 157.344 671.528 151.997 M682.246 135.678 L682.246 135.678 Z" fill="#000000" fill-rule="nonzero" fill-opacity="1" /><path clip-path="url(#clip820)" d="M706.227 128.942 L706.227 136.303 L715 136.303 L715 139.613 L706.227 139.613 L706.227 153.687 Q706.227 156.858 707.083 157.761 Q707.963 158.664 710.625 158.664 L715 158.664 L715 162.229 L710.625 162.229 Q705.694 162.229 703.82 160.4 Q701.945 158.548 701.945 153.687 L701.945 139.613 L698.82 139.613 L698.82 136.303 L701.945 136.303 L701.945 128.942 L706.227 128.942 Z" fill="#000000" fill-rule="nonzero" fill-opacity="1" /><path clip-path="url(#clip820)" d="M742.153 146.581 L742.153 162.229 L737.893 162.229 L737.893 146.719 Q737.893 143.039 736.458 141.21 Q735.023 139.382 732.153 139.382 Q728.704 139.382 726.713 141.581 Q724.722 143.78 724.722 147.576 L724.722 162.229 L720.44 162.229 L720.44 126.21 L724.722 126.21 L724.722 140.331 Q726.25 137.993 728.31 136.835 Q730.393 135.678 733.102 135.678 Q737.569 135.678 739.861 138.456 Q742.153 141.21 742.153 146.581 Z" fill="#000000" fill-rule="nonzero" fill-opacity="1" /><path clip-path="url(#clip820)" d="M762.662 136.303 L767.176 136.303 L775.277 158.062 L783.379 136.303 L787.893 136.303 L778.171 162.229 L772.384 162.229 L762.662 136.303 Z" fill="#000000" fill-rule="nonzero" fill-opacity="1" /><path clip-path="url(#clip820)" d="M815.949 148.201 L815.949 150.284 L796.365 150.284 Q796.643 154.682 799.004 156.997 Q801.388 159.289 805.625 159.289 Q808.078 159.289 810.37 158.687 Q812.685 158.085 814.953 156.881 L814.953 160.909 Q812.662 161.881 810.254 162.391 Q807.847 162.9 805.37 162.9 Q799.166 162.9 795.532 159.289 Q791.921 155.678 791.921 149.52 Q791.921 143.155 795.347 139.428 Q798.796 135.678 804.629 135.678 Q809.861 135.678 812.893 139.057 Q815.949 142.414 815.949 148.201 M811.689 146.951 Q811.643 143.456 809.722 141.372 Q807.824 139.289 804.675 139.289 Q801.111 139.289 798.958 141.303 Q796.828 143.317 796.504 146.974 L811.689 146.951 Z" fill="#000000" fill-rule="nonzero" fill-opacity="1" /><path clip-path="url(#clip820)" d="M822.939 126.21 L827.198 126.21 L827.198 162.229 L822.939 162.229 L822.939 126.21 Z" fill="#000000" fill-rule="nonzero" fill-opacity="1" /><path clip-path="url(#clip820)" d="M846.157 139.289 Q842.731 139.289 840.74 141.974 Q838.749 144.636 838.749 149.289 Q838.749 153.942 840.717 156.627 Q842.708 159.289 846.157 159.289 Q849.559 159.289 851.55 156.604 Q853.541 153.918 853.541 149.289 Q853.541 144.682 851.55 141.997 Q849.559 139.289 846.157 139.289 M846.157 135.678 Q851.712 135.678 854.884 139.289 Q858.055 142.9 858.055 149.289 Q858.055 155.655 854.884 159.289 Q851.712 162.9 846.157 162.9 Q840.578 162.9 837.407 159.289 Q834.259 155.655 834.259 149.289 Q834.259 142.9 837.407 139.289 Q840.578 135.678 846.157 135.678 Z" fill="#000000" fill-rule="nonzero" fill-opacity="1" /><path clip-path="url(#clip820)" d="M883.772 137.298 L883.772 141.28 Q881.967 140.284 880.138 139.798 Q878.332 139.289 876.481 139.289 Q872.337 139.289 870.045 141.928 Q867.754 144.544 867.754 149.289 Q867.754 154.034 870.045 156.673 Q872.337 159.289 876.481 159.289 Q878.332 159.289 880.138 158.803 Q881.967 158.293 883.772 157.298 L883.772 161.233 Q881.99 162.067 880.069 162.483 Q878.17 162.9 876.018 162.9 Q870.161 162.9 866.712 159.219 Q863.263 155.539 863.263 149.289 Q863.263 142.946 866.735 139.312 Q870.231 135.678 876.295 135.678 Q878.263 135.678 880.138 136.095 Q882.013 136.488 883.772 137.298 Z" fill="#000000" fill-rule="nonzero" fill-opacity="1" /><path clip-path="url(#clip820)" d="M891.18 136.303 L895.439 136.303 L895.439 162.229 L891.18 162.229 L891.18 136.303 M891.18 126.21 L895.439 126.21 L895.439 131.604 L891.18 131.604 L891.18 126.21 Z" fill="#000000" fill-rule="nonzero" fill-opacity="1" /><path clip-path="url(#clip820)" d="M908.564 128.942 L908.564 136.303 L917.337 136.303 L917.337 139.613 L908.564 139.613 L908.564 153.687 Q908.564 156.858 909.42 157.761 Q910.3 158.664 912.962 158.664 L917.337 158.664 L917.337 162.229 L912.962 162.229 Q908.031 162.229 906.156 160.4 Q904.281 158.548 904.281 153.687 L904.281 139.613 L901.156 139.613 L901.156 136.303 L904.281 136.303 L904.281 128.942 L908.564 128.942 Z" fill="#000000" fill-rule="nonzero" fill-opacity="1" /><path clip-path="url(#clip820)" d="M933.726 164.636 Q931.92 169.266 930.207 170.678 Q928.494 172.09 925.624 172.09 L922.221 172.09 L922.221 168.525 L924.721 168.525 Q926.48 168.525 927.453 167.692 Q928.425 166.858 929.605 163.756 L930.369 161.812 L919.883 136.303 L924.397 136.303 L932.499 156.581 L940.601 136.303 L945.115 136.303 L933.726 164.636 Z" fill="#000000" fill-rule="nonzero" fill-opacity="1" /><polyline clip-path="url(#clip820)" style="stroke:#e26f46; stroke-linecap:round; stroke-linejoin:round; stroke-width:4; stroke-opacity:1; fill:none" points="280.571,196.789 425.142,196.789 "/>
<path clip-path="url(#clip820)" d="M449.238 188.143 L453.751 188.143 L461.853 209.902 L469.955 188.143 L474.469 188.143 L464.747 214.069 L458.96 214.069 L449.238 188.143 Z" fill="#000000" fill-rule="nonzero" fill-opacity="1" /><path clip-path="url(#clip820)" d="M502.524 200.041 L502.524 202.124 L482.941 202.124 Q483.219 206.522 485.58 208.837 Q487.964 211.129 492.2 211.129 Q494.654 211.129 496.946 210.527 Q499.26 209.925 501.529 208.721 L501.529 212.749 Q499.237 213.721 496.83 214.231 Q494.422 214.74 491.946 214.74 Q485.742 214.74 482.108 211.129 Q478.497 207.518 478.497 201.36 Q478.497 194.995 481.923 191.268 Q485.372 187.518 491.205 187.518 Q496.436 187.518 499.469 190.897 Q502.524 194.254 502.524 200.041 M498.265 198.791 Q498.219 195.296 496.297 193.212 Q494.399 191.129 491.251 191.129 Q487.686 191.129 485.534 193.143 Q483.404 195.157 483.08 198.814 L498.265 198.791 Z" fill="#000000" fill-rule="nonzero" fill-opacity="1" /><path clip-path="url(#clip820)" d="M509.515 178.05 L513.774 178.05 L513.774 214.069 L509.515 214.069 L509.515 178.05 Z" fill="#000000" fill-rule="nonzero" fill-opacity="1" /><path clip-path="url(#clip820)" d="M532.732 191.129 Q529.307 191.129 527.316 193.814 Q525.325 196.476 525.325 201.129 Q525.325 205.782 527.293 208.467 Q529.283 211.129 532.732 211.129 Q536.135 211.129 538.126 208.444 Q540.117 205.758 540.117 201.129 Q540.117 196.522 538.126 193.837 Q536.135 191.129 532.732 191.129 M532.732 187.518 Q538.288 187.518 541.459 191.129 Q544.631 194.74 544.631 201.129 Q544.631 207.495 541.459 211.129 Q538.288 214.74 532.732 214.74 Q527.154 214.74 523.983 211.129 Q520.834 207.495 520.834 201.129 Q520.834 194.74 523.983 191.129 Q527.154 187.518 532.732 187.518 Z" fill="#000000" fill-rule="nonzero" fill-opacity="1" /><path clip-path="url(#clip820)" d="M570.348 189.138 L570.348 193.12 Q568.542 192.124 566.714 191.638 Q564.908 191.129 563.056 191.129 Q558.913 191.129 556.621 193.768 Q554.33 196.384 554.33 201.129 Q554.33 205.874 556.621 208.513 Q558.913 211.129 563.056 211.129 Q564.908 211.129 566.714 210.643 Q568.542 210.133 570.348 209.138 L570.348 213.073 Q568.566 213.907 566.644 214.323 Q564.746 214.74 562.593 214.74 Q556.737 214.74 553.288 211.059 Q549.839 207.379 549.839 201.129 Q549.839 194.786 553.311 191.152 Q556.806 187.518 562.871 187.518 Q564.839 187.518 566.714 187.935 Q568.589 188.328 570.348 189.138 Z" fill="#000000" fill-rule="nonzero" fill-opacity="1" /><path clip-path="url(#clip820)" d="M577.755 188.143 L582.015 188.143 L582.015 214.069 L577.755 214.069 L577.755 188.143 M577.755 178.05 L582.015 178.05 L582.015 183.444 L577.755 183.444 L577.755 178.05 Z" fill="#000000" fill-rule="nonzero" fill-opacity="1" /><path clip-path="url(#clip820)" d="M595.14 180.782 L595.14 188.143 L603.913 188.143 L603.913 191.453 L595.14 191.453 L595.14 205.527 Q595.14 208.698 595.996 209.601 Q596.876 210.504 599.538 210.504 L603.913 210.504 L603.913 214.069 L599.538 214.069 Q594.607 214.069 592.732 212.24 Q590.857 210.388 590.857 205.527 L590.857 191.453 L587.732 191.453 L587.732 188.143 L590.857 188.143 L590.857 180.782 L595.14 180.782 Z" fill="#000000" fill-rule="nonzero" fill-opacity="1" /><path clip-path="url(#clip820)" d="M620.301 216.476 Q618.496 221.106 616.783 222.518 Q615.07 223.93 612.2 223.93 L608.797 223.93 L608.797 220.365 L611.297 220.365 Q613.056 220.365 614.028 219.532 Q615.001 218.698 616.181 215.596 L616.945 213.652 L606.459 188.143 L610.973 188.143 L619.075 208.421 L627.176 188.143 L631.69 188.143 L620.301 216.476 Z" fill="#000000" fill-rule="nonzero" fill-opacity="1" /><path clip-path="url(#clip820)" d="M664.422 201.036 Q659.26 201.036 657.269 202.217 Q655.278 203.397 655.278 206.245 Q655.278 208.513 656.76 209.856 Q658.264 211.175 660.834 211.175 Q664.375 211.175 666.505 208.675 Q668.658 206.152 668.658 201.985 L668.658 201.036 L664.422 201.036 M672.917 199.277 L672.917 214.069 L668.658 214.069 L668.658 210.133 Q667.199 212.495 665.023 213.629 Q662.848 214.74 659.699 214.74 Q655.718 214.74 653.357 212.518 Q651.019 210.272 651.019 206.522 Q651.019 202.147 653.936 199.925 Q656.875 197.703 662.685 197.703 L668.658 197.703 L668.658 197.286 Q668.658 194.347 666.713 192.749 Q664.792 191.129 661.297 191.129 Q659.074 191.129 656.968 191.661 Q654.861 192.194 652.917 193.259 L652.917 189.323 Q655.255 188.421 657.454 187.981 Q659.653 187.518 661.736 187.518 Q667.361 187.518 670.139 190.434 Q672.917 193.351 672.917 199.277 Z" fill="#000000" fill-rule="nonzero" fill-opacity="1" /><path clip-path="url(#clip820)" d="M694.815 178.05 L694.815 181.592 L690.741 181.592 Q688.449 181.592 687.546 182.518 Q686.667 183.444 686.667 185.851 L686.667 188.143 L693.681 188.143 L693.681 191.453 L686.667 191.453 L686.667 214.069 L682.384 214.069 L682.384 191.453 L678.31 191.453 L678.31 188.143 L682.384 188.143 L682.384 186.337 Q682.384 182.009 684.398 180.041 Q686.412 178.05 690.787 178.05 L694.815 178.05 Z" fill="#000000" fill-rule="nonzero" fill-opacity="1" /><path clip-path="url(#clip820)" d="M701.759 180.782 L701.759 188.143 L710.532 188.143 L710.532 191.453 L701.759 191.453 L701.759 205.527 Q701.759 208.698 702.616 209.601 Q703.495 210.504 706.157 210.504 L710.532 210.504 L710.532 214.069 L706.157 214.069 Q701.227 214.069 699.352 212.24 Q697.477 210.388 697.477 205.527 L697.477 191.453 L694.352 191.453 L694.352 188.143 L697.477 188.143 L697.477 180.782 L701.759 180.782 Z" fill="#000000" fill-rule="nonzero" fill-opacity="1" /><path clip-path="url(#clip820)" d="M738.31 200.041 L738.31 202.124 L718.727 202.124 Q719.005 206.522 721.366 208.837 Q723.75 211.129 727.986 211.129 Q730.44 211.129 732.731 210.527 Q735.046 209.925 737.315 208.721 L737.315 212.749 Q735.023 213.721 732.616 214.231 Q730.208 214.74 727.731 214.74 Q721.528 214.74 717.894 211.129 Q714.282 207.518 714.282 201.36 Q714.282 194.995 717.708 191.268 Q721.157 187.518 726.991 187.518 Q732.222 187.518 735.255 190.897 Q738.31 194.254 738.31 200.041 M734.051 198.791 Q734.005 195.296 732.083 193.212 Q730.185 191.129 727.037 191.129 Q723.472 191.129 721.319 193.143 Q719.19 195.157 718.866 198.814 L734.051 198.791 Z" fill="#000000" fill-rule="nonzero" fill-opacity="1" /><path clip-path="url(#clip820)" d="M760.324 192.124 Q759.606 191.708 758.75 191.522 Q757.916 191.314 756.898 191.314 Q753.287 191.314 751.342 193.675 Q749.421 196.013 749.421 200.411 L749.421 214.069 L745.139 214.069 L745.139 188.143 L749.421 188.143 L749.421 192.171 Q750.764 189.809 752.916 188.675 Q755.069 187.518 758.148 187.518 Q758.588 187.518 759.12 187.587 Q759.653 187.634 760.301 187.749 L760.324 192.124 Z" fill="#000000" fill-rule="nonzero" fill-opacity="1" /><path clip-path="url(#clip820)" d="M784.074 180.782 L784.074 188.143 L792.847 188.143 L792.847 191.453 L784.074 191.453 L784.074 205.527 Q784.074 208.698 784.93 209.601 Q785.81 210.504 788.472 210.504 L792.847 210.504 L792.847 214.069 L788.472 214.069 Q783.541 214.069 781.666 212.24 Q779.791 210.388 779.791 205.527 L779.791 191.453 L776.666 191.453 L776.666 188.143 L779.791 188.143 L779.791 180.782 L784.074 180.782 Z" fill="#000000" fill-rule="nonzero" fill-opacity="1" /><path clip-path="url(#clip820)" d="M813.472 192.124 Q812.754 191.708 811.898 191.522 Q811.064 191.314 810.046 191.314 Q806.435 191.314 804.49 193.675 Q802.569 196.013 802.569 200.411 L802.569 214.069 L798.287 214.069 L798.287 188.143 L802.569 188.143 L802.569 192.171 Q803.912 189.809 806.064 188.675 Q808.217 187.518 811.296 187.518 Q811.736 187.518 812.268 187.587 Q812.8 187.634 813.449 187.749 L813.472 192.124 Z" fill="#000000" fill-rule="nonzero" fill-opacity="1" /><path clip-path="url(#clip820)" d="M829.722 201.036 Q824.56 201.036 822.569 202.217 Q820.578 203.397 820.578 206.245 Q820.578 208.513 822.06 209.856 Q823.564 211.175 826.134 211.175 Q829.675 211.175 831.805 208.675 Q833.958 206.152 833.958 201.985 L833.958 201.036 L829.722 201.036 M838.217 199.277 L838.217 214.069 L833.958 214.069 L833.958 210.133 Q832.499 212.495 830.323 213.629 Q828.148 214.74 824.999 214.74 Q821.018 214.74 818.657 212.518 Q816.319 210.272 816.319 206.522 Q816.319 202.147 819.236 199.925 Q822.175 197.703 827.986 197.703 L833.958 197.703 L833.958 197.286 Q833.958 194.347 832.013 192.749 Q830.092 191.129 826.597 191.129 Q824.374 191.129 822.268 191.661 Q820.161 192.194 818.217 193.259 L818.217 189.323 Q820.555 188.421 822.754 187.981 Q824.953 187.518 827.036 187.518 Q832.661 187.518 835.439 190.434 Q838.217 193.351 838.217 199.277 Z" fill="#000000" fill-rule="nonzero" fill-opacity="1" /><path clip-path="url(#clip820)" d="M846.99 188.143 L851.249 188.143 L851.249 214.069 L846.99 214.069 L846.99 188.143 M846.99 178.05 L851.249 178.05 L851.249 183.444 L846.99 183.444 L846.99 178.05 Z" fill="#000000" fill-rule="nonzero" fill-opacity="1" /><path clip-path="url(#clip820)" d="M881.712 198.421 L881.712 214.069 L877.453 214.069 L877.453 198.559 Q877.453 194.879 876.018 193.05 Q874.582 191.222 871.712 191.222 Q868.263 191.222 866.272 193.421 Q864.282 195.62 864.282 199.416 L864.282 214.069 L859.999 214.069 L859.999 188.143 L864.282 188.143 L864.282 192.171 Q865.809 189.833 867.87 188.675 Q869.953 187.518 872.661 187.518 Q877.129 187.518 879.42 190.296 Q881.712 193.05 881.712 198.421 Z" fill="#000000" fill-rule="nonzero" fill-opacity="1" /><path clip-path="url(#clip820)" d="M890.207 188.143 L894.467 188.143 L894.467 214.069 L890.207 214.069 L890.207 188.143 M890.207 178.05 L894.467 178.05 L894.467 183.444 L890.207 183.444 L890.207 178.05 Z" fill="#000000" fill-rule="nonzero" fill-opacity="1" /><path clip-path="url(#clip820)" d="M924.929 198.421 L924.929 214.069 L920.67 214.069 L920.67 198.559 Q920.67 194.879 919.235 193.05 Q917.8 191.222 914.929 191.222 Q911.48 191.222 909.49 193.421 Q907.499 195.62 907.499 199.416 L907.499 214.069 L903.217 214.069 L903.217 188.143 L907.499 188.143 L907.499 192.171 Q909.027 189.833 911.087 188.675 Q913.17 187.518 915.879 187.518 Q920.346 187.518 922.638 190.296 Q924.929 193.05 924.929 198.421 Z" fill="#000000" fill-rule="nonzero" fill-opacity="1" /><path clip-path="url(#clip820)" d="M950.485 200.805 Q950.485 196.175 948.564 193.629 Q946.665 191.083 943.216 191.083 Q939.79 191.083 937.869 193.629 Q935.971 196.175 935.971 200.805 Q935.971 205.411 937.869 207.958 Q939.79 210.504 943.216 210.504 Q946.665 210.504 948.564 207.958 Q950.485 205.411 950.485 200.805 M954.744 210.851 Q954.744 217.471 951.804 220.689 Q948.864 223.93 942.8 223.93 Q940.554 223.93 938.564 223.582 Q936.573 223.258 934.698 222.564 L934.698 218.42 Q936.573 219.439 938.402 219.925 Q940.23 220.411 942.128 220.411 Q946.318 220.411 948.402 218.212 Q950.485 216.036 950.485 211.615 L950.485 209.508 Q949.165 211.8 947.105 212.934 Q945.045 214.069 942.175 214.069 Q937.406 214.069 934.49 210.434 Q931.573 206.8 931.573 200.805 Q931.573 194.786 934.49 191.152 Q937.406 187.518 942.175 187.518 Q945.045 187.518 947.105 188.652 Q949.165 189.786 950.485 192.078 L950.485 188.143 L954.744 188.143 L954.744 210.851 Z" fill="#000000" fill-rule="nonzero" fill-opacity="1" /><polyline clip-path="url(#clip820)" style="stroke:#3da44d; stroke-linecap:round; stroke-linejoin:round; stroke-width:4; stroke-opacity:1; fill:none" points="280.571,248.629 425.142,248.629 "/>
<path clip-path="url(#clip820)" d="M449.238 239.983 L453.751 239.983 L461.853 261.742 L469.955 239.983 L474.469 239.983 L464.747 265.909 L458.96 265.909 L449.238 239.983 Z" fill="#000000" fill-rule="nonzero" fill-opacity="1" /><path clip-path="url(#clip820)" d="M502.524 251.881 L502.524 253.964 L482.941 253.964 Q483.219 258.362 485.58 260.677 Q487.964 262.969 492.2 262.969 Q494.654 262.969 496.946 262.367 Q499.26 261.765 501.529 260.561 L501.529 264.589 Q499.237 265.561 496.83 266.071 Q494.422 266.58 491.946 266.58 Q485.742 266.58 482.108 262.969 Q478.497 259.358 478.497 253.2 Q478.497 246.835 481.923 243.108 Q485.372 239.358 491.205 239.358 Q496.436 239.358 499.469 242.737 Q502.524 246.094 502.524 251.881 M498.265 250.631 Q498.219 247.136 496.297 245.052 Q494.399 242.969 491.251 242.969 Q487.686 242.969 485.534 244.983 Q483.404 246.997 483.08 250.654 L498.265 250.631 Z" fill="#000000" fill-rule="nonzero" fill-opacity="1" /><path clip-path="url(#clip820)" d="M509.515 229.89 L513.774 229.89 L513.774 265.909 L509.515 265.909 L509.515 229.89 Z" fill="#000000" fill-rule="nonzero" fill-opacity="1" /><path clip-path="url(#clip820)" d="M532.732 242.969 Q529.307 242.969 527.316 245.654 Q525.325 248.316 525.325 252.969 Q525.325 257.622 527.293 260.307 Q529.283 262.969 532.732 262.969 Q536.135 262.969 538.126 260.284 Q540.117 257.598 540.117 252.969 Q540.117 248.362 538.126 245.677 Q536.135 242.969 532.732 242.969 M532.732 239.358 Q538.288 239.358 541.459 242.969 Q544.631 246.58 544.631 252.969 Q544.631 259.335 541.459 262.969 Q538.288 266.58 532.732 266.58 Q527.154 266.58 523.983 262.969 Q520.834 259.335 520.834 252.969 Q520.834 246.58 523.983 242.969 Q527.154 239.358 532.732 239.358 Z" fill="#000000" fill-rule="nonzero" fill-opacity="1" /><path clip-path="url(#clip820)" d="M570.348 240.978 L570.348 244.96 Q568.542 243.964 566.714 243.478 Q564.908 242.969 563.056 242.969 Q558.913 242.969 556.621 245.608 Q554.33 248.224 554.33 252.969 Q554.33 257.714 556.621 260.353 Q558.913 262.969 563.056 262.969 Q564.908 262.969 566.714 262.483 Q568.542 261.973 570.348 260.978 L570.348 264.913 Q568.566 265.747 566.644 266.163 Q564.746 266.58 562.593 266.58 Q556.737 266.58 553.288 262.899 Q549.839 259.219 549.839 252.969 Q549.839 246.626 553.311 242.992 Q556.806 239.358 562.871 239.358 Q564.839 239.358 566.714 239.775 Q568.589 240.168 570.348 240.978 Z" fill="#000000" fill-rule="nonzero" fill-opacity="1" /><path clip-path="url(#clip820)" d="M577.755 239.983 L582.015 239.983 L582.015 265.909 L577.755 265.909 L577.755 239.983 M577.755 229.89 L582.015 229.89 L582.015 235.284 L577.755 235.284 L577.755 229.89 Z" fill="#000000" fill-rule="nonzero" fill-opacity="1" /><path clip-path="url(#clip820)" d="M595.14 232.622 L595.14 239.983 L603.913 239.983 L603.913 243.293 L595.14 243.293 L595.14 257.367 Q595.14 260.538 595.996 261.441 Q596.876 262.344 599.538 262.344 L603.913 262.344 L603.913 265.909 L599.538 265.909 Q594.607 265.909 592.732 264.08 Q590.857 262.228 590.857 257.367 L590.857 243.293 L587.732 243.293 L587.732 239.983 L590.857 239.983 L590.857 232.622 L595.14 232.622 Z" fill="#000000" fill-rule="nonzero" fill-opacity="1" /><path clip-path="url(#clip820)" d="M620.301 268.316 Q618.496 272.946 616.783 274.358 Q615.07 275.77 612.2 275.77 L608.797 275.77 L608.797 272.205 L611.297 272.205 Q613.056 272.205 614.028 271.372 Q615.001 270.538 616.181 267.436 L616.945 265.492 L606.459 239.983 L610.973 239.983 L619.075 260.261 L627.176 239.983 L631.69 239.983 L620.301 268.316 Z" fill="#000000" fill-rule="nonzero" fill-opacity="1" /><path clip-path="url(#clip820)" d="M671.25 252.969 Q671.25 248.27 669.306 245.608 Q667.385 242.923 664.005 242.923 Q660.625 242.923 658.681 245.608 Q656.76 248.27 656.76 252.969 Q656.76 257.668 658.681 260.353 Q660.625 263.015 664.005 263.015 Q667.385 263.015 669.306 260.353 Q671.25 257.668 671.25 252.969 M656.76 243.918 Q658.102 241.603 660.139 240.492 Q662.199 239.358 665.047 239.358 Q669.769 239.358 672.709 243.108 Q675.672 246.858 675.672 252.969 Q675.672 259.08 672.709 262.83 Q669.769 266.58 665.047 266.58 Q662.199 266.58 660.139 265.469 Q658.102 264.335 656.76 262.02 L656.76 265.909 L652.477 265.909 L652.477 229.89 L656.76 229.89 L656.76 243.918 Z" fill="#000000" fill-rule="nonzero" fill-opacity="1" /><path clip-path="url(#clip820)" d="M704.907 251.881 L704.907 253.964 L685.324 253.964 Q685.602 258.362 687.963 260.677 Q690.347 262.969 694.583 262.969 Q697.037 262.969 699.329 262.367 Q701.644 261.765 703.912 260.561 L703.912 264.589 Q701.62 265.561 699.213 266.071 Q696.806 266.58 694.329 266.58 Q688.125 266.58 684.491 262.969 Q680.88 259.358 680.88 253.2 Q680.88 246.835 684.306 243.108 Q687.755 239.358 693.588 239.358 Q698.82 239.358 701.852 242.737 Q704.907 246.094 704.907 251.881 M700.648 250.631 Q700.602 247.136 698.681 245.052 Q696.783 242.969 693.634 242.969 Q690.07 242.969 687.917 244.983 Q685.787 246.997 685.463 250.654 L700.648 250.631 Z" fill="#000000" fill-rule="nonzero" fill-opacity="1" /><path clip-path="url(#clip820)" d="M725.023 229.89 L725.023 233.432 L720.949 233.432 Q718.657 233.432 717.755 234.358 Q716.875 235.284 716.875 237.691 L716.875 239.983 L723.889 239.983 L723.889 243.293 L716.875 243.293 L716.875 265.909 L712.593 265.909 L712.593 243.293 L708.519 243.293 L708.519 239.983 L712.593 239.983 L712.593 238.177 Q712.593 233.849 714.606 231.881 Q716.62 229.89 720.995 229.89 L725.023 229.89 Z" fill="#000000" fill-rule="nonzero" fill-opacity="1" /><path clip-path="url(#clip820)" d="M738.634 242.969 Q735.208 242.969 733.218 245.654 Q731.227 248.316 731.227 252.969 Q731.227 257.622 733.194 260.307 Q735.185 262.969 738.634 262.969 Q742.037 262.969 744.028 260.284 Q746.018 257.598 746.018 252.969 Q746.018 248.362 744.028 245.677 Q742.037 242.969 738.634 242.969 M738.634 239.358 Q744.19 239.358 747.361 242.969 Q750.532 246.58 750.532 252.969 Q750.532 259.335 747.361 262.969 Q744.19 266.58 738.634 266.58 Q733.055 266.58 729.884 262.969 Q726.736 259.335 726.736 252.969 Q726.736 246.58 729.884 242.969 Q733.055 239.358 738.634 239.358 Z" fill="#000000" fill-rule="nonzero" fill-opacity="1" /><path clip-path="url(#clip820)" d="M772.615 243.964 Q771.898 243.548 771.041 243.362 Q770.208 243.154 769.19 243.154 Q765.578 243.154 763.634 245.515 Q761.713 247.853 761.713 252.251 L761.713 265.909 L757.43 265.909 L757.43 239.983 L761.713 239.983 L761.713 244.011 Q763.055 241.649 765.208 240.515 Q767.361 239.358 770.44 239.358 Q770.879 239.358 771.412 239.427 Q771.944 239.474 772.592 239.589 L772.615 243.964 Z" fill="#000000" fill-rule="nonzero" fill-opacity="1" /><path clip-path="url(#clip820)" d="M798.217 251.881 L798.217 253.964 L778.634 253.964 Q778.912 258.362 781.273 260.677 Q783.657 262.969 787.893 262.969 Q790.347 262.969 792.638 262.367 Q794.953 261.765 797.222 260.561 L797.222 264.589 Q794.93 265.561 792.523 266.071 Q790.115 266.58 787.639 266.58 Q781.435 266.58 777.801 262.969 Q774.19 259.358 774.19 253.2 Q774.19 246.835 777.615 243.108 Q781.064 239.358 786.898 239.358 Q792.129 239.358 795.162 242.737 Q798.217 246.094 798.217 251.881 M793.958 250.631 Q793.912 247.136 791.99 245.052 Q790.092 242.969 786.944 242.969 Q783.379 242.969 781.227 244.983 Q779.097 246.997 778.773 250.654 L793.958 250.631 Z" fill="#000000" fill-rule="nonzero" fill-opacity="1" /><path clip-path="url(#clip820)" d="M824.49 232.622 L824.49 239.983 L833.263 239.983 L833.263 243.293 L824.49 243.293 L824.49 257.367 Q824.49 260.538 825.347 261.441 Q826.226 262.344 828.888 262.344 L833.263 262.344 L833.263 265.909 L828.888 265.909 Q823.958 265.909 822.083 264.08 Q820.208 262.228 820.208 257.367 L820.208 243.293 L817.083 243.293 L817.083 239.983 L820.208 239.983 L820.208 232.622 L824.49 232.622 Z" fill="#000000" fill-rule="nonzero" fill-opacity="1" /><path clip-path="url(#clip820)" d="M853.888 243.964 Q853.171 243.548 852.314 243.362 Q851.481 243.154 850.462 243.154 Q846.851 243.154 844.907 245.515 Q842.985 247.853 842.985 252.251 L842.985 265.909 L838.703 265.909 L838.703 239.983 L842.985 239.983 L842.985 244.011 Q844.328 241.649 846.481 240.515 Q848.634 239.358 851.712 239.358 Q852.152 239.358 852.684 239.427 Q853.217 239.474 853.865 239.589 L853.888 243.964 Z" fill="#000000" fill-rule="nonzero" fill-opacity="1" /><path clip-path="url(#clip820)" d="M870.138 252.876 Q864.976 252.876 862.985 254.057 Q860.995 255.237 860.995 258.085 Q860.995 260.353 862.476 261.696 Q863.981 263.015 866.55 263.015 Q870.092 263.015 872.221 260.515 Q874.374 257.992 874.374 253.825 L874.374 252.876 L870.138 252.876 M878.633 251.117 L878.633 265.909 L874.374 265.909 L874.374 261.973 Q872.916 264.335 870.74 265.469 Q868.564 266.58 865.416 266.58 Q861.434 266.58 859.073 264.358 Q856.735 262.112 856.735 258.362 Q856.735 253.987 859.652 251.765 Q862.592 249.543 868.402 249.543 L874.374 249.543 L874.374 249.126 Q874.374 246.187 872.43 244.589 Q870.508 242.969 867.013 242.969 Q864.791 242.969 862.684 243.501 Q860.578 244.034 858.633 245.099 L858.633 241.163 Q860.971 240.261 863.171 239.821 Q865.37 239.358 867.453 239.358 Q873.078 239.358 875.856 242.274 Q878.633 245.191 878.633 251.117 Z" fill="#000000" fill-rule="nonzero" fill-opacity="1" /><path clip-path="url(#clip820)" d="M887.406 239.983 L891.666 239.983 L891.666 265.909 L887.406 265.909 L887.406 239.983 M887.406 229.89 L891.666 229.89 L891.666 235.284 L887.406 235.284 L887.406 229.89 Z" fill="#000000" fill-rule="nonzero" fill-opacity="1" /><path clip-path="url(#clip820)" d="M922.129 250.261 L922.129 265.909 L917.869 265.909 L917.869 250.399 Q917.869 246.719 916.434 244.89 Q914.999 243.062 912.129 243.062 Q908.68 243.062 906.689 245.261 Q904.698 247.46 904.698 251.256 L904.698 265.909 L900.416 265.909 L900.416 239.983 L904.698 239.983 L904.698 244.011 Q906.226 241.673 908.286 240.515 Q910.369 239.358 913.078 239.358 Q917.545 239.358 919.837 242.136 Q922.129 244.89 922.129 250.261 Z" fill="#000000" fill-rule="nonzero" fill-opacity="1" /><path clip-path="url(#clip820)" d="M930.624 239.983 L934.883 239.983 L934.883 265.909 L930.624 265.909 L930.624 239.983 M930.624 229.89 L934.883 229.89 L934.883 235.284 L930.624 235.284 L930.624 229.89 Z" fill="#000000" fill-rule="nonzero" fill-opacity="1" /><path clip-path="url(#clip820)" d="M965.346 250.261 L965.346 265.909 L961.087 265.909 L961.087 250.399 Q961.087 246.719 959.651 244.89 Q958.216 243.062 955.346 243.062 Q951.897 243.062 949.906 245.261 Q947.915 247.46 947.915 251.256 L947.915 265.909 L943.633 265.909 L943.633 239.983 L947.915 239.983 L947.915 244.011 Q949.443 241.673 951.503 240.515 Q953.587 239.358 956.295 239.358 Q960.763 239.358 963.054 242.136 Q965.346 244.89 965.346 250.261 Z" fill="#000000" fill-rule="nonzero" fill-opacity="1" /><path clip-path="url(#clip820)" d="M990.901 252.645 Q990.901 248.015 988.98 245.469 Q987.082 242.923 983.633 242.923 Q980.207 242.923 978.286 245.469 Q976.387 248.015 976.387 252.645 Q976.387 257.251 978.286 259.798 Q980.207 262.344 983.633 262.344 Q987.082 262.344 988.98 259.798 Q990.901 257.251 990.901 252.645 M995.161 262.691 Q995.161 269.311 992.221 272.529 Q989.281 275.77 983.216 275.77 Q980.971 275.77 978.98 275.422 Q976.989 275.098 975.114 274.404 L975.114 270.26 Q976.989 271.279 978.818 271.765 Q980.647 272.251 982.545 272.251 Q986.735 272.251 988.818 270.052 Q990.901 267.876 990.901 263.455 L990.901 261.348 Q989.582 263.64 987.522 264.774 Q985.462 265.909 982.591 265.909 Q977.823 265.909 974.906 262.274 Q971.989 258.64 971.989 252.645 Q971.989 246.626 974.906 242.992 Q977.823 239.358 982.591 239.358 Q985.462 239.358 987.522 240.492 Q989.582 241.626 990.901 243.918 L990.901 239.983 L995.161 239.983 L995.161 262.691 Z" fill="#000000" fill-rule="nonzero" fill-opacity="1" /></svg>
