<?xml version="1.0" encoding="utf-8"?>
<svg xmlns="http://www.w3.org/2000/svg" xmlns:xlink="http://www.w3.org/1999/xlink" width="600" height="400" viewBox="0 0 2400 1600">
<defs>
  <clipPath id="clip700">
    <rect x="0" y="0" width="2400" height="1600"/>
  </clipPath>
</defs>
<path clip-path="url(#clip700)" d="M0 1600 L2400 1600 L2400 0 L0 0  Z" fill="#ffffff" fill-rule="evenodd" fill-opacity="1"/>
<defs>
  <clipPath id="clip701">
    <rect x="480" y="0" width="1681" height="1600"/>
  </clipPath>
</defs>
<path clip-path="url(#clip700)" d="M112.177 1423.18 L2352.76 1423.18 L2352.76 47.2441 L112.177 47.2441  Z" fill="#ffffff" fill-rule="evenodd" fill-opacity="1"/>
<defs>
  <clipPath id="clip702">
    <rect x="112" y="47" width="2242" height="1377"/>
  </clipPath>
</defs>
<polyline clip-path="url(#clip702)" style="stroke:#000000; stroke-linecap:round; stroke-linejoin:round; stroke-width:2; stroke-opacity:0.1; fill:none" points="112.177,1423.18 112.177,47.2441 "/>
<polyline clip-path="url(#clip702)" style="stroke:#000000; stroke-linecap:round; stroke-linejoin:round; stroke-width:2; stroke-opacity:0.1; fill:none" points="560.293,1423.18 560.293,47.2441 "/>
<polyline clip-path="url(#clip702)" style="stroke:#000000; stroke-linecap:round; stroke-linejoin:round; stroke-width:2; stroke-opacity:0.1; fill:none" points="1008.41,1423.18 1008.41,47.2441 "/>
<polyline clip-path="url(#clip702)" style="stroke:#000000; stroke-linecap:round; stroke-linejoin:round; stroke-width:2; stroke-opacity:0.1; fill:none" points="1456.52,1423.18 1456.52,47.2441 "/>
<polyline clip-path="url(#clip702)" style="stroke:#000000; stroke-linecap:round; stroke-linejoin:round; stroke-width:2; stroke-opacity:0.1; fill:none" points="1904.64,1423.18 1904.64,47.2441 "/>
<polyline clip-path="url(#clip700)" style="stroke:#000000; stroke-linecap:round; stroke-linejoin:round; stroke-width:4; stroke-opacity:1; fill:none" points="112.177,1423.18 2352.76,1423.18 "/>
<polyline clip-path="url(#clip700)" style="stroke:#000000; stroke-linecap:round; stroke-linejoin:round; stroke-width:4; stroke-opacity:1; fill:none" points="112.177,1423.18 112.177,1404.28 "/>
<polyline clip-path="url(#clip700)" style="stroke:#000000; stroke-linecap:round; stroke-linejoin:round; stroke-width:4; stroke-opacity:1; fill:none" points="560.293,1423.18 560.293,1404.28 "/>
<polyline clip-path="url(#clip700)" style="stroke:#000000; stroke-linecap:round; stroke-linejoin:round; stroke-width:4; stroke-opacity:1; fill:none" points="1008.41,1423.18 1008.41,1404.28 "/>
<polyline clip-path="url(#clip700)" style="stroke:#000000; stroke-linecap:round; stroke-linejoin:round; stroke-width:4; stroke-opacity:1; fill:none" points="1456.52,1423.18 1456.52,1404.28 "/>
<polyline clip-path="url(#clip700)" style="stroke:#000000; stroke-linecap:round; stroke-linejoin:round; stroke-width:4; stroke-opacity:1; fill:none" points="1904.64,1423.18 1904.64,1404.28 "/>
<path clip-path="url(#clip700)" d="M74.4806 1454.1 Q70.8695 1454.1 69.0408 1457.66 Q67.2353 1461.2 67.2353 1468.33 Q67.2353 1475.44 69.0408 1479.01 Q70.8695 1482.55 74.4806 1482.55 Q78.1149 1482.55 79.9204 1479.01 Q81.7491 1475.44 81.7491 1468.33 Q81.7491 1461.2 79.9204 1457.66 Q78.1149 1454.1 74.4806 1454.1 M74.4806 1450.39 Q80.2908 1450.39 83.3463 1455 Q86.425 1459.58 86.425 1468.33 Q86.425 1477.06 83.3463 1481.67 Q80.2908 1486.25 74.4806 1486.25 Q68.6705 1486.25 65.5918 1481.67 Q62.5362 1477.06 62.5362 1468.33 Q62.5362 1459.58 65.5918 1455 Q68.6705 1450.39 74.4806 1450.39 Z" fill="#000000" fill-rule="nonzero" fill-opacity="1" /><path clip-path="url(#clip700)" d="M94.6425 1479.7 L99.5268 1479.7 L99.5268 1485.58 L94.6425 1485.58 L94.6425 1479.7 Z" fill="#000000" fill-rule="nonzero" fill-opacity="1" /><path clip-path="url(#clip700)" d="M119.712 1454.1 Q116.101 1454.1 114.272 1457.66 Q112.467 1461.2 112.467 1468.33 Q112.467 1475.44 114.272 1479.01 Q116.101 1482.55 119.712 1482.55 Q123.346 1482.55 125.152 1479.01 Q126.98 1475.44 126.98 1468.33 Q126.98 1461.2 125.152 1457.66 Q123.346 1454.1 119.712 1454.1 M119.712 1450.39 Q125.522 1450.39 128.578 1455 Q131.656 1459.58 131.656 1468.33 Q131.656 1477.06 128.578 1481.67 Q125.522 1486.25 119.712 1486.25 Q113.902 1486.25 110.823 1481.67 Q107.767 1477.06 107.767 1468.33 Q107.767 1459.58 110.823 1455 Q113.902 1450.39 119.712 1450.39 Z" fill="#000000" fill-rule="nonzero" fill-opacity="1" /><path clip-path="url(#clip700)" d="M149.874 1454.1 Q146.263 1454.1 144.434 1457.66 Q142.628 1461.2 142.628 1468.33 Q142.628 1475.44 144.434 1479.01 Q146.263 1482.55 149.874 1482.55 Q153.508 1482.55 155.314 1479.01 Q157.142 1475.44 157.142 1468.33 Q157.142 1461.2 155.314 1457.66 Q153.508 1454.1 149.874 1454.1 M149.874 1450.39 Q155.684 1450.39 158.739 1455 Q161.818 1459.58 161.818 1468.33 Q161.818 1477.06 158.739 1481.67 Q155.684 1486.25 149.874 1486.25 Q144.064 1486.25 140.985 1481.67 Q137.929 1477.06 137.929 1468.33 Q137.929 1459.58 140.985 1455 Q144.064 1450.39 149.874 1450.39 Z" fill="#000000" fill-rule="nonzero" fill-opacity="1" /><path clip-path="url(#clip700)" d="M523.395 1454.1 Q519.784 1454.1 517.955 1457.66 Q516.15 1461.2 516.15 1468.33 Q516.15 1475.44 517.955 1479.01 Q519.784 1482.55 523.395 1482.55 Q527.029 1482.55 528.835 1479.01 Q530.663 1475.44 530.663 1468.33 Q530.663 1461.2 528.835 1457.66 Q527.029 1454.1 523.395 1454.1 M523.395 1450.39 Q529.205 1450.39 532.261 1455 Q535.339 1459.58 535.339 1468.33 Q535.339 1477.06 532.261 1481.67 Q529.205 1486.25 523.395 1486.25 Q517.585 1486.25 514.506 1481.67 Q511.451 1477.06 511.451 1468.33 Q511.451 1459.58 514.506 1455 Q517.585 1450.39 523.395 1450.39 Z" fill="#000000" fill-rule="nonzero" fill-opacity="1" /><path clip-path="url(#clip700)" d="M543.557 1479.7 L548.441 1479.7 L548.441 1485.58 L543.557 1485.58 L543.557 1479.7 Z" fill="#000000" fill-rule="nonzero" fill-opacity="1" /><path clip-path="url(#clip700)" d="M568.626 1454.1 Q565.015 1454.1 563.186 1457.66 Q561.381 1461.2 561.381 1468.33 Q561.381 1475.44 563.186 1479.01 Q565.015 1482.55 568.626 1482.55 Q572.26 1482.55 574.066 1479.01 Q575.895 1475.44 575.895 1468.33 Q575.895 1461.2 574.066 1457.66 Q572.26 1454.1 568.626 1454.1 M568.626 1450.39 Q574.436 1450.39 577.492 1455 Q580.571 1459.58 580.571 1468.33 Q580.571 1477.06 577.492 1481.67 Q574.436 1486.25 568.626 1486.25 Q562.816 1486.25 559.737 1481.67 Q556.682 1477.06 556.682 1468.33 Q556.682 1459.58 559.737 1455 Q562.816 1450.39 568.626 1450.39 Z" fill="#000000" fill-rule="nonzero" fill-opacity="1" /><path clip-path="url(#clip700)" d="M592.816 1481.64 L609.135 1481.64 L609.135 1485.58 L587.191 1485.58 L587.191 1481.64 Q589.853 1478.89 594.436 1474.26 Q599.043 1469.61 600.223 1468.27 Q602.469 1465.74 603.348 1464.01 Q604.251 1462.25 604.251 1460.56 Q604.251 1457.8 602.307 1456.07 Q600.385 1454.33 597.283 1454.33 Q595.084 1454.33 592.631 1455.09 Q590.2 1455.86 587.422 1457.41 L587.422 1452.69 Q590.246 1451.55 592.7 1450.97 Q595.154 1450.39 597.191 1450.39 Q602.561 1450.39 605.756 1453.08 Q608.95 1455.77 608.95 1460.26 Q608.95 1462.39 608.14 1464.31 Q607.353 1466.2 605.246 1468.8 Q604.668 1469.47 601.566 1472.69 Q598.464 1475.88 592.816 1481.64 Z" fill="#000000" fill-rule="nonzero" fill-opacity="1" /><path clip-path="url(#clip700)" d="M970.469 1454.1 Q966.858 1454.1 965.029 1457.66 Q963.224 1461.2 963.224 1468.33 Q963.224 1475.44 965.029 1479.01 Q966.858 1482.55 970.469 1482.55 Q974.103 1482.55 975.909 1479.01 Q977.738 1475.44 977.738 1468.33 Q977.738 1461.2 975.909 1457.66 Q974.103 1454.1 970.469 1454.1 M970.469 1450.39 Q976.279 1450.39 979.335 1455 Q982.413 1459.58 982.413 1468.33 Q982.413 1477.06 979.335 1481.67 Q976.279 1486.25 970.469 1486.25 Q964.659 1486.25 961.58 1481.67 Q958.525 1477.06 958.525 1468.33 Q958.525 1459.58 961.58 1455 Q964.659 1450.39 970.469 1450.39 Z" fill="#000000" fill-rule="nonzero" fill-opacity="1" /><path clip-path="url(#clip700)" d="M990.631 1479.7 L995.515 1479.7 L995.515 1485.58 L990.631 1485.58 L990.631 1479.7 Z" fill="#000000" fill-rule="nonzero" fill-opacity="1" /><path clip-path="url(#clip700)" d="M1015.7 1454.1 Q1012.09 1454.1 1010.26 1457.66 Q1008.45 1461.2 1008.45 1468.33 Q1008.45 1475.44 1010.26 1479.01 Q1012.09 1482.55 1015.7 1482.55 Q1019.33 1482.55 1021.14 1479.01 Q1022.97 1475.44 1022.97 1468.33 Q1022.97 1461.2 1021.14 1457.66 Q1019.33 1454.1 1015.7 1454.1 M1015.7 1450.39 Q1021.51 1450.39 1024.57 1455 Q1027.64 1459.58 1027.64 1468.33 Q1027.64 1477.06 1024.57 1481.67 Q1021.51 1486.25 1015.7 1486.25 Q1009.89 1486.25 1006.81 1481.67 Q1003.76 1477.06 1003.76 1468.33 Q1003.76 1459.58 1006.81 1455 Q1009.89 1450.39 1015.7 1450.39 Z" fill="#000000" fill-rule="nonzero" fill-opacity="1" /><path clip-path="url(#clip700)" d="M1048.71 1455.09 L1036.9 1473.54 L1048.71 1473.54 L1048.71 1455.09 M1047.48 1451.02 L1053.36 1451.02 L1053.36 1473.54 L1058.29 1473.54 L1058.29 1477.43 L1053.36 1477.43 L1053.36 1485.58 L1048.71 1485.58 L1048.71 1477.43 L1033.11 1477.43 L1033.11 1472.92 L1047.48 1451.02 Z" fill="#000000" fill-rule="nonzero" fill-opacity="1" /><path clip-path="url(#clip700)" d="M1418.75 1454.1 Q1415.14 1454.1 1413.31 1457.66 Q1411.5 1461.2 1411.5 1468.33 Q1411.5 1475.44 1413.31 1479.01 Q1415.14 1482.55 1418.75 1482.55 Q1422.38 1482.55 1424.19 1479.01 Q1426.02 1475.44 1426.02 1468.33 Q1426.02 1461.2 1424.19 1457.66 Q1422.38 1454.1 1418.75 1454.1 M1418.75 1450.39 Q1424.56 1450.39 1427.61 1455 Q1430.69 1459.58 1430.69 1468.33 Q1430.69 1477.06 1427.61 1481.67 Q1424.56 1486.25 1418.75 1486.25 Q1412.94 1486.25 1409.86 1481.67 Q1406.8 1477.06 1406.8 1468.33 Q1406.8 1459.58 1409.86 1455 Q1412.94 1450.39 1418.75 1450.39 Z" fill="#000000" fill-rule="nonzero" fill-opacity="1" /><path clip-path="url(#clip700)" d="M1438.91 1479.7 L1443.79 1479.7 L1443.79 1485.58 L1438.91 1485.58 L1438.91 1479.7 Z" fill="#000000" fill-rule="nonzero" fill-opacity="1" /><path clip-path="url(#clip700)" d="M1463.98 1454.1 Q1460.37 1454.1 1458.54 1457.66 Q1456.73 1461.2 1456.73 1468.33 Q1456.73 1475.44 1458.54 1479.01 Q1460.37 1482.55 1463.98 1482.55 Q1467.61 1482.55 1469.42 1479.01 Q1471.25 1475.44 1471.25 1468.33 Q1471.25 1461.2 1469.42 1457.66 Q1467.61 1454.1 1463.98 1454.1 M1463.98 1450.39 Q1469.79 1450.39 1472.84 1455 Q1475.92 1459.58 1475.92 1468.33 Q1475.92 1477.06 1472.84 1481.67 Q1469.79 1486.25 1463.98 1486.25 Q1458.17 1486.25 1455.09 1481.67 Q1452.03 1477.06 1452.03 1468.33 Q1452.03 1459.58 1455.09 1455 Q1458.17 1450.39 1463.98 1450.39 Z" fill="#000000" fill-rule="nonzero" fill-opacity="1" /><path clip-path="url(#clip700)" d="M1494.72 1466.44 Q1491.57 1466.44 1489.72 1468.59 Q1487.89 1470.74 1487.89 1474.49 Q1487.89 1478.22 1489.72 1480.39 Q1491.57 1482.55 1494.72 1482.55 Q1497.87 1482.55 1499.7 1480.39 Q1501.55 1478.22 1501.55 1474.49 Q1501.55 1470.74 1499.7 1468.59 Q1497.87 1466.44 1494.72 1466.44 M1504 1451.78 L1504 1456.04 Q1502.24 1455.21 1500.44 1454.77 Q1498.65 1454.33 1496.89 1454.33 Q1492.26 1454.33 1489.81 1457.45 Q1487.38 1460.58 1487.03 1466.9 Q1488.4 1464.89 1490.46 1463.82 Q1492.52 1462.73 1495 1462.73 Q1500.2 1462.73 1503.21 1465.9 Q1506.25 1469.05 1506.25 1474.49 Q1506.25 1479.82 1503.1 1483.03 Q1499.95 1486.25 1494.72 1486.25 Q1488.72 1486.25 1485.55 1481.67 Q1482.38 1477.06 1482.38 1468.33 Q1482.38 1460.14 1486.27 1455.28 Q1490.16 1450.39 1496.71 1450.39 Q1498.47 1450.39 1500.25 1450.74 Q1502.06 1451.09 1504 1451.78 Z" fill="#000000" fill-rule="nonzero" fill-opacity="1" /><path clip-path="url(#clip700)" d="M1866.99 1454.1 Q1863.38 1454.1 1861.55 1457.66 Q1859.74 1461.2 1859.74 1468.33 Q1859.74 1475.44 1861.55 1479.01 Q1863.38 1482.55 1866.99 1482.55 Q1870.62 1482.55 1872.43 1479.01 Q1874.26 1475.44 1874.26 1468.33 Q1874.26 1461.2 1872.43 1457.66 Q1870.62 1454.1 1866.99 1454.1 M1866.99 1450.39 Q1872.8 1450.39 1875.86 1455 Q1878.93 1459.58 1878.93 1468.33 Q1878.93 1477.06 1875.86 1481.67 Q1872.8 1486.25 1866.99 1486.25 Q1861.18 1486.25 1858.1 1481.67 Q1855.05 1477.06 1855.05 1468.33 Q1855.05 1459.58 1858.1 1455 Q1861.18 1450.39 1866.99 1450.39 Z" fill="#000000" fill-rule="nonzero" fill-opacity="1" /><path clip-path="url(#clip700)" d="M1887.15 1479.7 L1892.04 1479.7 L1892.04 1485.58 L1887.15 1485.58 L1887.15 1479.7 Z" fill="#000000" fill-rule="nonzero" fill-opacity="1" /><path clip-path="url(#clip700)" d="M1912.22 1454.1 Q1908.61 1454.1 1906.78 1457.66 Q1904.98 1461.2 1904.98 1468.33 Q1904.98 1475.44 1906.78 1479.01 Q1908.61 1482.55 1912.22 1482.55 Q1915.86 1482.55 1917.66 1479.01 Q1919.49 1475.44 1919.49 1468.33 Q1919.49 1461.2 1917.66 1457.66 Q1915.86 1454.1 1912.22 1454.1 M1912.22 1450.39 Q1918.03 1450.39 1921.09 1455 Q1924.17 1459.58 1924.17 1468.33 Q1924.17 1477.06 1921.09 1481.67 Q1918.03 1486.25 1912.22 1486.25 Q1906.41 1486.25 1903.33 1481.67 Q1900.28 1477.06 1900.28 1468.33 Q1900.28 1459.58 1903.33 1455 Q1906.41 1450.39 1912.22 1450.39 Z" fill="#000000" fill-rule="nonzero" fill-opacity="1" /><path clip-path="url(#clip700)" d="M1942.38 1469.17 Q1939.05 1469.17 1937.13 1470.95 Q1935.23 1472.73 1935.23 1475.86 Q1935.23 1478.98 1937.13 1480.77 Q1939.05 1482.55 1942.38 1482.55 Q1945.72 1482.55 1947.64 1480.77 Q1949.56 1478.96 1949.56 1475.86 Q1949.56 1472.73 1947.64 1470.95 Q1945.74 1469.17 1942.38 1469.17 M1937.71 1467.18 Q1934.7 1466.44 1933.01 1464.38 Q1931.34 1462.32 1931.34 1459.35 Q1931.34 1455.21 1934.28 1452.8 Q1937.24 1450.39 1942.38 1450.39 Q1947.55 1450.39 1950.48 1452.8 Q1953.42 1455.21 1953.42 1459.35 Q1953.42 1462.32 1951.73 1464.38 Q1950.07 1466.44 1947.08 1467.18 Q1950.46 1467.96 1952.34 1470.26 Q1954.23 1472.55 1954.23 1475.86 Q1954.23 1480.88 1951.16 1483.57 Q1948.1 1486.25 1942.38 1486.25 Q1936.67 1486.25 1933.59 1483.57 Q1930.53 1480.88 1930.53 1475.86 Q1930.53 1472.55 1932.43 1470.26 Q1934.33 1467.96 1937.71 1467.18 M1935.99 1459.79 Q1935.99 1462.48 1937.66 1463.98 Q1939.35 1465.49 1942.38 1465.49 Q1945.39 1465.49 1947.08 1463.98 Q1948.8 1462.48 1948.8 1459.79 Q1948.8 1457.11 1947.08 1455.6 Q1945.39 1454.1 1942.38 1454.1 Q1939.35 1454.1 1937.66 1455.6 Q1935.99 1457.11 1935.99 1459.79 Z" fill="#000000" fill-rule="nonzero" fill-opacity="1" /><path clip-path="url(#clip700)" d="M1231.53 1522.27 L1231.53 1532.4 L1243.59 1532.4 L1243.59 1536.95 L1231.53 1536.95 L1231.53 1556.3 Q1231.53 1560.66 1232.71 1561.9 Q1233.91 1563.14 1237.58 1563.14 L1243.59 1563.14 L1243.59 1568.04 L1237.58 1568.04 Q1230.8 1568.04 1228.22 1565.53 Q1225.64 1562.98 1225.64 1556.3 L1225.64 1536.95 L1221.34 1536.95 L1221.34 1532.4 L1225.64 1532.4 L1225.64 1522.27 L1231.53 1522.27 Z" fill="#000000" fill-rule="nonzero" fill-opacity="1" /><polyline clip-path="url(#clip702)" style="stroke:#000000; stroke-linecap:round; stroke-linejoin:round; stroke-width:2; stroke-opacity:0.1; fill:none" points="112.177,1384.24 2352.76,1384.24 "/>
<polyline clip-path="url(#clip702)" style="stroke:#000000; stroke-linecap:round; stroke-linejoin:round; stroke-width:2; stroke-opacity:0.1; fill:none" points="112.177,1101.74 2352.76,1101.74 "/>
<polyline clip-path="url(#clip702)" style="stroke:#000000; stroke-linecap:round; stroke-linejoin:round; stroke-width:2; stroke-opacity:0.1; fill:none" points="112.177,819.247 2352.76,819.247 "/>
<polyline clip-path="url(#clip702)" style="stroke:#000000; stroke-linecap:round; stroke-linejoin:round; stroke-width:2; stroke-opacity:0.1; fill:none" points="112.177,536.752 2352.76,536.752 "/>
<polyline clip-path="url(#clip702)" style="stroke:#000000; stroke-linecap:round; stroke-linejoin:round; stroke-width:2; stroke-opacity:0.1; fill:none" points="112.177,254.256 2352.76,254.256 "/>
<polyline clip-path="url(#clip700)" style="stroke:#000000; stroke-linecap:round; stroke-linejoin:round; stroke-width:4; stroke-opacity:1; fill:none" points="112.177,1423.18 112.177,47.2441 "/>
<polyline clip-path="url(#clip700)" style="stroke:#000000; stroke-linecap:round; stroke-linejoin:round; stroke-width:4; stroke-opacity:1; fill:none" points="112.177,1384.24 131.075,1384.24 "/>
<polyline clip-path="url(#clip700)" style="stroke:#000000; stroke-linecap:round; stroke-linejoin:round; stroke-width:4; stroke-opacity:1; fill:none" points="112.177,1101.74 131.075,1101.74 "/>
<polyline clip-path="url(#clip700)" style="stroke:#000000; stroke-linecap:round; stroke-linejoin:round; stroke-width:4; stroke-opacity:1; fill:none" points="112.177,819.247 131.075,819.247 "/>
<polyline clip-path="url(#clip700)" style="stroke:#000000; stroke-linecap:round; stroke-linejoin:round; stroke-width:4; stroke-opacity:1; fill:none" points="112.177,536.752 131.075,536.752 "/>
<polyline clip-path="url(#clip700)" style="stroke:#000000; stroke-linecap:round; stroke-linejoin:round; stroke-width:4; stroke-opacity:1; fill:none" points="112.177,254.256 131.075,254.256 "/>
<path clip-path="url(#clip700)" d="M64.2328 1370.04 Q60.6217 1370.04 58.793 1373.6 Q56.9875 1377.14 56.9875 1384.27 Q56.9875 1391.38 58.793 1394.94 Q60.6217 1398.49 64.2328 1398.49 Q67.867 1398.49 69.6726 1394.94 Q71.5013 1391.38 71.5013 1384.27 Q71.5013 1377.14 69.6726 1373.6 Q67.867 1370.04 64.2328 1370.04 M64.2328 1366.33 Q70.0429 1366.33 73.0985 1370.94 Q76.1772 1375.52 76.1772 1384.27 Q76.1772 1393 73.0985 1397.61 Q70.0429 1402.19 64.2328 1402.19 Q58.4226 1402.19 55.344 1397.61 Q52.2884 1393 52.2884 1384.27 Q52.2884 1375.52 55.344 1370.94 Q58.4226 1366.33 64.2328 1366.33 Z" fill="#000000" fill-rule="nonzero" fill-opacity="1" /><path clip-path="url(#clip700)" d="M59.8578 1115.09 L76.1772 1115.09 L76.1772 1119.02 L54.2328 1119.02 L54.2328 1115.09 Q56.8949 1112.33 61.4782 1107.7 Q66.0846 1103.05 67.2652 1101.71 Q69.5105 1099.18 70.3902 1097.45 Q71.2929 1095.69 71.2929 1094 Q71.2929 1091.25 69.3485 1089.51 Q67.4272 1087.77 64.3254 1087.77 Q62.1263 1087.77 59.6726 1088.54 Q57.2421 1089.3 54.4643 1090.85 L54.4643 1086.13 Q57.2884 1085 59.7421 1084.42 Q62.1958 1083.84 64.2328 1083.84 Q69.6031 1083.84 72.7976 1086.52 Q75.992 1089.21 75.992 1093.7 Q75.992 1095.83 75.1818 1097.75 Q74.3948 1099.65 72.2883 1102.24 Q71.7096 1102.91 68.6078 1106.13 Q65.5059 1109.32 59.8578 1115.09 Z" fill="#000000" fill-rule="nonzero" fill-opacity="1" /><path clip-path="url(#clip700)" d="M66.5939 806.041 L54.7884 824.49 L66.5939 824.49 L66.5939 806.041 M65.367 801.967 L71.2466 801.967 L71.2466 824.49 L76.1772 824.49 L76.1772 828.379 L71.2466 828.379 L71.2466 836.527 L66.5939 836.527 L66.5939 828.379 L50.9921 828.379 L50.9921 823.865 L65.367 801.967 Z" fill="#000000" fill-rule="nonzero" fill-opacity="1" /><path clip-path="url(#clip700)" d="M64.6495 534.888 Q61.5013 534.888 59.6495 537.041 Q57.8208 539.194 57.8208 542.944 Q57.8208 546.671 59.6495 548.847 Q61.5013 550.999 64.6495 550.999 Q67.7976 550.999 69.6263 548.847 Q71.4781 546.671 71.4781 542.944 Q71.4781 539.194 69.6263 537.041 Q67.7976 534.888 64.6495 534.888 M73.9318 520.236 L73.9318 524.495 Q72.1726 523.662 70.367 523.222 Q68.5846 522.782 66.8254 522.782 Q62.1958 522.782 59.7421 525.907 Q57.3115 529.032 56.9643 535.351 Q58.33 533.338 60.3902 532.273 Q62.4504 531.185 64.9272 531.185 Q70.1355 531.185 73.1448 534.356 Q76.1772 537.504 76.1772 542.944 Q76.1772 548.268 73.029 551.486 Q69.8809 554.703 64.6495 554.703 Q58.6541 554.703 55.4828 550.12 Q52.3116 545.513 52.3116 536.787 Q52.3116 528.592 56.2004 523.731 Q60.0893 518.847 66.6402 518.847 Q68.3994 518.847 70.1818 519.194 Q71.9874 519.541 73.9318 520.236 Z" fill="#000000" fill-rule="nonzero" fill-opacity="1" /><path clip-path="url(#clip700)" d="M64.3254 255.124 Q60.9921 255.124 59.0708 256.907 Q57.1726 258.689 57.1726 261.814 Q57.1726 264.939 59.0708 266.722 Q60.9921 268.504 64.3254 268.504 Q67.6587 268.504 69.58 266.722 Q71.5013 264.916 71.5013 261.814 Q71.5013 258.689 69.58 256.907 Q67.6819 255.124 64.3254 255.124 M59.6495 253.134 Q56.6402 252.393 54.9504 250.333 Q53.2838 248.273 53.2838 245.31 Q53.2838 241.166 56.2236 238.759 Q59.1865 236.351 64.3254 236.351 Q69.4874 236.351 72.4272 238.759 Q75.367 241.166 75.367 245.31 Q75.367 248.273 73.6772 250.333 Q72.0105 252.393 69.0244 253.134 Q72.404 253.921 74.279 256.212 Q76.1772 258.504 76.1772 261.814 Q76.1772 266.837 73.0985 269.523 Q70.0429 272.208 64.3254 272.208 Q58.6078 272.208 55.5291 269.523 Q52.4736 266.837 52.4736 261.814 Q52.4736 258.504 54.3717 256.212 Q56.2699 253.921 59.6495 253.134 M57.9365 245.75 Q57.9365 248.435 59.6032 249.939 Q61.293 251.444 64.3254 251.444 Q67.3346 251.444 69.0244 249.939 Q70.7374 248.435 70.7374 245.75 Q70.7374 243.064 69.0244 241.56 Q67.3346 240.055 64.3254 240.055 Q61.293 240.055 59.6032 241.56 Q57.9365 243.064 57.9365 245.75 Z" fill="#000000" fill-rule="nonzero" fill-opacity="1" /><circle clip-path="url(#clip702)" cx="112.177" cy="1384.24" r="14.4" fill="#009af9" fill-rule="evenodd" fill-opacity="1" stroke="#000000" stroke-opacity="1" stroke-width="3.2"/>
<circle clip-path="url(#clip702)" cx="134.583" cy="1367.72" r="14.4" fill="#009af9" fill-rule="evenodd" fill-opacity="1" stroke="#000000" stroke-opacity="1" stroke-width="3.2"/>
<circle clip-path="url(#clip702)" cx="156.989" cy="1352.01" r="14.4" fill="#009af9" fill-rule="evenodd" fill-opacity="1" stroke="#000000" stroke-opacity="1" stroke-width="3.2"/>
<circle clip-path="url(#clip702)" cx="179.395" cy="1337" r="14.4" fill="#009af9" fill-rule="evenodd" fill-opacity="1" stroke="#000000" stroke-opacity="1" stroke-width="3.2"/>
<circle clip-path="url(#clip702)" cx="201.8" cy="1322.54" r="14.4" fill="#009af9" fill-rule="evenodd" fill-opacity="1" stroke="#000000" stroke-opacity="1" stroke-width="3.2"/>
<circle clip-path="url(#clip702)" cx="224.206" cy="1308.5" r="14.4" fill="#009af9" fill-rule="evenodd" fill-opacity="1" stroke="#000000" stroke-opacity="1" stroke-width="3.2"/>
<circle clip-path="url(#clip702)" cx="246.612" cy="1294.75" r="14.4" fill="#009af9" fill-rule="evenodd" fill-opacity="1" stroke="#000000" stroke-opacity="1" stroke-width="3.2"/>
<circle clip-path="url(#clip702)" cx="269.018" cy="1281.16" r="14.4" fill="#009af9" fill-rule="evenodd" fill-opacity="1" stroke="#000000" stroke-opacity="1" stroke-width="3.2"/>
<circle clip-path="url(#clip702)" cx="291.423" cy="1267.63" r="14.4" fill="#009af9" fill-rule="evenodd" fill-opacity="1" stroke="#000000" stroke-opacity="1" stroke-width="3.2"/>
<circle clip-path="url(#clip702)" cx="313.829" cy="1254.06" r="14.4" fill="#009af9" fill-rule="evenodd" fill-opacity="1" stroke="#000000" stroke-opacity="1" stroke-width="3.2"/>
<circle clip-path="url(#clip702)" cx="336.235" cy="1240.37" r="14.4" fill="#009af9" fill-rule="evenodd" fill-opacity="1" stroke="#000000" stroke-opacity="1" stroke-width="3.2"/>
<circle clip-path="url(#clip702)" cx="358.641" cy="1226.52" r="14.4" fill="#009af9" fill-rule="evenodd" fill-opacity="1" stroke="#000000" stroke-opacity="1" stroke-width="3.2"/>
<circle clip-path="url(#clip702)" cx="381.047" cy="1212.47" r="14.4" fill="#009af9" fill-rule="evenodd" fill-opacity="1" stroke="#000000" stroke-opacity="1" stroke-width="3.2"/>
<circle clip-path="url(#clip702)" cx="403.452" cy="1198.21" r="14.4" fill="#009af9" fill-rule="evenodd" fill-opacity="1" stroke="#000000" stroke-opacity="1" stroke-width="3.2"/>
<circle clip-path="url(#clip702)" cx="425.858" cy="1183.74" r="14.4" fill="#009af9" fill-rule="evenodd" fill-opacity="1" stroke="#000000" stroke-opacity="1" stroke-width="3.2"/>
<circle clip-path="url(#clip702)" cx="448.264" cy="1169.07" r="14.4" fill="#009af9" fill-rule="evenodd" fill-opacity="1" stroke="#000000" stroke-opacity="1" stroke-width="3.2"/>
<circle clip-path="url(#clip702)" cx="470.67" cy="1154.24" r="14.4" fill="#009af9" fill-rule="evenodd" fill-opacity="1" stroke="#000000" stroke-opacity="1" stroke-width="3.2"/>
<circle clip-path="url(#clip702)" cx="493.076" cy="1139.29" r="14.4" fill="#009af9" fill-rule="evenodd" fill-opacity="1" stroke="#000000" stroke-opacity="1" stroke-width="3.2"/>
<circle clip-path="url(#clip702)" cx="515.481" cy="1124.25" r="14.4" fill="#009af9" fill-rule="evenodd" fill-opacity="1" stroke="#000000" stroke-opacity="1" stroke-width="3.2"/>
<circle clip-path="url(#clip702)" cx="537.887" cy="1109.15" r="14.4" fill="#009af9" fill-rule="evenodd" fill-opacity="1" stroke="#000000" stroke-opacity="1" stroke-width="3.2"/>
<circle clip-path="url(#clip702)" cx="560.293" cy="1094.02" r="14.4" fill="#009af9" fill-rule="evenodd" fill-opacity="1" stroke="#000000" stroke-opacity="1" stroke-width="3.2"/>
<circle clip-path="url(#clip702)" cx="582.699" cy="1078.93" r="14.4" fill="#009af9" fill-rule="evenodd" fill-opacity="1" stroke="#000000" stroke-opacity="1" stroke-width="3.2"/>
<circle clip-path="url(#clip702)" cx="605.104" cy="1063.85" r="14.4" fill="#009af9" fill-rule="evenodd" fill-opacity="1" stroke="#000000" stroke-opacity="1" stroke-width="3.2"/>
<circle clip-path="url(#clip702)" cx="627.51" cy="1048.81" r="14.4" fill="#009af9" fill-rule="evenodd" fill-opacity="1" stroke="#000000" stroke-opacity="1" stroke-width="3.2"/>
<circle clip-path="url(#clip702)" cx="649.916" cy="1033.8" r="14.4" fill="#009af9" fill-rule="evenodd" fill-opacity="1" stroke="#000000" stroke-opacity="1" stroke-width="3.2"/>
<circle clip-path="url(#clip702)" cx="672.322" cy="1018.88" r="14.4" fill="#009af9" fill-rule="evenodd" fill-opacity="1" stroke="#000000" stroke-opacity="1" stroke-width="3.2"/>
<circle clip-path="url(#clip702)" cx="694.728" cy="1004.04" r="14.4" fill="#009af9" fill-rule="evenodd" fill-opacity="1" stroke="#000000" stroke-opacity="1" stroke-width="3.2"/>
<circle clip-path="url(#clip702)" cx="717.133" cy="989.263" r="14.4" fill="#009af9" fill-rule="evenodd" fill-opacity="1" stroke="#000000" stroke-opacity="1" stroke-width="3.2"/>
<circle clip-path="url(#clip702)" cx="739.539" cy="974.561" r="14.4" fill="#009af9" fill-rule="evenodd" fill-opacity="1" stroke="#000000" stroke-opacity="1" stroke-width="3.2"/>
<circle clip-path="url(#clip702)" cx="761.945" cy="959.941" r="14.4" fill="#009af9" fill-rule="evenodd" fill-opacity="1" stroke="#000000" stroke-opacity="1" stroke-width="3.2"/>
<circle clip-path="url(#clip702)" cx="784.351" cy="945.398" r="14.4" fill="#009af9" fill-rule="evenodd" fill-opacity="1" stroke="#000000" stroke-opacity="1" stroke-width="3.2"/>
<circle clip-path="url(#clip702)" cx="806.757" cy="930.933" r="14.4" fill="#009af9" fill-rule="evenodd" fill-opacity="1" stroke="#000000" stroke-opacity="1" stroke-width="3.2"/>
<circle clip-path="url(#clip702)" cx="829.162" cy="916.544" r="14.4" fill="#009af9" fill-rule="evenodd" fill-opacity="1" stroke="#000000" stroke-opacity="1" stroke-width="3.2"/>
<circle clip-path="url(#clip702)" cx="851.568" cy="902.228" r="14.4" fill="#009af9" fill-rule="evenodd" fill-opacity="1" stroke="#000000" stroke-opacity="1" stroke-width="3.2"/>
<circle clip-path="url(#clip702)" cx="873.974" cy="887.991" r="14.4" fill="#009af9" fill-rule="evenodd" fill-opacity="1" stroke="#000000" stroke-opacity="1" stroke-width="3.2"/>
<circle clip-path="url(#clip702)" cx="896.38" cy="873.83" r="14.4" fill="#009af9" fill-rule="evenodd" fill-opacity="1" stroke="#000000" stroke-opacity="1" stroke-width="3.2"/>
<circle clip-path="url(#clip702)" cx="918.786" cy="859.744" r="14.4" fill="#009af9" fill-rule="evenodd" fill-opacity="1" stroke="#000000" stroke-opacity="1" stroke-width="3.2"/>
<circle clip-path="url(#clip702)" cx="941.191" cy="845.732" r="14.4" fill="#009af9" fill-rule="evenodd" fill-opacity="1" stroke="#000000" stroke-opacity="1" stroke-width="3.2"/>
<circle clip-path="url(#clip702)" cx="963.597" cy="831.794" r="14.4" fill="#009af9" fill-rule="evenodd" fill-opacity="1" stroke="#000000" stroke-opacity="1" stroke-width="3.2"/>
<circle clip-path="url(#clip702)" cx="986.003" cy="817.928" r="14.4" fill="#009af9" fill-rule="evenodd" fill-opacity="1" stroke="#000000" stroke-opacity="1" stroke-width="3.2"/>
<circle clip-path="url(#clip702)" cx="1008.41" cy="804.135" r="14.4" fill="#009af9" fill-rule="evenodd" fill-opacity="1" stroke="#000000" stroke-opacity="1" stroke-width="3.2"/>
<circle clip-path="url(#clip702)" cx="1030.81" cy="790.413" r="14.4" fill="#009af9" fill-rule="evenodd" fill-opacity="1" stroke="#000000" stroke-opacity="1" stroke-width="3.2"/>
<circle clip-path="url(#clip702)" cx="1053.22" cy="776.762" r="14.4" fill="#009af9" fill-rule="evenodd" fill-opacity="1" stroke="#000000" stroke-opacity="1" stroke-width="3.2"/>
<circle clip-path="url(#clip702)" cx="1075.63" cy="763.181" r="14.4" fill="#009af9" fill-rule="evenodd" fill-opacity="1" stroke="#000000" stroke-opacity="1" stroke-width="3.2"/>
<circle clip-path="url(#clip702)" cx="1098.03" cy="749.671" r="14.4" fill="#009af9" fill-rule="evenodd" fill-opacity="1" stroke="#000000" stroke-opacity="1" stroke-width="3.2"/>
<circle clip-path="url(#clip702)" cx="1120.44" cy="736.229" r="14.4" fill="#009af9" fill-rule="evenodd" fill-opacity="1" stroke="#000000" stroke-opacity="1" stroke-width="3.2"/>
<circle clip-path="url(#clip702)" cx="1142.84" cy="722.856" r="14.4" fill="#009af9" fill-rule="evenodd" fill-opacity="1" stroke="#000000" stroke-opacity="1" stroke-width="3.2"/>
<circle clip-path="url(#clip702)" cx="1165.25" cy="709.55" r="14.4" fill="#009af9" fill-rule="evenodd" fill-opacity="1" stroke="#000000" stroke-opacity="1" stroke-width="3.2"/>
<circle clip-path="url(#clip702)" cx="1187.65" cy="696.312" r="14.4" fill="#009af9" fill-rule="evenodd" fill-opacity="1" stroke="#000000" stroke-opacity="1" stroke-width="3.2"/>
<circle clip-path="url(#clip702)" cx="1210.06" cy="683.14" r="14.4" fill="#009af9" fill-rule="evenodd" fill-opacity="1" stroke="#000000" stroke-opacity="1" stroke-width="3.2"/>
<circle clip-path="url(#clip702)" cx="1232.47" cy="670.034" r="14.4" fill="#009af9" fill-rule="evenodd" fill-opacity="1" stroke="#000000" stroke-opacity="1" stroke-width="3.2"/>
<circle clip-path="url(#clip702)" cx="1254.87" cy="656.993" r="14.4" fill="#009af9" fill-rule="evenodd" fill-opacity="1" stroke="#000000" stroke-opacity="1" stroke-width="3.2"/>
<circle clip-path="url(#clip702)" cx="1277.28" cy="644.017" r="14.4" fill="#009af9" fill-rule="evenodd" fill-opacity="1" stroke="#000000" stroke-opacity="1" stroke-width="3.2"/>
<circle clip-path="url(#clip702)" cx="1299.68" cy="631.104" r="14.4" fill="#009af9" fill-rule="evenodd" fill-opacity="1" stroke="#000000" stroke-opacity="1" stroke-width="3.2"/>
<circle clip-path="url(#clip702)" cx="1322.09" cy="618.256" r="14.4" fill="#009af9" fill-rule="evenodd" fill-opacity="1" stroke="#000000" stroke-opacity="1" stroke-width="3.2"/>
<circle clip-path="url(#clip702)" cx="1344.5" cy="605.47" r="14.4" fill="#009af9" fill-rule="evenodd" fill-opacity="1" stroke="#000000" stroke-opacity="1" stroke-width="3.2"/>
<circle clip-path="url(#clip702)" cx="1366.9" cy="592.746" r="14.4" fill="#009af9" fill-rule="evenodd" fill-opacity="1" stroke="#000000" stroke-opacity="1" stroke-width="3.2"/>
<circle clip-path="url(#clip702)" cx="1389.31" cy="580.084" r="14.4" fill="#009af9" fill-rule="evenodd" fill-opacity="1" stroke="#000000" stroke-opacity="1" stroke-width="3.2"/>
<circle clip-path="url(#clip702)" cx="1411.71" cy="567.483" r="14.4" fill="#009af9" fill-rule="evenodd" fill-opacity="1" stroke="#000000" stroke-opacity="1" stroke-width="3.2"/>
<circle clip-path="url(#clip702)" cx="1434.12" cy="554.942" r="14.4" fill="#009af9" fill-rule="evenodd" fill-opacity="1" stroke="#000000" stroke-opacity="1" stroke-width="3.2"/>
<circle clip-path="url(#clip702)" cx="1456.52" cy="542.461" r="14.4" fill="#009af9" fill-rule="evenodd" fill-opacity="1" stroke="#000000" stroke-opacity="1" stroke-width="3.2"/>
<circle clip-path="url(#clip702)" cx="1478.93" cy="530.039" r="14.4" fill="#009af9" fill-rule="evenodd" fill-opacity="1" stroke="#000000" stroke-opacity="1" stroke-width="3.2"/>
<circle clip-path="url(#clip702)" cx="1501.34" cy="517.676" r="14.4" fill="#009af9" fill-rule="evenodd" fill-opacity="1" stroke="#000000" stroke-opacity="1" stroke-width="3.2"/>
<circle clip-path="url(#clip702)" cx="1523.74" cy="505.371" r="14.4" fill="#009af9" fill-rule="evenodd" fill-opacity="1" stroke="#000000" stroke-opacity="1" stroke-width="3.2"/>
<circle clip-path="url(#clip702)" cx="1546.15" cy="493.124" r="14.4" fill="#009af9" fill-rule="evenodd" fill-opacity="1" stroke="#000000" stroke-opacity="1" stroke-width="3.2"/>
<circle clip-path="url(#clip702)" cx="1568.55" cy="480.934" r="14.4" fill="#009af9" fill-rule="evenodd" fill-opacity="1" stroke="#000000" stroke-opacity="1" stroke-width="3.2"/>
<circle clip-path="url(#clip702)" cx="1590.96" cy="468.8" r="14.4" fill="#009af9" fill-rule="evenodd" fill-opacity="1" stroke="#000000" stroke-opacity="1" stroke-width="3.2"/>
<circle clip-path="url(#clip702)" cx="1613.36" cy="456.723" r="14.4" fill="#009af9" fill-rule="evenodd" fill-opacity="1" stroke="#000000" stroke-opacity="1" stroke-width="3.2"/>
<circle clip-path="url(#clip702)" cx="1635.77" cy="444.7" r="14.4" fill="#009af9" fill-rule="evenodd" fill-opacity="1" stroke="#000000" stroke-opacity="1" stroke-width="3.2"/>
<circle clip-path="url(#clip702)" cx="1658.18" cy="432.733" r="14.4" fill="#009af9" fill-rule="evenodd" fill-opacity="1" stroke="#000000" stroke-opacity="1" stroke-width="3.2"/>
<circle clip-path="url(#clip702)" cx="1680.58" cy="420.819" r="14.4" fill="#009af9" fill-rule="evenodd" fill-opacity="1" stroke="#000000" stroke-opacity="1" stroke-width="3.2"/>
<circle clip-path="url(#clip702)" cx="1702.99" cy="408.96" r="14.4" fill="#009af9" fill-rule="evenodd" fill-opacity="1" stroke="#000000" stroke-opacity="1" stroke-width="3.2"/>
<circle clip-path="url(#clip702)" cx="1725.39" cy="397.153" r="14.4" fill="#009af9" fill-rule="evenodd" fill-opacity="1" stroke="#000000" stroke-opacity="1" stroke-width="3.2"/>
<circle clip-path="url(#clip702)" cx="1747.8" cy="385.4" r="14.4" fill="#009af9" fill-rule="evenodd" fill-opacity="1" stroke="#000000" stroke-opacity="1" stroke-width="3.2"/>
<circle clip-path="url(#clip702)" cx="1770.21" cy="373.699" r="14.4" fill="#009af9" fill-rule="evenodd" fill-opacity="1" stroke="#000000" stroke-opacity="1" stroke-width="3.2"/>
<circle clip-path="url(#clip702)" cx="1792.61" cy="362.05" r="14.4" fill="#009af9" fill-rule="evenodd" fill-opacity="1" stroke="#000000" stroke-opacity="1" stroke-width="3.2"/>
<circle clip-path="url(#clip702)" cx="1815.02" cy="350.451" r="14.4" fill="#009af9" fill-rule="evenodd" fill-opacity="1" stroke="#000000" stroke-opacity="1" stroke-width="3.2"/>
<circle clip-path="url(#clip702)" cx="1837.42" cy="338.903" r="14.4" fill="#009af9" fill-rule="evenodd" fill-opacity="1" stroke="#000000" stroke-opacity="1" stroke-width="3.2"/>
<circle clip-path="url(#clip702)" cx="1859.83" cy="327.404" r="14.4" fill="#009af9" fill-rule="evenodd" fill-opacity="1" stroke="#000000" stroke-opacity="1" stroke-width="3.2"/>
<circle clip-path="url(#clip702)" cx="1882.23" cy="315.955" r="14.4" fill="#009af9" fill-rule="evenodd" fill-opacity="1" stroke="#000000" stroke-opacity="1" stroke-width="3.2"/>
<circle clip-path="url(#clip702)" cx="1904.64" cy="304.555" r="14.4" fill="#009af9" fill-rule="evenodd" fill-opacity="1" stroke="#000000" stroke-opacity="1" stroke-width="3.2"/>
<circle clip-path="url(#clip702)" cx="1927.05" cy="293.204" r="14.4" fill="#009af9" fill-rule="evenodd" fill-opacity="1" stroke="#000000" stroke-opacity="1" stroke-width="3.2"/>
<circle clip-path="url(#clip702)" cx="1949.45" cy="281.901" r="14.4" fill="#009af9" fill-rule="evenodd" fill-opacity="1" stroke="#000000" stroke-opacity="1" stroke-width="3.2"/>
<circle clip-path="url(#clip702)" cx="1971.86" cy="270.645" r="14.4" fill="#009af9" fill-rule="evenodd" fill-opacity="1" stroke="#000000" stroke-opacity="1" stroke-width="3.2"/>
<circle clip-path="url(#clip702)" cx="1994.26" cy="259.437" r="14.4" fill="#009af9" fill-rule="evenodd" fill-opacity="1" stroke="#000000" stroke-opacity="1" stroke-width="3.2"/>
<circle clip-path="url(#clip702)" cx="2016.67" cy="248.276" r="14.4" fill="#009af9" fill-rule="evenodd" fill-opacity="1" stroke="#000000" stroke-opacity="1" stroke-width="3.2"/>
<circle clip-path="url(#clip702)" cx="2039.07" cy="237.161" r="14.4" fill="#009af9" fill-rule="evenodd" fill-opacity="1" stroke="#000000" stroke-opacity="1" stroke-width="3.2"/>
<circle clip-path="url(#clip702)" cx="2061.48" cy="226.092" r="14.4" fill="#009af9" fill-rule="evenodd" fill-opacity="1" stroke="#000000" stroke-opacity="1" stroke-width="3.2"/>
<circle clip-path="url(#clip702)" cx="2083.89" cy="215.069" r="14.4" fill="#009af9" fill-rule="evenodd" fill-opacity="1" stroke="#000000" stroke-opacity="1" stroke-width="3.2"/>
<circle clip-path="url(#clip702)" cx="2106.29" cy="204.091" r="14.4" fill="#009af9" fill-rule="evenodd" fill-opacity="1" stroke="#000000" stroke-opacity="1" stroke-width="3.2"/>
<circle clip-path="url(#clip702)" cx="2128.7" cy="193.157" r="14.4" fill="#009af9" fill-rule="evenodd" fill-opacity="1" stroke="#000000" stroke-opacity="1" stroke-width="3.2"/>
<circle clip-path="url(#clip702)" cx="2151.1" cy="182.268" r="14.4" fill="#009af9" fill-rule="evenodd" fill-opacity="1" stroke="#000000" stroke-opacity="1" stroke-width="3.2"/>
<circle clip-path="url(#clip702)" cx="2173.51" cy="171.423" r="14.4" fill="#009af9" fill-rule="evenodd" fill-opacity="1" stroke="#000000" stroke-opacity="1" stroke-width="3.2"/>
<circle clip-path="url(#clip702)" cx="2195.92" cy="160.621" r="14.4" fill="#009af9" fill-rule="evenodd" fill-opacity="1" stroke="#000000" stroke-opacity="1" stroke-width="3.2"/>
<circle clip-path="url(#clip702)" cx="2218.32" cy="149.862" r="14.4" fill="#009af9" fill-rule="evenodd" fill-opacity="1" stroke="#000000" stroke-opacity="1" stroke-width="3.2"/>
<circle clip-path="url(#clip702)" cx="2240.73" cy="139.145" r="14.4" fill="#009af9" fill-rule="evenodd" fill-opacity="1" stroke="#000000" stroke-opacity="1" stroke-width="3.2"/>
<circle clip-path="url(#clip702)" cx="2263.13" cy="128.471" r="14.4" fill="#009af9" fill-rule="evenodd" fill-opacity="1" stroke="#000000" stroke-opacity="1" stroke-width="3.2"/>
<circle clip-path="url(#clip702)" cx="2285.54" cy="117.838" r="14.4" fill="#009af9" fill-rule="evenodd" fill-opacity="1" stroke="#000000" stroke-opacity="1" stroke-width="3.2"/>
<circle clip-path="url(#clip702)" cx="2307.94" cy="107.247" r="14.4" fill="#009af9" fill-rule="evenodd" fill-opacity="1" stroke="#000000" stroke-opacity="1" stroke-width="3.2"/>
<circle clip-path="url(#clip702)" cx="2330.35" cy="96.696" r="14.4" fill="#009af9" fill-rule="evenodd" fill-opacity="1" stroke="#000000" stroke-opacity="1" stroke-width="3.2"/>
<circle clip-path="url(#clip702)" cx="2352.76" cy="86.1857" r="14.4" fill="#009af9" fill-rule="evenodd" fill-opacity="1" stroke="#000000" stroke-opacity="1" stroke-width="3.2"/>
<path clip-path="url(#clip700)" d="M186.863 196.789 L593.374 196.789 L593.374 93.1086 L186.863 93.1086  Z" fill="#ffffff" fill-rule="evenodd" fill-opacity="1"/>
<polyline clip-path="url(#clip700)" style="stroke:#000000; stroke-linecap:round; stroke-linejoin:round; stroke-width:4; stroke-opacity:1; fill:none" points="186.863,196.789 593.374,196.789 593.374,93.1086 186.863,93.1086 186.863,196.789 "/>
<circle clip-path="url(#clip700)" cx="286.444" cy="144.949" r="20.48" fill="#009af9" fill-rule="evenodd" fill-opacity="1" stroke="#000000" stroke-opacity="1" stroke-width="4.55111"/>
<path clip-path="url(#clip700)" d="M386.026 136.303 L390.54 136.303 L398.641 158.062 L406.743 136.303 L411.257 136.303 L401.535 162.229 L395.748 162.229 L386.026 136.303 Z" fill="#000000" fill-rule="nonzero" fill-opacity="1" /><path clip-path="url(#clip700)" d="M439.312 148.201 L439.312 150.284 L419.729 150.284 Q420.007 154.682 422.368 156.997 Q424.752 159.289 428.988 159.289 Q431.442 159.289 433.734 158.687 Q436.049 158.085 438.317 156.881 L438.317 160.909 Q436.025 161.881 433.618 162.391 Q431.211 162.9 428.734 162.9 Q422.53 162.9 418.896 159.289 Q415.285 155.678 415.285 149.52 Q415.285 143.155 418.711 139.428 Q422.16 135.678 427.993 135.678 Q433.225 135.678 436.257 139.057 Q439.312 142.414 439.312 148.201 M435.053 146.951 Q435.007 143.456 433.086 141.372 Q431.187 139.289 428.039 139.289 Q424.475 139.289 422.322 141.303 Q420.192 143.317 419.868 146.974 L435.053 146.951 Z" fill="#000000" fill-rule="nonzero" fill-opacity="1" /><path clip-path="url(#clip700)" d="M446.303 126.21 L450.562 126.21 L450.562 162.229 L446.303 162.229 L446.303 126.21 Z" fill="#000000" fill-rule="nonzero" fill-opacity="1" /><path clip-path="url(#clip700)" d="M469.521 139.289 Q466.095 139.289 464.104 141.974 Q462.113 144.636 462.113 149.289 Q462.113 153.942 464.081 156.627 Q466.072 159.289 469.521 159.289 Q472.923 159.289 474.914 156.604 Q476.905 153.918 476.905 149.289 Q476.905 144.682 474.914 141.997 Q472.923 139.289 469.521 139.289 M469.521 135.678 Q475.076 135.678 478.247 139.289 Q481.419 142.9 481.419 149.289 Q481.419 155.655 478.247 159.289 Q475.076 162.9 469.521 162.9 Q463.942 162.9 460.771 159.289 Q457.623 155.655 457.623 149.289 Q457.623 142.9 460.771 139.289 Q463.942 135.678 469.521 135.678 Z" fill="#000000" fill-rule="nonzero" fill-opacity="1" /><path clip-path="url(#clip700)" d="M507.136 137.298 L507.136 141.28 Q505.331 140.284 503.502 139.798 Q501.696 139.289 499.845 139.289 Q495.701 139.289 493.409 141.928 Q491.118 144.544 491.118 149.289 Q491.118 154.034 493.409 156.673 Q495.701 159.289 499.845 159.289 Q501.696 159.289 503.502 158.803 Q505.331 158.293 507.136 157.298 L507.136 161.233 Q505.354 162.067 503.432 162.483 Q501.534 162.9 499.382 162.9 Q493.525 162.9 490.076 159.219 Q486.627 155.539 486.627 149.289 Q486.627 142.946 490.099 139.312 Q493.595 135.678 499.659 135.678 Q501.627 135.678 503.502 136.095 Q505.377 136.488 507.136 137.298 Z" fill="#000000" fill-rule="nonzero" fill-opacity="1" /><path clip-path="url(#clip700)" d="M514.544 136.303 L518.803 136.303 L518.803 162.229 L514.544 162.229 L514.544 136.303 M514.544 126.21 L518.803 126.21 L518.803 131.604 L514.544 131.604 L514.544 126.21 Z" fill="#000000" fill-rule="nonzero" fill-opacity="1" /><path clip-path="url(#clip700)" d="M531.928 128.942 L531.928 136.303 L540.701 136.303 L540.701 139.613 L531.928 139.613 L531.928 153.687 Q531.928 156.858 532.784 157.761 Q533.664 158.664 536.326 158.664 L540.701 158.664 L540.701 162.229 L536.326 162.229 Q531.395 162.229 529.52 160.4 Q527.645 158.548 527.645 153.687 L527.645 139.613 L524.52 139.613 L524.52 136.303 L527.645 136.303 L527.645 128.942 L531.928 128.942 Z" fill="#000000" fill-rule="nonzero" fill-opacity="1" /><path clip-path="url(#clip700)" d="M557.09 164.636 Q555.284 169.266 553.571 170.678 Q551.858 172.09 548.988 172.09 L545.585 172.09 L545.585 168.525 L548.085 168.525 Q549.844 168.525 550.816 167.692 Q551.789 166.858 552.969 163.756 L553.733 161.812 L543.247 136.303 L547.761 136.303 L555.863 156.581 L563.965 136.303 L568.478 136.303 L557.09 164.636 Z" fill="#000000" fill-rule="nonzero" fill-opacity="1" /></svg>
