<?xml version="1.0" encoding="utf-8"?>
<svg xmlns="http://www.w3.org/2000/svg" xmlns:xlink="http://www.w3.org/1999/xlink" width="600" height="400" viewBox="0 0 2400 1600">
<defs>
  <clipPath id="clip760">
    <rect x="0" y="0" width="2400" height="1600"/>
  </clipPath>
</defs>
<path clip-path="url(#clip760)" d="M0 1600 L2400 1600 L2400 0 L0 0  Z" fill="#ffffff" fill-rule="evenodd" fill-opacity="1"/>
<defs>
  <clipPath id="clip761">
    <rect x="480" y="0" width="1681" height="1600"/>
  </clipPath>
</defs>
<path clip-path="url(#clip760)" d="M141.853 1486.45 L2352.76 1486.45 L2352.76 47.2441 L141.853 47.2441  Z" fill="#ffffff" fill-rule="evenodd" fill-opacity="1"/>
<defs>
  <clipPath id="clip762">
    <rect x="141" y="47" width="2212" height="1440"/>
  </clipPath>
</defs>
<polyline clip-path="url(#clip762)" style="stroke:#000000; stroke-linecap:round; stroke-linejoin:round; stroke-width:2; stroke-opacity:0.1; fill:none" points="204.426,1486.45 204.426,47.2441 "/>
<polyline clip-path="url(#clip762)" style="stroke:#000000; stroke-linecap:round; stroke-linejoin:round; stroke-width:2; stroke-opacity:0.1; fill:none" points="725.865,1486.45 725.865,47.2441 "/>
<polyline clip-path="url(#clip762)" style="stroke:#000000; stroke-linecap:round; stroke-linejoin:round; stroke-width:2; stroke-opacity:0.1; fill:none" points="1247.3,1486.45 1247.3,47.2441 "/>
<polyline clip-path="url(#clip762)" style="stroke:#000000; stroke-linecap:round; stroke-linejoin:round; stroke-width:2; stroke-opacity:0.1; fill:none" points="1768.74,1486.45 1768.74,47.2441 "/>
<polyline clip-path="url(#clip762)" style="stroke:#000000; stroke-linecap:round; stroke-linejoin:round; stroke-width:2; stroke-opacity:0.1; fill:none" points="2290.18,1486.45 2290.18,47.2441 "/>
<polyline clip-path="url(#clip760)" style="stroke:#000000; stroke-linecap:round; stroke-linejoin:round; stroke-width:4; stroke-opacity:1; fill:none" points="141.853,1486.45 2352.76,1486.45 "/>
<polyline clip-path="url(#clip760)" style="stroke:#000000; stroke-linecap:round; stroke-linejoin:round; stroke-width:4; stroke-opacity:1; fill:none" points="204.426,1486.45 204.426,1467.55 "/>
<polyline clip-path="url(#clip760)" style="stroke:#000000; stroke-linecap:round; stroke-linejoin:round; stroke-width:4; stroke-opacity:1; fill:none" points="725.865,1486.45 725.865,1467.55 "/>
<polyline clip-path="url(#clip760)" style="stroke:#000000; stroke-linecap:round; stroke-linejoin:round; stroke-width:4; stroke-opacity:1; fill:none" points="1247.3,1486.45 1247.3,1467.55 "/>
<polyline clip-path="url(#clip760)" style="stroke:#000000; stroke-linecap:round; stroke-linejoin:round; stroke-width:4; stroke-opacity:1; fill:none" points="1768.74,1486.45 1768.74,1467.55 "/>
<polyline clip-path="url(#clip760)" style="stroke:#000000; stroke-linecap:round; stroke-linejoin:round; stroke-width:4; stroke-opacity:1; fill:none" points="2290.18,1486.45 2290.18,1467.55 "/>
<path clip-path="url(#clip760)" d="M151.648 1517.37 Q148.037 1517.37 146.208 1520.93 Q144.403 1524.47 144.403 1531.6 Q144.403 1538.71 146.208 1542.27 Q148.037 1545.82 151.648 1545.82 Q155.282 1545.82 157.088 1542.27 Q158.917 1538.71 158.917 1531.6 Q158.917 1524.47 157.088 1520.93 Q155.282 1517.37 151.648 1517.37 M151.648 1513.66 Q157.458 1513.66 160.514 1518.27 Q163.593 1522.85 163.593 1531.6 Q163.593 1540.33 160.514 1544.94 Q157.458 1549.52 151.648 1549.52 Q145.838 1549.52 142.759 1544.94 Q139.704 1540.33 139.704 1531.6 Q139.704 1522.85 142.759 1518.27 Q145.838 1513.66 151.648 1513.66 Z" fill="#000000" fill-rule="nonzero" fill-opacity="1" /><path clip-path="url(#clip760)" d="M171.81 1542.97 L176.694 1542.97 L176.694 1548.85 L171.81 1548.85 L171.81 1542.97 Z" fill="#000000" fill-rule="nonzero" fill-opacity="1" /><path clip-path="url(#clip760)" d="M196.879 1517.37 Q193.268 1517.37 191.44 1520.93 Q189.634 1524.47 189.634 1531.6 Q189.634 1538.71 191.44 1542.27 Q193.268 1545.82 196.879 1545.82 Q200.514 1545.82 202.319 1542.27 Q204.148 1538.71 204.148 1531.6 Q204.148 1524.47 202.319 1520.93 Q200.514 1517.37 196.879 1517.37 M196.879 1513.66 Q202.69 1513.66 205.745 1518.27 Q208.824 1522.85 208.824 1531.6 Q208.824 1540.33 205.745 1544.94 Q202.69 1549.52 196.879 1549.52 Q191.069 1549.52 187.991 1544.94 Q184.935 1540.33 184.935 1531.6 Q184.935 1522.85 187.991 1518.27 Q191.069 1513.66 196.879 1513.66 Z" fill="#000000" fill-rule="nonzero" fill-opacity="1" /><path clip-path="url(#clip760)" d="M227.041 1517.37 Q223.43 1517.37 221.602 1520.93 Q219.796 1524.47 219.796 1531.6 Q219.796 1538.71 221.602 1542.27 Q223.43 1545.82 227.041 1545.82 Q230.676 1545.82 232.481 1542.27 Q234.31 1538.71 234.31 1531.6 Q234.31 1524.47 232.481 1520.93 Q230.676 1517.37 227.041 1517.37 M227.041 1513.66 Q232.851 1513.66 235.907 1518.27 Q238.986 1522.85 238.986 1531.6 Q238.986 1540.33 235.907 1544.94 Q232.851 1549.52 227.041 1549.52 Q221.231 1549.52 218.152 1544.94 Q215.097 1540.33 215.097 1531.6 Q215.097 1522.85 218.152 1518.27 Q221.231 1513.66 227.041 1513.66 Z" fill="#000000" fill-rule="nonzero" fill-opacity="1" /><path clip-path="url(#clip760)" d="M257.203 1517.37 Q253.592 1517.37 251.763 1520.93 Q249.958 1524.47 249.958 1531.6 Q249.958 1538.71 251.763 1542.27 Q253.592 1545.82 257.203 1545.82 Q260.837 1545.82 262.643 1542.27 Q264.472 1538.71 264.472 1531.6 Q264.472 1524.47 262.643 1520.93 Q260.837 1517.37 257.203 1517.37 M257.203 1513.66 Q263.013 1513.66 266.069 1518.27 Q269.148 1522.85 269.148 1531.6 Q269.148 1540.33 266.069 1544.94 Q263.013 1549.52 257.203 1549.52 Q251.393 1549.52 248.314 1544.94 Q245.259 1540.33 245.259 1531.6 Q245.259 1522.85 248.314 1518.27 Q251.393 1513.66 257.203 1513.66 Z" fill="#000000" fill-rule="nonzero" fill-opacity="1" /><path clip-path="url(#clip760)" d="M673.585 1517.37 Q669.974 1517.37 668.145 1520.93 Q666.34 1524.47 666.34 1531.6 Q666.34 1538.71 668.145 1542.27 Q669.974 1545.82 673.585 1545.82 Q677.219 1545.82 679.025 1542.27 Q680.854 1538.71 680.854 1531.6 Q680.854 1524.47 679.025 1520.93 Q677.219 1517.37 673.585 1517.37 M673.585 1513.66 Q679.395 1513.66 682.451 1518.27 Q685.53 1522.85 685.53 1531.6 Q685.53 1540.33 682.451 1544.94 Q679.395 1549.52 673.585 1549.52 Q667.775 1549.52 664.696 1544.94 Q661.641 1540.33 661.641 1531.6 Q661.641 1522.85 664.696 1518.27 Q667.775 1513.66 673.585 1513.66 Z" fill="#000000" fill-rule="nonzero" fill-opacity="1" /><path clip-path="url(#clip760)" d="M693.747 1542.97 L698.631 1542.97 L698.631 1548.85 L693.747 1548.85 L693.747 1542.97 Z" fill="#000000" fill-rule="nonzero" fill-opacity="1" /><path clip-path="url(#clip760)" d="M718.816 1517.37 Q715.205 1517.37 713.377 1520.93 Q711.571 1524.47 711.571 1531.6 Q711.571 1538.71 713.377 1542.27 Q715.205 1545.82 718.816 1545.82 Q722.451 1545.82 724.256 1542.27 Q726.085 1538.71 726.085 1531.6 Q726.085 1524.47 724.256 1520.93 Q722.451 1517.37 718.816 1517.37 M718.816 1513.66 Q724.627 1513.66 727.682 1518.27 Q730.761 1522.85 730.761 1531.6 Q730.761 1540.33 727.682 1544.94 Q724.627 1549.52 718.816 1549.52 Q713.006 1549.52 709.928 1544.94 Q706.872 1540.33 706.872 1531.6 Q706.872 1522.85 709.928 1518.27 Q713.006 1513.66 718.816 1513.66 Z" fill="#000000" fill-rule="nonzero" fill-opacity="1" /><path clip-path="url(#clip760)" d="M743.006 1544.91 L759.326 1544.91 L759.326 1548.85 L737.381 1548.85 L737.381 1544.91 Q740.043 1542.16 744.627 1537.53 Q749.233 1532.88 750.414 1531.53 Q752.659 1529.01 753.539 1527.27 Q754.441 1525.51 754.441 1523.82 Q754.441 1521.07 752.497 1519.33 Q750.576 1517.6 747.474 1517.6 Q745.275 1517.6 742.821 1518.36 Q740.39 1519.13 737.613 1520.68 L737.613 1515.95 Q740.437 1514.82 742.89 1514.24 Q745.344 1513.66 747.381 1513.66 Q752.751 1513.66 755.946 1516.35 Q759.14 1519.03 759.14 1523.52 Q759.14 1525.65 758.33 1527.57 Q757.543 1529.47 755.437 1532.07 Q754.858 1532.74 751.756 1535.95 Q748.654 1539.15 743.006 1544.91 Z" fill="#000000" fill-rule="nonzero" fill-opacity="1" /><path clip-path="url(#clip760)" d="M769.187 1514.29 L787.543 1514.29 L787.543 1518.22 L773.469 1518.22 L773.469 1526.7 Q774.487 1526.35 775.506 1526.19 Q776.524 1526 777.543 1526 Q783.33 1526 786.71 1529.17 Q790.089 1532.34 790.089 1537.76 Q790.089 1543.34 786.617 1546.44 Q783.145 1549.52 776.825 1549.52 Q774.65 1549.52 772.381 1549.15 Q770.136 1548.78 767.728 1548.04 L767.728 1543.34 Q769.812 1544.47 772.034 1545.03 Q774.256 1545.58 776.733 1545.58 Q780.737 1545.58 783.075 1543.48 Q785.413 1541.37 785.413 1537.76 Q785.413 1534.15 783.075 1532.04 Q780.737 1529.94 776.733 1529.94 Q774.858 1529.94 772.983 1530.35 Q771.131 1530.77 769.187 1531.65 L769.187 1514.29 Z" fill="#000000" fill-rule="nonzero" fill-opacity="1" /><path clip-path="url(#clip760)" d="M1194.53 1517.37 Q1190.92 1517.37 1189.09 1520.93 Q1187.28 1524.47 1187.28 1531.6 Q1187.28 1538.71 1189.09 1542.27 Q1190.92 1545.82 1194.53 1545.82 Q1198.16 1545.82 1199.97 1542.27 Q1201.8 1538.71 1201.8 1531.6 Q1201.8 1524.47 1199.97 1520.93 Q1198.16 1517.37 1194.53 1517.37 M1194.53 1513.66 Q1200.34 1513.66 1203.39 1518.27 Q1206.47 1522.85 1206.47 1531.6 Q1206.47 1540.33 1203.39 1544.94 Q1200.34 1549.52 1194.53 1549.52 Q1188.72 1549.52 1185.64 1544.94 Q1182.58 1540.33 1182.58 1531.6 Q1182.58 1522.85 1185.64 1518.27 Q1188.72 1513.66 1194.53 1513.66 Z" fill="#000000" fill-rule="nonzero" fill-opacity="1" /><path clip-path="url(#clip760)" d="M1214.69 1542.97 L1219.57 1542.97 L1219.57 1548.85 L1214.69 1548.85 L1214.69 1542.97 Z" fill="#000000" fill-rule="nonzero" fill-opacity="1" /><path clip-path="url(#clip760)" d="M1239.76 1517.37 Q1236.15 1517.37 1234.32 1520.93 Q1232.51 1524.47 1232.51 1531.6 Q1232.51 1538.71 1234.32 1542.27 Q1236.15 1545.82 1239.76 1545.82 Q1243.39 1545.82 1245.2 1542.27 Q1247.03 1538.71 1247.03 1531.6 Q1247.03 1524.47 1245.2 1520.93 Q1243.39 1517.37 1239.76 1517.37 M1239.76 1513.66 Q1245.57 1513.66 1248.62 1518.27 Q1251.7 1522.85 1251.7 1531.6 Q1251.7 1540.33 1248.62 1544.94 Q1245.57 1549.52 1239.76 1549.52 Q1233.95 1549.52 1230.87 1544.94 Q1227.81 1540.33 1227.81 1531.6 Q1227.81 1522.85 1230.87 1518.27 Q1233.95 1513.66 1239.76 1513.66 Z" fill="#000000" fill-rule="nonzero" fill-opacity="1" /><path clip-path="url(#clip760)" d="M1259.97 1514.29 L1278.32 1514.29 L1278.32 1518.22 L1264.25 1518.22 L1264.25 1526.7 Q1265.27 1526.35 1266.29 1526.19 Q1267.3 1526 1268.32 1526 Q1274.11 1526 1277.49 1529.17 Q1280.87 1532.34 1280.87 1537.76 Q1280.87 1543.34 1277.4 1546.44 Q1273.92 1549.52 1267.61 1549.52 Q1265.43 1549.52 1263.16 1549.15 Q1260.92 1548.78 1258.51 1548.04 L1258.51 1543.34 Q1260.59 1544.47 1262.81 1545.03 Q1265.04 1545.58 1267.51 1545.58 Q1271.52 1545.58 1273.86 1543.48 Q1276.19 1541.37 1276.19 1537.76 Q1276.19 1534.15 1273.86 1532.04 Q1271.52 1529.94 1267.51 1529.94 Q1265.64 1529.94 1263.76 1530.35 Q1261.91 1530.77 1259.97 1531.65 L1259.97 1514.29 Z" fill="#000000" fill-rule="nonzero" fill-opacity="1" /><path clip-path="url(#clip760)" d="M1300.08 1517.37 Q1296.47 1517.37 1294.64 1520.93 Q1292.84 1524.47 1292.84 1531.6 Q1292.84 1538.71 1294.64 1542.27 Q1296.47 1545.82 1300.08 1545.82 Q1303.72 1545.82 1305.52 1542.27 Q1307.35 1538.71 1307.35 1531.6 Q1307.35 1524.47 1305.52 1520.93 Q1303.72 1517.37 1300.08 1517.37 M1300.08 1513.66 Q1305.89 1513.66 1308.95 1518.27 Q1312.03 1522.85 1312.03 1531.6 Q1312.03 1540.33 1308.95 1544.94 Q1305.89 1549.52 1300.08 1549.52 Q1294.27 1549.52 1291.19 1544.94 Q1288.14 1540.33 1288.14 1531.6 Q1288.14 1522.85 1291.19 1518.27 Q1294.27 1513.66 1300.08 1513.66 Z" fill="#000000" fill-rule="nonzero" fill-opacity="1" /><path clip-path="url(#clip760)" d="M1716.46 1517.37 Q1712.85 1517.37 1711.02 1520.93 Q1709.22 1524.47 1709.22 1531.6 Q1709.22 1538.71 1711.02 1542.27 Q1712.85 1545.82 1716.46 1545.82 Q1720.1 1545.82 1721.9 1542.27 Q1723.73 1538.71 1723.73 1531.6 Q1723.73 1524.47 1721.9 1520.93 Q1720.1 1517.37 1716.46 1517.37 M1716.46 1513.66 Q1722.27 1513.66 1725.33 1518.27 Q1728.41 1522.85 1728.41 1531.6 Q1728.41 1540.33 1725.33 1544.94 Q1722.27 1549.52 1716.46 1549.52 Q1710.65 1549.52 1707.58 1544.94 Q1704.52 1540.33 1704.52 1531.6 Q1704.52 1522.85 1707.58 1518.27 Q1710.65 1513.66 1716.46 1513.66 Z" fill="#000000" fill-rule="nonzero" fill-opacity="1" /><path clip-path="url(#clip760)" d="M1736.63 1542.97 L1741.51 1542.97 L1741.51 1548.85 L1736.63 1548.85 L1736.63 1542.97 Z" fill="#000000" fill-rule="nonzero" fill-opacity="1" /><path clip-path="url(#clip760)" d="M1761.7 1517.37 Q1758.08 1517.37 1756.26 1520.93 Q1754.45 1524.47 1754.45 1531.6 Q1754.45 1538.71 1756.26 1542.27 Q1758.08 1545.82 1761.7 1545.82 Q1765.33 1545.82 1767.14 1542.27 Q1768.96 1538.71 1768.96 1531.6 Q1768.96 1524.47 1767.14 1520.93 Q1765.33 1517.37 1761.7 1517.37 M1761.7 1513.66 Q1767.51 1513.66 1770.56 1518.27 Q1773.64 1522.85 1773.64 1531.6 Q1773.64 1540.33 1770.56 1544.94 Q1767.51 1549.52 1761.7 1549.52 Q1755.89 1549.52 1752.81 1544.94 Q1749.75 1540.33 1749.75 1531.6 Q1749.75 1522.85 1752.81 1518.27 Q1755.89 1513.66 1761.7 1513.66 Z" fill="#000000" fill-rule="nonzero" fill-opacity="1" /><path clip-path="url(#clip760)" d="M1780.68 1514.29 L1802.9 1514.29 L1802.9 1516.28 L1790.35 1548.85 L1785.47 1548.85 L1797.27 1518.22 L1780.68 1518.22 L1780.68 1514.29 Z" fill="#000000" fill-rule="nonzero" fill-opacity="1" /><path clip-path="url(#clip760)" d="M1812.07 1514.29 L1830.42 1514.29 L1830.42 1518.22 L1816.35 1518.22 L1816.35 1526.7 Q1817.37 1526.35 1818.38 1526.19 Q1819.4 1526 1820.42 1526 Q1826.21 1526 1829.59 1529.17 Q1832.97 1532.34 1832.97 1537.76 Q1832.97 1543.34 1829.5 1546.44 Q1826.02 1549.52 1819.7 1549.52 Q1817.53 1549.52 1815.26 1549.15 Q1813.01 1548.78 1810.61 1548.04 L1810.61 1543.34 Q1812.69 1544.47 1814.91 1545.03 Q1817.13 1545.58 1819.61 1545.58 Q1823.62 1545.58 1825.95 1543.48 Q1828.29 1541.37 1828.29 1537.76 Q1828.29 1534.15 1825.95 1532.04 Q1823.62 1529.94 1819.61 1529.94 Q1817.74 1529.94 1815.86 1530.35 Q1814.01 1530.77 1812.07 1531.65 L1812.07 1514.29 Z" fill="#000000" fill-rule="nonzero" fill-opacity="1" /><path clip-path="url(#clip760)" d="M2237.41 1517.37 Q2233.79 1517.37 2231.97 1520.93 Q2230.16 1524.47 2230.16 1531.6 Q2230.16 1538.71 2231.97 1542.27 Q2233.79 1545.82 2237.41 1545.82 Q2241.04 1545.82 2242.85 1542.27 Q2244.67 1538.71 2244.67 1531.6 Q2244.67 1524.47 2242.85 1520.93 Q2241.04 1517.37 2237.41 1517.37 M2237.41 1513.66 Q2243.22 1513.66 2246.27 1518.27 Q2249.35 1522.85 2249.35 1531.6 Q2249.35 1540.33 2246.27 1544.94 Q2243.22 1549.52 2237.41 1549.52 Q2231.6 1549.52 2228.52 1544.94 Q2225.46 1540.33 2225.46 1531.6 Q2225.46 1522.85 2228.52 1518.27 Q2231.6 1513.66 2237.41 1513.66 Z" fill="#000000" fill-rule="nonzero" fill-opacity="1" /><path clip-path="url(#clip760)" d="M2257.57 1542.97 L2262.45 1542.97 L2262.45 1548.85 L2257.57 1548.85 L2257.57 1542.97 Z" fill="#000000" fill-rule="nonzero" fill-opacity="1" /><path clip-path="url(#clip760)" d="M2273.45 1544.91 L2281.09 1544.91 L2281.09 1518.55 L2272.78 1520.21 L2272.78 1515.95 L2281.04 1514.29 L2285.72 1514.29 L2285.72 1544.91 L2293.35 1544.91 L2293.35 1548.85 L2273.45 1548.85 L2273.45 1544.91 Z" fill="#000000" fill-rule="nonzero" fill-opacity="1" /><path clip-path="url(#clip760)" d="M2312.8 1517.37 Q2309.19 1517.37 2307.36 1520.93 Q2305.55 1524.47 2305.55 1531.6 Q2305.55 1538.71 2307.36 1542.27 Q2309.19 1545.82 2312.8 1545.82 Q2316.43 1545.82 2318.24 1542.27 Q2320.07 1538.71 2320.07 1531.6 Q2320.07 1524.47 2318.24 1520.93 Q2316.43 1517.37 2312.8 1517.37 M2312.8 1513.66 Q2318.61 1513.66 2321.66 1518.27 Q2324.74 1522.85 2324.74 1531.6 Q2324.74 1540.33 2321.66 1544.94 Q2318.61 1549.52 2312.8 1549.52 Q2306.99 1549.52 2303.91 1544.94 Q2300.85 1540.33 2300.85 1531.6 Q2300.85 1522.85 2303.91 1518.27 Q2306.99 1513.66 2312.8 1513.66 Z" fill="#000000" fill-rule="nonzero" fill-opacity="1" /><path clip-path="url(#clip760)" d="M2342.96 1517.37 Q2339.35 1517.37 2337.52 1520.93 Q2335.72 1524.47 2335.72 1531.6 Q2335.72 1538.71 2337.52 1542.27 Q2339.35 1545.82 2342.96 1545.82 Q2346.59 1545.82 2348.4 1542.27 Q2350.23 1538.71 2350.23 1531.6 Q2350.23 1524.47 2348.4 1520.93 Q2346.59 1517.37 2342.96 1517.37 M2342.96 1513.66 Q2348.77 1513.66 2351.83 1518.27 Q2354.91 1522.85 2354.91 1531.6 Q2354.91 1540.33 2351.83 1544.94 Q2348.77 1549.52 2342.96 1549.52 Q2337.15 1549.52 2334.07 1544.94 Q2331.02 1540.33 2331.02 1531.6 Q2331.02 1522.85 2334.07 1518.27 Q2337.15 1513.66 2342.96 1513.66 Z" fill="#000000" fill-rule="nonzero" fill-opacity="1" /><polyline clip-path="url(#clip762)" style="stroke:#000000; stroke-linecap:round; stroke-linejoin:round; stroke-width:2; stroke-opacity:0.1; fill:none" points="141.853,1445.72 2352.76,1445.72 "/>
<polyline clip-path="url(#clip762)" style="stroke:#000000; stroke-linecap:round; stroke-linejoin:round; stroke-width:2; stroke-opacity:0.1; fill:none" points="141.853,1148.77 2352.76,1148.77 "/>
<polyline clip-path="url(#clip762)" style="stroke:#000000; stroke-linecap:round; stroke-linejoin:round; stroke-width:2; stroke-opacity:0.1; fill:none" points="141.853,851.832 2352.76,851.832 "/>
<polyline clip-path="url(#clip762)" style="stroke:#000000; stroke-linecap:round; stroke-linejoin:round; stroke-width:2; stroke-opacity:0.1; fill:none" points="141.853,554.891 2352.76,554.891 "/>
<polyline clip-path="url(#clip762)" style="stroke:#000000; stroke-linecap:round; stroke-linejoin:round; stroke-width:2; stroke-opacity:0.1; fill:none" points="141.853,257.949 2352.76,257.949 "/>
<polyline clip-path="url(#clip760)" style="stroke:#000000; stroke-linecap:round; stroke-linejoin:round; stroke-width:4; stroke-opacity:1; fill:none" points="141.853,1486.45 141.853,47.2441 "/>
<polyline clip-path="url(#clip760)" style="stroke:#000000; stroke-linecap:round; stroke-linejoin:round; stroke-width:4; stroke-opacity:1; fill:none" points="141.853,1445.72 160.751,1445.72 "/>
<polyline clip-path="url(#clip760)" style="stroke:#000000; stroke-linecap:round; stroke-linejoin:round; stroke-width:4; stroke-opacity:1; fill:none" points="141.853,1148.77 160.751,1148.77 "/>
<polyline clip-path="url(#clip760)" style="stroke:#000000; stroke-linecap:round; stroke-linejoin:round; stroke-width:4; stroke-opacity:1; fill:none" points="141.853,851.832 160.751,851.832 "/>
<polyline clip-path="url(#clip760)" style="stroke:#000000; stroke-linecap:round; stroke-linejoin:round; stroke-width:4; stroke-opacity:1; fill:none" points="141.853,554.891 160.751,554.891 "/>
<polyline clip-path="url(#clip760)" style="stroke:#000000; stroke-linecap:round; stroke-linejoin:round; stroke-width:4; stroke-opacity:1; fill:none" points="141.853,257.949 160.751,257.949 "/>
<path clip-path="url(#clip760)" d="M93.9086 1431.51 Q90.2975 1431.51 88.4688 1435.08 Q86.6632 1438.62 86.6632 1445.75 Q86.6632 1452.86 88.4688 1456.42 Q90.2975 1459.96 93.9086 1459.96 Q97.5428 1459.96 99.3483 1456.42 Q101.177 1452.86 101.177 1445.75 Q101.177 1438.62 99.3483 1435.08 Q97.5428 1431.51 93.9086 1431.51 M93.9086 1427.81 Q99.7187 1427.81 102.774 1432.42 Q105.853 1437 105.853 1445.75 Q105.853 1454.48 102.774 1459.08 Q99.7187 1463.67 93.9086 1463.67 Q88.0984 1463.67 85.0197 1459.08 Q81.9642 1454.48 81.9642 1445.75 Q81.9642 1437 85.0197 1432.42 Q88.0984 1427.81 93.9086 1427.81 Z" fill="#000000" fill-rule="nonzero" fill-opacity="1" /><path clip-path="url(#clip760)" d="M54.5569 1162.12 L62.1958 1162.12 L62.1958 1135.75 L53.8856 1137.42 L53.8856 1133.16 L62.1495 1131.49 L66.8254 1131.49 L66.8254 1162.12 L74.4642 1162.12 L74.4642 1166.05 L54.5569 1166.05 L54.5569 1162.12 Z" fill="#000000" fill-rule="nonzero" fill-opacity="1" /><path clip-path="url(#clip760)" d="M93.9086 1134.57 Q90.2975 1134.57 88.4688 1138.14 Q86.6632 1141.68 86.6632 1148.81 Q86.6632 1155.92 88.4688 1159.48 Q90.2975 1163.02 93.9086 1163.02 Q97.5428 1163.02 99.3483 1159.48 Q101.177 1155.92 101.177 1148.81 Q101.177 1141.68 99.3483 1138.14 Q97.5428 1134.57 93.9086 1134.57 M93.9086 1130.87 Q99.7187 1130.87 102.774 1135.48 Q105.853 1140.06 105.853 1148.81 Q105.853 1157.54 102.774 1162.14 Q99.7187 1166.73 93.9086 1166.73 Q88.0984 1166.73 85.0197 1162.14 Q81.9642 1157.54 81.9642 1148.81 Q81.9642 1140.06 85.0197 1135.48 Q88.0984 1130.87 93.9086 1130.87 Z" fill="#000000" fill-rule="nonzero" fill-opacity="1" /><path clip-path="url(#clip760)" d="M57.7745 865.177 L74.0939 865.177 L74.0939 869.112 L52.1495 869.112 L52.1495 865.177 Q54.8115 862.423 59.3949 857.793 Q64.0013 853.14 65.1819 851.798 Q67.4272 849.275 68.3068 847.539 Q69.2096 845.779 69.2096 844.089 Q69.2096 841.335 67.2652 839.599 Q65.3439 837.863 62.2421 837.863 Q60.043 837.863 57.5893 838.627 Q55.1588 839.39 52.381 840.941 L52.381 836.219 Q55.2051 835.085 57.6588 834.506 Q60.1124 833.927 62.1495 833.927 Q67.5198 833.927 70.7142 836.613 Q73.9087 839.298 73.9087 843.789 Q73.9087 845.918 73.0985 847.839 Q72.3115 849.738 70.205 852.33 Q69.6263 853.001 66.5245 856.219 Q63.4226 859.413 57.7745 865.177 Z" fill="#000000" fill-rule="nonzero" fill-opacity="1" /><path clip-path="url(#clip760)" d="M93.9086 837.631 Q90.2975 837.631 88.4688 841.196 Q86.6632 844.738 86.6632 851.867 Q86.6632 858.974 88.4688 862.538 Q90.2975 866.08 93.9086 866.08 Q97.5428 866.08 99.3483 862.538 Q101.177 858.974 101.177 851.867 Q101.177 844.738 99.3483 841.196 Q97.5428 837.631 93.9086 837.631 M93.9086 833.927 Q99.7187 833.927 102.774 838.534 Q105.853 843.117 105.853 851.867 Q105.853 860.594 102.774 865.2 Q99.7187 869.784 93.9086 869.784 Q88.0984 869.784 85.0197 865.2 Q81.9642 860.594 81.9642 851.867 Q81.9642 843.117 85.0197 838.534 Q88.0984 833.927 93.9086 833.927 Z" fill="#000000" fill-rule="nonzero" fill-opacity="1" /><path clip-path="url(#clip760)" d="M67.9133 553.537 Q71.2698 554.254 73.1448 556.523 Q75.0429 558.791 75.0429 562.125 Q75.0429 567.24 71.5244 570.041 Q68.0059 572.842 61.5245 572.842 Q59.3486 572.842 57.0338 572.402 Q54.7421 571.986 52.2884 571.129 L52.2884 566.615 Q54.2328 567.75 56.5477 568.328 Q58.8625 568.907 61.3856 568.907 Q65.7837 568.907 68.0754 567.171 Q70.3902 565.435 70.3902 562.125 Q70.3902 559.069 68.2374 557.356 Q66.1078 555.62 62.2884 555.62 L58.2606 555.62 L58.2606 551.777 L62.4735 551.777 Q65.9226 551.777 67.7513 550.412 Q69.58 549.023 69.58 546.43 Q69.58 543.768 67.6819 542.356 Q65.8069 540.921 62.2884 540.921 Q60.3671 540.921 58.168 541.338 Q55.969 541.754 53.3301 542.634 L53.3301 538.467 Q55.9921 537.727 58.3069 537.356 Q60.6449 536.986 62.705 536.986 Q68.0291 536.986 71.1309 539.416 Q74.2327 541.824 74.2327 545.944 Q74.2327 548.815 72.5892 550.805 Q70.9457 552.773 67.9133 553.537 Z" fill="#000000" fill-rule="nonzero" fill-opacity="1" /><path clip-path="url(#clip760)" d="M93.9086 540.69 Q90.2975 540.69 88.4688 544.254 Q86.6632 547.796 86.6632 554.926 Q86.6632 562.032 88.4688 565.597 Q90.2975 569.139 93.9086 569.139 Q97.5428 569.139 99.3483 565.597 Q101.177 562.032 101.177 554.926 Q101.177 547.796 99.3483 544.254 Q97.5428 540.69 93.9086 540.69 M93.9086 536.986 Q99.7187 536.986 102.774 541.592 Q105.853 546.176 105.853 554.926 Q105.853 563.652 102.774 568.259 Q99.7187 572.842 93.9086 572.842 Q88.0984 572.842 85.0197 568.259 Q81.9642 563.652 81.9642 554.926 Q81.9642 546.176 85.0197 541.592 Q88.0984 536.986 93.9086 536.986 Z" fill="#000000" fill-rule="nonzero" fill-opacity="1" /><path clip-path="url(#clip760)" d="M66.5939 244.743 L54.7884 263.192 L66.5939 263.192 L66.5939 244.743 M65.367 240.669 L71.2466 240.669 L71.2466 263.192 L76.1772 263.192 L76.1772 267.081 L71.2466 267.081 L71.2466 275.229 L66.5939 275.229 L66.5939 267.081 L50.9921 267.081 L50.9921 262.567 L65.367 240.669 Z" fill="#000000" fill-rule="nonzero" fill-opacity="1" /><path clip-path="url(#clip760)" d="M93.9086 243.748 Q90.2975 243.748 88.4688 247.313 Q86.6632 250.854 86.6632 257.984 Q86.6632 265.09 88.4688 268.655 Q90.2975 272.197 93.9086 272.197 Q97.5428 272.197 99.3483 268.655 Q101.177 265.09 101.177 257.984 Q101.177 250.854 99.3483 247.313 Q97.5428 243.748 93.9086 243.748 M93.9086 240.044 Q99.7187 240.044 102.774 244.651 Q105.853 249.234 105.853 257.984 Q105.853 266.711 102.774 271.317 Q99.7187 275.901 93.9086 275.901 Q88.0984 275.901 85.0197 271.317 Q81.9642 266.711 81.9642 257.984 Q81.9642 249.234 85.0197 244.651 Q88.0984 240.044 93.9086 240.044 Z" fill="#000000" fill-rule="nonzero" fill-opacity="1" /><circle clip-path="url(#clip762)" cx="204.426" cy="1445.72" r="14.4" fill="#009af9" fill-rule="evenodd" fill-opacity="1" stroke="#000000" stroke-opacity="1" stroke-width="3.2"/>
<circle clip-path="url(#clip762)" cx="225.283" cy="1266.35" r="14.4" fill="#009af9" fill-rule="evenodd" fill-opacity="1" stroke="#000000" stroke-opacity="1" stroke-width="3.2"/>
<circle clip-path="url(#clip762)" cx="246.141" cy="1107.49" r="14.4" fill="#009af9" fill-rule="evenodd" fill-opacity="1" stroke="#000000" stroke-opacity="1" stroke-width="3.2"/>
<circle clip-path="url(#clip762)" cx="266.998" cy="975.43" r="14.4" fill="#009af9" fill-rule="evenodd" fill-opacity="1" stroke="#000000" stroke-opacity="1" stroke-width="3.2"/>
<circle clip-path="url(#clip762)" cx="287.856" cy="872.577" r="14.4" fill="#009af9" fill-rule="evenodd" fill-opacity="1" stroke="#000000" stroke-opacity="1" stroke-width="3.2"/>
<circle clip-path="url(#clip762)" cx="308.714" cy="798.739" r="14.4" fill="#009af9" fill-rule="evenodd" fill-opacity="1" stroke="#000000" stroke-opacity="1" stroke-width="3.2"/>
<circle clip-path="url(#clip762)" cx="329.571" cy="752.119" r="14.4" fill="#009af9" fill-rule="evenodd" fill-opacity="1" stroke="#000000" stroke-opacity="1" stroke-width="3.2"/>
<circle clip-path="url(#clip762)" cx="350.429" cy="729.964" r="14.4" fill="#009af9" fill-rule="evenodd" fill-opacity="1" stroke="#000000" stroke-opacity="1" stroke-width="3.2"/>
<circle clip-path="url(#clip762)" cx="371.286" cy="728.947" r="14.4" fill="#009af9" fill-rule="evenodd" fill-opacity="1" stroke="#000000" stroke-opacity="1" stroke-width="3.2"/>
<circle clip-path="url(#clip762)" cx="392.144" cy="745.336" r="14.4" fill="#009af9" fill-rule="evenodd" fill-opacity="1" stroke="#000000" stroke-opacity="1" stroke-width="3.2"/>
<circle clip-path="url(#clip762)" cx="413.001" cy="775.137" r="14.4" fill="#009af9" fill-rule="evenodd" fill-opacity="1" stroke="#000000" stroke-opacity="1" stroke-width="3.2"/>
<circle clip-path="url(#clip762)" cx="433.859" cy="814.127" r="14.4" fill="#009af9" fill-rule="evenodd" fill-opacity="1" stroke="#000000" stroke-opacity="1" stroke-width="3.2"/>
<circle clip-path="url(#clip762)" cx="454.717" cy="858.187" r="14.4" fill="#009af9" fill-rule="evenodd" fill-opacity="1" stroke="#000000" stroke-opacity="1" stroke-width="3.2"/>
<circle clip-path="url(#clip762)" cx="475.574" cy="903.287" r="14.4" fill="#009af9" fill-rule="evenodd" fill-opacity="1" stroke="#000000" stroke-opacity="1" stroke-width="3.2"/>
<circle clip-path="url(#clip762)" cx="496.432" cy="946.012" r="14.4" fill="#009af9" fill-rule="evenodd" fill-opacity="1" stroke="#000000" stroke-opacity="1" stroke-width="3.2"/>
<circle clip-path="url(#clip762)" cx="517.289" cy="983.64" r="14.4" fill="#009af9" fill-rule="evenodd" fill-opacity="1" stroke="#000000" stroke-opacity="1" stroke-width="3.2"/>
<circle clip-path="url(#clip762)" cx="538.147" cy="1014.32" r="14.4" fill="#009af9" fill-rule="evenodd" fill-opacity="1" stroke="#000000" stroke-opacity="1" stroke-width="3.2"/>
<circle clip-path="url(#clip762)" cx="559.004" cy="1037.19" r="14.4" fill="#009af9" fill-rule="evenodd" fill-opacity="1" stroke="#000000" stroke-opacity="1" stroke-width="3.2"/>
<circle clip-path="url(#clip762)" cx="579.862" cy="1052.18" r="14.4" fill="#009af9" fill-rule="evenodd" fill-opacity="1" stroke="#000000" stroke-opacity="1" stroke-width="3.2"/>
<circle clip-path="url(#clip762)" cx="600.72" cy="1059.87" r="14.4" fill="#009af9" fill-rule="evenodd" fill-opacity="1" stroke="#000000" stroke-opacity="1" stroke-width="3.2"/>
<circle clip-path="url(#clip762)" cx="621.577" cy="1061.24" r="14.4" fill="#009af9" fill-rule="evenodd" fill-opacity="1" stroke="#000000" stroke-opacity="1" stroke-width="3.2"/>
<circle clip-path="url(#clip762)" cx="642.435" cy="1057.44" r="14.4" fill="#009af9" fill-rule="evenodd" fill-opacity="1" stroke="#000000" stroke-opacity="1" stroke-width="3.2"/>
<circle clip-path="url(#clip762)" cx="663.292" cy="1049.63" r="14.4" fill="#009af9" fill-rule="evenodd" fill-opacity="1" stroke="#000000" stroke-opacity="1" stroke-width="3.2"/>
<circle clip-path="url(#clip762)" cx="684.15" cy="1038.83" r="14.4" fill="#009af9" fill-rule="evenodd" fill-opacity="1" stroke="#000000" stroke-opacity="1" stroke-width="3.2"/>
<circle clip-path="url(#clip762)" cx="705.007" cy="1025.9" r="14.4" fill="#009af9" fill-rule="evenodd" fill-opacity="1" stroke="#000000" stroke-opacity="1" stroke-width="3.2"/>
<circle clip-path="url(#clip762)" cx="725.865" cy="1011.56" r="14.4" fill="#009af9" fill-rule="evenodd" fill-opacity="1" stroke="#000000" stroke-opacity="1" stroke-width="3.2"/>
<circle clip-path="url(#clip762)" cx="746.723" cy="996.295" r="14.4" fill="#009af9" fill-rule="evenodd" fill-opacity="1" stroke="#000000" stroke-opacity="1" stroke-width="3.2"/>
<circle clip-path="url(#clip762)" cx="767.58" cy="980.472" r="14.4" fill="#009af9" fill-rule="evenodd" fill-opacity="1" stroke="#000000" stroke-opacity="1" stroke-width="3.2"/>
<circle clip-path="url(#clip762)" cx="788.438" cy="964.343" r="14.4" fill="#009af9" fill-rule="evenodd" fill-opacity="1" stroke="#000000" stroke-opacity="1" stroke-width="3.2"/>
<circle clip-path="url(#clip762)" cx="809.295" cy="948.082" r="14.4" fill="#009af9" fill-rule="evenodd" fill-opacity="1" stroke="#000000" stroke-opacity="1" stroke-width="3.2"/>
<circle clip-path="url(#clip762)" cx="830.153" cy="931.796" r="14.4" fill="#009af9" fill-rule="evenodd" fill-opacity="1" stroke="#000000" stroke-opacity="1" stroke-width="3.2"/>
<circle clip-path="url(#clip762)" cx="851.01" cy="915.551" r="14.4" fill="#009af9" fill-rule="evenodd" fill-opacity="1" stroke="#000000" stroke-opacity="1" stroke-width="3.2"/>
<circle clip-path="url(#clip762)" cx="871.868" cy="899.387" r="14.4" fill="#009af9" fill-rule="evenodd" fill-opacity="1" stroke="#000000" stroke-opacity="1" stroke-width="3.2"/>
<circle clip-path="url(#clip762)" cx="892.726" cy="883.328" r="14.4" fill="#009af9" fill-rule="evenodd" fill-opacity="1" stroke="#000000" stroke-opacity="1" stroke-width="3.2"/>
<circle clip-path="url(#clip762)" cx="913.583" cy="867.393" r="14.4" fill="#009af9" fill-rule="evenodd" fill-opacity="1" stroke="#000000" stroke-opacity="1" stroke-width="3.2"/>
<circle clip-path="url(#clip762)" cx="934.441" cy="851.588" r="14.4" fill="#009af9" fill-rule="evenodd" fill-opacity="1" stroke="#000000" stroke-opacity="1" stroke-width="3.2"/>
<circle clip-path="url(#clip762)" cx="955.298" cy="835.918" r="14.4" fill="#009af9" fill-rule="evenodd" fill-opacity="1" stroke="#000000" stroke-opacity="1" stroke-width="3.2"/>
<circle clip-path="url(#clip762)" cx="976.156" cy="820.383" r="14.4" fill="#009af9" fill-rule="evenodd" fill-opacity="1" stroke="#000000" stroke-opacity="1" stroke-width="3.2"/>
<circle clip-path="url(#clip762)" cx="997.014" cy="804.986" r="14.4" fill="#009af9" fill-rule="evenodd" fill-opacity="1" stroke="#000000" stroke-opacity="1" stroke-width="3.2"/>
<circle clip-path="url(#clip762)" cx="1017.87" cy="789.725" r="14.4" fill="#009af9" fill-rule="evenodd" fill-opacity="1" stroke="#000000" stroke-opacity="1" stroke-width="3.2"/>
<circle clip-path="url(#clip762)" cx="1038.73" cy="774.602" r="14.4" fill="#009af9" fill-rule="evenodd" fill-opacity="1" stroke="#000000" stroke-opacity="1" stroke-width="3.2"/>
<circle clip-path="url(#clip762)" cx="1059.59" cy="759.616" r="14.4" fill="#009af9" fill-rule="evenodd" fill-opacity="1" stroke="#000000" stroke-opacity="1" stroke-width="3.2"/>
<circle clip-path="url(#clip762)" cx="1080.44" cy="744.765" r="14.4" fill="#009af9" fill-rule="evenodd" fill-opacity="1" stroke="#000000" stroke-opacity="1" stroke-width="3.2"/>
<circle clip-path="url(#clip762)" cx="1101.3" cy="730.051" r="14.4" fill="#009af9" fill-rule="evenodd" fill-opacity="1" stroke="#000000" stroke-opacity="1" stroke-width="3.2"/>
<circle clip-path="url(#clip762)" cx="1122.16" cy="715.472" r="14.4" fill="#009af9" fill-rule="evenodd" fill-opacity="1" stroke="#000000" stroke-opacity="1" stroke-width="3.2"/>
<circle clip-path="url(#clip762)" cx="1143.02" cy="701.028" r="14.4" fill="#009af9" fill-rule="evenodd" fill-opacity="1" stroke="#000000" stroke-opacity="1" stroke-width="3.2"/>
<circle clip-path="url(#clip762)" cx="1163.87" cy="686.717" r="14.4" fill="#009af9" fill-rule="evenodd" fill-opacity="1" stroke="#000000" stroke-opacity="1" stroke-width="3.2"/>
<circle clip-path="url(#clip762)" cx="1184.73" cy="672.539" r="14.4" fill="#009af9" fill-rule="evenodd" fill-opacity="1" stroke="#000000" stroke-opacity="1" stroke-width="3.2"/>
<circle clip-path="url(#clip762)" cx="1205.59" cy="658.494" r="14.4" fill="#009af9" fill-rule="evenodd" fill-opacity="1" stroke="#000000" stroke-opacity="1" stroke-width="3.2"/>
<circle clip-path="url(#clip762)" cx="1226.45" cy="644.581" r="14.4" fill="#009af9" fill-rule="evenodd" fill-opacity="1" stroke="#000000" stroke-opacity="1" stroke-width="3.2"/>
<circle clip-path="url(#clip762)" cx="1247.3" cy="630.798" r="14.4" fill="#009af9" fill-rule="evenodd" fill-opacity="1" stroke="#000000" stroke-opacity="1" stroke-width="3.2"/>
<circle clip-path="url(#clip762)" cx="1268.16" cy="617.145" r="14.4" fill="#009af9" fill-rule="evenodd" fill-opacity="1" stroke="#000000" stroke-opacity="1" stroke-width="3.2"/>
<circle clip-path="url(#clip762)" cx="1289.02" cy="603.622" r="14.4" fill="#009af9" fill-rule="evenodd" fill-opacity="1" stroke="#000000" stroke-opacity="1" stroke-width="3.2"/>
<circle clip-path="url(#clip762)" cx="1309.88" cy="590.226" r="14.4" fill="#009af9" fill-rule="evenodd" fill-opacity="1" stroke="#000000" stroke-opacity="1" stroke-width="3.2"/>
<circle clip-path="url(#clip762)" cx="1330.73" cy="576.959" r="14.4" fill="#009af9" fill-rule="evenodd" fill-opacity="1" stroke="#000000" stroke-opacity="1" stroke-width="3.2"/>
<circle clip-path="url(#clip762)" cx="1351.59" cy="563.818" r="14.4" fill="#009af9" fill-rule="evenodd" fill-opacity="1" stroke="#000000" stroke-opacity="1" stroke-width="3.2"/>
<circle clip-path="url(#clip762)" cx="1372.45" cy="550.803" r="14.4" fill="#009af9" fill-rule="evenodd" fill-opacity="1" stroke="#000000" stroke-opacity="1" stroke-width="3.2"/>
<circle clip-path="url(#clip762)" cx="1393.31" cy="537.913" r="14.4" fill="#009af9" fill-rule="evenodd" fill-opacity="1" stroke="#000000" stroke-opacity="1" stroke-width="3.2"/>
<circle clip-path="url(#clip762)" cx="1414.17" cy="525.146" r="14.4" fill="#009af9" fill-rule="evenodd" fill-opacity="1" stroke="#000000" stroke-opacity="1" stroke-width="3.2"/>
<circle clip-path="url(#clip762)" cx="1435.02" cy="512.503" r="14.4" fill="#009af9" fill-rule="evenodd" fill-opacity="1" stroke="#000000" stroke-opacity="1" stroke-width="3.2"/>
<circle clip-path="url(#clip762)" cx="1455.88" cy="499.982" r="14.4" fill="#009af9" fill-rule="evenodd" fill-opacity="1" stroke="#000000" stroke-opacity="1" stroke-width="3.2"/>
<circle clip-path="url(#clip762)" cx="1476.74" cy="487.582" r="14.4" fill="#009af9" fill-rule="evenodd" fill-opacity="1" stroke="#000000" stroke-opacity="1" stroke-width="3.2"/>
<circle clip-path="url(#clip762)" cx="1497.6" cy="475.302" r="14.4" fill="#009af9" fill-rule="evenodd" fill-opacity="1" stroke="#000000" stroke-opacity="1" stroke-width="3.2"/>
<circle clip-path="url(#clip762)" cx="1518.45" cy="463.142" r="14.4" fill="#009af9" fill-rule="evenodd" fill-opacity="1" stroke="#000000" stroke-opacity="1" stroke-width="3.2"/>
<circle clip-path="url(#clip762)" cx="1539.31" cy="451.099" r="14.4" fill="#009af9" fill-rule="evenodd" fill-opacity="1" stroke="#000000" stroke-opacity="1" stroke-width="3.2"/>
<circle clip-path="url(#clip762)" cx="1560.17" cy="439.175" r="14.4" fill="#009af9" fill-rule="evenodd" fill-opacity="1" stroke="#000000" stroke-opacity="1" stroke-width="3.2"/>
<circle clip-path="url(#clip762)" cx="1581.03" cy="427.366" r="14.4" fill="#009af9" fill-rule="evenodd" fill-opacity="1" stroke="#000000" stroke-opacity="1" stroke-width="3.2"/>
<circle clip-path="url(#clip762)" cx="1601.88" cy="415.673" r="14.4" fill="#009af9" fill-rule="evenodd" fill-opacity="1" stroke="#000000" stroke-opacity="1" stroke-width="3.2"/>
<circle clip-path="url(#clip762)" cx="1622.74" cy="404.094" r="14.4" fill="#009af9" fill-rule="evenodd" fill-opacity="1" stroke="#000000" stroke-opacity="1" stroke-width="3.2"/>
<circle clip-path="url(#clip762)" cx="1643.6" cy="392.628" r="14.4" fill="#009af9" fill-rule="evenodd" fill-opacity="1" stroke="#000000" stroke-opacity="1" stroke-width="3.2"/>
<circle clip-path="url(#clip762)" cx="1664.46" cy="381.275" r="14.4" fill="#009af9" fill-rule="evenodd" fill-opacity="1" stroke="#000000" stroke-opacity="1" stroke-width="3.2"/>
<circle clip-path="url(#clip762)" cx="1685.31" cy="370.033" r="14.4" fill="#009af9" fill-rule="evenodd" fill-opacity="1" stroke="#000000" stroke-opacity="1" stroke-width="3.2"/>
<circle clip-path="url(#clip762)" cx="1706.17" cy="358.901" r="14.4" fill="#009af9" fill-rule="evenodd" fill-opacity="1" stroke="#000000" stroke-opacity="1" stroke-width="3.2"/>
<circle clip-path="url(#clip762)" cx="1727.03" cy="347.879" r="14.4" fill="#009af9" fill-rule="evenodd" fill-opacity="1" stroke="#000000" stroke-opacity="1" stroke-width="3.2"/>
<circle clip-path="url(#clip762)" cx="1747.89" cy="336.966" r="14.4" fill="#009af9" fill-rule="evenodd" fill-opacity="1" stroke="#000000" stroke-opacity="1" stroke-width="3.2"/>
<circle clip-path="url(#clip762)" cx="1768.74" cy="326.16" r="14.4" fill="#009af9" fill-rule="evenodd" fill-opacity="1" stroke="#000000" stroke-opacity="1" stroke-width="3.2"/>
<circle clip-path="url(#clip762)" cx="1789.6" cy="315.459" r="14.4" fill="#009af9" fill-rule="evenodd" fill-opacity="1" stroke="#000000" stroke-opacity="1" stroke-width="3.2"/>
<circle clip-path="url(#clip762)" cx="1810.46" cy="304.864" r="14.4" fill="#009af9" fill-rule="evenodd" fill-opacity="1" stroke="#000000" stroke-opacity="1" stroke-width="3.2"/>
<circle clip-path="url(#clip762)" cx="1831.32" cy="294.373" r="14.4" fill="#009af9" fill-rule="evenodd" fill-opacity="1" stroke="#000000" stroke-opacity="1" stroke-width="3.2"/>
<circle clip-path="url(#clip762)" cx="1852.17" cy="283.985" r="14.4" fill="#009af9" fill-rule="evenodd" fill-opacity="1" stroke="#000000" stroke-opacity="1" stroke-width="3.2"/>
<circle clip-path="url(#clip762)" cx="1873.03" cy="273.699" r="14.4" fill="#009af9" fill-rule="evenodd" fill-opacity="1" stroke="#000000" stroke-opacity="1" stroke-width="3.2"/>
<circle clip-path="url(#clip762)" cx="1893.89" cy="263.514" r="14.4" fill="#009af9" fill-rule="evenodd" fill-opacity="1" stroke="#000000" stroke-opacity="1" stroke-width="3.2"/>
<circle clip-path="url(#clip762)" cx="1914.75" cy="253.429" r="14.4" fill="#009af9" fill-rule="evenodd" fill-opacity="1" stroke="#000000" stroke-opacity="1" stroke-width="3.2"/>
<circle clip-path="url(#clip762)" cx="1935.6" cy="243.444" r="14.4" fill="#009af9" fill-rule="evenodd" fill-opacity="1" stroke="#000000" stroke-opacity="1" stroke-width="3.2"/>
<circle clip-path="url(#clip762)" cx="1956.46" cy="233.558" r="14.4" fill="#009af9" fill-rule="evenodd" fill-opacity="1" stroke="#000000" stroke-opacity="1" stroke-width="3.2"/>
<circle clip-path="url(#clip762)" cx="1977.32" cy="223.768" r="14.4" fill="#009af9" fill-rule="evenodd" fill-opacity="1" stroke="#000000" stroke-opacity="1" stroke-width="3.2"/>
<circle clip-path="url(#clip762)" cx="1998.18" cy="214.075" r="14.4" fill="#009af9" fill-rule="evenodd" fill-opacity="1" stroke="#000000" stroke-opacity="1" stroke-width="3.2"/>
<circle clip-path="url(#clip762)" cx="2019.03" cy="204.478" r="14.4" fill="#009af9" fill-rule="evenodd" fill-opacity="1" stroke="#000000" stroke-opacity="1" stroke-width="3.2"/>
<circle clip-path="url(#clip762)" cx="2039.89" cy="194.976" r="14.4" fill="#009af9" fill-rule="evenodd" fill-opacity="1" stroke="#000000" stroke-opacity="1" stroke-width="3.2"/>
<circle clip-path="url(#clip762)" cx="2060.75" cy="185.566" r="14.4" fill="#009af9" fill-rule="evenodd" fill-opacity="1" stroke="#000000" stroke-opacity="1" stroke-width="3.2"/>
<circle clip-path="url(#clip762)" cx="2081.61" cy="176.25" r="14.4" fill="#009af9" fill-rule="evenodd" fill-opacity="1" stroke="#000000" stroke-opacity="1" stroke-width="3.2"/>
<circle clip-path="url(#clip762)" cx="2102.47" cy="167.025" r="14.4" fill="#009af9" fill-rule="evenodd" fill-opacity="1" stroke="#000000" stroke-opacity="1" stroke-width="3.2"/>
<circle clip-path="url(#clip762)" cx="2123.32" cy="157.892" r="14.4" fill="#009af9" fill-rule="evenodd" fill-opacity="1" stroke="#000000" stroke-opacity="1" stroke-width="3.2"/>
<circle clip-path="url(#clip762)" cx="2144.18" cy="148.848" r="14.4" fill="#009af9" fill-rule="evenodd" fill-opacity="1" stroke="#000000" stroke-opacity="1" stroke-width="3.2"/>
<circle clip-path="url(#clip762)" cx="2165.04" cy="139.892" r="14.4" fill="#009af9" fill-rule="evenodd" fill-opacity="1" stroke="#000000" stroke-opacity="1" stroke-width="3.2"/>
<circle clip-path="url(#clip762)" cx="2185.9" cy="131.025" r="14.4" fill="#009af9" fill-rule="evenodd" fill-opacity="1" stroke="#000000" stroke-opacity="1" stroke-width="3.2"/>
<circle clip-path="url(#clip762)" cx="2206.75" cy="122.245" r="14.4" fill="#009af9" fill-rule="evenodd" fill-opacity="1" stroke="#000000" stroke-opacity="1" stroke-width="3.2"/>
<circle clip-path="url(#clip762)" cx="2227.61" cy="113.551" r="14.4" fill="#009af9" fill-rule="evenodd" fill-opacity="1" stroke="#000000" stroke-opacity="1" stroke-width="3.2"/>
<circle clip-path="url(#clip762)" cx="2248.47" cy="104.942" r="14.4" fill="#009af9" fill-rule="evenodd" fill-opacity="1" stroke="#000000" stroke-opacity="1" stroke-width="3.2"/>
<circle clip-path="url(#clip762)" cx="2269.33" cy="96.4176" r="14.4" fill="#009af9" fill-rule="evenodd" fill-opacity="1" stroke="#000000" stroke-opacity="1" stroke-width="3.2"/>
<circle clip-path="url(#clip762)" cx="2290.18" cy="87.9763" r="14.4" fill="#009af9" fill-rule="evenodd" fill-opacity="1" stroke="#000000" stroke-opacity="1" stroke-width="3.2"/>
<path clip-path="url(#clip760)" d="M215.55 198.898 L733.699 198.898 L733.699 95.2176 L215.55 95.2176  Z" fill="#ffffff" fill-rule="evenodd" fill-opacity="1"/>
<polyline clip-path="url(#clip760)" style="stroke:#000000; stroke-linecap:round; stroke-linejoin:round; stroke-width:4; stroke-opacity:1; fill:none" points="215.55,198.898 733.699,198.898 733.699,95.2176 215.55,95.2176 215.55,198.898 "/>
<circle clip-path="url(#clip760)" cx="313.812" cy="147.058" r="20.48" fill="#009af9" fill-rule="evenodd" fill-opacity="1" stroke="#000000" stroke-opacity="1" stroke-width="4.55111"/>
<path clip-path="url(#clip760)" d="M428.579 128.319 L428.579 131.861 L424.505 131.861 Q422.213 131.861 421.31 132.787 Q420.431 133.713 420.431 136.12 L420.431 138.412 L427.445 138.412 L427.445 141.722 L420.431 141.722 L420.431 164.338 L416.148 164.338 L416.148 141.722 L412.074 141.722 L412.074 138.412 L416.148 138.412 L416.148 136.606 Q416.148 132.278 418.162 130.31 Q420.176 128.319 424.551 128.319 L428.579 128.319 Z" fill="#000000" fill-rule="nonzero" fill-opacity="1" /><path clip-path="url(#clip760)" d="M447.167 142.393 Q446.449 141.977 445.593 141.791 Q444.759 141.583 443.741 141.583 Q440.13 141.583 438.185 143.944 Q436.264 146.282 436.264 150.68 L436.264 164.338 L431.982 164.338 L431.982 138.412 L436.264 138.412 L436.264 142.44 Q437.607 140.078 439.759 138.944 Q441.912 137.787 444.991 137.787 Q445.431 137.787 445.963 137.856 Q446.496 137.903 447.144 138.018 L447.167 142.393 Z" fill="#000000" fill-rule="nonzero" fill-opacity="1" /><path clip-path="url(#clip760)" d="M451.634 138.412 L455.894 138.412 L455.894 164.338 L451.634 164.338 L451.634 138.412 M451.634 128.319 L455.894 128.319 L455.894 133.713 L451.634 133.713 L451.634 128.319 Z" fill="#000000" fill-rule="nonzero" fill-opacity="1" /><path clip-path="url(#clip760)" d="M483.463 139.407 L483.463 143.389 Q481.657 142.393 479.829 141.907 Q478.023 141.398 476.171 141.398 Q472.028 141.398 469.736 144.037 Q467.444 146.652 467.444 151.398 Q467.444 156.143 469.736 158.782 Q472.028 161.398 476.171 161.398 Q478.023 161.398 479.829 160.912 Q481.657 160.402 483.463 159.407 L483.463 163.342 Q481.681 164.176 479.759 164.592 Q477.861 165.009 475.708 165.009 Q469.852 165.009 466.403 161.328 Q462.954 157.648 462.954 151.398 Q462.954 145.055 466.426 141.421 Q469.921 137.787 475.986 137.787 Q477.954 137.787 479.829 138.203 Q481.704 138.597 483.463 139.407 Z" fill="#000000" fill-rule="nonzero" fill-opacity="1" /><path clip-path="url(#clip760)" d="M495.083 131.051 L495.083 138.412 L503.856 138.412 L503.856 141.722 L495.083 141.722 L495.083 155.796 Q495.083 158.967 495.94 159.87 Q496.819 160.773 499.481 160.773 L503.856 160.773 L503.856 164.338 L499.481 164.338 Q494.551 164.338 492.676 162.509 Q490.801 160.657 490.801 155.796 L490.801 141.722 L487.676 141.722 L487.676 138.412 L490.801 138.412 L490.801 131.051 L495.083 131.051 Z" fill="#000000" fill-rule="nonzero" fill-opacity="1" /><path clip-path="url(#clip760)" d="M509.458 138.412 L513.717 138.412 L513.717 164.338 L509.458 164.338 L509.458 138.412 M509.458 128.319 L513.717 128.319 L513.717 133.713 L509.458 133.713 L509.458 128.319 Z" fill="#000000" fill-rule="nonzero" fill-opacity="1" /><path clip-path="url(#clip760)" d="M532.676 141.398 Q529.25 141.398 527.259 144.083 Q525.268 146.745 525.268 151.398 Q525.268 156.051 527.236 158.736 Q529.227 161.398 532.676 161.398 Q536.078 161.398 538.069 158.713 Q540.06 156.027 540.06 151.398 Q540.06 146.791 538.069 144.106 Q536.078 141.398 532.676 141.398 M532.676 137.787 Q538.231 137.787 541.402 141.398 Q544.574 145.009 544.574 151.398 Q544.574 157.764 541.402 161.398 Q538.231 165.009 532.676 165.009 Q527.097 165.009 523.926 161.398 Q520.778 157.764 520.778 151.398 Q520.778 145.009 523.926 141.398 Q527.097 137.787 532.676 137.787 Z" fill="#000000" fill-rule="nonzero" fill-opacity="1" /><path clip-path="url(#clip760)" d="M573.185 148.689 L573.185 164.338 L568.925 164.338 L568.925 148.828 Q568.925 145.148 567.49 143.319 Q566.055 141.49 563.185 141.49 Q559.736 141.49 557.745 143.69 Q555.754 145.889 555.754 149.685 L555.754 164.338 L551.472 164.338 L551.472 138.412 L555.754 138.412 L555.754 142.44 Q557.282 140.102 559.342 138.944 Q561.425 137.787 564.134 137.787 Q568.601 137.787 570.893 140.565 Q573.185 143.319 573.185 148.689 Z" fill="#000000" fill-rule="nonzero" fill-opacity="1" /><path clip-path="url(#clip760)" d="M609.874 128.319 L609.874 131.861 L605.8 131.861 Q603.509 131.861 602.606 132.787 Q601.726 133.713 601.726 136.12 L601.726 138.412 L608.74 138.412 L608.74 141.722 L601.726 141.722 L601.726 164.338 L597.444 164.338 L597.444 141.722 L593.37 141.722 L593.37 138.412 L597.444 138.412 L597.444 136.606 Q597.444 132.278 599.458 130.31 Q601.472 128.319 605.847 128.319 L609.874 128.319 Z" fill="#000000" fill-rule="nonzero" fill-opacity="1" /><path clip-path="url(#clip760)" d="M623.485 141.398 Q620.059 141.398 618.069 144.083 Q616.078 146.745 616.078 151.398 Q616.078 156.051 618.046 158.736 Q620.036 161.398 623.485 161.398 Q626.888 161.398 628.879 158.713 Q630.87 156.027 630.87 151.398 Q630.87 146.791 628.879 144.106 Q626.888 141.398 623.485 141.398 M623.485 137.787 Q629.041 137.787 632.212 141.398 Q635.383 145.009 635.383 151.398 Q635.383 157.764 632.212 161.398 Q629.041 165.009 623.485 165.009 Q617.907 165.009 614.735 161.398 Q611.587 157.764 611.587 151.398 Q611.587 145.009 614.735 141.398 Q617.907 137.787 623.485 137.787 Z" fill="#000000" fill-rule="nonzero" fill-opacity="1" /><path clip-path="url(#clip760)" d="M657.467 142.393 Q656.749 141.977 655.893 141.791 Q655.059 141.583 654.041 141.583 Q650.43 141.583 648.485 143.944 Q646.564 146.282 646.564 150.68 L646.564 164.338 L642.282 164.338 L642.282 138.412 L646.564 138.412 L646.564 142.44 Q647.906 140.078 650.059 138.944 Q652.212 137.787 655.291 137.787 Q655.731 137.787 656.263 137.856 Q656.795 137.903 657.443 138.018 L657.467 142.393 Z" fill="#000000" fill-rule="nonzero" fill-opacity="1" /><path clip-path="url(#clip760)" d="M679.55 139.407 L679.55 143.389 Q677.744 142.393 675.916 141.907 Q674.11 141.398 672.258 141.398 Q668.115 141.398 665.823 144.037 Q663.531 146.652 663.531 151.398 Q663.531 156.143 665.823 158.782 Q668.115 161.398 672.258 161.398 Q674.11 161.398 675.916 160.912 Q677.744 160.402 679.55 159.407 L679.55 163.342 Q677.767 164.176 675.846 164.592 Q673.948 165.009 671.795 165.009 Q665.939 165.009 662.49 161.328 Q659.041 157.648 659.041 151.398 Q659.041 145.055 662.513 141.421 Q666.008 137.787 672.073 137.787 Q674.041 137.787 675.916 138.203 Q677.791 138.597 679.55 139.407 Z" fill="#000000" fill-rule="nonzero" fill-opacity="1" /><path clip-path="url(#clip760)" d="M709.133 150.31 L709.133 152.393 L689.55 152.393 Q689.828 156.791 692.189 159.106 Q694.573 161.398 698.809 161.398 Q701.263 161.398 703.554 160.796 Q705.869 160.194 708.138 158.99 L708.138 163.018 Q705.846 163.99 703.439 164.5 Q701.031 165.009 698.554 165.009 Q692.351 165.009 688.716 161.398 Q685.105 157.787 685.105 151.629 Q685.105 145.264 688.531 141.537 Q691.98 137.787 697.814 137.787 Q703.045 137.787 706.077 141.166 Q709.133 144.523 709.133 150.31 M704.874 149.06 Q704.827 145.565 702.906 143.481 Q701.008 141.398 697.86 141.398 Q694.295 141.398 692.142 143.412 Q690.013 145.426 689.689 149.083 L704.874 149.06 Z" fill="#000000" fill-rule="nonzero" fill-opacity="1" /></svg>
