<?xml version="1.0" encoding="utf-8"?>
<svg xmlns="http://www.w3.org/2000/svg" xmlns:xlink="http://www.w3.org/1999/xlink" width="600" height="400" viewBox="0 0 2400 1600">
<defs>
  <clipPath id="clip420">
    <rect x="0" y="0" width="2400" height="1600"/>
  </clipPath>
</defs>
<path clip-path="url(#clip420)" d="M0 1600 L2400 1600 L2400 0 L0 0  Z" fill="#ffffff" fill-rule="evenodd" fill-opacity="1"/>
<defs>
  <clipPath id="clip421">
    <rect x="112" y="47" width="2242" height="1377"/>
  </clipPath>
</defs>
<path clip-path="url(#clip420)" d="M112.177 1423.18 L2352.76 1423.18 L2352.76 47.2441 L112.177 47.2441  Z" fill="#ffffff" fill-rule="evenodd" fill-opacity="1"/>
<polyline clip-path="url(#clip421)" style="stroke:#000000; stroke-linecap:round; stroke-linejoin:round; stroke-width:2; stroke-opacity:0.1; fill:none" points="112.177,1423.18 112.177,47.2441 "/>
<polyline clip-path="url(#clip421)" style="stroke:#000000; stroke-linecap:round; stroke-linejoin:round; stroke-width:2; stroke-opacity:0.1; fill:none" points="610.084,1423.18 610.084,47.2441 "/>
<polyline clip-path="url(#clip421)" style="stroke:#000000; stroke-linecap:round; stroke-linejoin:round; stroke-width:2; stroke-opacity:0.1; fill:none" points="1107.99,1423.18 1107.99,47.2441 "/>
<polyline clip-path="url(#clip421)" style="stroke:#000000; stroke-linecap:round; stroke-linejoin:round; stroke-width:2; stroke-opacity:0.1; fill:none" points="1605.9,1423.18 1605.9,47.2441 "/>
<polyline clip-path="url(#clip421)" style="stroke:#000000; stroke-linecap:round; stroke-linejoin:round; stroke-width:2; stroke-opacity:0.1; fill:none" points="2103.8,1423.18 2103.8,47.2441 "/>
<polyline clip-path="url(#clip421)" style="stroke:#000000; stroke-linecap:round; stroke-linejoin:round; stroke-width:2; stroke-opacity:0.1; fill:none" points="112.177,1412.35 2352.76,1412.35 "/>
<polyline clip-path="url(#clip421)" style="stroke:#000000; stroke-linecap:round; stroke-linejoin:round; stroke-width:2; stroke-opacity:0.1; fill:none" points="112.177,1108.93 2352.76,1108.93 "/>
<polyline clip-path="url(#clip421)" style="stroke:#000000; stroke-linecap:round; stroke-linejoin:round; stroke-width:2; stroke-opacity:0.1; fill:none" points="112.177,805.52 2352.76,805.52 "/>
<polyline clip-path="url(#clip421)" style="stroke:#000000; stroke-linecap:round; stroke-linejoin:round; stroke-width:2; stroke-opacity:0.1; fill:none" points="112.177,502.106 2352.76,502.106 "/>
<polyline clip-path="url(#clip421)" style="stroke:#000000; stroke-linecap:round; stroke-linejoin:round; stroke-width:2; stroke-opacity:0.1; fill:none" points="112.177,198.693 2352.76,198.693 "/>
<polyline clip-path="url(#clip420)" style="stroke:#000000; stroke-linecap:round; stroke-linejoin:round; stroke-width:4; stroke-opacity:1; fill:none" points="112.177,1423.18 2352.76,1423.18 "/>
<polyline clip-path="url(#clip420)" style="stroke:#000000; stroke-linecap:round; stroke-linejoin:round; stroke-width:4; stroke-opacity:1; fill:none" points="112.177,1423.18 112.177,1404.28 "/>
<polyline clip-path="url(#clip420)" style="stroke:#000000; stroke-linecap:round; stroke-linejoin:round; stroke-width:4; stroke-opacity:1; fill:none" points="610.084,1423.18 610.084,1404.28 "/>
<polyline clip-path="url(#clip420)" style="stroke:#000000; stroke-linecap:round; stroke-linejoin:round; stroke-width:4; stroke-opacity:1; fill:none" points="1107.99,1423.18 1107.99,1404.28 "/>
<polyline clip-path="url(#clip420)" style="stroke:#000000; stroke-linecap:round; stroke-linejoin:round; stroke-width:4; stroke-opacity:1; fill:none" points="1605.9,1423.18 1605.9,1404.28 "/>
<polyline clip-path="url(#clip420)" style="stroke:#000000; stroke-linecap:round; stroke-linejoin:round; stroke-width:4; stroke-opacity:1; fill:none" points="2103.8,1423.18 2103.8,1404.28 "/>
<path clip-path="url(#clip420)" d="M112.177 1454.1 Q108.566 1454.1 106.737 1457.66 Q104.932 1461.2 104.932 1468.33 Q104.932 1475.44 106.737 1479.01 Q108.566 1482.55 112.177 1482.55 Q115.811 1482.55 117.617 1479.01 Q119.446 1475.44 119.446 1468.33 Q119.446 1461.2 117.617 1457.66 Q115.811 1454.1 112.177 1454.1 M112.177 1450.39 Q117.987 1450.39 121.043 1455 Q124.122 1459.58 124.122 1468.33 Q124.122 1477.06 121.043 1481.67 Q117.987 1486.25 112.177 1486.25 Q106.367 1486.25 103.288 1481.67 Q100.233 1477.06 100.233 1468.33 Q100.233 1459.58 103.288 1455 Q106.367 1450.39 112.177 1450.39 Z" fill="#000000" fill-rule="nonzero" fill-opacity="1" /><path clip-path="url(#clip420)" d="M584.771 1481.64 L592.41 1481.64 L592.41 1455.28 L584.1 1456.95 L584.1 1452.69 L592.364 1451.02 L597.04 1451.02 L597.04 1481.64 L604.678 1481.64 L604.678 1485.58 L584.771 1485.58 L584.771 1481.64 Z" fill="#000000" fill-rule="nonzero" fill-opacity="1" /><path clip-path="url(#clip420)" d="M624.123 1454.1 Q620.512 1454.1 618.683 1457.66 Q616.878 1461.2 616.878 1468.33 Q616.878 1475.44 618.683 1479.01 Q620.512 1482.55 624.123 1482.55 Q627.757 1482.55 629.563 1479.01 Q631.391 1475.44 631.391 1468.33 Q631.391 1461.2 629.563 1457.66 Q627.757 1454.1 624.123 1454.1 M624.123 1450.39 Q629.933 1450.39 632.989 1455 Q636.067 1459.58 636.067 1468.33 Q636.067 1477.06 632.989 1481.67 Q629.933 1486.25 624.123 1486.25 Q618.313 1486.25 615.234 1481.67 Q612.178 1477.06 612.178 1468.33 Q612.178 1459.58 615.234 1455 Q618.313 1450.39 624.123 1450.39 Z" fill="#000000" fill-rule="nonzero" fill-opacity="1" /><path clip-path="url(#clip420)" d="M1086.76 1481.64 L1103.08 1481.64 L1103.08 1485.58 L1081.14 1485.58 L1081.14 1481.64 Q1083.8 1478.89 1088.38 1474.26 Q1092.99 1469.61 1094.17 1468.27 Q1096.42 1465.74 1097.3 1464.01 Q1098.2 1462.25 1098.2 1460.56 Q1098.2 1457.8 1096.25 1456.07 Q1094.33 1454.33 1091.23 1454.33 Q1089.03 1454.33 1086.58 1455.09 Q1084.15 1455.86 1081.37 1457.41 L1081.37 1452.69 Q1084.19 1451.55 1086.65 1450.97 Q1089.1 1450.39 1091.14 1450.39 Q1096.51 1450.39 1099.7 1453.08 Q1102.9 1455.77 1102.9 1460.26 Q1102.9 1462.39 1102.09 1464.31 Q1101.3 1466.2 1099.19 1468.8 Q1098.61 1469.47 1095.51 1472.69 Q1092.41 1475.88 1086.76 1481.64 Z" fill="#000000" fill-rule="nonzero" fill-opacity="1" /><path clip-path="url(#clip420)" d="M1122.9 1454.1 Q1119.29 1454.1 1117.46 1457.66 Q1115.65 1461.2 1115.65 1468.33 Q1115.65 1475.44 1117.46 1479.01 Q1119.29 1482.55 1122.9 1482.55 Q1126.53 1482.55 1128.34 1479.01 Q1130.17 1475.44 1130.17 1468.33 Q1130.17 1461.2 1128.34 1457.66 Q1126.53 1454.1 1122.9 1454.1 M1122.9 1450.39 Q1128.71 1450.39 1131.76 1455 Q1134.84 1459.58 1134.84 1468.33 Q1134.84 1477.06 1131.76 1481.67 Q1128.71 1486.25 1122.9 1486.25 Q1117.09 1486.25 1114.01 1481.67 Q1110.95 1477.06 1110.95 1468.33 Q1110.95 1459.58 1114.01 1455 Q1117.09 1450.39 1122.9 1450.39 Z" fill="#000000" fill-rule="nonzero" fill-opacity="1" /><path clip-path="url(#clip420)" d="M1594.74 1466.95 Q1598.1 1467.66 1599.97 1469.93 Q1601.87 1472.2 1601.87 1475.53 Q1601.87 1480.65 1598.35 1483.45 Q1594.83 1486.25 1588.35 1486.25 Q1586.17 1486.25 1583.86 1485.81 Q1581.57 1485.39 1579.11 1484.54 L1579.11 1480.02 Q1581.06 1481.16 1583.37 1481.74 Q1585.69 1482.32 1588.21 1482.32 Q1592.61 1482.32 1594.9 1480.58 Q1597.22 1478.84 1597.22 1475.53 Q1597.22 1472.48 1595.06 1470.77 Q1592.93 1469.03 1589.11 1469.03 L1585.09 1469.03 L1585.09 1465.19 L1589.3 1465.19 Q1592.75 1465.19 1594.58 1463.82 Q1596.41 1462.43 1596.41 1459.84 Q1596.41 1457.18 1594.51 1455.77 Q1592.63 1454.33 1589.11 1454.33 Q1587.19 1454.33 1584.99 1454.75 Q1582.79 1455.16 1580.16 1456.04 L1580.16 1451.88 Q1582.82 1451.14 1585.13 1450.77 Q1587.47 1450.39 1589.53 1450.39 Q1594.85 1450.39 1597.96 1452.83 Q1601.06 1455.23 1601.06 1459.35 Q1601.06 1462.22 1599.41 1464.21 Q1597.77 1466.18 1594.74 1466.95 Z" fill="#000000" fill-rule="nonzero" fill-opacity="1" /><path clip-path="url(#clip420)" d="M1620.73 1454.1 Q1617.12 1454.1 1615.29 1457.66 Q1613.49 1461.2 1613.49 1468.33 Q1613.49 1475.44 1615.29 1479.01 Q1617.12 1482.55 1620.73 1482.55 Q1624.37 1482.55 1626.17 1479.01 Q1628 1475.44 1628 1468.33 Q1628 1461.2 1626.17 1457.66 Q1624.37 1454.1 1620.73 1454.1 M1620.73 1450.39 Q1626.54 1450.39 1629.6 1455 Q1632.68 1459.58 1632.68 1468.33 Q1632.68 1477.06 1629.6 1481.67 Q1626.54 1486.25 1620.73 1486.25 Q1614.92 1486.25 1611.85 1481.67 Q1608.79 1477.06 1608.79 1468.33 Q1608.79 1459.58 1611.85 1455 Q1614.92 1450.39 1620.73 1450.39 Z" fill="#000000" fill-rule="nonzero" fill-opacity="1" /><path clip-path="url(#clip420)" d="M2091.97 1455.09 L2080.17 1473.54 L2091.97 1473.54 L2091.97 1455.09 M2090.75 1451.02 L2096.63 1451.02 L2096.63 1473.54 L2101.56 1473.54 L2101.56 1477.43 L2096.63 1477.43 L2096.63 1485.58 L2091.97 1485.58 L2091.97 1477.43 L2076.37 1477.43 L2076.37 1472.92 L2090.75 1451.02 Z" fill="#000000" fill-rule="nonzero" fill-opacity="1" /><path clip-path="url(#clip420)" d="M2119.29 1454.1 Q2115.68 1454.1 2113.85 1457.66 Q2112.04 1461.2 2112.04 1468.33 Q2112.04 1475.44 2113.85 1479.01 Q2115.68 1482.55 2119.29 1482.55 Q2122.92 1482.55 2124.73 1479.01 Q2126.56 1475.44 2126.56 1468.33 Q2126.56 1461.2 2124.73 1457.66 Q2122.92 1454.1 2119.29 1454.1 M2119.29 1450.39 Q2125.1 1450.39 2128.15 1455 Q2131.23 1459.58 2131.23 1468.33 Q2131.23 1477.06 2128.15 1481.67 Q2125.1 1486.25 2119.29 1486.25 Q2113.48 1486.25 2110.4 1481.67 Q2107.34 1477.06 2107.34 1468.33 Q2107.34 1459.58 2110.4 1455 Q2113.48 1450.39 2119.29 1450.39 Z" fill="#000000" fill-rule="nonzero" fill-opacity="1" /><path clip-path="url(#clip420)" d="M1231.53 1522.27 L1231.53 1532.4 L1243.59 1532.4 L1243.59 1536.95 L1231.53 1536.95 L1231.53 1556.3 Q1231.53 1560.66 1232.71 1561.9 Q1233.91 1563.14 1237.58 1563.14 L1243.59 1563.14 L1243.59 1568.04 L1237.58 1568.04 Q1230.8 1568.04 1228.22 1565.53 Q1225.64 1562.98 1225.64 1556.3 L1225.64 1536.95 L1221.34 1536.95 L1221.34 1532.4 L1225.64 1532.4 L1225.64 1522.27 L1231.53 1522.27 Z" fill="#000000" fill-rule="nonzero" fill-opacity="1" /><polyline clip-path="url(#clip420)" style="stroke:#000000; stroke-linecap:round; stroke-linejoin:round; stroke-width:4; stroke-opacity:1; fill:none" points="112.177,1423.18 112.177,47.2441 "/>
<polyline clip-path="url(#clip420)" style="stroke:#000000; stroke-linecap:round; stroke-linejoin:round; stroke-width:4; stroke-opacity:1; fill:none" points="112.177,1412.35 131.075,1412.35 "/>
<polyline clip-path="url(#clip420)" style="stroke:#000000; stroke-linecap:round; stroke-linejoin:round; stroke-width:4; stroke-opacity:1; fill:none" points="112.177,1108.93 131.075,1108.93 "/>
<polyline clip-path="url(#clip420)" style="stroke:#000000; stroke-linecap:round; stroke-linejoin:round; stroke-width:4; stroke-opacity:1; fill:none" points="112.177,805.52 131.075,805.52 "/>
<polyline clip-path="url(#clip420)" style="stroke:#000000; stroke-linecap:round; stroke-linejoin:round; stroke-width:4; stroke-opacity:1; fill:none" points="112.177,502.106 131.075,502.106 "/>
<polyline clip-path="url(#clip420)" style="stroke:#000000; stroke-linecap:round; stroke-linejoin:round; stroke-width:4; stroke-opacity:1; fill:none" points="112.177,198.693 131.075,198.693 "/>
<path clip-path="url(#clip420)" d="M64.2328 1398.15 Q60.6217 1398.15 58.793 1401.71 Q56.9875 1405.25 56.9875 1412.38 Q56.9875 1419.49 58.793 1423.05 Q60.6217 1426.59 64.2328 1426.59 Q67.867 1426.59 69.6726 1423.05 Q71.5013 1419.49 71.5013 1412.38 Q71.5013 1405.25 69.6726 1401.71 Q67.867 1398.15 64.2328 1398.15 M64.2328 1394.44 Q70.0429 1394.44 73.0985 1399.05 Q76.1772 1403.63 76.1772 1412.38 Q76.1772 1421.11 73.0985 1425.72 Q70.0429 1430.3 64.2328 1430.3 Q58.4226 1430.3 55.344 1425.72 Q52.2884 1421.11 52.2884 1412.38 Q52.2884 1403.63 55.344 1399.05 Q58.4226 1394.44 64.2328 1394.44 Z" fill="#000000" fill-rule="nonzero" fill-opacity="1" /><path clip-path="url(#clip420)" d="M56.2699 1122.28 L63.9087 1122.28 L63.9087 1095.91 L55.5986 1097.58 L55.5986 1093.32 L63.8624 1091.65 L68.5383 1091.65 L68.5383 1122.28 L76.1772 1122.28 L76.1772 1126.21 L56.2699 1126.21 L56.2699 1122.28 Z" fill="#000000" fill-rule="nonzero" fill-opacity="1" /><path clip-path="url(#clip420)" d="M59.8578 818.865 L76.1772 818.865 L76.1772 822.8 L54.2328 822.8 L54.2328 818.865 Q56.8949 816.11 61.4782 811.481 Q66.0846 806.828 67.2652 805.485 Q69.5105 802.962 70.3902 801.226 Q71.2929 799.467 71.2929 797.777 Q71.2929 795.022 69.3485 793.286 Q67.4272 791.55 64.3254 791.55 Q62.1263 791.55 59.6726 792.314 Q57.2421 793.078 54.4643 794.629 L54.4643 789.907 Q57.2884 788.772 59.7421 788.194 Q62.1958 787.615 64.2328 787.615 Q69.6031 787.615 72.7976 790.3 Q75.992 792.985 75.992 797.476 Q75.992 799.606 75.1818 801.527 Q74.3948 803.425 72.2883 806.018 Q71.7096 806.689 68.6078 809.907 Q65.5059 813.101 59.8578 818.865 Z" fill="#000000" fill-rule="nonzero" fill-opacity="1" /><path clip-path="url(#clip420)" d="M69.0476 500.752 Q72.404 501.47 74.279 503.738 Q76.1772 506.007 76.1772 509.34 Q76.1772 514.456 72.6587 517.257 Q69.1402 520.058 62.6587 520.058 Q60.4828 520.058 58.168 519.618 Q55.8764 519.201 53.4227 518.345 L53.4227 513.831 Q55.3671 514.965 57.6819 515.544 Q59.9967 516.123 62.5198 516.123 Q66.918 516.123 69.2096 514.386 Q71.5244 512.65 71.5244 509.34 Q71.5244 506.285 69.3717 504.572 Q67.242 502.836 63.4226 502.836 L59.3949 502.836 L59.3949 498.993 L63.6078 498.993 Q67.0569 498.993 68.8855 497.627 Q70.7142 496.238 70.7142 493.646 Q70.7142 490.984 68.8161 489.572 Q66.9411 488.137 63.4226 488.137 Q61.5013 488.137 59.3023 488.553 Q57.1032 488.97 54.4643 489.85 L54.4643 485.683 Q57.1264 484.942 59.4412 484.572 Q61.7791 484.201 63.8393 484.201 Q69.1633 484.201 72.2652 486.632 Q75.367 489.039 75.367 493.16 Q75.367 496.03 73.7235 498.021 Q72.08 499.988 69.0476 500.752 Z" fill="#000000" fill-rule="nonzero" fill-opacity="1" /><path clip-path="url(#clip420)" d="M66.5939 185.487 L54.7884 203.936 L66.5939 203.936 L66.5939 185.487 M65.367 181.413 L71.2466 181.413 L71.2466 203.936 L76.1772 203.936 L76.1772 207.825 L71.2466 207.825 L71.2466 215.973 L66.5939 215.973 L66.5939 207.825 L50.9921 207.825 L50.9921 203.311 L65.367 181.413 Z" fill="#000000" fill-rule="nonzero" fill-opacity="1" /><polyline clip-path="url(#clip421)" style="stroke:#009af9; stroke-linecap:round; stroke-linejoin:round; stroke-width:24; stroke-opacity:1; fill:none" points="112.177,805.52 114.42,819.029 116.663,832.22 118.906,845.085 121.148,857.613 123.391,869.791 125.634,881.608 127.877,893.05 130.12,904.109 132.363,914.776 134.605,925.047 136.848,934.917 139.091,944.387 141.334,953.459 143.577,962.138 145.819,970.429 148.062,978.34 150.305,985.879 152.548,993.058 154.791,999.888 157.034,1006.38 159.276,1012.55 161.519,1018.4 163.762,1023.95 166.005,1029.22 168.248,1034.21 170.491,1038.94 172.733,1043.42 174.976,1047.66 177.219,1051.67 179.462,1055.47 181.705,1059.06 183.947,1062.45 186.19,1065.66 188.433,1068.69 190.676,1071.55 192.919,1074.26 195.162,1076.81 197.404,1079.22 199.647,1081.5 201.89,1083.65 204.133,1085.67 206.376,1087.58 208.619,1089.38 210.861,1091.07 213.104,1092.66 215.347,1094.16 217.59,1095.58 219.833,1096.9 222.075,1098.15 224.318,1099.32 226.561,1100.42 228.804,1101.45 231.047,1102.42 233.29,1103.32 235.532,1104.17 237.775,1104.96 240.018,1105.7 242.261,1106.39 244.504,1107.03 246.746,1107.62 248.989,1108.17 251.232,1108.68 253.475,1109.16 255.718,1109.59 257.961,1110 260.203,1110.36 262.446,1110.7 264.689,1111.01 266.932,1111.29 269.175,1111.54 271.418,1111.77 273.66,1111.97 275.903,1112.14 278.146,1112.3 280.389,1112.43 282.632,1112.55 284.874,1112.64 287.117,1112.71 289.36,1112.77 291.603,1112.81 293.846,1112.84 296.089,1112.85 298.331,1112.85 300.574,1112.83 302.817,1112.8 305.06,1112.75 307.303,1112.7 309.545,1112.63 311.788,1112.55 314.031,1112.46 316.274,1112.37 318.517,1112.26 320.76,1112.14 323.002,1112.01 325.245,1111.87 327.488,1111.73 329.731,1111.57 331.974,1111.41 334.217,1111.25 336.459,1111.07 338.702,1110.89 340.945,1110.7 343.188,1110.51 345.431,1110.31 347.673,1110.1 349.916,1109.89 352.159,1109.67 354.402,1109.45 356.645,1109.22 358.888,1108.99 361.13,1108.75 363.373,1108.5 365.616,1108.26 367.859,1108 370.102,1107.75 372.344,1107.49 374.587,1107.22 376.83,1106.95 379.073,1106.68 381.316,1106.4 383.559,1106.12 385.801,1105.83 388.044,1105.54 390.287,1105.25 392.53,1104.95 394.773,1104.66 397.016,1104.35 399.258,1104.05 401.501,1103.74 403.744,1103.43 405.987,1103.11 408.23,1102.79 410.472,1102.47 412.715,1102.15 414.958,1101.82 417.201,1101.49 419.444,1101.15 421.687,1100.82 423.929,1100.48 426.172,1100.13 428.415,1099.79 430.658,1099.44 432.901,1099.09 435.143,1098.73 437.386,1098.37 439.629,1098.01 441.872,1097.65 444.115,1097.29 446.358,1096.92 448.6,1096.55 450.843,1096.17 453.086,1095.79 455.329,1095.42 457.572,1095.03 459.815,1094.65 462.057,1094.26 464.3,1093.87 466.543,1093.48 468.786,1093.08 471.029,1092.69 473.271,1092.29 475.514,1091.88 477.757,1091.48 480,1091.07 482.243,1090.66 484.486,1090.24 486.728,1089.83 488.971,1089.41 491.214,1088.99 493.457,1088.56 495.7,1088.13 497.942,1087.7 500.185,1087.27 502.428,1086.84 504.671,1086.4 506.914,1085.96 509.157,1085.52 511.399,1085.07 513.642,1084.62 515.885,1084.17 518.128,1083.72 520.371,1083.26 522.614,1082.8 524.856,1082.34 527.099,1081.87 529.342,1081.41 531.585,1080.94 533.828,1080.46 536.07,1079.99 538.313,1079.51 540.556,1079.03 542.799,1078.55 545.042,1078.06 547.285,1077.57 549.527,1077.08 551.77,1076.59 554.013,1076.09 556.256,1075.59 558.499,1075.09 560.741,1074.59 562.984,1074.08 565.227,1073.57 567.47,1073.06 569.713,1072.54 571.956,1072.02 574.198,1071.5 576.441,1070.98 578.684,1070.45 580.927,1069.92 583.17,1069.39 585.413,1068.86 587.655,1068.32 589.898,1067.78 592.141,1067.24 594.384,1066.7 596.627,1066.15 598.869,1065.6 601.112,1065.05 603.355,1064.49 605.598,1063.93 607.841,1063.37 610.084,1062.81 612.326,1062.24 614.569,1061.68 616.812,1061.11 619.055,1060.53 621.298,1059.96 623.54,1059.38 625.783,1058.8 628.026,1058.21 630.269,1057.63 632.512,1057.04 634.755,1056.45 636.997,1055.85 639.24,1055.25 641.483,1054.66 643.726,1054.05 645.969,1053.45 648.212,1052.84 650.454,1052.23 652.697,1051.62 654.94,1051 657.183,1050.38 659.426,1049.76 661.668,1049.14 663.911,1048.51 666.154,1047.89 668.397,1047.26 670.64,1046.62 672.883,1045.99 675.125,1045.35 677.368,1044.71 679.611,1044.07 681.854,1043.42 684.097,1042.78 686.339,1042.13 688.582,1041.48 690.825,1040.82 693.068,1040.17 695.311,1039.51 697.554,1038.85 699.796,1038.19 702.039,1037.53 704.282,1036.86 706.525,1036.19 708.768,1035.52 711.011,1034.85 713.253,1034.18 715.496,1033.5 717.739,1032.83 719.982,1032.15 722.225,1031.47 724.467,1030.79 726.71,1030.1 728.953,1029.41 731.196,1028.73 733.439,1028.04 735.682,1027.35 737.924,1026.65 740.167,1025.96 742.41,1025.26 744.653,1024.56 746.896,1023.86 749.138,1023.16 751.381,1022.45 753.624,1021.75 755.867,1021.04 758.11,1020.33 760.353,1019.62 762.595,1018.91 764.838,1018.19 767.081,1017.48 769.324,1016.76 771.567,1016.04 773.81,1015.32 776.052,1014.6 778.295,1013.87 780.538,1013.15 782.781,1012.42 785.024,1011.69 787.266,1010.96 789.509,1010.22 791.752,1009.49 793.995,1008.75 796.238,1008.02 798.481,1007.28 800.723,1006.54 802.966,1005.8 805.209,1005.06 807.452,1004.32 809.695,1003.58 811.938,1002.84 814.18,1002.09 816.423,1001.35 818.666,1000.6 820.909,999.858 823.152,999.111 825.394,998.365 827.637,997.617 829.88,996.869 832.123,996.121 834.366,995.373 836.609,994.624 838.851,993.874 841.094,993.125 843.337,992.375 845.58,991.625 847.823,990.874 850.065,990.124 852.308,989.373 854.551,988.622 856.794,987.872 859.037,987.121 861.28,986.37 863.522,985.619 865.765,984.868 868.008,984.117 870.251,983.366 872.494,982.615 874.737,981.864 876.979,981.113 879.222,980.362 881.465,979.611 883.708,978.86 885.951,978.11 888.193,977.359 890.436,976.609 892.679,975.859 894.922,975.108 897.165,974.358 899.408,973.608 901.65,972.859 903.893,972.109 906.136,971.359 908.379,970.61 910.622,969.861 912.864,969.112 915.107,968.364 917.35,967.617 919.593,966.87 921.836,966.124 924.079,965.379 926.321,964.634 928.564,963.891 930.807,963.149 933.05,962.407 935.293,961.667 937.536,960.928 939.778,960.19 942.021,959.454 944.264,958.718 946.507,957.985 948.75,957.252 950.992,956.521 953.235,955.792 955.478,955.064 957.721,954.338 959.964,953.614 962.207,952.891 964.449,952.17 966.692,951.45 968.935,950.733 971.178,950.017 973.421,949.303 975.663,948.591 977.906,947.88 980.149,947.172 982.392,946.465 984.635,945.76 986.878,945.058 989.12,944.357 991.363,943.658 993.606,942.961 995.849,942.265 998.092,941.572 1000.33,940.881 1002.58,940.191 1004.82,939.504 1007.06,938.818 1009.31,938.134 1011.55,937.452 1013.79,936.772 1016.03,936.094 1018.28,935.417 1020.52,934.742 1022.76,934.069 1025.01,933.398 1027.25,932.728 1029.49,932.06 1031.73,931.394 1033.98,930.729 1036.22,930.066 1038.46,929.405 1040.71,928.745 1042.95,928.087 1045.19,927.432 1047.43,926.778 1049.68,926.127 1051.92,925.478 1054.16,924.831 1056.41,924.187 1058.65,923.545 1060.89,922.905 1063.13,922.268 1065.38,921.633 1067.62,921.001 1069.86,920.371 1072.1,919.744 1074.35,919.12 1076.59,918.498 1078.83,917.879 1081.08,917.263 1083.32,916.65 1085.56,916.039 1087.8,915.432 1090.05,914.827 1092.29,914.225 1094.53,913.626 1096.78,913.03 1099.02,912.436 1101.26,911.846 1103.5,911.258 1105.75,910.674 1107.99,910.092 1110.23,909.514 1112.48,908.938 1114.72,908.365 1116.96,907.795 1119.2,907.228 1121.45,906.664 1123.69,906.103 1125.93,905.545 1128.18,904.989 1130.42,904.437 1132.66,903.887 1134.9,903.34 1137.15,902.796 1139.39,902.255 1141.63,901.716 1143.88,901.18 1146.12,900.647 1148.36,900.116 1150.6,899.588 1152.85,899.063 1155.09,898.54 1157.33,898.019 1159.57,897.501 1161.82,896.986 1164.06,896.472 1166.3,895.961 1168.55,895.453 1170.79,894.946 1173.03,894.442 1175.27,893.94 1177.52,893.44 1179.76,892.943 1182,892.448 1184.25,891.957 1186.49,891.467 1188.73,890.981 1190.97,890.497 1193.22,890.015 1195.46,889.537 1197.7,889.061 1199.95,888.588 1202.19,888.118 1204.43,887.65 1206.67,887.186 1208.92,886.724 1211.16,886.265 1213.4,885.809 1215.65,885.356 1217.89,884.906 1220.13,884.459 1222.37,884.014 1224.62,883.573 1226.86,883.135 1229.1,882.699 1231.35,882.266 1233.59,881.837 1235.83,881.41 1238.07,880.986 1240.32,880.565 1242.56,880.147 1244.8,879.732 1247.04,879.319 1249.29,878.91 1251.53,878.503 1253.77,878.1 1256.02,877.699 1258.26,877.301 1260.5,876.905 1262.74,876.513 1264.99,876.123 1267.23,875.736 1269.47,875.351 1271.72,874.97 1273.96,874.591 1276.2,874.214 1278.44,873.84 1280.69,873.469 1282.93,873.1 1285.17,872.733 1287.42,872.369 1289.66,872.008 1291.9,871.648 1294.14,871.291 1296.39,870.936 1298.63,870.584 1300.87,870.233 1303.12,869.885 1305.36,869.539 1307.6,869.194 1309.84,868.852 1312.09,868.511 1314.33,868.173 1316.57,867.836 1318.82,867.501 1321.06,867.168 1323.3,866.837 1325.54,866.509 1327.79,866.182 1330.03,865.858 1332.27,865.536 1334.51,865.216 1336.76,864.899 1339,864.583 1341.24,864.27 1343.49,863.959 1345.73,863.651 1347.97,863.344 1350.21,863.04 1352.46,862.738 1354.7,862.438 1356.94,862.141 1359.19,861.846 1361.43,861.553 1363.67,861.262 1365.91,860.974 1368.16,860.688 1370.4,860.404 1372.64,860.122 1374.89,859.843 1377.13,859.566 1379.37,859.291 1381.61,859.018 1383.86,858.748 1386.1,858.48 1388.34,858.214 1390.59,857.95 1392.83,857.688 1395.07,857.429 1397.31,857.171 1399.56,856.916 1401.8,856.663 1404.04,856.411 1406.29,856.162 1408.53,855.915 1410.77,855.67 1413.01,855.428 1415.26,855.187 1417.5,854.948 1419.74,854.71 1421.98,854.475 1424.23,854.242 1426.47,854.011 1428.71,853.781 1430.96,853.553 1433.2,853.327 1435.44,853.103 1437.68,852.88 1439.93,852.659 1442.17,852.44 1444.41,852.222 1446.66,852.006 1448.9,851.792 1451.14,851.579 1453.38,851.367 1455.63,851.157 1457.87,850.948 1460.11,850.741 1462.36,850.534 1464.6,850.329 1466.84,850.126 1469.08,849.923 1471.33,849.722 1473.57,849.522 1475.81,849.324 1478.06,849.127 1480.3,848.931 1482.54,848.737 1484.78,848.545 1487.03,848.354 1489.27,848.164 1491.51,847.976 1493.76,847.789 1496,847.604 1498.24,847.42 1500.48,847.238 1502.73,847.057 1504.97,846.877 1507.21,846.7 1509.46,846.523 1511.7,846.348 1513.94,846.175 1516.18,846.003 1518.43,845.832 1520.67,845.663 1522.91,845.495 1525.15,845.329 1527.4,845.165 1529.64,845.001 1531.88,844.84 1534.13,844.679 1536.37,844.52 1538.61,844.363 1540.85,844.207 1543.1,844.052 1545.34,843.899 1547.58,843.747 1549.83,843.596 1552.07,843.447 1554.31,843.299 1556.55,843.153 1558.8,843.008 1561.04,842.864 1563.28,842.721 1565.53,842.58 1567.77,842.44 1570.01,842.302 1572.25,842.164 1574.5,842.028 1576.74,841.893 1578.98,841.759 1581.23,841.627 1583.47,841.495 1585.71,841.365 1587.95,841.236 1590.2,841.108 1592.44,840.981 1594.68,840.855 1596.93,840.73 1599.17,840.607 1601.41,840.484 1603.65,840.362 1605.9,840.241 1608.14,840.121 1610.38,840.002 1612.62,839.884 1614.87,839.767 1617.11,839.651 1619.35,839.535 1621.6,839.42 1623.84,839.306 1626.08,839.193 1628.32,839.081 1630.57,838.969 1632.81,838.857 1635.05,838.747 1637.3,838.637 1639.54,838.528 1641.78,838.419 1644.02,838.312 1646.27,838.205 1648.51,838.099 1650.75,837.994 1653,837.89 1655.24,837.787 1657.48,837.684 1659.72,837.582 1661.97,837.481 1664.21,837.381 1666.45,837.282 1668.7,837.183 1670.94,837.086 1673.18,836.989 1675.42,836.893 1677.67,836.798 1679.91,836.704 1682.15,836.61 1684.4,836.518 1686.64,836.426 1688.88,836.335 1691.12,836.245 1693.37,836.156 1695.61,836.067 1697.85,835.98 1700.09,835.893 1702.34,835.807 1704.58,835.722 1706.82,835.638 1709.07,835.554 1711.31,835.471 1713.55,835.389 1715.79,835.308 1718.04,835.228 1720.28,835.148 1722.52,835.07 1724.77,834.992 1727.01,834.914 1729.25,834.838 1731.49,834.762 1733.74,834.687 1735.98,834.613 1738.22,834.54 1740.47,834.467 1742.71,834.395 1744.95,834.323 1747.19,834.253 1749.44,834.183 1751.68,834.113 1753.92,834.045 1756.17,833.977 1758.41,833.909 1760.65,833.843 1762.89,833.777 1765.14,833.711 1767.38,833.646 1769.62,833.582 1771.87,833.518 1774.11,833.455 1776.35,833.393 1778.59,833.331 1780.84,833.269 1783.08,833.208 1785.32,833.147 1787.56,833.087 1789.81,833.028 1792.05,832.969 1794.29,832.91 1796.54,832.852 1798.78,832.794 1801.02,832.736 1803.26,832.679 1805.51,832.622 1807.75,832.566 1809.99,832.51 1812.24,832.454 1814.48,832.399 1816.72,832.343 1818.96,832.288 1821.21,832.234 1823.45,832.179 1825.69,832.125 1827.94,832.072 1830.18,832.018 1832.42,831.965 1834.66,831.913 1836.91,831.861 1839.15,831.809 1841.39,831.758 1843.64,831.707 1845.88,831.656 1848.12,831.606 1850.36,831.557 1852.61,831.507 1854.85,831.459 1857.09,831.41 1859.34,831.362 1861.58,831.315 1863.82,831.268 1866.06,831.221 1868.31,831.175 1870.55,831.129 1872.79,831.083 1875.03,831.038 1877.28,830.994 1879.52,830.95 1881.76,830.906 1884.01,830.863 1886.25,830.82 1888.49,830.778 1890.73,830.736 1892.98,830.694 1895.22,830.653 1897.46,830.612 1899.71,830.572 1901.95,830.532 1904.19,830.493 1906.43,830.454 1908.68,830.416 1910.92,830.378 1913.16,830.34 1915.41,830.303 1917.65,830.266 1919.89,830.229 1922.13,830.193 1924.38,830.158 1926.62,830.122 1928.86,830.088 1931.11,830.053 1933.35,830.019 1935.59,829.985 1937.83,829.952 1940.08,829.919 1942.32,829.886 1944.56,829.854 1946.81,829.822 1949.05,829.791 1951.29,829.759 1953.53,829.728 1955.78,829.698 1958.02,829.668 1960.26,829.638 1962.5,829.608 1964.75,829.579 1966.99,829.55 1969.23,829.521 1971.48,829.492 1973.72,829.464 1975.96,829.436 1978.2,829.408 1980.45,829.381 1982.69,829.354 1984.93,829.327 1987.18,829.3 1989.42,829.273 1991.66,829.247 1993.9,829.22 1996.15,829.194 1998.39,829.168 2000.63,829.143 2002.88,829.117 2005.12,829.091 2007.36,829.066 2009.6,829.041 2011.85,829.015 2014.09,828.99 2016.33,828.965 2018.58,828.94 2020.82,828.915 2023.06,828.89 2025.3,828.865 2027.55,828.84 2029.79,828.816 2032.03,828.791 2034.28,828.766 2036.52,828.742 2038.76,828.717 2041,828.693 2043.25,828.669 2045.49,828.645 2047.73,828.621 2049.97,828.597 2052.22,828.573 2054.46,828.55 2056.7,828.527 2058.95,828.503 2061.19,828.481 2063.43,828.458 2065.67,828.435 2067.92,828.413 2070.16,828.391 2072.4,828.369 2074.65,828.347 2076.89,828.325 2079.13,828.304 2081.37,828.283 2083.62,828.262 2085.86,828.241 2088.1,828.221 2090.35,828.201 2092.59,828.181 2094.83,828.161 2097.07,828.142 2099.32,828.122 2101.56,828.103 2103.8,828.085 2106.05,828.066 2108.29,828.048 2110.53,828.03 2112.77,828.012 2115.02,827.994 2117.26,827.977 2119.5,827.96 2121.75,827.943 2123.99,827.927 2126.23,827.91 2128.47,827.894 2130.72,827.879 2132.96,827.863 2135.2,827.848 2137.45,827.832 2139.69,827.818 2141.93,827.803 2144.17,827.789 2146.42,827.774 2148.66,827.76 2150.9,827.747 2153.14,827.733 2155.39,827.72 2157.63,827.707 2159.87,827.694 2162.12,827.681 2164.36,827.669 2166.6,827.656 2168.84,827.644 2171.09,827.632 2173.33,827.621 2175.57,827.609 2177.82,827.598 2180.06,827.586 2182.3,827.575 2184.54,827.564 2186.79,827.553 2189.03,827.543 2191.27,827.532 2193.52,827.522 2195.76,827.511 2198,827.501 2200.24,827.491 2202.49,827.481 2204.73,827.471 2206.97,827.461 2209.22,827.451 2211.46,827.441 2213.7,827.431 2215.94,827.422 2218.19,827.412 2220.43,827.402 2222.67,827.393 2224.92,827.383 2227.16,827.373 2229.4,827.363 2231.64,827.353 2233.89,827.343 2236.13,827.333 2238.37,827.323 2240.61,827.313 2242.86,827.303 2245.1,827.293 2247.34,827.282 2249.59,827.272 2251.83,827.261 2254.07,827.25 2256.31,827.239 2258.56,827.228 2260.8,827.217 2263.04,827.207 2265.29,827.196 2267.53,827.186 2269.77,827.176 2272.01,827.166 2274.26,827.156 2276.5,827.146 2278.74,827.136 2280.99,827.126 2283.23,827.117 2285.47,827.107 2287.71,827.098 2289.96,827.089 2292.2,827.08 2294.44,827.071 2296.69,827.062 2298.93,827.053 2301.17,827.044 2303.41,827.035 2305.66,827.027 2307.9,827.018 2310.14,827.01 2312.39,827.002 2314.63,826.994 2316.87,826.985 2319.11,826.977 2321.36,826.97 2323.6,826.962 2325.84,826.954 2328.08,826.946 2330.33,826.939 2332.57,826.931 2334.81,826.924 2337.06,826.916 2339.3,826.909 2341.54,826.902 2343.78,826.894 2346.03,826.887 2348.27,826.88 2350.51,826.873 2352.76,826.866 "/>
<polyline clip-path="url(#clip421)" style="stroke:#e26f46; stroke-linecap:round; stroke-linejoin:round; stroke-width:24; stroke-opacity:1; fill:none" points="112.177,1382.01 114.42,1355.96 116.663,1331.08 118.906,1307.34 121.148,1284.69 123.391,1263.1 125.634,1242.52 127.877,1222.92 130.12,1204.26 132.363,1186.5 134.605,1169.59 136.848,1153.52 139.091,1138.23 141.334,1123.69 143.577,1109.88 145.819,1096.75 148.062,1084.27 150.305,1072.42 152.548,1061.15 154.791,1050.45 157.034,1040.29 159.276,1030.63 161.519,1021.46 163.762,1012.74 166.005,1004.46 168.248,996.59 170.491,989.113 172.733,982.008 174.976,975.255 177.219,968.836 179.462,962.733 181.705,956.931 183.947,951.413 186.19,946.166 188.433,941.175 190.676,936.427 192.919,931.908 195.162,927.607 197.404,923.512 199.647,919.612 201.89,915.897 204.133,912.357 206.376,908.984 208.619,905.768 210.861,902.703 213.104,899.779 215.347,896.989 217.59,894.327 219.833,891.785 222.075,889.357 224.318,887.036 226.561,884.818 228.804,882.695 231.047,880.664 233.29,878.72 235.532,876.858 237.775,875.074 240.018,873.364 242.261,871.725 244.504,870.152 246.746,868.642 248.989,867.191 251.232,865.796 253.475,864.454 255.718,863.162 257.961,861.917 260.203,860.717 262.446,859.558 264.689,858.439 266.932,857.358 269.175,856.314 271.418,855.303 273.66,854.324 275.903,853.376 278.146,852.457 280.389,851.565 282.632,850.699 284.874,849.857 287.117,849.037 289.36,848.238 291.603,847.46 293.846,846.7 296.089,845.957 298.331,845.231 300.574,844.52 302.817,843.823 305.06,843.14 307.303,842.47 309.545,841.813 311.788,841.167 314.031,840.532 316.274,839.907 318.517,839.292 320.76,838.685 323.002,838.087 325.245,837.496 327.488,836.912 329.731,836.335 331.974,835.764 334.217,835.198 336.459,834.637 338.702,834.08 340.945,833.527 343.188,832.977 345.431,832.431 347.673,831.887 349.916,831.347 352.159,830.808 354.402,830.272 356.645,829.738 358.888,829.206 361.13,828.675 363.373,828.145 365.616,827.616 367.859,827.088 370.102,826.561 372.344,826.034 374.587,825.507 376.83,824.98 379.073,824.453 381.316,823.926 383.559,823.397 385.801,822.868 388.044,822.338 390.287,821.806 392.53,821.273 394.773,820.738 397.016,820.202 399.258,819.664 401.501,819.124 403.744,818.582 405.987,818.038 408.23,817.492 410.472,816.944 412.715,816.394 414.958,815.842 417.201,815.287 419.444,814.73 421.687,814.171 423.929,813.609 426.172,813.044 428.415,812.477 430.658,811.907 432.901,811.334 435.143,810.759 437.386,810.18 439.629,809.599 441.872,809.014 444.115,808.426 446.358,807.835 448.6,807.24 450.843,806.642 453.086,806.041 455.329,805.436 457.572,804.827 459.815,804.215 462.057,803.599 464.3,802.979 466.543,802.356 468.786,801.729 471.029,801.098 473.271,800.464 475.514,799.826 477.757,799.184 480,798.538 482.243,797.888 484.486,797.234 486.728,796.577 488.971,795.915 491.214,795.25 493.457,794.581 495.7,793.907 497.942,793.23 500.185,792.548 502.428,791.863 504.671,791.173 506.914,790.479 509.157,789.781 511.399,789.079 513.642,788.372 515.885,787.661 518.128,786.946 520.371,786.227 522.614,785.503 524.856,784.775 527.099,784.042 529.342,783.305 531.585,782.563 533.828,781.817 536.07,781.066 538.313,780.311 540.556,779.551 542.799,778.787 545.042,778.018 547.285,777.245 549.527,776.467 551.77,775.684 554.013,774.897 556.256,774.105 558.499,773.309 560.741,772.508 562.984,771.702 565.227,770.891 567.47,770.076 569.713,769.256 571.956,768.432 574.198,767.602 576.441,766.768 578.684,765.929 580.927,765.085 583.17,764.236 585.413,763.382 587.655,762.524 589.898,761.66 592.141,760.792 594.384,759.919 596.627,759.041 598.869,758.158 601.112,757.27 603.355,756.377 605.598,755.48 607.841,754.577 610.084,753.669 612.326,752.757 614.569,751.839 616.812,750.917 619.055,749.99 621.298,749.057 623.54,748.12 625.783,747.178 628.026,746.231 630.269,745.279 632.512,744.321 634.755,743.359 636.997,742.392 639.24,741.42 641.483,740.444 643.726,739.462 645.969,738.475 648.212,737.485 650.454,736.489 652.697,735.489 654.94,734.484 657.183,733.475 659.426,732.461 661.668,731.441 663.911,730.417 666.154,729.389 668.397,728.355 670.64,727.316 672.883,726.272 675.125,725.223 677.368,724.169 679.611,723.11 681.854,722.046 684.097,720.976 686.339,719.902 688.582,718.822 690.825,717.737 693.068,716.647 695.311,715.552 697.554,714.451 699.796,713.346 702.039,712.235 704.282,711.119 706.525,709.998 708.768,708.872 711.011,707.74 713.253,706.604 715.496,705.462 717.739,704.316 719.982,703.164 722.225,702.007 724.467,700.845 726.71,699.679 728.953,698.507 731.196,697.331 733.439,696.149 735.682,694.963 737.924,693.772 740.167,692.577 742.41,691.377 744.653,690.172 746.896,688.963 749.138,687.749 751.381,686.531 753.624,685.309 755.867,684.082 758.11,682.851 760.353,681.616 762.595,680.377 764.838,679.134 767.081,677.888 769.324,676.637 771.567,675.383 773.81,674.125 776.052,672.864 778.295,671.599 780.538,670.331 782.781,669.059 785.024,667.784 787.266,666.505 789.509,665.223 791.752,663.936 793.995,662.646 796.238,661.352 798.481,660.055 800.723,658.753 802.966,657.448 805.209,656.139 807.452,654.827 809.695,653.51 811.938,652.19 814.18,650.866 816.423,649.538 818.666,648.207 820.909,646.871 823.152,645.532 825.394,644.19 827.637,642.844 829.88,641.494 832.123,640.141 834.366,638.784 836.609,637.423 838.851,636.06 841.094,634.693 843.337,633.322 845.58,631.949 847.823,630.572 850.065,629.192 852.308,627.808 854.551,626.422 856.794,625.033 859.037,623.641 861.28,622.247 863.522,620.849 865.765,619.449 868.008,618.047 870.251,616.642 872.494,615.235 874.737,613.825 876.979,612.414 879.222,611 881.465,609.585 883.708,608.167 885.951,606.748 888.193,605.328 890.436,603.906 892.679,602.482 894.922,601.058 897.165,599.633 899.408,598.206 901.65,596.779 903.893,595.351 906.136,593.923 908.379,592.494 910.622,591.064 912.864,589.634 915.107,588.203 917.35,586.771 919.593,585.338 921.836,583.904 924.079,582.47 926.321,581.034 928.564,579.597 930.807,578.16 933.05,576.722 935.293,575.282 937.536,573.842 939.778,572.401 942.021,570.958 944.264,569.515 946.507,568.071 948.75,566.626 950.992,565.181 953.235,563.734 955.478,562.287 957.721,560.839 959.964,559.39 962.207,557.941 964.449,556.491 966.692,555.041 968.935,553.59 971.178,552.139 973.421,550.688 975.663,549.236 977.906,547.784 980.149,546.332 982.392,544.881 984.635,543.429 986.878,541.978 989.12,540.527 991.363,539.076 993.606,537.626 995.849,536.177 998.092,534.729 1000.33,533.281 1002.58,531.835 1004.82,530.39 1007.06,528.946 1009.31,527.504 1011.55,526.063 1013.79,524.624 1016.03,523.187 1018.28,521.752 1020.52,520.32 1022.76,518.89 1025.01,517.463 1027.25,516.038 1029.49,514.617 1031.73,513.198 1033.98,511.783 1036.22,510.372 1038.46,508.964 1040.71,507.559 1042.95,506.157 1045.19,504.758 1047.43,503.362 1049.68,501.968 1051.92,500.578 1054.16,499.189 1056.41,497.804 1058.65,496.421 1060.89,495.041 1063.13,493.664 1065.38,492.288 1067.62,490.916 1069.86,489.546 1072.1,488.178 1074.35,486.813 1076.59,485.451 1078.83,484.09 1081.08,482.733 1083.32,481.378 1085.56,480.025 1087.8,478.675 1090.05,477.327 1092.29,475.982 1094.53,474.64 1096.78,473.3 1099.02,471.963 1101.26,470.628 1103.5,469.296 1105.75,467.968 1107.99,466.641 1110.23,465.318 1112.48,463.998 1114.72,462.681 1116.96,461.367 1119.2,460.056 1121.45,458.749 1123.69,457.444 1125.93,456.144 1128.18,454.846 1130.42,453.553 1132.66,452.263 1134.9,450.976 1137.15,449.694 1139.39,448.416 1141.63,447.142 1143.88,445.872 1146.12,444.607 1148.36,443.346 1150.6,442.09 1152.85,440.838 1155.09,439.592 1157.33,438.35 1159.57,437.114 1161.82,435.883 1164.06,434.657 1166.3,433.438 1168.55,432.224 1170.79,431.016 1173.03,429.814 1175.27,428.617 1177.52,427.427 1179.76,426.241 1182,425.06 1184.25,423.885 1186.49,422.715 1188.73,421.55 1190.97,420.389 1193.22,419.234 1195.46,418.083 1197.7,416.937 1199.95,415.796 1202.19,414.659 1204.43,413.527 1206.67,412.399 1208.92,411.276 1211.16,410.157 1213.4,409.043 1215.65,407.933 1217.89,406.827 1220.13,405.726 1222.37,404.629 1224.62,403.536 1226.86,402.448 1229.1,401.363 1231.35,400.283 1233.59,399.207 1235.83,398.136 1238.07,397.068 1240.32,396.005 1242.56,394.946 1244.8,393.891 1247.04,392.841 1249.29,391.795 1251.53,390.753 1253.77,389.716 1256.02,388.683 1258.26,387.654 1260.5,386.63 1262.74,385.61 1264.99,384.595 1267.23,383.585 1269.47,382.579 1271.72,381.578 1273.96,380.582 1276.2,379.59 1278.44,378.604 1280.69,377.622 1282.93,376.646 1285.17,375.675 1287.42,374.708 1289.66,373.748 1291.9,372.792 1294.14,371.842 1296.39,370.898 1298.63,369.96 1300.87,369.027 1303.12,368.1 1305.36,367.179 1307.6,366.265 1309.84,365.356 1312.09,364.454 1314.33,363.559 1316.57,362.67 1318.82,361.787 1321.06,360.909 1323.3,360.038 1325.54,359.171 1327.79,358.31 1330.03,357.455 1332.27,356.604 1334.51,355.759 1336.76,354.919 1339,354.084 1341.24,353.254 1343.49,352.428 1345.73,351.608 1347.97,350.792 1350.21,349.981 1352.46,349.174 1354.7,348.372 1356.94,347.575 1359.19,346.782 1361.43,345.993 1363.67,345.209 1365.91,344.429 1368.16,343.653 1370.4,342.882 1372.64,342.115 1374.89,341.352 1377.13,340.593 1379.37,339.839 1381.61,339.088 1383.86,338.342 1386.1,337.6 1388.34,336.861 1390.59,336.127 1392.83,335.397 1395.07,334.671 1397.31,333.949 1399.56,333.231 1401.8,332.517 1404.04,331.807 1406.29,331.101 1408.53,330.4 1410.77,329.702 1413.01,329.008 1415.26,328.319 1417.5,327.633 1419.74,326.952 1421.98,326.275 1424.23,325.602 1426.47,324.934 1428.71,324.269 1430.96,323.609 1433.2,322.954 1435.44,322.302 1437.68,321.656 1439.93,321.013 1442.17,320.375 1444.41,319.742 1446.66,319.113 1448.9,318.489 1451.14,317.87 1453.38,317.256 1455.63,316.646 1457.87,316.042 1460.11,315.442 1462.36,314.848 1464.6,314.259 1466.84,313.675 1469.08,313.096 1471.33,312.522 1473.57,311.952 1475.81,311.387 1478.06,310.827 1480.3,310.27 1482.54,309.718 1484.78,309.17 1487.03,308.626 1489.27,308.086 1491.51,307.549 1493.76,307.017 1496,306.489 1498.24,305.964 1500.48,305.443 1502.73,304.926 1504.97,304.412 1507.21,303.902 1509.46,303.395 1511.7,302.892 1513.94,302.392 1516.18,301.895 1518.43,301.402 1520.67,300.912 1522.91,300.426 1525.15,299.942 1527.4,299.462 1529.64,298.985 1531.88,298.511 1534.13,298.04 1536.37,297.572 1538.61,297.107 1540.85,296.645 1543.1,296.186 1545.34,295.73 1547.58,295.277 1549.83,294.827 1552.07,294.38 1554.31,293.936 1556.55,293.494 1558.8,293.056 1561.04,292.62 1563.28,292.187 1565.53,291.757 1567.77,291.33 1570.01,290.906 1572.25,290.484 1574.5,290.066 1576.74,289.65 1578.98,289.237 1581.23,288.827 1583.47,288.42 1585.71,288.016 1587.95,287.614 1590.2,287.216 1592.44,286.82 1594.68,286.428 1596.93,286.038 1599.17,285.652 1601.41,285.268 1603.65,284.888 1605.9,284.51 1608.14,284.136 1610.38,283.765 1612.62,283.397 1614.87,283.032 1617.11,282.671 1619.35,282.312 1621.6,281.957 1623.84,281.606 1626.08,281.258 1628.32,280.913 1630.57,280.572 1632.81,280.234 1635.05,279.9 1637.3,279.569 1639.54,279.241 1641.78,278.916 1644.02,278.594 1646.27,278.275 1648.51,277.958 1650.75,277.645 1653,277.334 1655.24,277.025 1657.48,276.719 1659.72,276.416 1661.97,276.115 1664.21,275.816 1666.45,275.52 1668.7,275.226 1670.94,274.934 1673.18,274.645 1675.42,274.358 1677.67,274.073 1679.91,273.79 1682.15,273.51 1684.4,273.231 1686.64,272.955 1688.88,272.681 1691.12,272.408 1693.37,272.138 1695.61,271.869 1697.85,271.603 1700.09,271.338 1702.34,271.075 1704.58,270.814 1706.82,270.555 1709.07,270.298 1711.31,270.042 1713.55,269.788 1715.79,269.536 1718.04,269.286 1720.28,269.037 1722.52,268.79 1724.77,268.545 1727.01,268.301 1729.25,268.06 1731.49,267.819 1733.74,267.581 1735.98,267.344 1738.22,267.108 1740.47,266.875 1742.71,266.643 1744.95,266.412 1747.19,266.183 1749.44,265.956 1751.68,265.731 1753.92,265.507 1756.17,265.284 1758.41,265.064 1760.65,264.845 1762.89,264.627 1765.14,264.411 1767.38,264.197 1769.62,263.985 1771.87,263.774 1774.11,263.565 1776.35,263.358 1778.59,263.152 1780.84,262.948 1783.08,262.746 1785.32,262.546 1787.56,262.347 1789.81,262.15 1792.05,261.955 1794.29,261.762 1796.54,261.571 1798.78,261.381 1801.02,261.194 1803.26,261.008 1805.51,260.825 1807.75,260.643 1809.99,260.464 1812.24,260.286 1814.48,260.111 1816.72,259.938 1818.96,259.767 1821.21,259.598 1823.45,259.43 1825.69,259.265 1827.94,259.101 1830.18,258.939 1832.42,258.778 1834.66,258.619 1836.91,258.462 1839.15,258.305 1841.39,258.151 1843.64,257.998 1845.88,257.846 1848.12,257.695 1850.36,257.546 1852.61,257.398 1854.85,257.252 1857.09,257.107 1859.34,256.962 1861.58,256.819 1863.82,256.678 1866.06,256.537 1868.31,256.397 1870.55,256.259 1872.79,256.122 1875.03,255.985 1877.28,255.85 1879.52,255.715 1881.76,255.582 1884.01,255.45 1886.25,255.318 1888.49,255.187 1890.73,255.058 1892.98,254.929 1895.22,254.801 1897.46,254.674 1899.71,254.548 1901.95,254.422 1904.19,254.298 1906.43,254.174 1908.68,254.051 1910.92,253.929 1913.16,253.807 1915.41,253.687 1917.65,253.567 1919.89,253.447 1922.13,253.329 1924.38,253.211 1926.62,253.094 1928.86,252.978 1931.11,252.863 1933.35,252.748 1935.59,252.634 1937.83,252.521 1940.08,252.408 1942.32,252.296 1944.56,252.185 1946.81,252.075 1949.05,251.965 1951.29,251.856 1953.53,251.748 1955.78,251.641 1958.02,251.534 1960.26,251.428 1962.5,251.323 1964.75,251.219 1966.99,251.116 1969.23,251.013 1971.48,250.911 1973.72,250.81 1975.96,250.71 1978.2,250.61 1980.45,250.512 1982.69,250.414 1984.93,250.318 1987.18,250.222 1989.42,250.127 1991.66,250.033 1993.9,249.94 1996.15,249.848 1998.39,249.757 2000.63,249.668 2002.88,249.579 2005.12,249.491 2007.36,249.404 2009.6,249.319 2011.85,249.235 2014.09,249.151 2016.33,249.069 2018.58,248.989 2020.82,248.909 2023.06,248.831 2025.3,248.754 2027.55,248.679 2029.79,248.604 2032.03,248.531 2034.28,248.458 2036.52,248.387 2038.76,248.317 2041,248.247 2043.25,248.178 2045.49,248.111 2047.73,248.043 2049.97,247.977 2052.22,247.912 2054.46,247.847 2056.7,247.783 2058.95,247.719 2061.19,247.656 2063.43,247.594 2065.67,247.532 2067.92,247.471 2070.16,247.411 2072.4,247.351 2074.65,247.291 2076.89,247.232 2079.13,247.173 2081.37,247.115 2083.62,247.057 2085.86,246.999 2088.1,246.942 2090.35,246.885 2092.59,246.828 2094.83,246.772 2097.07,246.716 2099.32,246.66 2101.56,246.605 2103.8,246.549 2106.05,246.494 2108.29,246.439 2110.53,246.385 2112.77,246.33 2115.02,246.276 2117.26,246.222 2119.5,246.168 2121.75,246.114 2123.99,246.061 2126.23,246.007 2128.47,245.954 2130.72,245.901 2132.96,245.848 2135.2,245.795 2137.45,245.742 2139.69,245.69 2141.93,245.637 2144.17,245.585 2146.42,245.533 2148.66,245.481 2150.9,245.429 2153.14,245.377 2155.39,245.325 2157.63,245.274 2159.87,245.222 2162.12,245.171 2164.36,245.12 2166.6,245.069 2168.84,245.019 2171.09,244.968 2173.33,244.918 2175.57,244.868 2177.82,244.819 2180.06,244.769 2182.3,244.72 2184.54,244.671 2186.79,244.622 2189.03,244.574 2191.27,244.526 2193.52,244.478 2195.76,244.431 2198,244.384 2200.24,244.338 2202.49,244.292 2204.73,244.246 2206.97,244.201 2209.22,244.156 2211.46,244.112 2213.7,244.068 2215.94,244.025 2218.19,243.983 2220.43,243.941 2222.67,243.9 2224.92,243.86 2227.16,243.82 2229.4,243.781 2231.64,243.743 2233.89,243.705 2236.13,243.668 2238.37,243.633 2240.61,243.598 2242.86,243.564 2245.1,243.531 2247.34,243.499 2249.59,243.468 2251.83,243.438 2254.07,243.41 2256.31,243.381 2258.56,243.353 2260.8,243.325 2263.04,243.298 2265.29,243.27 2267.53,243.243 2269.77,243.215 2272.01,243.188 2274.26,243.161 2276.5,243.135 2278.74,243.108 2280.99,243.081 2283.23,243.055 2285.47,243.029 2287.71,243.003 2289.96,242.977 2292.2,242.951 2294.44,242.926 2296.69,242.9 2298.93,242.875 2301.17,242.85 2303.41,242.825 2305.66,242.801 2307.9,242.776 2310.14,242.752 2312.39,242.727 2314.63,242.703 2316.87,242.679 2319.11,242.656 2321.36,242.632 2323.6,242.609 2325.84,242.585 2328.08,242.562 2330.33,242.539 2332.57,242.517 2334.81,242.494 2337.06,242.472 2339.3,242.449 2341.54,242.427 2343.78,242.405 2346.03,242.384 2348.27,242.362 2350.51,242.341 2352.76,242.32 "/>
<circle clip-path="url(#clip421)" cx="112.177" cy="828.194" r="21.6" fill="#009af9" fill-rule="evenodd" fill-opacity="0.7" stroke="#000000" stroke-opacity="0.7" stroke-width="3.2"/>
<circle clip-path="url(#clip421)" cx="230.102" cy="1084.87" r="21.6" fill="#009af9" fill-rule="evenodd" fill-opacity="0.7" stroke="#000000" stroke-opacity="0.7" stroke-width="3.2"/>
<circle clip-path="url(#clip421)" cx="348.028" cy="1077.25" r="21.6" fill="#009af9" fill-rule="evenodd" fill-opacity="0.7" stroke="#000000" stroke-opacity="0.7" stroke-width="3.2"/>
<circle clip-path="url(#clip421)" cx="465.953" cy="1149.37" r="21.6" fill="#009af9" fill-rule="evenodd" fill-opacity="0.7" stroke="#000000" stroke-opacity="0.7" stroke-width="3.2"/>
<circle clip-path="url(#clip421)" cx="583.878" cy="1126.16" r="21.6" fill="#009af9" fill-rule="evenodd" fill-opacity="0.7" stroke="#000000" stroke-opacity="0.7" stroke-width="3.2"/>
<circle clip-path="url(#clip421)" cx="701.803" cy="990.013" r="21.6" fill="#009af9" fill-rule="evenodd" fill-opacity="0.7" stroke="#000000" stroke-opacity="0.7" stroke-width="3.2"/>
<circle clip-path="url(#clip421)" cx="819.728" cy="928.771" r="21.6" fill="#009af9" fill-rule="evenodd" fill-opacity="0.7" stroke="#000000" stroke-opacity="0.7" stroke-width="3.2"/>
<circle clip-path="url(#clip421)" cx="937.654" cy="871.26" r="21.6" fill="#009af9" fill-rule="evenodd" fill-opacity="0.7" stroke="#000000" stroke-opacity="0.7" stroke-width="3.2"/>
<circle clip-path="url(#clip421)" cx="1055.58" cy="843.071" r="21.6" fill="#009af9" fill-rule="evenodd" fill-opacity="0.7" stroke="#000000" stroke-opacity="0.7" stroke-width="3.2"/>
<circle clip-path="url(#clip421)" cx="1173.5" cy="846.462" r="21.6" fill="#009af9" fill-rule="evenodd" fill-opacity="0.7" stroke="#000000" stroke-opacity="0.7" stroke-width="3.2"/>
<circle clip-path="url(#clip421)" cx="1291.43" cy="856.788" r="21.6" fill="#009af9" fill-rule="evenodd" fill-opacity="0.7" stroke="#000000" stroke-opacity="0.7" stroke-width="3.2"/>
<circle clip-path="url(#clip421)" cx="1409.35" cy="854.088" r="21.6" fill="#009af9" fill-rule="evenodd" fill-opacity="0.7" stroke="#000000" stroke-opacity="0.7" stroke-width="3.2"/>
<circle clip-path="url(#clip421)" cx="1527.28" cy="794.522" r="21.6" fill="#009af9" fill-rule="evenodd" fill-opacity="0.7" stroke="#000000" stroke-opacity="0.7" stroke-width="3.2"/>
<circle clip-path="url(#clip421)" cx="1645.2" cy="884.86" r="21.6" fill="#009af9" fill-rule="evenodd" fill-opacity="0.7" stroke="#000000" stroke-opacity="0.7" stroke-width="3.2"/>
<circle clip-path="url(#clip421)" cx="1763.13" cy="796.032" r="21.6" fill="#009af9" fill-rule="evenodd" fill-opacity="0.7" stroke="#000000" stroke-opacity="0.7" stroke-width="3.2"/>
<circle clip-path="url(#clip421)" cx="1881.06" cy="784.327" r="21.6" fill="#009af9" fill-rule="evenodd" fill-opacity="0.7" stroke="#000000" stroke-opacity="0.7" stroke-width="3.2"/>
<circle clip-path="url(#clip421)" cx="1998.98" cy="859.823" r="21.6" fill="#009af9" fill-rule="evenodd" fill-opacity="0.7" stroke="#000000" stroke-opacity="0.7" stroke-width="3.2"/>
<circle clip-path="url(#clip421)" cx="2116.91" cy="932" r="21.6" fill="#009af9" fill-rule="evenodd" fill-opacity="0.7" stroke="#000000" stroke-opacity="0.7" stroke-width="3.2"/>
<circle clip-path="url(#clip421)" cx="2234.83" cy="861.166" r="21.6" fill="#009af9" fill-rule="evenodd" fill-opacity="0.7" stroke="#000000" stroke-opacity="0.7" stroke-width="3.2"/>
<circle clip-path="url(#clip421)" cx="2352.76" cy="755.084" r="21.6" fill="#009af9" fill-rule="evenodd" fill-opacity="0.7" stroke="#000000" stroke-opacity="0.7" stroke-width="3.2"/>
<circle clip-path="url(#clip421)" cx="112.177" cy="1384.24" r="21.6" fill="#e26f46" fill-rule="evenodd" fill-opacity="0.7" stroke="#000000" stroke-opacity="0.7" stroke-width="3.2"/>
<circle clip-path="url(#clip421)" cx="230.102" cy="843.402" r="21.6" fill="#e26f46" fill-rule="evenodd" fill-opacity="0.7" stroke="#000000" stroke-opacity="0.7" stroke-width="3.2"/>
<circle clip-path="url(#clip421)" cx="348.028" cy="910.944" r="21.6" fill="#e26f46" fill-rule="evenodd" fill-opacity="0.7" stroke="#000000" stroke-opacity="0.7" stroke-width="3.2"/>
<circle clip-path="url(#clip421)" cx="465.953" cy="796.412" r="21.6" fill="#e26f46" fill-rule="evenodd" fill-opacity="0.7" stroke="#000000" stroke-opacity="0.7" stroke-width="3.2"/>
<circle clip-path="url(#clip421)" cx="583.878" cy="870.895" r="21.6" fill="#e26f46" fill-rule="evenodd" fill-opacity="0.7" stroke="#000000" stroke-opacity="0.7" stroke-width="3.2"/>
<circle clip-path="url(#clip421)" cx="701.803" cy="843.324" r="21.6" fill="#e26f46" fill-rule="evenodd" fill-opacity="0.7" stroke="#000000" stroke-opacity="0.7" stroke-width="3.2"/>
<circle clip-path="url(#clip421)" cx="819.728" cy="537.688" r="21.6" fill="#e26f46" fill-rule="evenodd" fill-opacity="0.7" stroke="#000000" stroke-opacity="0.7" stroke-width="3.2"/>
<circle clip-path="url(#clip421)" cx="937.654" cy="472.22" r="21.6" fill="#e26f46" fill-rule="evenodd" fill-opacity="0.7" stroke="#000000" stroke-opacity="0.7" stroke-width="3.2"/>
<circle clip-path="url(#clip421)" cx="1055.58" cy="516.026" r="21.6" fill="#e26f46" fill-rule="evenodd" fill-opacity="0.7" stroke="#000000" stroke-opacity="0.7" stroke-width="3.2"/>
<circle clip-path="url(#clip421)" cx="1173.5" cy="450.271" r="21.6" fill="#e26f46" fill-rule="evenodd" fill-opacity="0.7" stroke="#000000" stroke-opacity="0.7" stroke-width="3.2"/>
<circle clip-path="url(#clip421)" cx="1291.43" cy="366.208" r="21.6" fill="#e26f46" fill-rule="evenodd" fill-opacity="0.7" stroke="#000000" stroke-opacity="0.7" stroke-width="3.2"/>
<circle clip-path="url(#clip421)" cx="1409.35" cy="337.625" r="21.6" fill="#e26f46" fill-rule="evenodd" fill-opacity="0.7" stroke="#000000" stroke-opacity="0.7" stroke-width="3.2"/>
<circle clip-path="url(#clip421)" cx="1527.28" cy="283.979" r="21.6" fill="#e26f46" fill-rule="evenodd" fill-opacity="0.7" stroke="#000000" stroke-opacity="0.7" stroke-width="3.2"/>
<circle clip-path="url(#clip421)" cx="1645.2" cy="113.593" r="21.6" fill="#e26f46" fill-rule="evenodd" fill-opacity="0.7" stroke="#000000" stroke-opacity="0.7" stroke-width="3.2"/>
<circle clip-path="url(#clip421)" cx="1763.13" cy="470.894" r="21.6" fill="#e26f46" fill-rule="evenodd" fill-opacity="0.7" stroke="#000000" stroke-opacity="0.7" stroke-width="3.2"/>
<circle clip-path="url(#clip421)" cx="1881.06" cy="302.781" r="21.6" fill="#e26f46" fill-rule="evenodd" fill-opacity="0.7" stroke="#000000" stroke-opacity="0.7" stroke-width="3.2"/>
<circle clip-path="url(#clip421)" cx="1998.98" cy="230.142" r="21.6" fill="#e26f46" fill-rule="evenodd" fill-opacity="0.7" stroke="#000000" stroke-opacity="0.7" stroke-width="3.2"/>
<circle clip-path="url(#clip421)" cx="2116.91" cy="320.533" r="21.6" fill="#e26f46" fill-rule="evenodd" fill-opacity="0.7" stroke="#000000" stroke-opacity="0.7" stroke-width="3.2"/>
<circle clip-path="url(#clip421)" cx="2234.83" cy="86.1857" r="21.6" fill="#e26f46" fill-rule="evenodd" fill-opacity="0.7" stroke="#000000" stroke-opacity="0.7" stroke-width="3.2"/>
<circle clip-path="url(#clip421)" cx="2352.76" cy="428.313" r="21.6" fill="#e26f46" fill-rule="evenodd" fill-opacity="0.7" stroke="#000000" stroke-opacity="0.7" stroke-width="3.2"/>
<path clip-path="url(#clip420)" d="M186.863 352.309 L596.753 352.309 L596.753 93.1086 L186.863 93.1086  Z" fill="#ffffff" fill-rule="evenodd" fill-opacity="1"/>
<polyline clip-path="url(#clip420)" style="stroke:#000000; stroke-linecap:round; stroke-linejoin:round; stroke-width:4; stroke-opacity:1; fill:none" points="186.863,352.309 596.753,352.309 596.753,93.1086 186.863,93.1086 186.863,352.309 "/>
<polyline clip-path="url(#clip420)" style="stroke:#009af9; stroke-linecap:round; stroke-linejoin:round; stroke-width:20; stroke-opacity:1; fill:none" points="211.758,144.949 361.13,144.949 "/>
<path clip-path="url(#clip420)" d="M387.6 127.669 L392.623 127.669 L401.211 140.516 L409.845 127.669 L414.868 127.669 L403.757 144.266 L415.609 162.229 L410.586 162.229 L400.864 147.53 L391.072 162.229 L386.026 162.229 L398.364 143.78 L387.6 127.669 Z" fill="#000000" fill-rule="nonzero" fill-opacity="1" /><polyline clip-path="url(#clip420)" style="stroke:#e26f46; stroke-linecap:round; stroke-linejoin:round; stroke-width:20; stroke-opacity:1; fill:none" points="211.758,196.789 361.13,196.789 "/>
<path clip-path="url(#clip420)" d="M386.026 179.509 L391.049 179.509 L400.632 193.722 L410.146 179.509 L415.169 179.509 L402.947 197.61 L402.947 214.069 L398.248 214.069 L398.248 197.61 L386.026 179.509 Z" fill="#000000" fill-rule="nonzero" fill-opacity="1" /><circle clip-path="url(#clip420)" cx="286.444" cy="248.629" r="21.2677" fill="#009af9" fill-rule="evenodd" fill-opacity="0.7" stroke="#000000" stroke-opacity="0.7" stroke-width="3.15077"/>
<path clip-path="url(#clip420)" d="M387.6 231.349 L392.623 231.349 L401.211 244.196 L409.845 231.349 L414.868 231.349 L403.757 247.946 L415.609 265.909 L410.586 265.909 L400.864 251.21 L391.072 265.909 L386.026 265.909 L398.364 247.46 L387.6 231.349 Z" fill="#000000" fill-rule="nonzero" fill-opacity="1" /><path clip-path="url(#clip420)" d="M446.859 229.937 Q443.757 235.261 442.252 240.469 Q440.748 245.677 440.748 251.024 Q440.748 256.372 442.252 261.626 Q443.78 266.858 446.859 272.159 L443.155 272.159 Q439.683 266.719 437.947 261.464 Q436.234 256.21 436.234 251.024 Q436.234 245.862 437.947 240.631 Q439.66 235.4 443.155 229.937 L446.859 229.937 Z" fill="#000000" fill-rule="nonzero" fill-opacity="1" /><path clip-path="url(#clip420)" d="M472.183 243.918 L472.183 229.89 L476.442 229.89 L476.442 265.909 L472.183 265.909 L472.183 262.02 Q470.84 264.335 468.78 265.469 Q466.743 266.58 463.872 266.58 Q459.173 266.58 456.21 262.83 Q453.271 259.08 453.271 252.969 Q453.271 246.858 456.21 243.108 Q459.173 239.358 463.872 239.358 Q466.743 239.358 468.78 240.492 Q470.84 241.603 472.183 243.918 M457.669 252.969 Q457.669 257.668 459.59 260.353 Q461.535 263.015 464.914 263.015 Q468.294 263.015 470.238 260.353 Q472.183 257.668 472.183 252.969 Q472.183 248.27 470.238 245.608 Q468.294 242.923 464.914 242.923 Q461.535 242.923 459.59 245.608 Q457.669 248.27 457.669 252.969 Z" fill="#000000" fill-rule="nonzero" fill-opacity="1" /><path clip-path="url(#clip420)" d="M496.997 252.876 Q491.835 252.876 489.845 254.057 Q487.854 255.237 487.854 258.085 Q487.854 260.353 489.335 261.696 Q490.84 263.015 493.409 263.015 Q496.951 263.015 499.081 260.515 Q501.233 257.992 501.233 253.825 L501.233 252.876 L496.997 252.876 M505.493 251.117 L505.493 265.909 L501.233 265.909 L501.233 261.973 Q499.775 264.335 497.599 265.469 Q495.423 266.58 492.275 266.58 Q488.294 266.58 485.933 264.358 Q483.595 262.112 483.595 258.362 Q483.595 253.987 486.511 251.765 Q489.451 249.543 495.261 249.543 L501.233 249.543 L501.233 249.126 Q501.233 246.187 499.289 244.589 Q497.368 242.969 493.872 242.969 Q491.65 242.969 489.544 243.501 Q487.437 244.034 485.493 245.099 L485.493 241.163 Q487.831 240.261 490.03 239.821 Q492.229 239.358 494.312 239.358 Q499.937 239.358 502.715 242.274 Q505.493 245.191 505.493 251.117 Z" fill="#000000" fill-rule="nonzero" fill-opacity="1" /><path clip-path="url(#clip420)" d="M518.479 232.622 L518.479 239.983 L527.252 239.983 L527.252 243.293 L518.479 243.293 L518.479 257.367 Q518.479 260.538 519.335 261.441 Q520.215 262.344 522.877 262.344 L527.252 262.344 L527.252 265.909 L522.877 265.909 Q517.946 265.909 516.071 264.08 Q514.196 262.228 514.196 257.367 L514.196 243.293 L511.071 243.293 L511.071 239.983 L514.196 239.983 L514.196 232.622 L518.479 232.622 Z" fill="#000000" fill-rule="nonzero" fill-opacity="1" /><path clip-path="url(#clip420)" d="M544.636 252.876 Q539.474 252.876 537.483 254.057 Q535.492 255.237 535.492 258.085 Q535.492 260.353 536.974 261.696 Q538.479 263.015 541.048 263.015 Q544.59 263.015 546.719 260.515 Q548.872 257.992 548.872 253.825 L548.872 252.876 L544.636 252.876 M553.131 251.117 L553.131 265.909 L548.872 265.909 L548.872 261.973 Q547.414 264.335 545.238 265.469 Q543.062 266.58 539.914 266.58 Q535.932 266.58 533.571 264.358 Q531.233 262.112 531.233 258.362 Q531.233 253.987 534.15 251.765 Q537.09 249.543 542.9 249.543 L548.872 249.543 L548.872 249.126 Q548.872 246.187 546.928 244.589 Q545.006 242.969 541.511 242.969 Q539.289 242.969 537.182 243.501 Q535.076 244.034 533.131 245.099 L533.131 241.163 Q535.469 240.261 537.668 239.821 Q539.867 239.358 541.951 239.358 Q547.576 239.358 550.354 242.274 Q553.131 245.191 553.131 251.117 Z" fill="#000000" fill-rule="nonzero" fill-opacity="1" /><path clip-path="url(#clip420)" d="M561.233 229.937 L564.937 229.937 Q568.409 235.4 570.122 240.631 Q571.858 245.862 571.858 251.024 Q571.858 256.21 570.122 261.464 Q568.409 266.719 564.937 272.159 L561.233 272.159 Q564.312 266.858 565.816 261.626 Q567.344 256.372 567.344 251.024 Q567.344 245.677 565.816 240.469 Q564.312 235.261 561.233 229.937 Z" fill="#000000" fill-rule="nonzero" fill-opacity="1" /><circle clip-path="url(#clip420)" cx="286.444" cy="300.469" r="21.2677" fill="#e26f46" fill-rule="evenodd" fill-opacity="0.7" stroke="#000000" stroke-opacity="0.7" stroke-width="3.15077"/>
<path clip-path="url(#clip420)" d="M386.026 283.189 L391.049 283.189 L400.632 297.402 L410.146 283.189 L415.169 283.189 L402.947 301.29 L402.947 317.749 L398.248 317.749 L398.248 301.29 L386.026 283.189 Z" fill="#000000" fill-rule="nonzero" fill-opacity="1" /><path clip-path="url(#clip420)" d="M444.845 281.777 Q441.743 287.101 440.238 292.309 Q438.734 297.517 438.734 302.864 Q438.734 308.212 440.238 313.466 Q441.766 318.698 444.845 323.999 L441.141 323.999 Q437.669 318.559 435.933 313.304 Q434.22 308.05 434.22 302.864 Q434.22 297.702 435.933 292.471 Q437.646 287.24 441.141 281.777 L444.845 281.777 Z" fill="#000000" fill-rule="nonzero" fill-opacity="1" /><path clip-path="url(#clip420)" d="M470.169 295.758 L470.169 281.73 L474.428 281.73 L474.428 317.749 L470.169 317.749 L470.169 313.86 Q468.826 316.175 466.766 317.309 Q464.729 318.42 461.859 318.42 Q457.16 318.42 454.197 314.67 Q451.257 310.92 451.257 304.809 Q451.257 298.698 454.197 294.948 Q457.16 291.198 461.859 291.198 Q464.729 291.198 466.766 292.332 Q468.826 293.443 470.169 295.758 M455.655 304.809 Q455.655 309.508 457.576 312.193 Q459.521 314.855 462.9 314.855 Q466.28 314.855 468.224 312.193 Q470.169 309.508 470.169 304.809 Q470.169 300.11 468.224 297.448 Q466.28 294.763 462.9 294.763 Q459.521 294.763 457.576 297.448 Q455.655 300.11 455.655 304.809 Z" fill="#000000" fill-rule="nonzero" fill-opacity="1" /><path clip-path="url(#clip420)" d="M494.983 304.716 Q489.821 304.716 487.831 305.897 Q485.84 307.077 485.84 309.925 Q485.84 312.193 487.321 313.536 Q488.826 314.855 491.395 314.855 Q494.937 314.855 497.067 312.355 Q499.22 309.832 499.22 305.665 L499.22 304.716 L494.983 304.716 M503.479 302.957 L503.479 317.749 L499.22 317.749 L499.22 313.813 Q497.761 316.175 495.585 317.309 Q493.409 318.42 490.261 318.42 Q486.28 318.42 483.919 316.198 Q481.581 313.952 481.581 310.202 Q481.581 305.827 484.497 303.605 Q487.437 301.383 493.247 301.383 L499.22 301.383 L499.22 300.966 Q499.22 298.027 497.275 296.429 Q495.354 294.809 491.858 294.809 Q489.636 294.809 487.53 295.341 Q485.423 295.874 483.479 296.939 L483.479 293.003 Q485.817 292.101 488.016 291.661 Q490.215 291.198 492.298 291.198 Q497.923 291.198 500.701 294.114 Q503.479 297.031 503.479 302.957 Z" fill="#000000" fill-rule="nonzero" fill-opacity="1" /><path clip-path="url(#clip420)" d="M516.465 284.462 L516.465 291.823 L525.238 291.823 L525.238 295.133 L516.465 295.133 L516.465 309.207 Q516.465 312.378 517.321 313.281 Q518.201 314.184 520.863 314.184 L525.238 314.184 L525.238 317.749 L520.863 317.749 Q515.932 317.749 514.057 315.92 Q512.182 314.068 512.182 309.207 L512.182 295.133 L509.057 295.133 L509.057 291.823 L512.182 291.823 L512.182 284.462 L516.465 284.462 Z" fill="#000000" fill-rule="nonzero" fill-opacity="1" /><path clip-path="url(#clip420)" d="M542.622 304.716 Q537.46 304.716 535.469 305.897 Q533.479 307.077 533.479 309.925 Q533.479 312.193 534.96 313.536 Q536.465 314.855 539.034 314.855 Q542.576 314.855 544.705 312.355 Q546.858 309.832 546.858 305.665 L546.858 304.716 L542.622 304.716 M551.117 302.957 L551.117 317.749 L546.858 317.749 L546.858 313.813 Q545.4 316.175 543.224 317.309 Q541.048 318.42 537.9 318.42 Q533.918 318.42 531.557 316.198 Q529.219 313.952 529.219 310.202 Q529.219 305.827 532.136 303.605 Q535.076 301.383 540.886 301.383 L546.858 301.383 L546.858 300.966 Q546.858 298.027 544.914 296.429 Q542.992 294.809 539.497 294.809 Q537.275 294.809 535.168 295.341 Q533.062 295.874 531.118 296.939 L531.118 293.003 Q533.455 292.101 535.655 291.661 Q537.854 291.198 539.937 291.198 Q545.562 291.198 548.34 294.114 Q551.117 297.031 551.117 302.957 Z" fill="#000000" fill-rule="nonzero" fill-opacity="1" /><path clip-path="url(#clip420)" d="M559.219 281.777 L562.923 281.777 Q566.395 287.24 568.108 292.471 Q569.844 297.702 569.844 302.864 Q569.844 308.05 568.108 313.304 Q566.395 318.559 562.923 323.999 L559.219 323.999 Q562.298 318.698 563.803 313.466 Q565.33 308.212 565.33 302.864 Q565.33 297.517 563.803 292.309 Q562.298 287.101 559.219 281.777 Z" fill="#000000" fill-rule="nonzero" fill-opacity="1" /></svg>
