<?xml version="1.0" encoding="utf-8"?>
<svg xmlns="http://www.w3.org/2000/svg" xmlns:xlink="http://www.w3.org/1999/xlink" width="600" height="400" viewBox="0 0 2400 1600">
<defs>
  <clipPath id="clip370">
    <rect x="0" y="0" width="2400" height="1600"/>
  </clipPath>
</defs>
<path clip-path="url(#clip370)" d="M0 1600 L2400 1600 L2400 0 L0 0  Z" fill="#ffffff" fill-rule="evenodd" fill-opacity="1"/>
<defs>
  <clipPath id="clip371">
    <rect x="216" y="47" width="2138" height="1377"/>
  </clipPath>
</defs>
<path clip-path="url(#clip370)" d="M216.089 1423.18 L2352.76 1423.18 L2352.76 47.2441 L216.089 47.2441  Z" fill="#ffffff" fill-rule="evenodd" fill-opacity="1"/>
<polyline clip-path="url(#clip371)" style="stroke:#000000; stroke-linecap:round; stroke-linejoin:round; stroke-width:2; stroke-opacity:0.1; fill:none" points="216.089,1423.18 216.089,47.2441 "/>
<polyline clip-path="url(#clip371)" style="stroke:#000000; stroke-linecap:round; stroke-linejoin:round; stroke-width:2; stroke-opacity:0.1; fill:none" points="643.422,1423.18 643.422,47.2441 "/>
<polyline clip-path="url(#clip371)" style="stroke:#000000; stroke-linecap:round; stroke-linejoin:round; stroke-width:2; stroke-opacity:0.1; fill:none" points="1070.76,1423.18 1070.76,47.2441 "/>
<polyline clip-path="url(#clip371)" style="stroke:#000000; stroke-linecap:round; stroke-linejoin:round; stroke-width:2; stroke-opacity:0.1; fill:none" points="1498.09,1423.18 1498.09,47.2441 "/>
<polyline clip-path="url(#clip371)" style="stroke:#000000; stroke-linecap:round; stroke-linejoin:round; stroke-width:2; stroke-opacity:0.1; fill:none" points="1925.42,1423.18 1925.42,47.2441 "/>
<polyline clip-path="url(#clip371)" style="stroke:#000000; stroke-linecap:round; stroke-linejoin:round; stroke-width:2; stroke-opacity:0.1; fill:none" points="2352.76,1423.18 2352.76,47.2441 "/>
<polyline clip-path="url(#clip371)" style="stroke:#000000; stroke-linecap:round; stroke-linejoin:round; stroke-width:2; stroke-opacity:0.1; fill:none" points="216.089,1188.94 2352.76,1188.94 "/>
<polyline clip-path="url(#clip371)" style="stroke:#000000; stroke-linecap:round; stroke-linejoin:round; stroke-width:2; stroke-opacity:0.1; fill:none" points="216.089,925.018 2352.76,925.018 "/>
<polyline clip-path="url(#clip371)" style="stroke:#000000; stroke-linecap:round; stroke-linejoin:round; stroke-width:2; stroke-opacity:0.1; fill:none" points="216.089,661.098 2352.76,661.098 "/>
<polyline clip-path="url(#clip371)" style="stroke:#000000; stroke-linecap:round; stroke-linejoin:round; stroke-width:2; stroke-opacity:0.1; fill:none" points="216.089,397.178 2352.76,397.178 "/>
<polyline clip-path="url(#clip371)" style="stroke:#000000; stroke-linecap:round; stroke-linejoin:round; stroke-width:2; stroke-opacity:0.1; fill:none" points="216.089,133.259 2352.76,133.259 "/>
<polyline clip-path="url(#clip370)" style="stroke:#000000; stroke-linecap:round; stroke-linejoin:round; stroke-width:4; stroke-opacity:1; fill:none" points="216.089,1423.18 2352.76,1423.18 "/>
<polyline clip-path="url(#clip370)" style="stroke:#000000; stroke-linecap:round; stroke-linejoin:round; stroke-width:4; stroke-opacity:1; fill:none" points="216.089,1423.18 216.089,1404.28 "/>
<polyline clip-path="url(#clip370)" style="stroke:#000000; stroke-linecap:round; stroke-linejoin:round; stroke-width:4; stroke-opacity:1; fill:none" points="643.422,1423.18 643.422,1404.28 "/>
<polyline clip-path="url(#clip370)" style="stroke:#000000; stroke-linecap:round; stroke-linejoin:round; stroke-width:4; stroke-opacity:1; fill:none" points="1070.76,1423.18 1070.76,1404.28 "/>
<polyline clip-path="url(#clip370)" style="stroke:#000000; stroke-linecap:round; stroke-linejoin:round; stroke-width:4; stroke-opacity:1; fill:none" points="1498.09,1423.18 1498.09,1404.28 "/>
<polyline clip-path="url(#clip370)" style="stroke:#000000; stroke-linecap:round; stroke-linejoin:round; stroke-width:4; stroke-opacity:1; fill:none" points="1925.42,1423.18 1925.42,1404.28 "/>
<polyline clip-path="url(#clip370)" style="stroke:#000000; stroke-linecap:round; stroke-linejoin:round; stroke-width:4; stroke-opacity:1; fill:none" points="2352.76,1423.18 2352.76,1404.28 "/>
<path clip-path="url(#clip370)" d="M216.089 1454.1 Q212.478 1454.1 210.649 1457.66 Q208.843 1461.2 208.843 1468.33 Q208.843 1475.44 210.649 1479.01 Q212.478 1482.55 216.089 1482.55 Q219.723 1482.55 221.528 1479.01 Q223.357 1475.44 223.357 1468.33 Q223.357 1461.2 221.528 1457.66 Q219.723 1454.1 216.089 1454.1 M216.089 1450.39 Q221.899 1450.39 224.954 1455 Q228.033 1459.58 228.033 1468.33 Q228.033 1477.06 224.954 1481.67 Q221.899 1486.25 216.089 1486.25 Q210.279 1486.25 207.2 1481.67 Q204.144 1477.06 204.144 1468.33 Q204.144 1459.58 207.2 1455 Q210.279 1450.39 216.089 1450.39 Z" fill="#000000" fill-rule="nonzero" fill-opacity="1" /><path clip-path="url(#clip370)" d="M622.195 1481.64 L638.515 1481.64 L638.515 1485.58 L616.57 1485.58 L616.57 1481.64 Q619.232 1478.89 623.816 1474.26 Q628.422 1469.61 629.603 1468.27 Q631.848 1465.74 632.728 1464.01 Q633.63 1462.25 633.63 1460.56 Q633.63 1457.8 631.686 1456.07 Q629.765 1454.33 626.663 1454.33 Q624.464 1454.33 622.01 1455.09 Q619.58 1455.86 616.802 1457.41 L616.802 1452.69 Q619.626 1451.55 622.08 1450.97 Q624.533 1450.39 626.57 1450.39 Q631.941 1450.39 635.135 1453.08 Q638.33 1455.77 638.33 1460.26 Q638.33 1462.39 637.519 1464.31 Q636.732 1466.2 634.626 1468.8 Q634.047 1469.47 630.945 1472.69 Q627.843 1475.88 622.195 1481.64 Z" fill="#000000" fill-rule="nonzero" fill-opacity="1" /><path clip-path="url(#clip370)" d="M658.329 1454.1 Q654.718 1454.1 652.89 1457.66 Q651.084 1461.2 651.084 1468.33 Q651.084 1475.44 652.89 1479.01 Q654.718 1482.55 658.329 1482.55 Q661.964 1482.55 663.769 1479.01 Q665.598 1475.44 665.598 1468.33 Q665.598 1461.2 663.769 1457.66 Q661.964 1454.1 658.329 1454.1 M658.329 1450.39 Q664.14 1450.39 667.195 1455 Q670.274 1459.58 670.274 1468.33 Q670.274 1477.06 667.195 1481.67 Q664.14 1486.25 658.329 1486.25 Q652.519 1486.25 649.441 1481.67 Q646.385 1477.06 646.385 1468.33 Q646.385 1459.58 649.441 1455 Q652.519 1450.39 658.329 1450.39 Z" fill="#000000" fill-rule="nonzero" fill-opacity="1" /><path clip-path="url(#clip370)" d="M1058.93 1455.09 L1047.12 1473.54 L1058.93 1473.54 L1058.93 1455.09 M1057.7 1451.02 L1063.58 1451.02 L1063.58 1473.54 L1068.51 1473.54 L1068.51 1477.43 L1063.58 1477.43 L1063.58 1485.58 L1058.93 1485.58 L1058.93 1477.43 L1043.33 1477.43 L1043.33 1472.92 L1057.7 1451.02 Z" fill="#000000" fill-rule="nonzero" fill-opacity="1" /><path clip-path="url(#clip370)" d="M1086.24 1454.1 Q1082.63 1454.1 1080.8 1457.66 Q1079 1461.2 1079 1468.33 Q1079 1475.44 1080.8 1479.01 Q1082.63 1482.55 1086.24 1482.55 Q1089.88 1482.55 1091.68 1479.01 Q1093.51 1475.44 1093.51 1468.33 Q1093.51 1461.2 1091.68 1457.66 Q1089.88 1454.1 1086.24 1454.1 M1086.24 1450.39 Q1092.05 1450.39 1095.11 1455 Q1098.19 1459.58 1098.19 1468.33 Q1098.19 1477.06 1095.11 1481.67 Q1092.05 1486.25 1086.24 1486.25 Q1080.43 1486.25 1077.35 1481.67 Q1074.3 1477.06 1074.3 1468.33 Q1074.3 1459.58 1077.35 1455 Q1080.43 1450.39 1086.24 1450.39 Z" fill="#000000" fill-rule="nonzero" fill-opacity="1" /><path clip-path="url(#clip370)" d="M1483.49 1466.44 Q1480.35 1466.44 1478.49 1468.59 Q1476.67 1470.74 1476.67 1474.49 Q1476.67 1478.22 1478.49 1480.39 Q1480.35 1482.55 1483.49 1482.55 Q1486.64 1482.55 1488.47 1480.39 Q1490.32 1478.22 1490.32 1474.49 Q1490.32 1470.74 1488.47 1468.59 Q1486.64 1466.44 1483.49 1466.44 M1492.78 1451.78 L1492.78 1456.04 Q1491.02 1455.21 1489.21 1454.77 Q1487.43 1454.33 1485.67 1454.33 Q1481.04 1454.33 1478.59 1457.45 Q1476.16 1460.58 1475.81 1466.9 Q1477.17 1464.89 1479.23 1463.82 Q1481.3 1462.73 1483.77 1462.73 Q1488.98 1462.73 1491.99 1465.9 Q1495.02 1469.05 1495.02 1474.49 Q1495.02 1479.82 1491.87 1483.03 Q1488.73 1486.25 1483.49 1486.25 Q1477.5 1486.25 1474.33 1481.67 Q1471.16 1477.06 1471.16 1468.33 Q1471.16 1460.14 1475.05 1455.28 Q1478.93 1450.39 1485.48 1450.39 Q1487.24 1450.39 1489.03 1450.74 Q1490.83 1451.09 1492.78 1451.78 Z" fill="#000000" fill-rule="nonzero" fill-opacity="1" /><path clip-path="url(#clip370)" d="M1513.08 1454.1 Q1509.47 1454.1 1507.64 1457.66 Q1505.83 1461.2 1505.83 1468.33 Q1505.83 1475.44 1507.64 1479.01 Q1509.47 1482.55 1513.08 1482.55 Q1516.71 1482.55 1518.52 1479.01 Q1520.35 1475.44 1520.35 1468.33 Q1520.35 1461.2 1518.52 1457.66 Q1516.71 1454.1 1513.08 1454.1 M1513.08 1450.39 Q1518.89 1450.39 1521.94 1455 Q1525.02 1459.58 1525.02 1468.33 Q1525.02 1477.06 1521.94 1481.67 Q1518.89 1486.25 1513.08 1486.25 Q1507.27 1486.25 1504.19 1481.67 Q1501.13 1477.06 1501.13 1468.33 Q1501.13 1459.58 1504.19 1455 Q1507.27 1450.39 1513.08 1450.39 Z" fill="#000000" fill-rule="nonzero" fill-opacity="1" /><path clip-path="url(#clip370)" d="M1910.3 1469.17 Q1906.96 1469.17 1905.04 1470.95 Q1903.14 1472.73 1903.14 1475.86 Q1903.14 1478.98 1905.04 1480.77 Q1906.96 1482.55 1910.3 1482.55 Q1913.63 1482.55 1915.55 1480.77 Q1917.47 1478.96 1917.47 1475.86 Q1917.47 1472.73 1915.55 1470.95 Q1913.65 1469.17 1910.3 1469.17 M1905.62 1467.18 Q1902.61 1466.44 1900.92 1464.38 Q1899.25 1462.32 1899.25 1459.35 Q1899.25 1455.21 1902.19 1452.8 Q1905.16 1450.39 1910.3 1450.39 Q1915.46 1450.39 1918.4 1452.8 Q1921.34 1455.21 1921.34 1459.35 Q1921.34 1462.32 1919.65 1464.38 Q1917.98 1466.44 1914.99 1467.18 Q1918.37 1467.96 1920.25 1470.26 Q1922.15 1472.55 1922.15 1475.86 Q1922.15 1480.88 1919.07 1483.57 Q1916.01 1486.25 1910.3 1486.25 Q1904.58 1486.25 1901.5 1483.57 Q1898.44 1480.88 1898.44 1475.86 Q1898.44 1472.55 1900.34 1470.26 Q1902.24 1467.96 1905.62 1467.18 M1903.91 1459.79 Q1903.91 1462.48 1905.57 1463.98 Q1907.26 1465.49 1910.3 1465.49 Q1913.3 1465.49 1914.99 1463.98 Q1916.71 1462.48 1916.71 1459.79 Q1916.71 1457.11 1914.99 1455.6 Q1913.3 1454.1 1910.3 1454.1 Q1907.26 1454.1 1905.57 1455.6 Q1903.91 1457.11 1903.91 1459.79 Z" fill="#000000" fill-rule="nonzero" fill-opacity="1" /><path clip-path="url(#clip370)" d="M1940.46 1454.1 Q1936.85 1454.1 1935.02 1457.66 Q1933.21 1461.2 1933.21 1468.33 Q1933.21 1475.44 1935.02 1479.01 Q1936.85 1482.55 1940.46 1482.55 Q1944.09 1482.55 1945.9 1479.01 Q1947.73 1475.44 1947.73 1468.33 Q1947.73 1461.2 1945.9 1457.66 Q1944.09 1454.1 1940.46 1454.1 M1940.46 1450.39 Q1946.27 1450.39 1949.32 1455 Q1952.4 1459.58 1952.4 1468.33 Q1952.4 1477.06 1949.32 1481.67 Q1946.27 1486.25 1940.46 1486.25 Q1934.65 1486.25 1931.57 1481.67 Q1928.51 1477.06 1928.51 1468.33 Q1928.51 1459.58 1931.57 1455 Q1934.65 1450.39 1940.46 1450.39 Z" fill="#000000" fill-rule="nonzero" fill-opacity="1" /><path clip-path="url(#clip370)" d="M2312.36 1481.64 L2320 1481.64 L2320 1455.28 L2311.69 1456.95 L2311.69 1452.69 L2319.96 1451.02 L2324.63 1451.02 L2324.63 1481.64 L2332.27 1481.64 L2332.27 1485.58 L2312.36 1485.58 L2312.36 1481.64 Z" fill="#000000" fill-rule="nonzero" fill-opacity="1" /><path clip-path="url(#clip370)" d="M2351.71 1454.1 Q2348.1 1454.1 2346.27 1457.66 Q2344.47 1461.2 2344.47 1468.33 Q2344.47 1475.44 2346.27 1479.01 Q2348.1 1482.55 2351.71 1482.55 Q2355.35 1482.55 2357.15 1479.01 Q2358.98 1475.44 2358.98 1468.33 Q2358.98 1461.2 2357.15 1457.66 Q2355.35 1454.1 2351.71 1454.1 M2351.71 1450.39 Q2357.52 1450.39 2360.58 1455 Q2363.66 1459.58 2363.66 1468.33 Q2363.66 1477.06 2360.58 1481.67 Q2357.52 1486.25 2351.71 1486.25 Q2345.9 1486.25 2342.83 1481.67 Q2339.77 1477.06 2339.77 1468.33 Q2339.77 1459.58 2342.83 1455 Q2345.9 1450.39 2351.71 1450.39 Z" fill="#000000" fill-rule="nonzero" fill-opacity="1" /><path clip-path="url(#clip370)" d="M2381.88 1454.1 Q2378.27 1454.1 2376.44 1457.66 Q2374.63 1461.2 2374.63 1468.33 Q2374.63 1475.44 2376.44 1479.01 Q2378.27 1482.55 2381.88 1482.55 Q2385.51 1482.55 2387.32 1479.01 Q2389.14 1475.44 2389.14 1468.33 Q2389.14 1461.2 2387.32 1457.66 Q2385.51 1454.1 2381.88 1454.1 M2381.88 1450.39 Q2387.69 1450.39 2390.74 1455 Q2393.82 1459.58 2393.82 1468.33 Q2393.82 1477.06 2390.74 1481.67 Q2387.69 1486.25 2381.88 1486.25 Q2376.07 1486.25 2372.99 1481.67 Q2369.93 1477.06 2369.93 1468.33 Q2369.93 1459.58 2372.99 1455 Q2376.07 1450.39 2381.88 1450.39 Z" fill="#000000" fill-rule="nonzero" fill-opacity="1" /><path clip-path="url(#clip370)" d="M1283.48 1522.27 L1283.48 1532.4 L1295.55 1532.4 L1295.55 1536.95 L1283.48 1536.95 L1283.48 1556.3 Q1283.48 1560.66 1284.66 1561.9 Q1285.87 1563.14 1289.53 1563.14 L1295.55 1563.14 L1295.55 1568.04 L1289.53 1568.04 Q1282.75 1568.04 1280.17 1565.53 Q1277.6 1562.98 1277.6 1556.3 L1277.6 1536.95 L1273.3 1536.95 L1273.3 1532.4 L1277.6 1532.4 L1277.6 1522.27 L1283.48 1522.27 Z" fill="#000000" fill-rule="nonzero" fill-opacity="1" /><polyline clip-path="url(#clip370)" style="stroke:#000000; stroke-linecap:round; stroke-linejoin:round; stroke-width:4; stroke-opacity:1; fill:none" points="216.089,1423.18 216.089,47.2441 "/>
<polyline clip-path="url(#clip370)" style="stroke:#000000; stroke-linecap:round; stroke-linejoin:round; stroke-width:4; stroke-opacity:1; fill:none" points="216.089,1188.94 234.986,1188.94 "/>
<polyline clip-path="url(#clip370)" style="stroke:#000000; stroke-linecap:round; stroke-linejoin:round; stroke-width:4; stroke-opacity:1; fill:none" points="216.089,925.018 234.986,925.018 "/>
<polyline clip-path="url(#clip370)" style="stroke:#000000; stroke-linecap:round; stroke-linejoin:round; stroke-width:4; stroke-opacity:1; fill:none" points="216.089,661.098 234.986,661.098 "/>
<polyline clip-path="url(#clip370)" style="stroke:#000000; stroke-linecap:round; stroke-linejoin:round; stroke-width:4; stroke-opacity:1; fill:none" points="216.089,397.178 234.986,397.178 "/>
<polyline clip-path="url(#clip370)" style="stroke:#000000; stroke-linecap:round; stroke-linejoin:round; stroke-width:4; stroke-opacity:1; fill:none" points="216.089,133.259 234.986,133.259 "/>
<path clip-path="url(#clip370)" d="M56.6171 1202.28 L72.9365 1202.28 L72.9365 1206.22 L50.9921 1206.22 L50.9921 1202.28 Q53.6541 1199.53 58.2375 1194.9 Q62.8439 1190.25 64.0245 1188.9 Q66.2698 1186.38 67.1494 1184.64 Q68.0522 1182.88 68.0522 1181.19 Q68.0522 1178.44 66.1078 1176.7 Q64.1865 1174.97 61.0847 1174.97 Q58.8856 1174.97 56.4319 1175.73 Q54.0014 1176.5 51.2236 1178.05 L51.2236 1173.32 Q54.0477 1172.19 56.5014 1171.61 Q58.955 1171.03 60.9921 1171.03 Q66.3624 1171.03 69.5568 1173.72 Q72.7513 1176.4 72.7513 1180.89 Q72.7513 1183.02 71.9411 1184.94 Q71.1541 1186.84 69.0476 1189.44 Q68.4689 1190.11 65.367 1193.32 Q62.2652 1196.52 56.6171 1202.28 Z" fill="#000000" fill-rule="nonzero" fill-opacity="1" /><path clip-path="url(#clip370)" d="M81.5707 1171.66 L103.793 1171.66 L103.793 1173.65 L91.2465 1206.22 L86.3623 1206.22 L98.1678 1175.59 L81.5707 1175.59 L81.5707 1171.66 Z" fill="#000000" fill-rule="nonzero" fill-opacity="1" /><path clip-path="url(#clip370)" d="M112.959 1171.66 L131.316 1171.66 L131.316 1175.59 L117.242 1175.59 L117.242 1184.07 Q118.26 1183.72 119.279 1183.56 Q120.297 1183.37 121.316 1183.37 Q127.103 1183.37 130.482 1186.54 Q133.862 1189.71 133.862 1195.13 Q133.862 1200.71 130.39 1203.81 Q126.918 1206.89 120.598 1206.89 Q118.422 1206.89 116.154 1206.52 Q113.908 1206.15 111.501 1205.41 L111.501 1200.71 Q113.584 1201.84 115.807 1202.4 Q118.029 1202.95 120.506 1202.95 Q124.51 1202.95 126.848 1200.85 Q129.186 1198.74 129.186 1195.13 Q129.186 1191.52 126.848 1189.41 Q124.51 1187.31 120.506 1187.31 Q118.631 1187.31 116.756 1187.72 Q114.904 1188.14 112.959 1189.02 L112.959 1171.66 Z" fill="#000000" fill-rule="nonzero" fill-opacity="1" /><path clip-path="url(#clip370)" d="M143.075 1200.34 L147.959 1200.34 L147.959 1206.22 L143.075 1206.22 L143.075 1200.34 Z" fill="#000000" fill-rule="nonzero" fill-opacity="1" /><path clip-path="url(#clip370)" d="M168.144 1174.74 Q164.533 1174.74 162.704 1178.3 Q160.899 1181.84 160.899 1188.97 Q160.899 1196.08 162.704 1199.64 Q164.533 1203.19 168.144 1203.19 Q171.779 1203.19 173.584 1199.64 Q175.413 1196.08 175.413 1188.97 Q175.413 1181.84 173.584 1178.3 Q171.779 1174.74 168.144 1174.74 M168.144 1171.03 Q173.954 1171.03 177.01 1175.64 Q180.089 1180.22 180.089 1188.97 Q180.089 1197.7 177.01 1202.31 Q173.954 1206.89 168.144 1206.89 Q162.334 1206.89 159.255 1202.31 Q156.2 1197.7 156.2 1188.97 Q156.2 1180.22 159.255 1175.64 Q162.334 1171.03 168.144 1171.03 Z" fill="#000000" fill-rule="nonzero" fill-opacity="1" /><path clip-path="url(#clip370)" d="M57.6125 938.363 L73.9318 938.363 L73.9318 942.298 L51.9875 942.298 L51.9875 938.363 Q54.6495 935.608 59.2328 930.979 Q63.8393 926.326 65.0198 924.983 Q67.2652 922.46 68.1448 920.724 Q69.0476 918.965 69.0476 917.275 Q69.0476 914.52 67.1032 912.784 Q65.1819 911.048 62.08 911.048 Q59.881 911.048 57.4273 911.812 Q54.9967 912.576 52.219 914.127 L52.219 909.405 Q55.043 908.27 57.4967 907.692 Q59.9504 907.113 61.9874 907.113 Q67.3578 907.113 70.5522 909.798 Q73.7466 912.483 73.7466 916.974 Q73.7466 919.104 72.9365 921.025 Q72.1494 922.923 70.0429 925.516 Q69.4642 926.187 66.3624 929.404 Q63.2606 932.599 57.6125 938.363 Z" fill="#000000" fill-rule="nonzero" fill-opacity="1" /><path clip-path="url(#clip370)" d="M82.566 907.738 L104.788 907.738 L104.788 909.729 L92.2419 942.298 L87.3577 942.298 L99.1632 911.673 L82.566 911.673 L82.566 907.738 Z" fill="#000000" fill-rule="nonzero" fill-opacity="1" /><path clip-path="url(#clip370)" d="M112.728 907.738 L134.95 907.738 L134.95 909.729 L122.404 942.298 L117.52 942.298 L129.325 911.673 L112.728 911.673 L112.728 907.738 Z" fill="#000000" fill-rule="nonzero" fill-opacity="1" /><path clip-path="url(#clip370)" d="M144.07 936.418 L148.955 936.418 L148.955 942.298 L144.07 942.298 L144.07 936.418 Z" fill="#000000" fill-rule="nonzero" fill-opacity="1" /><path clip-path="url(#clip370)" d="M159.186 907.738 L177.542 907.738 L177.542 911.673 L163.468 911.673 L163.468 920.145 Q164.487 919.798 165.505 919.636 Q166.524 919.451 167.542 919.451 Q173.329 919.451 176.709 922.622 Q180.089 925.793 180.089 931.21 Q180.089 936.789 176.616 939.891 Q173.144 942.969 166.825 942.969 Q164.649 942.969 162.38 942.599 Q160.135 942.228 157.728 941.488 L157.728 936.789 Q159.811 937.923 162.033 938.479 Q164.255 939.034 166.732 939.034 Q170.737 939.034 173.075 936.928 Q175.413 934.821 175.413 931.21 Q175.413 927.599 173.075 925.492 Q170.737 923.386 166.732 923.386 Q164.857 923.386 162.982 923.803 Q161.13 924.219 159.186 925.099 L159.186 907.738 Z" fill="#000000" fill-rule="nonzero" fill-opacity="1" /><path clip-path="url(#clip370)" d="M56.6171 674.443 L72.9365 674.443 L72.9365 678.378 L50.9921 678.378 L50.9921 674.443 Q53.6541 671.688 58.2375 667.059 Q62.8439 662.406 64.0245 661.063 Q66.2698 658.54 67.1494 656.804 Q68.0522 655.045 68.0522 653.355 Q68.0522 650.601 66.1078 648.864 Q64.1865 647.128 61.0847 647.128 Q58.8856 647.128 56.4319 647.892 Q54.0014 648.656 51.2236 650.207 L51.2236 645.485 Q54.0477 644.351 56.5014 643.772 Q58.955 643.193 60.9921 643.193 Q66.3624 643.193 69.5568 645.878 Q72.7513 648.564 72.7513 653.054 Q72.7513 655.184 71.9411 657.105 Q71.1541 659.003 69.0476 661.596 Q68.4689 662.267 65.367 665.485 Q62.2652 668.679 56.6171 674.443 Z" fill="#000000" fill-rule="nonzero" fill-opacity="1" /><path clip-path="url(#clip370)" d="M92.7512 661.966 Q89.4178 661.966 87.4966 663.749 Q85.5984 665.531 85.5984 668.656 Q85.5984 671.781 87.4966 673.563 Q89.4178 675.346 92.7512 675.346 Q96.0845 675.346 98.0058 673.563 Q99.927 671.758 99.927 668.656 Q99.927 665.531 98.0058 663.749 Q96.1076 661.966 92.7512 661.966 M88.0753 659.976 Q85.066 659.235 83.3762 657.175 Q81.7096 655.114 81.7096 652.152 Q81.7096 648.008 84.6494 645.601 Q87.6123 643.193 92.7512 643.193 Q97.9132 643.193 100.853 645.601 Q103.793 648.008 103.793 652.152 Q103.793 655.114 102.103 657.175 Q100.436 659.235 97.4502 659.976 Q100.83 660.763 102.705 663.054 Q104.603 665.346 104.603 668.656 Q104.603 673.679 101.524 676.364 Q98.4687 679.05 92.7512 679.05 Q87.0336 679.05 83.9549 676.364 Q80.8994 673.679 80.8994 668.656 Q80.8994 665.346 82.7975 663.054 Q84.6956 660.763 88.0753 659.976 M86.3623 652.591 Q86.3623 655.276 88.029 656.781 Q89.7188 658.286 92.7512 658.286 Q95.7604 658.286 97.4502 656.781 Q99.1632 655.276 99.1632 652.591 Q99.1632 649.906 97.4502 648.402 Q95.7604 646.897 92.7512 646.897 Q89.7188 646.897 88.029 648.402 Q86.3623 649.906 86.3623 652.591 Z" fill="#000000" fill-rule="nonzero" fill-opacity="1" /><path clip-path="url(#clip370)" d="M122.913 646.897 Q119.302 646.897 117.473 650.462 Q115.668 654.003 115.668 661.133 Q115.668 668.239 117.473 671.804 Q119.302 675.346 122.913 675.346 Q126.547 675.346 128.353 671.804 Q130.182 668.239 130.182 661.133 Q130.182 654.003 128.353 650.462 Q126.547 646.897 122.913 646.897 M122.913 643.193 Q128.723 643.193 131.779 647.8 Q134.857 652.383 134.857 661.133 Q134.857 669.86 131.779 674.466 Q128.723 679.05 122.913 679.05 Q117.103 679.05 114.024 674.466 Q110.969 669.86 110.969 661.133 Q110.969 652.383 114.024 647.8 Q117.103 643.193 122.913 643.193 Z" fill="#000000" fill-rule="nonzero" fill-opacity="1" /><path clip-path="url(#clip370)" d="M143.075 672.499 L147.959 672.499 L147.959 678.378 L143.075 678.378 L143.075 672.499 Z" fill="#000000" fill-rule="nonzero" fill-opacity="1" /><path clip-path="url(#clip370)" d="M168.144 646.897 Q164.533 646.897 162.704 650.462 Q160.899 654.003 160.899 661.133 Q160.899 668.239 162.704 671.804 Q164.533 675.346 168.144 675.346 Q171.779 675.346 173.584 671.804 Q175.413 668.239 175.413 661.133 Q175.413 654.003 173.584 650.462 Q171.779 646.897 168.144 646.897 M168.144 643.193 Q173.954 643.193 177.01 647.8 Q180.089 652.383 180.089 661.133 Q180.089 669.86 177.01 674.466 Q173.954 679.05 168.144 679.05 Q162.334 679.05 159.255 674.466 Q156.2 669.86 156.2 661.133 Q156.2 652.383 159.255 647.8 Q162.334 643.193 168.144 643.193 Z" fill="#000000" fill-rule="nonzero" fill-opacity="1" /><path clip-path="url(#clip370)" d="M57.6125 410.523 L73.9318 410.523 L73.9318 414.458 L51.9875 414.458 L51.9875 410.523 Q54.6495 407.769 59.2328 403.139 Q63.8393 398.486 65.0198 397.144 Q67.2652 394.621 68.1448 392.885 Q69.0476 391.125 69.0476 389.435 Q69.0476 386.681 67.1032 384.945 Q65.1819 383.209 62.08 383.209 Q59.881 383.209 57.4273 383.973 Q54.9967 384.736 52.219 386.287 L52.219 381.565 Q55.043 380.431 57.4967 379.852 Q59.9504 379.273 61.9874 379.273 Q67.3578 379.273 70.5522 381.959 Q73.7466 384.644 73.7466 389.135 Q73.7466 391.264 72.9365 393.185 Q72.1494 395.084 70.0429 397.676 Q69.4642 398.347 66.3624 401.565 Q63.2606 404.759 57.6125 410.523 Z" fill="#000000" fill-rule="nonzero" fill-opacity="1" /><path clip-path="url(#clip370)" d="M93.7465 398.047 Q90.4132 398.047 88.4919 399.829 Q86.5938 401.611 86.5938 404.736 Q86.5938 407.861 88.4919 409.644 Q90.4132 411.426 93.7465 411.426 Q97.0798 411.426 99.0011 409.644 Q100.922 407.838 100.922 404.736 Q100.922 401.611 99.0011 399.829 Q97.103 398.047 93.7465 398.047 M89.0706 396.056 Q86.0614 395.315 84.3716 393.255 Q82.7049 391.195 82.7049 388.232 Q82.7049 384.088 85.6447 381.681 Q88.6077 379.273 93.7465 379.273 Q98.9085 379.273 101.848 381.681 Q104.788 384.088 104.788 388.232 Q104.788 391.195 103.098 393.255 Q101.432 395.315 98.4456 396.056 Q101.825 396.843 103.7 399.135 Q105.598 401.426 105.598 404.736 Q105.598 409.759 102.52 412.445 Q99.4641 415.13 93.7465 415.13 Q88.029 415.13 84.9503 412.445 Q81.8947 409.759 81.8947 404.736 Q81.8947 401.426 83.7929 399.135 Q85.691 396.843 89.0706 396.056 M87.3577 388.672 Q87.3577 391.357 89.0243 392.861 Q90.7141 394.366 93.7465 394.366 Q96.7558 394.366 98.4456 392.861 Q100.159 391.357 100.159 388.672 Q100.159 385.986 98.4456 384.482 Q96.7558 382.977 93.7465 382.977 Q90.7141 382.977 89.0243 384.482 Q87.3577 385.986 87.3577 388.672 Z" fill="#000000" fill-rule="nonzero" fill-opacity="1" /><path clip-path="url(#clip370)" d="M117.936 410.523 L134.256 410.523 L134.256 414.458 L112.311 414.458 L112.311 410.523 Q114.973 407.769 119.557 403.139 Q124.163 398.486 125.344 397.144 Q127.589 394.621 128.469 392.885 Q129.371 391.125 129.371 389.435 Q129.371 386.681 127.427 384.945 Q125.506 383.209 122.404 383.209 Q120.205 383.209 117.751 383.973 Q115.32 384.736 112.543 386.287 L112.543 381.565 Q115.367 380.431 117.82 379.852 Q120.274 379.273 122.311 379.273 Q127.682 379.273 130.876 381.959 Q134.07 384.644 134.07 389.135 Q134.07 391.264 133.26 393.185 Q132.473 395.084 130.367 397.676 Q129.788 398.347 126.686 401.565 Q123.584 404.759 117.936 410.523 Z" fill="#000000" fill-rule="nonzero" fill-opacity="1" /><path clip-path="url(#clip370)" d="M144.07 408.579 L148.955 408.579 L148.955 414.458 L144.07 414.458 L144.07 408.579 Z" fill="#000000" fill-rule="nonzero" fill-opacity="1" /><path clip-path="url(#clip370)" d="M159.186 379.898 L177.542 379.898 L177.542 383.834 L163.468 383.834 L163.468 392.306 Q164.487 391.959 165.505 391.797 Q166.524 391.611 167.542 391.611 Q173.329 391.611 176.709 394.783 Q180.089 397.954 180.089 403.371 Q180.089 408.949 176.616 412.051 Q173.144 415.13 166.825 415.13 Q164.649 415.13 162.38 414.759 Q160.135 414.389 157.728 413.648 L157.728 408.949 Q159.811 410.084 162.033 410.639 Q164.255 411.195 166.732 411.195 Q170.737 411.195 173.075 409.088 Q175.413 406.982 175.413 403.371 Q175.413 399.759 173.075 397.653 Q170.737 395.547 166.732 395.547 Q164.857 395.547 162.982 395.963 Q161.13 396.38 159.186 397.26 L159.186 379.898 Z" fill="#000000" fill-rule="nonzero" fill-opacity="1" /><path clip-path="url(#clip370)" d="M56.6171 146.604 L72.9365 146.604 L72.9365 150.539 L50.9921 150.539 L50.9921 146.604 Q53.6541 143.849 58.2375 139.219 Q62.8439 134.567 64.0245 133.224 Q66.2698 130.701 67.1494 128.965 Q68.0522 127.206 68.0522 125.516 Q68.0522 122.761 66.1078 121.025 Q64.1865 119.289 61.0847 119.289 Q58.8856 119.289 56.4319 120.053 Q54.0014 120.817 51.2236 122.368 L51.2236 117.645 Q54.0477 116.511 56.5014 115.932 Q58.955 115.354 60.9921 115.354 Q66.3624 115.354 69.5568 118.039 Q72.7513 120.724 72.7513 125.215 Q72.7513 127.344 71.9411 129.266 Q71.1541 131.164 69.0476 133.756 Q68.4689 134.428 65.367 137.645 Q62.2652 140.84 56.6171 146.604 Z" fill="#000000" fill-rule="nonzero" fill-opacity="1" /><path clip-path="url(#clip370)" d="M92.7512 134.127 Q89.4178 134.127 87.4966 135.909 Q85.5984 137.692 85.5984 140.817 Q85.5984 143.942 87.4966 145.724 Q89.4178 147.506 92.7512 147.506 Q96.0845 147.506 98.0058 145.724 Q99.927 143.918 99.927 140.817 Q99.927 137.692 98.0058 135.909 Q96.1076 134.127 92.7512 134.127 M88.0753 132.136 Q85.066 131.395 83.3762 129.335 Q81.7096 127.275 81.7096 124.312 Q81.7096 120.169 84.6494 117.761 Q87.6123 115.354 92.7512 115.354 Q97.9132 115.354 100.853 117.761 Q103.793 120.169 103.793 124.312 Q103.793 127.275 102.103 129.335 Q100.436 131.395 97.4502 132.136 Q100.83 132.923 102.705 135.215 Q104.603 137.506 104.603 140.817 Q104.603 145.84 101.524 148.525 Q98.4687 151.21 92.7512 151.21 Q87.0336 151.21 83.9549 148.525 Q80.8994 145.84 80.8994 140.817 Q80.8994 137.506 82.7975 135.215 Q84.6956 132.923 88.0753 132.136 M86.3623 124.752 Q86.3623 127.437 88.029 128.942 Q89.7188 130.446 92.7512 130.446 Q95.7604 130.446 97.4502 128.942 Q99.1632 127.437 99.1632 124.752 Q99.1632 122.067 97.4502 120.562 Q95.7604 119.057 92.7512 119.057 Q89.7188 119.057 88.029 120.562 Q86.3623 122.067 86.3623 124.752 Z" fill="#000000" fill-rule="nonzero" fill-opacity="1" /><path clip-path="url(#clip370)" d="M112.959 115.979 L131.316 115.979 L131.316 119.914 L117.242 119.914 L117.242 128.386 Q118.26 128.039 119.279 127.877 Q120.297 127.692 121.316 127.692 Q127.103 127.692 130.482 130.863 Q133.862 134.034 133.862 139.451 Q133.862 145.03 130.39 148.131 Q126.918 151.21 120.598 151.21 Q118.422 151.21 116.154 150.84 Q113.908 150.469 111.501 149.729 L111.501 145.03 Q113.584 146.164 115.807 146.719 Q118.029 147.275 120.506 147.275 Q124.51 147.275 126.848 145.168 Q129.186 143.062 129.186 139.451 Q129.186 135.84 126.848 133.733 Q124.51 131.627 120.506 131.627 Q118.631 131.627 116.756 132.043 Q114.904 132.46 112.959 133.34 L112.959 115.979 Z" fill="#000000" fill-rule="nonzero" fill-opacity="1" /><path clip-path="url(#clip370)" d="M143.075 144.659 L147.959 144.659 L147.959 150.539 L143.075 150.539 L143.075 144.659 Z" fill="#000000" fill-rule="nonzero" fill-opacity="1" /><path clip-path="url(#clip370)" d="M168.144 119.057 Q164.533 119.057 162.704 122.622 Q160.899 126.164 160.899 133.293 Q160.899 140.4 162.704 143.965 Q164.533 147.506 168.144 147.506 Q171.779 147.506 173.584 143.965 Q175.413 140.4 175.413 133.293 Q175.413 126.164 173.584 122.622 Q171.779 119.057 168.144 119.057 M168.144 115.354 Q173.954 115.354 177.01 119.96 Q180.089 124.544 180.089 133.293 Q180.089 142.02 177.01 146.627 Q173.954 151.21 168.144 151.21 Q162.334 151.21 159.255 146.627 Q156.2 142.02 156.2 133.293 Q156.2 124.544 159.255 119.96 Q162.334 115.354 168.144 115.354 Z" fill="#000000" fill-rule="nonzero" fill-opacity="1" /><polyline clip-path="url(#clip371)" style="stroke:#009af9; stroke-linecap:round; stroke-linejoin:round; stroke-width:4; stroke-opacity:1; fill:none" points="216.089,1384.24 218.227,1382.82 220.366,1381.37 222.505,1379.91 224.644,1378.43 226.783,1376.93 228.921,1375.42 231.06,1373.9 233.199,1372.36 235.338,1370.82 237.477,1369.26 239.616,1367.7 241.754,1366.13 243.893,1364.55 246.032,1362.97 248.171,1361.39 250.31,1359.79 252.448,1358.2 254.587,1356.6 256.726,1355 258.865,1353.4 261.004,1351.79 263.142,1350.18 265.281,1348.57 267.42,1346.96 269.559,1345.34 271.698,1343.73 273.836,1342.11 275.975,1340.49 278.114,1338.87 280.253,1337.25 282.392,1335.63 284.53,1334.01 286.669,1332.39 288.808,1330.77 290.947,1329.15 293.086,1327.53 295.224,1325.9 297.363,1324.28 299.502,1322.65 301.641,1321.03 303.78,1319.41 305.919,1317.78 308.057,1316.16 310.196,1314.53 312.335,1312.9 314.474,1311.28 316.613,1309.65 318.751,1308.02 320.89,1306.4 323.029,1304.77 325.168,1303.14 327.307,1301.51 329.445,1299.88 331.584,1298.25 333.723,1296.62 335.862,1294.99 338.001,1293.36 340.139,1291.72 342.278,1290.09 344.417,1288.46 346.556,1286.82 348.695,1285.19 350.833,1283.55 352.972,1281.92 355.111,1280.28 357.25,1278.64 359.389,1277 361.527,1275.36 363.666,1273.72 365.805,1272.08 367.944,1270.44 370.083,1268.79 372.221,1267.15 374.36,1265.5 376.499,1263.86 378.638,1262.21 380.777,1260.56 382.916,1258.91 385.054,1257.26 387.193,1255.61 389.332,1253.95 391.471,1252.3 393.61,1250.64 395.748,1248.99 397.887,1247.33 400.026,1245.67 402.165,1244.01 404.304,1242.34 406.442,1240.68 408.581,1239.01 410.72,1237.35 412.859,1235.68 414.998,1234.01 417.136,1232.33 419.275,1230.66 421.414,1228.99 423.553,1227.31 425.692,1225.63 427.83,1223.95 429.969,1222.27 432.108,1220.59 434.247,1218.9 436.386,1217.22 438.524,1215.53 440.663,1213.84 442.802,1212.15 444.941,1210.45 447.08,1208.76 449.219,1207.06 451.357,1205.36 453.496,1203.66 455.635,1201.96 457.774,1200.25 459.913,1198.55 462.051,1196.84 464.19,1195.13 466.329,1193.42 468.468,1191.71 470.607,1189.99 472.745,1188.27 474.884,1186.55 477.023,1184.83 479.162,1183.11 481.301,1181.38 483.439,1179.66 485.578,1177.93 487.717,1176.2 489.856,1174.47 491.995,1172.73 494.133,1171 496.272,1169.26 498.411,1167.52 500.55,1165.78 502.689,1164.03 504.827,1162.29 506.966,1160.54 509.105,1158.79 511.244,1157.04 513.383,1155.29 515.522,1153.54 517.66,1151.78 519.799,1150.02 521.938,1148.26 524.077,1146.5 526.216,1144.74 528.354,1142.98 530.493,1141.21 532.632,1139.45 534.771,1137.68 536.91,1135.91 539.048,1134.14 541.187,1132.37 543.326,1130.59 545.465,1128.82 547.604,1127.04 549.742,1125.26 551.881,1123.49 554.02,1121.71 556.159,1119.93 558.298,1118.15 560.436,1116.36 562.575,1114.58 564.714,1112.8 566.853,1111.01 568.992,1109.23 571.13,1107.44 573.269,1105.66 575.408,1103.87 577.547,1102.08 579.686,1100.29 581.824,1098.51 583.963,1096.72 586.102,1094.93 588.241,1093.14 590.38,1091.35 592.519,1089.57 594.657,1087.78 596.796,1085.99 598.935,1084.2 601.074,1082.42 603.213,1080.63 605.351,1078.85 607.49,1077.06 609.629,1075.28 611.768,1073.5 613.907,1071.71 616.045,1069.93 618.184,1068.15 620.323,1066.37 622.462,1064.6 624.601,1062.82 626.739,1061.05 628.878,1059.28 631.017,1057.51 633.156,1055.74 635.295,1053.98 637.433,1052.21 639.572,1050.45 641.711,1048.7 643.85,1046.94 645.989,1045.19 648.127,1043.44 650.266,1041.69 652.405,1039.94 654.544,1038.2 656.683,1036.47 658.822,1034.73 660.96,1033 663.099,1031.27 665.238,1029.55 667.377,1027.83 669.516,1026.12 671.654,1024.41 673.793,1022.7 675.932,1021 678.071,1019.3 680.21,1017.61 682.348,1015.92 684.487,1014.24 686.626,1012.56 688.765,1010.89 690.904,1009.22 693.042,1007.56 695.181,1005.91 697.32,1004.26 699.459,1002.62 701.598,1000.98 703.736,999.347 705.875,997.722 708.014,996.104 710.153,994.492 712.292,992.886 714.43,991.288 716.569,989.696 718.708,988.111 720.847,986.533 722.986,984.963 725.124,983.4 727.263,981.844 729.402,980.296 731.541,978.756 733.68,977.224 735.819,975.699 737.957,974.183 740.096,972.674 742.235,971.174 744.374,969.681 746.513,968.197 748.651,966.721 750.79,965.254 752.929,963.795 755.068,962.345 757.207,960.903 759.345,959.471 761.484,958.047 763.623,956.631 765.762,955.225 767.901,953.828 770.039,952.439 772.178,951.059 774.317,949.689 776.456,948.327 778.595,946.974 780.733,945.63 782.872,944.295 785.011,942.969 787.15,941.652 789.289,940.344 791.427,939.045 793.566,937.755 795.705,936.474 797.844,935.202 799.983,933.938 802.122,932.684 804.26,931.437 806.399,930.2 808.538,928.971 810.677,927.751 812.816,926.539 814.954,925.335 817.093,924.14 819.232,922.952 821.371,921.773 823.51,920.601 825.648,919.437 827.787,918.281 829.926,917.132 832.065,915.99 834.204,914.855 836.342,913.728 838.481,912.607 840.62,911.493 842.759,910.385 844.898,909.284 847.036,908.19 849.175,907.101 851.314,906.018 853.453,904.941 855.592,903.869 857.73,902.802 859.869,901.74 862.008,900.682 864.147,899.628 866.286,898.579 868.425,897.533 870.563,896.49 872.702,895.451 874.841,894.415 876.98,893.382 879.119,892.351 881.257,891.323 883.396,890.297 885.535,889.272 887.674,888.249 889.813,887.227 891.951,886.206 894.09,885.184 896.229,884.163 898.368,883.142 900.507,882.12 902.645,881.098 904.784,880.074 906.923,879.05 909.062,878.023 911.201,876.995 913.339,875.965 915.478,874.932 917.617,873.896 919.756,872.857 921.895,871.814 924.033,870.768 926.172,869.716 928.311,868.661 930.45,867.6 932.589,866.535 934.727,865.464 936.866,864.388 939.005,863.306 941.144,862.217 943.283,861.123 945.422,860.021 947.56,858.913 949.699,857.798 951.838,856.674 953.977,855.543 956.116,854.404 958.254,853.257 960.393,852.101 962.532,850.937 964.671,849.764 966.81,848.582 968.948,847.391 971.087,846.191 973.226,844.982 975.365,843.762 977.504,842.533 979.642,841.294 981.781,840.045 983.92,838.786 986.059,837.517 988.198,836.238 990.336,834.948 992.475,833.648 994.614,832.337 996.753,831.017 998.892,829.686 1001.03,828.345 1003.17,826.993 1005.31,825.631 1007.45,824.259 1009.59,822.877 1011.72,821.485 1013.86,820.083 1016,818.671 1018.14,817.249 1020.28,815.818 1022.42,814.378 1024.56,812.928 1026.7,811.469 1028.83,810.002 1030.97,808.526 1033.11,807.042 1035.25,805.549 1037.39,804.049 1039.53,802.542 1041.67,801.027 1043.81,799.506 1045.95,797.979 1048.08,796.445 1050.22,794.905 1052.36,793.36 1054.5,791.81 1056.64,790.254 1058.78,788.695 1060.92,787.131 1063.06,785.563 1065.19,783.993 1067.33,782.42 1069.47,780.844 1071.61,779.267 1073.75,777.69 1075.89,776.111 1078.03,774.533 1080.17,772.955 1082.31,771.377 1084.44,769.8 1086.58,768.226 1088.72,766.653 1090.86,765.082 1093,763.515 1095.14,761.951 1097.28,760.392 1099.42,758.837 1101.55,757.287 1103.69,755.743 1105.83,754.206 1107.97,752.674 1110.11,751.15 1112.25,749.633 1114.39,748.124 1116.53,746.624 1118.66,745.131 1120.8,743.648 1122.94,742.175 1125.08,740.711 1127.22,739.259 1129.36,737.817 1131.5,736.386 1133.64,734.967 1135.78,733.559 1137.91,732.164 1140.05,730.781 1142.19,729.411 1144.33,728.053 1146.47,726.709 1148.61,725.377 1150.75,724.059 1152.89,722.755 1155.02,721.465 1157.16,720.189 1159.3,718.927 1161.44,717.679 1163.58,716.445 1165.72,715.225 1167.86,714.019 1170,712.827 1172.13,711.649 1174.27,710.485 1176.41,709.335 1178.55,708.198 1180.69,707.075 1182.83,705.966 1184.97,704.869 1187.11,703.785 1189.25,702.714 1191.38,701.655 1193.52,700.608 1195.66,699.573 1197.8,698.548 1199.94,697.535 1202.08,696.533 1204.22,695.54 1206.36,694.557 1208.49,693.582 1210.63,692.617 1212.77,691.659 1214.91,690.708 1217.05,689.765 1219.19,688.827 1221.33,687.896 1223.47,686.97 1225.61,686.048 1227.74,685.13 1229.88,684.216 1232.02,683.305 1234.16,682.396 1236.3,681.487 1238.44,680.58 1240.58,679.672 1242.72,678.764 1244.85,677.853 1246.99,676.941 1249.13,676.026 1251.27,675.108 1253.41,674.185 1255.55,673.258 1257.69,672.326 1259.83,671.388 1261.96,670.444 1264.1,669.492 1266.24,668.532 1268.38,667.564 1270.52,666.586 1272.66,665.599 1274.8,664.602 1276.94,663.595 1279.08,662.577 1281.21,661.547 1283.35,660.506 1285.49,659.453 1287.63,658.387 1289.77,657.308 1291.91,656.216 1294.05,655.111 1296.19,653.991 1298.32,652.858 1300.46,651.71 1302.6,650.549 1304.74,649.373 1306.88,648.183 1309.02,646.979 1311.16,645.761 1313.3,644.528 1315.43,643.281 1317.57,642.021 1319.71,640.746 1321.85,639.458 1323.99,638.156 1326.13,636.842 1328.27,635.514 1330.41,634.175 1332.55,632.823 1334.68,631.46 1336.82,630.086 1338.96,628.702 1341.1,627.308 1343.24,625.904 1345.38,624.492 1347.52,623.072 1349.66,621.644 1351.79,620.21 1353.93,618.77 1356.07,617.324 1358.21,615.873 1360.35,614.419 1362.49,612.961 1364.63,611.501 1366.77,610.04 1368.91,608.578 1371.04,607.116 1373.18,605.656 1375.32,604.198 1377.46,602.743 1379.6,601.292 1381.74,599.845 1383.88,598.404 1386.02,596.968 1388.15,595.54 1390.29,594.119 1392.43,592.707 1394.57,591.304 1396.71,589.911 1398.85,588.529 1400.99,587.159 1403.13,585.8 1405.26,584.455 1407.4,583.122 1409.54,581.804 1411.68,580.499 1413.82,579.21 1415.96,577.935 1418.1,576.677 1420.24,575.434 1422.38,574.209 1424.51,572.999 1426.65,571.807 1428.79,570.632 1430.93,569.473 1433.07,568.332 1435.21,567.208 1437.35,566.101 1439.49,565.011 1441.62,563.938 1443.76,562.882 1445.9,561.842 1448.04,560.818 1450.18,559.811 1452.32,558.818 1454.46,557.84 1456.6,556.877 1458.73,555.927 1460.87,554.991 1463.01,554.068 1465.15,553.156 1467.29,552.255 1469.43,551.365 1471.57,550.484 1473.71,549.612 1475.85,548.748 1477.98,547.89 1480.12,547.039 1482.26,546.193 1484.4,545.351 1486.54,544.513 1488.68,543.678 1490.82,542.844 1492.96,542.01 1495.09,541.175 1497.23,540.339 1499.37,539.499 1501.51,538.656 1503.65,537.807 1505.79,536.952 1507.93,536.091 1510.07,535.222 1512.21,534.344 1514.34,533.458 1516.48,532.561 1518.62,531.653 1520.76,530.733 1522.9,529.801 1525.04,528.855 1527.18,527.895 1529.32,526.921 1531.45,525.932 1533.59,524.928 1535.73,523.908 1537.87,522.872 1540.01,521.82 1542.15,520.751 1544.29,519.665 1546.43,518.562 1548.56,517.442 1550.7,516.305 1552.84,515.151 1554.98,513.98 1557.12,512.793 1559.26,511.59 1561.4,510.372 1563.54,509.138 1565.68,507.889 1567.81,506.626 1569.95,505.35 1572.09,504.06 1574.23,502.759 1576.37,501.446 1578.51,500.123 1580.65,498.79 1582.79,497.448 1584.92,496.099 1587.06,494.742 1589.2,493.38 1591.34,492.014 1593.48,490.643 1595.62,489.271 1597.76,487.898 1599.9,486.524 1602.03,485.153 1604.17,483.783 1606.31,482.417 1608.45,481.055 1610.59,479.7 1612.73,478.35 1614.87,477.009 1617.01,475.677 1619.15,474.355 1621.28,473.044 1623.42,471.746 1625.56,470.461 1627.7,469.19 1629.84,467.933 1631.98,466.692 1634.12,465.468 1636.26,464.259 1638.39,463.069 1640.53,461.896 1642.67,460.741 1644.81,459.606 1646.95,458.489 1649.09,457.392 1651.23,456.315 1653.37,455.256 1655.51,454.217 1657.64,453.197 1659.78,452.196 1661.92,451.213 1664.06,450.249 1666.2,449.303 1668.34,448.373 1670.48,447.461 1672.62,446.565 1674.75,445.683 1676.89,444.816 1679.03,443.963 1681.17,443.122 1683.31,442.293 1685.45,441.474 1687.59,440.664 1689.73,439.863 1691.86,439.068 1694,438.279 1696.14,437.494 1698.28,436.712 1700.42,435.932 1702.56,435.153 1704.7,434.372 1706.84,433.59 1708.98,432.805 1711.11,432.015 1713.25,431.219 1715.39,430.416 1717.53,429.604 1719.67,428.782 1721.81,427.95 1723.95,427.105 1726.09,426.248 1728.22,425.376 1730.36,424.49 1732.5,423.589 1734.64,422.672 1736.78,421.738 1738.92,420.786 1741.06,419.816 1743.2,418.828 1745.33,417.821 1747.47,416.795 1749.61,415.75 1751.75,414.687 1753.89,413.604 1756.03,412.503 1758.17,411.384 1760.31,410.247 1762.45,409.093 1764.58,407.921 1766.72,406.733 1768.86,405.53 1771,404.312 1773.14,403.081 1775.28,401.837 1777.42,400.582 1779.56,399.316 1781.69,398.041 1783.83,396.758 1785.97,395.468 1788.11,394.173 1790.25,392.875 1792.39,391.575 1794.53,390.274 1796.67,388.973 1798.81,387.674 1800.94,386.378 1803.08,385.087 1805.22,383.802 1807.36,382.524 1809.5,381.256 1811.64,379.998 1813.78,378.752 1815.92,377.52 1818.05,376.302 1820.19,375.099 1822.33,373.912 1824.47,372.743 1826.61,371.591 1828.75,370.458 1830.89,369.344 1833.03,368.25 1835.16,367.177 1837.3,366.125 1839.44,365.094 1841.58,364.083 1843.72,363.094 1845.86,362.125 1848,361.177 1850.14,360.249 1852.28,359.341 1854.41,358.452 1856.55,357.581 1858.69,356.729 1860.83,355.893 1862.97,355.072 1865.11,354.267 1867.25,353.475 1869.39,352.695 1871.52,351.926 1873.66,351.167 1875.8,350.415 1877.94,349.671 1880.08,348.931 1882.22,348.194 1884.36,347.459 1886.5,346.725 1888.63,345.988 1890.77,345.249 1892.91,344.506 1895.05,343.756 1897.19,343 1899.33,342.234 1901.47,341.458 1903.61,340.67 1905.75,339.868 1907.88,339.051 1910.02,338.219 1912.16,337.371 1914.3,336.505 1916.44,335.62 1918.58,334.717 1920.72,333.795 1922.86,332.853 1924.99,331.89 1927.13,330.907 1929.27,329.903 1931.41,328.879 1933.55,327.835 1935.69,326.771 1937.83,325.687 1939.97,324.585 1942.11,323.465 1944.24,322.328 1946.38,321.175 1948.52,320.006 1950.66,318.824 1952.8,317.629 1954.94,316.422 1957.08,315.206 1959.22,313.982 1961.35,312.751 1963.49,311.515 1965.63,310.276 1967.77,309.035 1969.91,307.794 1972.05,306.555 1974.19,305.32 1976.33,304.09 1978.46,302.867 1980.6,301.654 1982.74,300.45 1984.88,299.258 1987.02,298.079 1989.16,296.915 1991.3,295.767 1993.44,294.636 1995.58,293.524 1997.71,292.432 1999.85,291.359 2001.99,290.308 2004.13,289.278 2006.27,288.27 2008.41,287.284 2010.55,286.32 2012.69,285.378 2014.82,284.459 2016.96,283.561 2019.1,282.686 2021.24,281.83 2023.38,280.995 2025.52,280.179 2027.66,279.381 2029.8,278.6 2031.93,277.835 2034.07,277.084 2036.21,276.346 2038.35,275.619 2040.49,274.901 2042.63,274.191 2044.77,273.487 2046.91,272.788 2049.05,272.091 2051.18,271.394 2053.32,270.696 2055.46,269.996 2057.6,269.29 2059.74,268.578 2061.88,267.856 2064.02,267.124 2066.16,266.38 2068.29,265.622 2070.43,264.849 2072.57,264.06 2074.71,263.254 2076.85,262.429 2078.99,261.585 2081.13,260.721 2083.27,259.836 2085.41,258.929 2087.54,258.001 2089.68,257.05 2091.82,256.078 2093.96,255.085 2096.1,254.071 2098.24,253.036 2100.38,251.982 2102.52,250.908 2104.65,249.816 2106.79,248.708 2108.93,247.584 2111.07,246.446 2113.21,245.296 2115.35,244.134 2117.49,242.964 2119.63,241.786 2121.76,240.603 2123.9,239.416 2126.04,238.228 2128.18,237.04 2130.32,235.855 2132.46,234.675 2134.6,233.502 2136.74,232.337 2138.88,231.182 2141.01,230.039 2143.15,228.909 2145.29,227.795 2147.43,226.697 2149.57,225.618 2151.71,224.559 2153.85,223.521 2155.99,222.504 2158.12,221.51 2160.26,220.538 2162.4,219.59 2164.54,218.664 2166.68,217.762 2168.82,216.884 2170.96,216.028 2173.1,215.195 2175.24,214.383 2177.37,213.593 2179.51,212.821 2181.65,212.069 2183.79,211.333 2185.93,210.612 2188.07,209.906 2190.21,209.211 2192.35,208.527 2194.48,207.851 2196.62,207.181 2198.76,206.515 2200.9,205.851 2203.04,205.187 2205.18,204.521 2207.32,203.85 2209.46,203.174 2211.59,202.489 2213.73,201.794 2215.87,201.086 2218.01,200.364 2220.15,199.627 2222.29,198.871 2224.43,198.098 2226.57,197.305 2228.71,196.491 2230.84,195.656 2232.98,194.799 2235.12,193.919 2237.26,193.017 2239.4,192.092 2241.54,191.144 2243.68,190.174 2245.82,189.182 2247.95,188.169 2250.09,187.137 2252.23,186.087 2254.37,185.019 2256.51,183.935 2258.65,182.837 2260.79,181.727 2262.93,180.606 2265.06,179.477 2267.2,178.342 2269.34,177.203 2271.48,176.062 2273.62,174.921 2275.76,173.783 2277.9,172.649 2280.04,171.523 2282.18,170.406 2284.31,169.301 2286.45,168.21 2288.59,167.133 2290.73,166.073 2292.87,165.032 2295.01,164.01 2297.15,163.01 2299.29,162.031 2301.42,161.076 2303.56,160.144 2305.7,159.237 2307.84,158.355 2309.98,157.496 2312.12,156.662 2314.26,155.851 2316.4,155.063 2318.54,154.297 2320.67,153.552 2322.81,152.826 2324.95,152.119 2327.09,151.427 2329.23,150.751 2331.37,150.087 2333.51,149.433 2335.65,148.787 2337.78,148.148 2339.92,147.513 2342.06,146.878 2344.2,146.243 2346.34,145.604 2348.48,144.96 2350.62,144.307 2352.76,143.644 "/>
<polyline clip-path="url(#clip371)" style="stroke:#e26f46; stroke-linecap:round; stroke-linejoin:round; stroke-width:4; stroke-opacity:1; fill:none" points="216.089,1384.24 218.227,1382.48 220.366,1380.72 222.505,1378.96 224.644,1377.2 226.783,1375.45 228.921,1373.69 231.06,1371.94 233.199,1370.18 235.338,1368.43 237.477,1366.68 239.616,1364.93 241.754,1363.18 243.893,1361.43 246.032,1359.68 248.171,1357.93 250.31,1356.18 252.448,1354.44 254.587,1352.69 256.726,1350.95 258.865,1349.2 261.004,1347.46 263.142,1345.71 265.281,1343.97 267.42,1342.22 269.559,1340.48 271.698,1338.74 273.836,1337 275.975,1335.25 278.114,1333.51 280.253,1331.77 282.392,1330.03 284.53,1328.28 286.669,1326.54 288.808,1324.8 290.947,1323.06 293.086,1321.32 295.224,1319.57 297.363,1317.83 299.502,1316.09 301.641,1314.35 303.78,1312.6 305.919,1310.86 308.057,1309.12 310.196,1307.37 312.335,1305.63 314.474,1303.89 316.613,1302.14 318.751,1300.39 320.89,1298.65 323.029,1296.9 325.168,1295.15 327.307,1293.41 329.445,1291.66 331.584,1289.91 333.723,1288.16 335.862,1286.41 338.001,1284.66 340.139,1282.9 342.278,1281.15 344.417,1279.4 346.556,1277.64 348.695,1275.89 350.833,1274.13 352.972,1272.37 355.111,1270.61 357.25,1268.85 359.389,1267.09 361.527,1265.33 363.666,1263.57 365.805,1261.8 367.944,1260.04 370.083,1258.27 372.221,1256.5 374.36,1254.73 376.499,1252.96 378.638,1251.19 380.777,1249.41 382.916,1247.64 385.054,1245.86 387.193,1244.08 389.332,1242.31 391.471,1240.52 393.61,1238.74 395.748,1236.96 397.887,1235.17 400.026,1233.38 402.165,1231.6 404.304,1229.81 406.442,1228.01 408.581,1226.22 410.72,1224.42 412.859,1222.63 414.998,1220.83 417.136,1219.03 419.275,1217.22 421.414,1215.42 423.553,1213.61 425.692,1211.8 427.83,1209.99 429.969,1208.18 432.108,1206.37 434.247,1204.55 436.386,1202.74 438.524,1200.92 440.663,1199.09 442.802,1197.27 444.941,1195.44 447.08,1193.62 449.219,1191.79 451.357,1189.96 453.496,1188.12 455.635,1186.29 457.774,1184.45 459.913,1182.61 462.051,1180.77 464.19,1178.93 466.329,1177.08 468.468,1175.23 470.607,1173.39 472.745,1171.53 474.884,1169.68 477.023,1167.83 479.162,1165.97 481.301,1164.11 483.439,1162.25 485.578,1160.39 487.717,1158.52 489.856,1156.66 491.995,1154.79 494.133,1152.92 496.272,1151.05 498.411,1149.18 500.55,1147.3 502.689,1145.42 504.827,1143.55 506.966,1141.67 509.105,1139.78 511.244,1137.9 513.383,1136.01 515.522,1134.13 517.66,1132.24 519.799,1130.35 521.938,1128.46 524.077,1126.57 526.216,1124.67 528.354,1122.78 530.493,1120.88 532.632,1118.99 534.771,1117.09 536.91,1115.19 539.048,1113.29 541.187,1111.39 543.326,1109.49 545.465,1107.58 547.604,1105.68 549.742,1103.77 551.881,1101.87 554.02,1099.96 556.159,1098.06 558.298,1096.15 560.436,1094.24 562.575,1092.34 564.714,1090.43 566.853,1088.52 568.992,1086.62 571.13,1084.71 573.269,1082.8 575.408,1080.89 577.547,1078.99 579.686,1077.08 581.824,1075.18 583.963,1073.27 586.102,1071.37 588.241,1069.46 590.38,1067.56 592.519,1065.66 594.657,1063.76 596.796,1061.86 598.935,1059.96 601.074,1058.07 603.213,1056.17 605.351,1054.28 607.49,1052.39 609.629,1050.5 611.768,1048.61 613.907,1046.73 616.045,1044.85 618.184,1042.97 620.323,1041.09 622.462,1039.21 624.601,1037.34 626.739,1035.47 628.878,1033.61 631.017,1031.74 633.156,1029.88 635.295,1028.03 637.433,1026.18 639.572,1024.33 641.711,1022.48 643.85,1020.64 645.989,1018.8 648.127,1016.97 650.266,1015.14 652.405,1013.32 654.544,1011.5 656.683,1009.69 658.822,1007.88 660.96,1006.07 663.099,1004.27 665.238,1002.48 667.377,1000.69 669.516,998.912 671.654,997.137 673.793,995.368 675.932,993.605 678.071,991.849 680.21,990.099 682.348,988.356 684.487,986.62 686.626,984.891 688.765,983.169 690.904,981.454 693.042,979.747 695.181,978.047 697.32,976.355 699.459,974.671 701.598,972.995 703.736,971.326 705.875,969.666 708.014,968.013 710.153,966.369 712.292,964.734 714.43,963.106 716.569,961.488 718.708,959.878 720.847,958.276 722.986,956.684 725.124,955.1 727.263,953.526 729.402,951.96 731.541,950.404 733.68,948.857 735.819,947.319 737.957,945.79 740.096,944.271 742.235,942.761 744.374,941.26 746.513,939.769 748.651,938.288 750.79,936.816 752.929,935.354 755.068,933.902 757.207,932.46 759.345,931.027 761.484,929.604 763.623,928.191 765.762,926.787 767.901,925.394 770.039,924.011 772.178,922.637 774.317,921.274 776.456,919.92 778.595,918.577 780.733,917.243 782.872,915.919 785.011,914.605 787.15,913.3 789.289,912.005 791.427,910.719 793.566,909.443 795.705,908.175 797.844,906.917 799.983,905.668 802.122,904.427 804.26,903.195 806.399,901.972 808.538,900.757 810.677,899.55 812.816,898.351 814.954,897.16 817.093,895.977 819.232,894.801 821.371,893.633 823.51,892.472 825.648,891.317 827.787,890.17 829.926,889.029 832.065,887.894 834.204,886.766 836.342,885.643 838.481,884.526 840.62,883.414 842.759,882.308 844.898,881.206 847.036,880.109 849.175,879.016 851.314,877.928 853.453,876.843 855.592,875.762 857.73,874.684 859.869,873.609 862.008,872.536 864.147,871.466 866.286,870.398 868.425,869.332 870.563,868.267 872.702,867.203 874.841,866.14 876.98,865.077 879.119,864.014 881.257,862.951 883.396,861.887 885.535,860.822 887.674,859.755 889.813,858.687 891.951,857.616 894.09,856.543 896.229,855.467 898.368,854.388 900.507,853.305 902.645,852.22 904.784,851.13 906.923,850.037 909.062,848.939 911.201,847.835 913.339,846.726 915.478,845.612 917.617,844.491 919.756,843.363 921.895,842.228 924.033,841.086 926.172,839.936 928.311,838.779 930.45,837.613 932.589,836.438 934.727,835.255 936.866,834.062 939.005,832.86 941.144,831.649 943.283,830.428 945.422,829.196 947.56,827.955 949.699,826.703 951.838,825.441 953.977,824.167 956.116,822.883 958.254,821.588 960.393,820.282 962.532,818.965 964.671,817.637 966.81,816.297 968.948,814.946 971.087,813.583 973.226,812.209 975.365,810.824 977.504,809.427 979.642,808.018 981.781,806.599 983.92,805.167 986.059,803.725 988.198,802.271 990.336,800.806 992.475,799.33 994.614,797.843 996.753,796.345 998.892,794.837 1001.03,793.317 1003.17,791.788 1005.31,790.248 1007.45,788.698 1009.59,787.139 1011.72,785.569 1013.86,783.991 1016,782.403 1018.14,780.806 1020.28,779.201 1022.42,777.587 1024.56,775.965 1026.7,774.336 1028.83,772.698 1030.97,771.052 1033.11,769.399 1035.25,767.739 1037.39,766.074 1039.53,764.403 1041.67,762.727 1043.81,761.048 1045.95,759.365 1048.08,757.679 1050.22,755.991 1052.36,754.302 1054.5,752.612 1056.64,750.921 1058.78,749.231 1060.92,747.542 1063.06,745.853 1065.19,744.167 1067.33,742.483 1069.47,740.803 1071.61,739.125 1073.75,737.452 1075.89,735.783 1078.03,734.12 1080.17,732.462 1082.31,730.81 1084.44,729.164 1086.58,727.526 1088.72,725.894 1090.86,724.271 1093,722.656 1095.14,721.05 1097.28,719.453 1099.42,717.866 1101.55,716.289 1103.69,714.722 1105.83,713.166 1107.97,711.621 1110.11,710.088 1112.25,708.567 1114.39,707.058 1116.53,705.561 1118.66,704.078 1120.8,702.608 1122.94,701.152 1125.08,699.709 1127.22,698.281 1129.36,696.868 1131.5,695.469 1133.64,694.086 1135.78,692.718 1137.91,691.365 1140.05,690.029 1142.19,688.709 1144.33,687.405 1146.47,686.118 1148.61,684.848 1150.75,683.595 1152.89,682.36 1155.02,681.141 1157.16,679.939 1159.3,678.754 1161.44,677.584 1163.58,676.43 1165.72,675.291 1167.86,674.167 1170,673.057 1172.13,671.961 1174.27,670.879 1176.41,669.81 1178.55,668.753 1180.69,667.708 1182.83,666.675 1184.97,665.653 1187.11,664.642 1189.25,663.64 1191.38,662.649 1193.52,661.666 1195.66,660.691 1197.8,659.725 1199.94,658.766 1202.08,657.813 1204.22,656.866 1206.36,655.925 1208.49,654.989 1210.63,654.056 1212.77,653.127 1214.91,652.201 1217.05,651.277 1219.19,650.355 1221.33,649.433 1223.47,648.511 1225.61,647.589 1227.74,646.664 1229.88,645.738 1232.02,644.809 1234.16,643.875 1236.3,642.937 1238.44,641.994 1240.58,641.045 1242.72,640.088 1244.85,639.123 1246.99,638.15 1249.13,637.167 1251.27,636.173 1253.41,635.169 1255.55,634.151 1257.69,633.121 1259.83,632.077 1261.96,631.02 1264.1,629.949 1266.24,628.864 1268.38,627.765 1270.52,626.651 1272.66,625.521 1274.8,624.376 1276.94,623.214 1279.08,622.037 1281.21,620.843 1283.35,619.633 1285.49,618.406 1287.63,617.163 1289.77,615.903 1291.91,614.627 1294.05,613.333 1296.19,612.024 1298.32,610.698 1300.46,609.355 1302.6,607.997 1304.74,606.623 1306.88,605.234 1309.02,603.829 1311.16,602.41 1313.3,600.976 1315.43,599.529 1317.57,598.068 1319.71,596.594 1321.85,595.108 1323.99,593.61 1326.13,592.102 1328.27,590.583 1330.41,589.054 1332.55,587.517 1334.68,585.971 1336.82,584.419 1338.96,582.86 1341.1,581.295 1343.24,579.727 1345.38,578.155 1347.52,576.58 1349.66,575.005 1351.79,573.429 1353.93,571.854 1356.07,570.282 1358.21,568.713 1360.35,567.149 1362.49,565.59 1364.63,564.036 1366.77,562.487 1368.91,560.946 1371.04,559.413 1373.18,557.89 1375.32,556.377 1377.46,554.876 1379.6,553.387 1381.74,551.912 1383.88,550.452 1386.02,549.006 1388.15,547.577 1390.29,546.164 1392.43,544.769 1394.57,543.391 1396.71,542.032 1398.85,540.692 1400.99,539.371 1403.13,538.07 1405.26,536.789 1407.4,535.527 1409.54,534.287 1411.68,533.067 1413.82,531.867 1415.96,530.688 1418.1,529.529 1420.24,528.391 1422.38,527.273 1424.51,526.175 1426.65,525.097 1428.79,524.039 1430.93,522.999 1433.07,521.978 1435.21,520.975 1437.35,519.99 1439.49,519.022 1441.62,518.07 1443.76,517.133 1445.9,516.211 1448.04,515.304 1450.18,514.409 1452.32,513.526 1454.46,512.654 1456.6,511.792 1458.73,510.939 1460.87,510.094 1463.01,509.255 1465.15,508.425 1467.29,507.603 1469.43,506.786 1471.57,505.973 1473.71,505.162 1475.85,504.351 1477.98,503.539 1480.12,502.723 1482.26,501.904 1484.4,501.078 1486.54,500.244 1488.68,499.402 1490.82,498.55 1492.96,497.686 1495.09,496.811 1497.23,495.922 1499.37,495.018 1501.51,494.1 1503.65,493.165 1505.79,492.213 1507.93,491.244 1510.07,490.257 1512.21,489.251 1514.34,488.226 1516.48,487.181 1518.62,486.116 1520.76,485.031 1522.9,483.926 1525.04,482.8 1527.18,481.653 1529.32,480.485 1531.45,479.297 1533.59,478.088 1535.73,476.859 1537.87,475.61 1540.01,474.341 1542.15,473.052 1544.29,471.745 1546.43,470.42 1548.56,469.077 1550.7,467.717 1552.84,466.34 1554.98,464.949 1557.12,463.542 1559.26,462.122 1561.4,460.69 1563.54,459.246 1565.68,457.792 1567.81,456.329 1569.95,454.858 1572.09,453.38 1574.23,451.898 1576.37,450.413 1578.51,448.925 1580.65,447.435 1582.79,445.943 1584.92,444.451 1587.06,442.961 1589.2,441.474 1591.34,439.993 1593.48,438.52 1595.62,437.056 1597.76,435.602 1599.9,434.161 1602.03,432.734 1604.17,431.321 1606.31,429.925 1608.45,428.547 1610.59,427.186 1612.73,425.846 1614.87,424.526 1617.01,423.227 1619.15,421.949 1621.28,420.695 1623.42,419.463 1625.56,418.255 1627.7,417.07 1629.84,415.91 1631.98,414.773 1634.12,413.661 1636.26,412.573 1638.39,411.509 1640.53,410.469 1642.67,409.453 1644.81,408.459 1646.95,407.489 1649.09,406.54 1651.23,405.613 1653.37,404.707 1655.51,403.821 1657.64,402.954 1659.78,402.104 1661.92,401.271 1664.06,400.455 1666.2,399.652 1668.34,398.862 1670.48,398.084 1672.62,397.316 1674.75,396.555 1676.89,395.802 1679.03,395.053 1681.17,394.307 1683.31,393.561 1685.45,392.814 1687.59,392.065 1689.73,391.315 1691.86,390.562 1694,389.803 1696.14,389.036 1698.28,388.259 1700.42,387.472 1702.56,386.671 1704.7,385.856 1706.84,385.025 1708.98,384.177 1711.11,383.31 1713.25,382.424 1715.39,381.517 1717.53,380.589 1719.67,379.639 1721.81,378.666 1723.95,377.669 1726.09,376.649 1728.22,375.604 1730.36,374.536 1732.5,373.443 1734.64,372.325 1736.78,371.184 1738.92,370.018 1741.06,368.829 1743.2,367.617 1745.33,366.383 1747.47,365.127 1749.61,363.849 1751.75,362.552 1753.89,361.236 1756.03,359.902 1758.17,358.552 1760.31,357.186 1762.45,355.807 1764.58,354.416 1766.72,353.014 1768.86,351.604 1771,350.188 1773.14,348.767 1775.28,347.344 1777.42,345.921 1779.56,344.5 1781.69,343.082 1783.83,341.666 1785.97,340.255 1788.11,338.851 1790.25,337.458 1792.39,336.076 1794.53,334.708 1796.67,333.356 1798.81,332.021 1800.94,330.705 1803.08,329.409 1805.22,328.135 1807.36,326.884 1809.5,325.657 1811.64,324.454 1813.78,323.277 1815.92,322.126 1818.05,321.001 1820.19,319.904 1822.33,318.833 1824.47,317.79 1826.61,316.774 1828.75,315.786 1830.89,314.824 1833.03,313.888 1835.16,312.978 1837.3,312.094 1839.44,311.233 1841.58,310.396 1843.72,309.58 1845.86,308.786 1848,308.011 1850.14,307.254 1852.28,306.514 1854.41,305.788 1856.55,305.074 1858.69,304.372 1860.83,303.677 1862.97,302.989 1865.11,302.305 1867.25,301.621 1869.39,300.936 1871.52,300.248 1873.66,299.557 1875.8,298.862 1877.94,298.159 1880.08,297.446 1882.22,296.721 1884.36,295.982 1886.5,295.227 1888.63,294.453 1890.77,293.66 1892.91,292.846 1895.05,292.01 1897.19,291.15 1899.33,290.265 1901.47,289.355 1903.61,288.418 1905.75,287.456 1907.88,286.466 1910.02,285.448 1912.16,284.404 1914.3,283.332 1916.44,282.233 1918.58,281.108 1920.72,279.957 1922.86,278.78 1924.99,277.579 1927.13,276.355 1929.27,275.109 1931.41,273.841 1933.55,272.555 1935.69,271.251 1937.83,269.931 1939.97,268.597 1942.11,267.251 1944.24,265.896 1946.38,264.534 1948.52,263.168 1950.66,261.8 1952.8,260.434 1954.94,259.071 1957.08,257.712 1959.22,256.359 1961.35,255.013 1963.49,253.679 1965.63,252.358 1967.77,251.053 1969.91,249.765 1972.05,248.498 1974.19,247.252 1976.33,246.03 1978.46,244.833 1980.6,243.662 1982.74,242.518 1984.88,241.403 1987.02,240.316 1989.16,239.258 1991.3,238.231 1993.44,237.233 1995.58,236.266 1997.71,235.328 1999.85,234.42 2001.99,233.541 2004.13,232.69 2006.27,231.866 2008.41,231.069 2010.55,230.296 2012.69,229.547 2014.82,228.821 2016.96,228.114 2019.1,227.425 2021.24,226.752 2023.38,226.093 2025.52,225.445 2027.66,224.806 2029.8,224.172 2031.93,223.54 2034.07,222.908 2036.21,222.273 2038.35,221.635 2040.49,220.992 2042.63,220.34 2044.77,219.678 2046.91,219.001 2049.05,218.307 2051.18,217.595 2053.32,216.863 2055.46,216.107 2057.6,215.328 2059.74,214.522 2061.88,213.69 2064.02,212.83 2066.16,211.941 2068.29,211.022 2070.43,210.074 2072.57,209.096 2074.71,208.088 2076.85,207.05 2078.99,205.983 2081.13,204.886 2083.27,203.763 2085.41,202.612 2087.54,201.435 2089.68,200.235 2091.82,199.012 2093.96,197.768 2096.1,196.506 2098.24,195.227 2100.38,193.935 2102.52,192.632 2104.65,191.32 2106.79,190.003 2108.93,188.685 2111.07,187.368 2113.21,186.055 2115.35,184.745 2117.49,183.442 2119.63,182.149 2121.76,180.87 2123.9,179.607 2126.04,178.362 2128.18,177.139 2130.32,175.939 2132.46,174.765 2134.6,173.618 2136.74,172.499 2138.88,171.411 2141.01,170.353 2143.15,169.326 2145.29,168.332 2147.43,167.37 2149.57,166.441 2151.71,165.544 2153.85,164.679 2155.99,163.846 2158.12,163.043 2160.26,162.27 2162.4,161.525 2164.54,160.806 2166.68,160.113 2168.82,159.442 2170.96,158.792 2173.1,158.159 2175.24,157.543 2177.37,156.938 2179.51,156.343 2181.65,155.754 2183.79,155.167 2185.93,154.579 2188.07,153.99 2190.21,153.397 2192.35,152.797 2194.48,152.186 2196.62,151.561 2198.76,150.92 2200.9,150.258 2203.04,149.574 2205.18,148.866 2207.32,148.132 2209.46,147.369 2211.59,146.577 2213.73,145.755 2215.87,144.902 2218.01,144.016 2220.15,143.098 2222.29,142.147 2224.43,141.164 2226.57,140.149 2228.71,139.103 2230.84,138.027 2232.98,136.921 2235.12,135.788 2237.26,134.628 2239.4,133.445 2241.54,132.24 2243.68,131.015 2245.82,129.774 2247.95,128.519 2250.09,127.254 2252.23,125.983 2254.37,124.708 2256.51,123.435 2258.65,122.163 2260.79,120.895 2262.93,119.634 2265.06,118.384 2267.2,117.15 2269.34,115.933 2271.48,114.738 2273.62,113.566 2275.76,112.421 2277.9,111.303 2280.04,110.216 2282.18,109.161 2284.31,108.138 2286.45,107.149 2288.59,106.195 2290.73,105.275 2292.87,104.39 2295.01,103.54 2297.15,102.725 2299.29,101.942 2301.42,101.192 2303.56,100.473 2305.7,99.7832 2307.84,99.1208 2309.98,98.4837 2312.12,97.8692 2314.26,97.2746 2316.4,96.6968 2318.54,96.1324 2320.67,95.5777 2322.81,95.0288 2324.95,94.4815 2327.09,93.9328 2329.23,93.3808 2331.37,92.8217 2333.51,92.2523 2335.65,91.6691 2337.78,91.0691 2339.92,90.4495 2342.06,89.8077 2344.2,89.1411 2346.34,88.4475 2348.48,87.7249 2350.62,86.9715 2352.76,86.1857 "/>
<path clip-path="url(#clip370)" d="M287.311 248.629 L1103.78 248.629 L1103.78 93.1086 L287.311 93.1086  Z" fill="#ffffff" fill-rule="evenodd" fill-opacity="1"/>
<polyline clip-path="url(#clip370)" style="stroke:#000000; stroke-linecap:round; stroke-linejoin:round; stroke-width:4; stroke-opacity:1; fill:none" points="287.311,248.629 1103.78,248.629 1103.78,93.1086 287.311,93.1086 287.311,248.629 "/>
<polyline clip-path="url(#clip370)" style="stroke:#009af9; stroke-linecap:round; stroke-linejoin:round; stroke-width:4; stroke-opacity:1; fill:none" points="311.052,144.949 453.496,144.949 "/>
<path clip-path="url(#clip370)" d="M481.519 158.34 L481.519 172.09 L477.237 172.09 L477.237 136.303 L481.519 136.303 L481.519 140.238 Q482.862 137.923 484.899 136.812 Q486.959 135.678 489.806 135.678 Q494.528 135.678 497.468 139.428 Q500.431 143.178 500.431 149.289 Q500.431 155.4 497.468 159.15 Q494.528 162.9 489.806 162.9 Q486.959 162.9 484.899 161.789 Q482.862 160.655 481.519 158.34 M496.01 149.289 Q496.01 144.59 494.065 141.928 Q492.144 139.243 488.765 139.243 Q485.385 139.243 483.441 141.928 Q481.519 144.59 481.519 149.289 Q481.519 153.988 483.441 156.673 Q485.385 159.335 488.765 159.335 Q492.144 159.335 494.065 156.673 Q496.01 153.988 496.01 149.289 Z" fill="#000000" fill-rule="nonzero" fill-opacity="1" /><path clip-path="url(#clip370)" d="M517.538 139.289 Q514.112 139.289 512.121 141.974 Q510.13 144.636 510.13 149.289 Q510.13 153.942 512.098 156.627 Q514.089 159.289 517.538 159.289 Q520.94 159.289 522.931 156.604 Q524.922 153.918 524.922 149.289 Q524.922 144.682 522.931 141.997 Q520.94 139.289 517.538 139.289 M517.538 135.678 Q523.093 135.678 526.264 139.289 Q529.436 142.9 529.436 149.289 Q529.436 155.655 526.264 159.289 Q523.093 162.9 517.538 162.9 Q511.959 162.9 508.788 159.289 Q505.64 155.655 505.64 149.289 Q505.64 142.9 508.788 139.289 Q511.959 135.678 517.538 135.678 Z" fill="#000000" fill-rule="nonzero" fill-opacity="1" /><path clip-path="url(#clip370)" d="M540.709 128.942 L540.709 136.303 L549.482 136.303 L549.482 139.613 L540.709 139.613 L540.709 153.687 Q540.709 156.858 541.565 157.761 Q542.445 158.664 545.107 158.664 L549.482 158.664 L549.482 162.229 L545.107 162.229 Q540.176 162.229 538.301 160.4 Q536.426 158.548 536.426 153.687 L536.426 139.613 L533.301 139.613 L533.301 136.303 L536.426 136.303 L536.426 128.942 L540.709 128.942 Z" fill="#000000" fill-rule="nonzero" fill-opacity="1" /><path clip-path="url(#clip370)" d="M555.686 156.349 L560.57 156.349 L560.57 162.229 L555.686 162.229 L555.686 156.349 Z" fill="#000000" fill-rule="nonzero" fill-opacity="1" /><path clip-path="url(#clip370)" d="M565.547 127.669 L594.783 127.669 L594.783 131.604 L582.514 131.604 L582.514 162.229 L577.815 162.229 L577.815 131.604 L565.547 131.604 L565.547 127.669 Z" fill="#000000" fill-rule="nonzero" fill-opacity="1" /><path clip-path="url(#clip370)" d="M614.181 136.303 L618.44 136.303 L618.44 162.229 L614.181 162.229 L614.181 136.303 M614.181 126.21 L618.44 126.21 L618.44 131.604 L614.181 131.604 L614.181 126.21 Z" fill="#000000" fill-rule="nonzero" fill-opacity="1" /><path clip-path="url(#clip370)" d="M648.903 146.581 L648.903 162.229 L644.643 162.229 L644.643 146.719 Q644.643 143.039 643.208 141.21 Q641.773 139.382 638.903 139.382 Q635.454 139.382 633.463 141.581 Q631.472 143.78 631.472 147.576 L631.472 162.229 L627.19 162.229 L627.19 136.303 L631.472 136.303 L631.472 140.331 Q633 137.993 635.06 136.835 Q637.143 135.678 639.852 135.678 Q644.319 135.678 646.611 138.456 Q648.903 141.21 648.903 146.581 Z" fill="#000000" fill-rule="nonzero" fill-opacity="1" /><path clip-path="url(#clip370)" d="M682.514 139.289 Q679.088 139.289 677.097 141.974 Q675.106 144.636 675.106 149.289 Q675.106 153.942 677.074 156.627 Q679.064 159.289 682.514 159.289 Q685.916 159.289 687.907 156.604 Q689.898 153.918 689.898 149.289 Q689.898 144.682 687.907 141.997 Q685.916 139.289 682.514 139.289 M682.514 135.678 Q688.069 135.678 691.24 139.289 Q694.412 142.9 694.412 149.289 Q694.412 155.655 691.24 159.289 Q688.069 162.9 682.514 162.9 Q676.935 162.9 673.764 159.289 Q670.615 155.655 670.615 149.289 Q670.615 142.9 673.764 139.289 Q676.935 135.678 682.514 135.678 Z" fill="#000000" fill-rule="nonzero" fill-opacity="1" /><path clip-path="url(#clip370)" d="M716.495 140.284 Q715.777 139.868 714.921 139.682 Q714.087 139.474 713.069 139.474 Q709.458 139.474 707.513 141.835 Q705.592 144.173 705.592 148.571 L705.592 162.229 L701.31 162.229 L701.31 136.303 L705.592 136.303 L705.592 140.331 Q706.935 137.969 709.087 136.835 Q711.24 135.678 714.319 135.678 Q714.759 135.678 715.291 135.747 Q715.824 135.794 716.472 135.909 L716.495 140.284 Z" fill="#000000" fill-rule="nonzero" fill-opacity="1" /><path clip-path="url(#clip370)" d="M720.962 136.303 L725.222 136.303 L725.222 162.229 L720.962 162.229 L720.962 136.303 M720.962 126.21 L725.222 126.21 L725.222 131.604 L720.962 131.604 L720.962 126.21 Z" fill="#000000" fill-rule="nonzero" fill-opacity="1" /><path clip-path="url(#clip370)" d="M751.194 148.965 Q751.194 144.335 749.272 141.789 Q747.374 139.243 743.925 139.243 Q740.499 139.243 738.578 141.789 Q736.68 144.335 736.68 148.965 Q736.68 153.571 738.578 156.118 Q740.499 158.664 743.925 158.664 Q747.374 158.664 749.272 156.118 Q751.194 153.571 751.194 148.965 M755.453 159.011 Q755.453 165.631 752.513 168.849 Q749.573 172.09 743.509 172.09 Q741.263 172.09 739.273 171.742 Q737.282 171.418 735.407 170.724 L735.407 166.58 Q737.282 167.599 739.11 168.085 Q740.939 168.571 742.837 168.571 Q747.027 168.571 749.11 166.372 Q751.194 164.196 751.194 159.775 L751.194 157.668 Q749.874 159.96 747.814 161.094 Q745.754 162.229 742.884 162.229 Q738.115 162.229 735.198 158.594 Q732.282 154.96 732.282 148.965 Q732.282 142.946 735.198 139.312 Q738.115 135.678 742.884 135.678 Q745.754 135.678 747.814 136.812 Q749.874 137.946 751.194 140.238 L751.194 136.303 L755.453 136.303 L755.453 159.011 Z" fill="#000000" fill-rule="nonzero" fill-opacity="1" /><path clip-path="url(#clip370)" d="M764.226 136.303 L768.485 136.303 L768.485 162.229 L764.226 162.229 L764.226 136.303 M764.226 126.21 L768.485 126.21 L768.485 131.604 L764.226 131.604 L764.226 126.21 Z" fill="#000000" fill-rule="nonzero" fill-opacity="1" /><path clip-path="url(#clip370)" d="M798.948 146.581 L798.948 162.229 L794.689 162.229 L794.689 146.719 Q794.689 143.039 793.254 141.21 Q791.819 139.382 788.948 139.382 Q785.499 139.382 783.508 141.581 Q781.518 143.78 781.518 147.576 L781.518 162.229 L777.235 162.229 L777.235 136.303 L781.518 136.303 L781.518 140.331 Q783.045 137.993 785.106 136.835 Q787.189 135.678 789.897 135.678 Q794.365 135.678 796.656 138.456 Q798.948 141.21 798.948 146.581 Z" fill="#000000" fill-rule="nonzero" fill-opacity="1" /><path clip-path="url(#clip370)" d="M819.226 149.196 Q814.064 149.196 812.073 150.377 Q810.082 151.557 810.082 154.405 Q810.082 156.673 811.564 158.016 Q813.068 159.335 815.638 159.335 Q819.179 159.335 821.309 156.835 Q823.462 154.312 823.462 150.145 L823.462 149.196 L819.226 149.196 M827.721 147.437 L827.721 162.229 L823.462 162.229 L823.462 158.293 Q822.004 160.655 819.828 161.789 Q817.652 162.9 814.504 162.9 Q810.522 162.9 808.161 160.678 Q805.823 158.432 805.823 154.682 Q805.823 150.307 808.74 148.085 Q811.68 145.863 817.49 145.863 L823.462 145.863 L823.462 145.446 Q823.462 142.507 821.517 140.909 Q819.596 139.289 816.101 139.289 Q813.879 139.289 811.772 139.821 Q809.666 140.354 807.721 141.419 L807.721 137.483 Q810.059 136.581 812.258 136.141 Q814.457 135.678 816.541 135.678 Q822.166 135.678 824.943 138.594 Q827.721 141.511 827.721 147.437 Z" fill="#000000" fill-rule="nonzero" fill-opacity="1" /><path clip-path="url(#clip370)" d="M836.494 126.21 L840.753 126.21 L840.753 162.229 L836.494 162.229 L836.494 126.21 Z" fill="#000000" fill-rule="nonzero" fill-opacity="1" /><path clip-path="url(#clip370)" d="M881.262 137.067 L881.262 141.094 Q879.457 140.169 877.513 139.706 Q875.568 139.243 873.485 139.243 Q870.313 139.243 868.716 140.215 Q867.142 141.187 867.142 143.131 Q867.142 144.613 868.276 145.469 Q869.411 146.303 872.837 147.067 L874.295 147.391 Q878.832 148.363 880.73 150.145 Q882.651 151.905 882.651 155.076 Q882.651 158.687 879.781 160.793 Q876.934 162.9 871.934 162.9 Q869.851 162.9 867.582 162.483 Q865.337 162.09 862.837 161.28 L862.837 156.881 Q865.198 158.108 867.489 158.733 Q869.781 159.335 872.026 159.335 Q875.036 159.335 876.656 158.317 Q878.276 157.275 878.276 155.4 Q878.276 153.664 877.096 152.738 Q875.938 151.812 871.98 150.956 L870.499 150.608 Q866.54 149.775 864.781 148.062 Q863.022 146.326 863.022 143.317 Q863.022 139.659 865.614 137.669 Q868.207 135.678 872.975 135.678 Q875.337 135.678 877.42 136.025 Q879.503 136.372 881.262 137.067 Z" fill="#000000" fill-rule="nonzero" fill-opacity="1" /><path clip-path="url(#clip370)" d="M900.221 164.636 Q898.415 169.266 896.702 170.678 Q894.989 172.09 892.119 172.09 L888.716 172.09 L888.716 168.525 L891.216 168.525 Q892.975 168.525 893.948 167.692 Q894.92 166.858 896.1 163.756 L896.864 161.812 L886.378 136.303 L890.892 136.303 L898.994 156.581 L907.096 136.303 L911.61 136.303 L900.221 164.636 Z" fill="#000000" fill-rule="nonzero" fill-opacity="1" /><path clip-path="url(#clip370)" d="M934.017 137.067 L934.017 141.094 Q932.211 140.169 930.267 139.706 Q928.322 139.243 926.239 139.243 Q923.068 139.243 921.471 140.215 Q919.897 141.187 919.897 143.131 Q919.897 144.613 921.031 145.469 Q922.165 146.303 925.591 147.067 L927.049 147.391 Q931.586 148.363 933.484 150.145 Q935.406 151.905 935.406 155.076 Q935.406 158.687 932.535 160.793 Q929.688 162.9 924.688 162.9 Q922.605 162.9 920.336 162.483 Q918.091 162.09 915.591 161.28 L915.591 156.881 Q917.952 158.108 920.244 158.733 Q922.535 159.335 924.781 159.335 Q927.79 159.335 929.41 158.317 Q931.031 157.275 931.031 155.4 Q931.031 153.664 929.85 152.738 Q928.693 151.812 924.734 150.956 L923.253 150.608 Q919.295 149.775 917.535 148.062 Q915.776 146.326 915.776 143.317 Q915.776 139.659 918.369 137.669 Q920.961 135.678 925.73 135.678 Q928.091 135.678 930.174 136.025 Q932.258 136.372 934.017 137.067 Z" fill="#000000" fill-rule="nonzero" fill-opacity="1" /><path clip-path="url(#clip370)" d="M946.401 128.942 L946.401 136.303 L955.174 136.303 L955.174 139.613 L946.401 139.613 L946.401 153.687 Q946.401 156.858 947.258 157.761 Q948.137 158.664 950.799 158.664 L955.174 158.664 L955.174 162.229 L950.799 162.229 Q945.869 162.229 943.994 160.4 Q942.119 158.548 942.119 153.687 L942.119 139.613 L938.994 139.613 L938.994 136.303 L942.119 136.303 L942.119 128.942 L946.401 128.942 Z" fill="#000000" fill-rule="nonzero" fill-opacity="1" /><path clip-path="url(#clip370)" d="M982.952 148.201 L982.952 150.284 L963.369 150.284 Q963.646 154.682 966.007 156.997 Q968.392 159.289 972.628 159.289 Q975.081 159.289 977.373 158.687 Q979.688 158.085 981.956 156.881 L981.956 160.909 Q979.665 161.881 977.257 162.391 Q974.85 162.9 972.373 162.9 Q966.169 162.9 962.535 159.289 Q958.924 155.678 958.924 149.52 Q958.924 143.155 962.35 139.428 Q965.799 135.678 971.632 135.678 Q976.864 135.678 979.896 139.057 Q982.952 142.414 982.952 148.201 M978.693 146.951 Q978.646 143.456 976.725 141.372 Q974.827 139.289 971.679 139.289 Q968.114 139.289 965.961 141.303 Q963.831 143.317 963.507 146.974 L978.693 146.951 Z" fill="#000000" fill-rule="nonzero" fill-opacity="1" /><path clip-path="url(#clip370)" d="M1010.13 141.28 Q1011.72 138.409 1013.95 137.044 Q1016.17 135.678 1019.18 135.678 Q1023.23 135.678 1025.43 138.525 Q1027.63 141.349 1027.63 146.581 L1027.63 162.229 L1023.35 162.229 L1023.35 146.719 Q1023.35 142.993 1022.03 141.187 Q1020.71 139.382 1018 139.382 Q1014.69 139.382 1012.77 141.581 Q1010.85 143.78 1010.85 147.576 L1010.85 162.229 L1006.56 162.229 L1006.56 146.719 Q1006.56 142.969 1005.24 141.187 Q1003.92 139.382 1001.17 139.382 Q997.905 139.382 995.984 141.604 Q994.063 143.803 994.063 147.576 L994.063 162.229 L989.78 162.229 L989.78 136.303 L994.063 136.303 L994.063 140.331 Q995.521 137.946 997.558 136.812 Q999.595 135.678 1002.4 135.678 Q1005.22 135.678 1007.19 137.113 Q1009.18 138.548 1010.13 141.28 Z" fill="#000000" fill-rule="nonzero" fill-opacity="1" /><polyline clip-path="url(#clip370)" style="stroke:#e26f46; stroke-linecap:round; stroke-linejoin:round; stroke-width:4; stroke-opacity:1; fill:none" points="311.052,196.789 453.496,196.789 "/>
<path clip-path="url(#clip370)" d="M481.519 210.18 L481.519 223.93 L477.237 223.93 L477.237 188.143 L481.519 188.143 L481.519 192.078 Q482.862 189.763 484.899 188.652 Q486.959 187.518 489.806 187.518 Q494.528 187.518 497.468 191.268 Q500.431 195.018 500.431 201.129 Q500.431 207.24 497.468 210.99 Q494.528 214.74 489.806 214.74 Q486.959 214.74 484.899 213.629 Q482.862 212.495 481.519 210.18 M496.01 201.129 Q496.01 196.43 494.065 193.768 Q492.144 191.083 488.765 191.083 Q485.385 191.083 483.441 193.768 Q481.519 196.43 481.519 201.129 Q481.519 205.828 483.441 208.513 Q485.385 211.175 488.765 211.175 Q492.144 211.175 494.065 208.513 Q496.01 205.828 496.01 201.129 Z" fill="#000000" fill-rule="nonzero" fill-opacity="1" /><path clip-path="url(#clip370)" d="M517.538 191.129 Q514.112 191.129 512.121 193.814 Q510.13 196.476 510.13 201.129 Q510.13 205.782 512.098 208.467 Q514.089 211.129 517.538 211.129 Q520.94 211.129 522.931 208.444 Q524.922 205.758 524.922 201.129 Q524.922 196.522 522.931 193.837 Q520.94 191.129 517.538 191.129 M517.538 187.518 Q523.093 187.518 526.264 191.129 Q529.436 194.74 529.436 201.129 Q529.436 207.495 526.264 211.129 Q523.093 214.74 517.538 214.74 Q511.959 214.74 508.788 211.129 Q505.64 207.495 505.64 201.129 Q505.64 194.74 508.788 191.129 Q511.959 187.518 517.538 187.518 Z" fill="#000000" fill-rule="nonzero" fill-opacity="1" /><path clip-path="url(#clip370)" d="M540.709 180.782 L540.709 188.143 L549.482 188.143 L549.482 191.453 L540.709 191.453 L540.709 205.527 Q540.709 208.698 541.565 209.601 Q542.445 210.504 545.107 210.504 L549.482 210.504 L549.482 214.069 L545.107 214.069 Q540.176 214.069 538.301 212.24 Q536.426 210.388 536.426 205.527 L536.426 191.453 L533.301 191.453 L533.301 188.143 L536.426 188.143 L536.426 180.782 L540.709 180.782 Z" fill="#000000" fill-rule="nonzero" fill-opacity="1" /><path clip-path="url(#clip370)" d="M555.686 208.189 L560.57 208.189 L560.57 214.069 L555.686 214.069 L555.686 208.189 Z" fill="#000000" fill-rule="nonzero" fill-opacity="1" /><path clip-path="url(#clip370)" d="M565.547 179.509 L594.783 179.509 L594.783 183.444 L582.514 183.444 L582.514 214.069 L577.815 214.069 L577.815 183.444 L565.547 183.444 L565.547 179.509 Z" fill="#000000" fill-rule="nonzero" fill-opacity="1" /><path clip-path="url(#clip370)" d="M614.181 188.143 L618.44 188.143 L618.44 214.069 L614.181 214.069 L614.181 188.143 M614.181 178.05 L618.44 178.05 L618.44 183.444 L614.181 183.444 L614.181 178.05 Z" fill="#000000" fill-rule="nonzero" fill-opacity="1" /><path clip-path="url(#clip370)" d="M648.903 198.421 L648.903 214.069 L644.643 214.069 L644.643 198.559 Q644.643 194.879 643.208 193.05 Q641.773 191.222 638.903 191.222 Q635.454 191.222 633.463 193.421 Q631.472 195.62 631.472 199.416 L631.472 214.069 L627.19 214.069 L627.19 188.143 L631.472 188.143 L631.472 192.171 Q633 189.833 635.06 188.675 Q637.143 187.518 639.852 187.518 Q644.319 187.518 646.611 190.296 Q648.903 193.05 648.903 198.421 Z" fill="#000000" fill-rule="nonzero" fill-opacity="1" /><path clip-path="url(#clip370)" d="M688.995 188.907 L688.995 192.934 Q687.189 192.009 685.245 191.546 Q683.301 191.083 681.217 191.083 Q678.046 191.083 676.449 192.055 Q674.875 193.027 674.875 194.971 Q674.875 196.453 676.009 197.309 Q677.143 198.143 680.569 198.907 L682.027 199.231 Q686.564 200.203 688.463 201.985 Q690.384 203.745 690.384 206.916 Q690.384 210.527 687.514 212.633 Q684.666 214.74 679.666 214.74 Q677.583 214.74 675.315 214.323 Q673.069 213.93 670.569 213.12 L670.569 208.721 Q672.93 209.948 675.222 210.573 Q677.514 211.175 679.759 211.175 Q682.768 211.175 684.389 210.157 Q686.009 209.115 686.009 207.24 Q686.009 205.504 684.828 204.578 Q683.671 203.652 679.713 202.796 L678.231 202.448 Q674.273 201.615 672.514 199.902 Q670.754 198.166 670.754 195.157 Q670.754 191.499 673.347 189.509 Q675.94 187.518 680.708 187.518 Q683.069 187.518 685.152 187.865 Q687.236 188.212 688.995 188.907 Z" fill="#000000" fill-rule="nonzero" fill-opacity="1" /><path clip-path="url(#clip370)" d="M697.166 188.143 L701.425 188.143 L701.425 214.069 L697.166 214.069 L697.166 188.143 M697.166 178.05 L701.425 178.05 L701.425 183.444 L697.166 183.444 L697.166 178.05 Z" fill="#000000" fill-rule="nonzero" fill-opacity="1" /><path clip-path="url(#clip370)" d="M730.523 193.12 Q732.12 190.249 734.342 188.884 Q736.564 187.518 739.573 187.518 Q743.624 187.518 745.823 190.365 Q748.022 193.189 748.022 198.421 L748.022 214.069 L743.74 214.069 L743.74 198.559 Q743.74 194.833 742.421 193.027 Q741.101 191.222 738.393 191.222 Q735.083 191.222 733.161 193.421 Q731.24 195.62 731.24 199.416 L731.24 214.069 L726.958 214.069 L726.958 198.559 Q726.958 194.809 725.638 193.027 Q724.319 191.222 721.564 191.222 Q718.3 191.222 716.379 193.444 Q714.458 195.643 714.458 199.416 L714.458 214.069 L710.175 214.069 L710.175 188.143 L714.458 188.143 L714.458 192.171 Q715.916 189.786 717.953 188.652 Q719.99 187.518 722.791 187.518 Q725.615 187.518 727.583 188.953 Q729.573 190.388 730.523 193.12 Z" fill="#000000" fill-rule="nonzero" fill-opacity="1" /><path clip-path="url(#clip370)" d="M760.638 210.18 L760.638 223.93 L756.356 223.93 L756.356 188.143 L760.638 188.143 L760.638 192.078 Q761.981 189.763 764.018 188.652 Q766.078 187.518 768.925 187.518 Q773.647 187.518 776.587 191.268 Q779.55 195.018 779.55 201.129 Q779.55 207.24 776.587 210.99 Q773.647 214.74 768.925 214.74 Q766.078 214.74 764.018 213.629 Q761.981 212.495 760.638 210.18 M775.129 201.129 Q775.129 196.43 773.184 193.768 Q771.263 191.083 767.883 191.083 Q764.504 191.083 762.559 193.768 Q760.638 196.43 760.638 201.129 Q760.638 205.828 762.559 208.513 Q764.504 211.175 767.883 211.175 Q771.263 211.175 773.184 208.513 Q775.129 205.828 775.129 201.129 Z" fill="#000000" fill-rule="nonzero" fill-opacity="1" /><path clip-path="url(#clip370)" d="M786.61 178.05 L790.869 178.05 L790.869 214.069 L786.61 214.069 L786.61 178.05 Z" fill="#000000" fill-rule="nonzero" fill-opacity="1" /><path clip-path="url(#clip370)" d="M799.781 188.143 L804.041 188.143 L804.041 214.069 L799.781 214.069 L799.781 188.143 M799.781 178.05 L804.041 178.05 L804.041 183.444 L799.781 183.444 L799.781 178.05 Z" fill="#000000" fill-rule="nonzero" fill-opacity="1" /><path clip-path="url(#clip370)" d="M826.078 178.05 L826.078 181.592 L822.004 181.592 Q819.712 181.592 818.809 182.518 Q817.929 183.444 817.929 185.851 L817.929 188.143 L824.943 188.143 L824.943 191.453 L817.929 191.453 L817.929 214.069 L813.647 214.069 L813.647 191.453 L809.573 191.453 L809.573 188.143 L813.647 188.143 L813.647 186.337 Q813.647 182.009 815.661 180.041 Q817.675 178.05 822.05 178.05 L826.078 178.05 Z" fill="#000000" fill-rule="nonzero" fill-opacity="1" /><path clip-path="url(#clip370)" d="M829.642 188.143 L833.902 188.143 L833.902 214.069 L829.642 214.069 L829.642 188.143 M829.642 178.05 L833.902 178.05 L833.902 183.444 L829.642 183.444 L829.642 178.05 Z" fill="#000000" fill-rule="nonzero" fill-opacity="1" /><path clip-path="url(#clip370)" d="M864.989 200.041 L864.989 202.124 L845.406 202.124 Q845.684 206.522 848.045 208.837 Q850.429 211.129 854.665 211.129 Q857.119 211.129 859.411 210.527 Q861.726 209.925 863.994 208.721 L863.994 212.749 Q861.702 213.721 859.295 214.231 Q856.888 214.74 854.411 214.74 Q848.207 214.74 844.573 211.129 Q840.962 207.518 840.962 201.36 Q840.962 194.995 844.388 191.268 Q847.837 187.518 853.67 187.518 Q858.901 187.518 861.934 190.897 Q864.989 194.254 864.989 200.041 M860.73 198.791 Q860.684 195.296 858.763 193.212 Q856.864 191.129 853.716 191.129 Q850.152 191.129 847.999 193.143 Q845.869 195.157 845.545 198.814 L860.73 198.791 Z" fill="#000000" fill-rule="nonzero" fill-opacity="1" /><path clip-path="url(#clip370)" d="M889.04 192.078 L889.04 178.05 L893.299 178.05 L893.299 214.069 L889.04 214.069 L889.04 210.18 Q887.698 212.495 885.637 213.629 Q883.6 214.74 880.73 214.74 Q876.031 214.74 873.068 210.99 Q870.128 207.24 870.128 201.129 Q870.128 195.018 873.068 191.268 Q876.031 187.518 880.73 187.518 Q883.6 187.518 885.637 188.652 Q887.698 189.763 889.04 192.078 M874.526 201.129 Q874.526 205.828 876.448 208.513 Q878.392 211.175 881.772 211.175 Q885.151 211.175 887.096 208.513 Q889.04 205.828 889.04 201.129 Q889.04 196.43 887.096 193.768 Q885.151 191.083 881.772 191.083 Q878.392 191.083 876.448 193.768 Q874.526 196.43 874.526 201.129 Z" fill="#000000" fill-rule="nonzero" fill-opacity="1" /><path clip-path="url(#clip370)" d="M933.67 188.907 L933.67 192.934 Q931.864 192.009 929.92 191.546 Q927.975 191.083 925.892 191.083 Q922.721 191.083 921.123 192.055 Q919.549 193.027 919.549 194.971 Q919.549 196.453 920.684 197.309 Q921.818 198.143 925.244 198.907 L926.702 199.231 Q931.239 200.203 933.137 201.985 Q935.058 203.745 935.058 206.916 Q935.058 210.527 932.188 212.633 Q929.341 214.74 924.341 214.74 Q922.258 214.74 919.989 214.323 Q917.744 213.93 915.244 213.12 L915.244 208.721 Q917.605 209.948 919.897 210.573 Q922.188 211.175 924.434 211.175 Q927.443 211.175 929.063 210.157 Q930.684 209.115 930.684 207.24 Q930.684 205.504 929.503 204.578 Q928.346 203.652 924.387 202.796 L922.906 202.448 Q918.947 201.615 917.188 199.902 Q915.429 198.166 915.429 195.157 Q915.429 191.499 918.022 189.509 Q920.614 187.518 925.383 187.518 Q927.744 187.518 929.827 187.865 Q931.91 188.212 933.67 188.907 Z" fill="#000000" fill-rule="nonzero" fill-opacity="1" /><path clip-path="url(#clip370)" d="M952.628 216.476 Q950.822 221.106 949.109 222.518 Q947.396 223.93 944.526 223.93 L941.123 223.93 L941.123 220.365 L943.623 220.365 Q945.383 220.365 946.355 219.532 Q947.327 218.698 948.507 215.596 L949.271 213.652 L938.785 188.143 L943.299 188.143 L951.401 208.421 L959.503 188.143 L964.017 188.143 L952.628 216.476 Z" fill="#000000" fill-rule="nonzero" fill-opacity="1" /><path clip-path="url(#clip370)" d="M986.424 188.907 L986.424 192.934 Q984.618 192.009 982.674 191.546 Q980.73 191.083 978.646 191.083 Q975.475 191.083 973.878 192.055 Q972.304 193.027 972.304 194.971 Q972.304 196.453 973.438 197.309 Q974.572 198.143 977.998 198.907 L979.456 199.231 Q983.993 200.203 985.892 201.985 Q987.813 203.745 987.813 206.916 Q987.813 210.527 984.942 212.633 Q982.095 214.74 977.095 214.74 Q975.012 214.74 972.743 214.323 Q970.498 213.93 967.998 213.12 L967.998 208.721 Q970.359 209.948 972.651 210.573 Q974.943 211.175 977.188 211.175 Q980.197 211.175 981.818 210.157 Q983.438 209.115 983.438 207.24 Q983.438 205.504 982.257 204.578 Q981.1 203.652 977.142 202.796 L975.66 202.448 Q971.702 201.615 969.943 199.902 Q968.183 198.166 968.183 195.157 Q968.183 191.499 970.776 189.509 Q973.368 187.518 978.137 187.518 Q980.498 187.518 982.581 187.865 Q984.665 188.212 986.424 188.907 Z" fill="#000000" fill-rule="nonzero" fill-opacity="1" /><path clip-path="url(#clip370)" d="M998.808 180.782 L998.808 188.143 L1007.58 188.143 L1007.58 191.453 L998.808 191.453 L998.808 205.527 Q998.808 208.698 999.665 209.601 Q1000.54 210.504 1003.21 210.504 L1007.58 210.504 L1007.58 214.069 L1003.21 214.069 Q998.276 214.069 996.401 212.24 Q994.526 210.388 994.526 205.527 L994.526 191.453 L991.401 191.453 L991.401 188.143 L994.526 188.143 L994.526 180.782 L998.808 180.782 Z" fill="#000000" fill-rule="nonzero" fill-opacity="1" /><path clip-path="url(#clip370)" d="M1035.36 200.041 L1035.36 202.124 L1015.78 202.124 Q1016.05 206.522 1018.41 208.837 Q1020.8 211.129 1025.03 211.129 Q1027.49 211.129 1029.78 210.527 Q1032.1 209.925 1034.36 208.721 L1034.36 212.749 Q1032.07 213.721 1029.66 214.231 Q1027.26 214.74 1024.78 214.74 Q1018.58 214.74 1014.94 211.129 Q1011.33 207.518 1011.33 201.36 Q1011.33 194.995 1014.76 191.268 Q1018.21 187.518 1024.04 187.518 Q1029.27 187.518 1032.3 190.897 Q1035.36 194.254 1035.36 200.041 M1031.1 198.791 Q1031.05 195.296 1029.13 193.212 Q1027.23 191.129 1024.09 191.129 Q1020.52 191.129 1018.37 193.143 Q1016.24 195.157 1015.91 198.814 L1031.1 198.791 Z" fill="#000000" fill-rule="nonzero" fill-opacity="1" /><path clip-path="url(#clip370)" d="M1062.53 193.12 Q1064.13 190.249 1066.35 188.884 Q1068.58 187.518 1071.59 187.518 Q1075.64 187.518 1077.84 190.365 Q1080.03 193.189 1080.03 198.421 L1080.03 214.069 L1075.75 214.069 L1075.75 198.559 Q1075.75 194.833 1074.43 193.027 Q1073.11 191.222 1070.4 191.222 Q1067.09 191.222 1065.17 193.421 Q1063.25 195.62 1063.25 199.416 L1063.25 214.069 L1058.97 214.069 L1058.97 198.559 Q1058.97 194.809 1057.65 193.027 Q1056.33 191.222 1053.58 191.222 Q1050.31 191.222 1048.39 193.444 Q1046.47 195.643 1046.47 199.416 L1046.47 214.069 L1042.19 214.069 L1042.19 188.143 L1046.47 188.143 L1046.47 192.171 Q1047.93 189.786 1049.97 188.652 Q1052 187.518 1054.8 187.518 Q1057.63 187.518 1059.59 188.953 Q1061.59 190.388 1062.53 193.12 Z" fill="#000000" fill-rule="nonzero" fill-opacity="1" /></svg>
