<?xml version="1.0" encoding="utf-8"?>
<svg xmlns="http://www.w3.org/2000/svg" xmlns:xlink="http://www.w3.org/1999/xlink" width="600" height="400" viewBox="0 0 2400 1600">
<defs>
  <clipPath id="clip160">
    <rect x="0" y="0" width="2400" height="1600"/>
  </clipPath>
</defs>
<path clip-path="url(#clip160)" d="M0 1600 L2400 1600 L2400 0 L0 0  Z" fill="#ffffff" fill-rule="evenodd" fill-opacity="1"/>
<defs>
  <clipPath id="clip161">
    <rect x="112" y="47" width="2242" height="1377"/>
  </clipPath>
</defs>
<path clip-path="url(#clip160)" d="M112.177 1423.18 L2352.76 1423.18 L2352.76 47.2441 L112.177 47.2441  Z" fill="#ffffff" fill-rule="evenodd" fill-opacity="1"/>
<polyline clip-path="url(#clip161)" style="stroke:#000000; stroke-linecap:round; stroke-linejoin:round; stroke-width:2; stroke-opacity:0.1; fill:none" points="112.177,1423.18 112.177,47.2441 "/>
<polyline clip-path="url(#clip161)" style="stroke:#000000; stroke-linecap:round; stroke-linejoin:round; stroke-width:2; stroke-opacity:0.1; fill:none" points="610.084,1423.18 610.084,47.2441 "/>
<polyline clip-path="url(#clip161)" style="stroke:#000000; stroke-linecap:round; stroke-linejoin:round; stroke-width:2; stroke-opacity:0.1; fill:none" points="1107.99,1423.18 1107.99,47.2441 "/>
<polyline clip-path="url(#clip161)" style="stroke:#000000; stroke-linecap:round; stroke-linejoin:round; stroke-width:2; stroke-opacity:0.1; fill:none" points="1605.9,1423.18 1605.9,47.2441 "/>
<polyline clip-path="url(#clip161)" style="stroke:#000000; stroke-linecap:round; stroke-linejoin:round; stroke-width:2; stroke-opacity:0.1; fill:none" points="2103.8,1423.18 2103.8,47.2441 "/>
<polyline clip-path="url(#clip161)" style="stroke:#000000; stroke-linecap:round; stroke-linejoin:round; stroke-width:2; stroke-opacity:0.1; fill:none" points="112.177,1413.91 2352.76,1413.91 "/>
<polyline clip-path="url(#clip161)" style="stroke:#000000; stroke-linecap:round; stroke-linejoin:round; stroke-width:2; stroke-opacity:0.1; fill:none" points="112.177,1117.14 2352.76,1117.14 "/>
<polyline clip-path="url(#clip161)" style="stroke:#000000; stroke-linecap:round; stroke-linejoin:round; stroke-width:2; stroke-opacity:0.1; fill:none" points="112.177,820.373 2352.76,820.373 "/>
<polyline clip-path="url(#clip161)" style="stroke:#000000; stroke-linecap:round; stroke-linejoin:round; stroke-width:2; stroke-opacity:0.1; fill:none" points="112.177,523.605 2352.76,523.605 "/>
<polyline clip-path="url(#clip161)" style="stroke:#000000; stroke-linecap:round; stroke-linejoin:round; stroke-width:2; stroke-opacity:0.1; fill:none" points="112.177,226.837 2352.76,226.837 "/>
<polyline clip-path="url(#clip160)" style="stroke:#000000; stroke-linecap:round; stroke-linejoin:round; stroke-width:4; stroke-opacity:1; fill:none" points="112.177,1423.18 2352.76,1423.18 "/>
<polyline clip-path="url(#clip160)" style="stroke:#000000; stroke-linecap:round; stroke-linejoin:round; stroke-width:4; stroke-opacity:1; fill:none" points="112.177,1423.18 112.177,1404.28 "/>
<polyline clip-path="url(#clip160)" style="stroke:#000000; stroke-linecap:round; stroke-linejoin:round; stroke-width:4; stroke-opacity:1; fill:none" points="610.084,1423.18 610.084,1404.28 "/>
<polyline clip-path="url(#clip160)" style="stroke:#000000; stroke-linecap:round; stroke-linejoin:round; stroke-width:4; stroke-opacity:1; fill:none" points="1107.99,1423.18 1107.99,1404.28 "/>
<polyline clip-path="url(#clip160)" style="stroke:#000000; stroke-linecap:round; stroke-linejoin:round; stroke-width:4; stroke-opacity:1; fill:none" points="1605.9,1423.18 1605.9,1404.28 "/>
<polyline clip-path="url(#clip160)" style="stroke:#000000; stroke-linecap:round; stroke-linejoin:round; stroke-width:4; stroke-opacity:1; fill:none" points="2103.8,1423.18 2103.8,1404.28 "/>
<path clip-path="url(#clip160)" d="M112.177 1454.1 Q108.566 1454.1 106.737 1457.66 Q104.932 1461.2 104.932 1468.33 Q104.932 1475.44 106.737 1479.01 Q108.566 1482.55 112.177 1482.55 Q115.811 1482.55 117.617 1479.01 Q119.446 1475.44 119.446 1468.33 Q119.446 1461.2 117.617 1457.66 Q115.811 1454.1 112.177 1454.1 M112.177 1450.39 Q117.987 1450.39 121.043 1455 Q124.122 1459.58 124.122 1468.33 Q124.122 1477.06 121.043 1481.67 Q117.987 1486.25 112.177 1486.25 Q106.367 1486.25 103.288 1481.67 Q100.233 1477.06 100.233 1468.33 Q100.233 1459.58 103.288 1455 Q106.367 1450.39 112.177 1450.39 Z" fill="#000000" fill-rule="nonzero" fill-opacity="1" /><path clip-path="url(#clip160)" d="M584.771 1481.64 L592.41 1481.64 L592.41 1455.28 L584.1 1456.95 L584.1 1452.69 L592.364 1451.02 L597.04 1451.02 L597.04 1481.64 L604.678 1481.64 L604.678 1485.58 L584.771 1485.58 L584.771 1481.64 Z" fill="#000000" fill-rule="nonzero" fill-opacity="1" /><path clip-path="url(#clip160)" d="M624.123 1454.1 Q620.512 1454.1 618.683 1457.66 Q616.878 1461.2 616.878 1468.33 Q616.878 1475.44 618.683 1479.01 Q620.512 1482.55 624.123 1482.55 Q627.757 1482.55 629.563 1479.01 Q631.391 1475.44 631.391 1468.33 Q631.391 1461.2 629.563 1457.66 Q627.757 1454.1 624.123 1454.1 M624.123 1450.39 Q629.933 1450.39 632.989 1455 Q636.067 1459.58 636.067 1468.33 Q636.067 1477.06 632.989 1481.67 Q629.933 1486.25 624.123 1486.25 Q618.313 1486.25 615.234 1481.67 Q612.178 1477.06 612.178 1468.33 Q612.178 1459.58 615.234 1455 Q618.313 1450.39 624.123 1450.39 Z" fill="#000000" fill-rule="nonzero" fill-opacity="1" /><path clip-path="url(#clip160)" d="M1086.76 1481.64 L1103.08 1481.64 L1103.08 1485.58 L1081.14 1485.58 L1081.14 1481.64 Q1083.8 1478.89 1088.38 1474.26 Q1092.99 1469.61 1094.17 1468.27 Q1096.42 1465.74 1097.3 1464.01 Q1098.2 1462.25 1098.2 1460.56 Q1098.2 1457.8 1096.25 1456.07 Q1094.33 1454.33 1091.23 1454.33 Q1089.03 1454.33 1086.58 1455.09 Q1084.15 1455.86 1081.37 1457.41 L1081.37 1452.69 Q1084.19 1451.55 1086.65 1450.97 Q1089.1 1450.39 1091.14 1450.39 Q1096.51 1450.39 1099.7 1453.08 Q1102.9 1455.77 1102.9 1460.26 Q1102.9 1462.39 1102.09 1464.31 Q1101.3 1466.2 1099.19 1468.8 Q1098.61 1469.47 1095.51 1472.69 Q1092.41 1475.88 1086.76 1481.64 Z" fill="#000000" fill-rule="nonzero" fill-opacity="1" /><path clip-path="url(#clip160)" d="M1122.9 1454.1 Q1119.29 1454.1 1117.46 1457.66 Q1115.65 1461.2 1115.65 1468.33 Q1115.65 1475.44 1117.46 1479.01 Q1119.29 1482.55 1122.9 1482.55 Q1126.53 1482.55 1128.34 1479.01 Q1130.17 1475.44 1130.17 1468.33 Q1130.17 1461.2 1128.34 1457.66 Q1126.53 1454.1 1122.9 1454.1 M1122.9 1450.39 Q1128.71 1450.39 1131.76 1455 Q1134.84 1459.58 1134.84 1468.33 Q1134.84 1477.06 1131.76 1481.67 Q1128.71 1486.25 1122.9 1486.25 Q1117.09 1486.25 1114.01 1481.67 Q1110.95 1477.06 1110.95 1468.33 Q1110.95 1459.58 1114.01 1455 Q1117.09 1450.39 1122.9 1450.39 Z" fill="#000000" fill-rule="nonzero" fill-opacity="1" /><path clip-path="url(#clip160)" d="M1594.74 1466.95 Q1598.1 1467.66 1599.97 1469.93 Q1601.87 1472.2 1601.87 1475.53 Q1601.87 1480.65 1598.35 1483.45 Q1594.83 1486.25 1588.35 1486.25 Q1586.17 1486.25 1583.86 1485.81 Q1581.57 1485.39 1579.11 1484.54 L1579.11 1480.02 Q1581.06 1481.16 1583.37 1481.74 Q1585.69 1482.32 1588.21 1482.32 Q1592.61 1482.32 1594.9 1480.58 Q1597.22 1478.84 1597.22 1475.53 Q1597.22 1472.48 1595.06 1470.77 Q1592.93 1469.03 1589.11 1469.03 L1585.09 1469.03 L1585.09 1465.19 L1589.3 1465.19 Q1592.75 1465.19 1594.58 1463.82 Q1596.41 1462.43 1596.41 1459.84 Q1596.41 1457.18 1594.51 1455.77 Q1592.63 1454.33 1589.11 1454.33 Q1587.19 1454.33 1584.99 1454.75 Q1582.79 1455.16 1580.16 1456.04 L1580.16 1451.88 Q1582.82 1451.14 1585.13 1450.77 Q1587.47 1450.39 1589.53 1450.39 Q1594.85 1450.39 1597.96 1452.83 Q1601.06 1455.23 1601.06 1459.35 Q1601.06 1462.22 1599.41 1464.21 Q1597.77 1466.18 1594.74 1466.95 Z" fill="#000000" fill-rule="nonzero" fill-opacity="1" /><path clip-path="url(#clip160)" d="M1620.73 1454.1 Q1617.12 1454.1 1615.29 1457.66 Q1613.49 1461.2 1613.49 1468.33 Q1613.49 1475.44 1615.29 1479.01 Q1617.12 1482.55 1620.73 1482.55 Q1624.37 1482.55 1626.17 1479.01 Q1628 1475.44 1628 1468.33 Q1628 1461.2 1626.17 1457.66 Q1624.37 1454.1 1620.73 1454.1 M1620.73 1450.39 Q1626.54 1450.39 1629.6 1455 Q1632.68 1459.58 1632.68 1468.33 Q1632.68 1477.06 1629.6 1481.67 Q1626.54 1486.25 1620.73 1486.25 Q1614.92 1486.25 1611.85 1481.67 Q1608.79 1477.06 1608.79 1468.33 Q1608.79 1459.58 1611.85 1455 Q1614.92 1450.39 1620.73 1450.39 Z" fill="#000000" fill-rule="nonzero" fill-opacity="1" /><path clip-path="url(#clip160)" d="M2091.97 1455.09 L2080.17 1473.54 L2091.97 1473.54 L2091.97 1455.09 M2090.75 1451.02 L2096.63 1451.02 L2096.63 1473.54 L2101.56 1473.54 L2101.56 1477.43 L2096.63 1477.43 L2096.63 1485.58 L2091.97 1485.58 L2091.97 1477.43 L2076.37 1477.43 L2076.37 1472.92 L2090.75 1451.02 Z" fill="#000000" fill-rule="nonzero" fill-opacity="1" /><path clip-path="url(#clip160)" d="M2119.29 1454.1 Q2115.68 1454.1 2113.85 1457.66 Q2112.04 1461.2 2112.04 1468.33 Q2112.04 1475.44 2113.85 1479.01 Q2115.68 1482.55 2119.29 1482.55 Q2122.92 1482.55 2124.73 1479.01 Q2126.56 1475.44 2126.56 1468.33 Q2126.56 1461.2 2124.73 1457.66 Q2122.92 1454.1 2119.29 1454.1 M2119.29 1450.39 Q2125.1 1450.39 2128.15 1455 Q2131.23 1459.58 2131.23 1468.33 Q2131.23 1477.06 2128.15 1481.67 Q2125.1 1486.25 2119.29 1486.25 Q2113.48 1486.25 2110.4 1481.67 Q2107.34 1477.06 2107.34 1468.33 Q2107.34 1459.58 2110.4 1455 Q2113.48 1450.39 2119.29 1450.39 Z" fill="#000000" fill-rule="nonzero" fill-opacity="1" /><path clip-path="url(#clip160)" d="M1231.53 1522.27 L1231.53 1532.4 L1243.59 1532.4 L1243.59 1536.95 L1231.53 1536.95 L1231.53 1556.3 Q1231.53 1560.66 1232.71 1561.9 Q1233.91 1563.14 1237.58 1563.14 L1243.59 1563.14 L1243.59 1568.04 L1237.58 1568.04 Q1230.8 1568.04 1228.22 1565.53 Q1225.64 1562.98 1225.64 1556.3 L1225.64 1536.95 L1221.34 1536.95 L1221.34 1532.4 L1225.64 1532.4 L1225.64 1522.27 L1231.53 1522.27 Z" fill="#000000" fill-rule="nonzero" fill-opacity="1" /><polyline clip-path="url(#clip160)" style="stroke:#000000; stroke-linecap:round; stroke-linejoin:round; stroke-width:4; stroke-opacity:1; fill:none" points="112.177,1423.18 112.177,47.2441 "/>
<polyline clip-path="url(#clip160)" style="stroke:#000000; stroke-linecap:round; stroke-linejoin:round; stroke-width:4; stroke-opacity:1; fill:none" points="112.177,1413.91 131.075,1413.91 "/>
<polyline clip-path="url(#clip160)" style="stroke:#000000; stroke-linecap:round; stroke-linejoin:round; stroke-width:4; stroke-opacity:1; fill:none" points="112.177,1117.14 131.075,1117.14 "/>
<polyline clip-path="url(#clip160)" style="stroke:#000000; stroke-linecap:round; stroke-linejoin:round; stroke-width:4; stroke-opacity:1; fill:none" points="112.177,820.373 131.075,820.373 "/>
<polyline clip-path="url(#clip160)" style="stroke:#000000; stroke-linecap:round; stroke-linejoin:round; stroke-width:4; stroke-opacity:1; fill:none" points="112.177,523.605 131.075,523.605 "/>
<polyline clip-path="url(#clip160)" style="stroke:#000000; stroke-linecap:round; stroke-linejoin:round; stroke-width:4; stroke-opacity:1; fill:none" points="112.177,226.837 131.075,226.837 "/>
<path clip-path="url(#clip160)" d="M64.2328 1399.71 Q60.6217 1399.71 58.793 1403.27 Q56.9875 1406.81 56.9875 1413.94 Q56.9875 1421.05 58.793 1424.61 Q60.6217 1428.16 64.2328 1428.16 Q67.867 1428.16 69.6726 1424.61 Q71.5013 1421.05 71.5013 1413.94 Q71.5013 1406.81 69.6726 1403.27 Q67.867 1399.71 64.2328 1399.71 M64.2328 1396 Q70.0429 1396 73.0985 1400.61 Q76.1772 1405.19 76.1772 1413.94 Q76.1772 1422.67 73.0985 1427.28 Q70.0429 1431.86 64.2328 1431.86 Q58.4226 1431.86 55.344 1427.28 Q52.2884 1422.67 52.2884 1413.94 Q52.2884 1405.19 55.344 1400.61 Q58.4226 1396 64.2328 1396 Z" fill="#000000" fill-rule="nonzero" fill-opacity="1" /><path clip-path="url(#clip160)" d="M56.2699 1130.49 L63.9087 1130.49 L63.9087 1104.12 L55.5986 1105.79 L55.5986 1101.53 L63.8624 1099.86 L68.5383 1099.86 L68.5383 1130.49 L76.1772 1130.49 L76.1772 1134.42 L56.2699 1134.42 L56.2699 1130.49 Z" fill="#000000" fill-rule="nonzero" fill-opacity="1" /><path clip-path="url(#clip160)" d="M59.8578 833.718 L76.1772 833.718 L76.1772 837.653 L54.2328 837.653 L54.2328 833.718 Q56.8949 830.963 61.4782 826.333 Q66.0846 821.681 67.2652 820.338 Q69.5105 817.815 70.3902 816.079 Q71.2929 814.32 71.2929 812.63 Q71.2929 809.875 69.3485 808.139 Q67.4272 806.403 64.3254 806.403 Q62.1263 806.403 59.6726 807.167 Q57.2421 807.931 54.4643 809.482 L54.4643 804.759 Q57.2884 803.625 59.7421 803.047 Q62.1958 802.468 64.2328 802.468 Q69.6031 802.468 72.7976 805.153 Q75.992 807.838 75.992 812.329 Q75.992 814.458 75.1818 816.38 Q74.3948 818.278 72.2883 820.87 Q71.7096 821.542 68.6078 824.759 Q65.5059 827.954 59.8578 833.718 Z" fill="#000000" fill-rule="nonzero" fill-opacity="1" /><path clip-path="url(#clip160)" d="M69.0476 522.251 Q72.404 522.969 74.279 525.237 Q76.1772 527.506 76.1772 530.839 Q76.1772 535.955 72.6587 538.756 Q69.1402 541.556 62.6587 541.556 Q60.4828 541.556 58.168 541.117 Q55.8764 540.7 53.4227 539.843 L53.4227 535.33 Q55.3671 536.464 57.6819 537.043 Q59.9967 537.621 62.5198 537.621 Q66.918 537.621 69.2096 535.885 Q71.5244 534.149 71.5244 530.839 Q71.5244 527.783 69.3717 526.07 Q67.242 524.334 63.4226 524.334 L59.3949 524.334 L59.3949 520.492 L63.6078 520.492 Q67.0569 520.492 68.8855 519.126 Q70.7142 517.737 70.7142 515.145 Q70.7142 512.483 68.8161 511.07 Q66.9411 509.635 63.4226 509.635 Q61.5013 509.635 59.3023 510.052 Q57.1032 510.469 54.4643 511.348 L54.4643 507.182 Q57.1264 506.441 59.4412 506.071 Q61.7791 505.7 63.8393 505.7 Q69.1633 505.7 72.2652 508.131 Q75.367 510.538 75.367 514.658 Q75.367 517.529 73.7235 519.52 Q72.08 521.487 69.0476 522.251 Z" fill="#000000" fill-rule="nonzero" fill-opacity="1" /><path clip-path="url(#clip160)" d="M66.5939 213.632 L54.7884 232.08 L66.5939 232.08 L66.5939 213.632 M65.367 209.557 L71.2466 209.557 L71.2466 232.08 L76.1772 232.08 L76.1772 235.969 L71.2466 235.969 L71.2466 244.117 L66.5939 244.117 L66.5939 235.969 L50.9921 235.969 L50.9921 231.456 L65.367 209.557 Z" fill="#000000" fill-rule="nonzero" fill-opacity="1" /><polyline clip-path="url(#clip161)" style="stroke:#009af9; stroke-linecap:round; stroke-linejoin:round; stroke-width:24; stroke-opacity:1; fill:none" points="112.177,820.373 114.42,833.585 116.663,846.488 118.906,859.071 121.148,871.325 123.391,883.236 125.634,894.794 127.877,905.986 130.12,916.802 132.363,927.236 134.605,937.281 136.848,946.936 139.091,956.198 141.334,965.072 143.577,973.56 145.819,981.669 148.062,989.407 150.305,996.782 152.548,1003.8 154.791,1010.48 157.034,1016.83 159.276,1022.86 161.519,1028.59 163.762,1034.02 166.005,1039.17 168.248,1044.06 170.491,1048.68 172.733,1053.06 174.976,1057.21 177.219,1061.13 179.462,1064.84 181.705,1068.36 183.947,1071.68 186.19,1074.81 188.433,1077.78 190.676,1080.58 192.919,1083.23 195.162,1085.72 197.404,1088.08 199.647,1090.31 201.89,1092.41 204.133,1094.39 206.376,1096.25 208.619,1098.01 210.861,1099.67 213.104,1101.23 215.347,1102.7 217.59,1104.08 219.833,1105.37 222.075,1106.59 224.318,1107.74 226.561,1108.81 228.804,1109.82 231.047,1110.77 233.29,1111.65 235.532,1112.48 237.775,1113.25 240.018,1113.98 242.261,1114.65 244.504,1115.28 246.746,1115.86 248.989,1116.4 251.232,1116.9 253.475,1117.36 255.718,1117.79 257.961,1118.18 260.203,1118.54 262.446,1118.87 264.689,1119.17 266.932,1119.44 269.175,1119.69 271.418,1119.91 273.66,1120.11 275.903,1120.28 278.146,1120.43 280.389,1120.56 282.632,1120.67 284.874,1120.76 287.117,1120.84 289.36,1120.89 291.603,1120.94 293.846,1120.96 296.089,1120.97 298.331,1120.97 300.574,1120.95 302.817,1120.92 305.06,1120.88 307.303,1120.82 309.545,1120.76 311.788,1120.68 314.031,1120.59 316.274,1120.5 318.517,1120.39 320.76,1120.27 323.002,1120.15 325.245,1120.01 327.488,1119.87 329.731,1119.72 331.974,1119.57 334.217,1119.4 336.459,1119.23 338.702,1119.05 340.945,1118.87 343.188,1118.68 345.431,1118.48 347.673,1118.28 349.916,1118.07 352.159,1117.86 354.402,1117.64 356.645,1117.42 358.888,1117.19 361.13,1116.96 363.373,1116.72 365.616,1116.48 367.859,1116.23 370.102,1115.98 372.344,1115.72 374.587,1115.46 376.83,1115.2 379.073,1114.93 381.316,1114.66 383.559,1114.39 385.801,1114.11 388.044,1113.82 390.287,1113.54 392.53,1113.25 394.773,1112.96 397.016,1112.66 399.258,1112.36 401.501,1112.06 403.744,1111.75 405.987,1111.45 408.23,1111.13 410.472,1110.82 412.715,1110.5 414.958,1110.18 417.201,1109.86 419.444,1109.53 421.687,1109.2 423.929,1108.87 426.172,1108.53 428.415,1108.19 430.658,1107.85 432.901,1107.51 435.143,1107.16 437.386,1106.81 439.629,1106.46 441.872,1106.11 444.115,1105.75 446.358,1105.39 448.6,1105.02 450.843,1104.66 453.086,1104.29 455.329,1103.92 457.572,1103.54 459.815,1103.17 462.057,1102.79 464.3,1102.41 466.543,1102.02 468.786,1101.64 471.029,1101.25 473.271,1100.86 475.514,1100.46 477.757,1100.07 480,1099.67 482.243,1099.26 484.486,1098.86 486.728,1098.45 488.971,1098.04 491.214,1097.63 493.457,1097.21 495.7,1096.8 497.942,1096.38 500.185,1095.95 502.428,1095.53 504.671,1095.1 506.914,1094.67 509.157,1094.23 511.399,1093.8 513.642,1093.36 515.885,1092.92 518.128,1092.47 520.371,1092.03 522.614,1091.58 524.856,1091.13 527.099,1090.67 529.342,1090.22 531.585,1089.76 533.828,1089.29 536.07,1088.83 538.313,1088.36 540.556,1087.89 542.799,1087.42 545.042,1086.94 547.285,1086.47 549.527,1085.99 551.77,1085.5 554.013,1085.02 556.256,1084.53 558.499,1084.04 560.741,1083.54 562.984,1083.05 565.227,1082.55 567.47,1082.05 569.713,1081.54 571.956,1081.04 574.198,1080.53 576.441,1080.02 578.684,1079.5 580.927,1078.98 583.17,1078.46 585.413,1077.94 587.655,1077.42 589.898,1076.89 592.141,1076.36 594.384,1075.83 596.627,1075.29 598.869,1074.75 601.112,1074.21 603.355,1073.67 605.598,1073.13 607.841,1072.58 610.084,1072.03 612.326,1071.47 614.569,1070.92 616.812,1070.36 619.055,1069.8 621.298,1069.24 623.54,1068.67 625.783,1068.1 628.026,1067.53 630.269,1066.96 632.512,1066.38 634.755,1065.8 636.997,1065.22 639.24,1064.64 641.483,1064.05 643.726,1063.46 645.969,1062.87 648.212,1062.28 650.454,1061.68 652.697,1061.08 654.94,1060.48 657.183,1059.87 659.426,1059.27 661.668,1058.66 663.911,1058.05 666.154,1057.43 668.397,1056.81 670.64,1056.19 672.883,1055.57 675.125,1054.95 677.368,1054.32 679.611,1053.7 681.854,1053.07 684.097,1052.43 686.339,1051.8 688.582,1051.16 690.825,1050.52 693.068,1049.88 695.311,1049.24 697.554,1048.59 699.796,1047.95 702.039,1047.3 704.282,1046.65 706.525,1045.99 708.768,1045.34 711.011,1044.68 713.253,1044.02 715.496,1043.36 717.739,1042.7 719.982,1042.04 722.225,1041.37 724.467,1040.7 726.71,1040.03 728.953,1039.36 731.196,1038.69 733.439,1038.02 735.682,1037.34 737.924,1036.66 740.167,1035.98 742.41,1035.3 744.653,1034.62 746.896,1033.93 749.138,1033.24 751.381,1032.56 753.624,1031.87 755.867,1031.17 758.11,1030.48 760.353,1029.78 762.595,1029.09 764.838,1028.39 767.081,1027.69 769.324,1026.99 771.567,1026.28 773.81,1025.58 776.052,1024.87 778.295,1024.16 780.538,1023.45 782.781,1022.74 785.024,1022.02 787.266,1021.31 789.509,1020.59 791.752,1019.87 793.995,1019.16 796.238,1018.44 798.481,1017.71 800.723,1016.99 802.966,1016.27 805.209,1015.54 807.452,1014.82 809.695,1014.09 811.938,1013.37 814.18,1012.64 816.423,1011.91 818.666,1011.18 820.909,1010.45 823.152,1009.72 825.394,1008.99 827.637,1008.26 829.88,1007.53 832.123,1006.8 834.366,1006.07 836.609,1005.33 838.851,1004.6 841.094,1003.87 843.337,1003.13 845.58,1002.4 847.823,1001.67 850.065,1000.93 852.308,1000.2 854.551,999.465 856.794,998.73 859.037,997.996 861.28,997.261 863.522,996.527 865.765,995.792 868.008,995.057 870.251,994.323 872.494,993.588 874.737,992.854 876.979,992.119 879.222,991.385 881.465,990.651 883.708,989.916 885.951,989.182 888.193,988.448 890.436,987.714 892.679,986.98 894.922,986.247 897.165,985.513 899.408,984.779 901.65,984.046 903.893,983.313 906.136,982.579 908.379,981.847 910.622,981.114 912.864,980.382 915.107,979.65 917.35,978.919 919.593,978.189 921.836,977.459 924.079,976.73 926.321,976.002 928.564,975.275 930.807,974.549 933.05,973.823 935.293,973.099 937.536,972.377 939.778,971.655 942.021,970.935 944.264,970.216 946.507,969.498 948.75,968.782 950.992,968.067 953.235,967.353 955.478,966.642 957.721,965.931 959.964,965.223 962.207,964.516 964.449,963.81 966.692,963.107 968.935,962.405 971.178,961.705 973.421,961.006 975.663,960.31 977.906,959.615 980.149,958.922 982.392,958.231 984.635,957.541 986.878,956.854 989.12,956.168 991.363,955.485 993.606,954.803 995.849,954.123 998.092,953.445 1000.33,952.769 1002.58,952.094 1004.82,951.422 1007.06,950.751 1009.31,950.082 1011.55,949.415 1013.79,948.75 1016.03,948.086 1018.28,947.425 1020.52,946.765 1022.76,946.106 1025.01,945.45 1027.25,944.795 1029.49,944.141 1031.73,943.49 1033.98,942.839 1036.22,942.191 1038.46,941.544 1040.71,940.899 1042.95,940.255 1045.19,939.614 1047.43,938.975 1049.68,938.338 1051.92,937.703 1054.16,937.071 1056.41,936.44 1058.65,935.812 1060.89,935.186 1063.13,934.563 1065.38,933.942 1067.62,933.324 1069.86,932.708 1072.1,932.095 1074.35,931.484 1076.59,930.876 1078.83,930.271 1081.08,929.668 1083.32,929.069 1085.56,928.471 1087.8,927.877 1090.05,927.285 1092.29,926.697 1094.53,926.111 1096.78,925.527 1099.02,924.947 1101.26,924.37 1103.5,923.795 1105.75,923.223 1107.99,922.654 1110.23,922.088 1112.48,921.525 1114.72,920.965 1116.96,920.408 1119.2,919.853 1121.45,919.301 1123.69,918.753 1125.93,918.207 1128.18,917.663 1130.42,917.123 1132.66,916.585 1134.9,916.05 1137.15,915.518 1139.39,914.989 1141.63,914.462 1143.88,913.938 1146.12,913.416 1148.36,912.897 1150.6,912.381 1152.85,911.867 1155.09,911.355 1157.33,910.846 1159.57,910.339 1161.82,909.835 1164.06,909.333 1166.3,908.833 1168.55,908.336 1170.79,907.84 1173.03,907.347 1175.27,906.856 1177.52,906.367 1179.76,905.881 1182,905.397 1184.25,904.916 1186.49,904.437 1188.73,903.961 1190.97,903.488 1193.22,903.017 1195.46,902.549 1197.7,902.084 1199.95,901.621 1202.19,901.161 1204.43,900.704 1206.67,900.25 1208.92,899.798 1211.16,899.349 1213.4,898.903 1215.65,898.46 1217.89,898.02 1220.13,897.583 1222.37,897.148 1224.62,896.716 1226.86,896.287 1229.1,895.861 1231.35,895.438 1233.59,895.018 1235.83,894.6 1238.07,894.186 1240.32,893.774 1242.56,893.365 1244.8,892.959 1247.04,892.556 1249.29,892.155 1251.53,891.757 1253.77,891.363 1256.02,890.97 1258.26,890.581 1260.5,890.194 1262.74,889.811 1264.99,889.429 1267.23,889.051 1269.47,888.675 1271.72,888.301 1273.96,887.93 1276.2,887.562 1278.44,887.196 1280.69,886.833 1282.93,886.472 1285.17,886.114 1287.42,885.758 1289.66,885.404 1291.9,885.053 1294.14,884.703 1296.39,884.356 1298.63,884.011 1300.87,883.669 1303.12,883.328 1305.36,882.989 1307.6,882.652 1309.84,882.317 1312.09,881.984 1314.33,881.653 1316.57,881.324 1318.82,880.996 1321.06,880.67 1323.3,880.347 1325.54,880.026 1327.79,879.706 1330.03,879.389 1332.27,879.074 1334.51,878.762 1336.76,878.451 1339,878.142 1341.24,877.836 1343.49,877.532 1345.73,877.23 1347.97,876.93 1350.21,876.633 1352.46,876.338 1354.7,876.044 1356.94,875.754 1359.19,875.465 1361.43,875.178 1363.67,874.894 1365.91,874.612 1368.16,874.332 1370.4,874.055 1372.64,873.779 1374.89,873.506 1377.13,873.235 1379.37,872.966 1381.61,872.699 1383.86,872.435 1386.1,872.172 1388.34,871.912 1390.59,871.654 1392.83,871.398 1395.07,871.144 1397.31,870.892 1399.56,870.643 1401.8,870.395 1404.04,870.15 1406.29,869.906 1408.53,869.664 1410.77,869.425 1413.01,869.187 1415.26,868.951 1417.5,868.718 1419.74,868.486 1421.98,868.256 1424.23,868.028 1426.47,867.801 1428.71,867.577 1430.96,867.354 1433.2,867.133 1435.44,866.913 1437.68,866.696 1439.93,866.48 1442.17,866.265 1444.41,866.052 1446.66,865.841 1448.9,865.631 1451.14,865.423 1453.38,865.216 1455.63,865.01 1457.87,864.806 1460.11,864.603 1462.36,864.401 1464.6,864.201 1466.84,864.001 1469.08,863.803 1471.33,863.606 1473.57,863.411 1475.81,863.217 1478.06,863.024 1480.3,862.833 1482.54,862.643 1484.78,862.455 1487.03,862.268 1489.27,862.083 1491.51,861.899 1493.76,861.716 1496,861.535 1498.24,861.355 1500.48,861.177 1502.73,861 1504.97,860.824 1507.21,860.65 1509.46,860.478 1511.7,860.307 1513.94,860.137 1516.18,859.969 1518.43,859.802 1520.67,859.637 1522.91,859.473 1525.15,859.31 1527.4,859.149 1529.64,858.989 1531.88,858.831 1534.13,858.674 1536.37,858.519 1538.61,858.365 1540.85,858.212 1543.1,858.061 1545.34,857.911 1547.58,857.762 1549.83,857.615 1552.07,857.469 1554.31,857.324 1556.55,857.181 1558.8,857.039 1561.04,856.899 1563.28,856.759 1565.53,856.621 1567.77,856.484 1570.01,856.349 1572.25,856.214 1574.5,856.081 1576.74,855.949 1578.98,855.818 1581.23,855.689 1583.47,855.56 1585.71,855.433 1587.95,855.306 1590.2,855.181 1592.44,855.057 1594.68,854.934 1596.93,854.812 1599.17,854.691 1601.41,854.571 1603.65,854.452 1605.9,854.333 1608.14,854.216 1610.38,854.1 1612.62,853.984 1614.87,853.87 1617.11,853.756 1619.35,853.643 1621.6,853.531 1623.84,853.419 1626.08,853.308 1628.32,853.198 1630.57,853.089 1632.81,852.98 1635.05,852.872 1637.3,852.764 1639.54,852.658 1641.78,852.552 1644.02,852.446 1646.27,852.342 1648.51,852.238 1650.75,852.136 1653,852.034 1655.24,851.933 1657.48,851.832 1659.72,851.733 1661.97,851.634 1664.21,851.536 1666.45,851.439 1668.7,851.343 1670.94,851.247 1673.18,851.152 1675.42,851.059 1677.67,850.966 1679.91,850.873 1682.15,850.782 1684.4,850.691 1686.64,850.602 1688.88,850.513 1691.12,850.425 1693.37,850.337 1695.61,850.251 1697.85,850.165 1700.09,850.08 1702.34,849.996 1704.58,849.913 1706.82,849.831 1709.07,849.749 1711.31,849.668 1713.55,849.588 1715.79,849.509 1718.04,849.43 1720.28,849.352 1722.52,849.275 1724.77,849.199 1727.01,849.123 1729.25,849.049 1731.49,848.975 1733.74,848.901 1735.98,848.829 1738.22,848.757 1740.47,848.686 1742.71,848.615 1744.95,848.545 1747.19,848.476 1749.44,848.408 1751.68,848.34 1753.92,848.273 1756.17,848.206 1758.41,848.14 1760.65,848.075 1762.89,848.011 1765.14,847.946 1767.38,847.883 1769.62,847.82 1771.87,847.758 1774.11,847.696 1776.35,847.635 1778.59,847.574 1780.84,847.514 1783.08,847.454 1785.32,847.395 1787.56,847.336 1789.81,847.278 1792.05,847.22 1794.29,847.163 1796.54,847.106 1798.78,847.049 1801.02,846.993 1803.26,846.937 1805.51,846.882 1807.75,846.826 1809.99,846.771 1812.24,846.717 1814.48,846.663 1816.72,846.609 1818.96,846.555 1821.21,846.501 1823.45,846.448 1825.69,846.395 1827.94,846.343 1830.18,846.291 1832.42,846.239 1834.66,846.188 1836.91,846.137 1839.15,846.086 1841.39,846.036 1843.64,845.986 1845.88,845.937 1848.12,845.888 1850.36,845.839 1852.61,845.791 1854.85,845.743 1857.09,845.696 1859.34,845.649 1861.58,845.602 1863.82,845.556 1866.06,845.511 1868.31,845.465 1870.55,845.421 1872.79,845.376 1875.03,845.332 1877.28,845.289 1879.52,845.245 1881.76,845.203 1884.01,845.16 1886.25,845.119 1888.49,845.077 1890.73,845.036 1892.98,844.996 1895.22,844.955 1897.46,844.916 1899.71,844.876 1901.95,844.837 1904.19,844.799 1906.43,844.761 1908.68,844.723 1910.92,844.686 1913.16,844.649 1915.41,844.613 1917.65,844.576 1919.89,844.541 1922.13,844.506 1924.38,844.471 1926.62,844.436 1928.86,844.402 1931.11,844.368 1933.35,844.335 1935.59,844.302 1937.83,844.269 1940.08,844.237 1942.32,844.205 1944.56,844.174 1946.81,844.143 1949.05,844.112 1951.29,844.081 1953.53,844.051 1955.78,844.021 1958.02,843.991 1960.26,843.962 1962.5,843.933 1964.75,843.904 1966.99,843.876 1969.23,843.848 1971.48,843.82 1973.72,843.792 1975.96,843.765 1978.2,843.738 1980.45,843.711 1982.69,843.684 1984.93,843.658 1987.18,843.632 1989.42,843.606 1991.66,843.58 1993.9,843.554 1996.15,843.529 1998.39,843.503 2000.63,843.478 2002.88,843.453 2005.12,843.428 2007.36,843.403 2009.6,843.378 2011.85,843.354 2014.09,843.329 2016.33,843.304 2018.58,843.28 2020.82,843.256 2023.06,843.231 2025.3,843.207 2027.55,843.182 2029.79,843.158 2032.03,843.134 2034.28,843.11 2036.52,843.086 2038.76,843.062 2041,843.038 2043.25,843.014 2045.49,842.991 2047.73,842.967 2049.97,842.944 2052.22,842.921 2054.46,842.898 2056.7,842.875 2058.95,842.853 2061.19,842.83 2063.43,842.808 2065.67,842.786 2067.92,842.764 2070.16,842.742 2072.4,842.721 2074.65,842.7 2076.89,842.679 2079.13,842.658 2081.37,842.637 2083.62,842.617 2085.86,842.596 2088.1,842.577 2090.35,842.557 2092.59,842.537 2094.83,842.518 2097.07,842.499 2099.32,842.48 2101.56,842.461 2103.8,842.443 2106.05,842.425 2108.29,842.407 2110.53,842.389 2112.77,842.372 2115.02,842.355 2117.26,842.338 2119.5,842.321 2121.75,842.305 2123.99,842.289 2126.23,842.273 2128.47,842.257 2130.72,842.242 2132.96,842.226 2135.2,842.211 2137.45,842.197 2139.69,842.182 2141.93,842.168 2144.17,842.154 2146.42,842.14 2148.66,842.126 2150.9,842.113 2153.14,842.099 2155.39,842.086 2157.63,842.074 2159.87,842.061 2162.12,842.049 2164.36,842.036 2166.6,842.024 2168.84,842.012 2171.09,842.001 2173.33,841.989 2175.57,841.978 2177.82,841.967 2180.06,841.956 2182.3,841.945 2184.54,841.934 2186.79,841.924 2189.03,841.913 2191.27,841.903 2193.52,841.893 2195.76,841.882 2198,841.872 2200.24,841.862 2202.49,841.853 2204.73,841.843 2206.97,841.833 2209.22,841.823 2211.46,841.814 2213.7,841.804 2215.94,841.795 2218.19,841.785 2220.43,841.776 2222.67,841.766 2224.92,841.757 2227.16,841.747 2229.4,841.738 2231.64,841.728 2233.89,841.718 2236.13,841.708 2238.37,841.699 2240.61,841.689 2242.86,841.679 2245.1,841.669 2247.34,841.658 2249.59,841.648 2251.83,841.637 2254.07,841.627 2256.31,841.616 2258.56,841.605 2260.8,841.595 2263.04,841.584 2265.29,841.574 2267.53,841.564 2269.77,841.554 2272.01,841.544 2274.26,841.534 2276.5,841.525 2278.74,841.515 2280.99,841.506 2283.23,841.496 2285.47,841.487 2287.71,841.478 2289.96,841.469 2292.2,841.46 2294.44,841.451 2296.69,841.443 2298.93,841.434 2301.17,841.425 2303.41,841.417 2305.66,841.409 2307.9,841.4 2310.14,841.392 2312.39,841.384 2314.63,841.376 2316.87,841.368 2319.11,841.36 2321.36,841.352 2323.6,841.345 2325.84,841.337 2328.08,841.33 2330.33,841.322 2332.57,841.315 2334.81,841.308 2337.06,841.3 2339.3,841.293 2341.54,841.286 2343.78,841.279 2346.03,841.272 2348.27,841.265 2350.51,841.258 2352.76,841.252 "/>
<polyline clip-path="url(#clip161)" style="stroke:#e26f46; stroke-linecap:round; stroke-linejoin:round; stroke-width:24; stroke-opacity:1; fill:none" points="112.177,1384.23 114.42,1358.75 116.663,1334.42 118.906,1311.2 121.148,1289.05 123.391,1267.93 125.634,1247.8 127.877,1228.63 130.12,1210.38 132.363,1193 134.605,1176.47 136.848,1160.75 139.091,1145.79 141.334,1131.58 143.577,1118.07 145.819,1105.22 148.062,1093.02 150.305,1081.42 152.548,1070.41 154.791,1059.94 157.034,1050 159.276,1040.55 161.519,1031.58 163.762,1023.05 166.005,1014.95 168.248,1007.26 170.491,999.945 172.733,992.995 174.976,986.39 177.219,980.111 179.462,974.142 181.705,968.467 183.947,963.07 186.19,957.938 188.433,953.056 190.676,948.412 192.919,943.992 195.162,939.786 197.404,935.78 199.647,931.966 201.89,928.332 204.133,924.869 206.376,921.57 208.619,918.425 210.861,915.427 213.104,912.567 215.347,909.839 217.59,907.235 219.833,904.748 222.075,902.373 224.318,900.104 226.561,897.933 228.804,895.857 231.047,893.871 233.29,891.969 235.532,890.148 237.775,888.403 240.018,886.731 242.261,885.128 244.504,883.589 246.746,882.112 248.989,880.693 251.232,879.329 253.475,878.016 255.718,876.752 257.961,875.535 260.203,874.36 262.446,873.227 264.689,872.133 266.932,871.076 269.175,870.054 271.418,869.065 273.66,868.108 275.903,867.181 278.146,866.282 280.389,865.409 282.632,864.562 284.874,863.738 287.117,862.936 289.36,862.155 291.603,861.394 293.846,860.651 296.089,859.924 298.331,859.214 300.574,858.518 302.817,857.837 305.06,857.169 307.303,856.514 309.545,855.871 311.788,855.239 314.031,854.618 316.274,854.007 318.517,853.405 320.76,852.811 323.002,852.226 325.245,851.648 327.488,851.077 329.731,850.513 331.974,849.954 334.217,849.4 336.459,848.852 338.702,848.307 340.945,847.766 343.188,847.228 345.431,846.694 347.673,846.163 349.916,845.634 352.159,845.107 354.402,844.583 356.645,844.06 358.888,843.539 361.13,843.02 363.373,842.502 365.616,841.985 367.859,841.469 370.102,840.953 372.344,840.437 374.587,839.922 376.83,839.407 379.073,838.891 381.316,838.375 383.559,837.858 385.801,837.341 388.044,836.822 390.287,836.302 392.53,835.781 394.773,835.258 397.016,834.733 399.258,834.207 401.501,833.679 403.744,833.149 405.987,832.617 408.23,832.083 410.472,831.547 412.715,831.009 414.958,830.469 417.201,829.926 419.444,829.381 421.687,828.834 423.929,828.285 426.172,827.732 428.415,827.178 430.658,826.62 432.901,826.06 435.143,825.497 437.386,824.931 439.629,824.362 441.872,823.79 444.115,823.215 446.358,822.637 448.6,822.055 450.843,821.47 453.086,820.882 455.329,820.29 457.572,819.695 459.815,819.096 462.057,818.494 464.3,817.888 466.543,817.278 468.786,816.665 471.029,816.048 473.271,815.427 475.514,814.803 477.757,814.175 480,813.543 482.243,812.908 484.486,812.269 486.728,811.626 488.971,810.979 491.214,810.328 493.457,809.673 495.7,809.014 497.942,808.352 500.185,807.685 502.428,807.015 504.671,806.34 506.914,805.661 509.157,804.978 511.399,804.292 513.642,803.601 515.885,802.905 518.128,802.206 520.371,801.502 522.614,800.794 524.856,800.082 527.099,799.365 529.342,798.644 531.585,797.919 533.828,797.189 536.07,796.455 538.313,795.716 540.556,794.973 542.799,794.225 545.042,793.473 547.285,792.717 549.527,791.956 551.77,791.19 554.013,790.421 556.256,789.646 558.499,788.867 560.741,788.084 562.984,787.295 565.227,786.503 567.47,785.705 569.713,784.903 571.956,784.097 574.198,783.285 576.441,782.469 578.684,781.649 580.927,780.823 583.17,779.993 585.413,779.158 587.655,778.318 589.898,777.474 592.141,776.625 594.384,775.771 596.627,774.912 598.869,774.048 601.112,773.18 603.355,772.307 605.598,771.429 607.841,770.546 610.084,769.658 612.326,768.765 614.569,767.868 616.812,766.966 619.055,766.059 621.298,765.147 623.54,764.23 625.783,763.309 628.026,762.382 630.269,761.451 632.512,760.515 634.755,759.574 636.997,758.628 639.24,757.677 641.483,756.722 643.726,755.762 645.969,754.797 648.212,753.828 650.454,752.854 652.697,751.876 654.94,750.893 657.183,749.906 659.426,748.914 661.668,747.917 663.911,746.915 666.154,745.909 668.397,744.898 670.64,743.881 672.883,742.86 675.125,741.835 677.368,740.804 679.611,739.768 681.854,738.727 684.097,737.681 686.339,736.63 688.582,735.574 690.825,734.513 693.068,733.447 695.311,732.375 697.554,731.299 699.796,730.218 702.039,729.131 704.282,728.04 706.525,726.943 708.768,725.842 711.011,724.735 713.253,723.623 715.496,722.507 717.739,721.385 719.982,720.259 722.225,719.127 724.467,717.991 726.71,716.85 728.953,715.704 731.196,714.553 733.439,713.398 735.682,712.238 737.924,711.073 740.167,709.904 742.41,708.73 744.653,707.551 746.896,706.369 749.138,705.182 751.381,703.99 753.624,702.794 755.867,701.595 758.11,700.391 760.353,699.183 762.595,697.971 764.838,696.755 767.081,695.536 769.324,694.313 771.567,693.086 773.81,691.856 776.052,690.622 778.295,689.385 780.538,688.145 782.781,686.901 785.024,685.654 787.266,684.403 789.509,683.148 791.752,681.89 793.995,680.628 796.238,679.363 798.481,678.094 800.723,676.821 802.966,675.544 805.209,674.264 807.452,672.98 809.695,671.693 811.938,670.401 814.18,669.106 816.423,667.807 818.666,666.505 820.909,665.199 823.152,663.89 825.394,662.576 827.637,661.26 829.88,659.94 832.123,658.616 834.366,657.289 836.609,655.958 838.851,654.624 841.094,653.287 843.337,651.947 845.58,650.603 847.823,649.256 850.065,647.907 852.308,646.554 854.551,645.198 856.794,643.839 859.037,642.478 861.28,641.114 863.522,639.747 865.765,638.378 868.008,637.006 870.251,635.632 872.494,634.255 874.737,632.877 876.979,631.496 879.222,630.114 881.465,628.729 883.708,627.343 885.951,625.955 888.193,624.565 890.436,623.175 892.679,621.783 894.922,620.389 897.165,618.995 899.408,617.6 901.65,616.204 903.893,614.808 906.136,613.411 908.379,612.013 910.622,610.615 912.864,609.216 915.107,607.816 917.35,606.415 919.593,605.014 921.836,603.611 924.079,602.208 926.321,600.804 928.564,599.399 930.807,597.993 933.05,596.586 935.293,595.178 937.536,593.769 939.778,592.36 942.021,590.949 944.264,589.538 946.507,588.125 948.75,586.712 950.992,585.298 953.235,583.883 955.478,582.468 957.721,581.051 959.964,579.634 962.207,578.217 964.449,576.799 966.692,575.38 968.935,573.961 971.178,572.542 973.421,571.122 975.663,569.702 977.906,568.282 980.149,566.862 982.392,565.443 984.635,564.023 986.878,562.603 989.12,561.184 991.363,559.765 993.606,558.347 995.849,556.93 998.092,555.513 1000.33,554.097 1002.58,552.682 1004.82,551.269 1007.06,549.857 1009.31,548.446 1011.55,547.037 1013.79,545.629 1016.03,544.224 1018.28,542.821 1020.52,541.42 1022.76,540.021 1025.01,538.625 1027.25,537.232 1029.49,535.841 1031.73,534.454 1033.98,533.07 1036.22,531.69 1038.46,530.313 1040.71,528.938 1042.95,527.567 1045.19,526.199 1047.43,524.833 1049.68,523.47 1051.92,522.11 1054.16,520.752 1056.41,519.397 1058.65,518.045 1060.89,516.695 1063.13,515.347 1065.38,514.002 1067.62,512.66 1069.86,511.32 1072.1,509.982 1074.35,508.647 1076.59,507.314 1078.83,505.984 1081.08,504.656 1083.32,503.33 1085.56,502.007 1087.8,500.687 1090.05,499.369 1092.29,498.053 1094.53,496.74 1096.78,495.429 1099.02,494.122 1101.26,492.816 1103.5,491.514 1105.75,490.214 1107.99,488.917 1110.23,487.623 1112.48,486.332 1114.72,485.043 1116.96,483.758 1119.2,482.476 1121.45,481.197 1123.69,479.921 1125.93,478.649 1128.18,477.38 1130.42,476.115 1132.66,474.853 1134.9,473.595 1137.15,472.341 1139.39,471.091 1141.63,469.845 1143.88,468.603 1146.12,467.365 1148.36,466.132 1150.6,464.903 1152.85,463.679 1155.09,462.46 1157.33,461.245 1159.57,460.036 1161.82,458.832 1164.06,457.633 1166.3,456.44 1168.55,455.253 1170.79,454.072 1173.03,452.896 1175.27,451.726 1177.52,450.561 1179.76,449.401 1182,448.247 1184.25,447.097 1186.49,445.953 1188.73,444.813 1190.97,443.678 1193.22,442.548 1195.46,441.422 1197.7,440.301 1199.95,439.185 1202.19,438.073 1204.43,436.966 1206.67,435.863 1208.92,434.764 1211.16,433.67 1213.4,432.58 1215.65,431.495 1217.89,430.413 1220.13,429.336 1222.37,428.263 1224.62,427.194 1226.86,426.129 1229.1,425.069 1231.35,424.012 1233.59,422.96 1235.83,421.912 1238.07,420.868 1240.32,419.828 1242.56,418.792 1244.8,417.76 1247.04,416.733 1249.29,415.71 1251.53,414.691 1253.77,413.676 1256.02,412.666 1258.26,411.66 1260.5,410.658 1262.74,409.661 1264.99,408.668 1267.23,407.68 1269.47,406.696 1271.72,405.717 1273.96,404.742 1276.2,403.773 1278.44,402.808 1280.69,401.848 1282.93,400.893 1285.17,399.943 1287.42,398.998 1289.66,398.058 1291.9,397.124 1294.14,396.194 1296.39,395.271 1298.63,394.353 1300.87,393.441 1303.12,392.534 1305.36,391.633 1307.6,390.739 1309.84,389.85 1312.09,388.968 1314.33,388.092 1316.57,387.223 1318.82,386.359 1321.06,385.501 1323.3,384.648 1325.54,383.801 1327.79,382.959 1330.03,382.122 1332.27,381.29 1334.51,380.464 1336.76,379.642 1339,378.825 1341.24,378.013 1343.49,377.206 1345.73,376.403 1347.97,375.605 1350.21,374.812 1352.46,374.023 1354.7,373.238 1356.94,372.458 1359.19,371.683 1361.43,370.911 1363.67,370.144 1365.91,369.381 1368.16,368.623 1370.4,367.868 1372.64,367.118 1374.89,366.372 1377.13,365.63 1379.37,364.892 1381.61,364.158 1383.86,363.428 1386.1,362.702 1388.34,361.98 1390.59,361.261 1392.83,360.547 1395.07,359.837 1397.31,359.131 1399.56,358.429 1401.8,357.73 1404.04,357.036 1406.29,356.346 1408.53,355.659 1410.77,354.977 1413.01,354.298 1415.26,353.624 1417.5,352.954 1419.74,352.287 1421.98,351.625 1424.23,350.967 1426.47,350.313 1428.71,349.663 1430.96,349.018 1433.2,348.377 1435.44,347.74 1437.68,347.107 1439.93,346.479 1442.17,345.855 1444.41,345.235 1446.66,344.62 1448.9,344.01 1451.14,343.404 1453.38,342.804 1455.63,342.207 1457.87,341.616 1460.11,341.03 1462.36,340.448 1464.6,339.872 1466.84,339.301 1469.08,338.735 1471.33,338.173 1473.57,337.616 1475.81,337.064 1478.06,336.515 1480.3,335.971 1482.54,335.431 1484.78,334.894 1487.03,334.362 1489.27,333.834 1491.51,333.31 1493.76,332.789 1496,332.272 1498.24,331.759 1500.48,331.249 1502.73,330.743 1504.97,330.241 1507.21,329.742 1509.46,329.246 1511.7,328.754 1513.94,328.265 1516.18,327.78 1518.43,327.297 1520.67,326.818 1522.91,326.342 1525.15,325.869 1527.4,325.399 1529.64,324.933 1531.88,324.469 1534.13,324.008 1536.37,323.551 1538.61,323.096 1540.85,322.644 1543.1,322.195 1545.34,321.749 1547.58,321.306 1549.83,320.866 1552.07,320.429 1554.31,319.994 1556.55,319.562 1558.8,319.133 1561.04,318.707 1563.28,318.284 1565.53,317.863 1567.77,317.445 1570.01,317.03 1572.25,316.618 1574.5,316.209 1576.74,315.802 1578.98,315.398 1581.23,314.997 1583.47,314.599 1585.71,314.204 1587.95,313.811 1590.2,313.421 1592.44,313.035 1594.68,312.651 1596.93,312.27 1599.17,311.892 1601.41,311.516 1603.65,311.144 1605.9,310.775 1608.14,310.409 1610.38,310.046 1612.62,309.686 1614.87,309.329 1617.11,308.976 1619.35,308.625 1621.6,308.278 1623.84,307.934 1626.08,307.594 1628.32,307.257 1630.57,306.923 1632.81,306.592 1635.05,306.266 1637.3,305.942 1639.54,305.622 1641.78,305.304 1644.02,304.989 1646.27,304.676 1648.51,304.367 1650.75,304.06 1653,303.756 1655.24,303.454 1657.48,303.155 1659.72,302.858 1661.97,302.563 1664.21,302.271 1666.45,301.982 1668.7,301.694 1670.94,301.409 1673.18,301.126 1675.42,300.845 1677.67,300.567 1679.91,300.29 1682.15,300.016 1684.4,299.743 1686.64,299.473 1688.88,299.205 1691.12,298.938 1693.37,298.674 1695.61,298.411 1697.85,298.15 1700.09,297.891 1702.34,297.634 1704.58,297.379 1706.82,297.126 1709.07,296.874 1711.31,296.624 1713.55,296.376 1715.79,296.129 1718.04,295.884 1720.28,295.641 1722.52,295.399 1724.77,295.16 1727.01,294.921 1729.25,294.685 1731.49,294.45 1733.74,294.216 1735.98,293.985 1738.22,293.755 1740.47,293.526 1742.71,293.299 1744.95,293.074 1747.19,292.85 1749.44,292.628 1751.68,292.407 1753.92,292.188 1756.17,291.97 1758.41,291.755 1760.65,291.54 1762.89,291.328 1765.14,291.117 1767.38,290.907 1769.62,290.699 1771.87,290.493 1774.11,290.289 1776.35,290.086 1778.59,289.885 1780.84,289.685 1783.08,289.488 1785.32,289.292 1787.56,289.097 1789.81,288.905 1792.05,288.714 1794.29,288.525 1796.54,288.338 1798.78,288.153 1801.02,287.969 1803.26,287.788 1805.51,287.609 1807.75,287.431 1809.99,287.255 1812.24,287.082 1814.48,286.91 1816.72,286.741 1818.96,286.574 1821.21,286.408 1823.45,286.245 1825.69,286.083 1827.94,285.923 1830.18,285.764 1832.42,285.607 1834.66,285.451 1836.91,285.297 1839.15,285.144 1841.39,284.993 1843.64,284.843 1845.88,284.695 1848.12,284.548 1850.36,284.402 1852.61,284.257 1854.85,284.114 1857.09,283.972 1859.34,283.831 1861.58,283.691 1863.82,283.552 1866.06,283.415 1868.31,283.278 1870.55,283.143 1872.79,283.008 1875.03,282.875 1877.28,282.742 1879.52,282.611 1881.76,282.481 1884.01,282.351 1886.25,282.222 1888.49,282.095 1890.73,281.968 1892.98,281.842 1895.22,281.717 1897.46,281.592 1899.71,281.469 1901.95,281.346 1904.19,281.224 1906.43,281.103 1908.68,280.983 1910.92,280.863 1913.16,280.745 1915.41,280.627 1917.65,280.509 1919.89,280.393 1922.13,280.277 1924.38,280.162 1926.62,280.047 1928.86,279.934 1931.11,279.821 1933.35,279.709 1935.59,279.597 1937.83,279.486 1940.08,279.376 1942.32,279.267 1944.56,279.158 1946.81,279.05 1949.05,278.943 1951.29,278.837 1953.53,278.731 1955.78,278.626 1958.02,278.522 1960.26,278.418 1962.5,278.315 1964.75,278.213 1966.99,278.112 1969.23,278.012 1971.48,277.912 1973.72,277.813 1975.96,277.715 1978.2,277.618 1980.45,277.522 1982.69,277.426 1984.93,277.332 1987.18,277.238 1989.42,277.145 1991.66,277.053 1993.9,276.962 1996.15,276.873 1998.39,276.784 2000.63,276.696 2002.88,276.609 2005.12,276.523 2007.36,276.438 2009.6,276.355 2011.85,276.272 2014.09,276.191 2016.33,276.111 2018.58,276.032 2020.82,275.954 2023.06,275.878 2025.3,275.802 2027.55,275.728 2029.79,275.656 2032.03,275.584 2034.28,275.513 2036.52,275.443 2038.76,275.374 2041,275.306 2043.25,275.239 2045.49,275.173 2047.73,275.107 2049.97,275.042 2052.22,274.978 2054.46,274.915 2056.7,274.852 2058.95,274.79 2061.19,274.729 2063.43,274.668 2065.67,274.607 2067.92,274.548 2070.16,274.488 2072.4,274.429 2074.65,274.371 2076.89,274.313 2079.13,274.256 2081.37,274.199 2083.62,274.142 2085.86,274.086 2088.1,274.03 2090.35,273.974 2092.59,273.919 2094.83,273.863 2097.07,273.809 2099.32,273.754 2101.56,273.7 2103.8,273.646 2106.05,273.592 2108.29,273.538 2110.53,273.485 2112.77,273.432 2115.02,273.379 2117.26,273.326 2119.5,273.273 2121.75,273.22 2123.99,273.168 2126.23,273.116 2128.47,273.064 2130.72,273.012 2132.96,272.96 2135.2,272.908 2137.45,272.856 2139.69,272.805 2141.93,272.754 2144.17,272.702 2146.42,272.651 2148.66,272.6 2150.9,272.55 2153.14,272.499 2155.39,272.448 2157.63,272.398 2159.87,272.348 2162.12,272.298 2164.36,272.248 2166.6,272.198 2168.84,272.149 2171.09,272.099 2173.33,272.05 2175.57,272.002 2177.82,271.953 2180.06,271.904 2182.3,271.856 2184.54,271.808 2186.79,271.761 2189.03,271.714 2191.27,271.667 2193.52,271.62 2195.76,271.574 2198,271.528 2200.24,271.483 2202.49,271.437 2204.73,271.393 2206.97,271.349 2209.22,271.305 2211.46,271.262 2213.7,271.219 2215.94,271.177 2218.19,271.136 2220.43,271.095 2222.67,271.054 2224.92,271.015 2227.16,270.976 2229.4,270.938 2231.64,270.9 2233.89,270.864 2236.13,270.828 2238.37,270.793 2240.61,270.759 2242.86,270.726 2245.1,270.693 2247.34,270.662 2249.59,270.632 2251.83,270.603 2254.07,270.575 2256.31,270.547 2258.56,270.52 2260.8,270.492 2263.04,270.465 2265.29,270.438 2267.53,270.411 2269.77,270.385 2272.01,270.358 2274.26,270.332 2276.5,270.306 2278.74,270.28 2280.99,270.254 2283.23,270.228 2285.47,270.202 2287.71,270.177 2289.96,270.152 2292.2,270.127 2294.44,270.102 2296.69,270.077 2298.93,270.052 2301.17,270.028 2303.41,270.003 2305.66,269.979 2307.9,269.955 2310.14,269.931 2312.39,269.907 2314.63,269.884 2316.87,269.861 2319.11,269.837 2321.36,269.814 2323.6,269.791 2325.84,269.769 2328.08,269.746 2330.33,269.724 2332.57,269.701 2334.81,269.679 2337.06,269.657 2339.3,269.636 2341.54,269.614 2343.78,269.593 2346.03,269.571 2348.27,269.55 2350.51,269.53 2352.76,269.509 "/>
<circle clip-path="url(#clip161)" cx="112.177" cy="834.559" r="21.6" fill="#009af9" fill-rule="evenodd" fill-opacity="0.7" stroke="#000000" stroke-opacity="0.7" stroke-width="3.2"/>
<circle clip-path="url(#clip161)" cx="230.102" cy="1165.09" r="21.6" fill="#009af9" fill-rule="evenodd" fill-opacity="0.7" stroke="#000000" stroke-opacity="0.7" stroke-width="3.2"/>
<circle clip-path="url(#clip161)" cx="348.028" cy="1113.86" r="21.6" fill="#009af9" fill-rule="evenodd" fill-opacity="0.7" stroke="#000000" stroke-opacity="0.7" stroke-width="3.2"/>
<circle clip-path="url(#clip161)" cx="465.953" cy="1136.79" r="21.6" fill="#009af9" fill-rule="evenodd" fill-opacity="0.7" stroke="#000000" stroke-opacity="0.7" stroke-width="3.2"/>
<circle clip-path="url(#clip161)" cx="583.878" cy="1023.09" r="21.6" fill="#009af9" fill-rule="evenodd" fill-opacity="0.7" stroke="#000000" stroke-opacity="0.7" stroke-width="3.2"/>
<circle clip-path="url(#clip161)" cx="701.803" cy="1114.99" r="21.6" fill="#009af9" fill-rule="evenodd" fill-opacity="0.7" stroke="#000000" stroke-opacity="0.7" stroke-width="3.2"/>
<circle clip-path="url(#clip161)" cx="819.728" cy="1011.59" r="21.6" fill="#009af9" fill-rule="evenodd" fill-opacity="0.7" stroke="#000000" stroke-opacity="0.7" stroke-width="3.2"/>
<circle clip-path="url(#clip161)" cx="937.654" cy="1016.32" r="21.6" fill="#009af9" fill-rule="evenodd" fill-opacity="0.7" stroke="#000000" stroke-opacity="0.7" stroke-width="3.2"/>
<circle clip-path="url(#clip161)" cx="1055.58" cy="1019.2" r="21.6" fill="#009af9" fill-rule="evenodd" fill-opacity="0.7" stroke="#000000" stroke-opacity="0.7" stroke-width="3.2"/>
<circle clip-path="url(#clip161)" cx="1173.5" cy="959.188" r="21.6" fill="#009af9" fill-rule="evenodd" fill-opacity="0.7" stroke="#000000" stroke-opacity="0.7" stroke-width="3.2"/>
<circle clip-path="url(#clip161)" cx="1291.43" cy="893.813" r="21.6" fill="#009af9" fill-rule="evenodd" fill-opacity="0.7" stroke="#000000" stroke-opacity="0.7" stroke-width="3.2"/>
<circle clip-path="url(#clip161)" cx="1409.35" cy="812.931" r="21.6" fill="#009af9" fill-rule="evenodd" fill-opacity="0.7" stroke="#000000" stroke-opacity="0.7" stroke-width="3.2"/>
<circle clip-path="url(#clip161)" cx="1527.28" cy="830.38" r="21.6" fill="#009af9" fill-rule="evenodd" fill-opacity="0.7" stroke="#000000" stroke-opacity="0.7" stroke-width="3.2"/>
<circle clip-path="url(#clip161)" cx="1645.2" cy="940.367" r="21.6" fill="#009af9" fill-rule="evenodd" fill-opacity="0.7" stroke="#000000" stroke-opacity="0.7" stroke-width="3.2"/>
<circle clip-path="url(#clip161)" cx="1763.13" cy="922.886" r="21.6" fill="#009af9" fill-rule="evenodd" fill-opacity="0.7" stroke="#000000" stroke-opacity="0.7" stroke-width="3.2"/>
<circle clip-path="url(#clip161)" cx="1881.06" cy="752.104" r="21.6" fill="#009af9" fill-rule="evenodd" fill-opacity="0.7" stroke="#000000" stroke-opacity="0.7" stroke-width="3.2"/>
<circle clip-path="url(#clip161)" cx="1998.98" cy="759.761" r="21.6" fill="#009af9" fill-rule="evenodd" fill-opacity="0.7" stroke="#000000" stroke-opacity="0.7" stroke-width="3.2"/>
<circle clip-path="url(#clip161)" cx="2116.91" cy="954.839" r="21.6" fill="#009af9" fill-rule="evenodd" fill-opacity="0.7" stroke="#000000" stroke-opacity="0.7" stroke-width="3.2"/>
<circle clip-path="url(#clip161)" cx="2234.83" cy="828.746" r="21.6" fill="#009af9" fill-rule="evenodd" fill-opacity="0.7" stroke="#000000" stroke-opacity="0.7" stroke-width="3.2"/>
<circle clip-path="url(#clip161)" cx="2352.76" cy="954.205" r="21.6" fill="#009af9" fill-rule="evenodd" fill-opacity="0.7" stroke="#000000" stroke-opacity="0.7" stroke-width="3.2"/>
<circle clip-path="url(#clip161)" cx="112.177" cy="1384.24" r="21.6" fill="#e26f46" fill-rule="evenodd" fill-opacity="0.7" stroke="#000000" stroke-opacity="0.7" stroke-width="3.2"/>
<circle clip-path="url(#clip161)" cx="230.102" cy="990.347" r="21.6" fill="#e26f46" fill-rule="evenodd" fill-opacity="0.7" stroke="#000000" stroke-opacity="0.7" stroke-width="3.2"/>
<circle clip-path="url(#clip161)" cx="348.028" cy="881.26" r="21.6" fill="#e26f46" fill-rule="evenodd" fill-opacity="0.7" stroke="#000000" stroke-opacity="0.7" stroke-width="3.2"/>
<circle clip-path="url(#clip161)" cx="465.953" cy="919.226" r="21.6" fill="#e26f46" fill-rule="evenodd" fill-opacity="0.7" stroke="#000000" stroke-opacity="0.7" stroke-width="3.2"/>
<circle clip-path="url(#clip161)" cx="583.878" cy="902.632" r="21.6" fill="#e26f46" fill-rule="evenodd" fill-opacity="0.7" stroke="#000000" stroke-opacity="0.7" stroke-width="3.2"/>
<circle clip-path="url(#clip161)" cx="701.803" cy="688.821" r="21.6" fill="#e26f46" fill-rule="evenodd" fill-opacity="0.7" stroke="#000000" stroke-opacity="0.7" stroke-width="3.2"/>
<circle clip-path="url(#clip161)" cx="819.728" cy="568.368" r="21.6" fill="#e26f46" fill-rule="evenodd" fill-opacity="0.7" stroke="#000000" stroke-opacity="0.7" stroke-width="3.2"/>
<circle clip-path="url(#clip161)" cx="937.654" cy="616.387" r="21.6" fill="#e26f46" fill-rule="evenodd" fill-opacity="0.7" stroke="#000000" stroke-opacity="0.7" stroke-width="3.2"/>
<circle clip-path="url(#clip161)" cx="1055.58" cy="553.441" r="21.6" fill="#e26f46" fill-rule="evenodd" fill-opacity="0.7" stroke="#000000" stroke-opacity="0.7" stroke-width="3.2"/>
<circle clip-path="url(#clip161)" cx="1173.5" cy="411.986" r="21.6" fill="#e26f46" fill-rule="evenodd" fill-opacity="0.7" stroke="#000000" stroke-opacity="0.7" stroke-width="3.2"/>
<circle clip-path="url(#clip161)" cx="1291.43" cy="382.781" r="21.6" fill="#e26f46" fill-rule="evenodd" fill-opacity="0.7" stroke="#000000" stroke-opacity="0.7" stroke-width="3.2"/>
<circle clip-path="url(#clip161)" cx="1409.35" cy="360.845" r="21.6" fill="#e26f46" fill-rule="evenodd" fill-opacity="0.7" stroke="#000000" stroke-opacity="0.7" stroke-width="3.2"/>
<circle clip-path="url(#clip161)" cx="1527.28" cy="359.125" r="21.6" fill="#e26f46" fill-rule="evenodd" fill-opacity="0.7" stroke="#000000" stroke-opacity="0.7" stroke-width="3.2"/>
<circle clip-path="url(#clip161)" cx="1645.2" cy="162.194" r="21.6" fill="#e26f46" fill-rule="evenodd" fill-opacity="0.7" stroke="#000000" stroke-opacity="0.7" stroke-width="3.2"/>
<circle clip-path="url(#clip161)" cx="1763.13" cy="383.036" r="21.6" fill="#e26f46" fill-rule="evenodd" fill-opacity="0.7" stroke="#000000" stroke-opacity="0.7" stroke-width="3.2"/>
<circle clip-path="url(#clip161)" cx="1881.06" cy="333.807" r="21.6" fill="#e26f46" fill-rule="evenodd" fill-opacity="0.7" stroke="#000000" stroke-opacity="0.7" stroke-width="3.2"/>
<circle clip-path="url(#clip161)" cx="1998.98" cy="108.311" r="21.6" fill="#e26f46" fill-rule="evenodd" fill-opacity="0.7" stroke="#000000" stroke-opacity="0.7" stroke-width="3.2"/>
<circle clip-path="url(#clip161)" cx="2116.91" cy="86.1857" r="21.6" fill="#e26f46" fill-rule="evenodd" fill-opacity="0.7" stroke="#000000" stroke-opacity="0.7" stroke-width="3.2"/>
<circle clip-path="url(#clip161)" cx="2234.83" cy="235.526" r="21.6" fill="#e26f46" fill-rule="evenodd" fill-opacity="0.7" stroke="#000000" stroke-opacity="0.7" stroke-width="3.2"/>
<circle clip-path="url(#clip161)" cx="2352.76" cy="429.241" r="21.6" fill="#e26f46" fill-rule="evenodd" fill-opacity="0.7" stroke="#000000" stroke-opacity="0.7" stroke-width="3.2"/>
<path clip-path="url(#clip160)" d="M186.863 352.309 L596.753 352.309 L596.753 93.1086 L186.863 93.1086  Z" fill="#ffffff" fill-rule="evenodd" fill-opacity="1"/>
<polyline clip-path="url(#clip160)" style="stroke:#000000; stroke-linecap:round; stroke-linejoin:round; stroke-width:4; stroke-opacity:1; fill:none" points="186.863,352.309 596.753,352.309 596.753,93.1086 186.863,93.1086 186.863,352.309 "/>
<polyline clip-path="url(#clip160)" style="stroke:#009af9; stroke-linecap:round; stroke-linejoin:round; stroke-width:20; stroke-opacity:1; fill:none" points="211.758,144.949 361.13,144.949 "/>
<path clip-path="url(#clip160)" d="M387.6 127.669 L392.623 127.669 L401.211 140.516 L409.845 127.669 L414.868 127.669 L403.757 144.266 L415.609 162.229 L410.586 162.229 L400.864 147.53 L391.072 162.229 L386.026 162.229 L398.364 143.78 L387.6 127.669 Z" fill="#000000" fill-rule="nonzero" fill-opacity="1" /><polyline clip-path="url(#clip160)" style="stroke:#e26f46; stroke-linecap:round; stroke-linejoin:round; stroke-width:20; stroke-opacity:1; fill:none" points="211.758,196.789 361.13,196.789 "/>
<path clip-path="url(#clip160)" d="M386.026 179.509 L391.049 179.509 L400.632 193.722 L410.146 179.509 L415.169 179.509 L402.947 197.61 L402.947 214.069 L398.248 214.069 L398.248 197.61 L386.026 179.509 Z" fill="#000000" fill-rule="nonzero" fill-opacity="1" /><circle clip-path="url(#clip160)" cx="286.444" cy="248.629" r="21.2677" fill="#009af9" fill-rule="evenodd" fill-opacity="0.7" stroke="#000000" stroke-opacity="0.7" stroke-width="3.15077"/>
<path clip-path="url(#clip160)" d="M387.6 231.349 L392.623 231.349 L401.211 244.196 L409.845 231.349 L414.868 231.349 L403.757 247.946 L415.609 265.909 L410.586 265.909 L400.864 251.21 L391.072 265.909 L386.026 265.909 L398.364 247.46 L387.6 231.349 Z" fill="#000000" fill-rule="nonzero" fill-opacity="1" /><path clip-path="url(#clip160)" d="M446.859 229.937 Q443.757 235.261 442.252 240.469 Q440.748 245.677 440.748 251.024 Q440.748 256.372 442.252 261.626 Q443.78 266.858 446.859 272.159 L443.155 272.159 Q439.683 266.719 437.947 261.464 Q436.234 256.21 436.234 251.024 Q436.234 245.862 437.947 240.631 Q439.66 235.4 443.155 229.937 L446.859 229.937 Z" fill="#000000" fill-rule="nonzero" fill-opacity="1" /><path clip-path="url(#clip160)" d="M472.183 243.918 L472.183 229.89 L476.442 229.89 L476.442 265.909 L472.183 265.909 L472.183 262.02 Q470.84 264.335 468.78 265.469 Q466.743 266.58 463.872 266.58 Q459.173 266.58 456.21 262.83 Q453.271 259.08 453.271 252.969 Q453.271 246.858 456.21 243.108 Q459.173 239.358 463.872 239.358 Q466.743 239.358 468.78 240.492 Q470.84 241.603 472.183 243.918 M457.669 252.969 Q457.669 257.668 459.59 260.353 Q461.535 263.015 464.914 263.015 Q468.294 263.015 470.238 260.353 Q472.183 257.668 472.183 252.969 Q472.183 248.27 470.238 245.608 Q468.294 242.923 464.914 242.923 Q461.535 242.923 459.59 245.608 Q457.669 248.27 457.669 252.969 Z" fill="#000000" fill-rule="nonzero" fill-opacity="1" /><path clip-path="url(#clip160)" d="M496.997 252.876 Q491.835 252.876 489.845 254.057 Q487.854 255.237 487.854 258.085 Q487.854 260.353 489.335 261.696 Q490.84 263.015 493.409 263.015 Q496.951 263.015 499.081 260.515 Q501.233 257.992 501.233 253.825 L501.233 252.876 L496.997 252.876 M505.493 251.117 L505.493 265.909 L501.233 265.909 L501.233 261.973 Q499.775 264.335 497.599 265.469 Q495.423 266.58 492.275 266.58 Q488.294 266.58 485.933 264.358 Q483.595 262.112 483.595 258.362 Q483.595 253.987 486.511 251.765 Q489.451 249.543 495.261 249.543 L501.233 249.543 L501.233 249.126 Q501.233 246.187 499.289 244.589 Q497.368 242.969 493.872 242.969 Q491.65 242.969 489.544 243.501 Q487.437 244.034 485.493 245.099 L485.493 241.163 Q487.831 240.261 490.03 239.821 Q492.229 239.358 494.312 239.358 Q499.937 239.358 502.715 242.274 Q505.493 245.191 505.493 251.117 Z" fill="#000000" fill-rule="nonzero" fill-opacity="1" /><path clip-path="url(#clip160)" d="M518.479 232.622 L518.479 239.983 L527.252 239.983 L527.252 243.293 L518.479 243.293 L518.479 257.367 Q518.479 260.538 519.335 261.441 Q520.215 262.344 522.877 262.344 L527.252 262.344 L527.252 265.909 L522.877 265.909 Q517.946 265.909 516.071 264.08 Q514.196 262.228 514.196 257.367 L514.196 243.293 L511.071 243.293 L511.071 239.983 L514.196 239.983 L514.196 232.622 L518.479 232.622 Z" fill="#000000" fill-rule="nonzero" fill-opacity="1" /><path clip-path="url(#clip160)" d="M544.636 252.876 Q539.474 252.876 537.483 254.057 Q535.492 255.237 535.492 258.085 Q535.492 260.353 536.974 261.696 Q538.479 263.015 541.048 263.015 Q544.59 263.015 546.719 260.515 Q548.872 257.992 548.872 253.825 L548.872 252.876 L544.636 252.876 M553.131 251.117 L553.131 265.909 L548.872 265.909 L548.872 261.973 Q547.414 264.335 545.238 265.469 Q543.062 266.58 539.914 266.58 Q535.932 266.58 533.571 264.358 Q531.233 262.112 531.233 258.362 Q531.233 253.987 534.15 251.765 Q537.09 249.543 542.9 249.543 L548.872 249.543 L548.872 249.126 Q548.872 246.187 546.928 244.589 Q545.006 242.969 541.511 242.969 Q539.289 242.969 537.182 243.501 Q535.076 244.034 533.131 245.099 L533.131 241.163 Q535.469 240.261 537.668 239.821 Q539.867 239.358 541.951 239.358 Q547.576 239.358 550.354 242.274 Q553.131 245.191 553.131 251.117 Z" fill="#000000" fill-rule="nonzero" fill-opacity="1" /><path clip-path="url(#clip160)" d="M561.233 229.937 L564.937 229.937 Q568.409 235.4 570.122 240.631 Q571.858 245.862 571.858 251.024 Q571.858 256.21 570.122 261.464 Q568.409 266.719 564.937 272.159 L561.233 272.159 Q564.312 266.858 565.816 261.626 Q567.344 256.372 567.344 251.024 Q567.344 245.677 565.816 240.469 Q564.312 235.261 561.233 229.937 Z" fill="#000000" fill-rule="nonzero" fill-opacity="1" /><circle clip-path="url(#clip160)" cx="286.444" cy="300.469" r="21.2677" fill="#e26f46" fill-rule="evenodd" fill-opacity="0.7" stroke="#000000" stroke-opacity="0.7" stroke-width="3.15077"/>
<path clip-path="url(#clip160)" d="M386.026 283.189 L391.049 283.189 L400.632 297.402 L410.146 283.189 L415.169 283.189 L402.947 301.29 L402.947 317.749 L398.248 317.749 L398.248 301.29 L386.026 283.189 Z" fill="#000000" fill-rule="nonzero" fill-opacity="1" /><path clip-path="url(#clip160)" d="M444.845 281.777 Q441.743 287.101 440.238 292.309 Q438.734 297.517 438.734 302.864 Q438.734 308.212 440.238 313.466 Q441.766 318.698 444.845 323.999 L441.141 323.999 Q437.669 318.559 435.933 313.304 Q434.22 308.05 434.22 302.864 Q434.22 297.702 435.933 292.471 Q437.646 287.24 441.141 281.777 L444.845 281.777 Z" fill="#000000" fill-rule="nonzero" fill-opacity="1" /><path clip-path="url(#clip160)" d="M470.169 295.758 L470.169 281.73 L474.428 281.73 L474.428 317.749 L470.169 317.749 L470.169 313.86 Q468.826 316.175 466.766 317.309 Q464.729 318.42 461.859 318.42 Q457.16 318.42 454.197 314.67 Q451.257 310.92 451.257 304.809 Q451.257 298.698 454.197 294.948 Q457.16 291.198 461.859 291.198 Q464.729 291.198 466.766 292.332 Q468.826 293.443 470.169 295.758 M455.655 304.809 Q455.655 309.508 457.576 312.193 Q459.521 314.855 462.9 314.855 Q466.28 314.855 468.224 312.193 Q470.169 309.508 470.169 304.809 Q470.169 300.11 468.224 297.448 Q466.28 294.763 462.9 294.763 Q459.521 294.763 457.576 297.448 Q455.655 300.11 455.655 304.809 Z" fill="#000000" fill-rule="nonzero" fill-opacity="1" /><path clip-path="url(#clip160)" d="M494.983 304.716 Q489.821 304.716 487.831 305.897 Q485.84 307.077 485.84 309.925 Q485.84 312.193 487.321 313.536 Q488.826 314.855 491.395 314.855 Q494.937 314.855 497.067 312.355 Q499.22 309.832 499.22 305.665 L499.22 304.716 L494.983 304.716 M503.479 302.957 L503.479 317.749 L499.22 317.749 L499.22 313.813 Q497.761 316.175 495.585 317.309 Q493.409 318.42 490.261 318.42 Q486.28 318.42 483.919 316.198 Q481.581 313.952 481.581 310.202 Q481.581 305.827 484.497 303.605 Q487.437 301.383 493.247 301.383 L499.22 301.383 L499.22 300.966 Q499.22 298.027 497.275 296.429 Q495.354 294.809 491.858 294.809 Q489.636 294.809 487.53 295.341 Q485.423 295.874 483.479 296.939 L483.479 293.003 Q485.817 292.101 488.016 291.661 Q490.215 291.198 492.298 291.198 Q497.923 291.198 500.701 294.114 Q503.479 297.031 503.479 302.957 Z" fill="#000000" fill-rule="nonzero" fill-opacity="1" /><path clip-path="url(#clip160)" d="M516.465 284.462 L516.465 291.823 L525.238 291.823 L525.238 295.133 L516.465 295.133 L516.465 309.207 Q516.465 312.378 517.321 313.281 Q518.201 314.184 520.863 314.184 L525.238 314.184 L525.238 317.749 L520.863 317.749 Q515.932 317.749 514.057 315.92 Q512.182 314.068 512.182 309.207 L512.182 295.133 L509.057 295.133 L509.057 291.823 L512.182 291.823 L512.182 284.462 L516.465 284.462 Z" fill="#000000" fill-rule="nonzero" fill-opacity="1" /><path clip-path="url(#clip160)" d="M542.622 304.716 Q537.46 304.716 535.469 305.897 Q533.479 307.077 533.479 309.925 Q533.479 312.193 534.96 313.536 Q536.465 314.855 539.034 314.855 Q542.576 314.855 544.705 312.355 Q546.858 309.832 546.858 305.665 L546.858 304.716 L542.622 304.716 M551.117 302.957 L551.117 317.749 L546.858 317.749 L546.858 313.813 Q545.4 316.175 543.224 317.309 Q541.048 318.42 537.9 318.42 Q533.918 318.42 531.557 316.198 Q529.219 313.952 529.219 310.202 Q529.219 305.827 532.136 303.605 Q535.076 301.383 540.886 301.383 L546.858 301.383 L546.858 300.966 Q546.858 298.027 544.914 296.429 Q542.992 294.809 539.497 294.809 Q537.275 294.809 535.168 295.341 Q533.062 295.874 531.118 296.939 L531.118 293.003 Q533.455 292.101 535.655 291.661 Q537.854 291.198 539.937 291.198 Q545.562 291.198 548.34 294.114 Q551.117 297.031 551.117 302.957 Z" fill="#000000" fill-rule="nonzero" fill-opacity="1" /><path clip-path="url(#clip160)" d="M559.219 281.777 L562.923 281.777 Q566.395 287.24 568.108 292.471 Q569.844 297.702 569.844 302.864 Q569.844 308.05 568.108 313.304 Q566.395 318.559 562.923 323.999 L559.219 323.999 Q562.298 318.698 563.803 313.466 Q565.33 308.212 565.33 302.864 Q565.33 297.517 563.803 292.309 Q562.298 287.101 559.219 281.777 Z" fill="#000000" fill-rule="nonzero" fill-opacity="1" /></svg>
